G04*
G04 #@! TF.GenerationSoftware,Altium Limited,Altium Designer,24.0.1 (36)*
G04*
G04 Layer_Physical_Order=4*
G04 Layer_Color=16711680*
%FSLAX43Y43*%
%MOMM*%
G71*
G04*
G04 #@! TF.SameCoordinates,62AF21CF-6A65-4154-AE07-A74382C3AF13*
G04*
G04*
G04 #@! TF.FilePolarity,Positive*
G04*
G01*
G75*
%ADD11C,0.100*%
%ADD13C,0.200*%
%ADD42C,0.090*%
%ADD43R,0.510X0.560*%
%ADD44R,0.640X0.890*%
%ADD45R,0.400X0.500*%
%ADD60R,0.890X0.640*%
%ADD61R,0.700X0.510*%
%ADD62R,0.560X0.510*%
%ADD64R,0.350X0.350*%
%ADD68R,0.510X0.700*%
%ADD69C,0.110*%
%ADD70C,0.250*%
%ADD71C,0.300*%
%ADD72C,0.160*%
%ADD73C,0.150*%
%ADD74C,0.500*%
%ADD75C,0.180*%
%ADD81C,0.400*%
%ADD90O,1.000X1.300*%
%ADD91C,0.400*%
%ADD92C,0.500*%
%ADD93C,0.550*%
%ADD95R,0.350X0.350*%
%ADD96C,1.000*%
%ADD97R,0.500X0.400*%
%ADD98R,1.400X1.000*%
%ADD99R,1.000X0.640*%
%ADD100R,1.060X0.540*%
%ADD101C,0.175*%
G36*
X119490Y510D02*
X1000D01*
X1000Y510D01*
X1000Y510D01*
X952Y510D01*
X857Y529D01*
X768Y566D01*
X688Y619D01*
X619Y687D01*
X566Y768D01*
X529Y857D01*
X510Y952D01*
Y1000D01*
X510Y78600D01*
Y78648D01*
X529Y78743D01*
X566Y78832D01*
X619Y78912D01*
X688Y78981D01*
X768Y79034D01*
X857Y79071D01*
X952Y79090D01*
X1000Y79090D01*
X119490D01*
Y510D01*
D02*
G37*
%LPC*%
G36*
X29780Y62257D02*
X29643Y62230D01*
X29528Y62152D01*
X29450Y62037D01*
X29423Y61900D01*
X29450Y61763D01*
X29528Y61648D01*
X29643Y61570D01*
X29780Y61543D01*
X29917Y61570D01*
X30032Y61648D01*
X30110Y61763D01*
X30137Y61900D01*
X30110Y62037D01*
X30032Y62152D01*
X29917Y62230D01*
X29780Y62257D01*
D02*
G37*
G36*
X72735Y68627D02*
X43114D01*
X42999Y68580D01*
X32840Y58421D01*
X32741Y58463D01*
X32718Y58576D01*
X32635Y58700D01*
X32511Y58783D01*
X32365Y58812D01*
X32219Y58783D01*
X32095Y58700D01*
X32012Y58576D01*
X32010Y58566D01*
X32006Y58560D01*
X32002Y58541D01*
X25808Y52347D01*
X25731Y52232D01*
X25704Y52095D01*
Y47218D01*
X25604Y47187D01*
X25577Y47227D01*
X25529Y47260D01*
Y47673D01*
X25529Y47673D01*
X25513Y47751D01*
X25469Y47817D01*
X25469Y47817D01*
X25267Y48019D01*
X25201Y48063D01*
X25123Y48079D01*
X22479D01*
X22123Y48434D01*
X22057Y48478D01*
X21979Y48494D01*
X19135D01*
X19102Y48542D01*
X18987Y48620D01*
X18850Y48647D01*
X18713Y48620D01*
X18598Y48542D01*
X18520Y48427D01*
X18493Y48290D01*
X18520Y48153D01*
X18598Y48038D01*
X18713Y47960D01*
X18850Y47933D01*
X18987Y47960D01*
X19102Y48038D01*
X19135Y48086D01*
X21895D01*
X22250Y47731D01*
X22250Y47731D01*
X22316Y47687D01*
X22394Y47671D01*
X22394Y47671D01*
X25039D01*
X25121Y47589D01*
Y47260D01*
X25073Y47227D01*
X24995Y47112D01*
X24968Y46975D01*
X24995Y46838D01*
X25073Y46723D01*
X25188Y46645D01*
X25325Y46618D01*
X25462Y46645D01*
X25577Y46723D01*
X25604Y46763D01*
X25704Y46732D01*
Y46083D01*
X25236Y45616D01*
X25159Y45500D01*
X25132Y45364D01*
Y39062D01*
X25063Y38992D01*
X24985Y38877D01*
X24958Y38740D01*
X24985Y38603D01*
X25015Y38559D01*
X25019Y38452D01*
X21857Y35290D01*
X21539Y34973D01*
X21490Y34982D01*
X21344Y34953D01*
X21220Y34870D01*
X21137Y34746D01*
X21108Y34600D01*
X21137Y34454D01*
X21153Y34429D01*
X21145Y34329D01*
X21145Y34329D01*
X21145Y34329D01*
Y33429D01*
X21855D01*
Y34329D01*
X21855Y34329D01*
X21855D01*
X21827Y34429D01*
X21843Y34454D01*
X21872Y34600D01*
X21843Y34746D01*
X21815Y34789D01*
X22039Y35013D01*
X22264D01*
X22294Y34913D01*
X22230Y34870D01*
X22147Y34746D01*
X22118Y34600D01*
X22147Y34454D01*
X22163Y34429D01*
X22110Y34329D01*
X22045D01*
Y33429D01*
X22755D01*
Y33720D01*
X22869D01*
X23150Y33438D01*
X23265Y33391D01*
X26436D01*
X26490Y33291D01*
X26470Y33262D01*
X26443Y33125D01*
X26470Y32988D01*
X26548Y32873D01*
X26663Y32795D01*
X26800Y32768D01*
X26937Y32795D01*
X27052Y32873D01*
X27130Y32988D01*
X27157Y33125D01*
X27130Y33262D01*
X27110Y33291D01*
X27164Y33391D01*
X37263D01*
X38551Y32102D01*
X38666Y32055D01*
X48438D01*
X48553Y32102D01*
X50015Y33564D01*
X50017Y33570D01*
X50060Y33582D01*
X50133Y33589D01*
X50242Y33516D01*
X50389Y33487D01*
X50535Y33516D01*
X50659Y33599D01*
X50742Y33723D01*
X50771Y33869D01*
X50742Y34015D01*
X50659Y34139D01*
X50535Y34222D01*
X50495Y34230D01*
X50462Y34339D01*
X51296Y35172D01*
X54815D01*
X54930Y35220D01*
X55198Y35488D01*
X55246Y35603D01*
Y35977D01*
X55293Y36009D01*
X55360Y36108D01*
X55383Y36225D01*
X55364Y36321D01*
X55419Y36421D01*
X55461D01*
X55559Y36440D01*
X55642Y36495D01*
X55768Y36622D01*
X56088D01*
X56186Y36641D01*
X56268Y36696D01*
X57117Y37545D01*
X57666D01*
X57708Y37517D01*
X57825Y37494D01*
X57942Y37517D01*
X58041Y37584D01*
X58108Y37683D01*
X58119Y37741D01*
X58202Y37810D01*
X58228Y37813D01*
X58492D01*
X58545Y37835D01*
X58632Y37771D01*
X58635Y37764D01*
X58657Y37653D01*
X58723Y37554D01*
X58822Y37487D01*
X58939Y37464D01*
X59056Y37487D01*
X59156Y37554D01*
X59222Y37653D01*
X59245Y37770D01*
X59228Y37858D01*
X59252Y37923D01*
X59288Y37968D01*
X59376Y38004D01*
X59405Y38033D01*
X59475Y38019D01*
X59592Y38042D01*
X59691Y38109D01*
X59758Y38208D01*
X59773Y38287D01*
X59861Y38335D01*
X59878Y38338D01*
X59908Y38317D01*
X60025Y38294D01*
X60028Y38295D01*
X60226Y38097D01*
X60284Y38058D01*
X60323Y38050D01*
X60384Y37959D01*
X60483Y37892D01*
X60558Y37878D01*
X60644Y37800D01*
X60667Y37683D01*
X60734Y37584D01*
X60811Y37532D01*
X60788Y37432D01*
X60654D01*
X60593Y37420D01*
X60542Y37386D01*
X59541Y36385D01*
X59507Y36334D01*
X59495Y36273D01*
Y34613D01*
X59068Y34187D01*
X59068Y34187D01*
X58015Y33133D01*
X57980Y33082D01*
X57968Y33021D01*
X57980Y32961D01*
X58015Y32910D01*
X58066Y32875D01*
X58126Y32863D01*
X58187Y32875D01*
X58238Y32910D01*
X59292Y33963D01*
X59292Y33963D01*
X59765Y34436D01*
X59799Y34487D01*
X59811Y34548D01*
Y36208D01*
X60719Y37116D01*
X61680D01*
X61693Y37099D01*
X61669Y36963D01*
X61659Y36956D01*
X61627Y36909D01*
X61249D01*
X61188Y36897D01*
X61137Y36863D01*
X60364Y36089D01*
X60329Y36038D01*
X60317Y35978D01*
Y34791D01*
X57866Y32339D01*
X57831Y32288D01*
X57819Y32227D01*
X57831Y32167D01*
X57866Y32116D01*
X57917Y32081D01*
X57977Y32069D01*
X58038Y32081D01*
X58054Y32092D01*
X58118Y32014D01*
X57640Y31537D01*
X57606Y31485D01*
X57594Y31425D01*
X57606Y31365D01*
X57640Y31313D01*
X57691Y31279D01*
X57752Y31267D01*
X57812Y31279D01*
X57863Y31313D01*
X60213Y33662D01*
X60305Y33613D01*
X60300Y33588D01*
Y33296D01*
X57665Y30661D01*
X57631Y30610D01*
X57619Y30550D01*
X57631Y30489D01*
X57665Y30438D01*
X57717Y30404D01*
X57777Y30391D01*
X57838Y30404D01*
X57889Y30438D01*
X60569Y33118D01*
X60604Y33170D01*
X60616Y33230D01*
Y33417D01*
X60716Y33447D01*
X60757Y33385D01*
X60856Y33319D01*
X60973Y33295D01*
X61091Y33319D01*
X61190Y33385D01*
X61256Y33484D01*
X61279Y33601D01*
X61256Y33718D01*
X61190Y33818D01*
X61108Y33873D01*
X61075Y33981D01*
X61637Y34543D01*
X61671Y34594D01*
X61683Y34655D01*
Y35284D01*
X62270Y35870D01*
X62370Y35829D01*
Y34566D01*
X61413Y33610D01*
X61379Y33559D01*
X61367Y33498D01*
Y31919D01*
X61379Y31858D01*
X61413Y31807D01*
X61465Y31773D01*
X61525Y31761D01*
X61585Y31773D01*
X61637Y31807D01*
X61671Y31858D01*
X61683Y31919D01*
Y33433D01*
X62639Y34389D01*
X62674Y34440D01*
X62686Y34501D01*
Y35835D01*
X62987Y36136D01*
X62988Y36137D01*
X63092Y36123D01*
X63159Y36024D01*
X63217Y35985D01*
Y34498D01*
X61870Y33151D01*
X61835Y33100D01*
X61823Y33039D01*
Y31469D01*
X61835Y31408D01*
X61870Y31357D01*
X61921Y31323D01*
X61981Y31311D01*
X62042Y31323D01*
X62093Y31357D01*
X62127Y31408D01*
X62139Y31469D01*
Y32974D01*
X63487Y34321D01*
X63521Y34372D01*
X63533Y34433D01*
Y35794D01*
X63633Y35836D01*
X63896Y35573D01*
Y34387D01*
X63698Y34190D01*
X62672Y33164D01*
X62625Y33049D01*
Y24149D01*
X62672Y24034D01*
X62787Y23987D01*
X62847Y24012D01*
X62872Y23951D01*
X62987Y23904D01*
X63047Y23929D01*
X63072Y23869D01*
X63187Y23821D01*
X63247Y23846D01*
X63272Y23786D01*
X63387Y23738D01*
X63447Y23763D01*
X63472Y23703D01*
X63587Y23655D01*
X63702Y23703D01*
X63749Y23818D01*
Y32650D01*
X64973Y33874D01*
X65021Y33989D01*
Y35713D01*
X65102Y35794D01*
X65150Y35909D01*
Y35909D01*
X65250Y35963D01*
X65258Y35957D01*
X65375Y35934D01*
X65492Y35957D01*
X65591Y36024D01*
X65658Y36123D01*
X65681Y36240D01*
X65660Y36346D01*
X65687Y36390D01*
X65726Y36435D01*
X65780Y36424D01*
X65897Y36447D01*
X65996Y36514D01*
X66037Y36575D01*
X66297D01*
X66348Y36524D01*
X66406Y36485D01*
X66448Y36381D01*
X66446Y36370D01*
Y35766D01*
X66446Y35764D01*
Y35457D01*
X66446Y35441D01*
X66446Y35441D01*
X66473Y35369D01*
X66473Y35369D01*
Y34819D01*
X66521D01*
Y33083D01*
X66538Y32995D01*
X66588Y32921D01*
X66771Y32738D01*
Y31495D01*
X66400D01*
Y30979D01*
X66300Y30969D01*
X66282Y31061D01*
X66215Y31161D01*
X66116Y31227D01*
X65999Y31250D01*
X65882Y31227D01*
X65783Y31161D01*
X65716Y31061D01*
X65693Y30944D01*
X65716Y30827D01*
X65783Y30728D01*
X65882Y30662D01*
X65999Y30638D01*
X66116Y30662D01*
X66215Y30728D01*
X66282Y30827D01*
X66300Y30920D01*
X66400Y30910D01*
Y30655D01*
X67600D01*
Y31460D01*
X67600Y31495D01*
X67673Y31560D01*
X68340D01*
Y31580D01*
X68440Y31621D01*
X69029Y31032D01*
Y30850D01*
X69014Y30840D01*
X68984Y30795D01*
X68884D01*
X68854Y30840D01*
X68730Y30923D01*
X68584Y30952D01*
X68438Y30923D01*
X68314Y30840D01*
X68231Y30716D01*
X68202Y30569D01*
X68231Y30423D01*
X68314Y30299D01*
X68438Y30216D01*
X68584Y30187D01*
X68730Y30216D01*
X68854Y30299D01*
X68884Y30343D01*
X68984D01*
X69014Y30299D01*
X69138Y30216D01*
X69284Y30187D01*
X69430Y30216D01*
X69554Y30299D01*
X69637Y30423D01*
X69666Y30569D01*
X69637Y30716D01*
X69554Y30840D01*
X69539Y30850D01*
Y31138D01*
X69520Y31235D01*
X69464Y31318D01*
X68695Y32088D01*
X68612Y32143D01*
X68514Y32162D01*
X68340D01*
Y32270D01*
X67440D01*
Y31595D01*
X67440Y31560D01*
X67367Y31495D01*
X67229D01*
Y32833D01*
X67212Y32921D01*
X67162Y32995D01*
X66979Y33178D01*
Y33348D01*
X67079Y33378D01*
X67084Y33372D01*
X67183Y33305D01*
X67300Y33282D01*
X67417Y33305D01*
X67459Y33333D01*
X67615D01*
Y33313D01*
X67635D01*
Y33170D01*
X67440D01*
Y32460D01*
X68340D01*
Y33170D01*
X68145D01*
Y33313D01*
X68165D01*
Y33863D01*
X67615D01*
Y33843D01*
X67459D01*
X67417Y33871D01*
X67300Y33894D01*
X67183Y33871D01*
X67084Y33804D01*
X67079Y33798D01*
X66979Y33828D01*
Y34727D01*
X67000Y34737D01*
X67100Y34676D01*
Y34650D01*
X67100D01*
Y34625D01*
X67100D01*
Y34075D01*
X67650D01*
Y34625D01*
X67650D01*
Y34650D01*
X67650D01*
Y34971D01*
X67707Y35027D01*
X67707Y35028D01*
X67727Y35058D01*
X67784Y35115D01*
X67897Y35137D01*
X67996Y35204D01*
X68038Y35266D01*
X70159D01*
X70796Y34630D01*
X78794D01*
X79975Y33450D01*
X79925Y33357D01*
X79841Y33374D01*
X79705Y33347D01*
X79589Y33270D01*
X79511Y33154D01*
X79484Y33017D01*
X79511Y32881D01*
X79589Y32765D01*
X79705Y32688D01*
X79841Y32660D01*
X79978Y32688D01*
X80093Y32765D01*
X80171Y32881D01*
X80198Y33017D01*
X80181Y33102D01*
X80273Y33151D01*
X82620Y30804D01*
X88174D01*
X89270Y31900D01*
X92873D01*
X94745Y33752D01*
Y35523D01*
X95325Y36090D01*
X95422Y36050D01*
X95425Y36048D01*
X95425Y35948D01*
Y35288D01*
X96135D01*
Y35689D01*
X96163Y35731D01*
X96183Y35829D01*
Y36081D01*
X96257Y36192D01*
X96285Y36329D01*
X96257Y36466D01*
X96180Y36581D01*
X96064Y36659D01*
X96039Y36664D01*
X96010Y36760D01*
X97086Y37811D01*
X97178Y37772D01*
Y36843D01*
X97169Y36837D01*
X97092Y36722D01*
X97065Y36585D01*
X97092Y36448D01*
X97169Y36333D01*
X97285Y36255D01*
X97422Y36228D01*
X97558Y36255D01*
X97674Y36333D01*
X97751Y36448D01*
X97778Y36585D01*
X97751Y36722D01*
X97807Y36819D01*
X109998D01*
X110075Y36850D01*
X110106Y36927D01*
Y41192D01*
X110195Y41239D01*
X110216Y41224D01*
X110353Y41197D01*
X110489Y41224D01*
X110523Y41247D01*
X110623Y41193D01*
Y41147D01*
X111383D01*
Y41857D01*
X110623D01*
Y41857D01*
X110524Y41860D01*
X110489Y41884D01*
X110353Y41911D01*
X110216Y41884D01*
X110100Y41806D01*
X110073Y41765D01*
X109973Y41755D01*
X109809Y41920D01*
X109733Y41951D01*
X109386D01*
Y42695D01*
X109703D01*
X109779Y42726D01*
X109811Y42803D01*
Y43498D01*
X109779Y43575D01*
X109779Y43575D01*
X109686Y43668D01*
Y44353D01*
X109747Y44415D01*
X110348D01*
X110425Y44446D01*
X110425Y44446D01*
X111729Y45751D01*
X111761Y45827D01*
Y46650D01*
X111824Y46713D01*
X111837Y46744D01*
X111860Y46753D01*
X112216D01*
X112216Y46753D01*
X112293Y46785D01*
X112293Y46785D01*
X112704Y47196D01*
X112736Y47273D01*
X112736Y49698D01*
Y52073D01*
X112704Y52150D01*
X112628Y52181D01*
X104328D01*
X104251Y52150D01*
X104219Y52073D01*
Y51648D01*
X101386D01*
Y51681D01*
X101039Y52028D01*
X100960D01*
X100928Y52041D01*
X95931D01*
X95899Y52028D01*
X95867D01*
X95844Y52005D01*
X95820Y51995D01*
X87608Y43783D01*
X85357Y43783D01*
X82283Y46857D01*
X67693Y46857D01*
X67660Y46825D01*
X67528D01*
X67417Y46779D01*
X66851Y46213D01*
X66779Y46227D01*
X66662Y46204D01*
X66580Y46149D01*
X66508Y46221D01*
X66563Y46303D01*
X66586Y46420D01*
X66563Y46537D01*
X66496Y46636D01*
X66397Y46703D01*
X66280Y46726D01*
X66163Y46703D01*
X66064Y46636D01*
X66010Y46556D01*
X65977Y46545D01*
X65938Y46540D01*
X65897Y46543D01*
X65073Y47366D01*
Y49139D01*
X70124Y54189D01*
X70171Y54304D01*
Y64140D01*
X70124Y64255D01*
X66168Y68210D01*
X66206Y68303D01*
X72668D01*
X77717Y63253D01*
Y61932D01*
X77425D01*
Y61193D01*
X78685D01*
Y61932D01*
X78042D01*
Y63320D01*
X77994Y63435D01*
X72850Y68580D01*
X72735Y68627D01*
D02*
G37*
G36*
X78830Y60244D02*
X78120D01*
Y59484D01*
X78146D01*
Y59370D01*
X78080Y59325D01*
X77997Y59201D01*
X77968Y59055D01*
X77997Y58909D01*
X78080Y58785D01*
X78204Y58702D01*
X78350Y58673D01*
X78496Y58702D01*
X78620Y58785D01*
X78703Y58909D01*
X78732Y59055D01*
X78703Y59201D01*
X78620Y59325D01*
X78554Y59370D01*
Y59484D01*
X78830D01*
Y60244D01*
D02*
G37*
G36*
X80825Y61932D02*
X79565D01*
Y61193D01*
X80003D01*
Y59430D01*
X79852D01*
Y58913D01*
X79598Y58659D01*
X79125D01*
X79125Y58659D01*
X79047Y58643D01*
X78981Y58599D01*
X78453Y58072D01*
X78375Y58087D01*
X78229Y58058D01*
X78105Y57975D01*
X78022Y57851D01*
X77993Y57705D01*
X78022Y57559D01*
X78105Y57435D01*
X78229Y57352D01*
X78375Y57323D01*
X78521Y57352D01*
X78645Y57435D01*
X78728Y57559D01*
X78757Y57705D01*
X78742Y57783D01*
X79209Y58251D01*
X79682D01*
X79721Y58219D01*
Y57649D01*
X79693Y57629D01*
X79622Y57604D01*
X79542Y57658D01*
X79425Y57681D01*
X79308Y57658D01*
X79209Y57591D01*
X79142Y57492D01*
X79119Y57375D01*
X79142Y57258D01*
X79209Y57159D01*
X79308Y57092D01*
X79378Y57078D01*
Y56977D01*
X79333Y56968D01*
X79234Y56901D01*
X79167Y56802D01*
X79144Y56685D01*
X79167Y56568D01*
X79234Y56469D01*
X79333Y56402D01*
X79450Y56379D01*
X79519Y56393D01*
X79613Y56299D01*
X79664Y56265D01*
X79724Y56253D01*
X79725D01*
Y55900D01*
X80625D01*
X80681Y55823D01*
Y55787D01*
X80625Y55710D01*
X79725D01*
Y55000D01*
X80625D01*
Y55151D01*
X80690D01*
X80768Y55167D01*
X80834Y55211D01*
X81029Y55406D01*
X81073Y55472D01*
X81089Y55550D01*
Y55832D01*
X81189Y55885D01*
X81208Y55872D01*
X81325Y55849D01*
X81442Y55872D01*
X81541Y55939D01*
X81608Y56038D01*
X81631Y56155D01*
X81608Y56272D01*
X81541Y56371D01*
X81442Y56438D01*
X81325Y56461D01*
X81208Y56438D01*
X81207Y56437D01*
X81122Y56486D01*
Y56823D01*
X81180Y56881D01*
X81306D01*
X81402Y56900D01*
X81635D01*
Y56800D01*
X82395D01*
Y57510D01*
X81635D01*
Y57410D01*
X81325D01*
X81279Y57448D01*
Y57655D01*
X81263Y57733D01*
X81219Y57799D01*
X81110Y57908D01*
X81096Y58000D01*
X81140Y58066D01*
X81156Y58144D01*
Y58530D01*
X81462D01*
Y59430D01*
X80752D01*
Y58845D01*
X80748Y58825D01*
Y58298D01*
X80721Y58280D01*
X80621Y58316D01*
Y58316D01*
X79962D01*
X79924Y58408D01*
X80045Y58530D01*
X80562D01*
Y59430D01*
X80411D01*
Y61193D01*
X80825D01*
Y61932D01*
D02*
G37*
G36*
X76995Y58935D02*
X76235D01*
Y58318D01*
X76235Y58244D01*
X76172Y58192D01*
X76171Y58191D01*
X76141Y58187D01*
X76071Y58233D01*
X75925Y58262D01*
X75779Y58233D01*
X75740Y58207D01*
X75640Y58235D01*
X75640Y58235D01*
X74880D01*
Y57788D01*
X74435Y57344D01*
X74391Y57278D01*
X74376Y57200D01*
Y57130D01*
X73925D01*
Y56420D01*
X74825D01*
Y57130D01*
X74825Y57130D01*
X74825D01*
X74876Y57207D01*
X75193Y57525D01*
X75640D01*
X75640Y57525D01*
Y57525D01*
X75740Y57553D01*
X75779Y57527D01*
X75925Y57498D01*
X76071Y57527D01*
X76195Y57610D01*
X76278Y57734D01*
X76307Y57880D01*
X76278Y58026D01*
X76225Y58106D01*
X76204Y58138D01*
X76204Y58138D01*
X76222Y58110D01*
X76204Y58139D01*
X76238Y58202D01*
X76255Y58224D01*
X76259Y58225D01*
X76311Y58225D01*
X76411Y58181D01*
Y58074D01*
X76427Y57996D01*
X76471Y57929D01*
X76593Y57807D01*
X76593Y57805D01*
X76622Y57659D01*
X76705Y57535D01*
X76829Y57452D01*
X76975Y57423D01*
X77121Y57452D01*
X77245Y57535D01*
X77328Y57659D01*
X77357Y57805D01*
X77328Y57951D01*
X77245Y58075D01*
X77121Y58158D01*
X77071Y58168D01*
X76995Y58225D01*
Y58935D01*
D02*
G37*
G36*
X77925Y57061D02*
X77808Y57038D01*
X77709Y56971D01*
X77642Y56872D01*
X77619Y56755D01*
X77642Y56638D01*
X77696Y56558D01*
Y56256D01*
X77713Y56168D01*
X77763Y56094D01*
X77953Y55903D01*
X77951Y55899D01*
X77904Y55665D01*
X77951Y55431D01*
X78083Y55232D01*
X78282Y55100D01*
X78516Y55053D01*
X78750Y55100D01*
X78949Y55232D01*
X79081Y55431D01*
X79128Y55665D01*
X79081Y55899D01*
X78949Y56098D01*
X78750Y56230D01*
X78516Y56277D01*
X78282Y56230D01*
X78278Y56228D01*
X78154Y56351D01*
Y56558D01*
X78208Y56638D01*
X78231Y56755D01*
X78208Y56872D01*
X78141Y56971D01*
X78042Y57038D01*
X77925Y57061D01*
D02*
G37*
G36*
X74825Y56230D02*
X73925D01*
Y55703D01*
X73884Y55609D01*
X73738Y55580D01*
X73614Y55497D01*
X73531Y55373D01*
X73502Y55227D01*
X73531Y55081D01*
X73614Y54957D01*
X73738Y54874D01*
X73884Y54845D01*
X74031Y54874D01*
X74155Y54957D01*
X74238Y55081D01*
X74267Y55227D01*
X74238Y55373D01*
X74199Y55431D01*
X74239Y55520D01*
X74825D01*
Y56230D01*
D02*
G37*
G36*
X76490Y55760D02*
X75730D01*
Y55349D01*
X75513Y55132D01*
X75463Y55058D01*
X75446Y54970D01*
Y54903D01*
X75405Y54875D01*
X75322Y54751D01*
X75293Y54605D01*
X75322Y54459D01*
X75405Y54335D01*
X75529Y54252D01*
X75675Y54223D01*
X75821Y54252D01*
X75945Y54335D01*
X75973Y54376D01*
X76647D01*
Y54250D01*
X77407D01*
Y54960D01*
X76647D01*
Y54834D01*
X76005D01*
X75958Y54928D01*
X76079Y55050D01*
X76490D01*
Y55760D01*
D02*
G37*
G36*
X98104Y53483D02*
X97967Y53456D01*
X97852Y53378D01*
X97774Y53263D01*
X97747Y53126D01*
X97774Y52989D01*
X97852Y52874D01*
X97967Y52796D01*
X98104Y52769D01*
X98241Y52796D01*
X98356Y52874D01*
X98434Y52989D01*
X98461Y53126D01*
X98434Y53263D01*
X98356Y53378D01*
X98241Y53456D01*
X98104Y53483D01*
D02*
G37*
G36*
X18850Y51905D02*
X18704Y51876D01*
X18580Y51793D01*
X18563Y51768D01*
X18463D01*
X18445Y51793D01*
X18321Y51876D01*
X18175Y51905D01*
X18029Y51876D01*
X17905Y51793D01*
X17822Y51669D01*
X17793Y51523D01*
X17822Y51377D01*
X17905Y51253D01*
X17930Y51235D01*
Y51135D01*
X17905Y51118D01*
X17822Y50994D01*
X17793Y50848D01*
X17822Y50702D01*
X17905Y50578D01*
X17930Y50560D01*
Y50460D01*
X17905Y50443D01*
X17822Y50319D01*
X17793Y50173D01*
X17822Y50027D01*
X17905Y49903D01*
X18029Y49820D01*
X18175Y49791D01*
X18321Y49820D01*
X18445Y49903D01*
X18463Y49928D01*
X18563D01*
X18580Y49903D01*
X18704Y49820D01*
X18850Y49791D01*
X18996Y49820D01*
X19120Y49903D01*
X19203Y50027D01*
X19232Y50173D01*
X19203Y50319D01*
X19120Y50443D01*
X19095Y50460D01*
Y50560D01*
X19120Y50578D01*
X19203Y50702D01*
X19232Y50848D01*
X19203Y50994D01*
X19120Y51118D01*
X19095Y51135D01*
Y51235D01*
X19120Y51253D01*
X19203Y51377D01*
X19232Y51523D01*
X19203Y51669D01*
X19120Y51793D01*
X18996Y51876D01*
X18850Y51905D01*
D02*
G37*
G36*
X23250Y49657D02*
X23113Y49630D01*
X22998Y49552D01*
X22920Y49437D01*
X22893Y49300D01*
X22920Y49163D01*
X22996Y49050D01*
X22920Y48937D01*
X22893Y48800D01*
X22920Y48663D01*
X22998Y48548D01*
X23113Y48470D01*
X23250Y48443D01*
X23387Y48470D01*
X23502Y48548D01*
X23580Y48663D01*
X23607Y48800D01*
X23580Y48937D01*
X23504Y49050D01*
X23580Y49163D01*
X23607Y49300D01*
X23580Y49437D01*
X23502Y49552D01*
X23387Y49630D01*
X23250Y49657D01*
D02*
G37*
G36*
X16298Y47272D02*
X16152Y47243D01*
X16028Y47160D01*
X16010Y47135D01*
X15910D01*
X15893Y47160D01*
X15769Y47243D01*
X15623Y47272D01*
X15477Y47243D01*
X15353Y47160D01*
X15270Y47036D01*
X15241Y46890D01*
X15270Y46744D01*
X15353Y46620D01*
X15401Y46588D01*
Y46467D01*
X15353Y46435D01*
X15270Y46311D01*
X15241Y46165D01*
X15270Y46019D01*
X15353Y45895D01*
X15477Y45812D01*
X15623Y45783D01*
X15769Y45812D01*
X15893Y45895D01*
X15910Y45920D01*
X16010D01*
X16028Y45895D01*
X16152Y45812D01*
X16298Y45783D01*
X16444Y45812D01*
X16568Y45895D01*
X16651Y46019D01*
X16680Y46165D01*
X16651Y46311D01*
X16568Y46435D01*
X16520Y46467D01*
Y46588D01*
X16568Y46620D01*
X16651Y46744D01*
X16680Y46890D01*
X16651Y47036D01*
X16568Y47160D01*
X16444Y47243D01*
X16298Y47272D01*
D02*
G37*
G36*
X21450Y47705D02*
X21313Y47678D01*
X21198Y47600D01*
X21120Y47485D01*
X21093Y47348D01*
X21120Y47211D01*
X21198Y47096D01*
X21313Y47018D01*
X21450Y46991D01*
X21587Y47018D01*
X21702Y47096D01*
X21780Y47211D01*
X21807Y47348D01*
X21780Y47485D01*
X21702Y47600D01*
X21587Y47678D01*
X21450Y47705D01*
D02*
G37*
G36*
X19700Y46580D02*
X19554Y46551D01*
X19430Y46468D01*
X19347Y46344D01*
X19318Y46198D01*
X19347Y46052D01*
X19430Y45928D01*
X19479Y45895D01*
Y45775D01*
X19432Y45743D01*
X19349Y45619D01*
X19320Y45473D01*
X19349Y45327D01*
X19432Y45203D01*
X19556Y45120D01*
X19702Y45091D01*
X19848Y45120D01*
X19972Y45203D01*
X20055Y45327D01*
X20084Y45473D01*
X20055Y45619D01*
X19972Y45743D01*
X19923Y45776D01*
Y45896D01*
X19970Y45928D01*
X20053Y46052D01*
X20082Y46198D01*
X20053Y46344D01*
X19970Y46468D01*
X19846Y46551D01*
X19700Y46580D01*
D02*
G37*
G36*
X12276Y45747D02*
X12130Y45718D01*
X12006Y45635D01*
X11923Y45511D01*
X11894Y45365D01*
X11923Y45218D01*
X12006Y45094D01*
X12130Y45011D01*
X12276Y44982D01*
X12422Y45011D01*
X12546Y45094D01*
X12629Y45218D01*
X12658Y45365D01*
X12629Y45511D01*
X12546Y45635D01*
X12422Y45718D01*
X12276Y45747D01*
D02*
G37*
G36*
Y44847D02*
X12130Y44818D01*
X12006Y44735D01*
X11923Y44611D01*
X11894Y44465D01*
X11923Y44318D01*
X12006Y44194D01*
X12130Y44111D01*
X12276Y44082D01*
X12422Y44111D01*
X12546Y44194D01*
X12629Y44318D01*
X12658Y44465D01*
X12629Y44611D01*
X12546Y44735D01*
X12422Y44818D01*
X12276Y44847D01*
D02*
G37*
G36*
Y43947D02*
X12130Y43918D01*
X12006Y43835D01*
X11923Y43711D01*
X11894Y43565D01*
X11923Y43418D01*
X12006Y43294D01*
X12130Y43211D01*
X12276Y43182D01*
X12422Y43211D01*
X12546Y43294D01*
X12629Y43418D01*
X12658Y43565D01*
X12629Y43711D01*
X12546Y43835D01*
X12422Y43918D01*
X12276Y43947D01*
D02*
G37*
G36*
X21400Y43882D02*
X21263Y43855D01*
X21148Y43777D01*
X21070Y43662D01*
X21043Y43525D01*
X21070Y43388D01*
X21146Y43275D01*
X21070Y43162D01*
X21043Y43025D01*
X21070Y42888D01*
X21148Y42773D01*
X21263Y42695D01*
X21400Y42668D01*
X21537Y42695D01*
X21652Y42773D01*
X21730Y42888D01*
X21757Y43025D01*
X21730Y43162D01*
X21654Y43275D01*
X21730Y43388D01*
X21757Y43525D01*
X21730Y43662D01*
X21652Y43777D01*
X21537Y43855D01*
X21400Y43882D01*
D02*
G37*
G36*
X12251Y42184D02*
X12105Y42155D01*
X11981Y42072D01*
X11898Y41948D01*
X11869Y41802D01*
X11898Y41656D01*
X11981Y41532D01*
X12105Y41449D01*
X12251Y41420D01*
X12397Y41449D01*
X12521Y41532D01*
X12604Y41656D01*
X12633Y41802D01*
X12604Y41948D01*
X12521Y42072D01*
X12397Y42155D01*
X12251Y42184D01*
D02*
G37*
G36*
Y41284D02*
X12105Y41255D01*
X11981Y41172D01*
X11898Y41048D01*
X11869Y40902D01*
X11898Y40756D01*
X11981Y40632D01*
X12105Y40549D01*
X12251Y40520D01*
X12397Y40549D01*
X12521Y40632D01*
X12604Y40756D01*
X12633Y40902D01*
X12604Y41048D01*
X12521Y41172D01*
X12397Y41255D01*
X12251Y41284D01*
D02*
G37*
G36*
X23410Y40334D02*
X23273Y40307D01*
X23158Y40229D01*
X23080Y40113D01*
X23053Y39977D01*
X23080Y39840D01*
X23158Y39725D01*
X23273Y39647D01*
X23410Y39620D01*
X23547Y39647D01*
X23662Y39725D01*
X23740Y39840D01*
X23767Y39977D01*
X23740Y40113D01*
X23662Y40229D01*
X23547Y40307D01*
X23410Y40334D01*
D02*
G37*
G36*
X12251Y40384D02*
X12105Y40355D01*
X11981Y40272D01*
X11898Y40148D01*
X11869Y40002D01*
X11898Y39856D01*
X11981Y39732D01*
X12105Y39649D01*
X12251Y39620D01*
X12397Y39649D01*
X12521Y39732D01*
X12604Y39856D01*
X12633Y40002D01*
X12604Y40148D01*
X12521Y40272D01*
X12397Y40355D01*
X12251Y40384D01*
D02*
G37*
G36*
X20325Y40257D02*
X20188Y40230D01*
X20073Y40152D01*
X19995Y40037D01*
X19968Y39900D01*
X19995Y39763D01*
X20071Y39650D01*
X19995Y39537D01*
X19968Y39400D01*
X19995Y39263D01*
X20073Y39148D01*
X20188Y39070D01*
X20325Y39043D01*
X20462Y39070D01*
X20577Y39148D01*
X20655Y39263D01*
X20682Y39400D01*
X20655Y39537D01*
X20579Y39650D01*
X20655Y39763D01*
X20682Y39900D01*
X20655Y40037D01*
X20577Y40152D01*
X20462Y40230D01*
X20325Y40257D01*
D02*
G37*
G36*
X14637Y37880D02*
X14491Y37851D01*
X14367Y37768D01*
X14335Y37720D01*
X14215D01*
X14183Y37768D01*
X14059Y37851D01*
X13912Y37880D01*
X13766Y37851D01*
X13642Y37768D01*
X13610Y37720D01*
X13490D01*
X13458Y37768D01*
X13334Y37851D01*
X13187Y37880D01*
X13041Y37851D01*
X12917Y37768D01*
X12834Y37644D01*
X12805Y37498D01*
X12834Y37352D01*
X12917Y37228D01*
X12943Y37210D01*
Y37110D01*
X12917Y37093D01*
X12834Y36969D01*
X12805Y36823D01*
X12834Y36677D01*
X12917Y36553D01*
X13041Y36470D01*
X13187Y36441D01*
X13334Y36470D01*
X13458Y36553D01*
X13490Y36601D01*
X13610D01*
X13642Y36553D01*
X13766Y36470D01*
X13912Y36441D01*
X14059Y36470D01*
X14183Y36553D01*
X14215Y36601D01*
X14335D01*
X14367Y36553D01*
X14491Y36470D01*
X14637Y36441D01*
X14784Y36470D01*
X14908Y36553D01*
X14991Y36677D01*
X15020Y36823D01*
X14991Y36969D01*
X14908Y37093D01*
X14882Y37110D01*
Y37210D01*
X14908Y37228D01*
X14991Y37352D01*
X15020Y37498D01*
X14991Y37644D01*
X14908Y37768D01*
X14784Y37851D01*
X14637Y37880D01*
D02*
G37*
G36*
X59989Y38040D02*
X59872Y38017D01*
X59773Y37951D01*
X59706Y37852D01*
X59683Y37735D01*
X59706Y37617D01*
X59764Y37531D01*
X59685Y37472D01*
X59586Y37539D01*
X59469Y37562D01*
X59352Y37539D01*
X59253Y37472D01*
X59187Y37373D01*
X59163Y37256D01*
X59187Y37139D01*
X59253Y37040D01*
X59352Y36973D01*
X59469Y36950D01*
X59586Y36973D01*
X59685Y37040D01*
X59752Y37139D01*
X59775Y37256D01*
X59752Y37373D01*
X59694Y37460D01*
X59773Y37518D01*
X59872Y37452D01*
X59989Y37429D01*
X60106Y37452D01*
X60205Y37518D01*
X60272Y37617D01*
X60295Y37735D01*
X60272Y37852D01*
X60205Y37951D01*
X60106Y38017D01*
X59989Y38040D01*
D02*
G37*
G36*
X58375Y37656D02*
X58258Y37633D01*
X58159Y37566D01*
X58092Y37467D01*
X58069Y37350D01*
X58092Y37233D01*
X58159Y37134D01*
X58258Y37067D01*
X58375Y37044D01*
X58492Y37067D01*
X58591Y37134D01*
X58658Y37233D01*
X58681Y37350D01*
X58658Y37467D01*
X58591Y37566D01*
X58492Y37633D01*
X58375Y37656D01*
D02*
G37*
G36*
X57678Y35173D02*
X56968D01*
Y34720D01*
X56943Y34703D01*
X56869Y34630D01*
X55794D01*
X55792Y34632D01*
X55709Y34687D01*
X55612Y34707D01*
X55365D01*
X55363Y34710D01*
X55263Y34776D01*
X55146Y34799D01*
X55029Y34776D01*
X54930Y34710D01*
X54864Y34611D01*
X54840Y34494D01*
X54864Y34377D01*
X54930Y34277D01*
X55029Y34211D01*
X55146Y34188D01*
X55226Y34204D01*
X55259Y34197D01*
X55506D01*
X55508Y34195D01*
X55591Y34140D01*
X55689Y34120D01*
X56975D01*
X57073Y34140D01*
X57155Y34195D01*
X57231Y34271D01*
X57243Y34273D01*
X57678D01*
Y35173D01*
D02*
G37*
G36*
X58875Y37131D02*
X58758Y37108D01*
X58659Y37041D01*
X58592Y36942D01*
X58569Y36825D01*
X58592Y36708D01*
X58595Y36704D01*
X58600Y36606D01*
X58600Y36606D01*
X58600Y36606D01*
Y36056D01*
X58600Y36056D01*
X58575Y35975D01*
X58575D01*
X58575Y35966D01*
Y35275D01*
X58580D01*
X58581Y35272D01*
X58489Y35173D01*
X57868D01*
Y34273D01*
X58578D01*
Y34519D01*
X58734D01*
X58812Y34535D01*
X58878Y34579D01*
X59019Y34720D01*
X59063Y34786D01*
X59079Y34864D01*
Y35275D01*
X59175D01*
Y35966D01*
X59175Y35975D01*
X59175D01*
X59150Y36056D01*
X59150Y36056D01*
Y36606D01*
X59150Y36606D01*
X59150D01*
X59155Y36704D01*
X59158Y36708D01*
X59181Y36825D01*
X59158Y36942D01*
X59091Y37041D01*
X58992Y37108D01*
X58875Y37131D01*
D02*
G37*
G36*
X51631Y34257D02*
X51485Y34228D01*
X51361Y34145D01*
X51278Y34021D01*
X51249Y33875D01*
X51278Y33729D01*
X51361Y33605D01*
X51485Y33522D01*
X51631Y33493D01*
X51777Y33522D01*
X51901Y33605D01*
X51984Y33729D01*
X52013Y33875D01*
X51984Y34021D01*
X51901Y34145D01*
X51777Y34228D01*
X51631Y34257D01*
D02*
G37*
G36*
X60956Y33070D02*
X60839Y33047D01*
X60740Y32981D01*
X60674Y32882D01*
X60650Y32765D01*
X60674Y32647D01*
X60740Y32548D01*
X60759Y32536D01*
Y32436D01*
X60744Y32426D01*
X60732Y32408D01*
X60647D01*
X60621Y32422D01*
X60525Y32486D01*
X60408Y32510D01*
X60291Y32486D01*
X60192Y32420D01*
X60125Y32321D01*
X60102Y32204D01*
X60125Y32087D01*
X60192Y31987D01*
X60291Y31921D01*
X60408Y31898D01*
X60525Y31921D01*
X60624Y31987D01*
X60636Y32005D01*
X60736D01*
X60744Y31993D01*
X60843Y31927D01*
X60960Y31904D01*
X61077Y31927D01*
X61176Y31993D01*
X61243Y32092D01*
X61266Y32210D01*
X61243Y32327D01*
X61176Y32426D01*
X61158Y32438D01*
Y32538D01*
X61173Y32548D01*
X61239Y32647D01*
X61262Y32765D01*
X61239Y32882D01*
X61173Y32981D01*
X61073Y33047D01*
X60956Y33070D01*
D02*
G37*
G36*
X56956Y32815D02*
X56839Y32792D01*
X56740Y32726D01*
X56674Y32627D01*
X56650Y32510D01*
X56674Y32392D01*
X56740Y32293D01*
X56839Y32227D01*
X56956Y32204D01*
X57073Y32227D01*
X57173Y32293D01*
X57239Y32392D01*
X57262Y32510D01*
X57239Y32627D01*
X57173Y32726D01*
X57073Y32792D01*
X56956Y32815D01*
D02*
G37*
G36*
X72589Y33563D02*
X72452Y33535D01*
X72336Y33458D01*
X72259Y33342D01*
X72232Y33206D01*
X72259Y33069D01*
X72281Y33036D01*
X72228Y32936D01*
X72084D01*
Y32176D01*
X72794D01*
Y32562D01*
X72824Y32608D01*
X72844Y32706D01*
Y32957D01*
X72918Y33069D01*
X72946Y33206D01*
X72918Y33342D01*
X72841Y33458D01*
X72725Y33535D01*
X72589Y33563D01*
D02*
G37*
G36*
X57275Y32106D02*
X57158Y32083D01*
X57059Y32016D01*
X56992Y31917D01*
X56969Y31800D01*
X56992Y31683D01*
X57059Y31584D01*
X57158Y31517D01*
X57275Y31494D01*
X57392Y31517D01*
X57491Y31584D01*
X57558Y31683D01*
X57581Y31800D01*
X57558Y31917D01*
X57491Y32016D01*
X57392Y32083D01*
X57275Y32106D01*
D02*
G37*
G36*
X60960Y31481D02*
X60843Y31458D01*
X60744Y31391D01*
X60677Y31292D01*
X60654Y31175D01*
X60677Y31058D01*
X60744Y30959D01*
X60843Y30892D01*
X60960Y30869D01*
X61077Y30892D01*
X61176Y30959D01*
X61243Y31058D01*
X61266Y31175D01*
X61243Y31292D01*
X61176Y31391D01*
X61077Y31458D01*
X60960Y31481D01*
D02*
G37*
G36*
X59781D02*
X59664Y31458D01*
X59565Y31391D01*
X59498Y31292D01*
X59475Y31175D01*
X59498Y31058D01*
X59565Y30959D01*
X59664Y30892D01*
X59781Y30869D01*
X59898Y30892D01*
X59997Y30959D01*
X60064Y31058D01*
X60087Y31175D01*
X60064Y31292D01*
X59997Y31391D01*
X59898Y31458D01*
X59781Y31481D01*
D02*
G37*
G36*
X57271Y31288D02*
X57154Y31265D01*
X57055Y31199D01*
X56989Y31100D01*
X56966Y30982D01*
X56989Y30865D01*
X57055Y30766D01*
X57154Y30700D01*
X57271Y30677D01*
X57389Y30700D01*
X57488Y30766D01*
X57554Y30865D01*
X57577Y30982D01*
X57554Y31100D01*
X57488Y31199D01*
X57389Y31265D01*
X57271Y31288D01*
D02*
G37*
G36*
X65500Y30581D02*
X65383Y30558D01*
X65284Y30491D01*
X65217Y30392D01*
X65194Y30275D01*
X65217Y30158D01*
X65284Y30059D01*
X65383Y29992D01*
X65500Y29969D01*
X65617Y29992D01*
X65716Y30059D01*
X65783Y30158D01*
X65806Y30275D01*
X65783Y30392D01*
X65716Y30491D01*
X65617Y30558D01*
X65500Y30581D01*
D02*
G37*
G36*
X57271Y30500D02*
X57154Y30477D01*
X57055Y30411D01*
X56989Y30312D01*
X56966Y30195D01*
X56989Y30077D01*
X57055Y29978D01*
X57154Y29912D01*
X57271Y29889D01*
X57389Y29912D01*
X57488Y29978D01*
X57554Y30077D01*
X57577Y30195D01*
X57554Y30312D01*
X57488Y30411D01*
X57389Y30477D01*
X57271Y30500D01*
D02*
G37*
G36*
X55049Y30471D02*
X54932Y30448D01*
X54833Y30381D01*
X54767Y30282D01*
X54743Y30165D01*
X54767Y30048D01*
X54833Y29949D01*
X54932Y29882D01*
X55049Y29859D01*
X55166Y29882D01*
X55265Y29949D01*
X55332Y30048D01*
X55355Y30165D01*
X55332Y30282D01*
X55265Y30381D01*
X55166Y30448D01*
X55049Y30471D01*
D02*
G37*
G36*
X60375Y31056D02*
X60258Y31033D01*
X60159Y30966D01*
X60092Y30867D01*
X60069Y30750D01*
X60092Y30633D01*
X60159Y30534D01*
X60236Y30482D01*
X60237Y30481D01*
X60243Y30399D01*
X60236Y30371D01*
X60172Y30328D01*
X60106Y30229D01*
X60083Y30112D01*
X60106Y29995D01*
X60172Y29895D01*
X60272Y29829D01*
X60389Y29806D01*
X60506Y29829D01*
X60605Y29895D01*
X60671Y29995D01*
X60695Y30112D01*
X60671Y30229D01*
X60605Y30328D01*
X60527Y30380D01*
X60527Y30381D01*
X60521Y30463D01*
X60527Y30491D01*
X60591Y30534D01*
X60658Y30633D01*
X60681Y30750D01*
X60658Y30867D01*
X60591Y30966D01*
X60492Y31033D01*
X60375Y31056D01*
D02*
G37*
G36*
X58962Y30418D02*
X58845Y30394D01*
X58745Y30328D01*
X58679Y30229D01*
X58656Y30112D01*
X58679Y29995D01*
X58745Y29895D01*
X58845Y29829D01*
X58962Y29806D01*
X59079Y29829D01*
X59178Y29895D01*
X59244Y29995D01*
X59268Y30112D01*
X59244Y30229D01*
X59178Y30328D01*
X59079Y30394D01*
X58962Y30418D01*
D02*
G37*
G36*
X67600Y30095D02*
X66400D01*
Y29843D01*
X66335Y29770D01*
X66335Y29770D01*
Y29770D01*
X66300Y29767D01*
X66299Y29770D01*
X66286Y29837D01*
X66220Y29937D01*
X66120Y30003D01*
X66003Y30026D01*
X65886Y30003D01*
X65787Y29937D01*
X65721Y29837D01*
X65698Y29720D01*
X65721Y29603D01*
X65787Y29504D01*
X65886Y29438D01*
X66003Y29414D01*
X66120Y29438D01*
X66220Y29504D01*
X66286Y29603D01*
X66299Y29671D01*
X66300Y29673D01*
X66335Y29670D01*
Y29670D01*
X66335Y29670D01*
X66400Y29597D01*
Y29255D01*
X66626D01*
Y29046D01*
X66374Y28793D01*
X66313Y28800D01*
X66296Y28816D01*
X66245Y28899D01*
X66262Y28986D01*
X66239Y29103D01*
X66173Y29202D01*
X66073Y29269D01*
X65956Y29292D01*
X65839Y29269D01*
X65740Y29202D01*
X65674Y29103D01*
X65650Y28986D01*
X65674Y28869D01*
X65740Y28770D01*
Y28707D01*
X65686Y28671D01*
X65603Y28547D01*
X65574Y28400D01*
X65603Y28254D01*
X65686Y28130D01*
X65810Y28047D01*
X65956Y28018D01*
X66084Y28043D01*
X66485D01*
X66622Y28071D01*
X66738Y28148D01*
X67235Y28646D01*
X67313Y28761D01*
X67340Y28898D01*
Y29255D01*
X67600D01*
Y30095D01*
D02*
G37*
%LPD*%
G36*
X45846Y68210D02*
X32985Y55349D01*
X32937Y55234D01*
Y54671D01*
X30704Y52438D01*
X30141D01*
X30026Y52390D01*
X29198Y51562D01*
X29100Y51582D01*
X28963Y51555D01*
X28848Y51477D01*
X28770Y51362D01*
X28743Y51225D01*
X28770Y51088D01*
X28806Y51035D01*
X28753Y50935D01*
X28355D01*
Y50225D01*
X29230D01*
X29255Y50225D01*
Y50225D01*
X29330D01*
Y50225D01*
X30230D01*
Y50935D01*
X30110D01*
X30056Y51035D01*
X30092Y51088D01*
X30119Y51225D01*
X30092Y51362D01*
X30083Y51376D01*
X30473Y51767D01*
X30917D01*
X31032Y51814D01*
X33608Y54391D01*
X33656Y54505D01*
Y54949D01*
X46554Y67848D01*
X65520D01*
X69570Y63798D01*
Y54479D01*
X68939Y53848D01*
X68847Y53897D01*
X68851Y53919D01*
Y54513D01*
X68980Y54642D01*
X69048Y54687D01*
X69131Y54811D01*
X69160Y54958D01*
X69131Y55104D01*
X69048Y55228D01*
X68924Y55311D01*
X68777Y55340D01*
X68631Y55311D01*
X68507Y55228D01*
X68424Y55104D01*
X68422Y55094D01*
X68242Y54914D01*
X68165Y54798D01*
X68138Y54661D01*
Y54067D01*
X62164Y48093D01*
X62100Y48108D01*
X62064Y48132D01*
Y48275D01*
X67453Y53664D01*
X67487Y53715D01*
X67499Y53775D01*
X67487Y53836D01*
X67453Y53887D01*
X67401Y53922D01*
X67341Y53934D01*
X67281Y53922D01*
X67229Y53887D01*
X61794Y48452D01*
X61760Y48401D01*
X61748Y48340D01*
Y46473D01*
X61708Y46459D01*
X61648Y46456D01*
X61591Y46541D01*
X61537Y46577D01*
Y48463D01*
X66477Y53403D01*
X66525Y53518D01*
X66477Y53632D01*
X66363Y53680D01*
X66248Y53632D01*
X61260Y48645D01*
X61213Y48530D01*
Y46577D01*
X61159Y46541D01*
X61106Y46462D01*
X60996Y46430D01*
X60986Y46440D01*
X60924Y46482D01*
X60850Y46496D01*
X60804D01*
X60727Y46554D01*
Y47104D01*
X60177D01*
Y46572D01*
X60159Y46560D01*
X60092Y46461D01*
X60069Y46344D01*
X60092Y46226D01*
X60159Y46127D01*
X60258Y46061D01*
X60375Y46038D01*
X60492Y46061D01*
X60572Y46114D01*
X60771D01*
X60776Y46109D01*
Y46042D01*
X60791Y45969D01*
X60800Y45955D01*
Y45575D01*
X60984D01*
Y45565D01*
X60998Y45492D01*
X61040Y45430D01*
X61057Y45413D01*
X61044Y45350D01*
X61067Y45233D01*
X61134Y45134D01*
X61233Y45067D01*
X61350Y45044D01*
X61461Y45066D01*
X61995Y44532D01*
Y44338D01*
X62009Y44265D01*
X62051Y44203D01*
X62092Y44162D01*
Y43725D01*
X61625D01*
Y43725D01*
X61625Y43725D01*
X61525Y43725D01*
X61175D01*
X61075Y43725D01*
Y43725D01*
X61075D01*
Y43725D01*
X60525D01*
Y43694D01*
X60435Y43670D01*
Y43670D01*
X59885D01*
Y43384D01*
X59798Y43297D01*
X59754Y43231D01*
X59738Y43153D01*
Y42839D01*
X59754Y42761D01*
X59798Y42695D01*
X59906Y42587D01*
X59904Y42575D01*
X59927Y42458D01*
X59994Y42359D01*
X60093Y42292D01*
X60210Y42269D01*
X60264Y42280D01*
X60292Y42258D01*
X60338Y42193D01*
X60319Y42100D01*
X60333Y42030D01*
X60267Y41930D01*
X60076D01*
X60076Y41930D01*
Y41930D01*
X59976Y41927D01*
X59967Y41933D01*
X59850Y41956D01*
X59733Y41933D01*
X59634Y41866D01*
X59567Y41767D01*
X59454Y41707D01*
X59410Y41716D01*
X59293Y41693D01*
X59268Y41676D01*
X59178Y41736D01*
X59181Y41750D01*
X59158Y41867D01*
X59091Y41966D01*
X59052Y41992D01*
X59032Y42108D01*
X59064Y42147D01*
X59082Y42153D01*
X59173Y42092D01*
X59290Y42069D01*
X59407Y42092D01*
X59506Y42159D01*
X59573Y42258D01*
X59596Y42375D01*
X59573Y42492D01*
X59506Y42591D01*
X59407Y42658D01*
X59290Y42681D01*
X59270Y42677D01*
X59181Y42740D01*
X59158Y42857D01*
X59091Y42956D01*
X58992Y43023D01*
X58875Y43046D01*
X58758Y43023D01*
X58659Y42956D01*
X58623Y42902D01*
X58494D01*
X58398Y42913D01*
X58398Y42913D01*
X58398D01*
X58390Y43002D01*
X58403Y43005D01*
X58465Y43017D01*
X58564Y43084D01*
X58631Y43183D01*
X58654Y43300D01*
X58631Y43417D01*
X58598Y43465D01*
X58598Y43467D01*
X58645Y43574D01*
X58648Y43574D01*
X58733Y43517D01*
X58850Y43494D01*
X58967Y43517D01*
X59066Y43584D01*
X59133Y43683D01*
X59156Y43800D01*
X59133Y43917D01*
X59066Y44016D01*
X58967Y44083D01*
X58850Y44106D01*
X58733Y44083D01*
X58639Y44020D01*
X58631Y44017D01*
X58617Y44050D01*
X58603Y44126D01*
X58658Y44208D01*
X58681Y44325D01*
X58659Y44435D01*
X58795Y44570D01*
X59025D01*
X59050Y44575D01*
X59080D01*
X59120Y44535D01*
X59202Y44480D01*
X59288Y44463D01*
X59305Y44377D01*
X59334Y44333D01*
Y44131D01*
X59884D01*
Y44176D01*
X59911D01*
X60009Y44196D01*
X60091Y44251D01*
X60478Y44637D01*
X60621D01*
X60673Y44602D01*
X60790Y44579D01*
X60907Y44602D01*
X61006Y44669D01*
X61073Y44768D01*
X61096Y44885D01*
X61073Y45002D01*
X61006Y45101D01*
X60907Y45168D01*
X60790Y45191D01*
X60742Y45181D01*
X60723Y45193D01*
X60665Y45268D01*
X60681Y45350D01*
X60658Y45467D01*
X60591Y45566D01*
X60492Y45633D01*
X60375Y45656D01*
X60258Y45633D01*
X60159Y45566D01*
X60146Y45547D01*
X60021Y45536D01*
X59603Y45955D01*
X59602Y45956D01*
X59600Y46020D01*
X59605Y46068D01*
X59666Y46109D01*
X59733Y46208D01*
X59756Y46325D01*
X59733Y46442D01*
X59666Y46541D01*
X59690Y46635D01*
X59737Y46750D01*
X59690Y46865D01*
X59575Y46912D01*
X59530Y46894D01*
X59490Y46990D01*
X59375Y47037D01*
X59260Y46990D01*
X58974Y46704D01*
X58927Y46589D01*
Y46248D01*
X58875Y46206D01*
X58758Y46183D01*
X58748Y46176D01*
X58676Y46248D01*
X58679Y46252D01*
X58702Y46369D01*
X58679Y46486D01*
X58612Y46585D01*
X58513Y46652D01*
X58396Y46675D01*
X58279Y46652D01*
X58180Y46585D01*
X58113Y46486D01*
X58090Y46369D01*
X58113Y46252D01*
X58180Y46153D01*
X58279Y46086D01*
X58396Y46063D01*
X58513Y46086D01*
X58523Y46093D01*
X58595Y46021D01*
X58592Y46017D01*
X58569Y45900D01*
X58592Y45783D01*
X58625Y45700D01*
X58625Y45700D01*
X58625Y45700D01*
Y45513D01*
X58611Y45499D01*
X58567Y45433D01*
X58551Y45355D01*
X58567Y45277D01*
X58593Y45237D01*
X58625Y45150D01*
X58591Y45060D01*
X58509Y45005D01*
X58214Y44710D01*
X58159Y44628D01*
X58149Y44580D01*
X57625D01*
Y44600D01*
X57075D01*
Y44580D01*
X56971D01*
Y44605D01*
X56421D01*
Y44055D01*
X56373Y43975D01*
X56233D01*
X56118Y43927D01*
X56071Y43812D01*
X56118Y43698D01*
X56174Y43675D01*
X56200Y43577D01*
X56152Y43463D01*
X56200Y43348D01*
X56314Y43300D01*
X57302D01*
X57357Y43217D01*
X57347Y43191D01*
X57394Y43076D01*
X57509Y43029D01*
X57742D01*
X57856Y43076D01*
X57888Y43108D01*
X58003D01*
X58076Y43138D01*
X58096D01*
X58132Y43084D01*
X58231Y43017D01*
X58294Y43005D01*
X58307Y43002D01*
X58298Y42913D01*
X58298D01*
X58298Y42913D01*
X58215Y42871D01*
X58175Y42855D01*
X58142Y42821D01*
X58126Y42815D01*
X58043Y42732D01*
X57647D01*
X57635Y42737D01*
X57520Y42690D01*
X57472Y42575D01*
X57520Y42460D01*
X57525Y42455D01*
X57572Y42436D01*
X57583Y42336D01*
X57554Y42306D01*
X57527Y42295D01*
X57479Y42180D01*
X57527Y42065D01*
X57519Y41960D01*
X57507Y41942D01*
X57484Y41825D01*
X57507Y41708D01*
X57574Y41609D01*
X57673Y41542D01*
X57790Y41519D01*
X57896Y41540D01*
X57941Y41513D01*
X57985Y41474D01*
X57974Y41421D01*
X57997Y41304D01*
X58064Y41205D01*
X58150Y41147D01*
X58158Y41110D01*
X58130Y41060D01*
X58014Y41055D01*
X58006Y41066D01*
X57907Y41133D01*
X57790Y41156D01*
X57673Y41133D01*
X57574Y41066D01*
X57538Y41012D01*
X57287D01*
X57284Y41011D01*
X56899D01*
X56784Y40964D01*
X56736Y40849D01*
X56784Y40734D01*
X56834Y40713D01*
X56815Y40613D01*
X56405D01*
X56050Y40968D01*
X55968Y41023D01*
X55870Y41042D01*
X53771D01*
X53689Y41142D01*
X53694Y41170D01*
X53671Y41287D01*
X53605Y41386D01*
X53506Y41453D01*
X53389Y41476D01*
X53272Y41453D01*
X53172Y41386D01*
X53106Y41287D01*
X53083Y41170D01*
X53106Y41053D01*
X53172Y40954D01*
X53253Y40900D01*
X53282Y40800D01*
X53219Y40726D01*
X51082D01*
X50673Y41134D01*
Y41899D01*
X50678Y41923D01*
Y42024D01*
X50721Y42088D01*
X50740Y42185D01*
Y42633D01*
X50865D01*
Y43343D01*
X50105D01*
Y42633D01*
X50230D01*
Y42284D01*
X50188Y42221D01*
X50178Y42173D01*
X49073D01*
Y40973D01*
X50113D01*
X50796Y40290D01*
X50878Y40235D01*
X50976Y40216D01*
X53326D01*
X53423Y40235D01*
X53506Y40290D01*
X53748Y40533D01*
X55764D01*
X56119Y40178D01*
X56202Y40123D01*
X56299Y40103D01*
X57092D01*
X57147Y40020D01*
X57139Y40000D01*
X57185Y39889D01*
X57296Y39843D01*
X57452D01*
X57471Y39823D01*
X57496Y39813D01*
X57507Y39758D01*
X57574Y39659D01*
X57673Y39592D01*
X57790Y39569D01*
X57907Y39592D01*
X58006Y39659D01*
X58073Y39758D01*
X58096Y39875D01*
X58073Y39992D01*
X58065Y40003D01*
X58119Y40103D01*
X58321D01*
X58583Y39842D01*
X58592Y39793D01*
X58659Y39694D01*
X58758Y39627D01*
X58875Y39604D01*
X58992Y39627D01*
X59091Y39694D01*
X59158Y39793D01*
X59181Y39910D01*
X59158Y40027D01*
X59091Y40126D01*
X58992Y40193D01*
X58943Y40202D01*
X58607Y40538D01*
X58524Y40594D01*
X58427Y40613D01*
X58132D01*
X58079Y40699D01*
X58105Y40765D01*
X58206Y40804D01*
X58287Y40771D01*
X58590D01*
X58642Y40694D01*
X58741Y40627D01*
X58858Y40604D01*
X58975Y40627D01*
X59075Y40600D01*
Y40600D01*
X59075Y40600D01*
X59775D01*
Y41200D01*
X59775D01*
X59762Y41300D01*
X59771Y41334D01*
X59806Y41353D01*
X59850Y41344D01*
X59967Y41367D01*
X59978Y41375D01*
X60076Y41380D01*
X60076Y41380D01*
X60626D01*
X60626Y41380D01*
X60640D01*
Y41380D01*
X60726Y41380D01*
X61190D01*
X61201Y41356D01*
X61751D01*
X61763Y41382D01*
X62313D01*
Y41932D01*
X61985D01*
X61917Y42032D01*
X61931Y42100D01*
X61926Y42122D01*
X62012Y42203D01*
X62072Y42191D01*
X62189Y42214D01*
X62288Y42281D01*
X62354Y42380D01*
X62378Y42497D01*
X62361Y42583D01*
X62419Y42641D01*
X62450Y42688D01*
X62461Y42703D01*
X62566Y42722D01*
X62603Y42697D01*
X62720Y42674D01*
X62772Y42684D01*
X62910Y42546D01*
X62927Y42458D01*
X62994Y42359D01*
X63093Y42292D01*
X63210Y42269D01*
X63327Y42292D01*
X63426Y42359D01*
X63493Y42458D01*
X63514Y42563D01*
X63561Y42610D01*
X63617Y42611D01*
X63711Y42572D01*
X63734Y42455D01*
X63801Y42356D01*
X63900Y42289D01*
X64017Y42266D01*
X64134Y42289D01*
X64233Y42356D01*
X64270Y42410D01*
X64330Y42422D01*
X64396Y42466D01*
X64560Y42630D01*
X64657D01*
X64734Y42572D01*
X64757Y42455D01*
X64824Y42356D01*
X64923Y42289D01*
X65040Y42266D01*
X65157Y42289D01*
X65256Y42356D01*
X65323Y42455D01*
X65346Y42572D01*
X65323Y42689D01*
X65282Y42750D01*
Y43072D01*
X65372Y43106D01*
X65373Y43106D01*
X65450Y43028D01*
X65444Y43000D01*
X65467Y42883D01*
X65497Y42839D01*
Y42265D01*
X65460Y42211D01*
X65447Y42143D01*
Y42109D01*
X65326Y41988D01*
X65287Y41930D01*
X65276Y41875D01*
X64985D01*
Y41408D01*
X64985Y41403D01*
X64985Y41402D01*
X64981Y41324D01*
X64894Y41304D01*
X64890Y41304D01*
X64884Y41304D01*
X64684D01*
X64633Y41355D01*
X64575Y41394D01*
X64515Y41406D01*
X64512Y41408D01*
X64444Y41421D01*
X64358D01*
Y41581D01*
X63808D01*
Y41450D01*
X63708Y41389D01*
X63625Y41406D01*
X63508Y41383D01*
X63432Y41332D01*
X62887D01*
Y41235D01*
X62788D01*
X62720Y41222D01*
X62689Y41201D01*
X62683Y41200D01*
X62325D01*
Y40650D01*
X62623D01*
X62776Y40497D01*
X62815Y40471D01*
X62817Y40458D01*
X62884Y40359D01*
X62983Y40292D01*
X63100Y40269D01*
X63217Y40292D01*
X63316Y40359D01*
X63383Y40458D01*
X63402Y40557D01*
X63464Y40583D01*
X63503Y40589D01*
X63642Y40449D01*
X63700Y40410D01*
X63769Y40397D01*
X63883D01*
X63909Y40359D01*
X64008Y40292D01*
X64125Y40269D01*
X64242Y40292D01*
X64341Y40359D01*
X64350Y40372D01*
X64808D01*
X64834Y40334D01*
X64933Y40267D01*
X65050Y40244D01*
X65167Y40267D01*
X65266Y40334D01*
X65333Y40433D01*
X65356Y40550D01*
X65333Y40667D01*
X65266Y40766D01*
X65167Y40833D01*
X65093Y40847D01*
X64980Y40960D01*
Y41221D01*
X64980Y41226D01*
X64980Y41227D01*
X64984Y41305D01*
X65071Y41325D01*
X65075Y41325D01*
X65081Y41325D01*
X65535D01*
Y41534D01*
X65578Y41577D01*
X65617Y41635D01*
X65630Y41703D01*
Y41788D01*
X65751Y41909D01*
X65790Y41967D01*
X65803Y42035D01*
X65799Y42055D01*
X65802Y42068D01*
X65840Y42124D01*
X65853Y42193D01*
Y42667D01*
X65950Y42675D01*
Y42675D01*
X66141D01*
Y41450D01*
X66081Y41361D01*
X66058Y41244D01*
X66081Y41127D01*
X66141Y41038D01*
Y40710D01*
X66104Y40654D01*
X66044Y40614D01*
X65977Y40515D01*
X65954Y40398D01*
X65977Y40281D01*
X66044Y40182D01*
X66141Y40117D01*
Y39173D01*
X66117Y39151D01*
X66041Y39123D01*
X66019Y39137D01*
X65966Y39216D01*
X65867Y39283D01*
X65750Y39306D01*
X65633Y39283D01*
X65534Y39216D01*
X65467Y39117D01*
X65444Y39000D01*
X65444Y39000D01*
X65000D01*
Y38715D01*
X64900Y38652D01*
X64882Y38661D01*
Y38972D01*
X64332D01*
Y38972D01*
X64250Y38918D01*
X64232Y38914D01*
X64144Y38932D01*
X64053Y38971D01*
X64030Y39088D01*
X64009Y39119D01*
X63989Y39211D01*
X63989Y39211D01*
X63989Y39211D01*
Y39761D01*
X63439D01*
Y39493D01*
X63429Y39397D01*
X62879D01*
X62867Y39328D01*
X62353Y39328D01*
X62305Y39408D01*
X62269Y39408D01*
X62269Y39408D01*
X61755D01*
X61742Y39349D01*
X61192D01*
X61180Y39423D01*
X60630D01*
X60630Y39350D01*
X60180D01*
X60080Y39350D01*
Y39350D01*
X60080D01*
Y39350D01*
X59655D01*
X59651Y39355D01*
X59628Y39472D01*
X59561Y39571D01*
X59462Y39638D01*
X59345Y39661D01*
X59228Y39638D01*
X59129Y39571D01*
X59062Y39472D01*
X59039Y39355D01*
X59062Y39238D01*
X59129Y39139D01*
X59228Y39072D01*
X59345Y39049D01*
X59430Y39066D01*
X59530Y39007D01*
Y38800D01*
X59665D01*
X59711Y38704D01*
X59693Y38648D01*
X59592Y38608D01*
X59475Y38631D01*
X59358Y38608D01*
X59259Y38541D01*
X59192Y38442D01*
X59169Y38325D01*
X59125Y38272D01*
X58690D01*
X58655Y38315D01*
X58632Y38432D01*
X58565Y38531D01*
X58466Y38598D01*
X58349Y38621D01*
X58232Y38598D01*
X58133Y38531D01*
X58083Y38457D01*
X57983Y38430D01*
X57926Y38469D01*
X57918Y38507D01*
X57922Y38577D01*
X58006Y38634D01*
X58073Y38733D01*
X58096Y38850D01*
X58073Y38967D01*
X58006Y39066D01*
X57907Y39133D01*
X57790Y39156D01*
X57673Y39133D01*
X57574Y39066D01*
X57507Y38967D01*
X57484Y38850D01*
X57507Y38733D01*
X57574Y38634D01*
X57651Y38582D01*
X57629Y38482D01*
X57204D01*
X56452Y39234D01*
X56341Y39280D01*
X48492D01*
X48439Y39380D01*
X48441Y39383D01*
X48464Y39500D01*
X48441Y39617D01*
X48374Y39716D01*
X48275Y39782D01*
X48158Y39806D01*
X48108Y39796D01*
X48085Y39819D01*
X48019Y39863D01*
X47941Y39879D01*
X46750D01*
Y40030D01*
X45850D01*
Y39320D01*
X45767Y39280D01*
X44898D01*
X44587Y39592D01*
Y40745D01*
X44646Y40784D01*
X44712Y40883D01*
X44736Y41000D01*
X44712Y41118D01*
X44646Y41217D01*
X44547Y41283D01*
X44430Y41306D01*
X44313Y41283D01*
X44214Y41217D01*
X44114Y41248D01*
Y43623D01*
X44087Y43760D01*
X44009Y43875D01*
X43669Y44216D01*
X43596Y44324D01*
X43571Y44341D01*
Y44442D01*
X43596Y44459D01*
X43679Y44583D01*
X43708Y44729D01*
X43679Y44875D01*
X43596Y44999D01*
X43571Y45016D01*
Y45117D01*
X43596Y45134D01*
X43679Y45258D01*
X43708Y45404D01*
X43679Y45550D01*
X43596Y45674D01*
X43472Y45757D01*
X43326Y45786D01*
X43180Y45757D01*
X43056Y45674D01*
X43031Y45637D01*
X42931D01*
X42926Y45644D01*
X42802Y45727D01*
X42656Y45756D01*
X42510Y45727D01*
X42386Y45644D01*
X42303Y45520D01*
X42274Y45374D01*
X42303Y45228D01*
X42386Y45104D01*
X42411Y45086D01*
Y44986D01*
X42386Y44969D01*
X42303Y44845D01*
X42274Y44699D01*
X42303Y44553D01*
X42386Y44429D01*
X42411Y44411D01*
Y44312D01*
X42386Y44294D01*
X42303Y44170D01*
X42274Y44024D01*
X42303Y43878D01*
X42386Y43754D01*
X42510Y43671D01*
X42656Y43642D01*
X42802Y43671D01*
X42926Y43754D01*
X42951Y43791D01*
X43051D01*
X43056Y43784D01*
X43164Y43711D01*
X43400Y43475D01*
Y41741D01*
X43300Y41687D01*
X43237Y41730D01*
X43100Y41757D01*
X42963Y41730D01*
X42848Y41652D01*
X42813Y41601D01*
X34935D01*
X34888Y41689D01*
X34905Y41713D01*
X34932Y41850D01*
X34905Y41987D01*
X34827Y42102D01*
X34712Y42180D01*
X34575Y42207D01*
X34438Y42180D01*
X34325Y42104D01*
X34212Y42180D01*
X34075Y42207D01*
X33938Y42180D01*
X33823Y42102D01*
X33745Y41987D01*
X33718Y41850D01*
X33745Y41713D01*
X33762Y41689D01*
X33715Y41601D01*
X33100D01*
X33068Y41649D01*
X32952Y41726D01*
X32815Y41754D01*
X32679Y41726D01*
X32563Y41649D01*
X32486Y41533D01*
X32459Y41397D01*
X32486Y41260D01*
X32563Y41144D01*
X32679Y41067D01*
X32815Y41040D01*
X32952Y41067D01*
X33068Y41144D01*
X33100Y41193D01*
X42818D01*
X42848Y41148D01*
X42963Y41070D01*
X43089Y41045D01*
X43113Y41006D01*
X43132Y40948D01*
X42407Y40223D01*
X39084D01*
X38947Y40195D01*
X38831Y40118D01*
X37557Y38844D01*
X37480Y38728D01*
X37478Y38718D01*
X37447Y38671D01*
X37418Y38525D01*
X37447Y38379D01*
X37530Y38255D01*
X37654Y38172D01*
X37800Y38143D01*
X37946Y38172D01*
X38070Y38255D01*
X38153Y38379D01*
X38166Y38444D01*
X39231Y39509D01*
X42555D01*
X42692Y39536D01*
X42807Y39613D01*
X44009Y40815D01*
X44047Y40872D01*
X44082Y40876D01*
X44161Y40862D01*
X44214Y40784D01*
X44273Y40745D01*
Y39527D01*
X44319Y39416D01*
X44722Y39012D01*
X44833Y38966D01*
X54600D01*
X54653Y38866D01*
X54650Y38861D01*
X54626Y38744D01*
X54650Y38627D01*
X54716Y38527D01*
X54815Y38461D01*
X54932Y38438D01*
X55049Y38461D01*
X55097Y38493D01*
X55789D01*
Y38473D01*
X55978D01*
X56018Y38433D01*
X56101Y38378D01*
X56199Y38358D01*
X56224D01*
Y38333D01*
X56243Y38235D01*
X56298Y38153D01*
X56651Y37800D01*
X55983Y37131D01*
X55662D01*
X55565Y37112D01*
X55482Y37057D01*
X55356Y36930D01*
X54891D01*
X54793Y36911D01*
X54711Y36856D01*
X54447Y36592D01*
X54392Y36509D01*
X54364Y36498D01*
X54289Y36508D01*
X54175Y36531D01*
X54058Y36508D01*
X53959Y36441D01*
X53892Y36342D01*
X53869Y36225D01*
X53877Y36183D01*
X53815Y36090D01*
X53808Y36088D01*
X53741Y36151D01*
X53756Y36225D01*
X53733Y36342D01*
X53666Y36441D01*
X53567Y36508D01*
X53450Y36531D01*
X53333Y36508D01*
X53234Y36441D01*
X53167Y36342D01*
X53144Y36225D01*
X53052Y36176D01*
X53025Y36181D01*
X52908Y36158D01*
X52809Y36091D01*
X52742Y35992D01*
X52719Y35875D01*
X52742Y35758D01*
X52809Y35659D01*
X52901Y35597D01*
X52902Y35590D01*
X52842Y35497D01*
X51228D01*
X51114Y35450D01*
X49835Y34171D01*
X49759Y34132D01*
X49693Y34160D01*
X49621Y34208D01*
X49475Y34237D01*
X49328Y34208D01*
X49204Y34125D01*
X49191Y34105D01*
X49091D01*
X49077Y34125D01*
X48953Y34208D01*
X48806Y34237D01*
X48660Y34208D01*
X48536Y34125D01*
X48453Y34001D01*
X48424Y33855D01*
X48453Y33709D01*
X48536Y33585D01*
X48660Y33502D01*
X48735Y33487D01*
X48768Y33378D01*
X48113Y32723D01*
X39264D01*
X38253Y33734D01*
X38291Y33827D01*
X41626D01*
X41740Y33874D01*
X43402Y35536D01*
X43450Y35651D01*
Y37190D01*
X43526Y37266D01*
X43612Y37211D01*
X43594Y37120D01*
X43617Y37003D01*
X43684Y36904D01*
X43783Y36837D01*
X43900Y36814D01*
X44017Y36837D01*
X44080Y36879D01*
X44150Y36896D01*
X44220Y36879D01*
X44283Y36837D01*
X44400Y36814D01*
X44517Y36837D01*
X44616Y36904D01*
X44683Y37003D01*
X44706Y37120D01*
X44683Y37237D01*
X44665Y37263D01*
X44719Y37363D01*
X48314D01*
X48429Y37411D01*
X48779Y37760D01*
X48805Y37755D01*
X48922Y37778D01*
X49021Y37845D01*
X49087Y37944D01*
X49111Y38061D01*
X49087Y38178D01*
X49021Y38277D01*
X48922Y38343D01*
X48805Y38367D01*
X48688Y38343D01*
X48588Y38277D01*
X48522Y38178D01*
X48499Y38061D01*
X48519Y37960D01*
X48247Y37688D01*
X43556D01*
X43441Y37640D01*
X43173Y37372D01*
X43125Y37258D01*
Y35718D01*
X41558Y34151D01*
X26346D01*
X25207Y35290D01*
X25092Y35338D01*
X22495D01*
X22457Y35430D01*
X25201Y38174D01*
X25501D01*
X25615Y38222D01*
X26546Y39152D01*
X26593Y39267D01*
Y45666D01*
X26733Y45805D01*
X26781Y45920D01*
Y48505D01*
X28163Y49888D01*
X28211Y50003D01*
Y53333D01*
X43181Y68303D01*
X45808D01*
X45846Y68210D01*
D02*
G37*
G36*
X111269Y49282D02*
Y47979D01*
X111215Y47936D01*
X111212Y47930D01*
X111206Y47928D01*
X111200Y47913D01*
X111179Y47906D01*
X110399Y47281D01*
X110205D01*
X110203Y47280D01*
X110201Y47281D01*
X109764D01*
X109717Y47369D01*
X109732Y47392D01*
X109759Y47529D01*
X109752Y47568D01*
X110006Y47822D01*
X110383D01*
Y48582D01*
X110383Y48582D01*
Y48647D01*
X110383D01*
X110383Y48682D01*
Y49407D01*
X110082D01*
X110044Y49499D01*
X110141Y49597D01*
X110828D01*
X110828Y49597D01*
Y49597D01*
X110928Y49624D01*
X111269Y49282D01*
D02*
G37*
G36*
X112628Y49698D02*
X112628Y47273D01*
X112216Y46862D01*
X111820D01*
X111791Y46833D01*
X111748D01*
Y46790D01*
X111653Y46695D01*
Y45827D01*
X110348Y44523D01*
X109703D01*
X109578Y44398D01*
Y43623D01*
X109703Y43498D01*
Y42803D01*
X109278D01*
Y41843D01*
X109733D01*
X109998Y41578D01*
Y41565D01*
X109996Y41554D01*
X109998Y41543D01*
Y36927D01*
X97737D01*
Y38722D01*
X97816Y38799D01*
X107153D01*
X107219Y38864D01*
X107278D01*
Y38923D01*
X107388Y39033D01*
X107380Y39048D01*
Y41130D01*
X107384Y41154D01*
X107380Y41178D01*
Y45372D01*
X108786D01*
X108843Y45384D01*
X108864Y45398D01*
X109703D01*
Y46338D01*
X109250D01*
X109161Y46428D01*
X109171Y47173D01*
X109401D01*
X109403Y47172D01*
X109405Y47173D01*
X110201D01*
X110203Y47172D01*
X110205Y47173D01*
X110437D01*
X111246Y47822D01*
X111283D01*
Y47851D01*
X111378Y47927D01*
Y49327D01*
X110953Y49752D01*
X110953Y50373D01*
X104403D01*
X104328Y50469D01*
Y52073D01*
X112628D01*
Y49698D01*
D02*
G37*
G36*
X66551Y46120D02*
X66496Y46038D01*
X66473Y45921D01*
X66496Y45804D01*
X66554Y45718D01*
X66141Y45305D01*
Y44525D01*
X66041Y44515D01*
X66038Y44532D01*
X65971Y44631D01*
X65872Y44698D01*
X65810Y44710D01*
X65779Y44798D01*
X65775Y44816D01*
Y45158D01*
X65274D01*
X65224Y45159D01*
X65175Y45237D01*
Y45710D01*
X65175Y45710D01*
X65161Y45810D01*
X65181Y45910D01*
X65167Y45979D01*
X65257Y46039D01*
X65261Y46036D01*
X65378Y46013D01*
X65413Y46020D01*
X65498Y45935D01*
X65494Y45915D01*
X65517Y45798D01*
X65584Y45699D01*
X65683Y45632D01*
X65800Y45609D01*
X65917Y45632D01*
X66016Y45699D01*
X66083Y45798D01*
X66106Y45915D01*
X66083Y46032D01*
X66036Y46102D01*
X66108Y46174D01*
X66163Y46137D01*
X66280Y46114D01*
X66397Y46137D01*
X66479Y46192D01*
X66551Y46120D01*
D02*
G37*
G36*
X64748Y49067D02*
Y47299D01*
X64796Y47184D01*
X64839Y47141D01*
X64798Y47041D01*
X64675D01*
Y47112D01*
X64125D01*
Y46562D01*
X64675D01*
Y46633D01*
X64775D01*
X65068Y46341D01*
X65066Y46254D01*
X64984Y46194D01*
X64875Y46216D01*
X64758Y46193D01*
X64659Y46126D01*
X64592Y46027D01*
X64569Y45910D01*
X64592Y45793D01*
X64625Y45710D01*
X64625Y45710D01*
X64625Y45710D01*
Y45605D01*
X64574Y45527D01*
X64537Y45519D01*
X64501Y45512D01*
X64499Y45510D01*
X64496Y45510D01*
X64422Y45477D01*
X64030D01*
Y45210D01*
X63942Y45122D01*
X63900Y45131D01*
X63872Y45125D01*
X63853Y45138D01*
X63775Y45154D01*
X63675D01*
Y45225D01*
X63125D01*
Y44675D01*
X63639D01*
X63684Y44609D01*
X63783Y44542D01*
X63900Y44519D01*
X64017Y44542D01*
X64116Y44609D01*
X64183Y44708D01*
X64202Y44805D01*
X64324Y44927D01*
X64580D01*
Y45101D01*
X64622Y45120D01*
X64778D01*
X64856Y45135D01*
X64893Y45160D01*
X65126D01*
X65176Y45159D01*
X65225Y45081D01*
Y44608D01*
X65396D01*
X65406Y44556D01*
X65448Y44493D01*
X65462Y44480D01*
X65449Y44415D01*
X65472Y44298D01*
X65539Y44199D01*
X65638Y44132D01*
X65755Y44109D01*
X65872Y44132D01*
X65971Y44199D01*
X66038Y44298D01*
X66041Y44315D01*
X66141Y44305D01*
Y43797D01*
X66135Y43792D01*
X66018Y43769D01*
X65919Y43702D01*
X65853Y43603D01*
X65829Y43486D01*
X65837Y43450D01*
X65766Y43346D01*
X65761Y43345D01*
X65675Y43420D01*
Y43725D01*
X65125D01*
X65125Y43700D01*
X64675D01*
X64575Y43700D01*
Y43700D01*
X64575D01*
Y43700D01*
X64025D01*
X64025Y43750D01*
X63475D01*
X63475Y43650D01*
X62925D01*
X62925Y43730D01*
X62475D01*
Y44241D01*
X62460Y44314D01*
X62419Y44376D01*
X62377Y44417D01*
Y44612D01*
X62362Y44685D01*
X62321Y44747D01*
X61641Y45427D01*
X61633Y45467D01*
X61566Y45566D01*
X61467Y45633D01*
X61366Y45653D01*
Y45660D01*
X61354Y45723D01*
Y45763D01*
X61350Y45781D01*
Y45999D01*
X61375Y46019D01*
X61492Y46042D01*
X61591Y46109D01*
X61658Y46208D01*
X61663Y46235D01*
X61725Y46249D01*
X61767Y46246D01*
X61794Y46205D01*
X62217Y45782D01*
Y45555D01*
X62159Y45516D01*
X62092Y45417D01*
X62069Y45300D01*
X62092Y45183D01*
X62159Y45084D01*
X62258Y45017D01*
X62375Y44994D01*
X62492Y45017D01*
X62591Y45084D01*
X62658Y45183D01*
X62681Y45300D01*
X62658Y45417D01*
X62591Y45516D01*
X62533Y45555D01*
Y45848D01*
X62521Y45908D01*
X62502Y45937D01*
X62511Y45999D01*
X62515Y46016D01*
X62534Y46054D01*
X62616Y46109D01*
X62683Y46208D01*
X62706Y46325D01*
Y46615D01*
X62730Y46650D01*
X62757Y46787D01*
Y47677D01*
X63113Y48032D01*
X63213Y47991D01*
Y46502D01*
X63159Y46466D01*
X63092Y46367D01*
X63069Y46250D01*
X63092Y46133D01*
X63159Y46034D01*
X63258Y45967D01*
X63375Y45944D01*
X63492Y45967D01*
X63591Y46034D01*
X63658Y46133D01*
X63681Y46250D01*
X63658Y46367D01*
X63591Y46466D01*
X63537Y46502D01*
Y47987D01*
X64656Y49105D01*
X64748Y49067D01*
D02*
G37*
G36*
X26008Y34030D02*
X25970Y33937D01*
X24467D01*
X23932Y34473D01*
X23957Y34600D01*
X23928Y34746D01*
X23845Y34870D01*
X23781Y34913D01*
X23811Y35013D01*
X25025D01*
X26008Y34030D01*
D02*
G37*
%LPC*%
G36*
X29100Y53332D02*
X28954Y53303D01*
X28830Y53220D01*
X28747Y53096D01*
X28718Y52950D01*
X28747Y52804D01*
X28830Y52680D01*
X28954Y52597D01*
X29100Y52568D01*
X29246Y52597D01*
X29370Y52680D01*
X29453Y52804D01*
X29482Y52950D01*
X29453Y53096D01*
X29370Y53220D01*
X29246Y53303D01*
X29100Y53332D01*
D02*
G37*
G36*
X31150Y51390D02*
X31013Y51363D01*
X30898Y51285D01*
X30820Y51169D01*
X30793Y51033D01*
X30820Y50896D01*
X30898Y50781D01*
X31013Y50703D01*
X31150Y50676D01*
X31287Y50703D01*
X31402Y50781D01*
X31480Y50896D01*
X31507Y51033D01*
X31480Y51169D01*
X31402Y51285D01*
X31287Y51363D01*
X31150Y51390D01*
D02*
G37*
G36*
X43543Y50941D02*
X31898D01*
X31783Y50893D01*
X30665Y49775D01*
X30618Y49661D01*
Y48890D01*
X30293Y48566D01*
X30110D01*
X30052Y48652D01*
X30027Y48669D01*
Y48752D01*
X30040Y48781D01*
X30114Y48891D01*
X30141Y49027D01*
X30114Y49164D01*
X30073Y49225D01*
X30126Y49325D01*
X30230D01*
Y50035D01*
X29330D01*
Y50035D01*
X29255D01*
Y50035D01*
X28355D01*
Y49325D01*
X29255D01*
Y49325D01*
X29330D01*
Y49325D01*
X29448D01*
X29495Y49225D01*
X29454Y49164D01*
X29427Y49027D01*
X29454Y48891D01*
X29532Y48775D01*
X29557Y48758D01*
Y48675D01*
X29544Y48647D01*
X29470Y48537D01*
X29443Y48400D01*
X29470Y48263D01*
X29548Y48148D01*
X29663Y48070D01*
X29800Y48043D01*
X29937Y48070D01*
X30052Y48148D01*
X30115Y48241D01*
X30361D01*
X30475Y48288D01*
X30895Y48708D01*
X30942Y48823D01*
Y49593D01*
X31965Y50616D01*
X43416D01*
X43445Y50580D01*
X43469Y50463D01*
X43535Y50364D01*
X43634Y50298D01*
X43751Y50275D01*
X43868Y50298D01*
X43967Y50364D01*
X44034Y50463D01*
X44057Y50580D01*
X44034Y50697D01*
X43967Y50797D01*
X43868Y50863D01*
X43751Y50886D01*
X43679Y50872D01*
X43657Y50893D01*
X43543Y50941D01*
D02*
G37*
G36*
X31575Y49130D02*
X31438Y49103D01*
X31323Y49025D01*
X31245Y48910D01*
X31218Y48773D01*
X31245Y48636D01*
X31323Y48521D01*
X31438Y48443D01*
X31575Y48416D01*
X31712Y48443D01*
X31827Y48521D01*
X31905Y48636D01*
X31932Y48773D01*
X31905Y48910D01*
X31827Y49025D01*
X31712Y49103D01*
X31575Y49130D01*
D02*
G37*
G36*
X34125Y47707D02*
X33988Y47680D01*
X33875Y47604D01*
X33762Y47680D01*
X33625Y47707D01*
X33488Y47680D01*
X33373Y47602D01*
X33295Y47487D01*
X33268Y47350D01*
X33295Y47213D01*
X33373Y47098D01*
X33488Y47020D01*
X33625Y46993D01*
X33762Y47020D01*
X33875Y47096D01*
X33988Y47020D01*
X34125Y46993D01*
X34262Y47020D01*
X34377Y47098D01*
X34455Y47213D01*
X34482Y47350D01*
X34455Y47487D01*
X34377Y47602D01*
X34262Y47680D01*
X34125Y47707D01*
D02*
G37*
G36*
X57075Y46375D02*
Y46375D01*
X57003Y46375D01*
X56525D01*
Y45825D01*
X57075D01*
Y45825D01*
X57100Y45825D01*
Y45825D01*
X57430D01*
X57450Y45821D01*
X57450Y45821D01*
X57496D01*
X57594Y45800D01*
X57617Y45683D01*
X57684Y45584D01*
X57783Y45517D01*
X57900Y45494D01*
X58017Y45517D01*
X58116Y45584D01*
X58183Y45683D01*
X58206Y45800D01*
X58183Y45917D01*
X58116Y46016D01*
X58017Y46083D01*
X57900Y46106D01*
X57885Y46103D01*
X57819Y46169D01*
X57753Y46213D01*
X57675Y46229D01*
X57650D01*
Y46375D01*
X57172D01*
X57100Y46375D01*
Y46375D01*
X57075Y46375D01*
D02*
G37*
G36*
X41473Y45095D02*
X41327Y45066D01*
X41203Y44983D01*
X41186Y44957D01*
X41085D01*
X41068Y44983D01*
X40944Y45066D01*
X40798Y45095D01*
X40652Y45066D01*
X40528Y44983D01*
X40511Y44957D01*
X40410D01*
X40393Y44983D01*
X40269Y45066D01*
X40123Y45095D01*
X39977Y45066D01*
X39853Y44983D01*
X39770Y44859D01*
X39741Y44713D01*
X39770Y44566D01*
X39853Y44442D01*
X39878Y44425D01*
Y44325D01*
X39853Y44308D01*
X39770Y44184D01*
X39741Y44038D01*
X39770Y43891D01*
X39853Y43767D01*
X39977Y43684D01*
X40123Y43655D01*
X40269Y43684D01*
X40393Y43767D01*
X40410Y43793D01*
X40511D01*
X40528Y43767D01*
X40652Y43684D01*
X40798Y43655D01*
X40944Y43684D01*
X41068Y43767D01*
X41085Y43793D01*
X41186D01*
X41203Y43767D01*
X41327Y43684D01*
X41473Y43655D01*
X41619Y43684D01*
X41743Y43767D01*
X41826Y43891D01*
X41855Y44038D01*
X41826Y44184D01*
X41743Y44308D01*
X41718Y44325D01*
Y44425D01*
X41743Y44442D01*
X41826Y44566D01*
X41855Y44713D01*
X41826Y44859D01*
X41743Y44983D01*
X41619Y45066D01*
X41473Y45095D01*
D02*
G37*
G36*
X42248Y50007D02*
X35902D01*
X35824Y49992D01*
X35758Y49948D01*
X35758Y49948D01*
X34527Y48716D01*
X34449Y48780D01*
X34460Y48796D01*
X34505Y48863D01*
X34532Y49000D01*
X34505Y49137D01*
X34427Y49252D01*
X34312Y49330D01*
X34175Y49357D01*
X34038Y49330D01*
X33925Y49254D01*
X33812Y49330D01*
X33675Y49357D01*
X33538Y49330D01*
X33423Y49252D01*
X33345Y49137D01*
X33318Y49000D01*
X33345Y48863D01*
X33423Y48748D01*
X33538Y48670D01*
X33675Y48643D01*
X33812Y48670D01*
X33925Y48746D01*
X34038Y48670D01*
X34175Y48643D01*
X34312Y48670D01*
X34379Y48715D01*
X34395Y48726D01*
X34459Y48648D01*
X34125Y48314D01*
X32250D01*
X32234Y48318D01*
X32156Y48302D01*
X32152Y48299D01*
X32151Y48299D01*
X32085Y48255D01*
X32085Y48255D01*
X31839Y48008D01*
X31807Y48030D01*
X31670Y48057D01*
X31533Y48030D01*
X31418Y47952D01*
X31340Y47837D01*
X31313Y47700D01*
X31340Y47563D01*
X31418Y47448D01*
X31533Y47370D01*
X31670Y47343D01*
X31807Y47370D01*
X31922Y47448D01*
X32000Y47563D01*
X32008Y47605D01*
X32025Y47616D01*
X32316Y47907D01*
X34209D01*
X34287Y47922D01*
X34353Y47966D01*
X35987Y49600D01*
X42164D01*
X43946Y47817D01*
Y46041D01*
X43962Y45963D01*
X44006Y45896D01*
X45162Y44741D01*
X45150Y44683D01*
X45180Y44537D01*
X45262Y44413D01*
X45386Y44330D01*
X45533Y44301D01*
X45679Y44330D01*
X45803Y44413D01*
X45886Y44537D01*
X45915Y44683D01*
X45886Y44829D01*
X45803Y44953D01*
X45679Y45036D01*
X45533Y45065D01*
X45434Y45046D01*
X44354Y46125D01*
Y47902D01*
X44354Y47902D01*
X44339Y47980D01*
X44294Y48046D01*
X44294Y48046D01*
X42393Y49948D01*
X42326Y49992D01*
X42248Y50007D01*
D02*
G37*
G36*
X48425Y47237D02*
X48191Y47190D01*
X47992Y47058D01*
X47860Y46859D01*
X47813Y46625D01*
Y46325D01*
X47860Y46091D01*
X47992Y45892D01*
X48191Y45760D01*
X48221Y45754D01*
Y45241D01*
X48237Y45163D01*
X48281Y45097D01*
X48879Y44499D01*
Y44367D01*
X48728D01*
Y43467D01*
X49438D01*
Y44367D01*
X49287D01*
Y44583D01*
X49287Y44583D01*
X49271Y44661D01*
X49227Y44727D01*
X49227Y44727D01*
X48629Y45325D01*
Y45754D01*
X48659Y45760D01*
X48858Y45892D01*
X48990Y46091D01*
X49037Y46325D01*
Y46625D01*
X48990Y46859D01*
X48858Y47058D01*
X48659Y47190D01*
X48425Y47237D01*
D02*
G37*
G36*
X48538Y44367D02*
X47828D01*
Y43467D01*
X47988D01*
Y43123D01*
X46873D01*
Y42727D01*
X46762D01*
Y42920D01*
X46002D01*
Y42210D01*
X46762D01*
Y42320D01*
X46873D01*
Y41923D01*
X48473D01*
Y43123D01*
X48396D01*
Y43467D01*
X48538D01*
Y44367D01*
D02*
G37*
G36*
X52031Y43106D02*
X51914Y43083D01*
X51815Y43016D01*
X51748Y42917D01*
X51725Y42800D01*
X51748Y42683D01*
X51815Y42584D01*
X51914Y42517D01*
X52031Y42494D01*
X52148Y42517D01*
X52247Y42584D01*
X52314Y42683D01*
X52337Y42800D01*
X52314Y42917D01*
X52247Y43016D01*
X52148Y43083D01*
X52031Y43106D01*
D02*
G37*
G36*
X52675Y41781D02*
X52558Y41758D01*
X52495Y41716D01*
X52425Y41699D01*
X52355Y41716D01*
X52292Y41758D01*
X52175Y41781D01*
X52058Y41758D01*
X51959Y41691D01*
X51892Y41592D01*
X51869Y41475D01*
X51892Y41358D01*
X51959Y41259D01*
X52058Y41192D01*
X52175Y41169D01*
X52292Y41192D01*
X52355Y41234D01*
X52425Y41251D01*
X52495Y41234D01*
X52558Y41192D01*
X52675Y41169D01*
X52792Y41192D01*
X52891Y41259D01*
X52958Y41358D01*
X52981Y41475D01*
X52958Y41592D01*
X52891Y41691D01*
X52792Y41758D01*
X52675Y41781D01*
D02*
G37*
G36*
X48473Y41223D02*
X46873D01*
Y40830D01*
X46750D01*
Y40930D01*
X45850D01*
Y40220D01*
X46750D01*
Y40320D01*
X46873D01*
Y40023D01*
X48473D01*
Y41223D01*
D02*
G37*
G36*
X49889Y40172D02*
X49772Y40149D01*
X49673Y40083D01*
X49574D01*
X49475Y40149D01*
X49358Y40172D01*
X49241Y40149D01*
X49141Y40083D01*
X49075Y39983D01*
X49052Y39866D01*
X49075Y39749D01*
X49141Y39650D01*
X49241Y39584D01*
X49358Y39560D01*
X49475Y39584D01*
X49574Y39650D01*
X49673D01*
X49772Y39584D01*
X49889Y39560D01*
X50006Y39584D01*
X50105Y39650D01*
X50172Y39749D01*
X50195Y39866D01*
X50172Y39983D01*
X50105Y40083D01*
X50006Y40149D01*
X49889Y40172D01*
D02*
G37*
G36*
X54436Y40383D02*
X54319Y40360D01*
X54220Y40293D01*
X54154Y40194D01*
X54130Y40077D01*
X54154Y39960D01*
X54220Y39861D01*
X54319Y39795D01*
X54436Y39771D01*
X54553Y39795D01*
X54653Y39861D01*
X54719Y39960D01*
X54742Y40077D01*
X54719Y40194D01*
X54653Y40293D01*
X54553Y40360D01*
X54436Y40383D01*
D02*
G37*
G36*
X55458Y40376D02*
X55341Y40353D01*
X55242Y40286D01*
X55176Y40187D01*
X55152Y40070D01*
X55176Y39953D01*
X55242Y39854D01*
X55341Y39787D01*
X55458Y39764D01*
X55575Y39787D01*
X55674Y39854D01*
X55741Y39953D01*
X55764Y40070D01*
X55741Y40187D01*
X55674Y40286D01*
X55575Y40353D01*
X55458Y40376D01*
D02*
G37*
G36*
X32235Y39887D02*
X32098Y39860D01*
X31983Y39782D01*
X31905Y39667D01*
X31878Y39530D01*
X31905Y39393D01*
X31983Y39278D01*
X32098Y39200D01*
X32235Y39173D01*
X32372Y39200D01*
X32487Y39278D01*
X32565Y39393D01*
X32592Y39530D01*
X32565Y39667D01*
X32487Y39782D01*
X32372Y39860D01*
X32235Y39887D01*
D02*
G37*
G36*
X58325Y39661D02*
X58208Y39638D01*
X58109Y39571D01*
X58042Y39472D01*
X58019Y39355D01*
X58042Y39238D01*
X58109Y39139D01*
X58208Y39072D01*
X58325Y39049D01*
X58442Y39072D01*
X58541Y39139D01*
X58608Y39238D01*
X58631Y39355D01*
X58608Y39472D01*
X58541Y39571D01*
X58442Y39638D01*
X58325Y39661D01*
D02*
G37*
G36*
X42252Y38667D02*
X42106Y38638D01*
X41982Y38555D01*
X41965Y38530D01*
X41865D01*
X41847Y38555D01*
X41723Y38638D01*
X41577Y38667D01*
X41431Y38638D01*
X41307Y38555D01*
X41224Y38431D01*
X41195Y38285D01*
X41224Y38139D01*
X41307Y38015D01*
X41355Y37983D01*
Y37862D01*
X41307Y37830D01*
X41224Y37706D01*
X41195Y37560D01*
X41224Y37414D01*
X41307Y37290D01*
X41431Y37207D01*
X41577Y37178D01*
X41723Y37207D01*
X41847Y37290D01*
X41865Y37315D01*
X41965D01*
X41982Y37290D01*
X42106Y37207D01*
X42252Y37178D01*
X42398Y37207D01*
X42522Y37290D01*
X42605Y37414D01*
X42634Y37560D01*
X42605Y37706D01*
X42522Y37830D01*
X42474Y37862D01*
Y37983D01*
X42522Y38015D01*
X42605Y38139D01*
X42634Y38285D01*
X42605Y38431D01*
X42522Y38555D01*
X42398Y38638D01*
X42252Y38667D01*
D02*
G37*
G36*
X45800Y38431D02*
X45683Y38408D01*
X45620Y38366D01*
X45550Y38349D01*
X45480Y38366D01*
X45417Y38408D01*
X45300Y38431D01*
X45183Y38408D01*
X45120Y38366D01*
X45050Y38349D01*
X44980Y38366D01*
X44917Y38408D01*
X44800Y38431D01*
X44683Y38408D01*
X44584Y38341D01*
X44517Y38242D01*
X44494Y38125D01*
X44517Y38008D01*
X44584Y37909D01*
X44683Y37842D01*
X44800Y37819D01*
X44917Y37842D01*
X44980Y37884D01*
X45050Y37901D01*
X45120Y37884D01*
X45183Y37842D01*
X45300Y37819D01*
X45417Y37842D01*
X45480Y37884D01*
X45550Y37901D01*
X45620Y37884D01*
X45683Y37842D01*
X45800Y37819D01*
X45917Y37842D01*
X46016Y37909D01*
X46083Y38008D01*
X46106Y38125D01*
X46083Y38242D01*
X46016Y38341D01*
X45917Y38408D01*
X45800Y38431D01*
D02*
G37*
G36*
X49475Y38860D02*
X49358Y38837D01*
X49258Y38770D01*
X49192Y38671D01*
X49169Y38554D01*
X49192Y38437D01*
X49258Y38338D01*
X49358Y38271D01*
X49475Y38248D01*
X49592Y38271D01*
X49691Y38338D01*
X49757Y38437D01*
X49781Y38554D01*
X49757Y38671D01*
X49691Y38770D01*
X49592Y38837D01*
X49475Y38860D01*
D02*
G37*
G36*
X27565Y38467D02*
X27428Y38440D01*
X27313Y38362D01*
X27235Y38247D01*
X27208Y38110D01*
X27235Y37973D01*
X27313Y37858D01*
X27428Y37780D01*
X27565Y37753D01*
X27702Y37780D01*
X27817Y37858D01*
X27895Y37973D01*
X27922Y38110D01*
X27895Y38247D01*
X27817Y38362D01*
X27702Y38440D01*
X27565Y38467D01*
D02*
G37*
G36*
X34635Y37907D02*
X34498Y37880D01*
X34383Y37802D01*
X34305Y37687D01*
X34278Y37550D01*
X34305Y37413D01*
X34358Y37335D01*
X34310Y37235D01*
X33117D01*
X32933Y37419D01*
X32947Y37490D01*
X32920Y37627D01*
X32842Y37742D01*
X32727Y37820D01*
X32590Y37847D01*
X32453Y37820D01*
X32338Y37742D01*
X32260Y37627D01*
X32233Y37490D01*
X32260Y37353D01*
X32338Y37238D01*
X32453Y37160D01*
X32590Y37133D01*
X32633Y37142D01*
X32888Y36887D01*
X32954Y36843D01*
X33032Y36827D01*
X36074D01*
X36912Y35989D01*
X36978Y35944D01*
X37056Y35929D01*
X42212D01*
X42298Y35871D01*
X42415Y35848D01*
X42532Y35871D01*
X42632Y35937D01*
X42698Y36037D01*
X42721Y36154D01*
X42698Y36271D01*
X42632Y36370D01*
X42532Y36436D01*
X42415Y36460D01*
X42298Y36436D01*
X42199Y36370D01*
X42177Y36337D01*
X37141D01*
X36302Y37175D01*
X36236Y37219D01*
X36158Y37235D01*
X34960D01*
X34912Y37335D01*
X34965Y37413D01*
X34992Y37550D01*
X34965Y37687D01*
X34887Y37802D01*
X34772Y37880D01*
X34635Y37907D01*
D02*
G37*
G36*
X46875Y37131D02*
X46758Y37108D01*
X46659Y37041D01*
X46650Y37028D01*
X46550D01*
X46541Y37041D01*
X46442Y37108D01*
X46325Y37131D01*
X46208Y37108D01*
X46109Y37041D01*
X46041D01*
X45942Y37108D01*
X45825Y37131D01*
X45708Y37108D01*
X45609Y37041D01*
X45542Y36942D01*
X45519Y36825D01*
X45542Y36708D01*
X45609Y36609D01*
X45708Y36542D01*
X45825Y36519D01*
X45942Y36542D01*
X46041Y36609D01*
X46109D01*
X46208Y36542D01*
X46325Y36519D01*
X46442Y36542D01*
X46541Y36609D01*
X46550Y36622D01*
X46650D01*
X46659Y36609D01*
X46758Y36542D01*
X46875Y36519D01*
X46992Y36542D01*
X47091Y36609D01*
X47158Y36708D01*
X47181Y36825D01*
X47158Y36942D01*
X47091Y37041D01*
X46992Y37108D01*
X46875Y37131D01*
D02*
G37*
G36*
X30960Y37737D02*
X30823Y37710D01*
X30708Y37632D01*
X30630Y37517D01*
X30603Y37380D01*
X30630Y37243D01*
X30708Y37128D01*
X30823Y37050D01*
X30960Y37023D01*
X31097Y37050D01*
X31212Y37128D01*
X31290Y37243D01*
X31317Y37380D01*
X31290Y37517D01*
X31212Y37632D01*
X31097Y37710D01*
X30960Y37737D01*
D02*
G37*
G36*
X26110Y37532D02*
X25973Y37505D01*
X25858Y37427D01*
X25780Y37312D01*
X25753Y37175D01*
X25780Y37038D01*
X25858Y36923D01*
X25915Y36884D01*
Y36764D01*
X25913Y36762D01*
X25835Y36647D01*
X25808Y36510D01*
X25835Y36373D01*
X25913Y36258D01*
X26028Y36180D01*
X26165Y36153D01*
X26302Y36180D01*
X26417Y36258D01*
X26495Y36373D01*
X26522Y36510D01*
X26495Y36647D01*
X26417Y36762D01*
X26360Y36801D01*
Y36921D01*
X26362Y36923D01*
X26440Y37038D01*
X26467Y37175D01*
X26440Y37312D01*
X26362Y37427D01*
X26247Y37505D01*
X26110Y37532D01*
D02*
G37*
G36*
X28300Y36817D02*
X28163Y36790D01*
X28048Y36713D01*
X27970Y36597D01*
X27943Y36460D01*
X27970Y36324D01*
X28048Y36208D01*
X28163Y36131D01*
X28300Y36104D01*
X28437Y36131D01*
X28552Y36208D01*
X28630Y36324D01*
X28657Y36460D01*
X28630Y36597D01*
X28552Y36713D01*
X28437Y36790D01*
X28300Y36817D01*
D02*
G37*
G36*
X49325Y36131D02*
X49208Y36108D01*
X49109Y36041D01*
X49042Y35942D01*
X49019Y35825D01*
X49042Y35708D01*
X49109Y35609D01*
X49208Y35542D01*
X49325Y35519D01*
X49442Y35542D01*
X49541Y35609D01*
X49608Y35708D01*
X49631Y35825D01*
X49608Y35942D01*
X49541Y36041D01*
X49442Y36108D01*
X49325Y36131D01*
D02*
G37*
G36*
X28240Y35937D02*
X28103Y35910D01*
X27988Y35832D01*
X27910Y35717D01*
X27883Y35580D01*
X27910Y35443D01*
X27988Y35328D01*
X28103Y35250D01*
X28240Y35223D01*
X28377Y35250D01*
X28492Y35328D01*
X28570Y35443D01*
X28597Y35580D01*
X28570Y35717D01*
X28492Y35832D01*
X28377Y35910D01*
X28240Y35937D01*
D02*
G37*
G36*
X109195Y41361D02*
X109058Y41334D01*
X108943Y41256D01*
X108865Y41141D01*
X108838Y41004D01*
X108865Y40867D01*
X108943Y40752D01*
X109058Y40674D01*
X109195Y40647D01*
X109332Y40674D01*
X109447Y40752D01*
X109525Y40867D01*
X109552Y41004D01*
X109525Y41141D01*
X109447Y41256D01*
X109332Y41334D01*
X109195Y41361D01*
D02*
G37*
G36*
X108203Y41336D02*
X108066Y41309D01*
X107950Y41231D01*
X107873Y41116D01*
X107846Y40979D01*
X107873Y40842D01*
X107950Y40727D01*
X108066Y40649D01*
X108203Y40622D01*
X108339Y40649D01*
X108455Y40727D01*
X108532Y40842D01*
X108560Y40979D01*
X108532Y41116D01*
X108455Y41231D01*
X108339Y41309D01*
X108203Y41336D01*
D02*
G37*
%LPD*%
D11*
X82768Y41726D02*
X83088Y41406D01*
X82768Y41726D02*
Y43000D01*
X82790Y43023D01*
X66100Y42225D02*
X66250Y42375D01*
X66299D01*
X65814Y41891D02*
X66100Y42176D01*
X65814Y41208D02*
Y41891D01*
X66100Y42176D02*
Y42225D01*
X66135Y43454D02*
Y43486D01*
X65800Y45915D02*
Y46410D01*
X66135Y43454D02*
X66300Y43289D01*
Y42975D02*
Y43289D01*
X65814Y41208D02*
X65844Y41178D01*
X65806Y40972D02*
X65844Y41010D01*
X65114Y45070D02*
X65352Y45308D01*
X65375D01*
X65085Y45070D02*
X65114D01*
X65375Y45308D02*
X65500Y45433D01*
X64900Y44885D02*
X65085Y45070D01*
X64910Y47299D02*
X65800Y46410D01*
X29093Y51228D02*
X30141Y52275D01*
X29080Y50763D02*
Y51228D01*
X59089Y46192D02*
X59431Y45850D01*
X59089Y46589D02*
X59375Y46875D01*
X59089Y46192D02*
Y46589D01*
X59431Y45850D02*
X59478D01*
X59441Y46334D02*
X59450Y46325D01*
X59441Y46616D02*
X59550Y46725D01*
X59441Y46334D02*
Y46616D01*
X59550Y46725D02*
X59575Y46750D01*
X43287Y35651D02*
Y37258D01*
X41626Y33989D02*
X43287Y35651D01*
X26279Y33989D02*
X41626D01*
X31898Y50778D02*
X43543D01*
X43740Y50580D02*
X43751D01*
X43543Y50778D02*
X43740Y50580D01*
X48314Y37526D02*
X48805Y38016D01*
X43287Y37258D02*
X43556Y37526D01*
X48314D01*
X48805Y38016D02*
Y38061D01*
X26618Y45920D02*
Y48572D01*
X26431Y45733D02*
X26618Y45920D01*
X26431Y39267D02*
Y45733D01*
X64988Y36395D02*
X65380Y36787D01*
X65608Y36821D02*
X65704Y36725D01*
X65380Y36787D02*
X65414Y36821D01*
X65608D01*
X65704Y36725D02*
X65775D01*
X23575Y34600D02*
X24400Y33775D01*
X37982D01*
X21490Y34694D02*
X21972Y35176D01*
X21490Y34610D02*
Y34694D01*
Y34610D02*
X21505Y34595D01*
Y33882D02*
Y34595D01*
X22500Y34097D02*
Y34600D01*
X22471Y34068D02*
X22500Y34097D01*
X54815Y35335D02*
X55083Y35603D01*
Y36219D01*
X49900Y34006D02*
X51228Y35335D01*
X54815D01*
X69733Y54412D02*
Y63865D01*
X63375Y48054D02*
X69733Y54412D01*
X65588Y68010D02*
X69733Y63865D01*
X70009Y54304D02*
Y64140D01*
X65899Y68250D02*
X70009Y64140D01*
X64910Y49206D02*
X70009Y54304D01*
X77880Y61562D02*
Y63320D01*
X43114Y68465D02*
X72735D01*
X28049Y53400D02*
X43114Y68465D01*
X72735D02*
X77880Y63320D01*
X28049Y50003D02*
Y53400D01*
X26618Y48572D02*
X28049Y50003D01*
X21972Y35176D02*
X25133Y38337D01*
X25501D02*
X26431Y39267D01*
X25133Y38337D02*
X25501D01*
X46487Y68010D02*
X65588D01*
X33493Y55016D02*
X46487Y68010D01*
X46115Y68250D02*
X65899D01*
X33099Y55234D02*
X46115Y68250D01*
X64910Y47299D02*
Y49206D01*
X63375Y46250D02*
Y48054D01*
X29780Y48403D02*
X30361D01*
X37330Y33553D02*
X38666Y32217D01*
X48438D02*
X49900Y33679D01*
X38666Y32217D02*
X48438D01*
X49900Y33679D02*
Y34006D01*
X25092Y35176D02*
X26279Y33989D01*
X48180Y32561D02*
X49475Y33855D01*
X39197Y32561D02*
X48180D01*
X29743Y50626D02*
X29785Y50583D01*
X29743Y50626D02*
Y51265D01*
X30361Y48403D02*
X30780Y48823D01*
Y49661D01*
X31898Y50778D01*
X30771Y52275D02*
X33099Y54603D01*
X30917Y51929D02*
X33493Y54505D01*
X37982Y33775D02*
X39197Y32561D01*
X28810Y50583D02*
X28900D01*
X29080Y50763D01*
X21972Y35176D02*
X25092D01*
X22405Y33882D02*
X22936D01*
X23265Y33553D01*
X37330D01*
X29743Y51265D02*
X30406Y51929D01*
X30141Y52275D02*
X30771D01*
X30406Y51929D02*
X30917D01*
X33099Y54603D02*
Y55234D01*
X33493Y54505D02*
Y55016D01*
X49475Y38554D02*
Y38632D01*
X57923Y42180D02*
X58177Y41926D01*
X58553D02*
X58999Y42371D01*
X58177Y41926D02*
X58553D01*
X58209Y42357D02*
X58334D01*
X57991Y42384D02*
X58183D01*
X58334Y42357D02*
X58391Y42300D01*
X58183Y42384D02*
X58209Y42357D01*
X57794Y42384D02*
X57991D01*
X57642Y42180D02*
X57923D01*
X58999Y42371D02*
X59286D01*
X59290Y42375D01*
X57286Y40849D02*
X57287Y40850D01*
X56899Y40849D02*
X57286D01*
X57287Y40850D02*
X57790D01*
X59375Y40950D02*
X59425Y40900D01*
X57792Y42385D02*
X57794Y42384D01*
X57635Y42575D02*
X57640Y42570D01*
X58111D01*
X58241Y42700D01*
X58250D01*
X58290Y42740D01*
X58875D01*
X57509Y43191D02*
X57742D01*
X57821Y43270D01*
X58003D01*
X58033Y43300D01*
X58348D01*
X63529Y36598D02*
Y36999D01*
Y36598D02*
X63714Y36413D01*
Y35984D02*
Y36413D01*
X64375Y36744D02*
Y37350D01*
X63973Y36342D02*
X64375Y36744D01*
X63973Y35994D02*
Y36342D01*
X64338Y35959D02*
X64438Y35858D01*
Y34135D02*
Y35850D01*
X64338Y36213D02*
X64375Y36250D01*
X64338Y35959D02*
Y36213D01*
X64438Y35850D02*
Y35858D01*
X64858Y34075D02*
Y35780D01*
X63587Y32717D02*
X64858Y33989D01*
Y34075D01*
X63587Y23818D02*
Y32717D01*
X64579Y33995D02*
X64658Y34075D01*
X63387Y32800D02*
X64579Y33992D01*
X63387Y23901D02*
Y32800D01*
X64579Y33992D02*
Y33995D01*
X64096Y34075D02*
X64248Y34227D01*
X62987Y32966D02*
X64096Y34075D01*
X64248Y34227D02*
Y35719D01*
X62987Y32683D02*
Y32966D01*
X62987Y24066D02*
Y32683D01*
X63973Y35994D02*
X64248Y35719D01*
X64379Y34075D02*
X64438Y34135D01*
X63187Y32883D02*
X64379Y34075D01*
X63187Y23983D02*
Y32883D01*
X64058Y34320D02*
Y35640D01*
X62787Y33049D02*
X63813Y34075D01*
X64058Y34320D01*
X62787Y24149D02*
Y33049D01*
X56314Y43463D02*
X57927D01*
X56233Y43812D02*
X57782D01*
X63714Y35984D02*
X64058Y35640D01*
X64658Y34075D02*
Y35887D01*
X64858Y35780D02*
X64988Y35909D01*
X64658Y35887D02*
X64798Y36026D01*
X64988Y35909D02*
Y36395D01*
X64798Y36474D02*
X64866Y36543D01*
X64798Y36026D02*
Y36474D01*
X64866Y36820D02*
X64875Y36829D01*
X64866Y36543D02*
Y36820D01*
X63529Y36999D02*
X64280Y37750D01*
X64800D01*
X58264Y43800D02*
X58850D01*
X57927Y43463D02*
X58264Y43800D01*
X52028Y42803D02*
X52031Y42800D01*
X58287Y40933D02*
X58858D01*
X61375Y48530D02*
X66363Y53518D01*
X61375Y46325D02*
Y48530D01*
X59478Y45850D02*
X60003Y45325D01*
X60375D01*
D13*
X83268Y43023D02*
X83310D01*
X82790D02*
X83268D01*
X64902Y43350D02*
X64903Y43350D01*
X64775Y43350D02*
X64902D01*
X64658Y43233D02*
X64775Y43350D01*
X64658Y43016D02*
Y43233D01*
X64908Y43242D02*
X65078Y43072D01*
X64908Y43242D02*
Y43345D01*
X65078Y42610D02*
Y43072D01*
X65274Y38648D02*
X65349Y38723D01*
X92428Y41929D02*
Y43276D01*
X92813Y43661D01*
X82271Y43023D02*
X82790D01*
X66009Y38875D02*
X66150D01*
X65750Y39000D02*
X65788Y38962D01*
X66150Y38875D02*
X66225Y38800D01*
X65922Y38962D02*
X66009Y38875D01*
X65788Y38962D02*
X65922D01*
X65040Y42572D02*
X65078Y42610D01*
X64625Y42983D02*
X65011Y42597D01*
X65036Y42572D01*
X65125Y41050D02*
X65355D01*
X64860Y46837D02*
X65378Y46319D01*
X66225Y38800D02*
X66398Y38973D01*
X66464D01*
X65599Y38260D02*
X65970D01*
X65349Y38510D02*
Y38573D01*
X65274Y38648D02*
X65349Y38573D01*
Y38510D02*
X65599Y38260D01*
X65530Y40075D02*
X66150Y39455D01*
Y39425D02*
X66225Y39350D01*
X66150Y39425D02*
Y39455D01*
X65250Y39848D02*
X65477Y40075D01*
X65530D01*
X65150Y39650D02*
Y39704D01*
X65250Y39804D02*
Y39848D01*
X65150Y39704D02*
X65250Y39804D01*
X65844Y41010D02*
Y41178D01*
X64840Y44796D02*
X64915Y44871D01*
X59325Y43408D02*
X59534Y43617D01*
Y43856D02*
Y43930D01*
Y43617D02*
Y43781D01*
X59325Y43400D02*
Y43408D01*
X59370Y43980D02*
X59484D01*
X59050Y44300D02*
X59370Y43980D01*
X59484D02*
X59534Y43930D01*
X58755Y45355D02*
X58775Y45375D01*
X59400D01*
X37056Y36133D02*
X42394D01*
X42415Y36154D01*
X48425Y45241D02*
Y46801D01*
Y45241D02*
X49083Y44583D01*
Y43917D02*
Y44583D01*
X47792Y42523D02*
X48192Y42923D01*
Y43796D01*
X47673Y42523D02*
X47792D01*
X47941Y39675D02*
X48116Y39500D01*
X46300Y39675D02*
X47941D01*
X48116Y39500D02*
X48158D01*
X46424Y42523D02*
X47673D01*
X46382Y42565D02*
X46424Y42523D01*
X36158Y37031D02*
X37056Y36133D01*
X33032Y37031D02*
X36158D01*
X32570Y37493D02*
X33032Y37031D01*
X61866Y43363D02*
X61941Y43438D01*
X61616Y42961D02*
X61866Y43211D01*
X60788Y43438D02*
X60814D01*
X61017Y42572D02*
X61135D01*
X61017D02*
Y42591D01*
X61060Y42405D02*
X61227Y42572D01*
X60923Y42405D02*
X61060D01*
X60913Y41657D02*
X61502D01*
X60507Y43028D02*
X60545Y42990D01*
X61502Y41657D02*
X62038D01*
X60840D02*
X60913D01*
X60915Y41655D01*
X60840Y41730D02*
X60913Y41657D01*
X61502D02*
X61551Y41706D01*
X61476Y41631D02*
X61502Y41657D01*
X60578Y42990D02*
X60599D01*
X60545D02*
X60578D01*
X32815Y41397D02*
X43097D01*
X35902Y49804D02*
X42248D01*
X44150Y47902D01*
X34209Y48111D02*
X35902Y49804D01*
X31645Y47700D02*
X31702Y47757D01*
X32229Y48111D02*
X34209D01*
X31876Y47757D02*
X32229Y48111D01*
X31702Y47757D02*
X31876D01*
X44150Y46041D02*
Y47902D01*
Y46041D02*
X45508Y44683D01*
X64548Y44408D02*
X64586Y44446D01*
X65375Y44000D02*
X65436Y43939D01*
X64239Y43997D02*
X64314Y44072D01*
X63156Y43924D02*
Y44240D01*
X62636Y44080D02*
Y44483D01*
X61302Y44062D02*
X61377Y43987D01*
X60726Y44075D02*
X60813Y43988D01*
X60173Y43895D02*
X60235Y43957D01*
X60340Y39635D02*
X60491Y39786D01*
X25123Y47875D02*
X25325Y47673D01*
X22394Y47875D02*
X25123D01*
X21979Y48290D02*
X22394Y47875D01*
X25325Y46975D02*
Y47673D01*
X31650Y47703D02*
X31707Y47761D01*
X31881D02*
X32234Y48114D01*
X31707Y47761D02*
X31881D01*
X18850Y48290D02*
X21979D01*
X59850Y41650D02*
X60346D01*
X60351Y41655D01*
X60813Y43988D02*
X60814D01*
X60248Y44139D02*
X60551Y44442D01*
X60235Y44124D02*
X60248Y44137D01*
X60235Y43957D02*
Y44124D01*
X60624Y44485D02*
X60726Y44383D01*
Y44075D02*
Y44383D01*
X60551Y44442D02*
X60558D01*
X60248Y44137D02*
Y44139D01*
X59902Y45948D02*
Y46829D01*
X60599Y42990D02*
X60699Y42890D01*
X60285Y43270D02*
X60328D01*
X60507Y43091D01*
X60725Y43375D02*
X60788Y43438D01*
X60578Y42990D02*
X60725Y43137D01*
X60699Y42890D02*
X60719D01*
X60173Y43345D02*
X60198Y43320D01*
X60235D02*
X60285Y43270D01*
X60625Y42107D02*
X60923Y42405D01*
X60725Y43137D02*
Y43375D01*
X60719Y42890D02*
X61017Y42591D01*
X60198Y43320D02*
X60235D01*
X60507Y43028D02*
Y43091D01*
X61302Y44062D02*
Y44274D01*
X61132Y44444D02*
X61302Y44274D01*
X61132Y44444D02*
Y44466D01*
X65476Y38726D02*
X65750Y39000D01*
X65349Y38723D02*
X65463D01*
X65466Y38726D01*
X65476D01*
X60625Y42100D02*
Y42107D01*
X61227Y42572D02*
X61616Y42961D01*
X61625Y42983D01*
X61455Y42572D02*
X61616Y42961D01*
X61866Y43211D02*
Y43363D01*
X61227Y42572D02*
X61455D01*
X61060Y42405D02*
X61623D01*
X64804Y44000D02*
X65375D01*
X63156Y44240D02*
X63328Y44412D01*
X63784Y43441D02*
X64284D01*
X63750Y43475D02*
X63784Y43441D01*
X64284D02*
X64300Y43425D01*
X62758Y43018D02*
X62843D01*
X63200Y43375D01*
X62720Y42980D02*
X62758Y43018D01*
X63275Y43300D02*
X63308D01*
X63200Y43375D02*
X63275Y43300D01*
X63308D02*
X63625Y42983D01*
Y42975D02*
Y42983D01*
Y42963D02*
Y42975D01*
X63675Y43088D02*
Y43400D01*
X63625Y42983D02*
Y43038D01*
X63675Y43400D02*
X63750Y43475D01*
X63625Y43038D02*
X63675Y43088D01*
X64300Y43425D02*
X64587Y43138D01*
X64625Y42983D02*
X64658Y43016D01*
X65036Y42572D02*
X65040D01*
X64055Y42610D02*
X64252D01*
X64017Y42572D02*
X64055Y42610D01*
X64252D02*
X64625Y42983D01*
X63625Y42975D02*
X64017Y42583D01*
X63237Y42575D02*
X63625Y42963D01*
X63169Y42575D02*
X63237D01*
X62720Y42980D02*
X62764D01*
X63169Y42575D01*
X62650Y43455D02*
X62685Y43420D01*
Y43015D02*
Y43420D01*
X64910Y45423D02*
X64915Y45421D01*
X64886Y45432D02*
X64910Y45423D01*
X64300Y45197D02*
X64305D01*
X62625Y44494D02*
X62636Y44483D01*
X62581Y44080D02*
X62636D01*
X65865Y43925D02*
X65886Y43946D01*
X65436Y43939D02*
X65851D01*
X65865Y43925D01*
X64800Y43996D02*
X64804Y44000D01*
X64400Y46837D02*
X64860D01*
X59942Y43153D02*
X60059Y43270D01*
X59942Y42839D02*
X60206Y42575D01*
X60059Y43270D02*
X60098D01*
X59942Y42839D02*
Y43153D01*
X80207Y58980D02*
Y61550D01*
X80195Y61562D02*
X80207Y61550D01*
X57825Y44912D02*
Y45100D01*
Y44912D02*
X57862Y44875D01*
X57375Y45550D02*
X57825Y45100D01*
X57862Y44875D02*
Y44894D01*
X57350Y44875D02*
X57862D01*
X56696Y44880D02*
X57345D01*
X58163Y45103D02*
Y45282D01*
X57862Y44894D02*
X57881Y44914D01*
X57974D02*
X58163Y45103D01*
X57881Y44914D02*
X57974D01*
X64579Y45324D02*
X64778D01*
X64886Y45432D01*
X64305Y45202D02*
X64579Y45324D01*
X64579D02*
X64579D01*
X64230Y45122D02*
Y45127D01*
X63900Y44825D02*
X63933D01*
X64230Y45127D02*
X64300Y45197D01*
X63933Y44825D02*
X64230Y45122D01*
X61551Y41706D02*
Y41972D01*
X61625Y42046D01*
Y42100D01*
X60719Y42062D02*
X60840Y41940D01*
X60625Y42100D02*
X60663Y42062D01*
X60840Y41730D02*
Y41940D01*
X60663Y42062D02*
X60719D01*
X61623Y42102D02*
Y42405D01*
X61455Y42572D02*
X61623Y42405D01*
Y42102D02*
X61625Y42100D01*
X74375Y56775D02*
X74425D01*
X74580Y56930D02*
Y57200D01*
X75080Y57700D02*
Y57725D01*
X75235Y57880D02*
X75260D01*
X74425Y56775D02*
X74580Y56930D01*
Y57200D02*
X75080Y57700D01*
Y57725D02*
X75235Y57880D01*
X58163Y45282D02*
X58216Y45334D01*
X55550Y38085D02*
X55662Y38198D01*
X56064D01*
X63600Y44059D02*
Y44195D01*
X63366Y44374D02*
X63421D01*
X63600Y44059D02*
X63675Y43984D01*
X63421Y44374D02*
X63600Y44195D01*
X63328Y44412D02*
X63366Y44374D01*
X64725Y44071D02*
Y44307D01*
Y44071D02*
X64800Y43996D01*
X64586Y44446D02*
X64725Y44307D01*
X64840Y44663D02*
Y44796D01*
X64586Y44446D02*
X64623D01*
X64840Y44663D01*
X64314Y44072D02*
Y44284D01*
X64437Y44408D02*
X64548D01*
X64314Y44284D02*
X64437Y44408D01*
X59534Y43781D02*
X59609Y43856D01*
X64607Y40125D02*
X64625Y40143D01*
X64607Y39247D02*
Y40125D01*
X64198Y39575D02*
Y39949D01*
X64111Y40036D02*
X64198Y39949D01*
X63714Y40036D02*
X64111D01*
X62038Y40737D02*
X62150Y40625D01*
X62038Y40737D02*
Y41107D01*
X60915Y40815D02*
X61092Y40638D01*
X60915Y40815D02*
Y41105D01*
X61092Y40638D02*
X61420D01*
X61476Y40694D01*
Y41081D01*
X60491Y39786D02*
Y40066D01*
X60525Y40100D01*
X60956Y39749D02*
Y40021D01*
X61092Y40157D02*
Y40638D01*
X60905Y39698D02*
X60956Y39749D01*
Y40021D02*
X61092Y40157D01*
X61542Y39699D02*
Y39952D01*
X61467Y39624D02*
X61542Y39699D01*
X61625Y40035D02*
Y40089D01*
X61542Y39952D02*
X61625Y40035D01*
X62150Y40075D02*
Y40625D01*
X62030Y39955D02*
X62150Y40075D01*
X62030Y39683D02*
Y39955D01*
X75425Y57145D02*
X75925D01*
X75260Y56980D02*
X75425Y57145D01*
X75925D02*
X76110Y56960D01*
Y56305D02*
Y56960D01*
X77027Y56407D02*
X77250Y56630D01*
X77027Y55505D02*
Y56407D01*
X81505Y55435D02*
X81858D01*
X82015Y55592D02*
Y56255D01*
X81858Y55435D02*
X82015Y55592D01*
X81475Y55405D02*
X81505Y55435D01*
X81615Y56655D02*
X82015Y56255D01*
X81325Y56655D02*
X81615D01*
X80885Y55998D02*
X81061Y56174D01*
X80885Y55550D02*
Y55998D01*
X80690Y55355D02*
X80885Y55550D01*
X80175Y55355D02*
X80690D01*
X80769Y57961D02*
X81075Y57655D01*
X80952Y58144D02*
Y58825D01*
X80769Y57961D02*
X80952Y58144D01*
Y58825D02*
X81107Y58980D01*
X81075Y57136D02*
Y57655D01*
X80171Y57961D02*
X80769D01*
X79682Y58455D02*
X80207Y58980D01*
X79125Y58455D02*
X79682D01*
X78375Y57705D02*
X79125Y58455D01*
X76615Y58074D02*
X76884Y57805D01*
X76615Y58074D02*
Y58580D01*
X76884Y57805D02*
X76975D01*
X76770Y59325D02*
X77008D01*
X77208Y59126D02*
X77529D01*
X76615Y59480D02*
X76770Y59325D01*
X77008D02*
X77208Y59126D01*
X77529D02*
X77575Y59080D01*
Y59864D01*
X78350Y59055D02*
Y59739D01*
X78475Y59864D01*
X57450Y46025D02*
X57675D01*
X57900Y45800D01*
X63775Y44950D02*
X63900Y44825D01*
X63400Y44950D02*
X63775D01*
X65433Y40972D02*
X65806D01*
X65355Y41050D02*
X65433Y40972D01*
X60098Y43270D02*
X60173Y43345D01*
X61452Y43201D02*
Y43362D01*
X61625Y42983D02*
Y43028D01*
X61452Y43201D02*
X61625Y43028D01*
X61377Y43437D02*
X61452Y43362D01*
X58223Y34723D02*
X58734D01*
X58875Y34864D01*
Y35625D01*
Y36331D01*
Y36825D01*
X65150Y39650D02*
X65274Y39526D01*
Y39198D02*
Y39526D01*
X59534Y43931D02*
X59609Y43856D01*
X57375Y46100D02*
X57450Y46025D01*
X56800Y46100D02*
X57375D01*
X56800Y46100D02*
X56800Y46100D01*
X56800Y45550D02*
X56800Y45550D01*
X57375D01*
D42*
X83778Y35604D02*
Y35682D01*
Y35554D02*
Y35604D01*
X76106Y39604D02*
X76497D01*
X75850Y39348D02*
X76106Y39604D01*
X76210Y39354D02*
X76394D01*
X75850Y38925D02*
Y39348D01*
X76100Y38822D02*
Y39244D01*
X76210Y39354D01*
X76497Y39604D02*
X77192Y38909D01*
X75845Y38567D02*
X76100Y38822D01*
X76450Y37942D02*
X76576D01*
X77470Y37789D02*
Y37789D01*
X76728Y37789D02*
X77470D01*
X76576Y37942D02*
X76728Y37789D01*
X76848Y38079D02*
X77590D01*
X77907Y37762D01*
X76574Y38353D02*
X76848Y38079D01*
X76452Y38353D02*
X76574D01*
X76598Y38739D02*
X76968Y38369D01*
X77710D01*
X76428Y38739D02*
X76598D01*
X77710Y38369D02*
X78028Y38051D01*
X77192Y38909D02*
X77934D01*
X76394Y39354D02*
X77089Y38659D01*
X77830D01*
X75965Y38277D02*
X76428Y38739D01*
X84803Y42178D02*
Y43529D01*
X81983Y46348D02*
X84803Y43529D01*
X67694Y46348D02*
X81983D01*
X68203Y46058D02*
X81863D01*
X84513Y43408D01*
Y42191D02*
Y43408D01*
X67944Y45768D02*
X81743D01*
X84200Y43311D01*
Y42005D02*
Y43311D01*
X83210Y43891D02*
X83763Y43338D01*
X83100Y43891D02*
X83210D01*
X83016Y43807D02*
X83100Y43891D01*
X83016Y43586D02*
Y43807D01*
X82748Y43534D02*
X82963D01*
X83016Y43586D01*
X83763Y41996D02*
Y43338D01*
X67350Y45239D02*
X67386D01*
X83763Y41996D02*
X84178Y41582D01*
X83763Y41996D02*
X83763D01*
X84370Y40953D02*
Y41835D01*
X84200Y42005D02*
X84370Y41835D01*
X96103Y51540D02*
X100744D01*
X102728Y49223D02*
Y49556D01*
X100744Y51540D02*
X102728Y49556D01*
X96223Y51250D02*
X100623D01*
X102378Y49187D02*
Y49496D01*
X100623Y51250D02*
X102378Y49496D01*
X96343Y50960D02*
X100503D01*
X102088Y48195D02*
Y49375D01*
X100503Y50960D02*
X102088Y49375D01*
X101762Y49066D02*
Y49291D01*
Y49066D02*
X101898Y48931D01*
X96463Y50670D02*
X100383D01*
X101762Y49291D01*
X102378Y49187D02*
X102878Y48687D01*
X103416Y46244D02*
X103486D01*
X103266Y46094D02*
X103416Y46244D01*
X103515Y45664D02*
X103727D01*
X103514Y45664D02*
X103515Y45664D01*
X99838Y43165D02*
X99945D01*
X98844Y44159D02*
X99838Y43165D01*
X99542Y45854D02*
X101658Y43738D01*
X102695D01*
X99741Y46334D02*
X101803Y44272D01*
X106085D01*
X109018Y45624D02*
X109228Y45834D01*
X108786Y45520D02*
X108890Y45624D01*
X106003Y45520D02*
X108786D01*
X109228Y45834D02*
Y45852D01*
X108890Y45624D02*
X109018D01*
X68325Y36274D02*
X69826D01*
X68183Y36032D02*
Y36132D01*
X68325Y36274D01*
X68183Y36032D02*
X68272Y35944D01*
X68203Y36564D02*
X69989D01*
X67790Y36473D02*
X68113D01*
X68203Y36564D01*
X86810Y37702D02*
X87221Y38112D01*
X82492Y39526D02*
X84316Y37702D01*
X82178Y35554D02*
X82378Y35354D01*
Y35198D02*
X82582Y34994D01*
X99803Y42729D02*
Y42790D01*
Y42672D02*
Y42729D01*
X82378Y35198D02*
Y35354D01*
X82001Y40084D02*
X82502D01*
X82978Y39608D01*
X82022Y39526D02*
X82492D01*
X81883Y39665D02*
Y39785D01*
Y39665D02*
X82022Y39526D01*
X105924Y44979D02*
X106853D01*
X81378Y39604D02*
X81781Y39201D01*
X82460D01*
X80173Y40005D02*
X80574Y39604D01*
X80049Y40005D02*
X80173D01*
X80578Y39121D02*
Y39604D01*
X79369Y40224D02*
X79831D01*
X80049Y40005D01*
X77389Y35271D02*
X77560Y35442D01*
X77117Y35271D02*
X77389D01*
X76721Y35667D02*
X77117Y35271D01*
X68130Y37144D02*
X69213D01*
X67713Y37170D02*
X68104D01*
X68130Y37144D01*
X67333Y37550D02*
X67713Y37170D01*
X67003Y37260D02*
X67790Y36473D01*
X66365Y37330D02*
X66405Y37290D01*
X66619D02*
X66649Y37260D01*
X67003D01*
X66405Y37290D02*
X66619D01*
X99003Y42729D02*
Y42877D01*
X98566Y43314D02*
X99003Y42877D01*
X99945Y43165D02*
X100208Y42903D01*
X96613Y44159D02*
X98844D01*
X101905Y44852D02*
X104145D01*
X104442Y45149D01*
X101852Y44562D02*
X104265D01*
X98178Y47529D02*
X98202Y47505D01*
X106328Y44029D02*
X106853D01*
X106085Y44272D02*
X106328Y44029D01*
X104265Y44562D02*
X104562Y44859D01*
X105804D02*
X105924Y44979D01*
X104562Y44859D02*
X105804D01*
X104442Y45149D02*
X105632D01*
X106003Y45520D01*
X103967Y45084D02*
X104322Y45439D01*
X105512D01*
X102183Y45374D02*
X103847D01*
X104202Y45729D01*
X105392D01*
X103727Y45664D02*
X104082Y46019D01*
X105271D01*
X103465Y45954D02*
X103606D01*
X103962Y46309D02*
X105151D01*
X103606Y45954D02*
X103962Y46309D01*
X103841Y46599D02*
X105031D01*
X103486Y46244D02*
X103841Y46599D01*
X102207Y47466D02*
Y47529D01*
X103721Y46889D02*
X104591D01*
X102148Y45084D02*
X103967D01*
X105512Y45439D02*
X106875Y46802D01*
X108678D01*
X108019Y47725D02*
X109628Y49334D01*
X107388Y47725D02*
X108019D01*
X105392Y45729D02*
X107388Y47725D01*
X107554Y48052D02*
X107816Y48314D01*
X107305Y48052D02*
X107554D01*
X105271Y46019D02*
X107305Y48052D01*
X109628Y49334D02*
Y49369D01*
X109713Y49454D01*
X107816Y48314D02*
Y48651D01*
X108107Y48942D01*
X110028Y48204D02*
X110053Y48179D01*
X71530Y41168D02*
Y42079D01*
X71780Y41271D02*
Y42182D01*
X71354Y42255D02*
X71530Y42079D01*
X69189Y42255D02*
X71354D01*
X71457Y42505D02*
X71780Y42182D01*
X69086Y42505D02*
X71457D01*
X103168Y48142D02*
Y48783D01*
X102728Y49223D02*
X103168Y48783D01*
X103151Y49426D02*
Y50275D01*
X103143Y49418D02*
X103151Y49426D01*
X102878Y48359D02*
Y48687D01*
X97688Y40869D02*
X98132Y40424D01*
Y39302D02*
Y40424D01*
X97688Y40869D02*
Y41636D01*
X98560Y40668D02*
X99078Y40150D01*
X98560Y40668D02*
Y41223D01*
X99078Y39302D02*
Y40150D01*
X100001Y39329D02*
Y39639D01*
Y39329D02*
X100028Y39302D01*
X98866Y40775D02*
X100001Y39639D01*
X98866Y40775D02*
Y41356D01*
X99178Y40933D02*
Y41454D01*
Y40933D02*
X100096Y40015D01*
X100175D02*
X100673Y39518D01*
X100096Y40015D02*
X100175D01*
X100362Y40305D02*
X100578Y40089D01*
X100216Y40305D02*
X100362D01*
X99513Y41009D02*
X100216Y40305D01*
X101045Y40089D02*
X101622Y39512D01*
X100578Y40089D02*
X101045D01*
X99513Y41009D02*
Y41544D01*
X100698Y40379D02*
X101038D01*
X99803Y41129D02*
Y41929D01*
Y41129D02*
X100336Y40595D01*
X100482D02*
X100698Y40379D01*
X100336Y40595D02*
X100482D01*
X81460Y40008D02*
X81659D01*
X81883Y39785D01*
X80978Y40107D02*
X81378Y39707D01*
X80978Y40107D02*
Y40575D01*
X81378Y39604D02*
Y39707D01*
X81188Y40662D02*
Y40809D01*
X81378Y40404D02*
Y40472D01*
X81188Y40662D02*
X81378Y40472D01*
X80967Y41031D02*
X81188Y40809D01*
X82178Y40807D02*
X83285D01*
X81691Y41294D02*
X82178Y40807D01*
X83285D02*
X83373Y40719D01*
X83550Y41004D02*
X83778Y40776D01*
X81908Y41371D02*
X82275Y41004D01*
X83550D01*
X83373Y40070D02*
X83778Y39665D01*
X83373Y40070D02*
Y40719D01*
X82978Y39566D02*
Y39604D01*
Y39566D02*
X83194Y39350D01*
Y39192D02*
Y39350D01*
X82125Y34857D02*
X82178Y34804D01*
X82059Y35181D02*
X82125Y35116D01*
X81776Y35412D02*
X82007Y35181D01*
X82059D01*
X82125Y34857D02*
Y35116D01*
X81776Y35412D02*
Y35889D01*
X82178Y33835D02*
Y34804D01*
X81378D02*
Y34871D01*
X80973Y35276D02*
Y35768D01*
X81378Y34458D02*
X81378Y34765D01*
X80973Y35276D02*
X81378Y34871D01*
X83579Y35881D02*
Y35953D01*
Y35881D02*
X83778Y35682D01*
X81896Y37636D02*
X83579Y35953D01*
X82978Y35604D02*
Y35705D01*
X81688Y37136D02*
X82821Y36004D01*
Y35862D02*
Y36004D01*
Y35862D02*
X82978Y35705D01*
X87752Y43189D02*
X96103Y51540D01*
X88063Y43090D02*
X96223Y51250D01*
X88380Y42997D02*
X96343Y50960D01*
X88688Y42895D02*
X96463Y50670D01*
X98486Y48125D02*
X99003Y47608D01*
X97383Y48125D02*
X98486D01*
X99003Y47529D02*
Y47608D01*
X98203Y46685D02*
X98796Y46092D01*
X98203Y46685D02*
Y46729D01*
X98796Y46092D02*
X99632D01*
X97773Y47158D02*
X98203Y46729D01*
X99205Y45029D02*
X101181Y43053D01*
X100764Y43126D02*
X101007Y42884D01*
X100700Y43124D02*
X100763D01*
X99085Y44739D02*
X100700Y43124D01*
X96373Y44739D02*
X99085D01*
X96945Y43261D02*
X97755D01*
X97809Y43314D01*
X98566D01*
X101007Y42559D02*
Y42884D01*
X101231Y42334D02*
X101348D01*
X101007Y42559D02*
X101231Y42334D01*
X100603Y42688D02*
X100817Y42474D01*
Y42346D02*
X100999Y42164D01*
X100817Y42346D02*
Y42474D01*
X100603Y42688D02*
Y42812D01*
X101403Y42729D02*
Y42756D01*
X101181Y42978D02*
Y43053D01*
Y42978D02*
X101403Y42756D01*
Y42729D02*
X102514Y41618D01*
X100208Y42565D02*
X100439Y42334D01*
X100547D02*
X100600Y42281D01*
Y41931D02*
Y42281D01*
X100439Y42334D02*
X100547D01*
X100603Y41863D02*
Y41929D01*
X99803Y42672D02*
X100198Y42277D01*
Y41775D02*
Y42277D01*
X98965Y44449D02*
X100603Y42812D01*
X102381Y45614D02*
X103464D01*
X101403Y46676D02*
X101608Y46471D01*
Y46387D02*
X102381Y45614D01*
X101403Y46676D02*
Y46729D01*
X101608Y46387D02*
Y46471D01*
X100998Y47375D02*
Y47694D01*
X101239Y47134D02*
X101306D01*
X101397Y47043D01*
X100998Y47375D02*
X101239Y47134D01*
X101397Y46735D02*
Y47043D01*
Y46735D02*
X101403Y46729D01*
X107015Y48411D02*
Y48634D01*
X108128Y49742D02*
X108268D01*
X107933Y49552D02*
X107938D01*
X107015Y48634D02*
X107933Y49552D01*
X107938D02*
X108128Y49742D01*
X108268D02*
X108373Y49847D01*
X106888Y48284D02*
X107015Y48411D01*
X106888Y48045D02*
Y48284D01*
X98636Y48458D02*
Y48686D01*
X97106Y48402D02*
X97383Y48125D01*
X96366Y48112D02*
X96930D01*
X101359Y47536D02*
X101658Y47237D01*
X98692Y49860D02*
X99365Y49187D01*
X96063Y49860D02*
X98692D01*
X96171Y49558D02*
X98584D01*
X99166Y48976D01*
X110276Y49954D02*
X110378D01*
X98473Y49259D02*
X98976Y48756D01*
X96282Y49259D02*
X98473D01*
X98359Y48962D02*
X98636Y48686D01*
X96396Y48962D02*
X98359D01*
X101359Y47536D02*
Y47607D01*
X100844Y48122D02*
X101359Y47607D01*
X99856Y48122D02*
X100844D01*
X100767Y47926D02*
X100998Y47694D01*
X100411Y47926D02*
X100767D01*
X101658Y47045D02*
X101798Y46905D01*
Y46549D02*
Y46905D01*
X101658Y47045D02*
Y47237D01*
X101803Y47368D02*
X101984Y47187D01*
Y46988D02*
Y47187D01*
Y46988D02*
X102203Y46769D01*
X101803Y47368D02*
Y48263D01*
X102203Y46672D02*
X102780Y46094D01*
X103266D01*
X102207Y47466D02*
X102601Y47071D01*
Y46572D02*
Y47071D01*
X100913Y40828D02*
Y41143D01*
X100521Y41534D02*
X100913Y41143D01*
X100198Y41775D02*
X100439Y41534D01*
X100521D01*
X102974Y40004D02*
X104010D01*
X103094Y40294D02*
X104222D01*
X102854Y40534D02*
X103094Y40294D01*
X67375Y41280D02*
Y41289D01*
Y40708D02*
Y41280D01*
X103214Y40584D02*
X104404D01*
X102973Y40825D02*
X103214Y40584D01*
X105655Y40276D02*
X106373Y39558D01*
X104712Y40276D02*
X105655D01*
X104404Y40584D02*
X104712Y40276D01*
X104599Y39918D02*
X105068D01*
X105423Y39563D01*
X104222Y40294D02*
X104599Y39918D01*
X100673Y39512D02*
X100883Y39302D01*
X100978D01*
X100673Y39512D02*
Y39518D01*
X101583Y40765D02*
Y41190D01*
X100999Y41774D02*
X101583Y41190D01*
X100999Y41774D02*
Y42164D01*
X100603Y41863D02*
X101203Y41263D01*
Y40855D02*
Y41263D01*
X99003Y41629D02*
X99178Y41454D01*
X98598Y42383D02*
X99003Y41978D01*
Y41629D02*
Y41978D01*
X99398Y41659D02*
Y42282D01*
X99070Y42609D02*
Y42689D01*
Y42609D02*
X99398Y42282D01*
X98598Y42383D02*
Y42893D01*
X98605Y41616D02*
Y42087D01*
X98275Y42329D02*
X98364D01*
X98605Y42087D01*
X96733Y43869D02*
X98724D01*
X99803Y42790D01*
X97239Y42324D02*
X97807D01*
X98201Y41929D01*
X96418Y41913D02*
X97183Y42678D01*
X98152D01*
X98203Y42729D01*
X102973Y40825D02*
Y41112D01*
X102757Y41328D02*
X102973Y41112D01*
X106273Y49742D02*
X106483Y49952D01*
X105918Y49332D02*
X106273Y49687D01*
X105918Y48603D02*
Y49332D01*
X106483Y49952D02*
X106578D01*
X106273Y49687D02*
Y49742D01*
X109713Y49454D02*
X109776D01*
X109428Y49952D02*
Y49954D01*
X108107Y48942D02*
X108556D01*
X109078Y49464D01*
Y49697D01*
X109333Y49952D01*
X109428D01*
X105151Y46309D02*
X106888Y48045D01*
X105031Y46599D02*
X106598Y48165D01*
X107223Y49742D02*
X107433Y49952D01*
X106598Y49099D02*
X107223Y49724D01*
X106598Y48165D02*
Y49099D01*
X107433Y49952D02*
X107528D01*
X107223Y49724D02*
Y49742D01*
X104591Y46889D02*
X105778Y48075D01*
Y48463D01*
X105918Y48603D01*
X105628Y49952D02*
Y49954D01*
Y48778D02*
Y49952D01*
X104476Y47184D02*
X105488Y48195D01*
Y48638D02*
X105628Y48778D01*
X103469Y47184D02*
X104476D01*
X105488Y48195D02*
Y48638D01*
X104411Y47529D02*
X105198Y48315D01*
Y48968D01*
X104853Y49313D02*
X105198Y48968D01*
X103003Y47529D02*
X104411D01*
X102088Y48195D02*
X102203Y48081D01*
Y47529D02*
Y48081D01*
X99639Y47602D02*
X99753Y47489D01*
X99639Y47602D02*
Y47740D01*
X99753Y47489D02*
X100562D01*
X100603Y47529D01*
X106653Y42129D02*
X106853D01*
X83939Y36655D02*
X85186D01*
X85671Y36171D01*
X85885D02*
X86259Y36545D01*
X87478D02*
X87808Y36874D01*
X86259Y36545D02*
X87478D01*
X85643Y34829D02*
X86817Y36003D01*
X87803D02*
X88149Y36350D01*
X85540Y35079D02*
X86714Y36253D01*
X87699D01*
X88046Y36600D01*
X86817Y36003D02*
X87803D01*
X85091Y35206D02*
X85218Y35079D01*
X85115Y34829D02*
X85643D01*
X84841Y35103D02*
X85115Y34829D01*
X85218Y35079D02*
X85540D01*
X85091Y35317D02*
X85378Y35604D01*
X85091Y35206D02*
Y35317D01*
X86280Y34694D02*
Y35044D01*
X86420Y35184D01*
X87941D01*
X86126Y34539D02*
X86280Y34694D01*
X84896Y34539D02*
X86126D01*
X84231Y35204D02*
X84896Y34539D01*
X84578Y35604D02*
X84841Y35341D01*
Y35103D02*
Y35341D01*
X84578Y35604D02*
X84843Y35870D01*
Y36026D01*
X85093Y35884D02*
Y36130D01*
Y35884D02*
X85373Y35604D01*
X82576Y35444D02*
X82899Y35121D01*
Y34882D02*
Y35121D01*
Y34882D02*
X82978Y34804D01*
X80943Y36236D02*
X81055Y36124D01*
X81131D01*
X81332Y35923D01*
Y35650D02*
Y35923D01*
Y35650D02*
X81378Y35604D01*
X69826Y36274D02*
X70009Y36091D01*
X68272Y35944D02*
X69742D01*
X69989Y36564D02*
X70173Y36380D01*
X68595Y40539D02*
Y40676D01*
X67879Y39822D02*
X68595Y40539D01*
X67879Y39790D02*
Y39822D01*
X67115Y40448D02*
X67375Y40708D01*
X94344Y33871D02*
Y35618D01*
X96998Y38272D01*
Y41516D01*
X94054Y35739D02*
X96708Y38392D01*
X94054Y33991D02*
Y35739D01*
X96708Y38392D02*
Y41793D01*
X93764Y34111D02*
Y35859D01*
X96418Y38512D02*
Y41913D01*
X93764Y35859D02*
X96418Y38512D01*
X93474Y34231D02*
Y35979D01*
X96128Y38632D02*
Y42033D01*
X93474Y35979D02*
X96128Y38632D01*
X95838Y38752D02*
Y42153D01*
X93184Y36099D02*
X95838Y38752D01*
X91329Y35548D02*
X92223D01*
X92223Y35548D01*
X95548Y38872D02*
Y42273D01*
X92223Y35548D02*
X95548Y38872D01*
X91209Y35838D02*
X92103D01*
X92103Y35838D01*
X91089Y36128D02*
X91983D01*
X91983Y36128D01*
X95258Y38993D02*
Y42393D01*
X92103Y35838D02*
X95258Y38993D01*
X91983Y36128D02*
X94968Y39113D01*
Y42513D01*
X90968Y36418D02*
X91862D01*
X91862Y36418D01*
X94678Y39233D02*
Y42633D01*
X91862Y36418D02*
X94678Y39233D01*
X90848Y36708D02*
X91742D01*
X91742Y36708D01*
X94388Y39353D02*
Y42754D01*
X91742Y36708D02*
X94388Y39353D01*
X90728Y36998D02*
X91622D01*
X91622Y36998D01*
X94098Y39473D02*
Y42874D01*
X91622Y36998D02*
X94098Y39473D01*
X90608Y37288D02*
X91502D01*
X91502Y37288D01*
X93808Y39593D02*
Y42994D01*
X91502Y37288D02*
X93808Y39593D01*
X90504Y37538D02*
X91399D01*
X91399Y37538D01*
X93558Y39697D02*
Y43097D01*
X91399Y37538D02*
X93558Y39697D01*
X90384Y37828D02*
X91278D01*
Y37828D02*
X93268Y39817D01*
Y43217D01*
X90139Y38116D02*
X91156D01*
X92978Y39937D02*
Y43338D01*
X91156Y38116D02*
X92978Y39937D01*
X96998Y41516D02*
X97403Y41921D01*
X96708Y41793D02*
X97239Y42324D01*
X96128Y42033D02*
X97063Y42968D01*
X95838Y42153D02*
X96945Y43261D01*
X79781Y34058D02*
X80331Y33507D01*
X80432D01*
X80973Y33400D02*
Y34043D01*
X82943Y31429D02*
X87932D01*
X80973Y33400D02*
X82943Y31429D01*
X81263Y33520D02*
Y34163D01*
X83064Y31719D02*
X87812D01*
X81263Y33520D02*
X83064Y31719D01*
X83184Y32009D02*
X87692D01*
X81553Y33640D02*
Y34283D01*
Y33640D02*
X83184Y32009D01*
X81843Y33760D02*
Y34403D01*
Y33760D02*
X83304Y32299D01*
X87572D01*
X82178Y33835D02*
X83424Y32589D01*
X87451D01*
X82582Y33841D02*
Y34994D01*
Y33841D02*
X83544Y32879D01*
X67769Y38460D02*
X68082D01*
X67372Y38857D02*
X67769Y38460D01*
X67372Y38857D02*
Y39271D01*
X68595Y40676D02*
X69471Y41552D01*
X70735D01*
X68506Y42468D02*
X68562D01*
X67880Y41842D02*
X68506Y42468D01*
X68224Y43770D02*
X68409Y43955D01*
X67875Y43770D02*
X68224D01*
X73293Y36511D02*
X73744D01*
X67935Y38853D02*
X68546Y39464D01*
X67935Y38804D02*
Y38805D01*
Y38853D01*
X79466Y36602D02*
X79628Y36439D01*
X81226D01*
X81776Y35889D01*
X83874Y36365D02*
X84858D01*
X85093Y36130D01*
X105180Y41604D02*
X105228D01*
X84755Y36115D02*
X84843Y36026D01*
X72663Y40954D02*
Y42112D01*
X72913Y42009D02*
X73019Y42115D01*
X74460D01*
X72913Y40850D02*
Y42009D01*
X72663Y42112D02*
X72915Y42365D01*
X74564D01*
X72589Y40526D02*
X72913Y40850D01*
X74564Y42365D02*
X74821Y42108D01*
X74571Y40672D02*
Y42004D01*
X74821Y40776D02*
Y42108D01*
X74460Y42115D02*
X74571Y42004D01*
Y40672D02*
X75115Y40128D01*
X74821Y40776D02*
X75365Y40231D01*
X87752Y42131D02*
Y43189D01*
X88063Y42145D02*
Y43090D01*
X88380Y42189D02*
Y42997D01*
X88688Y42220D02*
Y42895D01*
X88996Y42239D02*
Y42793D01*
X96063Y49860D01*
X89349Y42735D02*
X96171Y49558D01*
X89349Y41972D02*
Y42735D01*
X89698Y41904D02*
Y42674D01*
X96282Y49259D01*
X90173Y42739D02*
X96396Y48962D01*
X90173Y41190D02*
Y42739D01*
X90970Y41618D02*
Y43126D01*
X96246Y48402D02*
X97106D01*
X90970Y43126D02*
X96246Y48402D01*
X91449Y43195D02*
X96366Y48112D01*
X91449Y42100D02*
Y43195D01*
X91817Y41869D02*
Y43153D01*
X96487Y47822D02*
X96747D01*
X91817Y43153D02*
X96487Y47822D01*
X87542Y39719D02*
X88314Y40492D01*
Y41558D01*
X86948Y39719D02*
X87542D01*
X87422Y40009D02*
X88056Y40643D01*
X86795Y40009D02*
X87422D01*
X84578Y40404D02*
Y40746D01*
Y40364D02*
Y40404D01*
X87301Y40299D02*
X87838Y40836D01*
Y41648D01*
X86643Y40299D02*
X87301D01*
X84793Y39948D02*
Y40149D01*
X84578Y40364D02*
X84793Y40149D01*
Y39948D02*
X84975Y39765D01*
X85382Y39615D02*
X86356Y40589D01*
X87181D01*
X85375Y39616D02*
Y39634D01*
X84983Y40026D02*
Y40568D01*
Y40026D02*
X85375Y39634D01*
X84178Y40242D02*
X84306Y40114D01*
X84178Y40242D02*
Y41582D01*
X84370Y40953D02*
X84578Y40746D01*
X83080Y39999D02*
X83143D01*
X83376Y39766D01*
Y39447D02*
Y39766D01*
X82978Y40101D02*
X83080Y39999D01*
X83778Y39315D02*
Y39665D01*
X83995Y39946D02*
Y40186D01*
Y39946D02*
X84178Y39763D01*
Y39269D02*
Y39763D01*
X84368Y39862D02*
X84578Y39652D01*
Y39604D02*
Y39652D01*
X84368Y39862D02*
Y39865D01*
X84306Y39927D02*
X84368Y39865D01*
X84306Y39927D02*
Y40114D01*
X84983Y40568D02*
X85091Y40676D01*
X85381Y40404D02*
Y41599D01*
X84513Y42191D02*
X85166Y41537D01*
Y41206D02*
Y41537D01*
X85091Y41131D02*
X85166Y41206D01*
X85091Y40676D02*
Y41131D01*
X95931Y51884D02*
X100928D01*
X87347Y43300D02*
X95931Y51884D01*
X87354Y42317D02*
Y43294D01*
X87119Y43529D02*
X87354Y43294D01*
X85362Y43529D02*
X87119D01*
X100928Y51884D02*
X101610Y51202D01*
X87181Y40589D02*
X87591Y40998D01*
X66912Y41810D02*
X67068Y41966D01*
X66997Y45382D02*
X67715Y46100D01*
X66523Y41578D02*
Y41909D01*
Y41578D02*
X66872Y41230D01*
Y40750D02*
Y41230D01*
X83376Y39447D02*
X83528Y39295D01*
X84803Y42178D02*
X85381Y41599D01*
X66343Y44997D02*
X67694Y46348D01*
X68161Y46100D02*
X68203Y46058D01*
X67715Y46100D02*
X68161D01*
X68190Y45410D02*
X68258Y45478D01*
X81618D01*
X67558Y45410D02*
X68190D01*
X67386Y45239D02*
X67558Y45410D01*
X66997Y45266D02*
Y45382D01*
X66343Y43766D02*
Y44997D01*
X66622Y44891D02*
X66997Y45266D01*
X82656Y43625D02*
Y44135D01*
Y43625D02*
X82748Y43534D01*
X82764Y44242D02*
Y44332D01*
X81618Y45478D02*
X82764Y44332D01*
X82290Y43465D02*
X82366Y43542D01*
X81865Y43465D02*
X82290D01*
X82366Y43542D02*
Y44319D01*
X81757Y43756D02*
X81909D01*
X81989Y43837D02*
Y44221D01*
X81909Y43756D02*
X81989Y43837D01*
X81676Y43837D02*
X81757Y43756D01*
X81676Y43837D02*
Y44105D01*
X81305Y45170D02*
X81407Y45067D01*
X81701Y44509D02*
Y44640D01*
X81816Y44754D02*
X81931D01*
X81701Y44640D02*
X81816Y44754D01*
X81931D02*
X82366Y44319D01*
X81701Y44509D02*
X81989Y44221D01*
X81701Y41879D02*
X81701Y42384D01*
X81587Y43187D02*
X81865Y43465D01*
X81587Y42498D02*
X81701Y42384D01*
X81587Y42498D02*
Y43187D01*
X81407Y44374D02*
Y45067D01*
Y44374D02*
X81676Y44105D01*
X81117Y44254D02*
Y44764D01*
Y44254D02*
X81386Y43985D01*
X81002Y44880D02*
X81117Y44764D01*
X80827Y44134D02*
X81096Y43865D01*
X80827Y44134D02*
Y44460D01*
X80752Y44535D02*
X80827Y44460D01*
X81297Y42378D02*
X81386Y42289D01*
Y41921D02*
Y42289D01*
Y43452D02*
Y43985D01*
X81297Y43363D02*
X81386Y43452D01*
X81297Y42378D02*
Y43363D01*
X68297Y44880D02*
X81002D01*
X81096Y43727D02*
Y43865D01*
X80897Y43639D02*
X81008D01*
X81096Y43727D01*
X80291Y44245D02*
X80897Y43639D01*
X81007Y42381D02*
Y43117D01*
X80899Y42274D02*
X81007Y42381D01*
X80899Y42136D02*
Y42274D01*
X79985Y43903D02*
Y44171D01*
X80059Y44245D01*
X80291D01*
X68158Y44535D02*
X80752D01*
X68103Y44480D02*
X68158Y44535D01*
X80298Y43826D02*
X81007Y43117D01*
X80061Y43826D02*
X80298D01*
X79647Y43230D02*
Y44139D01*
X79540Y44245D02*
X79647Y44139D01*
X68278Y44245D02*
X79540D01*
X80177Y43536D02*
X80717Y42997D01*
Y42501D02*
Y42997D01*
X80277Y42061D02*
X80717Y42501D01*
X79965Y43328D02*
X80425Y42868D01*
X79965Y43452D02*
X80050Y43536D01*
X79965Y43328D02*
Y43452D01*
X80050Y43536D02*
X80177D01*
X79985Y43903D02*
X80061Y43826D01*
X80277Y41942D02*
X80393Y41825D01*
X80277Y41942D02*
Y42061D01*
X80425Y42676D02*
Y42868D01*
X80019Y42271D02*
X80425Y42676D01*
X79902Y42271D02*
X80019D01*
X79773Y42519D02*
X79995Y42741D01*
X68223Y44190D02*
X68278Y44245D01*
X81832Y40252D02*
X82001Y40084D01*
X98636Y48458D02*
X99405Y47689D01*
X100603Y46433D02*
Y46729D01*
X81176Y41210D02*
X81832Y40553D01*
X81176Y41210D02*
Y41219D01*
X89158Y40213D02*
X89270Y40325D01*
X100210Y47122D02*
X100603Y46729D01*
X66971Y43921D02*
X67509D01*
X89158Y39169D02*
Y40213D01*
X89941Y40959D02*
X90173Y41190D01*
X99405Y47220D02*
Y47689D01*
X99503Y47122D02*
X100210D01*
X79773Y42399D02*
X79902Y42271D01*
X79995Y42741D02*
Y42881D01*
X67719Y44131D02*
X67890D01*
X89558Y40959D02*
X89941D01*
X67890Y44131D02*
X67948Y44190D01*
X79773Y42399D02*
Y42519D01*
X81832Y40252D02*
Y40553D01*
X83194Y39192D02*
X84425Y37961D01*
X100709Y46327D02*
X100905D01*
X67948Y44190D02*
X68223D01*
X80393Y41825D02*
X80941D01*
X81173Y41593D01*
X86585Y37961D02*
X87028Y38404D01*
X88393D01*
X89158Y39169D01*
X89270Y40672D02*
X89558Y40959D01*
X99405Y47220D02*
X99503Y47122D01*
X79647Y43230D02*
X79995Y42881D01*
X67509Y43921D02*
X67719Y44131D01*
X81173Y41222D02*
Y41593D01*
Y41222D02*
X81176Y41219D01*
X84425Y37961D02*
X86585D01*
X89270Y40325D02*
Y40672D01*
X100603Y46433D02*
X100709Y46327D01*
X100905D02*
X102148Y45084D01*
X79357Y42538D02*
X79584Y42766D01*
X79357Y43110D02*
X79584Y42882D01*
Y42766D02*
Y42882D01*
X79357Y43110D02*
Y43883D01*
X79284Y43955D02*
X79357Y43883D01*
X79131Y43955D02*
X79284D01*
X79059Y43883D02*
X79131Y43955D01*
X79059Y42291D02*
Y43883D01*
X78766Y42022D02*
Y43880D01*
X78691Y43955D02*
X78766Y43880D01*
X68409Y43955D02*
X78691D01*
X78766Y42022D02*
X78940Y41848D01*
X79225D01*
X79357Y42405D02*
X79782Y41981D01*
X79916D02*
X79986Y41911D01*
X79782Y41981D02*
X79916D01*
X79765Y41590D02*
X79986Y41811D01*
Y41911D01*
X79357Y42405D02*
Y42538D01*
X79059Y42291D02*
X79316Y42034D01*
X77943Y42268D02*
X78062D01*
X78151Y41969D02*
Y42179D01*
X78062Y42268D02*
X78151Y42179D01*
X77806Y42130D02*
X77943Y42268D01*
X78221Y41899D02*
X78405D01*
X78476Y41970D01*
Y43568D01*
X78672Y41564D02*
X78814D01*
X78887Y41491D01*
Y41063D02*
Y41491D01*
X78597Y41074D02*
Y41489D01*
X78672Y41564D01*
X78379Y43665D02*
X78476Y43568D01*
X68529Y43665D02*
X78379D01*
X78151Y41969D02*
X78221Y41899D01*
X77806Y41669D02*
Y42130D01*
X78306Y41068D02*
Y41168D01*
X77806Y41669D02*
X78306Y41168D01*
X77516Y42260D02*
X78052Y42796D01*
X77516Y41548D02*
Y42260D01*
X78052Y42796D02*
Y43294D01*
X77971Y43375D02*
X78052Y43294D01*
X68649Y43375D02*
X77971D01*
X77223Y41388D02*
X77772Y40839D01*
X77931D01*
X78016Y40923D01*
X77516Y41548D02*
X78016Y41048D01*
Y40923D02*
Y41048D01*
X77223Y41388D02*
Y42417D01*
X76932Y42842D02*
X77111Y43021D01*
X76932Y41268D02*
Y42842D01*
Y41268D02*
X77800Y40400D01*
X76642Y41111D02*
Y42792D01*
Y41111D02*
X77664Y40090D01*
X76339Y41030D02*
Y42802D01*
X76022Y40899D02*
Y42657D01*
Y40899D02*
X77432Y39489D01*
X75732Y40779D02*
X77312Y39199D01*
X71530Y41168D02*
X72171Y40526D01*
X72589D01*
X71780Y41271D02*
X72275Y40776D01*
X72485D01*
X72663Y40954D01*
X68500Y41919D02*
X69086Y42505D01*
X75112Y40897D02*
X75178Y40831D01*
X75423Y40947D02*
Y42532D01*
X75307Y40831D02*
X75423Y40947D01*
X75178Y40831D02*
X75307D01*
X75423Y42532D02*
X75499Y42607D01*
X71929Y42795D02*
X72070Y42654D01*
Y41391D02*
Y42654D01*
X68889Y42795D02*
X71929D01*
X72373Y41413D02*
Y42636D01*
X72532Y42795D02*
X74776D01*
X72373Y42636D02*
X72532Y42795D01*
X72278Y41318D02*
X72373Y41413D01*
X72143Y41318D02*
X72278D01*
X72070Y41391D02*
X72143Y41318D01*
X66480Y43509D02*
X66731Y43258D01*
Y42117D02*
Y43258D01*
X66480Y43509D02*
Y43629D01*
X66523Y41909D02*
X66731Y42117D01*
X66343Y43766D02*
X66480Y43629D01*
X68546Y39670D02*
X69849Y40972D01*
X68546Y39464D02*
Y39670D01*
X68365Y38873D02*
X68836Y39344D01*
Y39503D01*
X70014Y40680D01*
X69126Y39383D02*
X70012Y40268D01*
X69126Y39224D02*
Y39383D01*
X68655Y38752D02*
X69126Y39224D01*
X69416Y39237D02*
X70072Y39893D01*
X68945Y38632D02*
X69416Y39104D01*
Y39237D01*
X70012Y40268D02*
X70379D01*
X68256Y39618D02*
Y39790D01*
X68068Y39430D02*
X68256Y39618D01*
Y39790D02*
X69728Y41262D01*
X68365Y38743D02*
Y38873D01*
X68082Y38460D02*
X68365Y38743D01*
X67520Y38170D02*
X68223D01*
X68655Y38602D01*
X66873Y38817D02*
X67520Y38170D01*
X67398Y37895D02*
X67813Y37480D01*
X68270D01*
X68317Y37434D01*
X68958D02*
X69055Y37531D01*
X68317Y37434D02*
X68958D01*
X69213Y37144D02*
X69371Y37302D01*
Y37580D01*
X66469Y38153D02*
Y38237D01*
X66769Y37550D02*
X67333D01*
X66912Y37895D02*
X67398D01*
X105198Y42504D02*
X105228D01*
X67960Y40831D02*
X67986D01*
X68750Y41241D02*
Y41816D01*
X67986Y40831D02*
X68500Y41345D01*
X67508Y40305D02*
X67688Y40486D01*
X68305Y40688D02*
Y40796D01*
X68750Y41241D01*
X67688Y40486D02*
X68103D01*
X68305Y40688D01*
X67460Y40305D02*
X67508D01*
X80381Y35556D02*
X80503Y35678D01*
X97403Y41785D02*
X97430D01*
X103008Y46723D02*
X103469Y47184D01*
X98203Y41580D02*
Y41929D01*
X98207Y42397D02*
X98275Y42329D01*
X98207Y42397D02*
Y42724D01*
X96253Y45029D02*
X96253D01*
Y45029D02*
X99205D01*
X100208Y42565D02*
Y42903D01*
X77907Y37762D02*
X79946D01*
X80322Y37386D01*
X77350Y37499D02*
X77667Y37182D01*
X76418Y37499D02*
X77350D01*
X76325Y37407D02*
X76418Y37499D01*
X77058Y37209D02*
X77230D01*
X76966Y37117D02*
X77058Y37209D01*
X77230D02*
X77547Y36892D01*
X77787Y37472D02*
X79826D01*
X77470Y37789D02*
X77787Y37472D01*
X77667Y37182D02*
X79706D01*
X77547Y36892D02*
X79586D01*
X71935Y35363D02*
X72029Y35270D01*
X72200D01*
X72292Y35362D01*
X72608Y35397D02*
X72735Y35270D01*
X73072D01*
X73169Y35367D01*
X70459Y36472D02*
Y37133D01*
X70527Y37201D02*
X70683D01*
X70459Y37133D02*
X70527Y37201D01*
X68084Y35653D02*
X69753D01*
X69827Y35728D02*
Y35858D01*
X69753Y35653D02*
X69827Y35728D01*
X69742Y35944D02*
X69827Y35858D01*
X70836Y38008D02*
X70999D01*
X70717Y37663D02*
Y37889D01*
X70836Y38008D01*
X70546Y37491D02*
X70717Y37663D01*
X67021Y42165D02*
X67068Y42118D01*
Y41966D02*
Y42118D01*
X66470Y37849D02*
Y38230D01*
X70023Y37647D02*
X70178Y37491D01*
X69848Y37647D02*
X70023D01*
X70178Y37491D02*
X70546D01*
X70072Y38281D02*
Y39012D01*
X69371Y37580D02*
X70072Y38281D01*
X71332Y36366D02*
Y37332D01*
X70489Y38298D02*
X71119D01*
X70391Y38395D02*
Y39025D01*
Y38395D02*
X70489Y38298D01*
X70165Y39106D02*
X70311D01*
X70072Y39012D02*
X70165Y39106D01*
X70311D02*
X70391Y39025D01*
X71119Y38298D02*
X71521Y37896D01*
X70277Y39550D02*
X70681Y39145D01*
X69782Y39193D02*
X70139Y39550D01*
X70277D01*
X70681Y38924D02*
Y39145D01*
X70926Y38680D02*
X71147D01*
X71330Y38496D01*
X70681Y38924D02*
X70926Y38680D01*
X71330Y38496D02*
X71792D01*
X69782Y38524D02*
Y39193D01*
X80578Y34438D02*
X80578Y34804D01*
X70344Y39893D02*
X70971Y39265D01*
X70072Y39893D02*
X70344D01*
X70379Y40268D02*
X71571Y39076D01*
X70014Y40680D02*
X70377D01*
X73129Y39366D02*
X73345Y39150D01*
X71691Y39366D02*
X73129D01*
X72452Y38059D02*
X72909Y37602D01*
X73566D01*
X77111Y43021D02*
X77284D01*
X77498Y42808D01*
X67976Y37809D02*
X68273D01*
X68945Y38481D01*
Y38632D01*
X67965Y36854D02*
X69882D01*
X69978Y36950D02*
Y37091D01*
X69731Y37338D02*
X69978Y37091D01*
X69882Y36854D02*
X69978Y36950D01*
X69731Y37530D02*
X69848Y37647D01*
X69731Y37338D02*
Y37530D01*
X71872Y37745D02*
Y38417D01*
X71792Y38496D02*
X71872Y38417D01*
X70462Y35415D02*
X70897Y34980D01*
X73731D02*
X73872Y35121D01*
X70897Y34980D02*
X73731D01*
X71872Y37745D02*
X72362Y37255D01*
Y37093D02*
Y37255D01*
X72162Y37907D02*
X72760Y37309D01*
X79225Y41848D02*
X79316Y41940D01*
X67528Y46668D02*
X82224D01*
X66780Y45920D02*
X67528Y46668D01*
X101798Y46549D02*
X102493Y45854D01*
X82284Y40404D02*
X82978D01*
X99003Y46729D02*
Y47042D01*
X98988Y46744D02*
X99003Y46729D01*
X98839Y47134D02*
X98911D01*
X98598Y47375D02*
X98839Y47134D01*
X98911D02*
X99003Y47042D01*
X98203Y47196D02*
Y47529D01*
X98269Y47129D02*
X98434D01*
X98203Y47196D02*
X98269Y47129D01*
X98434D02*
X98608Y46955D01*
X103003Y47976D02*
X103168Y48142D01*
X103003Y47529D02*
Y47976D01*
X102713Y48004D02*
Y48194D01*
X102598Y47889D02*
X102713Y48004D01*
Y48194D02*
X102878Y48359D01*
X83781Y40400D02*
X83995Y40186D01*
X85764Y40404D02*
X86239Y40879D01*
X85381Y40404D02*
X85764D01*
X86239Y40879D02*
X87061D01*
X85378Y40404D02*
X85381D01*
X102223Y51202D02*
X103151Y50275D01*
X101610Y51202D02*
X102223D01*
X92684Y32210D02*
X94344Y33871D01*
X92564Y32500D02*
X94054Y33991D01*
X92443Y32790D02*
X93764Y34111D01*
X92366Y33123D02*
X93474Y34231D01*
X92246Y33413D02*
X93184Y34351D01*
Y36099D01*
X89123Y32210D02*
X92684D01*
X82800Y31139D02*
X88052D01*
X80432Y33507D02*
X82800Y31139D01*
X88052D02*
X89123Y32210D01*
X89003Y32500D02*
X92564D01*
X87932Y31429D02*
X89003Y32500D01*
X87812Y31719D02*
X88883Y32790D01*
X92443D01*
X87692Y32009D02*
X88806Y33123D01*
X92366D01*
X87572Y32299D02*
X88686Y33413D01*
X92246D01*
X67807Y45170D02*
X81305D01*
X78380Y40995D02*
X78518D01*
X68769Y43085D02*
X75595D01*
X69728Y41262D02*
X70615D01*
X71931Y39946D01*
X69849Y40972D02*
X70495D01*
X70173Y36380D02*
X70367D01*
X70009Y36091D02*
X70378D01*
X70462Y36007D01*
X79781Y34058D02*
Y34800D01*
X76000Y36827D02*
X77202D01*
X81386Y41921D02*
X81691Y41617D01*
X81701Y41879D02*
X81908Y41672D01*
X81443Y41245D02*
Y41593D01*
X81691Y41294D02*
Y41617D01*
X81908Y41371D02*
Y41672D01*
X80899Y42136D02*
X81443Y41593D01*
X79866Y41031D02*
X80967D01*
X79693Y39779D02*
X80103Y39369D01*
X80617Y40072D02*
Y40355D01*
Y40072D02*
X80690Y39999D01*
X81378Y40090D02*
Y40403D01*
Y40090D02*
X81460Y40008D01*
X80749Y40804D02*
X80978Y40575D01*
X80978Y39304D02*
Y39763D01*
X80741Y39999D02*
X80978Y39763D01*
Y39304D02*
X81331Y38951D01*
X79765Y41132D02*
X79866Y41031D01*
X79765Y41132D02*
Y41590D01*
X79540Y40804D02*
X80749D01*
X80068Y40396D02*
X80570D01*
X79249Y40514D02*
X79951D01*
X80068Y40396D01*
X80570D02*
X80578Y40404D01*
X80103Y39174D02*
Y39369D01*
X80690Y39999D02*
X80741D01*
X79653Y39779D02*
X79693D01*
X79327D02*
X79653D01*
X74070Y36998D02*
X74306Y36762D01*
X73770Y36801D02*
X73967Y36998D01*
X73879Y37505D02*
X73974D01*
X73967Y36998D02*
X74070D01*
X73974Y37505D02*
X74666Y36812D01*
X75252Y38277D02*
X75965D01*
X75132Y37987D02*
X76085D01*
X75012Y37697D02*
X76205D01*
X74892Y37407D02*
X76325D01*
X76085Y37987D02*
X76211Y38112D01*
X76205Y37697D02*
X76450Y37942D01*
X74772Y37117D02*
X76446D01*
X76725Y37209D02*
X76817Y37117D01*
X76538Y37209D02*
X76725D01*
X76817Y37117D02*
X76966D01*
X76446D02*
X76538Y37209D01*
X74535Y38584D02*
X75132Y37987D01*
X74245Y38463D02*
X75012Y37697D01*
X73665Y38223D02*
Y38228D01*
X74825Y38704D02*
X75252Y38277D01*
X75741Y38817D02*
X75850Y38925D01*
X75476Y38817D02*
X75741D01*
X75365Y38927D02*
X75476Y38817D01*
X76211Y38112D02*
X76452Y38353D01*
X73315Y37309D02*
X73533Y37091D01*
X73752Y37378D02*
X73879Y37505D01*
X73658Y37694D02*
Y37807D01*
X73752Y37194D02*
Y37378D01*
X73533Y37091D02*
X73650D01*
X73665Y38223D02*
X74772Y37117D01*
X73566Y37602D02*
X73658Y37694D01*
X73638Y37825D02*
X73658Y37807D01*
X73550Y37913D02*
X73638Y37825D01*
X73650Y37091D02*
X73752Y37194D01*
X73955Y38343D02*
X74892Y37407D01*
X73381Y39678D02*
X73593Y39890D01*
X73381Y39560D02*
X73639Y39301D01*
X73593Y39890D02*
X73712D01*
X73381Y39560D02*
Y39678D01*
X73712Y39890D02*
X73955Y39647D01*
X73639Y38588D02*
Y39301D01*
X73569Y38518D02*
X73639Y38588D01*
X74535Y38584D02*
Y39888D01*
X73345Y38598D02*
Y39150D01*
X74245Y38463D02*
Y39767D01*
X73345Y38598D02*
X73425Y38518D01*
X73569D01*
X73955Y39647D02*
Y39647D01*
Y38343D02*
Y39647D01*
X74825Y38704D02*
Y40008D01*
X75365Y38927D02*
Y40231D01*
X75115Y38824D02*
Y40128D01*
X75372Y38567D02*
X75845D01*
X75115Y38824D02*
X75372Y38567D01*
X74278Y40555D02*
X74825Y40008D01*
X75112Y40897D02*
Y42458D01*
X74776Y42795D02*
X75112Y42458D01*
X73493Y40610D02*
Y41376D01*
X74159Y41825D02*
X74278Y41705D01*
X73493Y41376D02*
X73571Y41453D01*
X73598Y40305D02*
X73708D01*
X73988Y40435D02*
Y41386D01*
X73708Y40305D02*
X74245Y39767D01*
X73988Y40435D02*
X74535Y39888D01*
X73571Y41453D02*
X73921D01*
X74278Y40555D02*
Y41705D01*
X73921Y41453D02*
X73988Y41386D01*
X74306Y36655D02*
Y36762D01*
X74208Y36556D02*
X74306Y36655D01*
X75013Y36628D02*
Y36760D01*
X74733Y36571D02*
X74956D01*
X74666Y36638D02*
X74733Y36571D01*
X74956D02*
X75013Y36628D01*
X74208Y36457D02*
Y36556D01*
X73413Y36801D02*
X73770D01*
X76410Y35957D02*
X76841D01*
X73986Y35820D02*
X74104Y35701D01*
X76155D01*
X76410Y35957D01*
X73798Y35458D02*
X73938D01*
X73984Y35411D01*
X76531Y35667D02*
X76721D01*
X76841Y35957D02*
X77067Y35732D01*
X73752Y35820D02*
X73986D01*
X76275Y35411D02*
X76531Y35667D01*
X75476Y36634D02*
Y36734D01*
Y36634D02*
X75539Y36571D01*
X75745D01*
X75392Y36818D02*
X75476Y36734D01*
X75013Y36760D02*
X75070Y36818D01*
X77202Y36827D02*
X77427Y36602D01*
X74666Y36638D02*
Y36812D01*
X75070Y36818D02*
X75392D01*
X75745Y36571D02*
X76000Y36827D01*
X75865Y36281D02*
X76120Y36537D01*
X77082D02*
X77307Y36312D01*
X76290Y36247D02*
X76962D01*
X76035Y35991D02*
X76035Y35991D01*
X76962Y36247D02*
X77187Y36022D01*
X76035Y35991D02*
X76290Y36247D01*
X76120Y36537D02*
X77082D01*
X73463Y35363D02*
Y35699D01*
X73689Y35883D02*
Y36156D01*
X73624Y36221D02*
X73689Y36156D01*
X73689Y36156D02*
X73689Y36156D01*
X73689Y36156D01*
X73530Y35295D02*
X73636D01*
X73689Y35883D02*
X73752Y35820D01*
X73463Y35363D02*
X73530Y35295D01*
X73636D02*
X73798Y35458D01*
X73689Y36156D02*
Y36156D01*
X76395Y35121D02*
X76565Y35291D01*
X73984Y35411D02*
X76275D01*
X73872Y35121D02*
X76395D01*
X76565Y35291D02*
X76687D01*
X76997Y34981D01*
X74208Y36457D02*
X74384Y36281D01*
X74264Y35991D02*
X76035D01*
X73744Y36511D02*
X74264Y35991D01*
X74384Y36281D02*
X75865D01*
X76339Y42802D02*
X76435Y42897D01*
X76537D01*
X76642Y42792D01*
X77498Y42692D02*
Y42808D01*
X77223Y42417D02*
X77498Y42692D01*
X75595Y43085D02*
X76022Y42657D01*
X75499Y42607D02*
X75646D01*
X75732Y42521D01*
Y40779D02*
Y42521D01*
X77959Y40400D02*
X78238Y40680D01*
X80741Y35999D02*
X80973Y35768D01*
X80633Y35199D02*
X80741D01*
X80578Y35254D02*
Y35604D01*
X81378Y35283D02*
Y35595D01*
X80578Y35254D02*
X80633Y35199D01*
X79835Y36643D02*
X81475D01*
X80014Y36874D02*
X81597D01*
X80053Y36136D02*
X80153Y36236D01*
X79586Y36892D02*
X79835Y36643D01*
X79706Y37182D02*
X80014Y36874D01*
X79474Y36136D02*
X80053D01*
X81541Y35199D02*
X81773Y34968D01*
X81378Y35283D02*
X81462Y35199D01*
X81541D01*
X79233Y34804D02*
X79778D01*
X80109Y35266D02*
X80571Y34804D01*
X80578D02*
X80596Y34785D01*
X78937Y35442D02*
X79113Y35266D01*
X80109D01*
X80571Y34804D02*
X80578D01*
X79056Y34981D02*
X79233Y34804D01*
X80162Y37136D02*
X81688D01*
X80617Y37912D02*
X81974D01*
X79826Y37472D02*
X80162Y37136D01*
X78028Y38051D02*
X80066D01*
X80322Y37386D02*
X81792D01*
X80066Y38051D02*
X80482Y37636D01*
X81896D01*
X77934Y38909D02*
X78251Y38591D01*
X77187Y36022D02*
X79178D01*
X77427Y36602D02*
X79466D01*
X77307Y36312D02*
X79298D01*
X79474Y36136D01*
X79178Y36022D02*
X79353Y35846D01*
X77830Y38659D02*
X78148Y38341D01*
X78984Y38932D02*
X79113D01*
X80187Y38341D02*
X80617Y37912D01*
X80578Y39121D02*
X81000Y38699D01*
X80103Y39174D02*
X80825Y38451D01*
X80290Y38591D02*
X80720Y38162D01*
X78148Y38341D02*
X80187D01*
X78251Y38591D02*
X80290D01*
X78906Y39011D02*
X78984Y38932D01*
X79113D02*
X79225Y39044D01*
X80153Y36236D02*
X80943D01*
X80261Y35846D02*
X80414Y35999D01*
X80741D01*
X80503Y35678D02*
X80578Y35604D01*
X80741Y35199D02*
X80977Y34963D01*
X79353Y35846D02*
X80261D01*
X79233Y35556D02*
X80381D01*
X77067Y35732D02*
X79057D01*
X79233Y35556D01*
X78370Y35442D02*
X78538Y35273D01*
X76997Y34981D02*
X79056D01*
X77742Y35442D02*
X77910Y35273D01*
X78538D02*
X78665D01*
X78062D02*
X78230Y35442D01*
X77910Y35273D02*
X78062D01*
X78230Y35442D02*
X78370D01*
X78665Y35273D02*
X78834Y35442D01*
X77560D02*
X77742D01*
X78834D02*
X78937D01*
X76339Y41030D02*
X77568Y39802D01*
X77664Y40090D02*
X78058D01*
X77800Y40400D02*
X77959D01*
X77568Y39802D02*
X77723D01*
X77312Y39199D02*
X78113D01*
X77432Y39489D02*
X77720D01*
X77723Y39802D02*
X77812Y39713D01*
X78102Y39563D02*
Y39722D01*
X77812Y39581D02*
Y39713D01*
X77720Y39489D02*
X77812Y39581D01*
X78306Y41068D02*
X78380Y40995D01*
X78238Y40680D02*
X78717D01*
X78359Y40390D02*
X78593D01*
X78518Y40995D02*
X78597Y41074D01*
X78058Y40090D02*
X78359Y40390D01*
X79316Y41940D02*
Y42034D01*
X79179Y41058D02*
Y41490D01*
X79248Y41558D02*
X79403D01*
X79475Y40868D02*
Y41486D01*
X79403Y41558D02*
X79475Y41486D01*
X79179Y41490D02*
X79248Y41558D01*
X79113Y40991D02*
X79179Y41058D01*
X78879Y40105D02*
X79250D01*
X78717Y40680D02*
X79002Y40395D01*
X79130D01*
X78887Y41063D02*
X78958Y40991D01*
X79475Y40868D02*
X79540Y40804D01*
X78958Y40991D02*
X79113D01*
X79225Y39677D02*
X79327Y39779D01*
X79225Y39044D02*
Y39677D01*
X79250Y40105D02*
X79369Y40224D01*
X78593Y40390D02*
X78879Y40105D01*
X79130Y40395D02*
X79249Y40514D01*
X78906Y39011D02*
Y39668D01*
X78536Y40037D02*
X78906Y39668D01*
X78594Y39064D02*
Y39562D01*
X78309Y39497D02*
X78450Y39638D01*
X78468Y38938D02*
X78594Y39064D01*
X78518Y39638D02*
X78594Y39562D01*
X78417Y40037D02*
X78536D01*
X78375Y38938D02*
X78468D01*
X78102Y39722D02*
X78417Y40037D01*
X78102Y39563D02*
X78168Y39497D01*
X78113Y39200D02*
X78375Y38938D01*
X78450Y39638D02*
X78518D01*
X78168Y39497D02*
X78309D01*
X101742Y43982D02*
X105573D01*
X102804Y43629D02*
X103578D01*
X104023Y43184D02*
X105598D01*
X103578Y43629D02*
X104023Y43184D01*
X102695Y43738D02*
X102804Y43629D01*
X101038Y40379D02*
X101609Y39809D01*
X101203Y40855D02*
X101763Y40294D01*
X100913Y40828D02*
X101737Y40004D01*
X100603Y47204D02*
X100683Y47124D01*
X100766D01*
X100603Y47204D02*
Y47529D01*
X100264Y47779D02*
X100411Y47926D01*
X100998Y46559D02*
Y46893D01*
X100766Y47124D02*
X100998Y46893D01*
X99166Y48487D02*
Y48976D01*
X98976Y48409D02*
Y48756D01*
X99365Y48614D02*
Y49187D01*
X98327Y45854D02*
X99542D01*
X98823Y46334D02*
X99741D01*
X99723Y46574D02*
X99840D01*
X99568Y46729D02*
X99723Y46574D01*
X99028Y46729D02*
X99568D01*
X97781Y47529D02*
X98178D01*
X97582Y47158D02*
X97773D01*
X97114Y47299D02*
X97441D01*
X97582Y47158D01*
X98178Y47529D02*
X98203D01*
X99875Y47779D02*
X100264D01*
X99405Y46920D02*
X99836D01*
X99205Y47120D02*
X99405Y46920D01*
X99205Y47120D02*
Y47325D01*
X98608Y46549D02*
Y46955D01*
Y46549D02*
X98823Y46334D01*
X96960Y47609D02*
X97701D01*
X97781Y47529D01*
X98598Y47375D02*
Y47694D01*
X98367Y47925D02*
X98598Y47694D01*
X97117Y47925D02*
X98367D01*
X99003Y47527D02*
X99205Y47325D01*
X98990Y48389D02*
Y48394D01*
X99365Y48614D02*
X99856Y48122D01*
X98976Y48409D02*
X98990Y48394D01*
X99166Y48487D02*
X99875Y47779D01*
X98990Y48389D02*
X99639Y47740D01*
X96883Y47068D02*
X97114Y47299D01*
X97278Y46903D02*
X98327Y45854D01*
X96133Y45319D02*
X99289D01*
X95909Y45859D02*
X96233D01*
X95789Y46149D02*
X96113D01*
X96883Y46919D02*
Y47068D01*
X96747Y47822D02*
X96960Y47609D01*
X96930Y48112D02*
X97117Y47925D01*
X89740Y38925D02*
Y39945D01*
X90583Y38968D02*
X90653Y39038D01*
X89796Y38409D02*
X90341D01*
X90653Y39038D02*
Y40029D01*
X89910Y35769D02*
X90848Y36708D01*
X89790Y36059D02*
X90728Y36998D01*
X89670Y36350D02*
X90608Y37288D01*
X90341Y38409D02*
X90583Y38650D01*
Y38968D01*
X96113Y46149D02*
X96883Y46919D01*
X96493Y44449D02*
X98965D01*
X99289Y45319D02*
X101360Y43248D01*
X98039Y43124D02*
X98366D01*
X98598Y42893D01*
X98711Y43579D02*
X99398Y42893D01*
X98203Y41580D02*
X98560Y41223D01*
X96854Y43579D02*
X98711D01*
X99392Y45569D02*
X101463Y43498D01*
X96029Y45569D02*
X99392D01*
X99840Y46574D02*
X101852Y44562D01*
X99836Y46920D02*
X101905Y44852D01*
X99632Y46092D02*
X101742Y43982D01*
X96233Y45859D02*
X97278Y46904D01*
X98605Y41616D02*
X98866Y41356D01*
X97403Y41921D02*
X97688Y41636D01*
X97403Y41921D02*
Y41929D01*
X97883Y42968D02*
X98039Y43124D01*
X97063Y42968D02*
X97883D01*
X94968Y42513D02*
X96613Y44159D01*
X95258Y42393D02*
X96733Y43869D01*
X95548Y42273D02*
X96854Y43579D01*
X94678Y42633D02*
X96493Y44449D01*
X105423Y39512D02*
X105633Y39302D01*
X106583D02*
X106678D01*
X106373Y39512D02*
X106583Y39302D01*
X105633D02*
X105728D01*
X106826Y40154D02*
X106853Y40127D01*
X106328Y40154D02*
X106826D01*
X106373Y39512D02*
Y39558D01*
X104859Y41925D02*
X105180Y41604D01*
X104869Y42175D02*
X105198Y42504D01*
X106478Y43077D02*
X106853D01*
X105598Y43184D02*
X106653Y42129D01*
X105573Y43982D02*
X106478Y43077D01*
X104573Y40825D02*
X104814Y40584D01*
X104573Y40825D02*
Y41143D01*
X104473Y39512D02*
Y39541D01*
X104683Y39302D02*
X104778D01*
X104473Y39512D02*
X104683Y39302D01*
X105423Y39512D02*
Y39563D01*
X104814Y40584D02*
X105898D01*
X106328Y40154D01*
X90051Y39458D02*
Y39942D01*
X89740Y39945D02*
X89816Y40021D01*
X89972D02*
X90051Y39942D01*
X89810Y40520D02*
X89923Y40407D01*
X89674Y40520D02*
X89810D01*
X89816Y40021D02*
X89972D01*
X90051Y39458D02*
X90130Y39380D01*
X90228D01*
X89923Y40407D02*
X90057D01*
X93808Y42994D02*
X96133Y45319D01*
X93268Y43217D02*
X95909Y45859D01*
X93558Y43097D02*
X96029Y45569D01*
X94098Y42874D02*
X96253Y45029D01*
X92978Y43338D02*
X95789Y46149D01*
X94388Y42754D02*
X96373Y44739D01*
X91383Y41368D02*
X91515Y41500D01*
X91383Y40759D02*
Y41368D01*
X91177Y40985D02*
Y41497D01*
X91237Y41558D01*
X90653Y40029D02*
X91383Y40759D01*
X90861Y40669D02*
X90861D01*
X90554Y40904D02*
X90727D01*
X90861Y40669D02*
X91177Y40985D01*
X90228Y39380D02*
X90354Y39506D01*
Y40162D02*
X90861Y40669D01*
X90354Y39506D02*
Y40162D01*
X90057Y40407D02*
X90554Y40904D01*
X90727D02*
X90973Y41149D01*
X91515Y41500D02*
Y41567D01*
X91817Y41869D01*
X91237Y41558D02*
Y41888D01*
X91449Y42100D01*
X90973Y41149D02*
Y41616D01*
X90970Y41618D02*
X90973Y41616D01*
X103365Y45854D02*
X103465Y45954D01*
X102493Y45854D02*
X103365D01*
X102598Y47375D02*
X102839Y47134D01*
X104853Y49313D02*
Y49891D01*
X104678Y49952D02*
X104791D01*
X104853Y49891D01*
X101898Y48358D02*
Y48931D01*
X102598Y47375D02*
Y47889D01*
X102839Y46334D02*
X103166D01*
X103721Y46889D01*
X102933Y47134D02*
X103003Y47064D01*
Y46729D02*
Y47064D01*
X102839Y47134D02*
X102933D01*
X102601Y46572D02*
X102839Y46334D01*
X103464Y45614D02*
X103514Y45664D01*
X100998Y46559D02*
X102183Y45374D01*
X101803Y48263D02*
X101898Y48358D01*
X101360Y43248D02*
X102311D01*
X101463Y43498D02*
X102415D01*
X99723Y42334D02*
X99778Y42279D01*
X99398Y41659D02*
X99513Y41544D01*
X99778Y41954D02*
X99803Y41929D01*
X101403D02*
Y42279D01*
X101348Y42334D02*
X101403Y42279D01*
X102478Y42209D02*
Y42454D01*
X101403Y41929D02*
X102004Y41328D01*
X102203Y42729D02*
X102478Y42454D01*
X102514Y41618D02*
X102877D01*
X102478Y42209D02*
X102762Y41925D01*
X102979Y42729D02*
X103003D01*
X102728Y42313D02*
X102866Y42175D01*
X102728Y42454D02*
X103003Y42729D01*
X102728Y42313D02*
Y42454D01*
X102004Y41328D02*
X102757D01*
X99639Y42334D02*
X99723D01*
X99398Y42575D02*
Y42893D01*
Y42575D02*
X99639Y42334D01*
X101622Y39512D02*
X101718D01*
X101814Y40534D02*
X102854D01*
X101583Y40765D02*
X101814Y40534D01*
X101609Y39809D02*
X102314D01*
X99778Y41954D02*
Y42279D01*
X102866Y42175D02*
X104869D01*
X104330Y41385D02*
X104573Y41143D01*
X102877Y41618D02*
X103109Y41386D01*
X103828Y41385D02*
X104330D01*
X103827Y41386D02*
X103828Y41385D01*
X102762Y41925D02*
X104859D01*
X103109Y41386D02*
X103827D01*
X104010Y40004D02*
X104473Y39541D01*
X103523Y39512D02*
X103733Y39302D01*
X103523Y39512D02*
Y39543D01*
X103733Y39302D02*
X103828D01*
X101763Y40294D02*
X102684D01*
X102974Y40004D01*
X102459Y42985D02*
Y43100D01*
X102311Y43248D02*
X102459Y43100D01*
X102709Y42999D02*
Y43204D01*
X102203Y42729D02*
X102459Y42985D01*
X102415Y43498D02*
X102709Y43204D01*
Y42999D02*
X102979Y42729D01*
X101718Y39512D02*
X101928Y39302D01*
X102808Y39760D02*
X103306D01*
X102783Y39302D02*
X102878D01*
X102564Y40004D02*
X102808Y39760D01*
X103306D02*
X103523Y39543D01*
X102573Y39512D02*
Y39551D01*
X102314Y39809D02*
X102573Y39551D01*
Y39512D02*
X102783Y39302D01*
X101737Y40004D02*
X102564D01*
X81000Y38699D02*
X82238D01*
X80720Y38162D02*
X82077D01*
X81331Y38951D02*
X82351D01*
X80825Y38451D02*
X82144D01*
X86928Y33695D02*
Y34013D01*
X83983Y33690D02*
Y34009D01*
X83873Y33169D02*
X87211D01*
X83544Y32879D02*
X87331D01*
X83983Y33690D02*
X84214Y33459D01*
X86691D02*
X86928Y33695D01*
X84214Y33459D02*
X86691D01*
X80578Y34438D02*
X80946Y34069D01*
X80973Y34043D01*
X85564Y39220D02*
X86643Y40299D01*
X86130Y38461D02*
X87098Y39429D01*
X85765Y38979D02*
X86795Y40009D01*
X85940Y38711D02*
X86948Y39719D01*
X83528Y39212D02*
X84528Y38211D01*
X83778Y39315D02*
X84632Y38461D01*
X83528Y39212D02*
Y39295D01*
X82460Y39201D02*
X84249Y37412D01*
X84178Y39269D02*
X84735Y38711D01*
X84578Y39242D02*
X84841Y38979D01*
X84975Y39456D02*
X85211Y39220D01*
X85564D01*
X84841Y38979D02*
X85765D01*
X84975Y39456D02*
Y39765D01*
X84578Y39242D02*
Y39604D01*
X82952Y40378D02*
X82978Y40404D01*
Y40101D02*
Y40379D01*
X83778Y40404D02*
Y40776D01*
X83474Y33568D02*
X83873Y33169D01*
X83474Y33568D02*
Y34066D01*
X81526Y34309D02*
X81553Y34283D01*
X80977Y34448D02*
X81236Y34189D01*
X80977Y34448D02*
Y34963D01*
X81378Y34458D02*
X81526Y34309D01*
X81236Y34189D02*
X81263Y34163D01*
X81378Y34804D02*
X81416Y34765D01*
X81475Y36643D02*
X82178Y35940D01*
X81597Y36874D02*
X82576Y35895D01*
X86643Y34755D02*
X86781Y34894D01*
X84668Y34249D02*
X86516D01*
X83373Y34619D02*
X83983Y34009D01*
X83141Y34399D02*
X83474Y34066D01*
X86643Y34376D02*
Y34755D01*
X84113Y34804D02*
X84668Y34249D01*
X83778Y34804D02*
X84113D01*
X86928Y34013D02*
X87519Y34604D01*
X86516Y34249D02*
X86643Y34376D01*
X84249Y37412D02*
X87010D01*
X84140Y37162D02*
X87171D01*
X87010Y37412D02*
X87378Y37779D01*
X84316Y37702D02*
X86810D01*
X84735Y38711D02*
X85940D01*
X87310Y36910D02*
X87563Y37162D01*
X84632Y38461D02*
X86130D01*
X84528Y38211D02*
X86340D01*
X86860Y38731D01*
X84027Y36910D02*
X87310D01*
X87825Y36890D02*
X89446D01*
X87941Y35184D02*
X88816Y36059D01*
X88182Y34604D02*
X89057Y35479D01*
X87808Y36874D02*
X87809D01*
X87825Y36890D01*
X87519Y34604D02*
X88182D01*
X88061Y34894D02*
X88936Y35769D01*
X86860Y38731D02*
X88310D01*
X87171Y37162D02*
X87478Y37470D01*
X88853Y37779D02*
X89053Y37979D01*
X87378Y37779D02*
X88853D01*
X87580Y37178D02*
X89201D01*
X88506Y38112D02*
X88508Y38114D01*
X87221Y38112D02*
X88506D01*
X87478Y37470D02*
X89005D01*
X87563Y37162D02*
X87564D01*
X89053Y37979D02*
Y38238D01*
X87564Y37162D02*
X87580Y37178D01*
X88508Y38114D02*
X88513D01*
X89005Y37470D02*
X89377Y37842D01*
Y37990D01*
X86781Y34894D02*
X88061D01*
X85671Y36171D02*
X85885D01*
X81773Y34473D02*
Y34968D01*
Y34473D02*
X81843Y34403D01*
X82978Y34454D02*
X83033Y34399D01*
X83753Y34829D02*
X83778Y34804D01*
X83033Y34399D02*
X83141D01*
X82978Y34454D02*
Y34804D01*
X83373Y34619D02*
Y34968D01*
X83778Y35554D02*
X84128Y35204D01*
X84231D01*
X83770Y36115D02*
X84755D01*
X81792Y37386D02*
X83382Y35796D01*
X82238Y38699D02*
X84027Y36910D01*
X82144Y38451D02*
X83939Y36655D01*
X82077Y38162D02*
X83874Y36365D01*
X81974Y37912D02*
X83770Y36115D01*
X82351Y38951D02*
X84140Y37162D01*
X83541Y35209D02*
X83673D01*
X83382Y35368D02*
Y35796D01*
X83188Y35152D02*
X83373Y34968D01*
X83753Y34829D02*
Y35129D01*
X83673Y35209D02*
X83753Y35129D01*
X83382Y35368D02*
X83541Y35209D01*
X82978Y35604D02*
X83188Y35393D01*
Y35152D02*
Y35393D01*
X82576Y35444D02*
Y35895D01*
X82178Y35554D02*
Y35604D01*
Y35940D01*
X88149Y36350D02*
X89670D01*
X90030Y35479D02*
X90968Y36418D01*
X87451Y32589D02*
X89451Y34589D01*
X87331Y32879D02*
X89331Y34879D01*
X87211Y33169D02*
X89211Y35169D01*
X89451Y34589D02*
X90370D01*
X88936Y35769D02*
X89910D01*
X88816Y36059D02*
X89790D01*
X89057Y35479D02*
X90030D01*
X89331Y34879D02*
X90250D01*
X89211Y35169D02*
X90130D01*
X72878Y35846D02*
X72959Y35927D01*
X72878Y35690D02*
Y35846D01*
Y35690D02*
X72973Y35595D01*
X90250Y34879D02*
X91209Y35838D01*
X90130Y35169D02*
X91089Y36128D01*
X90370Y34589D02*
X91329Y35548D01*
X89448Y39048D02*
Y40093D01*
X88868Y39289D02*
Y40685D01*
X88056Y41588D02*
X88688Y42220D01*
X88314Y41558D02*
X88996Y42239D01*
X89560Y40406D02*
X89674Y40520D01*
X89373Y41190D02*
Y41579D01*
X87098Y39429D02*
X88053D01*
X89448Y40093D02*
X89560Y40205D01*
X88053Y39429D02*
X88578Y39954D01*
X88056Y40643D02*
Y41588D01*
X87838Y41648D02*
X88380Y42189D01*
X87591Y41673D02*
X88063Y42145D01*
X87591Y40998D02*
Y41673D01*
X87061Y40879D02*
X87375Y41193D01*
X88046Y36600D02*
X89567D01*
X88513Y38114D02*
X89448Y39048D01*
X88310Y38731D02*
X88868Y39289D01*
X89446Y36890D02*
X90384Y37828D01*
X89567Y36600D02*
X90504Y37538D01*
X89201Y37178D02*
X90139Y38116D01*
X89053Y38238D02*
X89740Y38925D01*
X89377Y37990D02*
X89796Y38409D01*
X88802Y41749D02*
X89125D01*
X89560Y40205D02*
Y40406D01*
X88578Y41524D02*
X88802Y41749D01*
X88578Y39954D02*
Y41524D01*
X88868Y40685D02*
X89373Y41190D01*
X89125Y41749D02*
X89349Y41972D01*
X89373Y41579D02*
X89698Y41904D01*
X71931Y39946D02*
X72829D01*
X71811Y39656D02*
X72949D01*
X72751Y38325D02*
X73162Y37913D01*
X72760Y37309D02*
X73315D01*
X73162Y37913D02*
X73550D01*
X73055Y38478D02*
Y38988D01*
X72967Y39076D02*
X73055Y38988D01*
Y38478D02*
X73305Y38228D01*
X73306Y41825D02*
X74159D01*
X72949Y39656D02*
X73598Y40305D01*
X73305Y38228D02*
X73665D01*
X72436Y37019D02*
X73194D01*
X72623Y36438D02*
X72859D01*
X72152Y36729D02*
X73074D01*
X72859Y36438D02*
X72937Y36360D01*
Y36270D02*
X72986Y36221D01*
X73624D01*
X72937Y36270D02*
Y36360D01*
X73074Y36729D02*
X73293Y36511D01*
X73194Y37019D02*
X73413Y36801D01*
X72751Y38996D02*
X72831Y39076D01*
X73203Y41722D02*
X73306Y41825D01*
X73203Y40730D02*
Y41722D01*
X72829Y39946D02*
X73493Y40610D01*
X72709Y40236D02*
X73203Y40730D01*
X72831Y39076D02*
X72967D01*
X73169Y35367D02*
Y35509D01*
X72973Y35595D02*
X73083D01*
X73169Y35509D01*
X73235Y35927D02*
X73463Y35699D01*
X72959Y35927D02*
X73235D01*
X87375Y41754D02*
X87752Y42131D01*
X87375Y41193D02*
Y41754D01*
X82656Y44135D02*
X82764Y44242D01*
X81443Y41245D02*
X82284Y40404D01*
X82224Y46668D02*
X85362Y43529D01*
X72452Y38059D02*
Y39003D01*
X72379Y39076D02*
X72452Y39003D01*
X72162Y37907D02*
Y38700D01*
X71267Y38970D02*
X71451Y38786D01*
X70971Y39044D02*
Y39265D01*
X71046Y38970D02*
X71267D01*
X70971Y39044D02*
X71046Y38970D01*
X72076Y38786D02*
X72162Y38700D01*
X70999Y38008D02*
X71231Y37776D01*
X71451Y38786D02*
X72076D01*
X71571Y39076D02*
X72379D01*
X71332Y36366D02*
X71413Y36286D01*
X71455Y35996D02*
X71828D01*
X72255Y36031D02*
Y36342D01*
X71931Y36100D02*
Y36338D01*
X72028Y36435D02*
X72162D01*
X72255Y36342D01*
X71828Y35996D02*
X71931Y36100D01*
X72550Y36031D02*
Y36365D01*
X72462Y35943D02*
X72550Y36031D01*
X72343Y35943D02*
X72462D01*
X72255Y36031D02*
X72343Y35943D01*
X71413Y36286D02*
X71533D01*
X71931Y36338D02*
X72028Y36435D01*
X71533Y36286D02*
X71641Y36394D01*
X71017Y35270D02*
X71523D01*
X71625Y35372D01*
X70462Y35415D02*
Y36007D01*
X71864Y35706D02*
X71935Y35635D01*
X71625Y35629D02*
X71702Y35706D01*
X71042Y35655D02*
X71138Y35560D01*
X70752Y35535D02*
X71017Y35270D01*
X71335Y35876D02*
X71455Y35996D01*
X71335Y35641D02*
Y35876D01*
X71702Y35706D02*
X71864D01*
X72366Y35653D02*
X72538D01*
X71625Y35372D02*
Y35629D01*
X71138Y35560D02*
X71253D01*
X72608Y35397D02*
Y35583D01*
X72292Y35579D02*
X72366Y35653D01*
X71253Y35560D02*
X71335Y35641D01*
X71935Y35363D02*
Y35635D01*
X72292Y35362D02*
Y35579D01*
X72538Y35653D02*
X72608Y35583D01*
X72051Y40236D02*
X72709D01*
X71521Y37520D02*
Y37896D01*
X71332Y37332D02*
X71521Y37520D01*
X71042Y37452D02*
X71231Y37640D01*
Y37776D01*
X70735Y41552D02*
X72051Y40236D01*
X70495Y40972D02*
X71811Y39656D01*
X70377Y40680D02*
X71691Y39366D01*
X72362Y37093D02*
X72436Y37019D01*
X72751Y38325D02*
Y38996D01*
X71641Y36394D02*
Y36680D01*
X72550Y36365D02*
X72623Y36438D01*
X72063Y36818D02*
X72152Y36729D01*
X71641Y36680D02*
X71765Y36804D01*
Y37095D01*
X72063Y36818D02*
Y37085D01*
X71765Y37095D02*
X71839Y37169D01*
X71979D02*
X72063Y37085D01*
X71839Y37169D02*
X71979D01*
X70367Y36380D02*
X70459Y36472D01*
X70683Y37201D02*
X70752Y37132D01*
Y35535D02*
Y37132D01*
X71042Y35655D02*
Y37452D01*
X109776Y49454D02*
X110276Y49954D01*
X69433Y38052D02*
Y38156D01*
X69204Y37948D02*
X69329D01*
X69433Y38052D01*
X69235Y38362D02*
Y38511D01*
X69435Y38158D02*
Y38162D01*
X68959Y38085D02*
X69067D01*
X69433Y38156D02*
X69435Y38158D01*
X69235Y38362D02*
X69435Y38162D01*
X69067Y38085D02*
X69204Y37948D01*
X68854Y37849D02*
X69055Y37648D01*
X68854Y37849D02*
Y37980D01*
X68959Y38085D01*
X69717Y38460D02*
X69782Y38524D01*
X69235Y38511D02*
X69339Y38615D01*
X69446D01*
X69602Y38460D01*
X69717D01*
X69055Y37531D02*
Y37648D01*
X68655Y38602D02*
Y38752D01*
X67115Y40066D02*
X67749Y39431D01*
X67781D01*
X67783Y39430D02*
X68068D01*
X67781Y39431D02*
X67783Y39430D01*
X68750Y41816D02*
X69189Y42255D01*
X68500Y41345D02*
Y41919D01*
X68562Y42468D02*
X68889Y42795D01*
X68442Y42758D02*
X68769Y43085D01*
X67911Y42325D02*
X68343Y42758D01*
X67375Y42325D02*
X67911D01*
X68343Y42758D02*
X68442D01*
X68322Y43048D02*
X68649Y43375D01*
X68143Y43048D02*
X68322D01*
X67916Y42821D02*
X68143Y43048D01*
X68202Y43338D02*
X68529Y43665D01*
X67450Y43338D02*
X68202D01*
X67960Y44825D02*
X68242D01*
X68297Y44880D01*
X67471Y44421D02*
X67770D01*
X67828Y44480D01*
X68103D01*
X67366Y42334D02*
X67375Y42325D01*
X66622Y43783D02*
Y44891D01*
Y43783D02*
X67021Y43384D01*
Y42165D02*
Y43384D01*
X67401Y44764D02*
X67807Y45170D01*
X66967Y44749D02*
X66982Y44764D01*
X66868Y41766D02*
X66912Y41810D01*
X67960Y37825D02*
X67976Y37809D01*
X67402Y36335D02*
X68084Y35653D01*
X66982Y44764D02*
X67401D01*
X67115Y40066D02*
Y40448D01*
X66912Y37895D02*
X66940Y37867D01*
X66470Y37849D02*
X66769Y37550D01*
X44833Y39123D02*
X56341D01*
X44430Y39527D02*
Y41000D01*
Y39527D02*
X44833Y39123D01*
X58206Y37970D02*
X58492D01*
X57139Y38325D02*
X57851D01*
X56341Y39123D02*
X57139Y38325D01*
X57851D02*
X58206Y37970D01*
X58492D02*
X58637Y38115D01*
X59265D01*
X59475Y38325D01*
X57296Y40000D02*
X57517D01*
X57582Y39934D01*
X57731D01*
X57790Y39875D01*
D43*
X112103Y46453D02*
D03*
X111203D02*
D03*
X110928Y49027D02*
D03*
X110028D02*
D03*
X110928Y48202D02*
D03*
X110028D02*
D03*
X72439Y32556D02*
D03*
X73339D02*
D03*
X110028Y44027D02*
D03*
X109128D02*
D03*
X109728Y42327D02*
D03*
X108828D02*
D03*
X91153Y39752D02*
D03*
X92053D02*
D03*
X91178Y34527D02*
D03*
X92078D02*
D03*
X96680Y35668D02*
D03*
X95780D02*
D03*
X77575Y59864D02*
D03*
X78475D02*
D03*
D44*
X85280Y42670D02*
D03*
X86680D02*
D03*
D45*
X58275Y35625D02*
D03*
X58875D02*
D03*
D60*
X112053Y51328D02*
D03*
Y52728D02*
D03*
X103363Y51228D02*
D03*
Y52628D02*
D03*
X107928Y37827D02*
D03*
Y36427D02*
D03*
D61*
X102228Y52098D02*
D03*
Y51198D02*
D03*
X108478Y49952D02*
D03*
Y50852D02*
D03*
X110378Y49952D02*
D03*
Y50852D02*
D03*
X109428Y49952D02*
D03*
Y50852D02*
D03*
X74375Y56775D02*
D03*
Y55875D02*
D03*
X80175Y55355D02*
D03*
Y56255D02*
D03*
X101928Y39302D02*
D03*
Y38402D02*
D03*
X103828Y39302D02*
D03*
Y38402D02*
D03*
X102878Y39302D02*
D03*
Y38402D02*
D03*
X107528Y49952D02*
D03*
Y50852D02*
D03*
X105628Y49952D02*
D03*
Y50852D02*
D03*
X106578D02*
D03*
Y49952D02*
D03*
X104678D02*
D03*
Y50852D02*
D03*
X100978Y39302D02*
D03*
Y38402D02*
D03*
X99078Y39302D02*
D03*
Y38402D02*
D03*
X100028Y39302D02*
D03*
Y38402D02*
D03*
X98128Y39302D02*
D03*
Y38402D02*
D03*
X83268Y43023D02*
D03*
Y42123D02*
D03*
X82268Y42125D02*
D03*
Y43025D02*
D03*
X104778Y38402D02*
D03*
Y39302D02*
D03*
X105728D02*
D03*
Y38402D02*
D03*
X106678Y39302D02*
D03*
Y38402D02*
D03*
X105228Y41602D02*
D03*
Y42502D02*
D03*
X46300Y39675D02*
D03*
Y40575D02*
D03*
X28805Y49680D02*
D03*
Y50580D02*
D03*
X29780Y49680D02*
D03*
Y50580D02*
D03*
X67890Y32815D02*
D03*
Y31915D02*
D03*
X80171Y57061D02*
D03*
Y57961D02*
D03*
D62*
X108953Y52702D02*
D03*
Y51802D02*
D03*
X107053Y52702D02*
D03*
Y51802D02*
D03*
X105153Y52702D02*
D03*
Y51802D02*
D03*
X110403Y52702D02*
D03*
Y51802D02*
D03*
X77027Y54605D02*
D03*
Y55505D02*
D03*
X111003Y42402D02*
D03*
Y41502D02*
D03*
X76110Y55405D02*
D03*
Y56305D02*
D03*
X101928Y36477D02*
D03*
Y37377D02*
D03*
X103828Y36477D02*
D03*
Y37377D02*
D03*
X105728Y36477D02*
D03*
Y37377D02*
D03*
X98128Y36477D02*
D03*
Y37377D02*
D03*
X100028Y36477D02*
D03*
Y37377D02*
D03*
X92453Y41027D02*
D03*
Y41927D02*
D03*
X50485Y42988D02*
D03*
Y43888D02*
D03*
X46382Y42565D02*
D03*
Y43465D02*
D03*
X76615Y59480D02*
D03*
Y58580D02*
D03*
X75260Y56980D02*
D03*
Y57880D02*
D03*
X82015Y56255D02*
D03*
Y57155D02*
D03*
D64*
X66171Y35716D02*
D03*
X66721D02*
D03*
X66015Y39900D02*
D03*
X66565D02*
D03*
X62950Y46787D02*
D03*
X62400D02*
D03*
X60525Y45850D02*
D03*
X61075D02*
D03*
X58900Y45425D02*
D03*
X58350D02*
D03*
X60452Y46829D02*
D03*
X59902D02*
D03*
X63850Y46837D02*
D03*
X64400D02*
D03*
X58325Y36331D02*
D03*
X58875D02*
D03*
X67925Y34925D02*
D03*
X67375D02*
D03*
X68440Y33588D02*
D03*
X67890D02*
D03*
X67925Y34350D02*
D03*
X67375D02*
D03*
X66198Y35094D02*
D03*
X66748D02*
D03*
D68*
X108678Y46802D02*
D03*
X109578D02*
D03*
X106853Y40127D02*
D03*
X107753D02*
D03*
X106853Y42127D02*
D03*
X107753D02*
D03*
X109228Y45852D02*
D03*
X110128D02*
D03*
X99182Y50175D02*
D03*
X100082D02*
D03*
X100095Y49217D02*
D03*
X100995D02*
D03*
X106853Y43077D02*
D03*
X107753D02*
D03*
X106853Y44027D02*
D03*
X107753D02*
D03*
Y44977D02*
D03*
X106853D02*
D03*
X48183Y43917D02*
D03*
X49083D02*
D03*
X22400Y33879D02*
D03*
X21500D02*
D03*
X57323Y34723D02*
D03*
X58223D02*
D03*
X80207Y58980D02*
D03*
X81107D02*
D03*
D69*
X58126Y33021D02*
X59180Y34075D01*
X60475Y34725D02*
Y35978D01*
X61249Y36751D02*
X61872D01*
X60475Y35978D02*
X61249Y36751D01*
X57977Y32227D02*
X60475Y34725D01*
X60865Y34538D02*
Y35768D01*
X61335Y36239D01*
X60654Y37274D02*
X61955D01*
X62374D01*
X62375Y37275D01*
X59653Y36273D02*
X60654Y37274D01*
X61525Y34655D02*
Y35349D01*
X62375Y36199D02*
Y36240D01*
X61525Y35349D02*
X62375Y36199D01*
X60402Y34075D02*
X60865Y34538D01*
X62875Y36248D02*
Y36750D01*
X61981Y33039D02*
X63375Y34433D01*
Y36250D01*
X62528Y35901D02*
X62875Y36248D01*
X62528Y34501D02*
Y35901D01*
X61525Y33498D02*
X62528Y34501D01*
X61981Y31469D02*
Y33039D01*
X61525Y31919D02*
Y33498D01*
X59180Y34075D02*
X59653Y34548D01*
Y36273D01*
X74080Y55675D02*
X74280Y55875D01*
X74056Y55556D02*
X74080Y55580D01*
X73884Y55340D02*
X74056Y55512D01*
Y55556D01*
X73884Y55227D02*
Y55340D01*
X74280Y55875D02*
X74375D01*
X74080Y55580D02*
Y55675D01*
X62375Y45300D02*
Y45848D01*
X62045Y46178D02*
X62375Y45848D01*
X60458Y33588D02*
X61525Y34655D01*
X60458Y33230D02*
Y33588D01*
X57777Y30550D02*
X60458Y33230D01*
X57752Y31425D02*
X60402Y34075D01*
X79425Y57375D02*
X79762D01*
X80076Y57061D01*
X80171D01*
X80019Y56411D02*
X80175Y56255D01*
X79724Y56411D02*
X80019D01*
X79450Y56685D02*
X79724Y56411D01*
X61906Y48340D02*
X67341Y53775D01*
X61906Y46317D02*
Y48340D01*
X62045Y46178D02*
Y46178D01*
X61906Y46317D02*
X62045Y46178D01*
D70*
X66675Y36370D02*
X66675Y36370D01*
X66675Y35766D02*
Y36370D01*
Y35766D02*
X66721Y35720D01*
Y35716D02*
Y35720D01*
X66750Y33083D02*
Y35714D01*
X67391Y34385D02*
Y34925D01*
X68390Y33638D02*
Y33919D01*
X67941Y34367D02*
X68390Y33919D01*
Y33638D02*
X68440Y33588D01*
X77925Y56256D02*
Y56755D01*
Y56256D02*
X78516Y55665D01*
X75675Y54605D02*
X77027D01*
X75675Y54970D02*
X76110Y55405D01*
X75675Y54605D02*
Y54970D01*
X66750Y33083D02*
X67000Y32833D01*
Y31075D02*
Y32833D01*
X67941Y34385D02*
Y34986D01*
D71*
X109403Y47579D02*
X110028Y48204D01*
X100995Y49275D02*
X101492Y48778D01*
X85178Y42579D02*
X85566Y42191D01*
X97433Y36596D02*
Y40522D01*
X83742Y41398D02*
X83780D01*
X110206Y43557D02*
X110306Y43457D01*
X110133Y43666D02*
X110206Y43593D01*
X110306Y43403D02*
Y43457D01*
X110206Y43557D02*
Y43593D01*
X110133Y43666D02*
Y43924D01*
X110028Y44029D02*
X110133Y43924D01*
X59050Y44850D02*
X59125D01*
X58984D02*
X59050D01*
X58375Y44325D02*
X58386D01*
X57350D02*
X58375D01*
X56696D02*
X57350D01*
X92348Y41822D02*
X92453Y41927D01*
X91816Y41242D02*
Y41328D01*
X92309Y41822D02*
X92348D01*
X91816Y41328D02*
X92309Y41822D01*
X91778Y41204D02*
X91816Y41242D01*
X100082Y49288D02*
Y50229D01*
Y49288D02*
X100095Y49275D01*
X101928Y35854D02*
Y36479D01*
X98128Y35854D02*
Y36479D01*
X100028Y35854D02*
Y36479D01*
X105728Y35854D02*
Y36479D01*
X103828Y35854D02*
Y36479D01*
X96528Y35829D02*
Y36304D01*
X95928Y35829D02*
Y36329D01*
X97422Y36585D02*
X97433Y36596D01*
X91778Y40379D02*
X92428Y41029D01*
X91778Y40379D02*
Y40404D01*
X91153Y39754D02*
X91778Y40379D01*
X92053Y39754D02*
X92578Y40279D01*
Y40404D01*
X92428Y41029D02*
X92453D01*
X102228Y52098D02*
Y52154D01*
X103363Y50700D02*
Y51228D01*
X101492Y48521D02*
Y48778D01*
X104803Y48479D02*
Y48804D01*
X103643Y49266D02*
X104341D01*
X103643Y48520D02*
Y49266D01*
X104341D02*
X104803Y48804D01*
X103603Y48479D02*
X103643Y48520D01*
X103363Y50700D02*
X103643Y50419D01*
Y49266D02*
Y50419D01*
X103546Y52628D02*
Y53305D01*
X102578Y52629D02*
X103301Y53352D01*
X103360D02*
X103499D01*
X103546Y53305D01*
X103301Y53352D02*
X103360D01*
X105153Y52704D02*
Y53329D01*
X102553Y52604D02*
X102603D01*
X102578Y52629D02*
X102603Y52604D01*
X102327Y52253D02*
Y52378D01*
X102228Y52154D02*
X102327Y52253D01*
Y52378D02*
X102553Y52604D01*
X107053Y52704D02*
Y53329D01*
X108953Y52704D02*
Y53329D01*
X72589Y32706D02*
Y33206D01*
X73189Y32706D02*
X73339Y32556D01*
X72439D02*
X72589Y32706D01*
X73189D02*
Y33206D01*
X90578Y33854D02*
Y33929D01*
X92128Y34454D02*
X92728D01*
X90578Y33929D02*
X91178Y34529D01*
X91553Y33879D02*
X92128Y34454D01*
X107928Y35704D02*
Y36429D01*
X95778Y35679D02*
X95928Y35829D01*
X96528D02*
X96678Y35679D01*
X82239Y41604D02*
Y42119D01*
X83284Y41906D02*
X83295D01*
X83295D01*
X83295D02*
X83400Y41801D01*
Y41801D02*
X83588Y41613D01*
Y41552D02*
Y41613D01*
X82239Y41604D02*
X82440Y41403D01*
X85778Y41379D02*
Y41979D01*
X86378Y41354D02*
Y42379D01*
X83272Y41917D02*
X83284Y41906D01*
X83272Y41917D02*
Y42120D01*
X86378Y42379D02*
X86575Y42577D01*
X85603Y42154D02*
X85778Y41979D01*
X83588Y41552D02*
X83742Y41398D01*
X110928Y48204D02*
Y48879D01*
X110990Y48942D01*
X110203Y47529D02*
X110253D01*
X110928Y48204D01*
X112103Y46454D02*
X112939D01*
X112053Y52729D02*
Y53379D01*
X110953Y42354D02*
X111003Y42404D01*
X110328Y42329D02*
X110353Y42354D01*
X110953D01*
X110353Y41554D02*
X110953D01*
X110428Y52729D02*
Y53354D01*
X109728Y42329D02*
X110328D01*
X109403Y47529D02*
Y47579D01*
X110953Y41554D02*
X111003Y41504D01*
X112939Y46454D02*
X112945Y46460D01*
X58394Y44530D02*
X58689Y44825D01*
X59025D01*
X58394Y44344D02*
Y44530D01*
X58375Y44325D02*
X58394Y44344D01*
X81061Y56174D02*
X81306D01*
X81325Y56155D01*
X53152Y35775D02*
X53829D01*
X53052Y35875D02*
X53152Y35775D01*
X53025Y35875D02*
X53052D01*
X55165Y34474D02*
X55236D01*
X55259Y34452D02*
X55612D01*
X55146Y34494D02*
X55165Y34474D01*
X55689Y34375D02*
X56975D01*
X55236Y34474D02*
X55259Y34452D01*
X55612D02*
X55689Y34375D01*
X53829Y35775D02*
X53836Y35769D01*
X54451D01*
X57323Y34628D02*
Y34723D01*
X57123Y34523D02*
X57218D01*
X57323Y34628D01*
X56975Y34375D02*
X57123Y34523D01*
X47189Y43814D02*
Y46897D01*
X50423Y42123D02*
X50485Y42185D01*
X50073Y41573D02*
X50423Y41923D01*
X50485Y42185D02*
Y42988D01*
X50423Y41923D02*
Y42123D01*
X49873Y41573D02*
X50073D01*
X50485Y43888D02*
Y44466D01*
X46897Y43522D02*
X47189Y43814D01*
X58864Y39921D02*
X58875Y39933D01*
X58831Y39889D02*
X58864Y39921D01*
X49873Y41573D02*
X50976Y40471D01*
X46439Y43522D02*
X46897D01*
X46382Y43465D02*
X46439Y43522D01*
X47625Y40575D02*
X47673Y40623D01*
X46300Y40575D02*
X47625D01*
X54932Y38744D02*
X54936Y38748D01*
X56064D01*
X54627Y35944D02*
Y36412D01*
X54451Y35769D02*
X54627Y35944D01*
X56088Y36877D02*
X57012Y37800D01*
X54627Y36412D02*
X54891Y36675D01*
X55461D01*
X55662Y36877D01*
X56088D01*
X53326Y40471D02*
X53642Y40787D01*
X55870D01*
X50976Y40471D02*
X53326D01*
X55870Y40787D02*
X56299Y40358D01*
X28810Y49683D02*
X29785D01*
X29764Y49031D02*
X29774Y49041D01*
Y49673D02*
X29785Y49683D01*
X29774Y49041D02*
Y49673D01*
X56299Y40358D02*
X58427D01*
X58864Y39921D02*
X58875Y39910D01*
X58427Y40358D02*
X58864Y39921D01*
X57891Y36682D02*
X58133Y36440D01*
X57872Y36740D02*
X57891Y36721D01*
X58216Y36440D02*
X58325Y36331D01*
X57891Y36682D02*
Y36721D01*
X58133Y36440D02*
X58216D01*
X59375Y40950D02*
Y41410D01*
X60217Y40657D02*
Y40971D01*
X60351Y41105D01*
X60198Y40638D02*
X60217Y40657D01*
X60506Y40119D02*
Y40330D01*
Y40119D02*
X60525Y40100D01*
X60198Y40638D02*
X60506Y40330D01*
X59451Y40326D02*
X59886D01*
X59425Y40300D02*
X59451Y40326D01*
X59886D02*
X60198Y40638D01*
X59456Y40300D02*
X59506Y40250D01*
Y39894D02*
X59775Y39625D01*
X59425Y40300D02*
X59456D01*
X59506Y39894D02*
Y40250D01*
X56338Y38613D02*
X56479Y38472D01*
X56199Y38613D02*
X56338D01*
X57012Y37800D02*
X57825D01*
X56479Y38333D02*
X57012Y37800D01*
X56479Y38333D02*
Y38472D01*
X56064Y38748D02*
X56199Y38613D01*
X59634Y44431D02*
X59911D01*
X60372Y44892D02*
X60783D01*
X59911Y44431D02*
X60372Y44892D01*
X60783D02*
X60790Y44885D01*
X59609Y44406D02*
X59634Y44431D01*
X59150Y44825D02*
X59190D01*
X59300Y44715D02*
X59399D01*
X59540Y44475D02*
Y44574D01*
X59125Y44850D02*
X59150Y44825D01*
X59190D02*
X59300Y44715D01*
X59399D02*
X59540Y44574D01*
Y44475D02*
X59609Y44406D01*
X61875Y44025D02*
Y44159D01*
X61750Y44284D02*
Y44453D01*
X61725Y44478D02*
Y44505D01*
X61875Y44025D02*
X61900Y44000D01*
X61725Y44478D02*
X61750Y44453D01*
Y44284D02*
X61875Y44159D01*
X62600Y41475D02*
X62604Y41479D01*
Y41901D02*
X62650Y41948D01*
X62604Y41479D02*
Y41901D01*
X62650Y41948D02*
Y41975D01*
X59958Y45892D02*
X60000Y45850D01*
X60525D01*
X59931Y45892D02*
X59958D01*
X59902Y45948D02*
X59931Y45919D01*
Y45892D02*
Y45919D01*
X58275Y35625D02*
X58325Y35675D01*
Y36331D01*
X75500Y62900D02*
X75510Y62910D01*
X66200Y34914D02*
Y36324D01*
X66003Y31546D02*
X66023Y31565D01*
X65984Y31527D02*
X66003Y31546D01*
X80867Y56368D02*
Y56928D01*
X81325Y57155D02*
X82015D01*
X81075Y57136D02*
X81306D01*
X80867Y56368D02*
X81061Y56174D01*
X81306Y57136D02*
X81325Y57155D01*
X80867Y56928D02*
X81075Y57136D01*
X75260Y57880D02*
X75925D01*
X68514Y31908D02*
X69284Y31138D01*
Y30569D02*
Y31138D01*
X67890Y31915D02*
X67898Y31908D01*
X68514D01*
X66258Y32836D02*
Y34855D01*
X66200Y34914D02*
X66258Y34855D01*
X66449Y31771D02*
Y32645D01*
X66023Y31565D02*
X66243D01*
X66449Y31771D01*
X66258Y32836D02*
X66449Y32645D01*
X67890Y32815D02*
Y33588D01*
X67300D02*
X67890D01*
D72*
X66248Y40398D02*
X66271Y40421D01*
X66248Y40333D02*
Y40398D01*
Y40333D02*
X66339Y40242D01*
Y40187D02*
Y40242D01*
X66271Y40581D02*
X66364Y40674D01*
X66470Y39995D02*
Y40055D01*
X66535Y39930D02*
X66555D01*
X66339Y40187D02*
X66470Y40055D01*
Y39995D02*
X66535Y39930D01*
X66271Y40421D02*
Y40581D01*
X66364Y40674D02*
Y41244D01*
D73*
X66675Y36370D02*
Y36572D01*
X66597Y36650D02*
X66675Y36572D01*
X66474Y36650D02*
X66502D01*
X66167Y36939D02*
X66355Y36750D01*
X66374D02*
X66474Y36650D01*
X66355Y36750D02*
X66374D01*
X66503Y36650D02*
X66637D01*
X66502Y36650D02*
X66503Y36650D01*
X66637D02*
X66875Y36889D01*
X66167Y36939D02*
Y36988D01*
X65350Y43425D02*
X65627Y43148D01*
X64163Y41243D02*
X64444D01*
X64458Y41229D01*
X64091Y41314D02*
X64163Y41243D01*
X64458Y41229D02*
X64507D01*
X64605Y41131D01*
Y41129D02*
X64704Y41030D01*
X64605Y41129D02*
Y41131D01*
X64704Y41030D02*
X64705D01*
X64083Y40961D02*
Y41306D01*
X65002Y40598D02*
Y40686D01*
X64805Y40883D02*
Y40929D01*
X64705Y41029D02*
X64805Y40929D01*
Y40883D02*
X65002Y40686D01*
Y40598D02*
X65050Y40550D01*
X100095Y49275D02*
X100853Y48516D01*
X99639Y48768D02*
X99874Y48533D01*
X99182Y49847D02*
Y50229D01*
Y49847D02*
X99639Y49389D01*
Y48768D02*
Y49389D01*
X99874Y48533D02*
X100158D01*
X66565Y39900D02*
X66609Y39855D01*
Y39119D02*
Y39855D01*
X66464Y38973D02*
X66609Y39119D01*
X65625Y42143D02*
X65675Y42193D01*
X65625Y42075D02*
Y42143D01*
X65950Y37205D02*
Y37716D01*
Y37205D02*
X66167Y36988D01*
X65950Y37716D02*
X65969Y37735D01*
X43097Y41397D02*
X43100Y41400D01*
X63807Y45686D02*
X63859Y45738D01*
X65675Y42193D02*
Y42990D01*
X60025Y38550D02*
Y38643D01*
X59881Y38787D02*
X60025Y38643D01*
X59780Y39075D02*
X59781D01*
X59881Y38787D02*
Y38975D01*
X60025Y38550D02*
X60352Y38223D01*
X59781Y39075D02*
X59881Y38975D01*
X60352Y38223D02*
X60552D01*
X63656Y41131D02*
X63908D01*
X64083Y41306D01*
X63625Y41100D02*
X63656Y41131D01*
X63052Y40623D02*
X63100Y40575D01*
X62902Y40623D02*
X63052D01*
X62600Y40925D02*
X62902Y40623D01*
X62700Y41025D02*
X62756D01*
X62788Y41057D02*
X63162D01*
X62600Y40925D02*
X62700Y41025D01*
X62756D02*
X62788Y41057D01*
X62040Y38685D02*
X62050Y38675D01*
Y38607D02*
Y38675D01*
X61610Y38175D02*
X62027D01*
X61235D02*
X61610D01*
Y38931D01*
Y38175D02*
Y38175D01*
Y38175D02*
X61625Y38160D01*
X61467Y39074D02*
X61610Y38931D01*
X62175Y38323D02*
Y38482D01*
X62040Y38685D02*
Y39123D01*
X62050Y38607D02*
X62175Y38482D01*
X62030Y39133D02*
X62040Y39123D01*
X64875Y45910D02*
X64895Y45890D01*
Y45441D02*
Y45890D01*
X61125Y38675D02*
Y38743D01*
Y38285D02*
Y38675D01*
X68390Y33919D02*
X68669Y34197D01*
X69768D01*
X63769Y40575D02*
X64125D01*
X63625Y40719D02*
X63769Y40575D01*
X63625Y40719D02*
Y41100D01*
X64125Y40575D02*
Y40919D01*
X64083Y40961D02*
X64125Y40919D01*
X65452Y41703D02*
Y41862D01*
X65352Y41603D02*
X65452Y41703D01*
Y41862D02*
X65625Y42035D01*
X60600Y38175D02*
X61037D01*
X61125Y38263D02*
Y38285D01*
X61037Y38175D02*
X61125Y38263D01*
Y38285D02*
X61235Y38175D01*
X62027D02*
X62175Y38323D01*
X64125Y40575D02*
X64150Y40550D01*
X65050D01*
X63100Y40575D02*
X63162Y40637D01*
Y41057D01*
X60552Y38223D02*
X60600Y38175D01*
X63426Y38650D02*
X63747Y38971D01*
X63075Y38650D02*
X63426D01*
X63747Y38971D02*
X63783D01*
X64125Y38629D01*
X64193Y38697D01*
X64607D01*
X64625Y42075D02*
X64706Y41994D01*
Y41579D02*
Y41994D01*
X63625Y42075D02*
X63844Y41856D01*
X64083D01*
X63293Y42075D02*
X63625D01*
X63162Y41944D02*
X63293Y42075D01*
X63162Y41607D02*
Y41944D01*
X62683Y39694D02*
Y40058D01*
X62592Y39603D02*
X62683Y39694D01*
Y40058D02*
X62700Y40075D01*
X63066D02*
X63154Y39987D01*
X62700Y40075D02*
X63066D01*
X63154Y39672D02*
Y39987D01*
X64278Y45725D02*
X64305Y45752D01*
X63850Y45725D02*
X64278D01*
X63586Y45686D02*
X63807D01*
X63400Y45500D02*
X63586Y45686D01*
X59931Y45892D02*
X59935Y45896D01*
X62950Y46293D02*
Y46787D01*
X62875Y46218D02*
X62950Y46293D01*
X62875Y45725D02*
Y46218D01*
X63850Y45775D02*
Y46787D01*
X60340Y39085D02*
X60600Y38825D01*
Y38175D02*
Y38825D01*
X61005Y38863D02*
Y39048D01*
Y38863D02*
X61125Y38743D01*
X60905Y39148D02*
X61005Y39048D01*
X64607Y38697D02*
X64707Y38597D01*
Y38458D02*
X64876Y38289D01*
X64707Y38458D02*
Y38597D01*
X64876Y38245D02*
Y38289D01*
X63714Y39486D02*
X63747Y39453D01*
Y38971D02*
Y39453D01*
X63092Y38667D02*
Y39060D01*
X63154Y39122D01*
X63075Y38650D02*
X63092Y38667D01*
X62592Y38738D02*
X62680Y38650D01*
X62592Y38738D02*
Y39053D01*
X62680Y38650D02*
X63075D01*
X63604Y41078D02*
X63625Y41100D01*
X63183Y41078D02*
X63604D01*
X63162Y41057D02*
X63183Y41078D01*
D74*
X37810Y38535D02*
Y38592D01*
X37800Y38525D02*
X37810Y38535D01*
Y38592D02*
X39084Y39866D01*
X25315Y38740D02*
X25489Y38914D01*
X26061Y45936D02*
Y52095D01*
X25489Y45364D02*
X26061Y45936D01*
X25489Y38914D02*
Y45364D01*
X43757Y41068D02*
Y43623D01*
X43326Y44054D02*
X43757Y43623D01*
X42555Y39866D02*
X43757Y41068D01*
X39084Y39866D02*
X42555D01*
X68495Y54661D02*
X68777Y54944D01*
X62400Y47824D02*
X68495Y53919D01*
X68777Y54944D02*
Y54958D01*
X68495Y53919D02*
Y54661D01*
X62400Y46787D02*
Y47824D01*
X26061Y52095D02*
X32335Y58370D01*
Y58424D01*
X32345Y58433D01*
X66983Y28898D02*
Y29658D01*
X65956Y28400D02*
X66485D01*
X66983Y29658D02*
X67000Y29675D01*
X66485Y28400D02*
X66983Y28898D01*
D75*
X109863Y48862D02*
X110028Y49027D01*
X109863Y48827D02*
Y48862D01*
X109403Y48367D02*
X109863Y48827D01*
X109403Y48329D02*
Y48367D01*
X65755Y44415D02*
Y44460D01*
X65500Y44883D02*
X65585Y44798D01*
Y44630D02*
X65755Y44460D01*
X65585Y44630D02*
Y44798D01*
X67460Y35054D02*
X67570Y35164D01*
X67460Y35010D02*
Y35054D01*
X67570Y35164D02*
Y35175D01*
X67780Y35385D02*
Y35420D01*
X67391Y34986D02*
X67436D01*
X67460Y35010D01*
X67570Y35175D02*
X67780Y35385D01*
D81*
X62400Y46325D02*
Y46787D01*
D90*
X47175Y46475D02*
D03*
X48425D02*
D03*
D91*
X92813Y43661D02*
D03*
X67375Y41280D02*
D03*
X67940Y45755D02*
D03*
X67879Y41842D02*
D03*
X67879Y39790D02*
D03*
X67960Y40831D02*
D03*
X67460Y40305D02*
D03*
X67875Y43770D02*
D03*
X112945Y46460D02*
D03*
X65870Y43910D02*
D03*
X67960Y44825D02*
D03*
X67471Y44421D02*
D03*
X66971Y43921D02*
D03*
X66967Y44749D02*
D03*
X66779Y45921D02*
D03*
X66135Y43486D02*
D03*
X65750Y43000D02*
D03*
X67440Y43333D02*
D03*
X67916Y42821D02*
D03*
X67350Y45240D02*
D03*
X65800Y45915D02*
D03*
X65378Y46319D02*
D03*
X66868Y41766D02*
D03*
X65755Y44415D02*
D03*
X66260Y40398D02*
D03*
X65540Y40075D02*
D03*
X66470Y38230D02*
D03*
X66364Y41244D02*
D03*
X66872Y40750D02*
D03*
X66280Y46420D02*
D03*
X67960Y37825D02*
D03*
X67780Y35420D02*
D03*
X67960Y36825D02*
D03*
X67366Y42334D02*
D03*
X67935Y38805D02*
D03*
X66873Y38817D02*
D03*
X67372Y39271D02*
D03*
X67402Y36335D02*
D03*
X66912Y37895D02*
D03*
X66365Y37330D02*
D03*
X58875Y45900D02*
D03*
X59450Y46325D02*
D03*
X46475Y16550D02*
D03*
X53025Y35875D02*
D03*
X55049Y30165D02*
D03*
X55146Y34494D02*
D03*
X52841Y36352D02*
D03*
X60389Y30112D02*
D03*
X42415Y36154D02*
D03*
X58962Y30112D02*
D03*
X43751Y50580D02*
D03*
X50485Y44466D02*
D03*
X48158Y39500D02*
D03*
X54932Y38744D02*
D03*
X61350Y45350D02*
D03*
X48805Y38061D02*
D03*
X44430Y41000D02*
D03*
X48075Y31550D02*
D03*
X54694Y47600D02*
D03*
X43900Y33000D02*
D03*
X43902Y36305D02*
D03*
Y34655D02*
D03*
X42551Y31633D02*
D03*
X27875Y58675D02*
D03*
X21675Y60437D02*
D03*
X46875Y36825D02*
D03*
X46325D02*
D03*
X45825D02*
D03*
X51000Y31586D02*
D03*
X58325Y39355D02*
D03*
X58400Y42275D02*
D03*
X58875Y41750D02*
D03*
X58280Y41421D02*
D03*
X57872Y36740D02*
D03*
X57790Y40850D02*
D03*
X60025Y38600D02*
D03*
X59410Y41410D02*
D03*
X59850Y41650D02*
D03*
X57790Y41825D02*
D03*
X60198Y40638D02*
D03*
X57790Y39875D02*
D03*
X58925Y38775D02*
D03*
X59475Y38325D02*
D03*
X60558Y44442D02*
D03*
X62650Y41975D02*
D03*
X61725Y44505D02*
D03*
X60531Y42990D02*
D03*
X62072Y42497D02*
D03*
X45800Y38125D02*
D03*
X45300D02*
D03*
X44800D02*
D03*
X43900Y37120D02*
D03*
X44400D02*
D03*
X60375Y45350D02*
D03*
X60790Y44885D02*
D03*
X61100Y44490D02*
D03*
X60950Y37800D02*
D03*
X61300Y36240D02*
D03*
X61875Y36740D02*
D03*
X60841Y36854D02*
D03*
X63385Y37265D02*
D03*
X63900Y36775D02*
D03*
X64375Y36240D02*
D03*
X62375Y37240D02*
D03*
X62875Y36740D02*
D03*
X63375Y36240D02*
D03*
X62875Y37760D02*
D03*
X62030Y38675D02*
D03*
X62606Y44480D02*
D03*
X62720Y42980D02*
D03*
X64550Y44448D02*
D03*
X64875Y45910D02*
D03*
X63210Y42575D02*
D03*
X60375Y46344D02*
D03*
X65780Y36730D02*
D03*
X66875Y36900D02*
D03*
X65970Y38260D02*
D03*
X65375Y36240D02*
D03*
X65040Y42572D02*
D03*
X60210Y42575D02*
D03*
X59290Y42375D02*
D03*
X66003Y31546D02*
D03*
X65969Y37735D02*
D03*
X69768Y34197D02*
D03*
X59989Y37735D02*
D03*
X64625Y42983D02*
D03*
X62375Y36240D02*
D03*
Y45300D02*
D03*
X57862Y44875D02*
D03*
X57275Y31800D02*
D03*
X49889Y39866D02*
D03*
X61625Y38160D02*
D03*
X64375Y37350D02*
D03*
X63900Y37925D02*
D03*
X64875Y36829D02*
D03*
X79425Y57375D02*
D03*
X79450Y56685D02*
D03*
X52175Y41475D02*
D03*
X52675D02*
D03*
X64198Y39575D02*
D03*
X64625Y40143D02*
D03*
X49358Y39866D02*
D03*
X53389Y41170D02*
D03*
X52031Y42800D02*
D03*
X54436Y40077D02*
D03*
X55458Y40070D02*
D03*
X49325Y35825D02*
D03*
X61125Y38675D02*
D03*
X60600Y38175D02*
D03*
X49475Y38554D02*
D03*
X65500Y30275D02*
D03*
X65956Y28986D02*
D03*
X60408Y32204D02*
D03*
X53450Y36225D02*
D03*
X54175D02*
D03*
X60375Y30750D02*
D03*
X66003Y29720D02*
D03*
X57271Y30195D02*
D03*
Y30982D02*
D03*
X60973Y33601D02*
D03*
X59781Y31175D02*
D03*
X60960D02*
D03*
Y32210D02*
D03*
X60956Y32765D02*
D03*
X56956Y32510D02*
D03*
X65999Y30944D02*
D03*
X58240Y49865D02*
D03*
X55875Y47825D02*
D03*
Y34825D02*
D03*
X50050Y35897D02*
D03*
Y38554D02*
D03*
X52850Y38475D02*
D03*
X55077Y36225D02*
D03*
X55550Y38085D02*
D03*
X67300Y33588D02*
D03*
X61625Y42100D02*
D03*
X61625Y42983D02*
D03*
X58396Y46369D02*
D03*
X59931Y45892D02*
D03*
X58348Y43300D02*
D03*
X64800Y37750D02*
D03*
X59469Y37256D02*
D03*
X58939Y37770D02*
D03*
X58349Y38315D02*
D03*
X58858Y40910D02*
D03*
X59345Y39355D02*
D03*
X58875Y39910D02*
D03*
X63747Y38971D02*
D03*
X61625Y40089D02*
D03*
X61040Y42575D02*
D03*
X64017Y42572D02*
D03*
X63625Y42983D02*
D03*
X57782Y43812D02*
D03*
X65806Y40972D02*
D03*
X64125Y38629D02*
D03*
X63075Y38650D02*
D03*
X65050Y40550D02*
D03*
X61125Y48775D02*
D03*
X58816Y34213D02*
D03*
X69762Y48237D02*
D03*
X57966Y42920D02*
D03*
X58375Y37350D02*
D03*
X58875Y36825D02*
D03*
X65750Y39000D02*
D03*
X64876Y38245D02*
D03*
X65150Y39650D02*
D03*
X60525Y40100D02*
D03*
X63625Y41100D02*
D03*
X61092Y40638D02*
D03*
X62700Y40075D02*
D03*
X59325Y43400D02*
D03*
X64125Y40575D02*
D03*
X60625Y42100D02*
D03*
X62875Y45725D02*
D03*
X62400Y46325D02*
D03*
X61875Y45825D02*
D03*
X63100Y40575D02*
D03*
X64625Y42075D02*
D03*
X63625D02*
D03*
X63375Y46250D02*
D03*
X61375Y46325D02*
D03*
X57825Y37800D02*
D03*
X62150Y40625D02*
D03*
X63850Y45725D02*
D03*
X58850Y43800D02*
D03*
X58875Y42740D02*
D03*
X58375Y44325D02*
D03*
X57790Y38850D02*
D03*
X59400Y45375D02*
D03*
X57900Y45800D02*
D03*
X63328Y44412D02*
D03*
X63900Y44825D02*
D03*
X81325Y56655D02*
D03*
Y56155D02*
D03*
X77925Y56755D02*
D03*
D92*
X103143Y49370D02*
D03*
X100500Y40990D02*
D03*
X84766Y41379D02*
D03*
X83780Y41398D02*
D03*
X110276Y43405D02*
D03*
X76844Y29925D02*
D03*
X97475Y30350D02*
D03*
X91234Y54385D02*
D03*
X85100Y54256D02*
D03*
X29780Y61900D02*
D03*
X97118Y53124D02*
D03*
X98104Y53126D02*
D03*
X82978Y35604D02*
D03*
X82178D02*
D03*
X83778D02*
D03*
X87778D02*
D03*
X80578D02*
D03*
X81378D02*
D03*
X86978D02*
D03*
X84578D02*
D03*
X85378D02*
D03*
X83088Y41406D02*
D03*
X82978Y39604D02*
D03*
X82440Y41403D02*
D03*
X83778Y40404D02*
D03*
Y39604D02*
D03*
X82978Y40404D02*
D03*
X90578Y41354D02*
D03*
X91778Y40404D02*
D03*
X90978Y38804D02*
D03*
X91778Y41204D02*
D03*
X89778Y41354D02*
D03*
X90178Y38804D02*
D03*
X79653Y39779D02*
D03*
X80778Y41429D02*
D03*
X81378Y40404D02*
D03*
X80578D02*
D03*
X80178Y41429D02*
D03*
X81378Y39604D02*
D03*
X80578D02*
D03*
X79628Y39179D02*
D03*
X88978Y41354D02*
D03*
X85375Y39615D02*
D03*
X86978Y41354D02*
D03*
X87354Y42317D02*
D03*
X86378Y41354D02*
D03*
X84578Y39604D02*
D03*
X85378Y40404D02*
D03*
X85778Y41379D02*
D03*
X84578Y40404D02*
D03*
X102203Y42729D02*
D03*
X103003D02*
D03*
X101403Y41929D02*
D03*
Y42729D02*
D03*
X101978Y40929D02*
D03*
X103378Y40979D02*
D03*
X102578Y40929D02*
D03*
X91553Y33879D02*
D03*
X87328Y33854D02*
D03*
X83778Y34804D02*
D03*
X90578Y33854D02*
D03*
X89978D02*
D03*
X89378D02*
D03*
X82978Y34004D02*
D03*
X84378Y33854D02*
D03*
X85728D02*
D03*
X84978D02*
D03*
X86528D02*
D03*
X92728Y34454D02*
D03*
Y35254D02*
D03*
X82978Y34804D02*
D03*
X82178D02*
D03*
X107028Y41154D02*
D03*
X104603Y43579D02*
D03*
X108203Y40979D02*
D03*
X104978D02*
D03*
X109195Y41004D02*
D03*
X110353Y41554D02*
D03*
X105403Y43579D02*
D03*
X106228Y41904D02*
D03*
X104178Y40979D02*
D03*
X110353Y42354D02*
D03*
X101928Y35854D02*
D03*
X103828D02*
D03*
X107928Y35704D02*
D03*
X95928Y36329D02*
D03*
X105728Y35854D02*
D03*
X100028D02*
D03*
X98128D02*
D03*
X97422Y36585D02*
D03*
X96528Y36304D02*
D03*
X98203Y42729D02*
D03*
Y41929D02*
D03*
X99803D02*
D03*
X99003D02*
D03*
X92578Y40404D02*
D03*
X99803Y42729D02*
D03*
X100603D02*
D03*
X99003D02*
D03*
X100603Y41929D02*
D03*
X98152Y41071D02*
D03*
X97420Y40520D02*
D03*
X97403Y41929D02*
D03*
X81378Y34804D02*
D03*
X79778D02*
D03*
X73189Y33206D02*
D03*
X80578Y34804D02*
D03*
X80458Y33939D02*
D03*
X79841Y33017D02*
D03*
X72589Y33206D02*
D03*
X108603Y45929D02*
D03*
X107803D02*
D03*
X97253Y46304D02*
D03*
X97278Y46904D02*
D03*
X109403Y47529D02*
D03*
X110428Y53354D02*
D03*
X107053Y53329D02*
D03*
X109403Y48329D02*
D03*
X107413Y48470D02*
D03*
X110203Y47529D02*
D03*
X106203Y48329D02*
D03*
X108213Y48479D02*
D03*
X108953Y53329D02*
D03*
X103003Y46729D02*
D03*
Y47529D02*
D03*
X102203Y46729D02*
D03*
Y47529D02*
D03*
X101403D02*
D03*
X98203D02*
D03*
X100603Y46729D02*
D03*
X101403D02*
D03*
X99003D02*
D03*
X98203D02*
D03*
X100603Y47529D02*
D03*
X99003D02*
D03*
X97612Y48556D02*
D03*
X112053Y53379D02*
D03*
X103603Y48479D02*
D03*
X104803D02*
D03*
X104203D02*
D03*
X101492Y48517D02*
D03*
X105153Y53329D02*
D03*
X103360Y53352D02*
D03*
X100860Y48517D02*
D03*
X100158D02*
D03*
X102483Y48523D02*
D03*
X98241Y48522D02*
D03*
X28240Y35580D02*
D03*
X15926Y40798D02*
D03*
X15425D02*
D03*
X17726D02*
D03*
X17225D02*
D03*
X16724D02*
D03*
X14924D02*
D03*
X29568Y38952D02*
D03*
X20325Y40750D02*
D03*
X19526Y40798D02*
D03*
X19025D02*
D03*
X18524D02*
D03*
X20325Y39400D02*
D03*
Y39900D02*
D03*
X24725Y36760D02*
D03*
X26110Y37175D02*
D03*
X23410Y39977D02*
D03*
X25335Y38737D02*
D03*
X28300Y36460D02*
D03*
X29870Y38377D02*
D03*
X27565Y38110D02*
D03*
X34025Y35990D02*
D03*
X33200Y35930D02*
D03*
X32235Y38570D02*
D03*
X30985Y36420D02*
D03*
X28785Y37270D02*
D03*
X41904Y41900D02*
D03*
X36420Y42875D02*
D03*
X41904Y42401D02*
D03*
X43100Y41400D02*
D03*
X38304Y41900D02*
D03*
X26850Y42150D02*
D03*
X34125Y47350D02*
D03*
X33625D02*
D03*
X32170Y46930D02*
D03*
X33675Y49000D02*
D03*
X34175D02*
D03*
X38450Y48575D02*
D03*
X38950D02*
D03*
X37150D02*
D03*
X37650D02*
D03*
X36050Y46825D02*
D03*
X36075Y47975D02*
D03*
Y48475D02*
D03*
X36050Y46325D02*
D03*
X13850Y45300D02*
D03*
Y44800D02*
D03*
Y44000D02*
D03*
X20385Y45750D02*
D03*
Y46575D02*
D03*
X21400Y43525D02*
D03*
X17395Y44790D02*
D03*
X13850Y43500D02*
D03*
X19951Y53623D02*
D03*
X19450D02*
D03*
X18850Y48290D02*
D03*
X27524Y55425D02*
D03*
X28025D02*
D03*
X28526D02*
D03*
X25674D02*
D03*
X26175D02*
D03*
X26676D02*
D03*
X24826D02*
D03*
X24325D02*
D03*
X21251Y53623D02*
D03*
X20750D02*
D03*
X22551D02*
D03*
X22050D02*
D03*
X24276Y51123D02*
D03*
X23775D02*
D03*
X23824Y55425D02*
D03*
X24675Y46975D02*
D03*
X25325D02*
D03*
X30150Y45450D02*
D03*
Y43800D02*
D03*
X28500D02*
D03*
X23008Y44625D02*
D03*
X21450Y47348D02*
D03*
X26850Y43800D02*
D03*
Y45450D02*
D03*
X39525Y54575D02*
D03*
X40025D02*
D03*
X41050Y48575D02*
D03*
X41550D02*
D03*
X39750D02*
D03*
X40250D02*
D03*
X23250Y48800D02*
D03*
Y49300D02*
D03*
X31670Y47700D02*
D03*
X29800Y48400D02*
D03*
X28225Y48775D02*
D03*
X31575Y48773D02*
D03*
X24850Y49323D02*
D03*
X26675Y49850D02*
D03*
X27175D02*
D03*
X24850Y48823D02*
D03*
X29100Y51225D02*
D03*
X29763D02*
D03*
X29784Y49027D02*
D03*
X31150Y51033D02*
D03*
X38250Y54575D02*
D03*
X38750D02*
D03*
X36975D02*
D03*
X37475D02*
D03*
X35700D02*
D03*
X36200D02*
D03*
X33280Y43875D02*
D03*
X30960Y37380D02*
D03*
X32235Y39530D02*
D03*
X26165Y36510D02*
D03*
X31850Y34840D02*
D03*
X28240Y34680D02*
D03*
X30285D02*
D03*
X26165Y35550D02*
D03*
X27600Y34640D02*
D03*
X25500Y35610D02*
D03*
X24722Y34610D02*
D03*
X28500Y42150D02*
D03*
X13850Y42200D02*
D03*
X21924Y41202D02*
D03*
X22425D02*
D03*
X21400Y43025D02*
D03*
X13850Y42700D02*
D03*
X20325Y41250D02*
D03*
X14126Y40798D02*
D03*
X13625D02*
D03*
X30150Y42150D02*
D03*
X24188Y42562D02*
D03*
X36420Y42375D02*
D03*
X40104Y42401D02*
D03*
Y41900D02*
D03*
X38304Y42401D02*
D03*
X34635Y37550D02*
D03*
X32590Y37490D02*
D03*
X34575Y41850D02*
D03*
X34075D02*
D03*
X32815Y41397D02*
D03*
X32772Y42100D02*
D03*
X35245Y36460D02*
D03*
X13124Y40798D02*
D03*
X26800Y33125D02*
D03*
X29325Y44625D02*
D03*
X27675D02*
D03*
X28500Y45450D02*
D03*
X29325Y42975D02*
D03*
X27675D02*
D03*
D93*
X112495Y37710D02*
D03*
Y35210D02*
D03*
X118428Y30350D02*
D03*
X112495Y32710D02*
D03*
Y40210D02*
D03*
X111715Y50340D02*
D03*
X2175Y830D02*
D03*
X4600D02*
D03*
X7050D02*
D03*
X9875D02*
D03*
X12900D02*
D03*
X15825D02*
D03*
X825Y1625D02*
D03*
Y3225D02*
D03*
Y4775D02*
D03*
Y6500D02*
D03*
X3600Y78750D02*
D03*
X825Y77825D02*
D03*
Y75500D02*
D03*
Y70575D02*
D03*
X95000Y78775D02*
D03*
X92500D02*
D03*
X115411D02*
D03*
X112911D02*
D03*
X110086D02*
D03*
X97586D02*
D03*
X100086D02*
D03*
X102586D02*
D03*
X105086D02*
D03*
X107586D02*
D03*
X51925D02*
D03*
X49425D02*
D03*
X89486D02*
D03*
X86986D02*
D03*
X84486D02*
D03*
X79836D02*
D03*
X77336D02*
D03*
X74836D02*
D03*
X72336D02*
D03*
X69836D02*
D03*
X82336D02*
D03*
X67011D02*
D03*
X54511D02*
D03*
X57011D02*
D03*
X59511D02*
D03*
X62011D02*
D03*
X64511D02*
D03*
X21436D02*
D03*
X18936D02*
D03*
X16436D02*
D03*
X13936D02*
D03*
X11436D02*
D03*
X23936D02*
D03*
X39261D02*
D03*
X26761D02*
D03*
X29261D02*
D03*
X31761D02*
D03*
X34261D02*
D03*
X36761D02*
D03*
X41411D02*
D03*
X43911D02*
D03*
X46411D02*
D03*
X28386Y830D02*
D03*
X25886D02*
D03*
X23386D02*
D03*
X20886D02*
D03*
X18386D02*
D03*
X30886D02*
D03*
X46211D02*
D03*
X33711D02*
D03*
X36211D02*
D03*
X38711D02*
D03*
X41211D02*
D03*
X43711D02*
D03*
X48361D02*
D03*
X50861D02*
D03*
X53361D02*
D03*
X107300D02*
D03*
X104000Y805D02*
D03*
X101286D02*
D03*
X96311Y830D02*
D03*
X93811D02*
D03*
X91311D02*
D03*
X88811D02*
D03*
X86311D02*
D03*
X98811D02*
D03*
X81661D02*
D03*
X79161D02*
D03*
X76661D02*
D03*
X74161D02*
D03*
X71661D02*
D03*
X84161D02*
D03*
X118625Y2850D02*
D03*
Y5350D02*
D03*
Y7850D02*
D03*
Y10350D02*
D03*
Y12850D02*
D03*
X109425Y830D02*
D03*
X111725D02*
D03*
X113975D02*
D03*
X116325D02*
D03*
X118625D02*
D03*
Y15350D02*
D03*
Y17850D02*
D03*
Y20350D02*
D03*
Y22850D02*
D03*
Y25350D02*
D03*
Y27850D02*
D03*
Y62850D02*
D03*
Y65350D02*
D03*
Y67850D02*
D03*
Y70350D02*
D03*
Y72850D02*
D03*
Y55350D02*
D03*
Y57850D02*
D03*
Y60350D02*
D03*
Y77850D02*
D03*
Y75350D02*
D03*
X825Y23475D02*
D03*
Y25975D02*
D03*
Y28475D02*
D03*
Y30975D02*
D03*
Y33475D02*
D03*
Y8475D02*
D03*
Y10975D02*
D03*
Y13475D02*
D03*
Y15975D02*
D03*
Y18475D02*
D03*
Y20975D02*
D03*
Y35975D02*
D03*
Y73500D02*
D03*
Y66000D02*
D03*
Y68500D02*
D03*
X6350Y78775D02*
D03*
X8850D02*
D03*
X6800Y27975D02*
D03*
X23575Y34600D02*
D03*
X42656Y44024D02*
D03*
X37800Y38525D02*
D03*
X53329Y32955D02*
D03*
X47189Y44713D02*
D03*
X21490Y34600D02*
D03*
X22500D02*
D03*
X42575Y65995D02*
D03*
X50389Y33869D02*
D03*
X68777Y54958D02*
D03*
X49725Y31600D02*
D03*
X47672Y29202D02*
D03*
X48200Y34420D02*
D03*
X47112Y33546D02*
D03*
X46975Y30500D02*
D03*
X47125Y34425D02*
D03*
X47625Y36300D02*
D03*
X50450Y60275D02*
D03*
Y63575D02*
D03*
X45995Y47305D02*
D03*
X53800Y23875D02*
D03*
X53467Y26550D02*
D03*
X51350Y21475D02*
D03*
X54175Y63500D02*
D03*
X54195Y60275D02*
D03*
X42252Y38285D02*
D03*
X41577D02*
D03*
X14637Y36823D02*
D03*
X13912D02*
D03*
X14637Y37498D02*
D03*
X13912D02*
D03*
X13187D02*
D03*
Y36823D02*
D03*
X19700Y46198D02*
D03*
X16298Y46890D02*
D03*
X15623D02*
D03*
X16298Y46165D02*
D03*
X15623D02*
D03*
X18850Y51523D02*
D03*
Y50848D02*
D03*
Y50173D02*
D03*
X18175D02*
D03*
Y50848D02*
D03*
Y51523D02*
D03*
X19702Y45473D02*
D03*
X42535Y51865D02*
D03*
X29100Y52950D02*
D03*
X42656Y45374D02*
D03*
Y44699D02*
D03*
X43326Y44729D02*
D03*
Y45404D02*
D03*
X41473Y44713D02*
D03*
X40798D02*
D03*
X40123D02*
D03*
Y44038D02*
D03*
X40798D02*
D03*
X41473D02*
D03*
X43326Y44054D02*
D03*
X35350Y34945D02*
D03*
X42252Y37560D02*
D03*
X41577D02*
D03*
X32365Y58430D02*
D03*
X45533Y44683D02*
D03*
X12276Y44465D02*
D03*
X12251Y41802D02*
D03*
Y40902D02*
D03*
X12276Y45365D02*
D03*
X6348Y43576D02*
D03*
Y40914D02*
D03*
Y44476D02*
D03*
X12276Y43565D02*
D03*
X6348Y45376D02*
D03*
Y40014D02*
D03*
X11387Y33647D02*
D03*
X12251Y40002D02*
D03*
X6348Y41814D02*
D03*
X44087Y30462D02*
D03*
X43063Y27050D02*
D03*
X45909Y29117D02*
D03*
X75500Y62900D02*
D03*
X73575Y57875D02*
D03*
X73884Y55227D02*
D03*
X56293Y30993D02*
D03*
X825Y51000D02*
D03*
Y48500D02*
D03*
Y46000D02*
D03*
Y43500D02*
D03*
Y41000D02*
D03*
Y38500D02*
D03*
Y63500D02*
D03*
Y61000D02*
D03*
Y58500D02*
D03*
Y56000D02*
D03*
Y53500D02*
D03*
X68836Y830D02*
D03*
X56336D02*
D03*
X58836D02*
D03*
X61336D02*
D03*
X63836D02*
D03*
X66336D02*
D03*
X51631Y33875D02*
D03*
X49475Y33855D02*
D03*
X48806D02*
D03*
X77675Y57800D02*
D03*
X81600Y57950D02*
D03*
X69284Y30569D02*
D03*
X65956Y28400D02*
D03*
X67730Y28759D02*
D03*
X68584Y30569D02*
D03*
X81475Y55405D02*
D03*
X78550Y56630D02*
D03*
X77250D02*
D03*
X76975Y57805D02*
D03*
X75925Y57145D02*
D03*
Y57880D02*
D03*
X78350Y59055D02*
D03*
X77575Y59080D02*
D03*
X79450Y58930D02*
D03*
X78375Y57705D02*
D03*
X75675Y54605D02*
D03*
D95*
X65400Y43450D02*
D03*
Y44000D02*
D03*
X65260Y41050D02*
D03*
Y41600D02*
D03*
X65275Y38725D02*
D03*
Y39275D02*
D03*
X64300Y43425D02*
D03*
Y43975D02*
D03*
X64850D02*
D03*
Y43425D02*
D03*
X66255Y36850D02*
D03*
Y36300D02*
D03*
X60351Y41655D02*
D03*
Y41105D02*
D03*
X60160Y43395D02*
D03*
Y43945D02*
D03*
X60915Y41105D02*
D03*
Y41655D02*
D03*
X61476Y41081D02*
D03*
Y41631D02*
D03*
X62038Y41657D02*
D03*
Y41107D02*
D03*
X61350Y43450D02*
D03*
Y44000D02*
D03*
X61900Y43450D02*
D03*
Y44000D02*
D03*
X60800Y43450D02*
D03*
Y44000D02*
D03*
X63162Y41057D02*
D03*
Y41607D02*
D03*
X64083Y41306D02*
D03*
Y41856D02*
D03*
X64705Y41579D02*
D03*
Y41029D02*
D03*
X62600Y40925D02*
D03*
Y41475D02*
D03*
X62592Y39603D02*
D03*
Y39053D02*
D03*
X64607Y39247D02*
D03*
Y38697D02*
D03*
X63714Y39486D02*
D03*
Y40036D02*
D03*
X63154Y39672D02*
D03*
Y39122D02*
D03*
X63200Y43925D02*
D03*
Y43375D02*
D03*
X62650Y43455D02*
D03*
Y44005D02*
D03*
X63750Y43475D02*
D03*
Y44025D02*
D03*
X64900Y44885D02*
D03*
Y45435D02*
D03*
X63400Y45500D02*
D03*
Y44950D02*
D03*
X64305Y45202D02*
D03*
Y45752D02*
D03*
X59805Y39625D02*
D03*
Y39075D02*
D03*
X60355D02*
D03*
Y39625D02*
D03*
X60905Y39148D02*
D03*
Y39698D02*
D03*
X61467Y39074D02*
D03*
Y39624D02*
D03*
X62030Y39133D02*
D03*
Y39683D02*
D03*
X66225Y38800D02*
D03*
Y39350D02*
D03*
X56800Y45550D02*
D03*
Y46100D02*
D03*
X57375Y45550D02*
D03*
Y46100D02*
D03*
X59609Y44406D02*
D03*
Y43856D02*
D03*
X56064Y38198D02*
D03*
Y38748D02*
D03*
X57350Y44875D02*
D03*
Y44325D02*
D03*
X56696Y44880D02*
D03*
Y44330D02*
D03*
X65500Y45433D02*
D03*
Y44883D02*
D03*
X59050Y44300D02*
D03*
Y44850D02*
D03*
D96*
X78516Y55665D02*
D03*
D97*
X66300Y42975D02*
D03*
Y42375D02*
D03*
X59425Y40300D02*
D03*
Y40900D02*
D03*
D98*
X47673Y40623D02*
D03*
Y42523D02*
D03*
X49873Y41573D02*
D03*
D99*
X67000Y29675D02*
D03*
Y31075D02*
D03*
D100*
X78055Y61562D02*
D03*
X80195D02*
D03*
D101*
X62072Y42497D02*
Y42558D01*
X62184Y42677D02*
X62283Y42776D01*
Y44241D01*
X62072Y42558D02*
X62184Y42670D01*
X62186Y44338D02*
Y44612D01*
Y44338D02*
X62283Y44241D01*
X62184Y42670D02*
Y42677D01*
X61162Y45672D02*
X61175Y45660D01*
X61350Y45366D02*
Y45390D01*
X61175Y45565D02*
X61350Y45390D01*
X61000Y45925D02*
X61162Y45763D01*
Y45672D02*
Y45763D01*
X61175Y45565D02*
Y45660D01*
X61362Y45435D02*
X62186Y44612D01*
X61000Y45925D02*
Y46010D01*
X60968Y46042D02*
Y46188D01*
Y46042D02*
X61000Y46010D01*
X60850Y46305D02*
X60968Y46188D01*
X60413Y46305D02*
X60850D01*
X60389Y46357D02*
X60411Y46380D01*
X60375Y46344D02*
X60389Y46357D01*
Y46765D01*
X60452Y46829D01*
X60375Y46344D02*
X60413Y46305D01*
X60411Y46380D02*
X60485D01*
M02*
