G04*
G04 #@! TF.GenerationSoftware,Altium Limited,Altium Designer,24.0.1 (36)*
G04*
G04 Layer_Color=128*
%FSLAX43Y43*%
%MOMM*%
G71*
G04*
G04 #@! TF.SameCoordinates,62AF21CF-6A65-4154-AE07-A74382C3AF13*
G04*
G04*
G04 #@! TF.FilePolarity,Positive*
G04*
G01*
G75*
%ADD110C,0.051*%
D110*
X46925Y46475D02*
X47425D01*
X47175Y46225D02*
Y46725D01*
X48175Y46475D02*
X48675D01*
X48425Y46225D02*
Y46725D01*
X92713Y43661D02*
X92913D01*
X92813Y43561D02*
Y43761D01*
X103018Y49370D02*
X103268D01*
X103143Y49245D02*
Y49495D01*
X100375Y40990D02*
X100625D01*
X100500Y40865D02*
Y41115D01*
X84641Y41379D02*
X84891D01*
X84766Y41254D02*
Y41504D01*
X83655Y41398D02*
X83905D01*
X83780Y41273D02*
Y41523D01*
X110151Y43405D02*
X110401D01*
X110276Y43280D02*
Y43530D01*
X67275Y41280D02*
X67475D01*
X67375Y41180D02*
Y41380D01*
X76719Y29925D02*
X76969D01*
X76844Y29800D02*
Y30050D01*
X97350Y30350D02*
X97600D01*
X97475Y30225D02*
Y30475D01*
X91109Y54385D02*
X91359D01*
X91234Y54260D02*
Y54510D01*
X84975Y54256D02*
X85225D01*
X85100Y54131D02*
Y54381D01*
X29655Y61900D02*
X29905D01*
X29780Y61775D02*
Y62025D01*
X67840Y45755D02*
X68040D01*
X67940Y45655D02*
Y45855D01*
X96993Y53124D02*
X97243D01*
X97118Y52999D02*
Y53249D01*
X97979Y53126D02*
X98229D01*
X98104Y53001D02*
Y53251D01*
X67779Y41842D02*
X67979D01*
X67879Y41742D02*
Y41942D01*
X67779Y39790D02*
X67979D01*
X67879Y39690D02*
Y39890D01*
X67860Y40831D02*
X68060D01*
X67960Y40731D02*
Y40931D01*
X67360Y40305D02*
X67560D01*
X67460Y40205D02*
Y40405D01*
X67775Y43770D02*
X67975D01*
X67875Y43670D02*
Y43870D01*
X82853Y35604D02*
X83103D01*
X82978Y35479D02*
Y35729D01*
X82053Y35604D02*
X82303D01*
X82178Y35479D02*
Y35729D01*
X83653Y35604D02*
X83903D01*
X83778Y35479D02*
Y35729D01*
X87653Y35604D02*
X87903D01*
X87778Y35479D02*
Y35729D01*
X80453Y35604D02*
X80703D01*
X80578Y35479D02*
Y35729D01*
X81253Y35604D02*
X81503D01*
X81378Y35479D02*
Y35729D01*
X86853Y35604D02*
X87103D01*
X86978Y35479D02*
Y35729D01*
X84453Y35604D02*
X84703D01*
X84578Y35479D02*
Y35729D01*
X85253Y35604D02*
X85503D01*
X85378Y35479D02*
Y35729D01*
X82963Y41406D02*
X83213D01*
X83088Y41281D02*
Y41531D01*
X82853Y39604D02*
X83103D01*
X82978Y39479D02*
Y39729D01*
X82315Y41403D02*
X82565D01*
X82440Y41278D02*
Y41528D01*
X83653Y40404D02*
X83903D01*
X83778Y40279D02*
Y40529D01*
X83653Y39604D02*
X83903D01*
X83778Y39479D02*
Y39729D01*
X82853Y40404D02*
X83103D01*
X82978Y40279D02*
Y40529D01*
X90453Y41354D02*
X90703D01*
X90578Y41229D02*
Y41479D01*
X91653Y40404D02*
X91903D01*
X91778Y40279D02*
Y40529D01*
X90853Y38804D02*
X91103D01*
X90978Y38679D02*
Y38929D01*
X91653Y41204D02*
X91903D01*
X91778Y41079D02*
Y41329D01*
X89653Y41354D02*
X89903D01*
X89778Y41229D02*
Y41479D01*
X90053Y38804D02*
X90303D01*
X90178Y38679D02*
Y38929D01*
X79528Y39779D02*
X79778D01*
X79653Y39654D02*
Y39904D01*
X80653Y41429D02*
X80903D01*
X80778Y41304D02*
Y41554D01*
X81253Y40404D02*
X81503D01*
X81378Y40279D02*
Y40529D01*
X80453Y40404D02*
X80703D01*
X80578Y40279D02*
Y40529D01*
X80053Y41429D02*
X80303D01*
X80178Y41304D02*
Y41554D01*
X81253Y39604D02*
X81503D01*
X81378Y39479D02*
Y39729D01*
X80453Y39604D02*
X80703D01*
X80578Y39479D02*
Y39729D01*
X79503Y39179D02*
X79753D01*
X79628Y39054D02*
Y39304D01*
X88853Y41354D02*
X89103D01*
X88978Y41229D02*
Y41479D01*
X85250Y39615D02*
X85500D01*
X85375Y39490D02*
Y39740D01*
X86853Y41354D02*
X87103D01*
X86978Y41229D02*
Y41479D01*
X87229Y42317D02*
X87479D01*
X87354Y42192D02*
Y42442D01*
X86253Y41354D02*
X86503D01*
X86378Y41229D02*
Y41479D01*
X84453Y39604D02*
X84703D01*
X84578Y39479D02*
Y39729D01*
X85253Y40404D02*
X85503D01*
X85378Y40279D02*
Y40529D01*
X85653Y41379D02*
X85903D01*
X85778Y41254D02*
Y41504D01*
X84453Y40404D02*
X84703D01*
X84578Y40279D02*
Y40529D01*
X102078Y42729D02*
X102328D01*
X102203Y42604D02*
Y42854D01*
X102878Y42729D02*
X103128D01*
X103003Y42604D02*
Y42854D01*
X101278Y41929D02*
X101528D01*
X101403Y41804D02*
Y42054D01*
X101278Y42729D02*
X101528D01*
X101403Y42604D02*
Y42854D01*
X101853Y40929D02*
X102103D01*
X101978Y40804D02*
Y41054D01*
X103253Y40979D02*
X103503D01*
X103378Y40854D02*
Y41104D01*
X102453Y40929D02*
X102703D01*
X102578Y40804D02*
Y41054D01*
X112320Y37710D02*
X112670D01*
X112495Y37535D02*
Y37885D01*
X112320Y35210D02*
X112670D01*
X112495Y35035D02*
Y35385D01*
X118253Y30350D02*
X118603D01*
X118428Y30175D02*
Y30525D01*
X112320Y32710D02*
X112670D01*
X112495Y32535D02*
Y32885D01*
X112320Y40210D02*
X112670D01*
X112495Y40035D02*
Y40385D01*
X91428Y33879D02*
X91678D01*
X91553Y33754D02*
Y34004D01*
X87203Y33854D02*
X87453D01*
X87328Y33729D02*
Y33979D01*
X83653Y34804D02*
X83903D01*
X83778Y34679D02*
Y34929D01*
X90453Y33854D02*
X90703D01*
X90578Y33729D02*
Y33979D01*
X89853Y33854D02*
X90103D01*
X89978Y33729D02*
Y33979D01*
X89253Y33854D02*
X89503D01*
X89378Y33729D02*
Y33979D01*
X82853Y34004D02*
X83103D01*
X82978Y33879D02*
Y34129D01*
X84253Y33854D02*
X84503D01*
X84378Y33729D02*
Y33979D01*
X85603Y33854D02*
X85853D01*
X85728Y33729D02*
Y33979D01*
X84853Y33854D02*
X85103D01*
X84978Y33729D02*
Y33979D01*
X86403Y33854D02*
X86653D01*
X86528Y33729D02*
Y33979D01*
X92603Y34454D02*
X92853D01*
X92728Y34329D02*
Y34579D01*
X92603Y35254D02*
X92853D01*
X92728Y35129D02*
Y35379D01*
X82853Y34804D02*
X83103D01*
X82978Y34679D02*
Y34929D01*
X82053Y34804D02*
X82303D01*
X82178Y34679D02*
Y34929D01*
X106903Y41154D02*
X107153D01*
X107028Y41029D02*
Y41279D01*
X104478Y43579D02*
X104728D01*
X104603Y43454D02*
Y43704D01*
X108078Y40979D02*
X108328D01*
X108203Y40854D02*
Y41104D01*
X104853Y40979D02*
X105103D01*
X104978Y40854D02*
Y41104D01*
X109070Y41004D02*
X109320D01*
X109195Y40879D02*
Y41129D01*
X110228Y41554D02*
X110478D01*
X110353Y41429D02*
Y41679D01*
X105278Y43579D02*
X105528D01*
X105403Y43454D02*
Y43704D01*
X106103Y41904D02*
X106353D01*
X106228Y41779D02*
Y42029D01*
X104053Y40979D02*
X104303D01*
X104178Y40854D02*
Y41104D01*
X110228Y42354D02*
X110478D01*
X110353Y42229D02*
Y42479D01*
X101803Y35854D02*
X102053D01*
X101928Y35729D02*
Y35979D01*
X103703Y35854D02*
X103953D01*
X103828Y35729D02*
Y35979D01*
X107803Y35704D02*
X108053D01*
X107928Y35579D02*
Y35829D01*
X95803Y36329D02*
X96053D01*
X95928Y36204D02*
Y36454D01*
X105603Y35854D02*
X105853D01*
X105728Y35729D02*
Y35979D01*
X99903Y35854D02*
X100153D01*
X100028Y35729D02*
Y35979D01*
X98003Y35854D02*
X98253D01*
X98128Y35729D02*
Y35979D01*
X97297Y36585D02*
X97547D01*
X97422Y36460D02*
Y36710D01*
X96403Y36304D02*
X96653D01*
X96528Y36179D02*
Y36429D01*
X98078Y42729D02*
X98328D01*
X98203Y42604D02*
Y42854D01*
X98078Y41929D02*
X98328D01*
X98203Y41804D02*
Y42054D01*
X99678Y41929D02*
X99928D01*
X99803Y41804D02*
Y42054D01*
X98878Y41929D02*
X99128D01*
X99003Y41804D02*
Y42054D01*
X92453Y40404D02*
X92703D01*
X92578Y40279D02*
Y40529D01*
X99678Y42729D02*
X99928D01*
X99803Y42604D02*
Y42854D01*
X100478Y42729D02*
X100728D01*
X100603Y42604D02*
Y42854D01*
X98878Y42729D02*
X99128D01*
X99003Y42604D02*
Y42854D01*
X100478Y41929D02*
X100728D01*
X100603Y41804D02*
Y42054D01*
X98027Y41071D02*
X98277D01*
X98152Y40946D02*
Y41196D01*
X97295Y40520D02*
X97545D01*
X97420Y40395D02*
Y40645D01*
X97278Y41929D02*
X97528D01*
X97403Y41804D02*
Y42054D01*
X81253Y34804D02*
X81503D01*
X81378Y34679D02*
Y34929D01*
X79653Y34804D02*
X79903D01*
X79778Y34679D02*
Y34929D01*
X73064Y33206D02*
X73314D01*
X73189Y33081D02*
Y33331D01*
X80453Y34804D02*
X80703D01*
X80578Y34679D02*
Y34929D01*
X80333Y33939D02*
X80583D01*
X80458Y33814D02*
Y34064D01*
X79716Y33017D02*
X79966D01*
X79841Y32892D02*
Y33142D01*
X72464Y33206D02*
X72714D01*
X72589Y33081D02*
Y33331D01*
X108478Y45929D02*
X108728D01*
X108603Y45804D02*
Y46054D01*
X107678Y45929D02*
X107928D01*
X107803Y45804D02*
Y46054D01*
X97128Y46304D02*
X97378D01*
X97253Y46179D02*
Y46429D01*
X97153Y46904D02*
X97403D01*
X97278Y46779D02*
Y47029D01*
X109278Y47529D02*
X109528D01*
X109403Y47404D02*
Y47654D01*
X110303Y53354D02*
X110553D01*
X110428Y53229D02*
Y53479D01*
X106928Y53329D02*
X107178D01*
X107053Y53204D02*
Y53454D01*
X109278Y48329D02*
X109528D01*
X109403Y48204D02*
Y48454D01*
X107288Y48470D02*
X107538D01*
X107413Y48345D02*
Y48595D01*
X110078Y47529D02*
X110328D01*
X110203Y47404D02*
Y47654D01*
X106078Y48329D02*
X106328D01*
X106203Y48204D02*
Y48454D01*
X108088Y48479D02*
X108338D01*
X108213Y48354D02*
Y48604D01*
X108828Y53329D02*
X109078D01*
X108953Y53204D02*
Y53454D01*
X102878Y46729D02*
X103128D01*
X103003Y46604D02*
Y46854D01*
X102878Y47529D02*
X103128D01*
X103003Y47404D02*
Y47654D01*
X102078Y46729D02*
X102328D01*
X102203Y46604D02*
Y46854D01*
X102078Y47529D02*
X102328D01*
X102203Y47404D02*
Y47654D01*
X101278Y47529D02*
X101528D01*
X101403Y47404D02*
Y47654D01*
X98078Y47529D02*
X98328D01*
X98203Y47404D02*
Y47654D01*
X100478Y46729D02*
X100728D01*
X100603Y46604D02*
Y46854D01*
X101278Y46729D02*
X101528D01*
X101403Y46604D02*
Y46854D01*
X98878Y46729D02*
X99128D01*
X99003Y46604D02*
Y46854D01*
X98078Y46729D02*
X98328D01*
X98203Y46604D02*
Y46854D01*
X100478Y47529D02*
X100728D01*
X100603Y47404D02*
Y47654D01*
X98878Y47529D02*
X99128D01*
X99003Y47404D02*
Y47654D01*
X112845Y46460D02*
X113045D01*
X112945Y46360D02*
Y46560D01*
X97487Y48556D02*
X97737D01*
X97612Y48431D02*
Y48681D01*
X111928Y53379D02*
X112178D01*
X112053Y53254D02*
Y53504D01*
X103478Y48479D02*
X103728D01*
X103603Y48354D02*
Y48604D01*
X104678Y48479D02*
X104928D01*
X104803Y48354D02*
Y48604D01*
X104078Y48479D02*
X104328D01*
X104203Y48354D02*
Y48604D01*
X101367Y48517D02*
X101617D01*
X101492Y48392D02*
Y48642D01*
X111540Y50340D02*
X111890D01*
X111715Y50165D02*
Y50515D01*
X105028Y53329D02*
X105278D01*
X105153Y53204D02*
Y53454D01*
X103235Y53352D02*
X103485D01*
X103360Y53227D02*
Y53477D01*
X100735Y48517D02*
X100985D01*
X100860Y48392D02*
Y48642D01*
X100033Y48517D02*
X100283D01*
X100158Y48392D02*
Y48642D01*
X102358Y48523D02*
X102608D01*
X102483Y48398D02*
Y48648D01*
X98116Y48522D02*
X98366D01*
X98241Y48397D02*
Y48647D01*
X65770Y43910D02*
X65970D01*
X65870Y43810D02*
Y44010D01*
X67860Y44825D02*
X68060D01*
X67960Y44725D02*
Y44925D01*
X67371Y44421D02*
X67571D01*
X67471Y44321D02*
Y44521D01*
X66871Y43921D02*
X67071D01*
X66971Y43821D02*
Y44021D01*
X66867Y44749D02*
X67067D01*
X66967Y44649D02*
Y44849D01*
X66679Y45921D02*
X66879D01*
X66779Y45821D02*
Y46021D01*
X66035Y43486D02*
X66235D01*
X66135Y43386D02*
Y43586D01*
X65650Y43000D02*
X65850D01*
X65750Y42900D02*
Y43100D01*
X67340Y43333D02*
X67540D01*
X67440Y43233D02*
Y43433D01*
X67816Y42821D02*
X68016D01*
X67916Y42721D02*
Y42921D01*
X67250Y45240D02*
X67450D01*
X67350Y45140D02*
Y45340D01*
X65700Y45915D02*
X65900D01*
X65800Y45815D02*
Y46015D01*
X65278Y46319D02*
X65478D01*
X65378Y46219D02*
Y46419D01*
X66768Y41766D02*
X66968D01*
X66868Y41666D02*
Y41866D01*
X65655Y44415D02*
X65855D01*
X65755Y44315D02*
Y44515D01*
X66160Y40398D02*
X66360D01*
X66260Y40298D02*
Y40498D01*
X65440Y40075D02*
X65640D01*
X65540Y39975D02*
Y40175D01*
X66370Y38230D02*
X66570D01*
X66470Y38130D02*
Y38330D01*
X66264Y41244D02*
X66464D01*
X66364Y41144D02*
Y41344D01*
X66772Y40750D02*
X66972D01*
X66872Y40650D02*
Y40850D01*
X66180Y46420D02*
X66380D01*
X66280Y46320D02*
Y46520D01*
X67860Y37825D02*
X68060D01*
X67960Y37725D02*
Y37925D01*
X67680Y35420D02*
X67880D01*
X67780Y35320D02*
Y35520D01*
X67860Y36825D02*
X68060D01*
X67960Y36725D02*
Y36925D01*
X67266Y42334D02*
X67466D01*
X67366Y42234D02*
Y42434D01*
X67835Y38805D02*
X68035D01*
X67935Y38705D02*
Y38905D01*
X66773Y38817D02*
X66973D01*
X66873Y38717D02*
Y38917D01*
X67272Y39271D02*
X67472D01*
X67372Y39171D02*
Y39371D01*
X67302Y36335D02*
X67502D01*
X67402Y36235D02*
Y36435D01*
X66812Y37895D02*
X67012D01*
X66912Y37795D02*
Y37995D01*
X66265Y37330D02*
X66465D01*
X66365Y37230D02*
Y37430D01*
X2000Y830D02*
X2350D01*
X2175Y655D02*
Y1005D01*
X4425Y830D02*
X4775D01*
X4600Y655D02*
Y1005D01*
X6875Y830D02*
X7225D01*
X7050Y655D02*
Y1005D01*
X9700Y830D02*
X10050D01*
X9875Y655D02*
Y1005D01*
X12725Y830D02*
X13075D01*
X12900Y655D02*
Y1005D01*
X15650Y830D02*
X16000D01*
X15825Y655D02*
Y1005D01*
X650Y1625D02*
X1000D01*
X825Y1450D02*
Y1800D01*
X650Y3225D02*
X1000D01*
X825Y3050D02*
Y3400D01*
X650Y4775D02*
X1000D01*
X825Y4600D02*
Y4950D01*
X650Y6500D02*
X1000D01*
X825Y6325D02*
Y6675D01*
X3425Y78750D02*
X3775D01*
X3600Y78575D02*
Y78925D01*
X650Y77825D02*
X1000D01*
X825Y77650D02*
Y78000D01*
X650Y75500D02*
X1000D01*
X825Y75325D02*
Y75675D01*
X650Y70575D02*
X1000D01*
X825Y70400D02*
Y70750D01*
X94825Y78775D02*
X95175D01*
X95000Y78600D02*
Y78950D01*
X92325Y78775D02*
X92675D01*
X92500Y78600D02*
Y78950D01*
X115236Y78775D02*
X115586D01*
X115411Y78600D02*
Y78950D01*
X112736Y78775D02*
X113086D01*
X112911Y78600D02*
Y78950D01*
X109911Y78775D02*
X110261D01*
X110086Y78600D02*
Y78950D01*
X97411Y78775D02*
X97761D01*
X97586Y78600D02*
Y78950D01*
X99911Y78775D02*
X100261D01*
X100086Y78600D02*
Y78950D01*
X102411Y78775D02*
X102761D01*
X102586Y78600D02*
Y78950D01*
X104911Y78775D02*
X105261D01*
X105086Y78600D02*
Y78950D01*
X107411Y78775D02*
X107761D01*
X107586Y78600D02*
Y78950D01*
X51750Y78775D02*
X52100D01*
X51925Y78600D02*
Y78950D01*
X49250Y78775D02*
X49600D01*
X49425Y78600D02*
Y78950D01*
X89311Y78775D02*
X89661D01*
X89486Y78600D02*
Y78950D01*
X86811Y78775D02*
X87161D01*
X86986Y78600D02*
Y78950D01*
X84311Y78775D02*
X84661D01*
X84486Y78600D02*
Y78950D01*
X79661Y78775D02*
X80011D01*
X79836Y78600D02*
Y78950D01*
X77161Y78775D02*
X77511D01*
X77336Y78600D02*
Y78950D01*
X74661Y78775D02*
X75011D01*
X74836Y78600D02*
Y78950D01*
X72161Y78775D02*
X72511D01*
X72336Y78600D02*
Y78950D01*
X69661Y78775D02*
X70011D01*
X69836Y78600D02*
Y78950D01*
X82161Y78775D02*
X82511D01*
X82336Y78600D02*
Y78950D01*
X66836Y78775D02*
X67186D01*
X67011Y78600D02*
Y78950D01*
X54336Y78775D02*
X54686D01*
X54511Y78600D02*
Y78950D01*
X56836Y78775D02*
X57186D01*
X57011Y78600D02*
Y78950D01*
X59336Y78775D02*
X59686D01*
X59511Y78600D02*
Y78950D01*
X61836Y78775D02*
X62186D01*
X62011Y78600D02*
Y78950D01*
X64336Y78775D02*
X64686D01*
X64511Y78600D02*
Y78950D01*
X21261Y78775D02*
X21611D01*
X21436Y78600D02*
Y78950D01*
X18761Y78775D02*
X19111D01*
X18936Y78600D02*
Y78950D01*
X16261Y78775D02*
X16611D01*
X16436Y78600D02*
Y78950D01*
X13761Y78775D02*
X14111D01*
X13936Y78600D02*
Y78950D01*
X11261Y78775D02*
X11611D01*
X11436Y78600D02*
Y78950D01*
X23761Y78775D02*
X24111D01*
X23936Y78600D02*
Y78950D01*
X39086Y78775D02*
X39436D01*
X39261Y78600D02*
Y78950D01*
X26586Y78775D02*
X26936D01*
X26761Y78600D02*
Y78950D01*
X29086Y78775D02*
X29436D01*
X29261Y78600D02*
Y78950D01*
X31586Y78775D02*
X31936D01*
X31761Y78600D02*
Y78950D01*
X34086Y78775D02*
X34436D01*
X34261Y78600D02*
Y78950D01*
X36586Y78775D02*
X36936D01*
X36761Y78600D02*
Y78950D01*
X41236Y78775D02*
X41586D01*
X41411Y78600D02*
Y78950D01*
X43736Y78775D02*
X44086D01*
X43911Y78600D02*
Y78950D01*
X46236Y78775D02*
X46586D01*
X46411Y78600D02*
Y78950D01*
X28211Y830D02*
X28561D01*
X28386Y655D02*
Y1005D01*
X25711Y830D02*
X26061D01*
X25886Y655D02*
Y1005D01*
X23211Y830D02*
X23561D01*
X23386Y655D02*
Y1005D01*
X20711Y830D02*
X21061D01*
X20886Y655D02*
Y1005D01*
X18211Y830D02*
X18561D01*
X18386Y655D02*
Y1005D01*
X30711Y830D02*
X31061D01*
X30886Y655D02*
Y1005D01*
X46036Y830D02*
X46386D01*
X46211Y655D02*
Y1005D01*
X33536Y830D02*
X33886D01*
X33711Y655D02*
Y1005D01*
X36036Y830D02*
X36386D01*
X36211Y655D02*
Y1005D01*
X38536Y830D02*
X38886D01*
X38711Y655D02*
Y1005D01*
X41036Y830D02*
X41386D01*
X41211Y655D02*
Y1005D01*
X43536Y830D02*
X43886D01*
X43711Y655D02*
Y1005D01*
X48186Y830D02*
X48536D01*
X48361Y655D02*
Y1005D01*
X50686Y830D02*
X51036D01*
X50861Y655D02*
Y1005D01*
X53186Y830D02*
X53536D01*
X53361Y655D02*
Y1005D01*
X107125Y830D02*
X107475D01*
X107300Y655D02*
Y1005D01*
X103825Y805D02*
X104175D01*
X104000Y630D02*
Y980D01*
X101111Y805D02*
X101461D01*
X101286Y630D02*
Y980D01*
X96136Y830D02*
X96486D01*
X96311Y655D02*
Y1005D01*
X93636Y830D02*
X93986D01*
X93811Y655D02*
Y1005D01*
X91136Y830D02*
X91486D01*
X91311Y655D02*
Y1005D01*
X88636Y830D02*
X88986D01*
X88811Y655D02*
Y1005D01*
X86136Y830D02*
X86486D01*
X86311Y655D02*
Y1005D01*
X98636Y830D02*
X98986D01*
X98811Y655D02*
Y1005D01*
X81486Y830D02*
X81836D01*
X81661Y655D02*
Y1005D01*
X78986Y830D02*
X79336D01*
X79161Y655D02*
Y1005D01*
X76486Y830D02*
X76836D01*
X76661Y655D02*
Y1005D01*
X73986Y830D02*
X74336D01*
X74161Y655D02*
Y1005D01*
X71486Y830D02*
X71836D01*
X71661Y655D02*
Y1005D01*
X83986Y830D02*
X84336D01*
X84161Y655D02*
Y1005D01*
X118450Y2850D02*
X118800D01*
X118625Y2675D02*
Y3025D01*
X118450Y5350D02*
X118800D01*
X118625Y5175D02*
Y5525D01*
X118450Y7850D02*
X118800D01*
X118625Y7675D02*
Y8025D01*
X118450Y10350D02*
X118800D01*
X118625Y10175D02*
Y10525D01*
X118450Y12850D02*
X118800D01*
X118625Y12675D02*
Y13025D01*
X109250Y830D02*
X109600D01*
X109425Y655D02*
Y1005D01*
X111550Y830D02*
X111900D01*
X111725Y655D02*
Y1005D01*
X113800Y830D02*
X114150D01*
X113975Y655D02*
Y1005D01*
X116150Y830D02*
X116500D01*
X116325Y655D02*
Y1005D01*
X118450Y830D02*
X118800D01*
X118625Y655D02*
Y1005D01*
X118450Y15350D02*
X118800D01*
X118625Y15175D02*
Y15525D01*
X118450Y17850D02*
X118800D01*
X118625Y17675D02*
Y18025D01*
X118450Y20350D02*
X118800D01*
X118625Y20175D02*
Y20525D01*
X118450Y22850D02*
X118800D01*
X118625Y22675D02*
Y23025D01*
X118450Y25350D02*
X118800D01*
X118625Y25175D02*
Y25525D01*
X118450Y27850D02*
X118800D01*
X118625Y27675D02*
Y28025D01*
X118450Y62850D02*
X118800D01*
X118625Y62675D02*
Y63025D01*
X118450Y65350D02*
X118800D01*
X118625Y65175D02*
Y65525D01*
X118450Y67850D02*
X118800D01*
X118625Y67675D02*
Y68025D01*
X118450Y70350D02*
X118800D01*
X118625Y70175D02*
Y70525D01*
X118450Y72850D02*
X118800D01*
X118625Y72675D02*
Y73025D01*
X118450Y55350D02*
X118800D01*
X118625Y55175D02*
Y55525D01*
X118450Y57850D02*
X118800D01*
X118625Y57675D02*
Y58025D01*
X118450Y60350D02*
X118800D01*
X118625Y60175D02*
Y60525D01*
X118450Y77850D02*
X118800D01*
X118625Y77675D02*
Y78025D01*
X118450Y75350D02*
X118800D01*
X118625Y75175D02*
Y75525D01*
X650Y23475D02*
X1000D01*
X825Y23300D02*
Y23650D01*
X650Y25975D02*
X1000D01*
X825Y25800D02*
Y26150D01*
X650Y28475D02*
X1000D01*
X825Y28300D02*
Y28650D01*
X650Y30975D02*
X1000D01*
X825Y30800D02*
Y31150D01*
X650Y33475D02*
X1000D01*
X825Y33300D02*
Y33650D01*
X650Y8475D02*
X1000D01*
X825Y8300D02*
Y8650D01*
X650Y10975D02*
X1000D01*
X825Y10800D02*
Y11150D01*
X650Y13475D02*
X1000D01*
X825Y13300D02*
Y13650D01*
X650Y15975D02*
X1000D01*
X825Y15800D02*
Y16150D01*
X650Y18475D02*
X1000D01*
X825Y18300D02*
Y18650D01*
X650Y20975D02*
X1000D01*
X825Y20800D02*
Y21150D01*
X650Y35975D02*
X1000D01*
X825Y35800D02*
Y36150D01*
X58775Y45900D02*
X58975D01*
X58875Y45800D02*
Y46000D01*
X59350Y46325D02*
X59550D01*
X59450Y46225D02*
Y46425D01*
X650Y73500D02*
X1000D01*
X825Y73325D02*
Y73675D01*
X650Y66000D02*
X1000D01*
X825Y65825D02*
Y66175D01*
X650Y68500D02*
X1000D01*
X825Y68325D02*
Y68675D01*
X6175Y78775D02*
X6525D01*
X6350Y78600D02*
Y78950D01*
X8675Y78775D02*
X9025D01*
X8850Y78600D02*
Y78950D01*
X28140Y35580D02*
X28340D01*
X28240Y35480D02*
Y35680D01*
X6625Y27975D02*
X6975D01*
X6800Y27800D02*
Y28150D01*
X46375Y16550D02*
X46575D01*
X46475Y16450D02*
Y16650D01*
X23400Y34600D02*
X23750D01*
X23575Y34425D02*
Y34775D01*
X42481Y44024D02*
X42831D01*
X42656Y43849D02*
Y44199D01*
X37625Y38525D02*
X37975D01*
X37800Y38350D02*
Y38700D01*
X52925Y35875D02*
X53125D01*
X53025Y35775D02*
Y35975D01*
X53154Y32955D02*
X53504D01*
X53329Y32780D02*
Y33130D01*
X54949Y30165D02*
X55149D01*
X55049Y30065D02*
Y30265D01*
X55046Y34494D02*
X55246D01*
X55146Y34394D02*
Y34594D01*
X52741Y36352D02*
X52941D01*
X52841Y36252D02*
Y36452D01*
X60289Y30112D02*
X60489D01*
X60389Y30012D02*
Y30212D01*
X42315Y36154D02*
X42515D01*
X42415Y36054D02*
Y36254D01*
X58862Y30112D02*
X59062D01*
X58962Y30012D02*
Y30212D01*
X43651Y50580D02*
X43851D01*
X43751Y50480D02*
Y50680D01*
X50385Y44466D02*
X50585D01*
X50485Y44366D02*
Y44566D01*
X47014Y44713D02*
X47364D01*
X47189Y44538D02*
Y44888D01*
X48058Y39500D02*
X48258D01*
X48158Y39400D02*
Y39600D01*
X21315Y34600D02*
X21665D01*
X21490Y34425D02*
Y34775D01*
X22325Y34600D02*
X22675D01*
X22500Y34425D02*
Y34775D01*
X54832Y38744D02*
X55032D01*
X54932Y38644D02*
Y38844D01*
X61250Y45350D02*
X61450D01*
X61350Y45250D02*
Y45450D01*
X42400Y65995D02*
X42750D01*
X42575Y65820D02*
Y66170D01*
X50214Y33869D02*
X50564D01*
X50389Y33694D02*
Y34044D01*
X48705Y38061D02*
X48905D01*
X48805Y37961D02*
Y38161D01*
X44330Y41000D02*
X44530D01*
X44430Y40900D02*
Y41100D01*
X68602Y54958D02*
X68952D01*
X68777Y54783D02*
Y55133D01*
X49550Y31600D02*
X49900D01*
X49725Y31425D02*
Y31775D01*
X47497Y29202D02*
X47847D01*
X47672Y29027D02*
Y29377D01*
X47975Y31550D02*
X48175D01*
X48075Y31450D02*
Y31650D01*
X48025Y34420D02*
X48375D01*
X48200Y34245D02*
Y34595D01*
X46937Y33546D02*
X47287D01*
X47112Y33371D02*
Y33721D01*
X46800Y30500D02*
X47150D01*
X46975Y30325D02*
Y30675D01*
X46950Y34425D02*
X47300D01*
X47125Y34250D02*
Y34600D01*
X47450Y36300D02*
X47800D01*
X47625Y36125D02*
Y36475D01*
X54594Y47600D02*
X54794D01*
X54694Y47500D02*
Y47700D01*
X50275Y60275D02*
X50625D01*
X50450Y60100D02*
Y60450D01*
X50275Y63575D02*
X50625D01*
X50450Y63400D02*
Y63750D01*
X45820Y47305D02*
X46170D01*
X45995Y47130D02*
Y47480D01*
X53625Y23875D02*
X53975D01*
X53800Y23700D02*
Y24050D01*
X53292Y26550D02*
X53642D01*
X53467Y26375D02*
Y26725D01*
X51175Y21475D02*
X51525D01*
X51350Y21300D02*
Y21650D01*
X54000Y63500D02*
X54350D01*
X54175Y63325D02*
Y63675D01*
X54020Y60275D02*
X54370D01*
X54195Y60100D02*
Y60450D01*
X15826Y40798D02*
X16026D01*
X15926Y40698D02*
Y40898D01*
X15325Y40798D02*
X15525D01*
X15425Y40698D02*
Y40898D01*
X17626Y40798D02*
X17826D01*
X17726Y40698D02*
Y40898D01*
X17125Y40798D02*
X17325D01*
X17225Y40698D02*
Y40898D01*
X16624Y40798D02*
X16824D01*
X16724Y40698D02*
Y40898D01*
X14824Y40798D02*
X15024D01*
X14924Y40698D02*
Y40898D01*
X29468Y38952D02*
X29668D01*
X29568Y38852D02*
Y39052D01*
X20225Y40750D02*
X20425D01*
X20325Y40650D02*
Y40850D01*
X19426Y40798D02*
X19626D01*
X19526Y40698D02*
Y40898D01*
X18925Y40798D02*
X19125D01*
X19025Y40698D02*
Y40898D01*
X42077Y38285D02*
X42427D01*
X42252Y38110D02*
Y38460D01*
X41402Y38285D02*
X41752D01*
X41577Y38110D02*
Y38460D01*
X18424Y40798D02*
X18624D01*
X18524Y40698D02*
Y40898D01*
X20225Y39400D02*
X20425D01*
X20325Y39300D02*
Y39500D01*
X20225Y39900D02*
X20425D01*
X20325Y39800D02*
Y40000D01*
X24625Y36760D02*
X24825D01*
X24725Y36660D02*
Y36860D01*
X14462Y36823D02*
X14812D01*
X14637Y36648D02*
Y36998D01*
X13738Y36823D02*
X14087D01*
X13912Y36648D02*
Y36998D01*
X14462Y37498D02*
X14812D01*
X14637Y37323D02*
Y37673D01*
X26010Y37175D02*
X26210D01*
X26110Y37075D02*
Y37275D01*
X23310Y39977D02*
X23510D01*
X23410Y39877D02*
Y40077D01*
X25235Y38737D02*
X25435D01*
X25335Y38637D02*
Y38837D01*
X28200Y36460D02*
X28400D01*
X28300Y36361D02*
Y36561D01*
X13738Y37498D02*
X14087D01*
X13912Y37323D02*
Y37673D01*
X29770Y38377D02*
X29970D01*
X29870Y38277D02*
Y38477D01*
X27465Y38110D02*
X27665D01*
X27565Y38010D02*
Y38210D01*
X33925Y35990D02*
X34125D01*
X34025Y35890D02*
Y36090D01*
X33100Y35930D02*
X33300D01*
X33200Y35830D02*
Y36030D01*
X32135Y38570D02*
X32335D01*
X32235Y38470D02*
Y38670D01*
X30885Y36420D02*
X31085D01*
X30985Y36320D02*
Y36520D01*
X28685Y37270D02*
X28885D01*
X28785Y37170D02*
Y37370D01*
X41804Y41900D02*
X42004D01*
X41904Y41800D02*
Y42000D01*
X36320Y42875D02*
X36520D01*
X36420Y42775D02*
Y42975D01*
X41804Y42401D02*
X42004D01*
X41904Y42301D02*
Y42501D01*
X43000Y41400D02*
X43200D01*
X43100Y41300D02*
Y41500D01*
X13012Y37498D02*
X13362D01*
X13187Y37323D02*
Y37673D01*
X13012Y36823D02*
X13362D01*
X13187Y36648D02*
Y36998D01*
X38204Y41900D02*
X38404D01*
X38304Y41800D02*
Y42000D01*
X26750Y42150D02*
X26950D01*
X26850Y42050D02*
Y42250D01*
X34025Y47350D02*
X34225D01*
X34125Y47250D02*
Y47450D01*
X33525Y47350D02*
X33725D01*
X33625Y47250D02*
Y47450D01*
X32070Y46930D02*
X32270D01*
X32170Y46830D02*
Y47030D01*
X33575Y49000D02*
X33775D01*
X33675Y48900D02*
Y49100D01*
X34075Y49000D02*
X34275D01*
X34175Y48900D02*
Y49100D01*
X38350Y48575D02*
X38550D01*
X38450Y48475D02*
Y48675D01*
X38850Y48575D02*
X39050D01*
X38950Y48475D02*
Y48675D01*
X37050Y48575D02*
X37250D01*
X37150Y48475D02*
Y48675D01*
X37550Y48575D02*
X37750D01*
X37650Y48475D02*
Y48675D01*
X35950Y46825D02*
X36150D01*
X36050Y46725D02*
Y46925D01*
X35975Y47975D02*
X36175D01*
X36075Y47875D02*
Y48075D01*
X35975Y48475D02*
X36175D01*
X36075Y48375D02*
Y48575D01*
X35950Y46325D02*
X36150D01*
X36050Y46225D02*
Y46425D01*
X19525Y46198D02*
X19875D01*
X19700Y46023D02*
Y46373D01*
X13750Y45300D02*
X13950D01*
X13850Y45200D02*
Y45400D01*
X13750Y44800D02*
X13950D01*
X13850Y44700D02*
Y44900D01*
X13750Y44000D02*
X13950D01*
X13850Y43900D02*
Y44100D01*
X16123Y46890D02*
X16473D01*
X16298Y46715D02*
Y47065D01*
X15448Y46890D02*
X15798D01*
X15623Y46715D02*
Y47065D01*
X16123Y46165D02*
X16473D01*
X16298Y45990D02*
Y46340D01*
X20285Y45750D02*
X20485D01*
X20385Y45650D02*
Y45850D01*
X20285Y46575D02*
X20485D01*
X20385Y46475D02*
Y46675D01*
X21300Y43525D02*
X21500D01*
X21400Y43425D02*
Y43625D01*
X17295Y44790D02*
X17495D01*
X17395Y44690D02*
Y44890D01*
X15448Y46165D02*
X15798D01*
X15623Y45990D02*
Y46340D01*
X13750Y43500D02*
X13950D01*
X13850Y43400D02*
Y43600D01*
X19851Y53623D02*
X20051D01*
X19951Y53523D02*
Y53723D01*
X19350Y53623D02*
X19550D01*
X19450Y53523D02*
Y53723D01*
X18675Y51523D02*
X19025D01*
X18850Y51348D02*
Y51698D01*
X18675Y50848D02*
X19025D01*
X18850Y50673D02*
Y51023D01*
X18675Y50173D02*
X19025D01*
X18850Y49998D02*
Y50348D01*
X18000Y50173D02*
X18350D01*
X18175Y49998D02*
Y50348D01*
X18000Y50848D02*
X18350D01*
X18175Y50673D02*
Y51023D01*
X18000Y51523D02*
X18350D01*
X18175Y51348D02*
Y51698D01*
X18750Y48290D02*
X18950D01*
X18850Y48190D02*
Y48390D01*
X27424Y55425D02*
X27624D01*
X27524Y55325D02*
Y55525D01*
X27925Y55425D02*
X28125D01*
X28025Y55325D02*
Y55525D01*
X28426Y55425D02*
X28626D01*
X28526Y55325D02*
Y55525D01*
X25574Y55425D02*
X25774D01*
X25674Y55325D02*
Y55525D01*
X26075Y55425D02*
X26275D01*
X26175Y55325D02*
Y55525D01*
X26576Y55425D02*
X26776D01*
X26676Y55325D02*
Y55525D01*
X24726Y55425D02*
X24926D01*
X24826Y55325D02*
Y55525D01*
X24225Y55425D02*
X24425D01*
X24325Y55325D02*
Y55525D01*
X21151Y53623D02*
X21351D01*
X21251Y53523D02*
Y53723D01*
X20650Y53623D02*
X20850D01*
X20750Y53523D02*
Y53723D01*
X22451Y53623D02*
X22651D01*
X22551Y53523D02*
Y53723D01*
X21950Y53623D02*
X22150D01*
X22050Y53523D02*
Y53723D01*
X24176Y51123D02*
X24376D01*
X24276Y51023D02*
Y51223D01*
X23675Y51123D02*
X23875D01*
X23775Y51023D02*
Y51223D01*
X23724Y55425D02*
X23924D01*
X23824Y55325D02*
Y55525D01*
X24575Y46975D02*
X24775D01*
X24675Y46875D02*
Y47075D01*
X25225Y46975D02*
X25425D01*
X25325Y46875D02*
Y47075D01*
X30050Y45450D02*
X30250D01*
X30150Y45350D02*
Y45550D01*
X30050Y43800D02*
X30250D01*
X30150Y43700D02*
Y43900D01*
X28400Y43800D02*
X28600D01*
X28500Y43700D02*
Y43900D01*
X22908Y44625D02*
X23108D01*
X23008Y44525D02*
Y44725D01*
X21350Y47348D02*
X21550D01*
X21450Y47248D02*
Y47448D01*
X19527Y45473D02*
X19877D01*
X19702Y45298D02*
Y45648D01*
X26750Y43800D02*
X26950D01*
X26850Y43700D02*
Y43900D01*
X26750Y45450D02*
X26950D01*
X26850Y45350D02*
Y45550D01*
X39425Y54575D02*
X39625D01*
X39525Y54475D02*
Y54675D01*
X39925Y54575D02*
X40125D01*
X40025Y54475D02*
Y54675D01*
X40950Y48575D02*
X41150D01*
X41050Y48475D02*
Y48675D01*
X41450Y48575D02*
X41650D01*
X41550Y48475D02*
Y48675D01*
X39650Y48575D02*
X39850D01*
X39750Y48475D02*
Y48675D01*
X40150Y48575D02*
X40350D01*
X40250Y48475D02*
Y48675D01*
X42360Y51865D02*
X42710D01*
X42535Y51690D02*
Y52040D01*
X23150Y48800D02*
X23350D01*
X23250Y48700D02*
Y48900D01*
X23150Y49300D02*
X23350D01*
X23250Y49200D02*
Y49400D01*
X31570Y47700D02*
X31770D01*
X31670Y47600D02*
Y47800D01*
X29700Y48400D02*
X29900D01*
X29800Y48300D02*
Y48500D01*
X28125Y48775D02*
X28325D01*
X28225Y48675D02*
Y48875D01*
X31475Y48773D02*
X31675D01*
X31575Y48673D02*
Y48873D01*
X28925Y52950D02*
X29275D01*
X29100Y52775D02*
Y53125D01*
X24750Y49323D02*
X24950D01*
X24850Y49223D02*
Y49423D01*
X26575Y49850D02*
X26775D01*
X26675Y49750D02*
Y49950D01*
X27075Y49850D02*
X27275D01*
X27175Y49750D02*
Y49950D01*
X24750Y48823D02*
X24950D01*
X24850Y48723D02*
Y48923D01*
X29000Y51225D02*
X29200D01*
X29100Y51125D02*
Y51325D01*
X29663Y51225D02*
X29862D01*
X29763Y51125D02*
Y51325D01*
X29684Y49027D02*
X29884D01*
X29784Y48927D02*
Y49127D01*
X31050Y51033D02*
X31250D01*
X31150Y50933D02*
Y51133D01*
X38150Y54575D02*
X38350D01*
X38250Y54475D02*
Y54675D01*
X38650Y54575D02*
X38850D01*
X38750Y54475D02*
Y54675D01*
X36875Y54575D02*
X37075D01*
X36975Y54475D02*
Y54675D01*
X37375Y54575D02*
X37575D01*
X37475Y54475D02*
Y54675D01*
X35600Y54575D02*
X35800D01*
X35700Y54475D02*
Y54675D01*
X36100Y54575D02*
X36300D01*
X36200Y54475D02*
Y54675D01*
X33180Y43875D02*
X33380D01*
X33280Y43775D02*
Y43975D01*
X42481Y45374D02*
X42831D01*
X42656Y45199D02*
Y45549D01*
X42481Y44699D02*
X42831D01*
X42656Y44524D02*
Y44874D01*
X43151Y44729D02*
X43501D01*
X43326Y44554D02*
Y44904D01*
X43151Y45404D02*
X43501D01*
X43326Y45229D02*
Y45579D01*
X41298Y44713D02*
X41648D01*
X41473Y44538D02*
Y44888D01*
X40623Y44713D02*
X40973D01*
X40798Y44538D02*
Y44888D01*
X39948Y44713D02*
X40298D01*
X40123Y44538D02*
Y44888D01*
X39948Y44038D02*
X40298D01*
X40123Y43863D02*
Y44213D01*
X40623Y44038D02*
X40973D01*
X40798Y43863D02*
Y44213D01*
X41298Y44038D02*
X41648D01*
X41473Y43863D02*
Y44213D01*
X43151Y44054D02*
X43501D01*
X43326Y43879D02*
Y44229D01*
X30860Y37380D02*
X31060D01*
X30960Y37280D02*
Y37480D01*
X32135Y39530D02*
X32335D01*
X32235Y39430D02*
Y39630D01*
X26065Y36510D02*
X26265D01*
X26165Y36410D02*
Y36610D01*
X31750Y34840D02*
X31950D01*
X31850Y34740D02*
Y34940D01*
X28140Y34680D02*
X28340D01*
X28240Y34580D02*
Y34780D01*
X30185Y34680D02*
X30385D01*
X30285Y34580D02*
Y34780D01*
X26065Y35550D02*
X26265D01*
X26165Y35450D02*
Y35650D01*
X27500Y34640D02*
X27700D01*
X27600Y34540D02*
Y34740D01*
X25400Y35610D02*
X25600D01*
X25500Y35510D02*
Y35710D01*
X24622Y34610D02*
X24822D01*
X24722Y34510D02*
Y34710D01*
X28400Y42150D02*
X28600D01*
X28500Y42050D02*
Y42250D01*
X13750Y42200D02*
X13950D01*
X13850Y42100D02*
Y42300D01*
X21824Y41202D02*
X22024D01*
X21924Y41102D02*
Y41302D01*
X22325Y41202D02*
X22525D01*
X22425Y41102D02*
Y41302D01*
X21300Y43025D02*
X21500D01*
X21400Y42925D02*
Y43125D01*
X13750Y42700D02*
X13950D01*
X13850Y42600D02*
Y42800D01*
X20225Y41250D02*
X20425D01*
X20325Y41150D02*
Y41350D01*
X14026Y40798D02*
X14226D01*
X14126Y40698D02*
Y40898D01*
X13525Y40798D02*
X13725D01*
X13625Y40698D02*
Y40898D01*
X30050Y42150D02*
X30250D01*
X30150Y42050D02*
Y42250D01*
X24087Y42562D02*
X24288D01*
X24188Y42463D02*
Y42662D01*
X36320Y42375D02*
X36520D01*
X36420Y42275D02*
Y42475D01*
X40004Y42401D02*
X40204D01*
X40104Y42301D02*
Y42501D01*
X40004Y41900D02*
X40204D01*
X40104Y41800D02*
Y42000D01*
X38204Y42401D02*
X38404D01*
X38304Y42301D02*
Y42501D01*
X35175Y34945D02*
X35525D01*
X35350Y34770D02*
Y35120D01*
X34535Y37550D02*
X34735D01*
X34635Y37450D02*
Y37650D01*
X42077Y37560D02*
X42427D01*
X42252Y37385D02*
Y37735D01*
X41402Y37560D02*
X41752D01*
X41577Y37385D02*
Y37735D01*
X32490Y37490D02*
X32690D01*
X32590Y37390D02*
Y37590D01*
X34475Y41850D02*
X34675D01*
X34575Y41750D02*
Y41950D01*
X33975Y41850D02*
X34175D01*
X34075Y41750D02*
Y41950D01*
X32715Y41397D02*
X32915D01*
X32815Y41297D02*
Y41497D01*
X32672Y42100D02*
X32872D01*
X32772Y42000D02*
Y42200D01*
X32190Y58430D02*
X32540D01*
X32365Y58255D02*
Y58605D01*
X45358Y44683D02*
X45708D01*
X45533Y44508D02*
Y44858D01*
X43800Y33000D02*
X44000D01*
X43900Y32900D02*
Y33100D01*
X43802Y36305D02*
X44002D01*
X43902Y36205D02*
Y36405D01*
X43802Y34655D02*
X44002D01*
X43902Y34555D02*
Y34755D01*
X35145Y36460D02*
X35345D01*
X35245Y36360D02*
Y36560D01*
X13024Y40798D02*
X13224D01*
X13124Y40698D02*
Y40898D01*
X12101Y44465D02*
X12451D01*
X12276Y44290D02*
Y44640D01*
X12076Y41802D02*
X12426D01*
X12251Y41627D02*
Y41977D01*
X12076Y40902D02*
X12426D01*
X12251Y40727D02*
Y41077D01*
X12101Y45365D02*
X12451D01*
X12276Y45190D02*
Y45540D01*
X6173Y43576D02*
X6523D01*
X6348Y43401D02*
Y43751D01*
X6173Y40914D02*
X6523D01*
X6348Y40739D02*
Y41089D01*
X6173Y44476D02*
X6523D01*
X6348Y44301D02*
Y44651D01*
X12101Y43565D02*
X12451D01*
X12276Y43390D02*
Y43740D01*
X6173Y45376D02*
X6523D01*
X6348Y45201D02*
Y45551D01*
X6173Y40014D02*
X6523D01*
X6348Y39839D02*
Y40189D01*
X11212Y33647D02*
X11562D01*
X11387Y33472D02*
Y33822D01*
X12076Y40002D02*
X12426D01*
X12251Y39827D02*
Y40177D01*
X6173Y41814D02*
X6523D01*
X6348Y41639D02*
Y41989D01*
X42451Y31633D02*
X42651D01*
X42551Y31533D02*
Y31733D01*
X26700Y33125D02*
X26900D01*
X26800Y33025D02*
Y33225D01*
X27775Y58675D02*
X27975D01*
X27875Y58575D02*
Y58775D01*
X21575Y60437D02*
X21775D01*
X21675Y60337D02*
Y60537D01*
X43912Y30462D02*
X44262D01*
X44087Y30287D02*
Y30637D01*
X42888Y27050D02*
X43238D01*
X43063Y26875D02*
Y27225D01*
X45734Y29117D02*
X46084D01*
X45909Y28942D02*
Y29292D01*
X29225Y44625D02*
X29425D01*
X29325Y44525D02*
Y44725D01*
X27575Y44625D02*
X27775D01*
X27675Y44525D02*
Y44725D01*
X28400Y45450D02*
X28600D01*
X28500Y45350D02*
Y45550D01*
X29225Y42975D02*
X29425D01*
X29325Y42875D02*
Y43075D01*
X27575Y42975D02*
X27775D01*
X27675Y42875D02*
Y43075D01*
X46775Y36825D02*
X46975D01*
X46875Y36725D02*
Y36925D01*
X46225Y36825D02*
X46425D01*
X46325Y36725D02*
Y36925D01*
X45725Y36825D02*
X45925D01*
X45825Y36725D02*
Y36925D01*
X50900Y31586D02*
X51100D01*
X51000Y31486D02*
Y31686D01*
X58225Y39355D02*
X58425D01*
X58325Y39255D02*
Y39455D01*
X58300Y42275D02*
X58500D01*
X58400Y42175D02*
Y42375D01*
X58775Y41750D02*
X58975D01*
X58875Y41650D02*
Y41850D01*
X58180Y41421D02*
X58380D01*
X58280Y41321D02*
Y41521D01*
X57772Y36740D02*
X57972D01*
X57872Y36640D02*
Y36840D01*
X57690Y40850D02*
X57890D01*
X57790Y40750D02*
Y40950D01*
X59925Y38600D02*
X60125D01*
X60025Y38500D02*
Y38700D01*
X59310Y41410D02*
X59510D01*
X59410Y41310D02*
Y41510D01*
X59750Y41650D02*
X59950D01*
X59850Y41550D02*
Y41750D01*
X57690Y41825D02*
X57890D01*
X57790Y41725D02*
Y41925D01*
X60098Y40638D02*
X60298D01*
X60198Y40538D02*
Y40738D01*
X57690Y39875D02*
X57890D01*
X57790Y39775D02*
Y39975D01*
X58825Y38775D02*
X59025D01*
X58925Y38675D02*
Y38875D01*
X59375Y38325D02*
X59575D01*
X59475Y38225D02*
Y38425D01*
X60458Y44442D02*
X60658D01*
X60558Y44342D02*
Y44542D01*
X62550Y41975D02*
X62750D01*
X62650Y41875D02*
Y42075D01*
X61625Y44505D02*
X61825D01*
X61725Y44405D02*
Y44605D01*
X60431Y42990D02*
X60631D01*
X60531Y42890D02*
Y43090D01*
X61972Y42497D02*
X62172D01*
X62072Y42397D02*
Y42597D01*
X45700Y38125D02*
X45900D01*
X45800Y38025D02*
Y38225D01*
X45200Y38125D02*
X45400D01*
X45300Y38025D02*
Y38225D01*
X44700Y38125D02*
X44900D01*
X44800Y38025D02*
Y38225D01*
X43800Y37120D02*
X44000D01*
X43900Y37020D02*
Y37220D01*
X44300Y37120D02*
X44500D01*
X44400Y37020D02*
Y37220D01*
X60275Y45350D02*
X60475D01*
X60375Y45250D02*
Y45450D01*
X60690Y44885D02*
X60890D01*
X60790Y44785D02*
Y44985D01*
X61000Y44490D02*
X61200D01*
X61100Y44390D02*
Y44590D01*
X60850Y37800D02*
X61050D01*
X60950Y37700D02*
Y37900D01*
X61200Y36240D02*
X61400D01*
X61300Y36140D02*
Y36340D01*
X61775Y36740D02*
X61975D01*
X61875Y36640D02*
Y36840D01*
X60741Y36854D02*
X60941D01*
X60841Y36754D02*
Y36954D01*
X63285Y37265D02*
X63485D01*
X63385Y37165D02*
Y37365D01*
X63800Y36775D02*
X64000D01*
X63900Y36675D02*
Y36875D01*
X64275Y36240D02*
X64475D01*
X64375Y36140D02*
Y36340D01*
X62275Y37240D02*
X62475D01*
X62375Y37140D02*
Y37340D01*
X62775Y36740D02*
X62975D01*
X62875Y36640D02*
Y36840D01*
X63275Y36240D02*
X63475D01*
X63375Y36140D02*
Y36340D01*
X62775Y37760D02*
X62975D01*
X62875Y37660D02*
Y37860D01*
X61930Y38675D02*
X62130D01*
X62030Y38575D02*
Y38775D01*
X62506Y44480D02*
X62706D01*
X62606Y44380D02*
Y44580D01*
X62620Y42980D02*
X62820D01*
X62720Y42880D02*
Y43080D01*
X64450Y44448D02*
X64650D01*
X64550Y44348D02*
Y44548D01*
X64775Y45910D02*
X64975D01*
X64875Y45810D02*
Y46010D01*
X63110Y42575D02*
X63310D01*
X63210Y42475D02*
Y42675D01*
X60275Y46344D02*
X60475D01*
X60375Y46244D02*
Y46444D01*
X65680Y36730D02*
X65880D01*
X65780Y36630D02*
Y36830D01*
X66775Y36900D02*
X66975D01*
X66875Y36800D02*
Y37000D01*
X65870Y38260D02*
X66070D01*
X65970Y38160D02*
Y38360D01*
X65275Y36240D02*
X65475D01*
X65375Y36140D02*
Y36340D01*
X64940Y42572D02*
X65140D01*
X65040Y42472D02*
Y42672D01*
X60110Y42575D02*
X60310D01*
X60210Y42475D02*
Y42675D01*
X59190Y42375D02*
X59390D01*
X59290Y42275D02*
Y42475D01*
X65903Y31546D02*
X66103D01*
X66003Y31446D02*
Y31646D01*
X65869Y37735D02*
X66069D01*
X65969Y37635D02*
Y37835D01*
X69668Y34197D02*
X69868D01*
X69768Y34097D02*
Y34297D01*
X59889Y37735D02*
X60089D01*
X59989Y37634D02*
Y37834D01*
X75325Y62900D02*
X75675D01*
X75500Y62725D02*
Y63075D01*
X73400Y57875D02*
X73750D01*
X73575Y57700D02*
Y58050D01*
X73709Y55227D02*
X74059D01*
X73884Y55052D02*
Y55402D01*
X56118Y30993D02*
X56468D01*
X56293Y30818D02*
Y31168D01*
X64525Y42983D02*
X64725D01*
X64625Y42883D02*
Y43083D01*
X62275Y36240D02*
X62475D01*
X62375Y36140D02*
Y36340D01*
X62275Y45300D02*
X62475D01*
X62375Y45200D02*
Y45400D01*
X57762Y44875D02*
X57962D01*
X57862Y44775D02*
Y44975D01*
X57175Y31800D02*
X57375D01*
X57275Y31700D02*
Y31900D01*
X650Y51000D02*
X1000D01*
X825Y50825D02*
Y51175D01*
X650Y48500D02*
X1000D01*
X825Y48325D02*
Y48675D01*
X650Y46000D02*
X1000D01*
X825Y45825D02*
Y46175D01*
X650Y43500D02*
X1000D01*
X825Y43325D02*
Y43675D01*
X650Y41000D02*
X1000D01*
X825Y40825D02*
Y41175D01*
X650Y38500D02*
X1000D01*
X825Y38325D02*
Y38675D01*
X650Y63500D02*
X1000D01*
X825Y63325D02*
Y63675D01*
X650Y61000D02*
X1000D01*
X825Y60825D02*
Y61175D01*
X650Y58500D02*
X1000D01*
X825Y58325D02*
Y58675D01*
X650Y56000D02*
X1000D01*
X825Y55825D02*
Y56175D01*
X650Y53500D02*
X1000D01*
X825Y53325D02*
Y53675D01*
X68661Y830D02*
X69011D01*
X68836Y655D02*
Y1005D01*
X56161Y830D02*
X56511D01*
X56336Y655D02*
Y1005D01*
X58661Y830D02*
X59011D01*
X58836Y655D02*
Y1005D01*
X61161Y830D02*
X61511D01*
X61336Y655D02*
Y1005D01*
X63661Y830D02*
X64011D01*
X63836Y655D02*
Y1005D01*
X66161Y830D02*
X66511D01*
X66336Y655D02*
Y1005D01*
X51456Y33875D02*
X51806D01*
X51631Y33700D02*
Y34050D01*
X49300Y33855D02*
X49650D01*
X49475Y33680D02*
Y34030D01*
X48631Y33855D02*
X48981D01*
X48806Y33680D02*
Y34030D01*
X49789Y39866D02*
X49989D01*
X49889Y39766D02*
Y39966D01*
X61525Y38160D02*
X61725D01*
X61625Y38060D02*
Y38260D01*
X64275Y37350D02*
X64475D01*
X64375Y37250D02*
Y37450D01*
X63800Y37925D02*
X64000D01*
X63900Y37825D02*
Y38025D01*
X64775Y36829D02*
X64975D01*
X64875Y36729D02*
Y36929D01*
X77500Y57800D02*
X77850D01*
X77675Y57625D02*
Y57975D01*
X81425Y57950D02*
X81775D01*
X81600Y57775D02*
Y58125D01*
X79325Y57375D02*
X79525D01*
X79425Y57275D02*
Y57475D01*
X79350Y56685D02*
X79550D01*
X79450Y56585D02*
Y56785D01*
X52075Y41475D02*
X52275D01*
X52175Y41375D02*
Y41575D01*
X52575Y41475D02*
X52775D01*
X52675Y41375D02*
Y41575D01*
X64098Y39575D02*
X64298D01*
X64198Y39475D02*
Y39675D01*
X64525Y40143D02*
X64725D01*
X64625Y40043D02*
Y40243D01*
X49258Y39866D02*
X49458D01*
X49358Y39766D02*
Y39966D01*
X53289Y41170D02*
X53489D01*
X53389Y41070D02*
Y41270D01*
X51931Y42800D02*
X52131D01*
X52031Y42700D02*
Y42900D01*
X54336Y40077D02*
X54536D01*
X54436Y39977D02*
Y40177D01*
X55358Y40070D02*
X55558D01*
X55458Y39970D02*
Y40170D01*
X49225Y35825D02*
X49425D01*
X49325Y35725D02*
Y35925D01*
X61025Y38675D02*
X61225D01*
X61125Y38575D02*
Y38775D01*
X60500Y38175D02*
X60700D01*
X60600Y38075D02*
Y38275D01*
X49375Y38554D02*
X49575D01*
X49475Y38454D02*
Y38654D01*
X65400Y30275D02*
X65600D01*
X65500Y30175D02*
Y30375D01*
X65856Y28986D02*
X66056D01*
X65956Y28886D02*
Y29086D01*
X60308Y32204D02*
X60508D01*
X60408Y32104D02*
Y32304D01*
X53350Y36225D02*
X53550D01*
X53450Y36125D02*
Y36325D01*
X54075Y36225D02*
X54275D01*
X54175Y36125D02*
Y36325D01*
X60275Y30750D02*
X60475D01*
X60375Y30650D02*
Y30850D01*
X65903Y29720D02*
X66103D01*
X66003Y29620D02*
Y29820D01*
X57171Y30195D02*
X57371D01*
X57271Y30095D02*
Y30295D01*
X57171Y30982D02*
X57371D01*
X57271Y30882D02*
Y31082D01*
X60873Y33601D02*
X61073D01*
X60973Y33501D02*
Y33701D01*
X59681Y31175D02*
X59881D01*
X59781Y31075D02*
Y31275D01*
X60860Y31175D02*
X61060D01*
X60960Y31075D02*
Y31275D01*
X60860Y32210D02*
X61060D01*
X60960Y32110D02*
Y32310D01*
X60856Y32765D02*
X61056D01*
X60956Y32665D02*
Y32865D01*
X56856Y32510D02*
X57056D01*
X56956Y32410D02*
Y32610D01*
X69109Y30569D02*
X69459D01*
X69284Y30394D02*
Y30744D01*
X65781Y28400D02*
X66131D01*
X65956Y28225D02*
Y28575D01*
X65899Y30944D02*
X66099D01*
X65999Y30844D02*
Y31044D01*
X67555Y28759D02*
X67905D01*
X67730Y28584D02*
Y28934D01*
X58140Y49865D02*
X58340D01*
X58240Y49765D02*
Y49965D01*
X55775Y47825D02*
X55975D01*
X55875Y47725D02*
Y47925D01*
X55775Y34825D02*
X55975D01*
X55875Y34725D02*
Y34925D01*
X49950Y35897D02*
X50150D01*
X50050Y35797D02*
Y35997D01*
X49950Y38554D02*
X50150D01*
X50050Y38454D02*
Y38654D01*
X52750Y38475D02*
X52950D01*
X52850Y38375D02*
Y38575D01*
X54977Y36225D02*
X55177D01*
X55077Y36125D02*
Y36325D01*
X55450Y38085D02*
X55650D01*
X55550Y37986D02*
Y38186D01*
X68409Y30569D02*
X68759D01*
X68584Y30394D02*
Y30744D01*
X67200Y33588D02*
X67400D01*
X67300Y33488D02*
Y33688D01*
X61525Y42100D02*
X61725D01*
X61625Y42000D02*
Y42200D01*
X61525Y42983D02*
X61725D01*
X61625Y42883D02*
Y43083D01*
X58296Y46369D02*
X58496D01*
X58396Y46269D02*
Y46469D01*
X59831Y45892D02*
X60031D01*
X59931Y45792D02*
Y45992D01*
X58248Y43300D02*
X58448D01*
X58348Y43200D02*
Y43400D01*
X64700Y37750D02*
X64900D01*
X64800Y37650D02*
Y37850D01*
X59369Y37256D02*
X59569D01*
X59469Y37156D02*
Y37356D01*
X58839Y37770D02*
X59039D01*
X58939Y37670D02*
Y37870D01*
X58249Y38315D02*
X58449D01*
X58349Y38215D02*
Y38415D01*
X58758Y40910D02*
X58958D01*
X58858Y40810D02*
Y41010D01*
X59245Y39355D02*
X59445D01*
X59345Y39255D02*
Y39455D01*
X58775Y39910D02*
X58975D01*
X58875Y39810D02*
Y40010D01*
X63647Y38971D02*
X63847D01*
X63747Y38871D02*
Y39071D01*
X61525Y40089D02*
X61725D01*
X61625Y39989D02*
Y40189D01*
X60940Y42575D02*
X61140D01*
X61040Y42475D02*
Y42675D01*
X63917Y42572D02*
X64117D01*
X64017Y42472D02*
Y42672D01*
X63525Y42983D02*
X63725D01*
X63625Y42883D02*
Y43083D01*
X57682Y43812D02*
X57882D01*
X57782Y43713D02*
Y43912D01*
X65706Y40972D02*
X65906D01*
X65806Y40872D02*
Y41072D01*
X64025Y38629D02*
X64225D01*
X64125Y38529D02*
Y38729D01*
X62975Y38650D02*
X63175D01*
X63075Y38550D02*
Y38750D01*
X64950Y40550D02*
X65150D01*
X65050Y40450D02*
Y40650D01*
X61025Y48775D02*
X61225D01*
X61125Y48675D02*
Y48875D01*
X58716Y34213D02*
X58916D01*
X58816Y34113D02*
Y34313D01*
X69662Y48237D02*
X69863D01*
X69762Y48138D02*
Y48338D01*
X57866Y42920D02*
X58066D01*
X57966Y42820D02*
Y43020D01*
X58275Y37350D02*
X58475D01*
X58375Y37250D02*
Y37450D01*
X58775Y36825D02*
X58975D01*
X58875Y36725D02*
Y36925D01*
X65650Y39000D02*
X65850D01*
X65750Y38900D02*
Y39100D01*
X64776Y38245D02*
X64976D01*
X64876Y38145D02*
Y38345D01*
X65050Y39650D02*
X65250D01*
X65150Y39550D02*
Y39750D01*
X60425Y40100D02*
X60625D01*
X60525Y40000D02*
Y40200D01*
X63525Y41100D02*
X63725D01*
X63625Y41000D02*
Y41200D01*
X60992Y40638D02*
X61192D01*
X61092Y40538D02*
Y40738D01*
X62600Y40075D02*
X62800D01*
X62700Y39975D02*
Y40175D01*
X59225Y43400D02*
X59425D01*
X59325Y43300D02*
Y43500D01*
X64025Y40575D02*
X64225D01*
X64125Y40475D02*
Y40675D01*
X60525Y42100D02*
X60725D01*
X60625Y42000D02*
Y42200D01*
X62775Y45725D02*
X62975D01*
X62875Y45625D02*
Y45825D01*
X62300Y46325D02*
X62500D01*
X62400Y46225D02*
Y46425D01*
X61775Y45825D02*
X61975D01*
X61875Y45725D02*
Y45925D01*
X63000Y40575D02*
X63200D01*
X63100Y40475D02*
Y40675D01*
X64525Y42075D02*
X64725D01*
X64625Y41975D02*
Y42175D01*
X63525Y42075D02*
X63725D01*
X63625Y41975D02*
Y42175D01*
X63275Y46250D02*
X63475D01*
X63375Y46150D02*
Y46350D01*
X61275Y46325D02*
X61475D01*
X61375Y46225D02*
Y46425D01*
X57725Y37800D02*
X57925D01*
X57825Y37700D02*
Y37900D01*
X62050Y40625D02*
X62250D01*
X62150Y40525D02*
Y40725D01*
X63750Y45725D02*
X63950D01*
X63850Y45625D02*
Y45825D01*
X58750Y43800D02*
X58950D01*
X58850Y43700D02*
Y43900D01*
X58775Y42740D02*
X58975D01*
X58875Y42640D02*
Y42840D01*
X58275Y44325D02*
X58475D01*
X58375Y44225D02*
Y44425D01*
X57690Y38850D02*
X57890D01*
X57790Y38750D02*
Y38950D01*
X59300Y45375D02*
X59500D01*
X59400Y45275D02*
Y45475D01*
X57800Y45800D02*
X58000D01*
X57900Y45700D02*
Y45900D01*
X63228Y44412D02*
X63428D01*
X63328Y44312D02*
Y44512D01*
X63800Y44825D02*
X64000D01*
X63900Y44725D02*
Y44925D01*
X81300Y55405D02*
X81650D01*
X81475Y55230D02*
Y55580D01*
X81225Y56655D02*
X81425D01*
X81325Y56555D02*
Y56755D01*
X81225Y56155D02*
X81425D01*
X81325Y56055D02*
Y56255D01*
X77825Y56755D02*
X78025D01*
X77925Y56655D02*
Y56855D01*
X78375Y56630D02*
X78725D01*
X78550Y56455D02*
Y56805D01*
X77075Y56630D02*
X77425D01*
X77250Y56455D02*
Y56805D01*
X76800Y57805D02*
X77150D01*
X76975Y57630D02*
Y57980D01*
X75750Y57145D02*
X76100D01*
X75925Y56970D02*
Y57320D01*
X75750Y57880D02*
X76100D01*
X75925Y57705D02*
Y58055D01*
X78175Y59055D02*
X78525D01*
X78350Y58880D02*
Y59230D01*
X77400Y59080D02*
X77750D01*
X77575Y58905D02*
Y59255D01*
X79275Y58930D02*
X79625D01*
X79450Y58755D02*
Y59105D01*
X78200Y57705D02*
X78550D01*
X78375Y57530D02*
Y57880D01*
X75500Y54605D02*
X75850D01*
X75675Y54430D02*
Y54780D01*
M02*
