M48
;Layer_Color=9474304
;FILE_FORMAT=4:3
METRIC,LZ
;TYPE=PLATED
T01F00S00C0.200
T02F00S00C0.250
T03F00S00C0.350
T04F00S00C0.500
%
T01
X0046475Y001655
X0112945Y004646
X0092813Y0043661
X0081325Y0056155
Y0056655
X007945Y0056685
X0079425Y0057375
X0077925Y0056755
X0069762Y0048237
X006794Y0045755
X006796Y0044825
X0067471Y0044421
X0066967Y0044749
X0066971Y0043921
X0067875Y004377
X006744Y0043333
X0067916Y0042821
X0067879Y0041842
X0067366Y0042334
X0067375Y004128
X0066868Y0041766
X0066872Y004075
X006626Y0040398
X0066364Y0041244
X0065806Y0040972
X006554Y0040075
X006515Y003965
X006505Y004055
X0064625Y0040143
X0064125Y0040575
X0063625Y00411
Y0042075
X0064017Y0042572
X0063625Y0042983
X006321Y0042575
X006272Y004298
X006265Y0041975
X0062072Y0042497
X0061625Y00421
X0061625Y0042983
X006104Y0042575
X006021Y0042575
X0060531Y004299
X0060625Y00421
X005985Y004165
X005941Y004141
X0058875Y004175
X0058858Y004091
X0058875Y003991
X0059345Y0039355
X0058925Y0038775
X0059475Y0038325
X0060025Y00386
X0059989Y0037735
X0059469Y0037256
X0058875Y0036825
X0058939Y003777
X0058375Y003735
X0058349Y0038315
X0057825Y00378
X005779Y003885
Y0039875
Y004085
Y0041825
X005828Y0041421
X00584Y0042275
X0058875Y004274
X005929Y0042375
X0059325Y00434
X005885Y00438
X0058375Y0044325
X0058348Y00433
X0057966Y004292
X0057782Y0043812
X0057862Y0044875
X00579Y00458
X0058396Y0046369
X0058875Y00459
X005945Y0046325
X0059931Y0045892
X0060375Y0046344
X0060375Y004535
X006079Y0044885
X0060558Y0044442
X00611Y004449
X0061725Y0044505
X0062606Y004448
X0063328Y0044412
X00639Y0044825
X006385Y0045725
X0062875Y0045725
X0062375Y00453
X0061875Y0045825
X006135Y004535
X0061375Y0046325
X00624
X0063375Y004625
X0064875Y004591
X0065378Y0046319
X00658Y0045915
X0066779Y0045921
X006628Y004642
X006735Y004524
X0065755Y0044415
X006587Y004391
X0066135Y0043486
X006575Y0043
X006504Y0042572
X0064625Y0042983
X0064625Y0042075
X006455Y0044448
X0064198Y0039575
X0064125Y0038629
X0063747Y0038971
X0063075Y003865
X006203Y0038675
X0061125
X0061625Y003816
X006095Y00378
X00606Y0038175
X0060841Y0036854
X00613Y003624
X0061875Y003674
X0062375Y003724
X0062875Y003674
X0063375Y003624
X0062375
X0064375
X0065375
X006578Y003673
X0064875Y0036829
X00648Y003775
X0064876Y0038245
X006597Y003826
X0065969Y0037735
X0066365Y003733
X0066875Y00369
X0066912Y0037895
X006647Y003823
X0066873Y0038817
X0067372Y0039271
X0067879Y003979
X006746Y0040305
X006796Y0040831
X0067935Y0038805
X006796Y0037825
Y0036825
X0067402Y0036335
X006778Y003542
X00673Y0033588
X0069768Y0034197
X0066003Y0031546
X0065999Y0030944
X00655Y0030275
X0066003Y002972
X0065956Y0028986
X0060389Y0030112
X0060375Y003075
X006096Y0031175
Y003221
X0060408Y0032204
X0060956Y0032765
X0060973Y0033601
X0058816Y0034213
X0057872Y003674
X0058325Y0039355
X0060525Y00401
X0060198Y0040638
X0061092
X006215Y0040625
X00631Y0040575
X00627Y0040075
X0061625Y0040089
X0062875Y003776
X0063385Y0037265
X00639Y0036775
X0064375Y003735
X00639Y0037925
X006575Y0039
X005555Y0038085
X0055458Y004007
X0055875Y0034825
X0055146Y0034494
X0056956Y003251
X0057275Y00318
X0057271Y0030982
Y0030195
X0058962Y0030112
X0059781Y0031175
X00594Y0045375
X0061125Y0048775
X005824Y0049865
X0055875Y0047825
X0054694Y00476
X0050485Y0044466
X0052031Y00428
X0052175Y0041475
X0052675
X0053389Y004117
X0054436Y0040077
X0054932Y0038744
X005285Y0038475
X0052841Y0036352
X0053025Y0035875
X005345Y0036225
X0054175
X0055077Y0036225
X005005Y0035897
X0049325Y0035825
X0048805Y0038061
X0049475Y0038554
X005005
X0049889Y0039866
X0049358
X0048158Y00395
X00458Y0038125
X00453
X00448
X00444Y003712
X00439
X0043902Y0036305
X0042415Y0036154
X0043902Y0034655
X00439Y0033
X0042551Y0031633
X0048075Y003155
X0051Y0031586
X0055049Y0030165
X0046875Y0036825
X0046325
X0045825
X004443Y0041
X00431Y00414
X0041904Y00419
Y0042401
X0040104
Y00419
X0038304
Y0042401
X003642Y0042375
Y0042875
X0034575Y004185
X0034075
X0032772Y00421
X0032815Y0041397
X0032235Y003953
Y003857
X003259Y003749
X003096Y003738
X0030985Y003642
X0030285Y003468
X003185Y003484
X00332Y003593
X0034025Y003599
X0035245Y003646
X0034635Y003755
X002987Y0038377
X0029568Y0038952
X0028785Y003727
X00283Y003646
X002824Y003558
Y003468
X00276Y003464
X00268Y0033125
X0026165Y003555
X00255Y003561
X0026165Y003651
X002611Y0037175
X0024725Y003676
X0024722Y003461
X0025335Y0038737
X0027565Y003811
X002685Y004215
X0027675Y0042975
X002685Y00438
X00285
X003015
Y004545
X0029325Y0044625
X00285Y004545
X002685
X0027675Y0044625
X00285Y004215
X003015
X0029325Y0042975
X003328Y0043875
X0033625Y004735
X0034125
X0034175Y0049
X0033675
X0031575Y0048773
X003167Y00477
X003217Y004693
X00298Y00484
X0029784Y0049027
X0028225Y0048775
X0027175Y004985
X0026675
X002485Y0049323
Y0048823
X002325Y00488
Y00493
X0023775Y0051123
X0024276
X0022551Y0053623
X002205
X0021251
X002075
X0019951
X001945
X001885Y004829
X0020385Y0046575
Y004575
X002145Y0047348
X0024675Y0046975
X0025325
X0023008Y0044625
X00214Y0043525
Y0043025
X0021924Y0041202
X0022425
X0020325Y004125
Y004075
X0019526Y0040798
X0019025
X0018524
X0017726
X0017225
X0016724
X0015926
X0020325Y00399
Y00394
X002341Y0039977
X0024188Y0042562
X0017395Y004479
X0023824Y0055425
X0024325
X0024826
X0025674
X0026175
X0026676
X0027524
X0028025
X0028526
X0027875Y0058675
X0021675Y0060437
X00291Y0051225
X0029763
X003115Y0051033
X0036075Y0048475
Y0047975
X003605Y0046825
Y0046325
X003715Y0048575
X003765
X003845
X003895
X003975
X004025
X004105
X004155
X0043751Y005058
X0040025Y0054575
X0039525
X003875
X003825
X0037475
X0036975
X00362
X00357
X001385Y00453
Y00448
Y0044
Y00435
Y00427
Y00422
X0013625Y0040798
X0014126
X0014924
X0015425
X0013124
T02
X0097475Y003035
X0098128Y0035854
X0097422Y0036585
X0096528Y0036304
X0095928Y0036329
X0100028Y0035854
X0101928
X0103828
X0105728
X0107928Y0035704
X0108203Y0040979
X0109195Y0041004
X0110353Y0041554
Y0042354
X0110276Y0043405
X0108603Y0045929
X0107803
X0107413Y004847
X0108213Y0048479
X0109403Y0048329
Y0047529
X0110203
X0106203Y0048329
X0104803Y0048479
X0104203
X0103603
X0102483Y0048523
X0101492Y0048517
X010086
X0100158
X0100603Y0047529
X0101403
X0102203
X0103003
Y0046729
X0102203
X0101403
X0100603
X0099003
X0098203
Y0047529
X0099003
X0098241Y0048522
X0097612Y0048556
X0097278Y0046904
X0097253Y0046304
X0098203Y0042729
Y0041929
X0099003
Y0042729
X0099803
Y0041929
X0100603
Y0042729
X0101403
Y0041929
X0101978Y0040929
X0102578
X0103378Y0040979
X0104178Y0040979
X0104978Y0040979
X0106228Y0041904
X0107028Y0041154
X0105403Y0043579
X0104603
X0103003Y0042729
X0102203
X01005Y004099
X0098152Y0041071
X009742Y004052
X0097403Y0041929
X0097118Y0053124
X0098104Y0053126
X010336Y0053352
X0105153Y0053329
X0107053
X0108953
X0110428Y0053354
X0112053Y0053379
X0103143Y004937
X0091234Y0054385
X00851Y0054256
X0084766Y0041379
X008378Y0041398
X0083088Y0041406
X008244Y0041403
X0082978Y0040404
Y0039604
X0083778
Y0040404
X0084578
Y0039604
X0085375Y0039615
X0085378Y0040404
X0085778Y0041379
X0086378Y0041354
X0086978
X0087354Y0042317
X0088978Y0041354
X0089778
X0090578
X0091778Y0041204
Y0040404
X0092578
X0090978Y0038804
X0090178
X0089978Y0033854
X0089378
X0090578
X0091553Y0033879
X0092728Y0034454
Y0035254
X0087778Y0035604
X0086978
X0085378
X0084578
X0083778
X0082978
X0082178
X0081378
X0080578
Y0034804
X0081378
X0082178
X0082978
X0083778
X0084378Y0033854
X0084978
X0085728
X0086528
X0087328
X0082978Y0034004
X0080458Y0033939
X0079841Y0033017
X0079778Y0034804
X0079628Y0039179
X0079653Y0039779
X0080578Y0039604
Y0040404
X0081378
Y0039604
X0080778Y0041429
X0080178
X0076844Y0029925
X0073189Y0033206
X0072589
X002978Y00619
T03
X0000825Y0001625
Y0003225
Y0004775
Y00065
Y0008475
Y0010975
Y0013475
Y0015975
Y0018475
Y0020975
Y0023475
X0002175Y000083
X00046
X000705
X0009875
X00129
X0015825
X0018386
X0020886
X0023386
X0025886
X0028386
X0030886
X0033711
X0036211
X0038711
X0041211
X0043711
X0046211
X0048361
X0050861
X0053361
X005135Y0021475
X00538Y0023875
X0056336Y000083
X0058836
X0061336
X0063836
X0066336
X0068836
X0071661
X0074161
X0076661
X0079161
X0081661
X0084161
X0086311
X0088811
X0091311
X0093811
X0096311
X0098811
X0101286Y0000805
X0104
X01073Y000083
X0109425
X0111725
X0113975
X0116325
X0118625
Y000285
Y000535
Y000785
Y001035
Y001285
Y001535
Y001785
Y002035
Y002285
Y002535
Y002785
X0118428Y003035
X0112495Y003271
Y003521
Y003771
Y004021
X0111715Y005034
X0118625Y005535
Y005785
Y006035
Y006285
X00816Y005795
X0081475Y0055405
X007855Y005663
X0078375Y0057705
X0077675Y00578
X0076975Y0057805
X0075925Y005788
Y0057145
X007725Y005663
X0077575Y005908
X007835Y0059055
X007945Y005893
X0073575Y0057875
X0073884Y0055227
X0075675Y0054605
X0068777Y0054958
X00755Y00629
X0069284Y0030569
X0068584
X006773Y0028759
X0065956Y00284
X0056293Y0030993
X0053329Y0032955
X0051631Y0033875
X0050389Y0033869
X0049475Y0033855
X0048806
X00482Y003442
X0047125Y0034425
X0047112Y0033546
X0046975Y00305
X0047672Y0029202
X0045909Y0029117
X0044087Y0030462
X0043063Y002705
X0053467Y002655
X0049725Y00316
X0047625Y00363
X0042252Y003756
X0041577
Y0038285
X0042252
X00378Y0038525
X003535Y0034945
X0023575Y00346
X00225
X002149
X0019702Y0045473
X00197Y0046198
X0016298Y0046165
X0015623
Y004689
X0016298
X0018175Y0050173
X001885
Y0050848
Y0051523
X0018175
Y0050848
X00291Y005295
X0032365Y005843
X0042535Y0051865
X0042656Y0045374
Y0044699
Y0044024
X0043326Y0044054
Y0044729
Y0045404
X0041473Y0044713
X0040798
X0040123
Y0044038
X0040798
X0041473
X0045533Y0044683
X0047189Y0044713
X0045995Y0047305
X005045Y0060275
Y0063575
X0054175Y00635
X0054195Y0060275
X0000825Y0061
Y00635
Y00585
Y0056
Y00535
Y0051
Y00485
Y0046
Y00435
Y0041
Y00385
Y0035975
Y0033475
Y0030975
Y0028475
Y0025975
X00068Y0027975
X0011387Y0033647
X0013187Y0036823
Y0037498
X0013912
Y0036823
X0014637
Y0037498
X0012251Y0040002
Y0040902
Y0041802
X0012276Y0043565
Y0044465
Y0045365
X0006348Y0045376
Y0044476
Y0043576
Y0041814
Y0040914
Y0040014
X0000825Y0066
Y00685
Y0070575
Y00735
Y00755
Y0077825
X00036Y007875
X000635Y0078775
X000885
X0011436
X0013936
X0016436
X0018936
X0021436
X0023936
X0026761
X0029261
X0031761
X0034261
X0036761
X0039261
X0041411
X0043911
X0046411
X0049425
X0051925
X0054511
X0042575Y0065995
X0057011Y0078775
X0059511
X0062011
X0064511
X0067011
X0069836
X0072336
X0074836
X0077336
X0079836
X0082336
X0084486
X0086986
X0089486
X00925
X0095
X0097586
X0100086
X0102586
X0105086
X0107586
X0110086
X0112911
X0115411
X0118625Y007785
Y007535
Y007285
Y007035
Y006785
Y006535
T04
X0047175Y0046475
X0048425
M30
