G04*
G04 #@! TF.GenerationSoftware,Altium Limited,Altium Designer,24.0.1 (36)*
G04*
G04 Layer_Color=16711935*
%FSLAX43Y43*%
%MOMM*%
G71*
G04*
G04 #@! TF.SameCoordinates,2B35A735-E746-45F3-9C8E-D4930A679F63*
G04*
G04*
G04 #@! TF.FilePolarity,Negative*
G04*
G01*
G75*
%ADD14R,0.990X0.740*%
%ADD15R,0.660X0.610*%
%ADD31R,0.800X0.610*%
%ADD32R,0.740X0.990*%
%ADD33R,0.610X0.660*%
%ADD35R,0.450X0.450*%
%ADD37R,0.610X0.800*%
%ADD38O,1.100X1.400*%
%ADD39C,0.300*%
%ADD40C,0.450*%
%ADD100R,0.600X0.500*%
%ADD101R,1.500X1.100*%
%ADD102R,0.450X0.450*%
%ADD103R,1.100X0.740*%
%ADD104R,1.160X0.640*%
%ADD105R,0.500X0.600*%
%ADD106C,1.100*%
D14*
X89736Y34315D02*
D03*
Y32915D02*
D03*
D15*
X81630Y45847D02*
D03*
Y44947D02*
D03*
X83461Y44540D02*
D03*
Y45440D02*
D03*
X87036Y47590D02*
D03*
Y48490D02*
D03*
X85111Y44565D02*
D03*
Y45465D02*
D03*
X88711Y33240D02*
D03*
Y34140D02*
D03*
X90736Y40390D02*
D03*
Y39490D02*
D03*
X82261Y34705D02*
D03*
Y33805D02*
D03*
X50485Y42988D02*
D03*
Y43888D02*
D03*
X46382Y42565D02*
D03*
Y43465D02*
D03*
X76615Y59480D02*
D03*
Y58580D02*
D03*
X75260Y56980D02*
D03*
Y57880D02*
D03*
X82015Y56255D02*
D03*
Y57155D02*
D03*
X77027Y55505D02*
D03*
Y54605D02*
D03*
X76110Y56305D02*
D03*
Y55405D02*
D03*
D31*
X78986Y45955D02*
D03*
Y45055D02*
D03*
X46300Y39675D02*
D03*
Y40575D02*
D03*
X28805Y49680D02*
D03*
Y50580D02*
D03*
X29780Y49680D02*
D03*
Y50580D02*
D03*
X67890Y32815D02*
D03*
Y31915D02*
D03*
X74375Y55875D02*
D03*
Y56775D02*
D03*
X80171Y57061D02*
D03*
Y57961D02*
D03*
X80175Y56255D02*
D03*
Y55355D02*
D03*
D32*
X81786Y49415D02*
D03*
X83186D02*
D03*
D33*
X80411Y47180D02*
D03*
X81311D02*
D03*
X82911Y48390D02*
D03*
X82011D02*
D03*
X77575Y59864D02*
D03*
X78475D02*
D03*
D35*
X66171Y35716D02*
D03*
X66721D02*
D03*
X62950Y46787D02*
D03*
X62400D02*
D03*
X60525Y45850D02*
D03*
X61075D02*
D03*
X58900Y45425D02*
D03*
X58350D02*
D03*
X60452Y46829D02*
D03*
X59902D02*
D03*
X65483Y44894D02*
D03*
X66033D02*
D03*
X63850Y46837D02*
D03*
X64400D02*
D03*
X58325Y36331D02*
D03*
X58875D02*
D03*
X67941Y34986D02*
D03*
X67391D02*
D03*
X68440Y33588D02*
D03*
X67890D02*
D03*
X67941Y34367D02*
D03*
X67391D02*
D03*
X66198Y35094D02*
D03*
X66748D02*
D03*
D37*
X48183Y43917D02*
D03*
X49083D02*
D03*
X22400Y33879D02*
D03*
X21500D02*
D03*
X57323Y34723D02*
D03*
X58223D02*
D03*
X80207Y58980D02*
D03*
X81107D02*
D03*
D38*
X47175Y46475D02*
D03*
X48425D02*
D03*
D39*
X81260Y43315D02*
D03*
X87076Y33920D02*
D03*
X86060Y35490D02*
D03*
X89985Y36065D02*
D03*
X88060Y34015D02*
D03*
X88016Y33516D02*
D03*
X86835Y35981D02*
D03*
X86010Y34450D02*
D03*
X86085Y46490D02*
D03*
X85990Y47505D02*
D03*
X86210Y48489D02*
D03*
X86860Y43940D02*
D03*
X87665Y45229D02*
D03*
X86865D02*
D03*
X86860Y45865D02*
D03*
X88460Y45265D02*
D03*
X87661Y48325D02*
D03*
X87659Y47765D02*
D03*
X85990Y44285D02*
D03*
X86010Y43565D02*
D03*
X83574Y42590D02*
D03*
X84479Y44694D02*
D03*
X83660Y43253D02*
D03*
Y46465D02*
D03*
X84380Y46490D02*
D03*
X83659Y43990D02*
D03*
X84509Y45523D02*
D03*
X82860Y42050D02*
D03*
Y43990D02*
D03*
Y42690D02*
D03*
Y43290D02*
D03*
Y44615D02*
D03*
X82835Y47790D02*
D03*
X84515Y48054D02*
D03*
X84374Y42590D02*
D03*
X89972Y45840D02*
D03*
X89260Y38015D02*
D03*
X90160Y44265D02*
D03*
X90060Y42565D02*
D03*
Y43215D02*
D03*
X89260D02*
D03*
X90110Y39640D02*
D03*
X90160Y44915D02*
D03*
X89285Y38665D02*
D03*
X89260Y42565D02*
D03*
X90160Y41190D02*
D03*
X90110Y40290D02*
D03*
Y38990D02*
D03*
X80340Y45025D02*
D03*
X82060Y46540D02*
D03*
X80546Y46490D02*
D03*
X80400Y45719D02*
D03*
X79895Y44725D02*
D03*
X81260Y44005D02*
D03*
Y42625D02*
D03*
X80414Y42784D02*
D03*
X80410Y44230D02*
D03*
X82085Y47790D02*
D03*
X81271Y46589D02*
D03*
X86860Y42665D02*
D03*
X87675Y43150D02*
D03*
X86835Y39325D02*
D03*
X87685Y37390D02*
D03*
X87675Y43850D02*
D03*
X87075Y41850D02*
D03*
X87685Y40665D02*
D03*
X86860D02*
D03*
X86835Y38740D02*
D03*
X81240Y36045D02*
D03*
X85210Y37765D02*
D03*
X80410Y37020D02*
D03*
X85885Y37040D02*
D03*
X84535Y38515D02*
D03*
X84485Y36890D02*
D03*
X84375Y35440D02*
D03*
X83635Y36175D02*
D03*
X82860Y34744D02*
D03*
X82830Y34200D02*
D03*
X82085Y37315D02*
D03*
X80460Y36045D02*
D03*
X86145Y39340D02*
D03*
X86085Y38640D02*
D03*
X80150Y38700D02*
D03*
X84460Y39390D02*
D03*
X84809Y38965D02*
D03*
X82860Y39940D02*
D03*
Y38715D02*
D03*
Y39225D02*
D03*
X82060Y39940D02*
D03*
X81235Y39945D02*
D03*
X82060Y39240D02*
D03*
X83660Y39390D02*
D03*
X81250Y39415D02*
D03*
X80415Y40235D02*
D03*
X89985Y37365D02*
D03*
X91884Y36829D02*
D03*
Y43904D02*
D03*
X89985Y36715D02*
D03*
X88460Y38690D02*
D03*
Y39940D02*
D03*
Y42565D02*
D03*
Y43190D02*
D03*
X88425Y41975D02*
D03*
X88460Y40665D02*
D03*
Y37340D02*
D03*
X28240Y35580D02*
D03*
X15926Y40798D02*
D03*
X15425D02*
D03*
X17726D02*
D03*
X17225D02*
D03*
X16724D02*
D03*
X14924D02*
D03*
X29568Y38952D02*
D03*
X20325Y40750D02*
D03*
X19526Y40798D02*
D03*
X19025D02*
D03*
X18524D02*
D03*
X20325Y39400D02*
D03*
Y39900D02*
D03*
X24725Y36760D02*
D03*
X26110Y37175D02*
D03*
X23410Y39977D02*
D03*
X25335Y38737D02*
D03*
X28300Y36460D02*
D03*
X29870Y38377D02*
D03*
X27565Y38110D02*
D03*
X34025Y35990D02*
D03*
X33200Y35930D02*
D03*
X32235Y38570D02*
D03*
X30985Y36420D02*
D03*
X28785Y37270D02*
D03*
X41904Y41900D02*
D03*
X36420Y42875D02*
D03*
X41904Y42401D02*
D03*
X43100Y41400D02*
D03*
X38304Y41900D02*
D03*
X26850Y42150D02*
D03*
X34125Y47350D02*
D03*
X33625D02*
D03*
X32170Y46930D02*
D03*
X33675Y49000D02*
D03*
X34175D02*
D03*
X38450Y48575D02*
D03*
X38950D02*
D03*
X37150D02*
D03*
X37650D02*
D03*
X36050Y46825D02*
D03*
X36075Y47975D02*
D03*
Y48475D02*
D03*
X36050Y46325D02*
D03*
X13850Y45300D02*
D03*
Y44800D02*
D03*
Y44000D02*
D03*
X20385Y45750D02*
D03*
Y46575D02*
D03*
X21400Y43525D02*
D03*
X17395Y44790D02*
D03*
X13850Y43500D02*
D03*
X19951Y53623D02*
D03*
X19450D02*
D03*
X18850Y48290D02*
D03*
X27524Y55425D02*
D03*
X28025D02*
D03*
X28526D02*
D03*
X25674D02*
D03*
X26175D02*
D03*
X26676D02*
D03*
X24826D02*
D03*
X24325D02*
D03*
X21251Y53623D02*
D03*
X20750D02*
D03*
X22551D02*
D03*
X22050D02*
D03*
X24276Y51123D02*
D03*
X23775D02*
D03*
X23824Y55425D02*
D03*
X24675Y46975D02*
D03*
X25325D02*
D03*
X30150Y45450D02*
D03*
Y43800D02*
D03*
X28500D02*
D03*
X23008Y44625D02*
D03*
X21450Y47348D02*
D03*
X26850Y43800D02*
D03*
Y45450D02*
D03*
X39525Y54575D02*
D03*
X40025D02*
D03*
X41050Y48575D02*
D03*
X41550D02*
D03*
X39750D02*
D03*
X40250D02*
D03*
X23250Y48800D02*
D03*
Y49300D02*
D03*
X31670Y47700D02*
D03*
X29800Y48400D02*
D03*
X28225Y48775D02*
D03*
X31575Y48773D02*
D03*
X24850Y49323D02*
D03*
X26675Y49850D02*
D03*
X27175D02*
D03*
X24850Y48823D02*
D03*
X29100Y51225D02*
D03*
X29763D02*
D03*
X29784Y49027D02*
D03*
X31150Y51033D02*
D03*
X38250Y54575D02*
D03*
X38750D02*
D03*
X36975D02*
D03*
X37475D02*
D03*
X35700D02*
D03*
X36200D02*
D03*
X33280Y43875D02*
D03*
X30960Y37380D02*
D03*
X32235Y39530D02*
D03*
X26165Y36510D02*
D03*
X31850Y34840D02*
D03*
X28240Y34680D02*
D03*
X30285D02*
D03*
X26165Y35550D02*
D03*
X27600Y34640D02*
D03*
X25500Y35610D02*
D03*
X24722Y34610D02*
D03*
X28500Y42150D02*
D03*
X13850Y42200D02*
D03*
X21924Y41202D02*
D03*
X22425D02*
D03*
X21400Y43025D02*
D03*
X13850Y42700D02*
D03*
X20325Y41250D02*
D03*
X14126Y40798D02*
D03*
X13625D02*
D03*
X30150Y42150D02*
D03*
X24188Y42562D02*
D03*
X36420Y42375D02*
D03*
X40104Y42401D02*
D03*
Y41900D02*
D03*
X38304Y42401D02*
D03*
X34635Y37550D02*
D03*
X32590Y37490D02*
D03*
X34575Y41850D02*
D03*
X34075D02*
D03*
X32815Y41397D02*
D03*
X32772Y42100D02*
D03*
X35245Y36460D02*
D03*
X13124Y40798D02*
D03*
X26800Y33125D02*
D03*
X29325Y44625D02*
D03*
X27675D02*
D03*
X28500Y45450D02*
D03*
X29325Y42975D02*
D03*
X27675D02*
D03*
D40*
X91285Y34865D02*
D03*
X90755Y32906D02*
D03*
X87250Y52216D02*
D03*
X88551Y51167D02*
D03*
X83870Y52208D02*
D03*
X89772Y49948D02*
D03*
X91101Y48492D02*
D03*
X91339Y41128D02*
D03*
X91617Y39829D02*
D03*
X91339Y46544D02*
D03*
X91467Y42332D02*
D03*
X2175Y830D02*
D03*
X4600D02*
D03*
X7050D02*
D03*
X9875D02*
D03*
X12900D02*
D03*
X15825D02*
D03*
X825Y1625D02*
D03*
Y3225D02*
D03*
Y4775D02*
D03*
Y6500D02*
D03*
X3600Y78750D02*
D03*
X825Y77825D02*
D03*
Y75500D02*
D03*
Y70575D02*
D03*
X95000Y78775D02*
D03*
X92500D02*
D03*
X115411D02*
D03*
X112911D02*
D03*
X110086D02*
D03*
X97586D02*
D03*
X100086D02*
D03*
X102586D02*
D03*
X105086D02*
D03*
X107586D02*
D03*
X51925D02*
D03*
X49425D02*
D03*
X89486D02*
D03*
X86986D02*
D03*
X84486D02*
D03*
X79836D02*
D03*
X77336D02*
D03*
X74836D02*
D03*
X72336D02*
D03*
X69836D02*
D03*
X82336D02*
D03*
X67011D02*
D03*
X54511D02*
D03*
X57011D02*
D03*
X59511D02*
D03*
X62011D02*
D03*
X64511D02*
D03*
X21436D02*
D03*
X18936D02*
D03*
X16436D02*
D03*
X13936D02*
D03*
X11436D02*
D03*
X23936D02*
D03*
X39261D02*
D03*
X26761D02*
D03*
X29261D02*
D03*
X31761D02*
D03*
X34261D02*
D03*
X36761D02*
D03*
X41411D02*
D03*
X43911D02*
D03*
X46411D02*
D03*
X28386Y830D02*
D03*
X25886D02*
D03*
X23386D02*
D03*
X20886D02*
D03*
X18386D02*
D03*
X30886D02*
D03*
X46211D02*
D03*
X33711D02*
D03*
X36211D02*
D03*
X38711D02*
D03*
X41211D02*
D03*
X43711D02*
D03*
X48361D02*
D03*
X50861D02*
D03*
X53361D02*
D03*
X107300D02*
D03*
X104000Y805D02*
D03*
X101286D02*
D03*
X96311Y830D02*
D03*
X93811D02*
D03*
X91311D02*
D03*
X88811D02*
D03*
X86311D02*
D03*
X98811D02*
D03*
X81661D02*
D03*
X79161D02*
D03*
X76661D02*
D03*
X74161D02*
D03*
X71661D02*
D03*
X84161D02*
D03*
X118625Y2850D02*
D03*
Y5350D02*
D03*
Y7850D02*
D03*
Y10350D02*
D03*
Y12850D02*
D03*
X109425Y830D02*
D03*
X111725D02*
D03*
X113975D02*
D03*
X116325D02*
D03*
X118625D02*
D03*
Y15350D02*
D03*
Y32850D02*
D03*
Y35350D02*
D03*
Y37850D02*
D03*
Y40350D02*
D03*
Y42850D02*
D03*
Y17850D02*
D03*
Y20350D02*
D03*
Y22850D02*
D03*
Y25350D02*
D03*
Y27850D02*
D03*
Y30350D02*
D03*
Y45350D02*
D03*
Y62850D02*
D03*
Y65350D02*
D03*
Y67850D02*
D03*
Y70350D02*
D03*
Y72850D02*
D03*
Y47850D02*
D03*
Y50350D02*
D03*
Y52850D02*
D03*
Y55350D02*
D03*
Y57850D02*
D03*
Y60350D02*
D03*
Y77850D02*
D03*
Y75350D02*
D03*
X825Y23475D02*
D03*
Y25975D02*
D03*
Y28475D02*
D03*
Y30975D02*
D03*
Y33475D02*
D03*
Y8475D02*
D03*
Y10975D02*
D03*
Y13475D02*
D03*
Y15975D02*
D03*
Y18475D02*
D03*
Y20975D02*
D03*
Y35975D02*
D03*
Y73500D02*
D03*
Y66000D02*
D03*
Y68500D02*
D03*
X6350Y78775D02*
D03*
X8850D02*
D03*
X6800Y27975D02*
D03*
X23575Y34600D02*
D03*
X42656Y44024D02*
D03*
X37800Y38525D02*
D03*
X53329Y32955D02*
D03*
X47189Y44713D02*
D03*
X21490Y34600D02*
D03*
X22500D02*
D03*
X42575Y65995D02*
D03*
X50389Y33869D02*
D03*
X68777Y54958D02*
D03*
X49725Y31600D02*
D03*
X47672Y29202D02*
D03*
X48200Y34420D02*
D03*
X47112Y33546D02*
D03*
X46975Y30500D02*
D03*
X47125Y34425D02*
D03*
X47625Y36300D02*
D03*
X50450Y60275D02*
D03*
Y63575D02*
D03*
X45995Y47305D02*
D03*
X53800Y23875D02*
D03*
X53467Y26550D02*
D03*
X51350Y21475D02*
D03*
X54175Y63500D02*
D03*
X54195Y60275D02*
D03*
X42252Y38285D02*
D03*
X41577D02*
D03*
X14637Y36823D02*
D03*
X13912D02*
D03*
X14637Y37498D02*
D03*
X13912D02*
D03*
X13187D02*
D03*
Y36823D02*
D03*
X19700Y46198D02*
D03*
X16298Y46890D02*
D03*
X15623D02*
D03*
X16298Y46165D02*
D03*
X15623D02*
D03*
X18850Y51523D02*
D03*
Y50848D02*
D03*
Y50173D02*
D03*
X18175D02*
D03*
Y50848D02*
D03*
Y51523D02*
D03*
X19702Y45473D02*
D03*
X42535Y51865D02*
D03*
X29100Y52950D02*
D03*
X29780D02*
D03*
X42656Y45374D02*
D03*
Y44699D02*
D03*
X43326Y44729D02*
D03*
Y45404D02*
D03*
X41473Y44713D02*
D03*
X40798D02*
D03*
X40123D02*
D03*
Y44038D02*
D03*
X40798D02*
D03*
X41473D02*
D03*
X43326Y44054D02*
D03*
X35350Y34945D02*
D03*
X42252Y37560D02*
D03*
X41577D02*
D03*
X32365Y58430D02*
D03*
X45533Y44683D02*
D03*
X12276Y44465D02*
D03*
X12251Y41802D02*
D03*
Y40902D02*
D03*
X12276Y45365D02*
D03*
X6348Y43576D02*
D03*
Y40914D02*
D03*
Y44476D02*
D03*
X12276Y43565D02*
D03*
X6348Y45376D02*
D03*
Y40014D02*
D03*
X11387Y33647D02*
D03*
X12251Y40002D02*
D03*
X6348Y41814D02*
D03*
X44087Y30462D02*
D03*
X43063Y27050D02*
D03*
X45909Y29117D02*
D03*
X29631Y62047D02*
D03*
X29642Y62800D02*
D03*
X84406Y54265D02*
D03*
X81406D02*
D03*
X82774D02*
D03*
X75500Y62900D02*
D03*
X73575Y57875D02*
D03*
X73884Y55227D02*
D03*
X56293Y30993D02*
D03*
X825Y51000D02*
D03*
Y48500D02*
D03*
Y46000D02*
D03*
Y43500D02*
D03*
Y41000D02*
D03*
Y38500D02*
D03*
Y63500D02*
D03*
Y61000D02*
D03*
Y58500D02*
D03*
Y56000D02*
D03*
Y53500D02*
D03*
X68836Y830D02*
D03*
X56336D02*
D03*
X58836D02*
D03*
X61336D02*
D03*
X63836D02*
D03*
X66336D02*
D03*
X51631Y33875D02*
D03*
X49475Y33855D02*
D03*
X48806D02*
D03*
X77675Y57800D02*
D03*
X81600Y57950D02*
D03*
X69284Y30569D02*
D03*
X65956Y28400D02*
D03*
X67730Y28759D02*
D03*
X68584Y30569D02*
D03*
X81475Y55405D02*
D03*
X78550Y56630D02*
D03*
X77250D02*
D03*
X76975Y57805D02*
D03*
X75925Y57145D02*
D03*
Y57880D02*
D03*
X78350Y59055D02*
D03*
X77575Y59080D02*
D03*
X79450Y58930D02*
D03*
X78375Y57705D02*
D03*
X75675Y54605D02*
D03*
D100*
X66751Y43720D02*
D03*
Y43120D02*
D03*
X85461Y34665D02*
D03*
Y35265D02*
D03*
X59425Y40300D02*
D03*
Y40900D02*
D03*
D101*
X47673Y40623D02*
D03*
Y42523D02*
D03*
X49873Y41573D02*
D03*
D102*
X66255Y36850D02*
D03*
Y36300D02*
D03*
X60351Y41655D02*
D03*
Y41105D02*
D03*
X60160Y43395D02*
D03*
Y43945D02*
D03*
X60915Y41105D02*
D03*
Y41655D02*
D03*
X61476Y41081D02*
D03*
Y41631D02*
D03*
X62038Y41657D02*
D03*
Y41107D02*
D03*
X61350Y43450D02*
D03*
Y44000D02*
D03*
X61900Y43450D02*
D03*
Y44000D02*
D03*
X60800Y43450D02*
D03*
Y44000D02*
D03*
X63162Y41057D02*
D03*
Y41607D02*
D03*
X64083Y41306D02*
D03*
Y41856D02*
D03*
X64706Y41579D02*
D03*
Y41029D02*
D03*
X62600Y40925D02*
D03*
Y41475D02*
D03*
X62592Y39603D02*
D03*
Y39053D02*
D03*
X64607Y39247D02*
D03*
Y38697D02*
D03*
X63714Y39486D02*
D03*
Y40036D02*
D03*
X63154Y39672D02*
D03*
Y39122D02*
D03*
X63200Y43925D02*
D03*
Y43375D02*
D03*
X62650Y43455D02*
D03*
Y44005D02*
D03*
X64850Y44000D02*
D03*
Y43450D02*
D03*
X63750Y43475D02*
D03*
Y44025D02*
D03*
X64915Y44885D02*
D03*
Y45435D02*
D03*
X63400Y45500D02*
D03*
Y44950D02*
D03*
X64300Y43975D02*
D03*
Y43425D02*
D03*
X64305Y45202D02*
D03*
Y45752D02*
D03*
X59805Y39625D02*
D03*
Y39075D02*
D03*
X60355D02*
D03*
Y39625D02*
D03*
X60905Y39148D02*
D03*
Y39698D02*
D03*
X61467Y39074D02*
D03*
Y39624D02*
D03*
X62030Y39133D02*
D03*
Y39683D02*
D03*
X66205Y41350D02*
D03*
Y41900D02*
D03*
X65274Y39198D02*
D03*
Y38648D02*
D03*
X66250Y40600D02*
D03*
Y40050D02*
D03*
X65325Y41600D02*
D03*
Y41050D02*
D03*
X65395Y44000D02*
D03*
Y43450D02*
D03*
X56800Y45550D02*
D03*
Y46100D02*
D03*
X57375Y45550D02*
D03*
Y46100D02*
D03*
X59609Y44406D02*
D03*
Y43856D02*
D03*
X56064Y38198D02*
D03*
Y38748D02*
D03*
X57350Y44875D02*
D03*
Y44325D02*
D03*
X56696Y44880D02*
D03*
Y44330D02*
D03*
X59050Y44300D02*
D03*
Y44850D02*
D03*
D103*
X67000Y29675D02*
D03*
Y31075D02*
D03*
D104*
X78055Y61562D02*
D03*
X80195D02*
D03*
D105*
X58275Y35625D02*
D03*
X58875D02*
D03*
D106*
X78516Y55665D02*
D03*
M02*
