M48
;Layer_Color=9474304
;FILE_FORMAT=4:3
METRIC,LZ
;TYPE=PLATED
T01F00S00C0.200
T02F00S00C0.350
T03F00S00C0.500
%
T01
X0046475Y001655
X0057271Y0030195
Y0030982
X0057275Y00318
X0056956Y003251
X0055875Y0034825
X0055146Y0034494
X0058816Y0034213
X0058875Y0036825
X0058939Y003777
X0058375Y003735
X0058349Y0038315
X0058925Y0038775
X0059475Y0038325
X0060025Y00386
X0059989Y0037735
X0059469Y0037256
X0060841Y0036854
X006095Y00378
X00606Y0038175
X0061125Y0038675
X006203
X0061625Y003816
X0062875Y003776
X0063385Y0037265
X00639Y0036775
X0064375Y003624
X0063375
X0062875Y003674
X0062375Y003724
Y003624
X0061875Y003674
X00613Y003624
X0060973Y0033601
X0060956Y0032765
X006096Y003221
X0060408Y0032204
X0060375Y003075
X0060389Y0030112
X0058962
X0059781Y0031175
X006096
X0065999Y0030944
X0066003Y0031546
X00655Y0030275
X0066003Y002972
X0065956Y0028986
X00673Y0033588
X0067375Y0036325
X00669Y0036925
X006796Y0036825
X006797Y003792
X006746Y0038325
X0067425Y003941
X0066965Y00399
X0067925Y003991
X0067961Y0040853
X006797Y004173
X00674Y00413
X006695Y0041825
X006746Y0042365
X006795Y0042825
X006645Y00424
X00662Y0043205
X0065743Y0043
X00657Y0042075
X0064625
X0064625Y0042983
X006504Y0042572
X0064017
X0063625Y0042983
X006321Y0042575
X006272Y004298
X006265Y0041975
X0063625Y0042075
Y00411
X0064125Y0040575
X0064625Y0040143
X006505Y004055
X006553Y004017
X006515Y003965
X0064198Y0039575
X0064125Y0038629
X0063747Y0038971
X0063075Y003865
X00639Y0037925
X0064375Y003735
X00648Y003775
X0064876Y0038245
X006597Y003826
X0065969Y0037735
X006578Y003673
X0065375Y003624
X0064875Y0036829
X006575Y0039
X0066875Y003891
X006685Y004085
X0065806Y0040972
X006587Y004391
X0065735Y0044426
X00664Y00444
X006635Y0045375
X0066875Y0045841
X0067855Y004582
X0067375Y0045325
X0066971Y0044921
X0067375Y004424
X0067875Y004474
X006645Y0046425
X0065378Y0046319
X0064875Y004591
X006539Y004541
X006455Y0044448
X00639Y0044825
X006385Y0045725
X0062875Y0045725
X0062375Y00453
X0061875Y0045825
X006135Y004535
X0060375
X006079Y0044885
X0060558Y0044442
X00611Y004449
X0061725Y0044505
X0062606Y004448
X0063328Y0044412
X0063375Y004625
X00624Y0046325
X0061375
X0060375Y0046344
X0059931Y0045892
X005945Y0046325
X0058875Y00459
X0058396Y0046369
X00579Y00458
X0057862Y0044875
X0058375Y0044325
X005885Y00438
X0059325Y00434
X005929Y0042375
X0058875Y004274
X00584Y0042275
X005828Y0041421
X005779Y0041825
Y004085
Y0039875
Y003885
X0058325Y0039355
X0059345
X0058875Y003991
X0058858Y004091
X0058875Y004175
X005941Y004141
X005985Y004165
X0060625Y00421
X006104Y0042575
X006021Y0042575
X0060531Y004299
X0061625Y0042983
X0061625Y00421
X0062072Y0042497
X006215Y0040625
X00631Y0040575
X00627Y0040075
X0061625Y0040089
X0061092Y0040638
X0060198
X0060525Y00401
X0057825Y00378
X0057872Y003674
X005555Y0038085
X0055458Y004007
X0057966Y004292
X0058348Y00433
X0057782Y0043812
X00594Y0045375
X0061125Y0048775
X005824Y0049865
X0055875Y0047825
X0069762Y0048237
X0080546Y004649
X0081271Y0046589
X008206Y004654
X0082085Y004779
X0082835Y004779
X0084515Y0048054
X008438Y004649
X008366Y0046465
X0084509Y0045523
X0084479Y0044694
X0083659Y004399
X008366Y0043253
X0083574Y004259
X0084374
X008286Y004269
Y004329
Y004399
Y0044615
X008126Y0044005
Y0043315
Y0042625
X0080414Y0042784
X008041Y004423
X008034Y0045025
X0079895Y0044725
X00804Y0045719
X0080415Y0040235
X0081235Y0039945
X008125Y0039415
X008206Y003924
Y003994
X008286
Y0039225
Y0038715
X008366Y003939
X008446
X0084809Y0038965
X0084535Y0038515
X008521Y0037765
X0085885Y003704
X0084485Y003689
X0084375Y003544
X0083635Y0036175
X008286Y0034744
X008283Y00342
X008601Y003445
X008606Y003549
X0086835Y0035981
X0087685Y003739
X008846Y003734
Y003869
X0089285Y0038665
X008926Y0038015
X0089985Y0037365
Y0036715
Y0036065
X0091884Y0036829
X009011Y003899
Y003964
Y004029
X009016Y004119
X009006Y0042565
Y0043215
X008926
Y0042565
X008846
X0088425Y0041975
X008846Y004319
X0087675Y004315
Y004385
X008686Y004394
X008599Y0044285
X008601Y0043565
X008686Y0042665
X0087075Y004185
X008686Y0040665
X0087685
X008846
Y003994
X0086835Y0039325
X0086835Y003874
X0086085Y003864
X0086145Y003934
X008286Y004205
X0082085Y0037315
X008041Y003702
X008046Y0036045
X008124
X008015Y00387
X0087076Y003392
X008806Y0034015
X0088016Y0033516
X0087665Y0045229
X0086865
X008686Y0045865
X0086085Y004649
X008599Y0047505
X008621Y0048489
X0087661Y0048325
X0087659Y0047765
X008846Y0045265
X009016Y0044915
Y0044265
X0089972Y004584
X0091884Y0043904
X0081325Y0056155
Y0056655
X007945Y0056685
X0079425Y0057375
X0077925Y0056755
X006885Y003641
X0069768Y0034197
X0055077Y0036225
X0054175Y0036225
X005345
X0052841Y0036352
X0053025Y0035875
X005285Y0038475
X0054932Y0038744
X0054436Y0040077
X0053389Y004117
X0052675Y0041475
X0052175
X0052031Y00428
X0050485Y0044466
X0049889Y0039866
X0049358
X0049475Y0038554
X005005
X0048805Y0038061
X0048158Y00395
X00458Y0038125
X00453
X00448
X00444Y003712
X00439
X0043902Y0036305
X0042415Y0036154
X0043902Y0034655
X00439Y0033
X0042551Y0031633
X0048075Y003155
X0051Y0031586
X005005Y0035897
X0049325Y0035825
X0046875Y0036825
X0046325
X0045825
X004443Y0041
X00431Y00414
X0041904Y00419
Y0042401
X0040104
Y00419
X0038304
Y0042401
X003642Y0042375
Y0042875
X0034575Y004185
X0034075
X0032772Y00421
X0032815Y0041397
X0032235Y003953
Y003857
X003259Y003749
X003096Y003738
X0030985Y003642
X0030285Y003468
X003185Y003484
X00332Y003593
X0034025Y003599
X0035245Y003646
X0034635Y003755
X002987Y0038377
X0029568Y0038952
X0028785Y003727
X00283Y003646
X002824Y003558
Y003468
X00276Y003464
X00268Y0033125
X0026165Y003555
X00255Y003561
X0026165Y003651
X002611Y0037175
X0024725Y003676
X0024722Y003461
X0025335Y0038737
X0027565Y003811
X002685Y004215
X0027675Y0042975
X002685Y00438
X00285
X003015
Y004545
X0029325Y0044625
X00285Y004545
X002685
X0027675Y0044625
X00285Y004215
X003015
X0029325Y0042975
X003328Y0043875
X0033625Y004735
X0034125
X0034175Y0049
X0033675
X0031575Y0048773
X003167Y00477
X003217Y004693
X00298Y00484
X0029784Y0049027
X0028225Y0048775
X0027175Y004985
X0026675
X002485Y0049323
Y0048823
X002325Y00488
Y00493
X0023775Y0051123
X0024276
X0022551Y0053623
X002205
X0021251
X002075
X0019951
X001945
X001885Y004829
X0020385Y0046575
Y004575
X002145Y0047348
X0024675Y0046975
X0025325
X0023008Y0044625
X00214Y0043525
Y0043025
X0021924Y0041202
X0022425
X0020325Y004125
Y004075
X0019526Y0040798
X0019025
X0018524
X0017726
X0017225
X0016724
X0015926
X0020325Y00399
Y00394
X002341Y0039977
X0024188Y0042562
X0017395Y004479
X0023824Y0055425
X0024325
X0024826
X0025674
X0026175
X0026676
X0027524
X0028025
X0028526
X0027875Y0058675
X0021675Y0060437
X00291Y0051225
X0029763
X003115Y0051033
X0036075Y0048475
Y0047975
X003605Y0046825
Y0046325
X003715Y0048575
X003765
X003845
X003895
X003975
X004025
X004105
X004155
X0043751Y005058
X0040025Y0054575
X0039525
X003875
X003825
X0037475
X0036975
X00362
X00357
X0054694Y00476
X0055049Y0030165
X0015425Y0040798
X0014924
X0014126
X0013625
X0013124
X001385Y00422
Y00427
Y00435
Y0044
Y00448
Y00453
T02
X0000825Y0001625
Y0003225
Y0004775
Y00065
Y0008475
Y0010975
Y0013475
Y0015975
Y0018475
Y0020975
Y0023475
X0002175Y000083
X00046
X000705
X0009875
X00129
X0015825
X0018386
X0020886
X0023386
X0025886
X0028386
X0030886
X0033711
X0036211
X0038711
X0041211
X0043711
X0046211
X0048361
X0050861
X0053361
X005135Y0021475
X00538Y0023875
X0056336Y000083
X0058836
X0061336
X0063836
X0066336
X0068836
X0071661
X0074161
X0076661
X0079161
X0081661
X0084161
X0086311
X0088811
X0091311
X0093811
X0096311
X0098811
X0101286Y0000805
X0104
X01073Y000083
X0109425
X0111725
X0113975
X0116325
X0118625
Y000285
Y000535
Y000785
Y001035
Y001285
Y001535
Y001785
Y002035
Y002285
Y002535
Y002785
Y003035
Y003285
Y003535
Y003785
Y004035
Y004285
Y004535
Y004785
Y005035
Y005285
Y005535
Y005785
Y006035
Y006285
X0089772Y0049948
X0088551Y0051167
X008725Y0052216
X008387Y0052208
X0084406Y0054265
X0082774
X0081406
X0081475Y0055405
X00816Y005795
X007945Y005893
X007835Y0059055
X0077575Y005908
X0077675Y00578
X0076975Y0057805
X0075925Y005788
Y0057145
X007725Y005663
X007855
X0078375Y0057705
X0073575Y0057875
X0073884Y0055227
X0075675Y0054605
X0068777Y0054958
X00755Y00629
X0091101Y0048492
X0091339Y0046544
X0091467Y0042332
X0091339Y0041128
X0091617Y0039829
X0091285Y0034865
X0090755Y0032906
X0069284Y0030569
X0068584
X006773Y0028759
X0065956Y00284
X0056293Y0030993
X0053329Y0032955
X0051631Y0033875
X0050389Y0033869
X0049475Y0033855
X0048806
X00482Y003442
X0047125Y0034425
X0047112Y0033546
X0046975Y00305
X0047672Y0029202
X0045909Y0029117
X0044087Y0030462
X0043063Y002705
X0053467Y002655
X0049725Y00316
X0047625Y00363
X0042252Y003756
X0041577
Y0038285
X0042252
X00378Y0038525
X003535Y0034945
X0023575Y00346
X00225
X002149
X0019702Y0045473
X00197Y0046198
X0016298Y0046165
X0015623
Y004689
X0016298
X0018175Y0050173
X001885
Y0050848
Y0051523
X0018175
Y0050848
X00291Y005295
X002978
X0032365Y005843
X0029631Y0062047
X0029642Y00628
X005045Y0063575
Y0060275
X0054195
X0054175Y00635
X0042535Y0051865
X0042656Y0045374
Y0044699
Y0044024
X0043326Y0044054
Y0044729
Y0045404
X0041473Y0044713
X0040798
X0040123
Y0044038
X0040798
X0041473
X0045533Y0044683
X0047189Y0044713
X0045995Y0047305
X0012276Y0045365
Y0044465
Y0043565
X0012251Y0041802
Y0040902
Y0040002
X0013187Y0037498
Y0036823
X0013912
Y0037498
X0014637
Y0036823
X0011387Y0033647
X00068Y0027975
X0000825Y0028475
Y0025975
Y0030975
Y0033475
Y0035975
Y00385
Y0041
Y00435
Y0046
Y00485
Y0051
Y00535
Y0056
Y00585
Y0061
Y00635
X0006348Y0045376
Y0044476
Y0043576
Y0041814
Y0040914
Y0040014
X0000825Y0066
Y00685
Y0070575
Y00735
Y00755
Y0077825
X00036Y007875
X000635Y0078775
X000885
X0011436
X0013936
X0016436
X0018936
X0021436
X0023936
X0026761
X0029261
X0031761
X0034261
X0036761
X0039261
X0041411
X0043911
X0046411
X0049425
X0051925
X0054511
X0042575Y0065995
X0057011Y0078775
X0059511
X0062011
X0064511
X0067011
X0069836
X0072336
X0074836
X0077336
X0079836
X0082336
X0084486
X0086986
X0089486
X00925
X0095
X0097586
X0100086
X0102586
X0105086
X0107586
X0110086
X0112911
X0115411
X0118625Y007785
Y007535
Y007285
Y007035
Y006785
Y006535
T03
X0047175Y0046475
X0048425
M30
