G04*
G04 #@! TF.GenerationSoftware,Altium Limited,Altium Designer,24.0.1 (36)*
G04*
G04 Layer_Color=10964583*
%FSLAX43Y43*%
%MOMM*%
G71*
G04*
G04 #@! TF.SameCoordinates,2B35A735-E746-45F3-9C8E-D4930A679F63*
G04*
G04*
G04 #@! TF.FilePolarity,Negative*
G04*
G01*
G75*
%ADD14R,0.990X0.740*%
%ADD15R,0.660X0.610*%
%ADD16C,0.400*%
%ADD17C,0.330*%
%ADD18R,1.600X1.700*%
%ADD19R,0.900X0.900*%
%ADD20R,0.900X0.900*%
%ADD21R,0.900X2.100*%
%ADD22R,0.900X1.900*%
%ADD23R,0.800X0.310*%
%ADD24R,0.310X0.800*%
%ADD25R,4.800X4.800*%
%ADD26R,0.650X0.310*%
%ADD27R,0.310X0.650*%
%ADD28R,1.350X1.100*%
%ADD29R,0.825X0.675*%
%ADD30R,1.450X2.900*%
%ADD31R,0.800X0.610*%
%ADD32R,0.740X0.990*%
%ADD33R,0.610X0.660*%
%ADD34R,1.500X1.000*%
%ADD35R,0.450X0.450*%
%ADD36R,1.900X0.900*%
%ADD37R,0.610X0.800*%
%ADD38O,1.100X1.400*%
%ADD39C,0.300*%
%ADD40C,0.450*%
G36*
X25690Y41354D02*
X25699Y41351D01*
X25708Y41347D01*
X25716Y41341D01*
X25722Y41333D01*
X25726Y41324D01*
X25729Y41315D01*
X25730Y41305D01*
Y41245D01*
X25730Y41245D01*
X25730Y41240D01*
X25729Y41235D01*
X25727Y41228D01*
X25726Y41226D01*
X25722Y41217D01*
X25716Y41209D01*
X25566Y41059D01*
X25566Y41059D01*
X25562Y41057D01*
X25558Y41053D01*
X25549Y41049D01*
X25540Y41046D01*
X25530Y41045D01*
X25520Y41046D01*
X25511Y41049D01*
X25502Y41053D01*
X25494Y41059D01*
X25488Y41067D01*
X25484Y41076D01*
X25481Y41085D01*
X25480Y41095D01*
X25480Y41095D01*
Y41305D01*
X25481Y41315D01*
X25484Y41324D01*
X25488Y41333D01*
X25494Y41341D01*
X25502Y41347D01*
X25511Y41351D01*
X25520Y41354D01*
X25530Y41355D01*
X25680D01*
X25690Y41354D01*
D02*
G37*
G36*
X25945Y41030D02*
X26005D01*
X26015Y41029D01*
X26024Y41026D01*
X26033Y41022D01*
X26041Y41016D01*
X26047Y41008D01*
X26051Y40999D01*
X26054Y40990D01*
X26055Y40980D01*
Y40830D01*
X26054Y40820D01*
X26051Y40811D01*
X26047Y40802D01*
X26041Y40794D01*
X26033Y40788D01*
X26024Y40784D01*
X26015Y40781D01*
X26005Y40780D01*
X25795D01*
X25795Y40780D01*
X25785Y40781D01*
X25776Y40784D01*
X25767Y40788D01*
X25759Y40794D01*
X25753Y40802D01*
X25749Y40811D01*
X25746Y40820D01*
X25745Y40830D01*
X25746Y40840D01*
X25749Y40849D01*
X25753Y40858D01*
X25757Y40862D01*
X25759Y40866D01*
X25759Y40866D01*
X25909Y41016D01*
X25917Y41022D01*
X25926Y41026D01*
X25928Y41027D01*
X25935Y41029D01*
X25940Y41030D01*
X25945Y41030D01*
X25945Y41030D01*
D02*
G37*
G36*
X25540Y46554D02*
X25549Y46551D01*
X25558Y46547D01*
X25562Y46543D01*
X25566Y46541D01*
X25566Y46541D01*
X25716Y46391D01*
X25722Y46383D01*
X25726Y46374D01*
X25727Y46372D01*
X25729Y46365D01*
X25730Y46360D01*
X25730Y46355D01*
X25730Y46355D01*
Y46295D01*
X25729Y46285D01*
X25726Y46276D01*
X25722Y46267D01*
X25716Y46259D01*
X25708Y46253D01*
X25699Y46249D01*
X25690Y46246D01*
X25680Y46245D01*
X25530D01*
X25520Y46246D01*
X25511Y46249D01*
X25502Y46253D01*
X25494Y46259D01*
X25488Y46267D01*
X25484Y46276D01*
X25481Y46285D01*
X25480Y46295D01*
Y46505D01*
X25480Y46505D01*
X25481Y46515D01*
X25484Y46524D01*
X25488Y46533D01*
X25494Y46541D01*
X25502Y46547D01*
X25511Y46551D01*
X25520Y46554D01*
X25530Y46555D01*
X25540Y46554D01*
D02*
G37*
G36*
X25795Y46820D02*
X26005D01*
X26015Y46819D01*
X26024Y46816D01*
X26033Y46812D01*
X26041Y46806D01*
X26047Y46798D01*
X26051Y46789D01*
X26054Y46780D01*
X26055Y46770D01*
Y46620D01*
X26054Y46610D01*
X26051Y46601D01*
X26047Y46592D01*
X26041Y46584D01*
X26033Y46578D01*
X26024Y46574D01*
X26015Y46571D01*
X26005Y46570D01*
X25945D01*
X25945Y46570D01*
X25940Y46570D01*
X25935Y46571D01*
X25928Y46573D01*
X25926Y46574D01*
X25917Y46578D01*
X25909Y46584D01*
X25759Y46734D01*
X25759Y46734D01*
X25757Y46738D01*
X25753Y46742D01*
X25749Y46751D01*
X25746Y46760D01*
X25745Y46770D01*
X25746Y46780D01*
X25749Y46789D01*
X25753Y46798D01*
X25759Y46806D01*
X25767Y46812D01*
X25776Y46816D01*
X25785Y46819D01*
X25795Y46820D01*
X25795Y46820D01*
D02*
G37*
G36*
X31060Y41030D02*
X31065Y41029D01*
X31072Y41027D01*
X31074Y41026D01*
X31083Y41022D01*
X31091Y41016D01*
X31241Y40866D01*
X31241Y40866D01*
X31243Y40862D01*
X31247Y40858D01*
X31251Y40849D01*
X31254Y40840D01*
X31255Y40830D01*
X31254Y40820D01*
X31251Y40811D01*
X31247Y40802D01*
X31241Y40794D01*
X31233Y40788D01*
X31224Y40784D01*
X31215Y40781D01*
X31205Y40780D01*
X31205Y40780D01*
X30995D01*
X30985Y40781D01*
X30976Y40784D01*
X30967Y40788D01*
X30959Y40794D01*
X30953Y40802D01*
X30949Y40811D01*
X30946Y40820D01*
X30945Y40830D01*
Y40980D01*
X30946Y40990D01*
X30949Y40999D01*
X30953Y41008D01*
X30959Y41016D01*
X30967Y41022D01*
X30976Y41026D01*
X30985Y41029D01*
X30995Y41030D01*
X31055D01*
X31055Y41030D01*
X31060Y41030D01*
D02*
G37*
G36*
X31480Y41354D02*
X31489Y41351D01*
X31498Y41347D01*
X31506Y41341D01*
X31512Y41333D01*
X31516Y41324D01*
X31519Y41315D01*
X31520Y41305D01*
Y41095D01*
X31520Y41095D01*
X31519Y41085D01*
X31516Y41076D01*
X31512Y41067D01*
X31506Y41059D01*
X31498Y41053D01*
X31489Y41049D01*
X31480Y41046D01*
X31470Y41045D01*
X31460Y41046D01*
X31451Y41049D01*
X31442Y41053D01*
X31438Y41057D01*
X31434Y41059D01*
X31434Y41059D01*
X31284Y41209D01*
X31278Y41217D01*
X31274Y41226D01*
X31273Y41228D01*
X31271Y41235D01*
X31270Y41240D01*
X31270Y41245D01*
X31270Y41245D01*
Y41305D01*
X31271Y41315D01*
X31274Y41324D01*
X31278Y41333D01*
X31284Y41341D01*
X31292Y41347D01*
X31301Y41351D01*
X31310Y41354D01*
X31320Y41355D01*
X31470D01*
X31480Y41354D01*
D02*
G37*
G36*
X31215Y46819D02*
X31224Y46816D01*
X31233Y46812D01*
X31241Y46806D01*
X31247Y46798D01*
X31251Y46789D01*
X31254Y46780D01*
X31255Y46770D01*
X31254Y46760D01*
X31251Y46751D01*
X31247Y46742D01*
X31243Y46738D01*
X31241Y46734D01*
X31241Y46734D01*
X31091Y46584D01*
X31083Y46578D01*
X31074Y46574D01*
X31072Y46573D01*
X31065Y46571D01*
X31060Y46570D01*
X31055Y46570D01*
X31055Y46570D01*
X30995D01*
X30985Y46571D01*
X30976Y46574D01*
X30967Y46578D01*
X30959Y46584D01*
X30953Y46592D01*
X30949Y46601D01*
X30946Y46610D01*
X30945Y46620D01*
Y46770D01*
X30946Y46780D01*
X30949Y46789D01*
X30953Y46798D01*
X30959Y46806D01*
X30967Y46812D01*
X30976Y46816D01*
X30985Y46819D01*
X30995Y46820D01*
X31205D01*
X31205Y46820D01*
X31215Y46819D01*
D02*
G37*
G36*
X31480Y46554D02*
X31489Y46551D01*
X31498Y46547D01*
X31506Y46541D01*
X31512Y46533D01*
X31516Y46524D01*
X31519Y46515D01*
X31520Y46505D01*
X31520Y46505D01*
Y46295D01*
X31519Y46285D01*
X31516Y46276D01*
X31512Y46267D01*
X31506Y46259D01*
X31498Y46253D01*
X31489Y46249D01*
X31480Y46246D01*
X31470Y46245D01*
X31320D01*
X31310Y46246D01*
X31301Y46249D01*
X31292Y46253D01*
X31284Y46259D01*
X31278Y46267D01*
X31274Y46276D01*
X31271Y46285D01*
X31270Y46295D01*
Y46355D01*
X31270Y46355D01*
X31270Y46360D01*
X31271Y46365D01*
X31273Y46372D01*
X31274Y46374D01*
X31278Y46383D01*
X31284Y46391D01*
X31434Y46541D01*
X31434Y46541D01*
X31438Y46543D01*
X31442Y46547D01*
X31451Y46551D01*
X31460Y46554D01*
X31470Y46555D01*
X31480Y46554D01*
D02*
G37*
D14*
X92225Y44760D02*
D03*
Y46160D02*
D03*
Y37685D02*
D03*
Y39085D02*
D03*
X22300Y52925D02*
D03*
Y51525D02*
D03*
X39775Y53775D02*
D03*
Y52375D02*
D03*
X38500Y53775D02*
D03*
Y52375D02*
D03*
X37225Y53775D02*
D03*
Y52375D02*
D03*
X24025Y50425D02*
D03*
Y49025D02*
D03*
X40000Y47800D02*
D03*
Y46400D02*
D03*
X41300Y47800D02*
D03*
Y46400D02*
D03*
X38700Y47800D02*
D03*
Y46400D02*
D03*
X37400Y47800D02*
D03*
Y46400D02*
D03*
X21100Y41025D02*
D03*
Y39625D02*
D03*
X35950Y53775D02*
D03*
Y52375D02*
D03*
X22175Y41900D02*
D03*
Y43300D02*
D03*
X21000Y52925D02*
D03*
Y51525D02*
D03*
X19700Y52925D02*
D03*
Y51525D02*
D03*
D15*
X79559Y38380D02*
D03*
Y37479D02*
D03*
X91209Y44790D02*
D03*
Y45690D02*
D03*
Y37640D02*
D03*
Y38540D02*
D03*
X79559Y39079D02*
D03*
Y39979D02*
D03*
X91209Y44015D02*
D03*
Y43115D02*
D03*
Y35790D02*
D03*
Y36690D02*
D03*
X31625Y38570D02*
D03*
Y39470D02*
D03*
X52285Y38475D02*
D03*
Y37575D02*
D03*
X56293Y31610D02*
D03*
Y32510D02*
D03*
X28850Y35580D02*
D03*
Y34680D02*
D03*
X34025Y36590D02*
D03*
Y37490D02*
D03*
X33200Y36590D02*
D03*
Y37490D02*
D03*
X35250Y37965D02*
D03*
Y37065D02*
D03*
X29675Y35580D02*
D03*
Y34680D02*
D03*
X30350Y36420D02*
D03*
Y37320D02*
D03*
X28175Y37270D02*
D03*
Y38170D02*
D03*
X27600Y36200D02*
D03*
Y35300D02*
D03*
X26775Y36510D02*
D03*
Y35610D02*
D03*
X25500Y37175D02*
D03*
Y36275D02*
D03*
X24725Y38320D02*
D03*
Y37420D02*
D03*
X24727Y35245D02*
D03*
Y36145D02*
D03*
X52285Y35950D02*
D03*
Y36850D02*
D03*
X51000Y32300D02*
D03*
Y33200D02*
D03*
D16*
X80860Y48115D02*
D03*
X81660D02*
D03*
X82460D02*
D03*
X83260D02*
D03*
X86460D02*
D03*
X87260D02*
D03*
X88060D02*
D03*
X88860D02*
D03*
X89660D02*
D03*
X84060D02*
D03*
X80860Y47465D02*
D03*
X81660D02*
D03*
X82460D02*
D03*
X83260D02*
D03*
X86460D02*
D03*
X87260D02*
D03*
X88060D02*
D03*
X88860D02*
D03*
X89660D02*
D03*
X84060D02*
D03*
X80860Y46815D02*
D03*
X81660D02*
D03*
X82460D02*
D03*
X83260D02*
D03*
X86460D02*
D03*
X87260D02*
D03*
X88060D02*
D03*
X88860D02*
D03*
X89660D02*
D03*
X84060D02*
D03*
X80860Y46165D02*
D03*
X81660D02*
D03*
X82460D02*
D03*
X83260D02*
D03*
X86460D02*
D03*
X87260D02*
D03*
X88060D02*
D03*
X88860D02*
D03*
X89660D02*
D03*
X84060D02*
D03*
X80860Y45515D02*
D03*
X81660D02*
D03*
X82460D02*
D03*
X83260D02*
D03*
X86460D02*
D03*
X87260D02*
D03*
X88060D02*
D03*
X88860D02*
D03*
X89660D02*
D03*
X84060D02*
D03*
X80860Y38365D02*
D03*
Y39015D02*
D03*
Y39665D02*
D03*
Y40315D02*
D03*
X84060Y37715D02*
D03*
X83260D02*
D03*
X82460D02*
D03*
X81660D02*
D03*
X80860D02*
D03*
Y44865D02*
D03*
X81660D02*
D03*
X82460D02*
D03*
X83260D02*
D03*
X86460D02*
D03*
X87260D02*
D03*
X88060D02*
D03*
X88860D02*
D03*
X89660D02*
D03*
X84060D02*
D03*
X81660Y44215D02*
D03*
X83260D02*
D03*
X84060Y42915D02*
D03*
Y40315D02*
D03*
X82460Y39015D02*
D03*
X84060D02*
D03*
X81660Y38365D02*
D03*
X83260D02*
D03*
X89660Y34465D02*
D03*
X88860D02*
D03*
X88060D02*
D03*
X87260D02*
D03*
X86460D02*
D03*
X84060D02*
D03*
X83260D02*
D03*
X82460D02*
D03*
X81660D02*
D03*
X80860D02*
D03*
X89660Y35115D02*
D03*
X88860D02*
D03*
X88060D02*
D03*
X87260D02*
D03*
X86460D02*
D03*
X84060D02*
D03*
X83260D02*
D03*
X82460D02*
D03*
X81660D02*
D03*
X80860D02*
D03*
X89660Y35765D02*
D03*
X88860D02*
D03*
X88060D02*
D03*
X87260D02*
D03*
X86460D02*
D03*
X84060D02*
D03*
X83260D02*
D03*
X82460D02*
D03*
X81660D02*
D03*
X80860D02*
D03*
X89660Y36415D02*
D03*
X88860D02*
D03*
X88060D02*
D03*
X87260D02*
D03*
X86460D02*
D03*
X84060D02*
D03*
X83260D02*
D03*
X82460D02*
D03*
X81660D02*
D03*
X80860D02*
D03*
X89660Y37065D02*
D03*
X88860D02*
D03*
X88060D02*
D03*
X87260D02*
D03*
X86460D02*
D03*
X84060D02*
D03*
X83260D02*
D03*
X82460D02*
D03*
X81660D02*
D03*
X80860D02*
D03*
X89660Y37715D02*
D03*
X88860D02*
D03*
X88060D02*
D03*
X87260D02*
D03*
X86460D02*
D03*
X89660Y38365D02*
D03*
X88860D02*
D03*
X88060D02*
D03*
X87260D02*
D03*
X86460D02*
D03*
X84060D02*
D03*
X82460D02*
D03*
X89660Y39015D02*
D03*
X88860D02*
D03*
X88060D02*
D03*
X87260D02*
D03*
X86460D02*
D03*
X83260D02*
D03*
X81660D02*
D03*
X89660Y39665D02*
D03*
X88860D02*
D03*
X88060D02*
D03*
X87260D02*
D03*
X86460D02*
D03*
X84060D02*
D03*
X83260D02*
D03*
X82460D02*
D03*
X81660D02*
D03*
X89660Y40315D02*
D03*
X88860D02*
D03*
X88060D02*
D03*
X87260D02*
D03*
X86460D02*
D03*
X83260D02*
D03*
X82460D02*
D03*
X81660D02*
D03*
X89660Y42265D02*
D03*
X88860D02*
D03*
X88060D02*
D03*
X87260D02*
D03*
X86460D02*
D03*
X84060D02*
D03*
X83260D02*
D03*
X82460D02*
D03*
X81660D02*
D03*
X80860D02*
D03*
X89660Y42915D02*
D03*
X88860D02*
D03*
X88060D02*
D03*
X87260D02*
D03*
X86460D02*
D03*
X83260D02*
D03*
X82460D02*
D03*
X81660D02*
D03*
X80860D02*
D03*
X89660Y44215D02*
D03*
X88860D02*
D03*
X88060D02*
D03*
X87260D02*
D03*
X86460D02*
D03*
X84060D02*
D03*
X82460D02*
D03*
X80860D02*
D03*
X81660Y43565D02*
D03*
X83260D02*
D03*
X89660D02*
D03*
X88860D02*
D03*
X88060D02*
D03*
X87260D02*
D03*
X86460D02*
D03*
X84060D02*
D03*
X82460D02*
D03*
X80860D02*
D03*
D17*
X80925Y61655D02*
D03*
Y61155D02*
D03*
Y60655D02*
D03*
Y60155D02*
D03*
Y59655D02*
D03*
Y59155D02*
D03*
Y58655D02*
D03*
Y58155D02*
D03*
Y57655D02*
D03*
Y57155D02*
D03*
Y56655D02*
D03*
Y56155D02*
D03*
Y55655D02*
D03*
Y55155D02*
D03*
X80425Y61655D02*
D03*
Y61155D02*
D03*
Y60655D02*
D03*
Y60155D02*
D03*
Y59655D02*
D03*
Y59155D02*
D03*
Y58655D02*
D03*
Y58155D02*
D03*
Y57655D02*
D03*
Y57155D02*
D03*
Y56655D02*
D03*
Y56155D02*
D03*
Y55655D02*
D03*
Y55155D02*
D03*
X79925Y61655D02*
D03*
Y61155D02*
D03*
Y60655D02*
D03*
Y60155D02*
D03*
Y59655D02*
D03*
Y59155D02*
D03*
Y58655D02*
D03*
Y58155D02*
D03*
Y57655D02*
D03*
Y57155D02*
D03*
Y56655D02*
D03*
Y56155D02*
D03*
Y55655D02*
D03*
Y55155D02*
D03*
X79425Y61655D02*
D03*
Y61155D02*
D03*
Y60655D02*
D03*
Y56155D02*
D03*
Y55655D02*
D03*
Y55155D02*
D03*
X78925Y61655D02*
D03*
Y61155D02*
D03*
Y60655D02*
D03*
Y59655D02*
D03*
Y59155D02*
D03*
Y58655D02*
D03*
Y58155D02*
D03*
Y57655D02*
D03*
Y57155D02*
D03*
Y56155D02*
D03*
Y55655D02*
D03*
Y55155D02*
D03*
X78425Y61655D02*
D03*
Y61155D02*
D03*
Y60655D02*
D03*
Y59655D02*
D03*
Y57155D02*
D03*
Y56155D02*
D03*
Y55655D02*
D03*
Y55155D02*
D03*
X77925Y61655D02*
D03*
Y61155D02*
D03*
Y60655D02*
D03*
Y59655D02*
D03*
Y57155D02*
D03*
Y56155D02*
D03*
Y55655D02*
D03*
Y55155D02*
D03*
X77425Y61655D02*
D03*
Y61155D02*
D03*
Y60655D02*
D03*
Y59655D02*
D03*
Y57155D02*
D03*
Y56155D02*
D03*
Y55655D02*
D03*
Y55155D02*
D03*
X76925Y61655D02*
D03*
Y61155D02*
D03*
Y60655D02*
D03*
Y59655D02*
D03*
Y57155D02*
D03*
Y56155D02*
D03*
Y55655D02*
D03*
Y55155D02*
D03*
X76425Y61655D02*
D03*
Y61155D02*
D03*
Y60655D02*
D03*
Y59655D02*
D03*
Y59155D02*
D03*
Y58655D02*
D03*
Y58155D02*
D03*
Y57655D02*
D03*
Y57155D02*
D03*
Y56155D02*
D03*
Y55655D02*
D03*
Y55155D02*
D03*
X75925Y61655D02*
D03*
Y61155D02*
D03*
Y60655D02*
D03*
Y56655D02*
D03*
Y56155D02*
D03*
Y55655D02*
D03*
Y55155D02*
D03*
X75425Y61655D02*
D03*
Y61155D02*
D03*
Y60655D02*
D03*
Y60155D02*
D03*
Y59655D02*
D03*
Y59155D02*
D03*
Y58655D02*
D03*
Y58155D02*
D03*
Y57655D02*
D03*
Y57155D02*
D03*
Y56655D02*
D03*
Y56155D02*
D03*
Y55655D02*
D03*
Y55155D02*
D03*
X74925Y61655D02*
D03*
Y61155D02*
D03*
Y60655D02*
D03*
Y60155D02*
D03*
Y59655D02*
D03*
Y59155D02*
D03*
Y58655D02*
D03*
Y58155D02*
D03*
Y57655D02*
D03*
Y57155D02*
D03*
Y56655D02*
D03*
Y56155D02*
D03*
Y55655D02*
D03*
Y55155D02*
D03*
X74425Y61655D02*
D03*
Y61155D02*
D03*
Y60655D02*
D03*
Y60155D02*
D03*
Y59655D02*
D03*
Y59155D02*
D03*
Y58655D02*
D03*
Y58155D02*
D03*
Y57655D02*
D03*
Y57155D02*
D03*
Y56655D02*
D03*
Y56155D02*
D03*
Y55655D02*
D03*
Y55155D02*
D03*
X62875Y46825D02*
D03*
X65375Y47825D02*
D03*
X56875Y40825D02*
D03*
X64375Y47325D02*
D03*
X56375Y39325D02*
D03*
X65375Y36825D02*
D03*
X63875Y36325D02*
D03*
X64375Y35825D02*
D03*
X60875Y34825D02*
D03*
X60375Y46825D02*
D03*
Y47325D02*
D03*
X60625Y40575D02*
D03*
X63125Y41075D02*
D03*
X62625Y41575D02*
D03*
X64125Y41075D02*
D03*
X62125D02*
D03*
X61125D02*
D03*
X60125D02*
D03*
X61625Y41575D02*
D03*
X60625D02*
D03*
X63625D02*
D03*
X64625D02*
D03*
X65625D02*
D03*
X65125Y41075D02*
D03*
X63125Y40075D02*
D03*
Y39075D02*
D03*
X62625Y40575D02*
D03*
Y39575D02*
D03*
Y38575D02*
D03*
X63125Y42075D02*
D03*
Y43075D02*
D03*
Y44075D02*
D03*
X62625Y42575D02*
D03*
Y43575D02*
D03*
X64125Y44075D02*
D03*
X65125D02*
D03*
X63625Y43575D02*
D03*
X64625D02*
D03*
X65625D02*
D03*
X64125Y43075D02*
D03*
X65125D02*
D03*
X63625Y42575D02*
D03*
X64625D02*
D03*
X65625D02*
D03*
X64125Y42075D02*
D03*
X65125D02*
D03*
X62125D02*
D03*
X61125D02*
D03*
X60125D02*
D03*
X61625Y42575D02*
D03*
X60625D02*
D03*
X62125Y43075D02*
D03*
X61125D02*
D03*
X60125D02*
D03*
X61625Y43575D02*
D03*
X62125Y44075D02*
D03*
X61125D02*
D03*
X60625Y43575D02*
D03*
X60125Y44075D02*
D03*
X63625Y40575D02*
D03*
X64625D02*
D03*
X65625D02*
D03*
X64125Y40075D02*
D03*
X65125D02*
D03*
X63625Y39575D02*
D03*
X64625D02*
D03*
X65625D02*
D03*
X64125Y39075D02*
D03*
X65125D02*
D03*
X63625Y38575D02*
D03*
X64625D02*
D03*
X65625D02*
D03*
X61625D02*
D03*
X60625D02*
D03*
X62125Y39075D02*
D03*
X61125D02*
D03*
X60125D02*
D03*
X61625Y39575D02*
D03*
X60625D02*
D03*
X62125Y40075D02*
D03*
X61125D02*
D03*
X60125D02*
D03*
X61625Y40575D02*
D03*
X66375Y37825D02*
D03*
X65375D02*
D03*
X64375D02*
D03*
X63375D02*
D03*
X62375D02*
D03*
X61375D02*
D03*
X60375D02*
D03*
X59375D02*
D03*
Y44825D02*
D03*
X60375D02*
D03*
X61375D02*
D03*
X62375D02*
D03*
X63375D02*
D03*
X64375D02*
D03*
X65375D02*
D03*
X66375D02*
D03*
X68875Y37825D02*
D03*
X68375D02*
D03*
X67375D02*
D03*
X58375D02*
D03*
X57375D02*
D03*
X56875D02*
D03*
X56375D02*
D03*
X68375Y38325D02*
D03*
X67875D02*
D03*
X66875D02*
D03*
X57875D02*
D03*
X57375D02*
D03*
X68875Y38825D02*
D03*
X68375D02*
D03*
X67375D02*
D03*
X58375D02*
D03*
X57375D02*
D03*
X56875D02*
D03*
X68875Y39325D02*
D03*
X68375D02*
D03*
X67875D02*
D03*
X66875D02*
D03*
X57875D02*
D03*
X57375D02*
D03*
X56875D02*
D03*
X68875Y39825D02*
D03*
X68375D02*
D03*
X67375D02*
D03*
X58375D02*
D03*
X57375D02*
D03*
X56875D02*
D03*
X56375D02*
D03*
X68875Y40825D02*
D03*
X68375D02*
D03*
X67375D02*
D03*
X58375D02*
D03*
X57375D02*
D03*
X68875Y41325D02*
D03*
X68375D02*
D03*
X67875D02*
D03*
X66875D02*
D03*
X57875D02*
D03*
X57375D02*
D03*
X56875D02*
D03*
X56375D02*
D03*
X68875Y41825D02*
D03*
X68375D02*
D03*
X67375D02*
D03*
X58375D02*
D03*
X57375D02*
D03*
X56875D02*
D03*
X56375D02*
D03*
X68375Y42325D02*
D03*
X67875D02*
D03*
X66875D02*
D03*
X57875D02*
D03*
X57375D02*
D03*
X68875Y43825D02*
D03*
X68375D02*
D03*
X67375D02*
D03*
X58375D02*
D03*
X57375D02*
D03*
X56875D02*
D03*
X56375D02*
D03*
X68875Y44825D02*
D03*
X68375D02*
D03*
X67375D02*
D03*
X58375D02*
D03*
X57375D02*
D03*
X56875D02*
D03*
Y47825D02*
D03*
X57375D02*
D03*
X58875D02*
D03*
X59375D02*
D03*
X60875D02*
D03*
X61375D02*
D03*
X62875D02*
D03*
X63375D02*
D03*
X64875D02*
D03*
X66875D02*
D03*
X67375D02*
D03*
X68875D02*
D03*
X56375D02*
D03*
X56875Y47325D02*
D03*
X57375D02*
D03*
X58375D02*
D03*
X58875D02*
D03*
X59375D02*
D03*
X60875D02*
D03*
X61375D02*
D03*
X62375D02*
D03*
X62875D02*
D03*
X63375D02*
D03*
X64875D02*
D03*
X65375D02*
D03*
X66375D02*
D03*
X66875D02*
D03*
X67375D02*
D03*
X68375D02*
D03*
X68875D02*
D03*
X56375D02*
D03*
X56875Y46825D02*
D03*
X57375D02*
D03*
X57875D02*
D03*
X58375D02*
D03*
X58875D02*
D03*
X59375D02*
D03*
X59875D02*
D03*
X60875D02*
D03*
X61375D02*
D03*
X61875D02*
D03*
X62375D02*
D03*
X63375D02*
D03*
X63875D02*
D03*
X64375D02*
D03*
X64875D02*
D03*
X65375D02*
D03*
X65875D02*
D03*
X66375D02*
D03*
X66875D02*
D03*
X67375D02*
D03*
X67875D02*
D03*
X68375D02*
D03*
X68875D02*
D03*
X57375Y46325D02*
D03*
X57875D02*
D03*
X58875D02*
D03*
X59875D02*
D03*
X60875D02*
D03*
X61875D02*
D03*
X62875D02*
D03*
X63875D02*
D03*
X64875D02*
D03*
X65875D02*
D03*
X66875D02*
D03*
X67875D02*
D03*
X68375D02*
D03*
X56375Y45825D02*
D03*
X56875D02*
D03*
X57375D02*
D03*
X58375D02*
D03*
X67375D02*
D03*
X68375D02*
D03*
X68875D02*
D03*
X56375Y45325D02*
D03*
X56875D02*
D03*
X57375D02*
D03*
X57875D02*
D03*
X67875D02*
D03*
X68375D02*
D03*
X68875D02*
D03*
X59375Y45825D02*
D03*
X60375D02*
D03*
X61375D02*
D03*
X62375D02*
D03*
X63375D02*
D03*
X64375D02*
D03*
X65375D02*
D03*
X66375D02*
D03*
X66875Y45325D02*
D03*
X57375Y44325D02*
D03*
X57875D02*
D03*
X66875D02*
D03*
X67875D02*
D03*
X68375D02*
D03*
X56375Y43325D02*
D03*
X56875D02*
D03*
X57375D02*
D03*
X57875D02*
D03*
X66875D02*
D03*
X67875D02*
D03*
X68375D02*
D03*
X68875D02*
D03*
X56875Y42825D02*
D03*
X57375D02*
D03*
X58375D02*
D03*
X67375D02*
D03*
X68375D02*
D03*
X68875D02*
D03*
X57375Y40325D02*
D03*
X57875D02*
D03*
X66875D02*
D03*
X67875D02*
D03*
X68375D02*
D03*
X56375Y37325D02*
D03*
X56875D02*
D03*
X57375D02*
D03*
X57875D02*
D03*
X58875D02*
D03*
X59875D02*
D03*
X60875D02*
D03*
X61875D02*
D03*
X62875D02*
D03*
X63875D02*
D03*
X64875D02*
D03*
X65875D02*
D03*
X66875D02*
D03*
X67875D02*
D03*
X68375D02*
D03*
X68875D02*
D03*
X56875Y36825D02*
D03*
X57375D02*
D03*
X58375D02*
D03*
X59375D02*
D03*
X60375D02*
D03*
X61375D02*
D03*
X62375D02*
D03*
X63375D02*
D03*
X64375D02*
D03*
X66375D02*
D03*
X67375D02*
D03*
X68375D02*
D03*
X68875D02*
D03*
X57375Y36325D02*
D03*
X57875D02*
D03*
X58875D02*
D03*
X59875D02*
D03*
X60875D02*
D03*
X61875D02*
D03*
X62875D02*
D03*
X64875D02*
D03*
X65875D02*
D03*
X66875D02*
D03*
X67875D02*
D03*
X68375D02*
D03*
X56375Y35825D02*
D03*
X56875D02*
D03*
X57375D02*
D03*
X57875D02*
D03*
X58375D02*
D03*
X58875D02*
D03*
X59375D02*
D03*
X59875D02*
D03*
X60375D02*
D03*
X60875D02*
D03*
X61375D02*
D03*
X61875D02*
D03*
X62375D02*
D03*
X62875D02*
D03*
X63375D02*
D03*
X63875D02*
D03*
X64875D02*
D03*
X65375D02*
D03*
X65875D02*
D03*
X66375D02*
D03*
X66875D02*
D03*
X67375D02*
D03*
X67875D02*
D03*
X68375D02*
D03*
X68875D02*
D03*
X56375Y35325D02*
D03*
X56875D02*
D03*
X57375D02*
D03*
X58375D02*
D03*
X58875D02*
D03*
X59375D02*
D03*
X60375D02*
D03*
X60875D02*
D03*
X61375D02*
D03*
X62375D02*
D03*
X62875D02*
D03*
X63375D02*
D03*
X64375D02*
D03*
X64875D02*
D03*
X65375D02*
D03*
X66375D02*
D03*
X66875D02*
D03*
X67375D02*
D03*
X68375D02*
D03*
X68875D02*
D03*
X69375Y38825D02*
D03*
Y39325D02*
D03*
Y40825D02*
D03*
Y41325D02*
D03*
Y44825D02*
D03*
Y47825D02*
D03*
Y47325D02*
D03*
Y46825D02*
D03*
Y45325D02*
D03*
Y43325D02*
D03*
Y42825D02*
D03*
Y37325D02*
D03*
Y36825D02*
D03*
Y35325D02*
D03*
X56375Y34825D02*
D03*
X56875D02*
D03*
X58375D02*
D03*
X62375D02*
D03*
X62875D02*
D03*
X64375D02*
D03*
X66875D02*
D03*
X68375D02*
D03*
X68875D02*
D03*
X69375D02*
D03*
X58875Y45325D02*
D03*
X59875D02*
D03*
X60875D02*
D03*
X61875D02*
D03*
X62875D02*
D03*
X63875D02*
D03*
X64875D02*
D03*
X65875D02*
D03*
X58875Y44325D02*
D03*
X59375Y43825D02*
D03*
X66375D02*
D03*
X58875Y43325D02*
D03*
X59375Y42825D02*
D03*
X66375D02*
D03*
X58875Y42325D02*
D03*
X59375Y41825D02*
D03*
X58875Y41325D02*
D03*
X66375Y40825D02*
D03*
Y41825D02*
D03*
X59375Y40825D02*
D03*
X58875Y40325D02*
D03*
X59375Y39825D02*
D03*
X66375D02*
D03*
X58875Y39325D02*
D03*
X59375Y38825D02*
D03*
X66375D02*
D03*
X58875Y38325D02*
D03*
X58875Y34825D02*
D03*
X60375D02*
D03*
X64875Y34825D02*
D03*
X66375D02*
D03*
D18*
X6795Y36354D02*
D03*
Y29854D02*
D03*
D19*
X11386Y36022D02*
D03*
D20*
Y34522D02*
D03*
D21*
X35425Y44600D02*
D03*
X37425D02*
D03*
X33915Y50450D02*
D03*
X35915D02*
D03*
D22*
X20600Y38050D02*
D03*
X22200D02*
D03*
X27595Y51175D02*
D03*
X25995D02*
D03*
X19825Y42700D02*
D03*
X18225D02*
D03*
X34700Y40000D02*
D03*
X36300D02*
D03*
D23*
X25330Y42400D02*
D03*
X31670Y45200D02*
D03*
Y44800D02*
D03*
Y44000D02*
D03*
Y43600D02*
D03*
Y43200D02*
D03*
Y42400D02*
D03*
Y42000D02*
D03*
X25330Y45200D02*
D03*
Y44800D02*
D03*
Y44000D02*
D03*
Y43600D02*
D03*
Y42800D02*
D03*
X31670Y46000D02*
D03*
X25330D02*
D03*
X31670Y41600D02*
D03*
X25330Y42000D02*
D03*
Y41600D02*
D03*
Y44400D02*
D03*
X31670Y42800D02*
D03*
X25330Y43200D02*
D03*
X31670Y44400D02*
D03*
Y45600D02*
D03*
X25330D02*
D03*
D24*
X26700Y40630D02*
D03*
X30700D02*
D03*
X29100D02*
D03*
X29500D02*
D03*
X29900D02*
D03*
X28300D02*
D03*
X27900D02*
D03*
X27500D02*
D03*
X27100D02*
D03*
X26300D02*
D03*
X29900Y46970D02*
D03*
X29500D02*
D03*
X29100D02*
D03*
X28700D02*
D03*
X28300D02*
D03*
X27500D02*
D03*
X27100D02*
D03*
X26300D02*
D03*
X30300D02*
D03*
X30700D02*
D03*
X27900D02*
D03*
X26700D02*
D03*
X30300Y40630D02*
D03*
X28700D02*
D03*
D25*
X28500Y43800D02*
D03*
D26*
X31745Y41200D02*
D03*
Y46400D02*
D03*
X25255D02*
D03*
Y41200D02*
D03*
D27*
X31100Y47045D02*
D03*
X25900D02*
D03*
X31100Y40555D02*
D03*
X25900D02*
D03*
D28*
X51059Y36475D02*
D03*
Y37975D02*
D03*
D29*
X55284Y31760D02*
D03*
X54234D02*
D03*
Y32510D02*
D03*
X55284D02*
D03*
D30*
X10686Y40906D02*
D03*
X7936D02*
D03*
X10686Y44468D02*
D03*
X7936D02*
D03*
D31*
X31850Y36400D02*
D03*
Y35500D02*
D03*
X31150Y50448D02*
D03*
Y49548D02*
D03*
X21480Y35245D02*
D03*
Y36145D02*
D03*
X22530Y35245D02*
D03*
Y36145D02*
D03*
X23580Y35245D02*
D03*
Y36145D02*
D03*
X31163Y52798D02*
D03*
Y51898D02*
D03*
X11386Y37015D02*
D03*
Y37915D02*
D03*
X58956Y32258D02*
D03*
Y31358D02*
D03*
D32*
X25550Y49075D02*
D03*
X26950D02*
D03*
X35325Y48225D02*
D03*
X33925D02*
D03*
X35275Y46575D02*
D03*
X33875D02*
D03*
X14575Y43750D02*
D03*
X15975D02*
D03*
X35697Y42625D02*
D03*
X34297D02*
D03*
X14575Y45050D02*
D03*
X15975D02*
D03*
X14575Y42450D02*
D03*
X15975D02*
D03*
D33*
X20995Y46575D02*
D03*
X21895D02*
D03*
X20995Y45750D02*
D03*
X21895D02*
D03*
X18085Y44800D02*
D03*
X18985D02*
D03*
X54759Y33546D02*
D03*
X53859D02*
D03*
D34*
X40100Y39400D02*
D03*
Y41100D02*
D03*
X41900Y39400D02*
D03*
Y41100D02*
D03*
X38300Y39400D02*
D03*
Y41100D02*
D03*
X24300Y52950D02*
D03*
Y54650D02*
D03*
X28000Y52950D02*
D03*
Y54650D02*
D03*
X26150Y52950D02*
D03*
Y54650D02*
D03*
X19000Y38323D02*
D03*
Y40023D02*
D03*
X17200Y38323D02*
D03*
Y40023D02*
D03*
X13600Y38323D02*
D03*
Y40023D02*
D03*
X15400Y38323D02*
D03*
Y40023D02*
D03*
D35*
X58683Y33002D02*
D03*
X59233D02*
D03*
X58683Y33572D02*
D03*
X59233D02*
D03*
D36*
X21850Y48275D02*
D03*
Y49875D02*
D03*
D37*
X48805Y38872D02*
D03*
X47905D02*
D03*
X53935Y37575D02*
D03*
X53035D02*
D03*
X56409Y33546D02*
D03*
X55509D02*
D03*
D38*
X47175Y46475D02*
D03*
X48425D02*
D03*
D39*
X81260Y43315D02*
D03*
X87076Y33920D02*
D03*
X86060Y35490D02*
D03*
X89985Y36065D02*
D03*
X88060Y34015D02*
D03*
X88016Y33516D02*
D03*
X86835Y35981D02*
D03*
X86010Y34450D02*
D03*
X86085Y46490D02*
D03*
X85990Y47505D02*
D03*
X86210Y48489D02*
D03*
X86860Y43940D02*
D03*
X87665Y45229D02*
D03*
X86865D02*
D03*
X86860Y45865D02*
D03*
X88460Y45265D02*
D03*
X87661Y48325D02*
D03*
X87659Y47765D02*
D03*
X85990Y44285D02*
D03*
X86010Y43565D02*
D03*
X83574Y42590D02*
D03*
X84479Y44694D02*
D03*
X83660Y43253D02*
D03*
Y46465D02*
D03*
X84380Y46490D02*
D03*
X83659Y43990D02*
D03*
X84509Y45523D02*
D03*
X82860Y42050D02*
D03*
Y43990D02*
D03*
Y42690D02*
D03*
Y43290D02*
D03*
Y44615D02*
D03*
X82835Y47790D02*
D03*
X84515Y48054D02*
D03*
X84374Y42590D02*
D03*
X89972Y45840D02*
D03*
X89260Y38015D02*
D03*
X90160Y44265D02*
D03*
X90060Y42565D02*
D03*
Y43215D02*
D03*
X89260D02*
D03*
X90110Y39640D02*
D03*
X90160Y44915D02*
D03*
X89285Y38665D02*
D03*
X89260Y42565D02*
D03*
X90160Y41190D02*
D03*
X90110Y40290D02*
D03*
Y38990D02*
D03*
X80340Y45025D02*
D03*
X82060Y46540D02*
D03*
X80546Y46490D02*
D03*
X80400Y45719D02*
D03*
X79895Y44725D02*
D03*
X81260Y44005D02*
D03*
Y42625D02*
D03*
X80414Y42784D02*
D03*
X80410Y44230D02*
D03*
X82085Y47790D02*
D03*
X81271Y46589D02*
D03*
X86860Y42665D02*
D03*
X87675Y43150D02*
D03*
X86835Y39325D02*
D03*
X87685Y37390D02*
D03*
X87675Y43850D02*
D03*
X87075Y41850D02*
D03*
X87685Y40665D02*
D03*
X86860D02*
D03*
X86835Y38740D02*
D03*
X81240Y36045D02*
D03*
X85210Y37765D02*
D03*
X80410Y37020D02*
D03*
X85885Y37040D02*
D03*
X84535Y38515D02*
D03*
X84485Y36890D02*
D03*
X84375Y35440D02*
D03*
X83635Y36175D02*
D03*
X82860Y34744D02*
D03*
X82830Y34200D02*
D03*
X82085Y37315D02*
D03*
X80460Y36045D02*
D03*
X86145Y39340D02*
D03*
X86085Y38640D02*
D03*
X80150Y38700D02*
D03*
X84460Y39390D02*
D03*
X84809Y38965D02*
D03*
X82860Y39940D02*
D03*
Y38715D02*
D03*
Y39225D02*
D03*
X82060Y39940D02*
D03*
X81235Y39945D02*
D03*
X82060Y39240D02*
D03*
X83660Y39390D02*
D03*
X81250Y39415D02*
D03*
X80415Y40235D02*
D03*
X89985Y37365D02*
D03*
X91884Y36829D02*
D03*
Y43904D02*
D03*
X89985Y36715D02*
D03*
X88460Y38690D02*
D03*
Y39940D02*
D03*
Y42565D02*
D03*
Y43190D02*
D03*
X88425Y41975D02*
D03*
X88460Y40665D02*
D03*
Y37340D02*
D03*
X28240Y35580D02*
D03*
X15926Y40798D02*
D03*
X15425D02*
D03*
X17726D02*
D03*
X17225D02*
D03*
X16724D02*
D03*
X14924D02*
D03*
X29568Y38952D02*
D03*
X20325Y40750D02*
D03*
X19526Y40798D02*
D03*
X19025D02*
D03*
X18524D02*
D03*
X20325Y39400D02*
D03*
Y39900D02*
D03*
X24725Y36760D02*
D03*
X26110Y37175D02*
D03*
X23410Y39977D02*
D03*
X25335Y38737D02*
D03*
X28300Y36460D02*
D03*
X29870Y38377D02*
D03*
X27565Y38110D02*
D03*
X34025Y35990D02*
D03*
X33200Y35930D02*
D03*
X32235Y38570D02*
D03*
X30985Y36420D02*
D03*
X28785Y37270D02*
D03*
X41904Y41900D02*
D03*
X36420Y42875D02*
D03*
X41904Y42401D02*
D03*
X43100Y41400D02*
D03*
X38304Y41900D02*
D03*
X26850Y42150D02*
D03*
X34125Y47350D02*
D03*
X33625D02*
D03*
X32170Y46930D02*
D03*
X33675Y49000D02*
D03*
X34175D02*
D03*
X38450Y48575D02*
D03*
X38950D02*
D03*
X37150D02*
D03*
X37650D02*
D03*
X36050Y46825D02*
D03*
X36075Y47975D02*
D03*
Y48475D02*
D03*
X36050Y46325D02*
D03*
X13850Y45300D02*
D03*
Y44800D02*
D03*
Y44000D02*
D03*
X20385Y45750D02*
D03*
Y46575D02*
D03*
X21400Y43525D02*
D03*
X17395Y44790D02*
D03*
X13850Y43500D02*
D03*
X19951Y53623D02*
D03*
X19450D02*
D03*
X18850Y48290D02*
D03*
X27524Y55425D02*
D03*
X28025D02*
D03*
X28526D02*
D03*
X25674D02*
D03*
X26175D02*
D03*
X26676D02*
D03*
X24826D02*
D03*
X24325D02*
D03*
X21251Y53623D02*
D03*
X20750D02*
D03*
X22551D02*
D03*
X22050D02*
D03*
X24276Y51123D02*
D03*
X23775D02*
D03*
X23824Y55425D02*
D03*
X24675Y46975D02*
D03*
X25325D02*
D03*
X30150Y45450D02*
D03*
Y43800D02*
D03*
X28500D02*
D03*
X23008Y44625D02*
D03*
X21450Y47348D02*
D03*
X26850Y43800D02*
D03*
Y45450D02*
D03*
X39525Y54575D02*
D03*
X40025D02*
D03*
X41050Y48575D02*
D03*
X41550D02*
D03*
X39750D02*
D03*
X40250D02*
D03*
X23250Y48800D02*
D03*
Y49300D02*
D03*
X31670Y47700D02*
D03*
X29800Y48400D02*
D03*
X28225Y48775D02*
D03*
X31575Y48773D02*
D03*
X24850Y49323D02*
D03*
X26675Y49850D02*
D03*
X27175D02*
D03*
X24850Y48823D02*
D03*
X29100Y51225D02*
D03*
X29763D02*
D03*
X29784Y49027D02*
D03*
X31150Y51033D02*
D03*
X38250Y54575D02*
D03*
X38750D02*
D03*
X36975D02*
D03*
X37475D02*
D03*
X35700D02*
D03*
X36200D02*
D03*
X33280Y43875D02*
D03*
X30960Y37380D02*
D03*
X32235Y39530D02*
D03*
X26165Y36510D02*
D03*
X31850Y34840D02*
D03*
X28240Y34680D02*
D03*
X30285D02*
D03*
X26165Y35550D02*
D03*
X27600Y34640D02*
D03*
X25500Y35610D02*
D03*
X24722Y34610D02*
D03*
X28500Y42150D02*
D03*
X13850Y42200D02*
D03*
X21924Y41202D02*
D03*
X22425D02*
D03*
X21400Y43025D02*
D03*
X13850Y42700D02*
D03*
X20325Y41250D02*
D03*
X14126Y40798D02*
D03*
X13625D02*
D03*
X30150Y42150D02*
D03*
X24188Y42562D02*
D03*
X36420Y42375D02*
D03*
X40104Y42401D02*
D03*
Y41900D02*
D03*
X38304Y42401D02*
D03*
X34635Y37550D02*
D03*
X32590Y37490D02*
D03*
X34575Y41850D02*
D03*
X34075D02*
D03*
X32815Y41397D02*
D03*
X32772Y42100D02*
D03*
X35245Y36460D02*
D03*
X13124Y40798D02*
D03*
X26800Y33125D02*
D03*
X29325Y44625D02*
D03*
X27675D02*
D03*
X28500Y45450D02*
D03*
X29325Y42975D02*
D03*
X27675D02*
D03*
D40*
X91285Y34865D02*
D03*
X90755Y32906D02*
D03*
X87250Y52216D02*
D03*
X88551Y51167D02*
D03*
X83870Y52208D02*
D03*
X89772Y49948D02*
D03*
X91101Y48492D02*
D03*
X91339Y41128D02*
D03*
X91617Y39829D02*
D03*
X91339Y46544D02*
D03*
X91467Y42332D02*
D03*
X2175Y830D02*
D03*
X4600D02*
D03*
X7050D02*
D03*
X9875D02*
D03*
X12900D02*
D03*
X15825D02*
D03*
X825Y1625D02*
D03*
Y3225D02*
D03*
Y4775D02*
D03*
Y6500D02*
D03*
X3600Y78750D02*
D03*
X825Y77825D02*
D03*
Y75500D02*
D03*
Y70575D02*
D03*
X95000Y78775D02*
D03*
X92500D02*
D03*
X115411D02*
D03*
X112911D02*
D03*
X110086D02*
D03*
X97586D02*
D03*
X100086D02*
D03*
X102586D02*
D03*
X105086D02*
D03*
X107586D02*
D03*
X51925D02*
D03*
X49425D02*
D03*
X89486D02*
D03*
X86986D02*
D03*
X84486D02*
D03*
X79836D02*
D03*
X77336D02*
D03*
X74836D02*
D03*
X72336D02*
D03*
X69836D02*
D03*
X82336D02*
D03*
X67011D02*
D03*
X54511D02*
D03*
X57011D02*
D03*
X59511D02*
D03*
X62011D02*
D03*
X64511D02*
D03*
X21436D02*
D03*
X18936D02*
D03*
X16436D02*
D03*
X13936D02*
D03*
X11436D02*
D03*
X23936D02*
D03*
X39261D02*
D03*
X26761D02*
D03*
X29261D02*
D03*
X31761D02*
D03*
X34261D02*
D03*
X36761D02*
D03*
X41411D02*
D03*
X43911D02*
D03*
X46411D02*
D03*
X28386Y830D02*
D03*
X25886D02*
D03*
X23386D02*
D03*
X20886D02*
D03*
X18386D02*
D03*
X30886D02*
D03*
X46211D02*
D03*
X33711D02*
D03*
X36211D02*
D03*
X38711D02*
D03*
X41211D02*
D03*
X43711D02*
D03*
X48361D02*
D03*
X50861D02*
D03*
X53361D02*
D03*
X107300D02*
D03*
X104000Y805D02*
D03*
X101286D02*
D03*
X96311Y830D02*
D03*
X93811D02*
D03*
X91311D02*
D03*
X88811D02*
D03*
X86311D02*
D03*
X98811D02*
D03*
X81661D02*
D03*
X79161D02*
D03*
X76661D02*
D03*
X74161D02*
D03*
X71661D02*
D03*
X84161D02*
D03*
X118625Y2850D02*
D03*
Y5350D02*
D03*
Y7850D02*
D03*
Y10350D02*
D03*
Y12850D02*
D03*
X109425Y830D02*
D03*
X111725D02*
D03*
X113975D02*
D03*
X116325D02*
D03*
X118625D02*
D03*
Y15350D02*
D03*
Y32850D02*
D03*
Y35350D02*
D03*
Y37850D02*
D03*
Y40350D02*
D03*
Y42850D02*
D03*
Y17850D02*
D03*
Y20350D02*
D03*
Y22850D02*
D03*
Y25350D02*
D03*
Y27850D02*
D03*
Y30350D02*
D03*
Y45350D02*
D03*
Y62850D02*
D03*
Y65350D02*
D03*
Y67850D02*
D03*
Y70350D02*
D03*
Y72850D02*
D03*
Y47850D02*
D03*
Y50350D02*
D03*
Y52850D02*
D03*
Y55350D02*
D03*
Y57850D02*
D03*
Y60350D02*
D03*
Y77850D02*
D03*
Y75350D02*
D03*
X825Y23475D02*
D03*
Y25975D02*
D03*
Y28475D02*
D03*
Y30975D02*
D03*
Y33475D02*
D03*
Y8475D02*
D03*
Y10975D02*
D03*
Y13475D02*
D03*
Y15975D02*
D03*
Y18475D02*
D03*
Y20975D02*
D03*
Y35975D02*
D03*
Y73500D02*
D03*
Y66000D02*
D03*
Y68500D02*
D03*
X6350Y78775D02*
D03*
X8850D02*
D03*
X6800Y27975D02*
D03*
X23575Y34600D02*
D03*
X42656Y44024D02*
D03*
X37800Y38525D02*
D03*
X53329Y32955D02*
D03*
X47189Y44713D02*
D03*
X21490Y34600D02*
D03*
X22500D02*
D03*
X42575Y65995D02*
D03*
X50389Y33869D02*
D03*
X68777Y54958D02*
D03*
X49725Y31600D02*
D03*
X47672Y29202D02*
D03*
X48200Y34420D02*
D03*
X47112Y33546D02*
D03*
X46975Y30500D02*
D03*
X47125Y34425D02*
D03*
X47625Y36300D02*
D03*
X50450Y60275D02*
D03*
Y63575D02*
D03*
X45995Y47305D02*
D03*
X53800Y23875D02*
D03*
X53467Y26550D02*
D03*
X51350Y21475D02*
D03*
X54175Y63500D02*
D03*
X54195Y60275D02*
D03*
X42252Y38285D02*
D03*
X41577D02*
D03*
X14637Y36823D02*
D03*
X13912D02*
D03*
X14637Y37498D02*
D03*
X13912D02*
D03*
X13187D02*
D03*
Y36823D02*
D03*
X19700Y46198D02*
D03*
X16298Y46890D02*
D03*
X15623D02*
D03*
X16298Y46165D02*
D03*
X15623D02*
D03*
X18850Y51523D02*
D03*
Y50848D02*
D03*
Y50173D02*
D03*
X18175D02*
D03*
Y50848D02*
D03*
Y51523D02*
D03*
X19702Y45473D02*
D03*
X42535Y51865D02*
D03*
X29100Y52950D02*
D03*
X29780D02*
D03*
X42656Y45374D02*
D03*
Y44699D02*
D03*
X43326Y44729D02*
D03*
Y45404D02*
D03*
X41473Y44713D02*
D03*
X40798D02*
D03*
X40123D02*
D03*
Y44038D02*
D03*
X40798D02*
D03*
X41473D02*
D03*
X43326Y44054D02*
D03*
X35350Y34945D02*
D03*
X42252Y37560D02*
D03*
X41577D02*
D03*
X32365Y58430D02*
D03*
X45533Y44683D02*
D03*
X12276Y44465D02*
D03*
X12251Y41802D02*
D03*
Y40902D02*
D03*
X12276Y45365D02*
D03*
X6348Y43576D02*
D03*
Y40914D02*
D03*
Y44476D02*
D03*
X12276Y43565D02*
D03*
X6348Y45376D02*
D03*
Y40014D02*
D03*
X11387Y33647D02*
D03*
X12251Y40002D02*
D03*
X6348Y41814D02*
D03*
X44087Y30462D02*
D03*
X43063Y27050D02*
D03*
X45909Y29117D02*
D03*
X29631Y62047D02*
D03*
X29642Y62800D02*
D03*
X84406Y54265D02*
D03*
X81406D02*
D03*
X82774D02*
D03*
X75500Y62900D02*
D03*
X73575Y57875D02*
D03*
X73884Y55227D02*
D03*
X56293Y30993D02*
D03*
X825Y51000D02*
D03*
Y48500D02*
D03*
Y46000D02*
D03*
Y43500D02*
D03*
Y41000D02*
D03*
Y38500D02*
D03*
Y63500D02*
D03*
Y61000D02*
D03*
Y58500D02*
D03*
Y56000D02*
D03*
Y53500D02*
D03*
X68836Y830D02*
D03*
X56336D02*
D03*
X58836D02*
D03*
X61336D02*
D03*
X63836D02*
D03*
X66336D02*
D03*
X51631Y33875D02*
D03*
X49475Y33855D02*
D03*
X48806D02*
D03*
X77675Y57800D02*
D03*
X81600Y57950D02*
D03*
X69284Y30569D02*
D03*
X65956Y28400D02*
D03*
X67730Y28759D02*
D03*
X68584Y30569D02*
D03*
X81475Y55405D02*
D03*
X78550Y56630D02*
D03*
X77250D02*
D03*
X76975Y57805D02*
D03*
X75925Y57145D02*
D03*
Y57880D02*
D03*
X78350Y59055D02*
D03*
X77575Y59080D02*
D03*
X79450Y58930D02*
D03*
X78375Y57705D02*
D03*
X75675Y54605D02*
D03*
M02*
