G04*
G04 #@! TF.GenerationSoftware,Altium Limited,Altium Designer,24.0.1 (36)*
G04*
G04 Layer_Physical_Order=3*
G04 Layer_Color=16737945*
%FSLAX43Y43*%
%MOMM*%
G71*
G04*
G04 #@! TF.SameCoordinates,2B35A735-E746-45F3-9C8E-D4930A679F63*
G04*
G04*
G04 #@! TF.FilePolarity,Positive*
G04*
G01*
G75*
%ADD13C,0.200*%
%ADD16C,0.400*%
%ADD41C,0.150*%
%ADD69C,0.300*%
%ADD74C,0.500*%
%ADD76C,0.640*%
%ADD80C,0.400*%
%ADD83C,0.600*%
%ADD88O,1.000X1.300*%
%ADD89C,0.550*%
%ADD90C,0.500*%
%ADD91C,0.700*%
G36*
X119490Y510D02*
X1000D01*
X1000Y510D01*
X1000Y510D01*
X952Y510D01*
X857Y529D01*
X768Y566D01*
X688Y619D01*
X619Y687D01*
X566Y768D01*
X529Y857D01*
X510Y952D01*
Y1000D01*
X510Y78600D01*
Y78648D01*
X529Y78743D01*
X566Y78832D01*
X619Y78912D01*
X688Y78981D01*
X768Y79034D01*
X857Y79071D01*
X952Y79090D01*
X1000Y79090D01*
X119490D01*
Y510D01*
D02*
G37*
%LPC*%
G36*
X82713Y64708D02*
X29175D01*
X29098Y64677D01*
X29067Y64600D01*
Y61503D01*
X20147D01*
X20011Y61476D01*
X19895Y61398D01*
X11206Y52709D01*
X11129Y52594D01*
X11101Y52457D01*
Y52119D01*
X4212Y52119D01*
X4135Y52087D01*
X4103Y52011D01*
Y35822D01*
Y29394D01*
X4135Y29317D01*
X4212Y29286D01*
X26500D01*
X26577Y29317D01*
X26608Y29394D01*
Y31882D01*
X37475D01*
X37552Y31913D01*
X37583Y31990D01*
Y32862D01*
X37676Y32900D01*
X43266Y27310D01*
X43382Y27233D01*
X43518Y27206D01*
X43655Y27233D01*
X43767Y27307D01*
X67603D01*
X67700Y27327D01*
X67783Y27382D01*
X69464Y29064D01*
X69520Y29146D01*
X69539Y29244D01*
Y30289D01*
X69554Y30299D01*
X69637Y30423D01*
X69666Y30569D01*
X69637Y30716D01*
X69554Y30840D01*
X69430Y30923D01*
X69284Y30952D01*
X69138Y30923D01*
X69014Y30840D01*
X68984Y30795D01*
X68884D01*
X68854Y30840D01*
X68730Y30923D01*
X68584Y30952D01*
X68438Y30923D01*
X68314Y30840D01*
X68231Y30716D01*
X68202Y30569D01*
X68231Y30423D01*
X68314Y30299D01*
X68438Y30216D01*
X68584Y30187D01*
X68730Y30216D01*
X68854Y30299D01*
X68864Y30314D01*
X68974Y30320D01*
X69029Y30262D01*
Y29349D01*
X67497Y27817D01*
X43768D01*
X43652Y27933D01*
X43693Y28033D01*
X65878D01*
X65956Y28018D01*
X66103Y28047D01*
X66227Y28130D01*
X66310Y28254D01*
X66339Y28400D01*
X66310Y28547D01*
X66227Y28671D01*
X66173Y28707D01*
Y28770D01*
X66239Y28869D01*
X66262Y28986D01*
X66239Y29103D01*
X66173Y29202D01*
X66073Y29269D01*
X65956Y29292D01*
X65839Y29269D01*
X65740Y29202D01*
X65674Y29103D01*
X65650Y28986D01*
X65674Y28869D01*
X65688Y28847D01*
X65635Y28747D01*
X43723D01*
X42455Y30015D01*
X42493Y30108D01*
X43694D01*
X43709Y30114D01*
X43725Y30112D01*
X43746Y30129D01*
X43770Y30140D01*
X43777Y30155D01*
X43789Y30165D01*
X43836Y30253D01*
X43838Y30270D01*
X43847Y30283D01*
X43842Y30309D01*
X43844Y30336D01*
X43838Y30343D01*
X43815Y30462D01*
X43835Y30566D01*
X43894Y30654D01*
X43983Y30713D01*
X44087Y30734D01*
X44191Y30713D01*
X44279Y30654D01*
X44338Y30566D01*
X44359Y30462D01*
X44335Y30343D01*
X44329Y30336D01*
X44332Y30309D01*
X44326Y30283D01*
X44335Y30270D01*
X44337Y30253D01*
X44384Y30165D01*
X44397Y30155D01*
X44403Y30140D01*
X44428Y30129D01*
X44448Y30112D01*
X44465Y30114D01*
X44480Y30108D01*
X46594D01*
X46609Y30114D01*
X46625Y30112D01*
X46646Y30129D01*
X46670Y30140D01*
X46677Y30155D01*
X46689Y30165D01*
X46743Y30265D01*
X46744Y30281D01*
X46753Y30295D01*
X46748Y30321D01*
X46751Y30347D01*
X46740Y30360D01*
X46737Y30376D01*
X46724Y30396D01*
X46703Y30500D01*
X46724Y30604D01*
X46783Y30692D01*
X46871Y30751D01*
X46975Y30772D01*
X47079Y30751D01*
X47168Y30692D01*
X47227Y30604D01*
X47247Y30500D01*
X47227Y30396D01*
X47213Y30376D01*
X47210Y30360D01*
X47200Y30347D01*
X47202Y30321D01*
X47197Y30295D01*
X47206Y30281D01*
X47208Y30265D01*
X47261Y30165D01*
X47274Y30155D01*
X47280Y30140D01*
X47305Y30129D01*
X47326Y30112D01*
X47342Y30114D01*
X47357Y30108D01*
X54753Y30108D01*
X54755Y30107D01*
X54767Y30048D01*
X54833Y29949D01*
X54932Y29882D01*
X55049Y29859D01*
X55064Y29862D01*
X55304Y29621D01*
X55304Y29621D01*
X55371Y29577D01*
X55449Y29562D01*
X55449Y29562D01*
X58598D01*
X58676Y29577D01*
X58742Y29621D01*
X58892Y29771D01*
X59015Y29770D01*
X59241Y29544D01*
X59241Y29544D01*
X59308Y29500D01*
X59386Y29484D01*
X63861D01*
X63939Y29500D01*
X64006Y29544D01*
X65748Y31286D01*
X65748Y31286D01*
X65792Y31352D01*
X65807Y31430D01*
X65807Y31430D01*
Y31627D01*
X67044Y32864D01*
X67088Y32930D01*
X67104Y33008D01*
Y33247D01*
X67204Y33301D01*
X67300Y33282D01*
X67417Y33305D01*
X67516Y33372D01*
X67583Y33471D01*
X67606Y33588D01*
X67583Y33705D01*
X67516Y33804D01*
X67417Y33871D01*
X67300Y33894D01*
X67245Y33985D01*
Y34475D01*
X67513Y34742D01*
X67523Y34749D01*
X67643Y34754D01*
X69226Y33171D01*
X69303Y33139D01*
X90160Y33139D01*
X90237Y33171D01*
X90268Y33247D01*
Y35721D01*
X90263Y35733D01*
X90265Y35747D01*
X90248Y35770D01*
X90237Y35798D01*
X90224Y35803D01*
X90216Y35814D01*
X90126Y35868D01*
X90088Y35875D01*
X90049Y35882D01*
X89985Y35869D01*
X89910Y35884D01*
X89847Y35927D01*
X89804Y35990D01*
X89789Y36065D01*
X89804Y36140D01*
X89847Y36203D01*
X89910Y36246D01*
X89985Y36261D01*
X90049Y36248D01*
X90088Y36255D01*
X90126Y36262D01*
X90216Y36316D01*
X90224Y36327D01*
X90237Y36332D01*
X90248Y36360D01*
X90265Y36383D01*
X90263Y36397D01*
X90268Y36409D01*
Y36601D01*
X90291Y36715D01*
X90268Y36829D01*
Y37021D01*
X90263Y37033D01*
X90265Y37047D01*
X90248Y37070D01*
X90237Y37098D01*
X90224Y37103D01*
X90216Y37114D01*
X90126Y37168D01*
X90088Y37175D01*
X90049Y37182D01*
X89985Y37169D01*
X89910Y37184D01*
X89847Y37227D01*
X89804Y37290D01*
X89789Y37365D01*
X89804Y37440D01*
X89847Y37503D01*
X89910Y37546D01*
X89985Y37561D01*
X90049Y37548D01*
X90088Y37555D01*
X90126Y37562D01*
X90216Y37616D01*
X90224Y37627D01*
X90237Y37632D01*
X90248Y37660D01*
X90265Y37683D01*
X90263Y37697D01*
X90268Y37709D01*
Y38735D01*
X90326Y38774D01*
X90393Y38873D01*
X90416Y38990D01*
X90393Y39107D01*
X90326Y39206D01*
X90268Y39245D01*
Y39293D01*
X90266Y39298D01*
X90268Y39304D01*
X90251Y39336D01*
X90237Y39370D01*
X90231Y39372D01*
X90229Y39377D01*
X90179Y39418D01*
X90153Y39426D01*
X90131Y39440D01*
X90035Y39459D01*
X89972Y39502D01*
X89929Y39565D01*
X89914Y39640D01*
X89929Y39715D01*
X89972Y39778D01*
X90035Y39821D01*
X90131Y39840D01*
X90153Y39854D01*
X90179Y39862D01*
X90229Y39903D01*
X90231Y39908D01*
X90237Y39910D01*
X90251Y39944D01*
X90268Y39976D01*
X90266Y39982D01*
X90268Y39987D01*
Y40035D01*
X90326Y40074D01*
X90393Y40173D01*
X90416Y40290D01*
X90393Y40407D01*
X90326Y40506D01*
X90268Y40545D01*
Y40884D01*
X90267Y40888D01*
X90277Y40907D01*
X90376Y40974D01*
X90443Y41073D01*
X90466Y41190D01*
X90443Y41307D01*
X90376Y41406D01*
X90277Y41473D01*
X90267Y41492D01*
X90268Y41496D01*
Y42343D01*
X90276Y42349D01*
X90343Y42448D01*
X90366Y42565D01*
X90343Y42682D01*
X90276Y42781D01*
X90268Y42787D01*
Y42993D01*
X90276Y42999D01*
X90343Y43098D01*
X90366Y43215D01*
X90343Y43332D01*
X90276Y43431D01*
X90268Y43437D01*
Y43959D01*
X90256Y43988D01*
X90250Y44019D01*
X90241Y44025D01*
X90237Y44036D01*
X90207Y44048D01*
X90181Y44065D01*
X90085Y44084D01*
X90022Y44127D01*
X89979Y44190D01*
X89964Y44265D01*
X89979Y44340D01*
X90034Y44421D01*
X90040Y44452D01*
X90051Y44478D01*
X90160Y44456D01*
X90336Y44491D01*
X90484Y44591D01*
X90584Y44739D01*
X90619Y44915D01*
Y44918D01*
X90946Y45246D01*
X91046Y45395D01*
X91081Y45570D01*
Y46235D01*
X91072Y46277D01*
Y46811D01*
X91081Y46853D01*
Y47513D01*
X91046Y47688D01*
X90946Y47837D01*
X88818Y49966D01*
X88669Y50065D01*
X88493Y50100D01*
X76322D01*
X75413Y51009D01*
X75451Y51101D01*
X82713D01*
X82789Y51133D01*
X82821Y51210D01*
Y53890D01*
X82789Y53966D01*
X82746Y53984D01*
X82740Y53990D01*
X82622Y54039D01*
X82547Y54114D01*
X82507Y54212D01*
Y54318D01*
X82547Y54416D01*
X82622Y54491D01*
X82740Y54540D01*
X82746Y54545D01*
X82789Y54563D01*
X82821Y54640D01*
Y64600D01*
X82789Y64677D01*
X82713Y64708D01*
D02*
G37*
G36*
X65999Y31250D02*
X65882Y31227D01*
X65783Y31161D01*
X65716Y31061D01*
X65693Y30944D01*
X65716Y30827D01*
X65783Y30728D01*
X65882Y30662D01*
X65999Y30638D01*
X66116Y30662D01*
X66215Y30728D01*
X66282Y30827D01*
X66305Y30944D01*
X66282Y31061D01*
X66215Y31161D01*
X66116Y31227D01*
X65999Y31250D01*
D02*
G37*
G36*
X65500Y30581D02*
X65383Y30558D01*
X65284Y30491D01*
X65217Y30392D01*
X65194Y30275D01*
X65217Y30158D01*
X65284Y30059D01*
X65383Y29992D01*
X65500Y29969D01*
X65617Y29992D01*
X65716Y30059D01*
X65783Y30158D01*
X65806Y30275D01*
X65783Y30392D01*
X65716Y30491D01*
X65617Y30558D01*
X65500Y30581D01*
D02*
G37*
G36*
X66003Y30026D02*
X65886Y30003D01*
X65787Y29937D01*
X65721Y29837D01*
X65698Y29720D01*
X65721Y29603D01*
X65787Y29504D01*
X65886Y29438D01*
X66003Y29414D01*
X66120Y29438D01*
X66220Y29504D01*
X66286Y29603D01*
X66309Y29720D01*
X66286Y29837D01*
X66220Y29937D01*
X66120Y30003D01*
X66003Y30026D01*
D02*
G37*
%LPD*%
G36*
X82713Y54640D02*
X82699D01*
X82561Y54583D01*
X82456Y54477D01*
X82399Y54339D01*
Y54190D01*
X82456Y54052D01*
X82561Y53947D01*
X82699Y53890D01*
X82713D01*
Y51210D01*
X75212D01*
X70223Y56199D01*
X70198Y60506D01*
X70288Y60596D01*
X73679D01*
X76639Y57636D01*
X76657Y57593D01*
X76763Y57487D01*
X76900Y57430D01*
X77050D01*
X77187Y57487D01*
X77240Y57539D01*
X77328Y57576D01*
X77405Y57539D01*
X77463Y57482D01*
X77600Y57425D01*
X77750D01*
X77887Y57482D01*
X77913Y57508D01*
X78057Y57493D01*
X78163Y57387D01*
X78300Y57330D01*
X78450D01*
X78587Y57387D01*
X78693Y57493D01*
X78750Y57630D01*
Y57780D01*
X78693Y57917D01*
X78587Y58023D01*
X78450Y58080D01*
X78300D01*
X78163Y58023D01*
X78082Y58075D01*
X78071Y58188D01*
X78452Y58569D01*
X78530Y58685D01*
X78538Y58724D01*
X78542Y58729D01*
X78562Y58737D01*
X78668Y58843D01*
X78725Y58980D01*
Y59130D01*
X78668Y59267D01*
X78562Y59373D01*
X78425Y59430D01*
X78275D01*
X78138Y59373D01*
X78032Y59267D01*
X77899Y59278D01*
X77893Y59292D01*
X77787Y59398D01*
X77650Y59455D01*
X77500D01*
X77363Y59398D01*
X77257Y59292D01*
X77200Y59155D01*
Y59005D01*
X77251Y58882D01*
X77257Y58867D01*
X77223Y58722D01*
X77179Y58692D01*
X76886Y58399D01*
X74080Y61205D01*
X73964Y61282D01*
X73827Y61310D01*
X70194D01*
X70193Y61472D01*
X53818D01*
X53812Y61476D01*
X53676Y61503D01*
X29175D01*
Y64600D01*
X82713D01*
Y54640D01*
D02*
G37*
G36*
X53616Y60700D02*
X53732Y60623D01*
X53869Y60596D01*
X70019D01*
X70033Y60587D01*
X70090Y60506D01*
X70090Y60505D01*
X70114Y56439D01*
X70021Y56401D01*
X66547Y59874D01*
X66399Y59974D01*
X66223Y60009D01*
X21708D01*
X21532Y59974D01*
X21383Y59874D01*
X14574Y53065D01*
X14474Y52916D01*
X14439Y52740D01*
Y50743D01*
X11965D01*
X11965Y50743D01*
X11964Y50743D01*
X11927Y50728D01*
X11915Y50723D01*
X11815Y50769D01*
Y52309D01*
X20295Y60789D01*
X53528D01*
X53616Y60700D01*
D02*
G37*
G36*
X70208Y54916D02*
X70190Y54826D01*
X70175Y54811D01*
X70155Y54802D01*
X70147Y54783D01*
X70131Y54768D01*
X70132Y54746D01*
X70123Y54726D01*
X70133Y53076D01*
X70041Y53038D01*
X68519Y54559D01*
X68583Y54637D01*
X68631Y54604D01*
X68777Y54575D01*
X68924Y54604D01*
X69048Y54687D01*
X69131Y54811D01*
X69160Y54958D01*
X69131Y55104D01*
X69048Y55228D01*
X68939Y55301D01*
X65555Y58685D01*
X65439Y58762D01*
X65303Y58789D01*
X51458D01*
X51445Y58792D01*
X51432Y58789D01*
X32481D01*
X32365Y58812D01*
X32219Y58783D01*
X32095Y58700D01*
X32012Y58576D01*
X31983Y58430D01*
X32012Y58284D01*
X32072Y58194D01*
X32027Y58094D01*
X21031D01*
X20993Y58186D01*
X21898Y59091D01*
X66033D01*
X70208Y54916D01*
D02*
G37*
G36*
X28674Y52942D02*
X28704Y52791D01*
X28797Y52652D01*
X28936Y52559D01*
X29087Y52529D01*
X29103Y52513D01*
Y52500D01*
X61261Y52500D01*
X65595Y48166D01*
Y47046D01*
X65586Y47032D01*
X65553Y46868D01*
X65567Y46797D01*
X65393Y46622D01*
X65378Y46625D01*
X65261Y46602D01*
X65162Y46535D01*
X65095Y46436D01*
X65072Y46319D01*
X65095Y46202D01*
X65162Y46103D01*
X65174Y46094D01*
Y45999D01*
X65190Y45921D01*
X65234Y45855D01*
X65302Y45787D01*
X65284Y45729D01*
X65262Y45685D01*
X65174Y45626D01*
X65107Y45527D01*
X65084Y45410D01*
X65107Y45293D01*
X65174Y45194D01*
X65273Y45127D01*
X65390Y45104D01*
X65490Y45124D01*
X65590Y45072D01*
Y44690D01*
X65518Y44642D01*
X65452Y44543D01*
X65429Y44426D01*
X65434Y44400D01*
X65231Y44197D01*
X65187Y44131D01*
X65171Y44053D01*
Y43315D01*
X65140Y43284D01*
X65096Y43218D01*
X65080Y43140D01*
Y42894D01*
X65096Y42815D01*
X65140Y42749D01*
X65179Y42711D01*
Y42611D01*
X64858Y42290D01*
X64841Y42291D01*
X64742Y42358D01*
X64625Y42381D01*
X64508Y42358D01*
X64409Y42291D01*
X64342Y42192D01*
X64319Y42075D01*
X64342Y41958D01*
X64391Y41886D01*
X64336Y41797D01*
X63915D01*
X63867Y41897D01*
X63908Y41958D01*
X63931Y42075D01*
X63908Y42192D01*
X63841Y42291D01*
X63742Y42358D01*
X63625Y42381D01*
X63508Y42358D01*
X63409Y42291D01*
X63368Y42230D01*
X63312Y42231D01*
X63258Y42243D01*
X63221Y42299D01*
X63219Y42300D01*
X63183Y42324D01*
X62954Y42554D01*
X62888Y42598D01*
X62810Y42613D01*
X62809D01*
X62524Y42899D01*
Y44088D01*
X62606Y44174D01*
X62723Y44197D01*
X62822Y44264D01*
X62889Y44363D01*
X62912Y44480D01*
X62889Y44597D01*
X62822Y44696D01*
X62723Y44763D01*
X62606Y44786D01*
X62489Y44763D01*
X62390Y44696D01*
X62322Y44762D01*
X62034Y45050D01*
X61968Y45094D01*
X61890Y45110D01*
X61670D01*
X61617Y45210D01*
X61633Y45233D01*
X61656Y45350D01*
X61633Y45467D01*
X61566Y45566D01*
X61467Y45633D01*
X61350Y45656D01*
X61233Y45633D01*
X61134Y45566D01*
X61100Y45563D01*
X60586Y46077D01*
X60591Y46127D01*
X60658Y46226D01*
X60681Y46344D01*
X60658Y46461D01*
X60591Y46560D01*
X60492Y46626D01*
X60375Y46649D01*
X60258Y46626D01*
X60228Y46606D01*
X60217Y46609D01*
X59750Y47077D01*
X59750Y47077D01*
X59750Y47077D01*
X59733Y47083D01*
X59721Y47097D01*
X59696Y47099D01*
X59673Y47108D01*
X49002Y47108D01*
X48987Y47102D01*
X48971Y47104D01*
X48955Y47091D01*
X48936Y47081D01*
X48926Y47077D01*
X48838Y47078D01*
X48813Y47088D01*
X48659Y47190D01*
X48425Y47237D01*
X48191Y47190D01*
X47992Y47058D01*
X47860Y46859D01*
X47851Y46815D01*
X47749D01*
X47740Y46859D01*
X47608Y47058D01*
X47409Y47190D01*
X47175Y47237D01*
X46941Y47190D01*
X46787Y47088D01*
X46762Y47078D01*
X46674Y47077D01*
X46664Y47081D01*
X46645Y47091D01*
X46629Y47104D01*
X46613Y47102D01*
X46598Y47108D01*
X46426D01*
X46358Y47208D01*
X46377Y47305D01*
X46348Y47451D01*
X46265Y47575D01*
X46141Y47658D01*
X45995Y47687D01*
X45849Y47658D01*
X45725Y47575D01*
X45642Y47451D01*
X45613Y47305D01*
X45632Y47208D01*
X45564Y47108D01*
X42245Y47108D01*
X42168Y47077D01*
X42137Y47000D01*
Y46545D01*
X36404D01*
X36351Y46645D01*
X36380Y46688D01*
X36407Y46825D01*
X36380Y46962D01*
X36302Y47077D01*
X36187Y47155D01*
X36050Y47182D01*
X35913Y47155D01*
X35798Y47077D01*
X35720Y46962D01*
X35693Y46825D01*
X35720Y46688D01*
X35749Y46645D01*
X35696Y46545D01*
X35371D01*
X35210Y46706D01*
Y48989D01*
X35190Y49087D01*
X35135Y49169D01*
X34611Y49694D01*
X34528Y49749D01*
X34431Y49768D01*
X33473D01*
X33375Y49749D01*
X33292Y49694D01*
X32937Y49339D01*
X31940D01*
X31842Y49319D01*
X31760Y49264D01*
X31617Y49121D01*
X31575Y49130D01*
X31560Y49127D01*
X31479Y49208D01*
X31397Y49263D01*
X31299Y49282D01*
X30032D01*
X29920Y49357D01*
X29784Y49384D01*
X29647Y49357D01*
X29532Y49280D01*
X29454Y49164D01*
X29427Y49027D01*
X29405Y49000D01*
X28643D01*
X28610Y48967D01*
X28511Y48977D01*
X28477Y49027D01*
X28362Y49105D01*
X27616Y49850D01*
X27532D01*
X27505Y49987D01*
X27427Y50102D01*
X27312Y50180D01*
X27175Y50207D01*
X27038Y50180D01*
X26925Y50104D01*
X26812Y50180D01*
X26675Y50207D01*
X26538Y50180D01*
X26423Y50102D01*
X26345Y49987D01*
X26318Y49850D01*
X17819D01*
X17811Y49842D01*
X17719Y49881D01*
Y51775D01*
X19267Y53324D01*
X19313Y53293D01*
X19450Y53266D01*
X19587Y53293D01*
X19701Y53369D01*
X19814Y53293D01*
X19951Y53266D01*
X20088Y53293D01*
X20203Y53371D01*
X20223Y53400D01*
X20478D01*
X20498Y53371D01*
X20613Y53293D01*
X20750Y53266D01*
X20887Y53293D01*
X21000Y53369D01*
X21114Y53293D01*
X21251Y53266D01*
X21388Y53293D01*
X21503Y53371D01*
X21523Y53400D01*
X21778D01*
X21798Y53371D01*
X21913Y53293D01*
X22050Y53266D01*
X22187Y53293D01*
X22301Y53369D01*
X22414Y53293D01*
X22551Y53266D01*
X22688Y53293D01*
X22803Y53371D01*
X22823Y53400D01*
X28217D01*
X28674Y52942D01*
D02*
G37*
G36*
X73797Y51327D02*
X73749Y51210D01*
X71869D01*
X70242Y52836D01*
X70232Y54726D01*
X70349Y54775D01*
X73797Y51327D01*
D02*
G37*
G36*
X36144Y47053D02*
X36224Y46999D01*
X36278Y46919D01*
X36297Y46825D01*
X36278Y46731D01*
X36261Y46706D01*
X36258Y46690D01*
X36247Y46677D01*
X36250Y46650D01*
X36245Y46624D01*
X36254Y46611D01*
X36256Y46594D01*
X36309Y46494D01*
X36322Y46484D01*
X36328Y46469D01*
X36352Y46459D01*
X36373Y46442D01*
X36389Y46443D01*
X36404Y46437D01*
X42137D01*
Y45453D01*
X42044Y45415D01*
X41679Y45780D01*
X41597Y45835D01*
X41499Y45855D01*
X36061D01*
X35571Y46345D01*
X35610Y46437D01*
X35696D01*
X35711Y46443D01*
X35727Y46442D01*
X35748Y46459D01*
X35772Y46469D01*
X35778Y46484D01*
X35791Y46494D01*
X35844Y46594D01*
X35846Y46611D01*
X35855Y46624D01*
X35850Y46650D01*
X35853Y46677D01*
X35842Y46690D01*
X35839Y46706D01*
X35822Y46731D01*
X35804Y46825D01*
X35822Y46919D01*
X35876Y46999D01*
X35956Y47053D01*
X36050Y47071D01*
X36144Y47053D01*
D02*
G37*
G36*
X45776Y47000D02*
X45849Y46952D01*
X45995Y46923D01*
X46141Y46952D01*
X46214Y47000D01*
X46598Y47000D01*
X46645Y46912D01*
X46610Y46859D01*
X46563Y46625D01*
Y46325D01*
X46610Y46091D01*
X46742Y45892D01*
X46941Y45760D01*
X47175Y45713D01*
X47409Y45760D01*
X47608Y45892D01*
X47740Y46091D01*
X47749Y46135D01*
X47851D01*
X47860Y46091D01*
X47992Y45892D01*
X48191Y45760D01*
X48425Y45713D01*
X48659Y45760D01*
X48858Y45892D01*
X48990Y46091D01*
X49037Y46325D01*
Y46625D01*
X48990Y46859D01*
X48955Y46912D01*
X49002Y47000D01*
X59673Y47000D01*
X59673Y47000D01*
X60140Y46533D01*
X60092Y46461D01*
X60069Y46344D01*
X60085Y46261D01*
X60085Y46260D01*
X60016Y46188D01*
X60007Y46183D01*
X59931Y46198D01*
X59823Y46176D01*
X59785Y46202D01*
X59740Y46246D01*
X59756Y46325D01*
X59733Y46442D01*
X59666Y46541D01*
X59567Y46608D01*
X59450Y46631D01*
X59333Y46608D01*
X59234Y46541D01*
X59167Y46442D01*
X59144Y46325D01*
X59167Y46208D01*
X59234Y46109D01*
X59333Y46042D01*
X59450Y46019D01*
X59558Y46041D01*
X59596Y46015D01*
X59641Y45972D01*
X59625Y45892D01*
X59648Y45775D01*
X59715Y45676D01*
X59814Y45609D01*
X59931Y45586D01*
X60048Y45609D01*
X60099Y45644D01*
X60159Y45566D01*
X60092Y45467D01*
X60069Y45350D01*
X60092Y45233D01*
X60159Y45134D01*
X60258Y45067D01*
X60375Y45044D01*
X60424Y45054D01*
X60442Y45042D01*
X60500Y44967D01*
X60484Y44885D01*
X60507Y44768D01*
X60442Y44724D01*
X60441Y44724D01*
X60342Y44658D01*
X60276Y44559D01*
X60253Y44442D01*
X60276Y44325D01*
X60342Y44226D01*
X60441Y44159D01*
X60558Y44136D01*
X60676Y44159D01*
X60775Y44226D01*
X60785Y44241D01*
X60884Y44274D01*
X60907Y44258D01*
X60983Y44207D01*
X61100Y44184D01*
X61217Y44207D01*
X61316Y44274D01*
X61358Y44337D01*
X61466Y44344D01*
X61473Y44342D01*
X61509Y44289D01*
X61608Y44222D01*
X61618Y44220D01*
Y43605D01*
X62116Y43073D01*
Y42896D01*
X62072Y42803D01*
X61955Y42779D01*
X61856Y42713D01*
X61789Y42614D01*
X61766Y42497D01*
Y42360D01*
X61766Y42360D01*
X61789Y42243D01*
X61819Y42198D01*
Y41963D01*
X61299Y41444D01*
X60885D01*
X60885Y41444D01*
X60768Y41420D01*
X60764Y41417D01*
X60633D01*
X60516Y41394D01*
X60416Y41328D01*
X60350Y41229D01*
X60327Y41112D01*
X60330Y41097D01*
X60266Y41019D01*
X59497D01*
X59487Y41119D01*
X59527Y41127D01*
X59626Y41194D01*
X59693Y41293D01*
X59716Y41410D01*
X59693Y41527D01*
X59626Y41626D01*
X59527Y41693D01*
X59410Y41716D01*
X59293Y41693D01*
X59268Y41676D01*
X59178Y41736D01*
X59181Y41750D01*
X59158Y41867D01*
X59091Y41966D01*
X58992Y42033D01*
X58875Y42056D01*
X58758Y42033D01*
X58659Y41966D01*
X58592Y41867D01*
X58569Y41750D01*
X58581Y41691D01*
X58519Y41651D01*
X58489Y41642D01*
X58397Y41704D01*
X58280Y41727D01*
X58174Y41706D01*
X58129Y41733D01*
X58085Y41772D01*
X58096Y41825D01*
X58073Y41942D01*
X58006Y42041D01*
X57907Y42108D01*
X57790Y42131D01*
X57673Y42108D01*
X57574Y42041D01*
X57507Y41942D01*
X57484Y41825D01*
X57507Y41708D01*
X57574Y41609D01*
X57673Y41542D01*
X57790Y41519D01*
X57896Y41540D01*
X57941Y41513D01*
X57985Y41474D01*
X57974Y41421D01*
X57997Y41304D01*
X58064Y41205D01*
X58163Y41138D01*
X58259Y41119D01*
X58249Y41019D01*
X58038D01*
X58006Y41066D01*
X57907Y41133D01*
X57790Y41156D01*
X57673Y41133D01*
X57574Y41066D01*
X57542Y41019D01*
X53760D01*
X53684Y41119D01*
X53694Y41170D01*
X53671Y41287D01*
X53605Y41386D01*
X53506Y41453D01*
X53389Y41476D01*
X53272Y41453D01*
X53172Y41386D01*
X53106Y41287D01*
X53083Y41170D01*
X53093Y41119D01*
X53017Y41019D01*
X44732D01*
X44712Y41118D01*
X44646Y41217D01*
X44547Y41283D01*
X44430Y41306D01*
X44313Y41283D01*
X44214Y41217D01*
X44147Y41118D01*
X44128Y41019D01*
X43340D01*
X43310Y41119D01*
X43352Y41148D01*
X43430Y41263D01*
X43457Y41400D01*
X43430Y41537D01*
X43352Y41652D01*
X43237Y41730D01*
X43100Y41757D01*
X42963Y41730D01*
X42848Y41652D01*
X42806Y41589D01*
X42706Y41620D01*
Y42756D01*
X42686Y42853D01*
X42631Y42936D01*
X42306Y43261D01*
Y45048D01*
X42286Y45146D01*
X42245Y45207D01*
Y47000D01*
X45776Y47000D01*
D02*
G37*
G36*
X73749Y49176D02*
X88368Y49118D01*
X90160Y47326D01*
Y46870D01*
X90155Y46844D01*
Y46244D01*
X90160Y46218D01*
Y45757D01*
X89836Y45433D01*
X89736Y45284D01*
X89701Y45108D01*
Y44915D01*
X89736Y44739D01*
X89836Y44591D01*
X89944Y44518D01*
Y44481D01*
X89877Y44382D01*
X89854Y44265D01*
X89877Y44148D01*
X89944Y44049D01*
X90043Y43982D01*
X90160Y43959D01*
Y41496D01*
X90043Y41473D01*
X89944Y41406D01*
X89877Y41307D01*
X89854Y41190D01*
X89877Y41073D01*
X89944Y40974D01*
X90043Y40907D01*
X90160Y40884D01*
Y39987D01*
X90110Y39946D01*
X89993Y39923D01*
X89894Y39856D01*
X89827Y39757D01*
X89804Y39640D01*
X89827Y39523D01*
X89894Y39424D01*
X89993Y39357D01*
X90110Y39334D01*
X90160Y39293D01*
Y37709D01*
X90070Y37654D01*
X89985Y37671D01*
X89868Y37648D01*
X89769Y37581D01*
X89702Y37482D01*
X89679Y37365D01*
X89702Y37248D01*
X89769Y37149D01*
X89868Y37082D01*
X89985Y37059D01*
X90070Y37076D01*
X90160Y37021D01*
Y36409D01*
X90070Y36354D01*
X89985Y36371D01*
X89868Y36348D01*
X89769Y36281D01*
X89702Y36182D01*
X89679Y36065D01*
X89702Y35948D01*
X89769Y35849D01*
X89868Y35782D01*
X89985Y35759D01*
X90070Y35776D01*
X90160Y35721D01*
Y33247D01*
X69303Y33247D01*
X67579Y34971D01*
Y36100D01*
X67591Y36109D01*
X67658Y36208D01*
X67681Y36325D01*
X67658Y36442D01*
X67591Y36541D01*
X67492Y36608D01*
X67375Y36631D01*
X67258Y36608D01*
X67159Y36541D01*
X67148Y36526D01*
X66935D01*
X66930Y36533D01*
X66975Y36634D01*
X67017Y36642D01*
X67116Y36709D01*
X67183Y36808D01*
X67206Y36925D01*
X67183Y37042D01*
X67116Y37141D01*
X67017Y37208D01*
X66900Y37231D01*
X66783Y37208D01*
X66684Y37141D01*
X66617Y37042D01*
X66594Y36925D01*
X66597Y36910D01*
X66514Y36865D01*
X66030Y37350D01*
X66060Y37447D01*
X66086Y37452D01*
X66185Y37519D01*
X66252Y37618D01*
X66275Y37735D01*
X66252Y37852D01*
X66185Y37951D01*
X66086Y38018D01*
X65969Y38041D01*
X65863Y38020D01*
X65829Y38030D01*
X65773Y38060D01*
Y38615D01*
X65773Y38615D01*
X65757Y38693D01*
X65713Y38760D01*
X65713Y38760D01*
X65553Y38919D01*
Y39186D01*
X66074Y39707D01*
X66118Y39773D01*
X66134Y39851D01*
Y40336D01*
X66134Y40336D01*
X66118Y40414D01*
X66074Y40480D01*
X66074Y40480D01*
X65945Y40609D01*
X65964Y40717D01*
X66022Y40756D01*
X66089Y40855D01*
X66112Y40972D01*
X66089Y41089D01*
X66022Y41188D01*
X65923Y41255D01*
X65806Y41278D01*
X65689Y41255D01*
X65590Y41188D01*
X65579Y41172D01*
X65489Y41199D01*
Y41575D01*
X65487Y41584D01*
X65489Y41593D01*
Y42167D01*
X65584Y42262D01*
X65584Y42262D01*
X65628Y42328D01*
X65644Y42406D01*
Y42738D01*
X65628Y42816D01*
X65584Y42882D01*
X65584Y42882D01*
X65488Y42978D01*
Y43055D01*
X65519Y43086D01*
X65519Y43086D01*
X65563Y43153D01*
X65579Y43231D01*
X65579Y43231D01*
Y43644D01*
X65613Y43666D01*
X65669Y43684D01*
X65753Y43627D01*
X65870Y43604D01*
X65987Y43627D01*
X66086Y43694D01*
X66153Y43793D01*
X66176Y43910D01*
X66153Y44027D01*
X66086Y44126D01*
X65987Y44193D01*
X65999Y44282D01*
X66017Y44309D01*
X66019Y44317D01*
X66111D01*
X66117Y44283D01*
X66184Y44184D01*
X66283Y44117D01*
X66400Y44094D01*
X66517Y44117D01*
X66616Y44184D01*
X66683Y44283D01*
X66706Y44400D01*
X66683Y44517D01*
X66616Y44616D01*
X66517Y44683D01*
X66400Y44706D01*
X66283Y44683D01*
X66184Y44616D01*
X66124Y44527D01*
X66069Y44525D01*
X66028Y44531D01*
X65992Y44586D01*
X65998Y44612D01*
Y45141D01*
X66030Y45169D01*
X66134Y45159D01*
X66233Y45092D01*
X66350Y45069D01*
X66467Y45092D01*
X66566Y45159D01*
X66633Y45258D01*
X66656Y45375D01*
X66633Y45492D01*
X66566Y45591D01*
X66467Y45658D01*
X66350Y45681D01*
X66233Y45658D01*
X66169Y45615D01*
X66079Y45660D01*
X66079Y46290D01*
X66167Y46308D01*
X66234Y46209D01*
X66333Y46142D01*
X66450Y46119D01*
X66567Y46142D01*
X66666Y46209D01*
X66733Y46308D01*
X66756Y46425D01*
X66733Y46542D01*
X66666Y46641D01*
X66567Y46708D01*
X66499Y46721D01*
X66449Y46737D01*
X66433Y46819D01*
X66452Y46910D01*
Y48344D01*
X66419Y48508D01*
X66326Y48647D01*
X61714Y53259D01*
X61575Y53352D01*
X61411Y53384D01*
X61382Y53378D01*
X29805D01*
X29780Y53383D01*
X29100D01*
X28936Y53351D01*
X28797Y53258D01*
X28734Y53163D01*
X28625Y53145D01*
X28293Y53477D01*
X28217Y53508D01*
X22956D01*
X22899Y53578D01*
X22908Y53623D01*
X22881Y53760D01*
X22803Y53875D01*
X22688Y53953D01*
X22551Y53980D01*
X22414Y53953D01*
X22301Y53877D01*
X22187Y53953D01*
X22050Y53980D01*
X21913Y53953D01*
X21798Y53875D01*
X21720Y53760D01*
X21698Y53647D01*
X21650Y53616D01*
X21603Y53647D01*
X21581Y53760D01*
X21503Y53875D01*
X21388Y53953D01*
X21251Y53980D01*
X21114Y53953D01*
X21000Y53877D01*
X20887Y53953D01*
X20750Y53980D01*
X20613Y53953D01*
X20498Y53875D01*
X20420Y53760D01*
X20398Y53647D01*
X20351Y53616D01*
X20303Y53647D01*
X20281Y53760D01*
X20203Y53875D01*
X20088Y53953D01*
X19951Y53980D01*
X19814Y53953D01*
X19701Y53877D01*
X19587Y53953D01*
X19450Y53980D01*
X19313Y53953D01*
X19198Y53875D01*
X19120Y53760D01*
X19093Y53623D01*
X19120Y53486D01*
X19183Y53393D01*
X17642Y51852D01*
X17611Y51775D01*
Y49881D01*
X17619Y49861D01*
Y49839D01*
X17634Y49824D01*
X17642Y49804D01*
X17662Y49796D01*
X17677Y49781D01*
X17719Y49764D01*
Y47209D01*
X16408Y45899D01*
X15513D01*
X15357Y46055D01*
Y52550D01*
X20792Y57985D01*
X64940D01*
X73749Y49176D01*
D02*
G37*
G36*
X47367Y47088D02*
X47530Y46980D01*
X47638Y46817D01*
X47643Y46794D01*
X47660Y46767D01*
X47672Y46738D01*
X47683Y46734D01*
X47689Y46725D01*
X47720Y46719D01*
X47749Y46706D01*
X47751D01*
X47814Y46629D01*
X47813Y46625D01*
Y46325D01*
X47814Y46321D01*
X47751Y46244D01*
X47749D01*
X47720Y46231D01*
X47689Y46225D01*
X47683Y46216D01*
X47672Y46212D01*
X47660Y46183D01*
X47643Y46156D01*
X47638Y46133D01*
X47530Y45970D01*
X47367Y45862D01*
X47175Y45824D01*
X46983Y45862D01*
X46820Y45970D01*
X46712Y46133D01*
X46671Y46336D01*
Y46614D01*
X46712Y46817D01*
X46735Y46852D01*
X46738Y46868D01*
X46749Y46880D01*
X46752Y46898D01*
X46792Y46962D01*
X46826Y46987D01*
X46835Y46995D01*
X46847Y46998D01*
X46983Y47088D01*
X47175Y47126D01*
X47367Y47088D01*
D02*
G37*
G36*
X41796Y44943D02*
Y43156D01*
X41815Y43058D01*
X41870Y42975D01*
X42007Y42839D01*
X41958Y42747D01*
X41904Y42757D01*
X41767Y42730D01*
X41652Y42653D01*
X41574Y42537D01*
X41547Y42401D01*
X41574Y42264D01*
X41650Y42150D01*
X41574Y42036D01*
X41547Y41900D01*
X41574Y41763D01*
X41652Y41647D01*
X41767Y41570D01*
X41904Y41543D01*
X42030Y41568D01*
X42059Y41561D01*
X42130Y41524D01*
Y40863D01*
X41049Y39782D01*
Y37540D01*
X42201Y36389D01*
X42199Y36370D01*
X42133Y36271D01*
X42109Y36154D01*
X42133Y36037D01*
X42199Y35937D01*
X42298Y35871D01*
X42415Y35848D01*
X42430Y35851D01*
X43000Y35280D01*
X43000Y35280D01*
X43066Y35236D01*
X43144Y35221D01*
X43144Y35221D01*
X52627D01*
X52705Y35236D01*
X52771Y35280D01*
X53068Y35578D01*
X53142Y35592D01*
X53241Y35659D01*
X53279Y35715D01*
X57875D01*
X58730Y36561D01*
X58758Y36542D01*
X58875Y36519D01*
X58992Y36542D01*
X59091Y36609D01*
X59158Y36708D01*
X59181Y36825D01*
X59158Y36942D01*
X59223Y37023D01*
X59253Y37040D01*
X59352Y36973D01*
X59469Y36950D01*
X59586Y36973D01*
X59685Y37040D01*
X59752Y37139D01*
X59775Y37256D01*
X59752Y37373D01*
X59694Y37460D01*
X59773Y37518D01*
X59872Y37452D01*
X59989Y37429D01*
X60106Y37452D01*
X60205Y37518D01*
X60272Y37617D01*
X60295Y37735D01*
X60277Y37823D01*
X60335Y37923D01*
X60438D01*
X60483Y37892D01*
X60573Y37875D01*
X60644Y37800D01*
X60667Y37683D01*
X60734Y37584D01*
X60833Y37517D01*
X60950Y37494D01*
X61067Y37517D01*
X61166Y37584D01*
X61233Y37683D01*
X61256Y37800D01*
X61251Y37823D01*
X61333Y37923D01*
X61440D01*
X61508Y37877D01*
X61625Y37854D01*
X61742Y37877D01*
X61841Y37944D01*
X61908Y38043D01*
X61913Y38069D01*
X61941Y38097D01*
Y38308D01*
X62018Y38371D01*
X62030Y38369D01*
X62147Y38392D01*
X62246Y38459D01*
X62313Y38558D01*
X62336Y38675D01*
X62313Y38792D01*
X62246Y38891D01*
X62147Y38958D01*
X62030Y38981D01*
X62018Y38979D01*
X61941Y39042D01*
Y40298D01*
X62017Y40338D01*
X62041Y40341D01*
X62150Y40319D01*
X62267Y40342D01*
X62366Y40409D01*
X62433Y40508D01*
X62456Y40625D01*
X62433Y40742D01*
X62366Y40841D01*
X62267Y40908D01*
X62150Y40931D01*
X62041Y40909D01*
X62017Y40912D01*
X61941Y40952D01*
Y41220D01*
X62053Y41332D01*
X65081D01*
Y40928D01*
X65096Y40849D01*
X65141Y40783D01*
X65383Y40541D01*
X65363Y40419D01*
X65314Y40386D01*
X65247Y40287D01*
X65224Y40170D01*
X65247Y40053D01*
X65259Y40036D01*
X65198Y39946D01*
X65150Y39956D01*
X65033Y39933D01*
X64934Y39866D01*
X64867Y39767D01*
X64844Y39650D01*
X64867Y39533D01*
X64934Y39434D01*
X65033Y39367D01*
X65150Y39344D01*
X65147Y39277D01*
X65146Y39271D01*
Y38835D01*
X65161Y38757D01*
X65205Y38691D01*
X65365Y38531D01*
Y37538D01*
X65363Y37525D01*
X65378Y37447D01*
X65422Y37381D01*
X65694Y37109D01*
X65670Y37030D01*
X65654Y37007D01*
X65564Y36946D01*
X65497Y36847D01*
X65474Y36730D01*
X65495Y36624D01*
X65468Y36580D01*
X65429Y36535D01*
X65375Y36546D01*
X65258Y36523D01*
X65159Y36456D01*
X65092Y36357D01*
X65069Y36240D01*
X65092Y36123D01*
X65159Y36024D01*
X65258Y35957D01*
X65375Y35934D01*
X65492Y35957D01*
X65591Y36024D01*
X65658Y36123D01*
X65681Y36240D01*
X65660Y36346D01*
X65687Y36390D01*
X65726Y36435D01*
X65780Y36424D01*
X65897Y36447D01*
X65996Y36514D01*
X66057Y36604D01*
X66080Y36620D01*
X66159Y36644D01*
X66625Y36177D01*
X66692Y36133D01*
X66770Y36118D01*
X66770Y36118D01*
X67041D01*
X67041Y34847D01*
X66897Y34703D01*
X66853Y34637D01*
X66838Y34559D01*
Y33980D01*
X66756Y33898D01*
X66712Y33832D01*
X66696Y33754D01*
Y33092D01*
X65459Y31856D01*
X65415Y31789D01*
X65400Y31711D01*
Y31514D01*
X64101Y30216D01*
X60674D01*
X60671Y30229D01*
X60605Y30328D01*
X60527Y30380D01*
X60527Y30381D01*
X60521Y30463D01*
X60527Y30491D01*
X60591Y30534D01*
X60658Y30633D01*
X60681Y30750D01*
X60658Y30867D01*
X60591Y30966D01*
X60492Y31033D01*
X60375Y31056D01*
X60258Y31033D01*
X60159Y30966D01*
X60092Y30867D01*
X60069Y30750D01*
X60092Y30633D01*
X60159Y30534D01*
X60236Y30482D01*
X60237Y30481D01*
X60243Y30399D01*
X60236Y30371D01*
X60172Y30328D01*
X60106Y30229D01*
X60104Y30216D01*
X59247D01*
X59244Y30229D01*
X59178Y30328D01*
X59079Y30394D01*
X58962Y30418D01*
X58845Y30394D01*
X58745Y30328D01*
X58679Y30229D01*
X58677Y30216D01*
X57573D01*
X57554Y30312D01*
X57488Y30411D01*
X57389Y30477D01*
X57271Y30500D01*
X57154Y30477D01*
X57055Y30411D01*
X56989Y30312D01*
X56970Y30216D01*
X55345D01*
X55332Y30282D01*
X55265Y30381D01*
X55166Y30448D01*
X55049Y30471D01*
X54932Y30448D01*
X54833Y30381D01*
X54767Y30282D01*
X54753Y30216D01*
X47357Y30216D01*
X47303Y30316D01*
X47329Y30354D01*
X47358Y30500D01*
X47329Y30646D01*
X47246Y30770D01*
X47122Y30853D01*
X46975Y30882D01*
X46829Y30853D01*
X46705Y30770D01*
X46622Y30646D01*
X46593Y30500D01*
X46622Y30354D01*
X46647Y30316D01*
X46594Y30216D01*
X44480D01*
X44432Y30304D01*
X44440Y30315D01*
X44469Y30462D01*
X44440Y30608D01*
X44357Y30732D01*
X44233Y30815D01*
X44087Y30844D01*
X43940Y30815D01*
X43816Y30732D01*
X43733Y30608D01*
X43704Y30462D01*
X43733Y30315D01*
X43741Y30304D01*
X43694Y30216D01*
X42254D01*
X38155Y34316D01*
Y38386D01*
X38182Y38525D01*
X38153Y38671D01*
X38070Y38795D01*
X37946Y38878D01*
X37800Y38907D01*
X37786Y38904D01*
X37770Y38917D01*
X35099Y41523D01*
X35099Y43759D01*
X36630Y45290D01*
X41449D01*
X41796Y44943D01*
D02*
G37*
G36*
X61860Y40703D02*
X61844Y40625D01*
X61867Y40508D01*
X61891Y40473D01*
X61865Y40374D01*
X61766Y40359D01*
X61752Y40365D01*
X61742Y40372D01*
X61625Y40395D01*
X61508Y40372D01*
X61409Y40305D01*
X61342Y40206D01*
X61319Y40089D01*
X61342Y39972D01*
X61409Y39873D01*
X61508Y39807D01*
X61625Y39783D01*
X61733Y39805D01*
X61759Y39801D01*
X61833Y39761D01*
Y39042D01*
X61835Y39037D01*
X61833Y39031D01*
X61851Y38999D01*
X61865Y38965D01*
X61870Y38963D01*
X61872Y38958D01*
X61950Y38895D01*
X61955Y38893D01*
X61958Y38889D01*
X61994Y38881D01*
X62003Y38879D01*
X62009Y38875D01*
X62105Y38856D01*
X62168Y38813D01*
X62211Y38750D01*
X62226Y38675D01*
X62211Y38600D01*
X62168Y38537D01*
X62105Y38494D01*
X62009Y38475D01*
X62003Y38471D01*
X61994Y38469D01*
X61958Y38461D01*
X61955Y38457D01*
X61950Y38455D01*
X61872Y38392D01*
X61870Y38387D01*
X61865Y38385D01*
X61851Y38351D01*
X61833Y38319D01*
X61835Y38313D01*
X61833Y38308D01*
Y38137D01*
X61824Y38116D01*
X61807Y38090D01*
X61806Y38085D01*
X61763Y38022D01*
X61700Y37979D01*
X61625Y37964D01*
X61550Y37979D01*
X61500Y38013D01*
X61469Y38019D01*
X61440Y38031D01*
X61333D01*
X61328Y38029D01*
X61323Y38030D01*
X61291Y38013D01*
X61257Y37999D01*
X61162Y38019D01*
X61067Y38083D01*
X60950Y38106D01*
X60833Y38083D01*
X60734Y38016D01*
X60715Y37988D01*
X60594Y37981D01*
X60525Y37994D01*
X60498Y38013D01*
X60467Y38019D01*
X60438Y38031D01*
X60335D01*
X60322Y38025D01*
X60307Y38027D01*
X60285Y38010D01*
X60259Y37999D01*
X60191Y37986D01*
X60137Y37996D01*
X60106Y38017D01*
X59989Y38040D01*
X59872Y38017D01*
X59773Y37951D01*
X59706Y37852D01*
X59683Y37735D01*
X59706Y37617D01*
X59711Y37611D01*
X59708Y37605D01*
X59629Y37547D01*
X59588Y37538D01*
X59586Y37539D01*
X59469Y37562D01*
X59352Y37539D01*
X59253Y37472D01*
X59187Y37373D01*
X59163Y37256D01*
X59187Y37139D01*
X59139Y37091D01*
X59120Y37068D01*
X59091Y37041D01*
X58992Y37108D01*
X58875Y37131D01*
X58758Y37108D01*
X58659Y37041D01*
X58592Y36942D01*
X58569Y36825D01*
X58592Y36708D01*
X58645Y36629D01*
X57830Y35823D01*
X55105D01*
X55095Y35923D01*
X55194Y35943D01*
X55293Y36009D01*
X55360Y36108D01*
X55383Y36225D01*
X55360Y36343D01*
X55293Y36442D01*
X55194Y36508D01*
X55077Y36531D01*
X54960Y36508D01*
X54861Y36442D01*
X54795Y36343D01*
X54771Y36225D01*
X54795Y36108D01*
X54861Y36009D01*
X54960Y35943D01*
X55059Y35923D01*
X55049Y35823D01*
X54205D01*
X54195Y35923D01*
X54292Y35942D01*
X54391Y36009D01*
X54458Y36108D01*
X54481Y36225D01*
X54458Y36342D01*
X54391Y36441D01*
X54292Y36508D01*
X54175Y36531D01*
X54058Y36508D01*
X53959Y36441D01*
X53892Y36342D01*
X53869Y36225D01*
X53892Y36108D01*
X53959Y36009D01*
X54058Y35942D01*
X54155Y35923D01*
X54145Y35823D01*
X53480D01*
X53470Y35923D01*
X53567Y35942D01*
X53666Y36009D01*
X53733Y36108D01*
X53756Y36225D01*
X53733Y36342D01*
X53666Y36441D01*
X53567Y36508D01*
X53450Y36531D01*
X53333Y36508D01*
X53234Y36441D01*
X53232Y36438D01*
X53125Y36459D01*
X53124Y36469D01*
X53057Y36568D01*
X52958Y36635D01*
X52841Y36658D01*
X52724Y36635D01*
X52625Y36568D01*
X52558Y36469D01*
X52535Y36352D01*
X52558Y36235D01*
X52625Y36136D01*
X52724Y36070D01*
X52737Y35965D01*
X52719Y35875D01*
X52731Y35817D01*
X52542Y35629D01*
X50352D01*
X50298Y35729D01*
X50333Y35780D01*
X50356Y35897D01*
X50333Y36014D01*
X50266Y36113D01*
X50167Y36180D01*
X50050Y36203D01*
X49933Y36180D01*
X49834Y36113D01*
X49767Y36014D01*
X49744Y35897D01*
X49767Y35780D01*
X49802Y35729D01*
X49757Y35645D01*
X49657Y35645D01*
X49612Y35729D01*
X49631Y35825D01*
X49608Y35942D01*
X49541Y36041D01*
X49442Y36108D01*
X49325Y36131D01*
X49208Y36108D01*
X49109Y36041D01*
X49042Y35942D01*
X49019Y35825D01*
X49038Y35729D01*
X48984Y35629D01*
X43229D01*
X42718Y36139D01*
X42721Y36154D01*
X42698Y36271D01*
X42632Y36370D01*
X42532Y36436D01*
X42415Y36460D01*
X42298Y36436D01*
X42286Y36454D01*
X42285Y36457D01*
X42282Y36459D01*
X42277Y36465D01*
X41158Y37585D01*
Y39737D01*
X42207Y40786D01*
X42217Y40810D01*
X42445Y41038D01*
X43221D01*
X43237Y40988D01*
X43254Y40967D01*
X43264Y40943D01*
X43279Y40937D01*
X43289Y40924D01*
X43316Y40921D01*
X43340Y40911D01*
X44128D01*
X44143Y40903D01*
X44147Y40883D01*
X44214Y40784D01*
X44313Y40718D01*
X44430Y40695D01*
X44547Y40718D01*
X44646Y40784D01*
X44712Y40883D01*
X44716Y40903D01*
X44732Y40911D01*
X53017D01*
X53025Y40914D01*
X53032Y40912D01*
X53062Y40930D01*
X53094Y40943D01*
X53189Y40942D01*
X53272Y40887D01*
X53389Y40864D01*
X53506Y40887D01*
X53588Y40942D01*
X53683Y40943D01*
X53715Y40930D01*
X53745Y40912D01*
X53753Y40914D01*
X53760Y40911D01*
X57434D01*
X57484Y40850D01*
X57507Y40733D01*
X57574Y40634D01*
X57673Y40567D01*
X57790Y40544D01*
X57907Y40567D01*
X58006Y40634D01*
X58073Y40733D01*
X58096Y40850D01*
X58146Y40911D01*
X58249D01*
X58282Y40925D01*
X58317Y40936D01*
X58320Y40941D01*
X58325Y40943D01*
X58339Y40977D01*
X58356Y41009D01*
X58359Y41038D01*
X58476D01*
X58558Y40938D01*
X58552Y40910D01*
X58575Y40793D01*
X58642Y40694D01*
X58741Y40627D01*
X58858Y40604D01*
X58975Y40627D01*
X59074Y40694D01*
X59141Y40793D01*
X59164Y40910D01*
X59158Y40938D01*
X59240Y41038D01*
X59386D01*
X59389Y41009D01*
X59406Y40977D01*
X59420Y40943D01*
X59425Y40941D01*
X59428Y40936D01*
X59463Y40925D01*
X59497Y40911D01*
X59901D01*
X59953Y40811D01*
X59915Y40755D01*
X59892Y40638D01*
X59915Y40521D01*
X59982Y40422D01*
X60081Y40355D01*
X60198Y40332D01*
X60199Y40332D01*
X60259Y40242D01*
X60242Y40217D01*
X60219Y40100D01*
X60242Y39983D01*
X60309Y39884D01*
X60408Y39817D01*
X60525Y39794D01*
X60642Y39817D01*
X60741Y39884D01*
X60808Y39983D01*
X60831Y40100D01*
X60808Y40217D01*
X60741Y40316D01*
X60642Y40383D01*
X60525Y40406D01*
X60524Y40406D01*
X60464Y40496D01*
X60481Y40521D01*
X60504Y40638D01*
X60481Y40755D01*
X60414Y40854D01*
X60407Y40859D01*
X60395Y40960D01*
X60466Y41038D01*
X61056D01*
X61066Y40938D01*
X61025Y40930D01*
X60975Y40920D01*
X60876Y40854D01*
X60810Y40755D01*
X60787Y40638D01*
X60810Y40521D01*
X60876Y40422D01*
X60975Y40355D01*
X61092Y40332D01*
X61209Y40355D01*
X61309Y40422D01*
X61375Y40521D01*
X61398Y40638D01*
X61375Y40755D01*
X61309Y40854D01*
X61209Y40920D01*
X61119Y40938D01*
X61129Y41038D01*
X61524D01*
X61860Y40703D01*
D02*
G37*
G36*
X14439Y45865D02*
X14474Y45689D01*
X14574Y45540D01*
X14998Y45116D01*
X15147Y45016D01*
X15323Y44981D01*
X16598D01*
X16774Y45016D01*
X16923Y45116D01*
X18428Y46621D01*
X18628D01*
X19231Y46018D01*
Y45640D01*
X19231Y45640D01*
X19262Y45484D01*
X19305Y45419D01*
X19325Y45317D01*
X19414Y45185D01*
X19546Y45096D01*
X19702Y45065D01*
X19858Y45096D01*
X19990Y45185D01*
X20079Y45317D01*
X20090Y45371D01*
X20112Y45390D01*
X20232Y45435D01*
X20315Y45400D01*
X20455D01*
X20583Y45453D01*
X20682Y45552D01*
X20735Y45680D01*
Y45820D01*
X20682Y45948D01*
X20583Y46047D01*
X20455Y46100D01*
Y46225D01*
X20583Y46278D01*
X20682Y46377D01*
X20735Y46505D01*
Y46645D01*
X20682Y46773D01*
X20583Y46872D01*
X20455Y46925D01*
X20315D01*
X20187Y46872D01*
X20088Y46773D01*
X20049Y46678D01*
X19949Y46641D01*
X19908Y46639D01*
X19143Y47404D01*
X18994Y47504D01*
X18818Y47539D01*
X18238D01*
X18063Y47504D01*
X17954Y47431D01*
X17827Y47486D01*
Y49741D01*
X17830Y49742D01*
X24615D01*
X24645Y49641D01*
X24647Y49615D01*
X24553Y49521D01*
X24500Y49393D01*
Y49253D01*
X24553Y49125D01*
X24605Y49073D01*
X24553Y49021D01*
X24500Y48893D01*
Y48753D01*
X24553Y48625D01*
X24652Y48526D01*
X24780Y48473D01*
X24920D01*
X25048Y48526D01*
X25147Y48625D01*
X25200Y48753D01*
Y48893D01*
X25147Y49021D01*
X25095Y49073D01*
X25147Y49125D01*
X25200Y49253D01*
Y49393D01*
X25147Y49521D01*
X25053Y49615D01*
X25055Y49641D01*
X25085Y49742D01*
X26318D01*
X26347Y49754D01*
X26378Y49760D01*
X26384Y49769D01*
X26395Y49773D01*
X26407Y49803D01*
X26424Y49829D01*
X26447Y49944D01*
X26501Y50024D01*
X26581Y50078D01*
X26675Y50097D01*
X26769Y50078D01*
X26865Y50014D01*
X26886Y50010D01*
X26904Y49998D01*
X26925Y50002D01*
X26946Y49998D01*
X26964Y50010D01*
X26985Y50014D01*
X27081Y50078D01*
X27175Y50097D01*
X27269Y50078D01*
X27349Y50024D01*
X27403Y49944D01*
X27426Y49829D01*
X27443Y49803D01*
X27455Y49773D01*
X27466Y49769D01*
X27472Y49760D01*
X27503Y49754D01*
X27532Y49742D01*
X27571D01*
X28081Y49232D01*
X28052Y49082D01*
X28027Y49072D01*
X27928Y48973D01*
X27875Y48845D01*
Y48705D01*
X27928Y48577D01*
X28027Y48478D01*
X28155Y48425D01*
X28295D01*
X28423Y48478D01*
X28522Y48577D01*
X28575Y48705D01*
Y48734D01*
X28579Y48756D01*
X28610Y48858D01*
X28679Y48884D01*
X28682Y48889D01*
X28687Y48891D01*
X28688Y48892D01*
X29405D01*
X29410Y48894D01*
X29415Y48892D01*
X29487Y48829D01*
X29528Y48789D01*
X29581Y48722D01*
X29528Y48623D01*
X29503Y48598D01*
X29450Y48470D01*
Y48330D01*
X29503Y48202D01*
X29602Y48103D01*
X29730Y48050D01*
X29870D01*
X29998Y48103D01*
X30097Y48202D01*
X30150Y48330D01*
Y48470D01*
X30097Y48598D01*
X30056Y48639D01*
X30050Y48646D01*
X30102Y48772D01*
X31194D01*
X31225Y48741D01*
Y48703D01*
X31278Y48575D01*
X31377Y48476D01*
X31505Y48423D01*
X31645D01*
X31773Y48476D01*
X31872Y48575D01*
X31925Y48703D01*
Y48708D01*
X32045Y48829D01*
X33043D01*
X33140Y48848D01*
X33223Y48903D01*
X33578Y49258D01*
X34325D01*
X34700Y48883D01*
Y46601D01*
X34720Y46503D01*
X34775Y46420D01*
X35775Y45420D01*
X35858Y45364D01*
X35956Y45345D01*
X36366D01*
X36415Y45228D01*
X35023Y43836D01*
X34991Y43759D01*
X34991Y41523D01*
X34992Y41523D01*
X34991Y41522D01*
X35007Y41485D01*
X35023Y41447D01*
X35024Y41446D01*
X35024Y41446D01*
X37475Y39054D01*
Y38720D01*
X37425Y38600D01*
Y38450D01*
X37441Y38412D01*
Y37893D01*
X37314Y37841D01*
X35372Y39782D01*
X35257Y39860D01*
X35120Y39887D01*
X32235D01*
X32201Y39880D01*
X32165D01*
X32133Y39867D01*
X32098Y39860D01*
X32069Y39840D01*
X32037Y39827D01*
X32012Y39802D01*
X31983Y39782D01*
X31963Y39753D01*
X31938Y39728D01*
X31925Y39696D01*
X31905Y39667D01*
X31898Y39632D01*
X31885Y39600D01*
Y39564D01*
X31878Y39530D01*
X31885Y39496D01*
Y39460D01*
X31898Y39428D01*
X31905Y39393D01*
X31925Y39364D01*
X31938Y39332D01*
X31963Y39307D01*
X31983Y39278D01*
X32012Y39258D01*
X32037Y39233D01*
X32069Y39220D01*
X32098Y39200D01*
X32133Y39193D01*
X32165Y39180D01*
X32201D01*
X32235Y39173D01*
X34972D01*
X36793Y37352D01*
Y33930D01*
X36820Y33794D01*
X36898Y33678D01*
X37475Y33101D01*
Y31990D01*
X26608D01*
Y32687D01*
X26613Y32697D01*
X26645Y32731D01*
X26730Y32775D01*
X26766D01*
X26800Y32768D01*
X26834Y32775D01*
X26870D01*
X26902Y32788D01*
X26937Y32795D01*
X26966Y32815D01*
X26998Y32828D01*
X27023Y32853D01*
X27052Y32873D01*
X27072Y32902D01*
X27097Y32927D01*
X27110Y32959D01*
X27130Y32988D01*
X27137Y33023D01*
X27150Y33055D01*
Y33091D01*
X27157Y33125D01*
X27150Y33159D01*
Y33195D01*
X27137Y33227D01*
X27130Y33262D01*
X27110Y33291D01*
X27097Y33323D01*
X27072Y33348D01*
X27052Y33377D01*
X26728Y33701D01*
Y34760D01*
X27017Y35049D01*
X27095Y35165D01*
X27122Y35301D01*
Y37369D01*
X27095Y37505D01*
X27017Y37621D01*
X26728Y37910D01*
Y39786D01*
X26701Y39923D01*
X26624Y40038D01*
X25761Y40901D01*
X25645Y40979D01*
X25509Y41006D01*
X23203D01*
X23066Y40979D01*
X22950Y40901D01*
X21179Y39130D01*
X12672D01*
X11898Y39903D01*
X11875Y50545D01*
X11965Y50635D01*
X14439D01*
Y45865D01*
D02*
G37*
G36*
X11101Y52011D02*
Y39839D01*
X11129Y39702D01*
X11206Y39587D01*
X12272Y38521D01*
X12388Y38443D01*
X12524Y38416D01*
X21327D01*
X21463Y38443D01*
X21579Y38521D01*
X23350Y40292D01*
X25361D01*
X26015Y39638D01*
Y37762D01*
X26042Y37625D01*
X26119Y37510D01*
X26408Y37221D01*
Y36892D01*
X26308Y36830D01*
X26235Y36860D01*
X26095D01*
X25967Y36807D01*
X25868Y36708D01*
X25815Y36580D01*
Y36440D01*
X25868Y36312D01*
X25967Y36213D01*
X26095Y36160D01*
X26235D01*
X26308Y36190D01*
X26408Y36128D01*
Y35932D01*
X26308Y35870D01*
X26235Y35900D01*
X26095D01*
X25967Y35847D01*
X25912Y35792D01*
X25797Y35808D01*
X25698Y35907D01*
X25570Y35960D01*
X25430D01*
X25302Y35907D01*
X25203Y35808D01*
X25150Y35680D01*
Y35540D01*
X25203Y35412D01*
X25302Y35313D01*
X25430Y35260D01*
X25570D01*
X25698Y35313D01*
X25753Y35368D01*
X25868Y35352D01*
X25967Y35253D01*
X26044Y35221D01*
X26083Y35110D01*
X26082Y35105D01*
X26042Y35045D01*
X26015Y34908D01*
Y33553D01*
X26042Y33417D01*
X26119Y33301D01*
X26500Y32920D01*
Y29394D01*
X4212D01*
Y35822D01*
Y52011D01*
X11101Y52011D01*
D02*
G37*
%LPC*%
G36*
X50525Y63950D02*
X50375D01*
X50238Y63893D01*
X50132Y63787D01*
X50075Y63650D01*
Y63500D01*
X50132Y63363D01*
X50238Y63257D01*
X50375Y63200D01*
X50525D01*
X50662Y63257D01*
X50768Y63363D01*
X50825Y63500D01*
Y63650D01*
X50768Y63787D01*
X50662Y63893D01*
X50525Y63950D01*
D02*
G37*
G36*
X54250Y63875D02*
X54100D01*
X53963Y63818D01*
X53857Y63712D01*
X53800Y63575D01*
Y63425D01*
X53857Y63288D01*
X53963Y63182D01*
X54100Y63125D01*
X54250D01*
X54387Y63182D01*
X54493Y63288D01*
X54550Y63425D01*
Y63575D01*
X54493Y63712D01*
X54387Y63818D01*
X54250Y63875D01*
D02*
G37*
G36*
X75575Y63275D02*
X75425D01*
X75288Y63218D01*
X75182Y63112D01*
X75125Y62975D01*
Y62825D01*
X75182Y62688D01*
X75288Y62582D01*
X75425Y62525D01*
X75575D01*
X75712Y62582D01*
X75818Y62688D01*
X75875Y62825D01*
Y62975D01*
X75818Y63112D01*
X75712Y63218D01*
X75575Y63275D01*
D02*
G37*
G36*
X79525Y59305D02*
X79375D01*
X79238Y59248D01*
X79132Y59142D01*
X79075Y59005D01*
Y58855D01*
X79132Y58718D01*
X79238Y58612D01*
X79375Y58555D01*
X79525D01*
X79662Y58612D01*
X79768Y58718D01*
X79825Y58855D01*
Y59005D01*
X79768Y59142D01*
X79662Y59248D01*
X79525Y59305D01*
D02*
G37*
G36*
X81675Y58325D02*
X81525D01*
X81388Y58268D01*
X81282Y58162D01*
X81225Y58025D01*
Y57875D01*
X81282Y57738D01*
X81388Y57632D01*
X81525Y57575D01*
X81675D01*
X81812Y57632D01*
X81918Y57738D01*
X81975Y57875D01*
Y58025D01*
X81918Y58162D01*
X81812Y58268D01*
X81675Y58325D01*
D02*
G37*
G36*
X73650Y58250D02*
X73500D01*
X73363Y58193D01*
X73257Y58087D01*
X73200Y57950D01*
Y57800D01*
X73257Y57663D01*
X73363Y57557D01*
X73500Y57500D01*
X73650D01*
X73787Y57557D01*
X73893Y57663D01*
X73950Y57800D01*
Y57950D01*
X73893Y58087D01*
X73787Y58193D01*
X73650Y58250D01*
D02*
G37*
G36*
X77985Y57055D02*
X77865D01*
X77755Y57009D01*
X77671Y56925D01*
X77666Y56913D01*
X77519Y56891D01*
X77462Y56948D01*
X77325Y57005D01*
X77175D01*
X77038Y56948D01*
X76932Y56842D01*
X76875Y56705D01*
Y56555D01*
X76932Y56418D01*
X77038Y56312D01*
X77175Y56255D01*
X77325D01*
X77462Y56312D01*
X77568Y56418D01*
X77594Y56482D01*
X77742Y56513D01*
X77755Y56501D01*
X77865Y56455D01*
X77985D01*
X78095Y56501D01*
X78220Y56446D01*
X78232Y56418D01*
X78338Y56312D01*
X78475Y56255D01*
X78625D01*
X78762Y56312D01*
X78868Y56418D01*
X78925Y56555D01*
Y56705D01*
X78868Y56842D01*
X78762Y56948D01*
X78625Y57005D01*
X78475D01*
X78338Y56948D01*
X78316Y56926D01*
X78179Y56925D01*
X78095Y57009D01*
X77985Y57055D01*
D02*
G37*
G36*
X76000Y57520D02*
X75850D01*
X75713Y57463D01*
X75607Y57357D01*
X75550Y57220D01*
Y57070D01*
X75607Y56933D01*
X75713Y56827D01*
X75850Y56770D01*
X76000D01*
X76137Y56827D01*
X76243Y56933D01*
X76300Y57070D01*
Y57220D01*
X76243Y57357D01*
X76137Y57463D01*
X76000Y57520D01*
D02*
G37*
G36*
X79485Y57675D02*
X79365D01*
X79255Y57629D01*
X79171Y57545D01*
X79125Y57435D01*
Y57315D01*
X79171Y57205D01*
X79255Y57121D01*
X79321Y57094D01*
X79324Y56958D01*
X79280Y56939D01*
X79196Y56855D01*
X79150Y56745D01*
Y56625D01*
X79196Y56515D01*
X79280Y56431D01*
X79390Y56385D01*
X79510D01*
X79620Y56431D01*
X79704Y56515D01*
X79750Y56625D01*
Y56745D01*
X79704Y56855D01*
X79620Y56939D01*
X79554Y56966D01*
X79551Y57102D01*
X79595Y57121D01*
X79679Y57205D01*
X79725Y57315D01*
Y57435D01*
X79679Y57545D01*
X79595Y57629D01*
X79485Y57675D01*
D02*
G37*
G36*
X81385Y56955D02*
X81265D01*
X81155Y56909D01*
X81071Y56825D01*
X81025Y56715D01*
Y56595D01*
X81071Y56485D01*
X81155Y56401D01*
X81265Y56355D01*
X81385D01*
X81495Y56401D01*
X81579Y56485D01*
X81625Y56595D01*
Y56715D01*
X81579Y56825D01*
X81495Y56909D01*
X81385Y56955D01*
D02*
G37*
G36*
X81550Y55780D02*
X81400D01*
X81263Y55723D01*
X81157Y55617D01*
X81100Y55480D01*
Y55330D01*
X81157Y55193D01*
X81263Y55087D01*
X81400Y55030D01*
X81550D01*
X81687Y55087D01*
X81793Y55193D01*
X81850Y55330D01*
Y55480D01*
X81793Y55617D01*
X81687Y55723D01*
X81550Y55780D01*
D02*
G37*
G36*
X73959Y55602D02*
X73810D01*
X73672Y55545D01*
X73566Y55440D01*
X73509Y55302D01*
Y55153D01*
X73566Y55015D01*
X73672Y54909D01*
X73810Y54852D01*
X73959D01*
X74097Y54909D01*
X74202Y55015D01*
X74259Y55153D01*
Y55302D01*
X74202Y55440D01*
X74097Y55545D01*
X73959Y55602D01*
D02*
G37*
G36*
X75750Y54980D02*
X75600D01*
X75463Y54923D01*
X75357Y54817D01*
X75300Y54680D01*
Y54530D01*
X75357Y54393D01*
X75463Y54287D01*
X75600Y54230D01*
X75750D01*
X75887Y54287D01*
X75993Y54393D01*
X76050Y54530D01*
Y54680D01*
X75993Y54817D01*
X75887Y54923D01*
X75750Y54980D01*
D02*
G37*
G36*
X81481Y54640D02*
X81332D01*
X81194Y54583D01*
X81088Y54477D01*
X81031Y54339D01*
Y54190D01*
X81088Y54052D01*
X81194Y53947D01*
X81332Y53890D01*
X81481D01*
X81619Y53947D01*
X81724Y54052D01*
X81781Y54190D01*
Y54339D01*
X81724Y54477D01*
X81619Y54583D01*
X81481Y54640D01*
D02*
G37*
G36*
X42535Y52247D02*
X42389Y52218D01*
X42265Y52135D01*
X42182Y52011D01*
X42153Y51865D01*
X42182Y51719D01*
X42265Y51595D01*
X42389Y51512D01*
X42535Y51483D01*
X42681Y51512D01*
X42805Y51595D01*
X42888Y51719D01*
X42917Y51865D01*
X42888Y52011D01*
X42805Y52135D01*
X42681Y52218D01*
X42535Y52247D01*
D02*
G37*
G36*
X29763Y51582D02*
X29626Y51555D01*
X29510Y51477D01*
X29491Y51449D01*
X29371D01*
X29352Y51477D01*
X29237Y51555D01*
X29100Y51582D01*
X28963Y51555D01*
X28848Y51477D01*
X28770Y51362D01*
X28743Y51225D01*
X28770Y51088D01*
X28848Y50973D01*
X28963Y50895D01*
X29100Y50868D01*
X29237Y50895D01*
X29352Y50973D01*
X29371Y51001D01*
X29491D01*
X29510Y50973D01*
X29626Y50895D01*
X29763Y50868D01*
X29899Y50895D01*
X30015Y50973D01*
X30092Y51088D01*
X30119Y51225D01*
X30092Y51362D01*
X30015Y51477D01*
X29899Y51555D01*
X29763Y51582D01*
D02*
G37*
G36*
X24276Y51480D02*
X24139Y51453D01*
X24025Y51377D01*
X23912Y51453D01*
X23775Y51480D01*
X23638Y51453D01*
X23523Y51375D01*
X23445Y51260D01*
X23418Y51123D01*
X23445Y50986D01*
X23523Y50871D01*
X23638Y50793D01*
X23775Y50766D01*
X23912Y50793D01*
X24025Y50869D01*
X24139Y50793D01*
X24276Y50766D01*
X24413Y50793D01*
X24528Y50871D01*
X24606Y50986D01*
X24633Y51123D01*
X24606Y51260D01*
X24528Y51375D01*
X24413Y51453D01*
X24276Y51480D01*
D02*
G37*
G36*
X31150Y51390D02*
X31013Y51363D01*
X30898Y51285D01*
X30820Y51169D01*
X30793Y51033D01*
X30820Y50896D01*
X30898Y50781D01*
X31013Y50703D01*
X31150Y50676D01*
X31287Y50703D01*
X31402Y50781D01*
X31480Y50896D01*
X31507Y51033D01*
X31480Y51169D01*
X31402Y51285D01*
X31287Y51363D01*
X31150Y51390D01*
D02*
G37*
G36*
X43751Y50886D02*
X43634Y50863D01*
X43535Y50797D01*
X43469Y50697D01*
X43445Y50580D01*
X43469Y50463D01*
X43535Y50364D01*
X43634Y50298D01*
X43751Y50275D01*
X43868Y50298D01*
X43967Y50364D01*
X44034Y50463D01*
X44057Y50580D01*
X44034Y50697D01*
X43967Y50797D01*
X43868Y50863D01*
X43751Y50886D01*
D02*
G37*
G36*
X58240Y50171D02*
X58123Y50148D01*
X58024Y50081D01*
X57958Y49982D01*
X57934Y49865D01*
X57958Y49748D01*
X58024Y49649D01*
X58123Y49582D01*
X58240Y49559D01*
X58357Y49582D01*
X58456Y49649D01*
X58523Y49748D01*
X58546Y49865D01*
X58523Y49982D01*
X58456Y50081D01*
X58357Y50148D01*
X58240Y50171D01*
D02*
G37*
G36*
X41550Y48932D02*
X41413Y48905D01*
X41300Y48829D01*
X41187Y48905D01*
X41050Y48932D01*
X40913Y48905D01*
X40798Y48827D01*
X40720Y48712D01*
X40705Y48634D01*
X40701Y48614D01*
X40599D01*
X40595Y48634D01*
X40580Y48712D01*
X40502Y48827D01*
X40387Y48905D01*
X40250Y48932D01*
X40113Y48905D01*
X40000Y48829D01*
X39887Y48905D01*
X39750Y48932D01*
X39613Y48905D01*
X39498Y48827D01*
X39420Y48712D01*
X39405Y48634D01*
X39401Y48614D01*
X39299D01*
X39295Y48634D01*
X39280Y48712D01*
X39202Y48827D01*
X39087Y48905D01*
X38950Y48932D01*
X38813Y48905D01*
X38700Y48829D01*
X38587Y48905D01*
X38450Y48932D01*
X38313Y48905D01*
X38198Y48827D01*
X38120Y48712D01*
X38105Y48634D01*
X38101Y48614D01*
X37999D01*
X37995Y48634D01*
X37980Y48712D01*
X37902Y48827D01*
X37787Y48905D01*
X37650Y48932D01*
X37513Y48905D01*
X37400Y48829D01*
X37287Y48905D01*
X37150Y48932D01*
X37013Y48905D01*
X36898Y48827D01*
X36820Y48712D01*
X36793Y48575D01*
X36820Y48438D01*
X36898Y48323D01*
X37013Y48245D01*
X37150Y48218D01*
X37287Y48245D01*
X37400Y48321D01*
X37513Y48245D01*
X37650Y48218D01*
X37787Y48245D01*
X37902Y48323D01*
X37980Y48438D01*
X37995Y48516D01*
X37999Y48536D01*
X38101D01*
X38105Y48516D01*
X38120Y48438D01*
X38198Y48323D01*
X38313Y48245D01*
X38450Y48218D01*
X38587Y48245D01*
X38700Y48321D01*
X38813Y48245D01*
X38950Y48218D01*
X39087Y48245D01*
X39202Y48323D01*
X39280Y48438D01*
X39295Y48516D01*
X39299Y48536D01*
X39401D01*
X39405Y48516D01*
X39420Y48438D01*
X39498Y48323D01*
X39613Y48245D01*
X39750Y48218D01*
X39887Y48245D01*
X40000Y48321D01*
X40113Y48245D01*
X40250Y48218D01*
X40387Y48245D01*
X40502Y48323D01*
X40580Y48438D01*
X40595Y48516D01*
X40599Y48536D01*
X40701D01*
X40705Y48516D01*
X40720Y48438D01*
X40798Y48323D01*
X40913Y48245D01*
X41050Y48218D01*
X41187Y48245D01*
X41300Y48321D01*
X41413Y48245D01*
X41550Y48218D01*
X41687Y48245D01*
X41802Y48323D01*
X41880Y48438D01*
X41907Y48575D01*
X41880Y48712D01*
X41802Y48827D01*
X41687Y48905D01*
X41550Y48932D01*
D02*
G37*
G36*
X61125Y49081D02*
X61008Y49058D01*
X60909Y48991D01*
X60842Y48892D01*
X60819Y48775D01*
X60842Y48658D01*
X60909Y48559D01*
X61008Y48492D01*
X61125Y48469D01*
X61242Y48492D01*
X61341Y48559D01*
X61408Y48658D01*
X61431Y48775D01*
X61408Y48892D01*
X61341Y48991D01*
X61242Y49058D01*
X61125Y49081D01*
D02*
G37*
G36*
X36075Y48832D02*
X35938Y48805D01*
X35823Y48727D01*
X35745Y48612D01*
X35718Y48475D01*
X35745Y48338D01*
X35821Y48225D01*
X35745Y48112D01*
X35718Y47975D01*
X35745Y47838D01*
X35823Y47723D01*
X35938Y47645D01*
X36075Y47618D01*
X36212Y47645D01*
X36327Y47723D01*
X36405Y47838D01*
X36432Y47975D01*
X36405Y48112D01*
X36329Y48225D01*
X36405Y48338D01*
X36432Y48475D01*
X36405Y48612D01*
X36327Y48727D01*
X36212Y48805D01*
X36075Y48832D01*
D02*
G37*
G36*
X55875Y48131D02*
X55758Y48108D01*
X55659Y48041D01*
X55592Y47942D01*
X55569Y47825D01*
X55592Y47708D01*
X55659Y47609D01*
X55758Y47542D01*
X55875Y47519D01*
X55992Y47542D01*
X56091Y47609D01*
X56158Y47708D01*
X56181Y47825D01*
X56158Y47942D01*
X56091Y48041D01*
X55992Y48108D01*
X55875Y48131D01*
D02*
G37*
G36*
X54694Y47906D02*
X54577Y47883D01*
X54478Y47816D01*
X54411Y47717D01*
X54388Y47600D01*
X54411Y47483D01*
X54478Y47384D01*
X54577Y47317D01*
X54694Y47294D01*
X54811Y47317D01*
X54910Y47384D01*
X54976Y47483D01*
X55000Y47600D01*
X54976Y47717D01*
X54910Y47816D01*
X54811Y47883D01*
X54694Y47906D01*
D02*
G37*
G36*
X62400Y46631D02*
X62283Y46608D01*
X62184Y46541D01*
X62117Y46442D01*
X62094Y46325D01*
X62117Y46208D01*
X62184Y46109D01*
X62283Y46042D01*
X62400Y46019D01*
X62517Y46042D01*
X62616Y46109D01*
X62683Y46208D01*
X62706Y46325D01*
X62683Y46442D01*
X62616Y46541D01*
X62517Y46608D01*
X62400Y46631D01*
D02*
G37*
G36*
X61375D02*
X61258Y46608D01*
X61159Y46541D01*
X61092Y46442D01*
X61069Y46325D01*
X61092Y46208D01*
X61159Y46109D01*
X61258Y46042D01*
X61375Y46019D01*
X61492Y46042D01*
X61591Y46109D01*
X61658Y46208D01*
X61681Y46325D01*
X61658Y46442D01*
X61591Y46541D01*
X61492Y46608D01*
X61375Y46631D01*
D02*
G37*
G36*
X63375Y46556D02*
X63258Y46533D01*
X63159Y46466D01*
X63092Y46367D01*
X63069Y46250D01*
X63092Y46133D01*
X63159Y46034D01*
X63258Y45967D01*
X63375Y45944D01*
X63492Y45967D01*
X63591Y46034D01*
X63658Y46133D01*
X63681Y46250D01*
X63658Y46367D01*
X63591Y46466D01*
X63492Y46533D01*
X63375Y46556D01*
D02*
G37*
G36*
X62875Y46031D02*
X62758Y46008D01*
X62659Y45941D01*
X62592Y45842D01*
X62569Y45725D01*
X62586Y45640D01*
X62503Y45575D01*
X62492Y45583D01*
X62375Y45606D01*
X62258Y45583D01*
X62159Y45516D01*
X62092Y45417D01*
X62069Y45300D01*
X62092Y45183D01*
X62159Y45084D01*
X62258Y45017D01*
X62375Y44994D01*
X62492Y45017D01*
X62591Y45084D01*
X62658Y45183D01*
X62681Y45300D01*
X62664Y45385D01*
X62747Y45450D01*
X62758Y45442D01*
X62875Y45419D01*
X62992Y45442D01*
X63091Y45509D01*
X63158Y45608D01*
X63181Y45725D01*
X63158Y45842D01*
X63091Y45941D01*
X62992Y46008D01*
X62875Y46031D01*
D02*
G37*
G36*
X61875Y46131D02*
X61758Y46108D01*
X61659Y46041D01*
X61592Y45942D01*
X61569Y45825D01*
X61592Y45708D01*
X61659Y45609D01*
X61758Y45542D01*
X61875Y45519D01*
X61992Y45542D01*
X62091Y45609D01*
X62158Y45708D01*
X62181Y45825D01*
X62158Y45942D01*
X62091Y46041D01*
X61992Y46108D01*
X61875Y46131D01*
D02*
G37*
G36*
X63850Y46031D02*
X63733Y46008D01*
X63634Y45941D01*
X63567Y45842D01*
X63544Y45725D01*
X63567Y45608D01*
X63634Y45509D01*
X63733Y45442D01*
X63850Y45419D01*
X63967Y45442D01*
X64066Y45509D01*
X64133Y45608D01*
X64156Y45725D01*
X64133Y45842D01*
X64066Y45941D01*
X63967Y46008D01*
X63850Y46031D01*
D02*
G37*
G36*
X64550Y44754D02*
X64433Y44731D01*
X64334Y44664D01*
X64267Y44565D01*
X64244Y44448D01*
X64267Y44331D01*
X64334Y44232D01*
X64433Y44165D01*
X64550Y44142D01*
X64667Y44165D01*
X64766Y44232D01*
X64833Y44331D01*
X64856Y44448D01*
X64833Y44565D01*
X64766Y44664D01*
X64667Y44731D01*
X64550Y44754D01*
D02*
G37*
G36*
X63328Y44718D02*
X63211Y44695D01*
X63112Y44628D01*
X63045Y44529D01*
X63022Y44412D01*
X63045Y44295D01*
X63112Y44196D01*
X63211Y44129D01*
X63328Y44106D01*
X63445Y44129D01*
X63544Y44196D01*
X63611Y44295D01*
X63634Y44412D01*
X63611Y44529D01*
X63544Y44628D01*
X63445Y44695D01*
X63328Y44718D01*
D02*
G37*
G36*
X58396Y46675D02*
X58279Y46652D01*
X58180Y46585D01*
X58113Y46486D01*
X58090Y46369D01*
X58113Y46252D01*
X58180Y46153D01*
X58279Y46086D01*
X58396Y46063D01*
X58513Y46086D01*
X58523Y46093D01*
X58595Y46021D01*
X58592Y46017D01*
X58569Y45900D01*
X58592Y45783D01*
X58659Y45684D01*
X58758Y45617D01*
X58875Y45594D01*
X58992Y45617D01*
X59091Y45684D01*
X59158Y45783D01*
X59181Y45900D01*
X59158Y46017D01*
X59091Y46116D01*
X58992Y46183D01*
X58875Y46206D01*
X58758Y46183D01*
X58748Y46176D01*
X58676Y46248D01*
X58679Y46252D01*
X58702Y46369D01*
X58679Y46486D01*
X58612Y46585D01*
X58513Y46652D01*
X58396Y46675D01*
D02*
G37*
G36*
X57862Y45181D02*
X57745Y45158D01*
X57646Y45092D01*
X57579Y44992D01*
X57556Y44875D01*
X57579Y44758D01*
X57646Y44659D01*
X57745Y44593D01*
X57862Y44569D01*
X57979Y44593D01*
X58078Y44659D01*
X58145Y44758D01*
X58168Y44875D01*
X58145Y44992D01*
X58078Y45092D01*
X57979Y45158D01*
X57862Y45181D01*
D02*
G37*
G36*
X47189Y45095D02*
X47043Y45066D01*
X46919Y44983D01*
X46836Y44859D01*
X46807Y44713D01*
X46836Y44566D01*
X46919Y44442D01*
X47043Y44359D01*
X47189Y44330D01*
X47336Y44359D01*
X47460Y44442D01*
X47543Y44566D01*
X47572Y44713D01*
X47543Y44859D01*
X47460Y44983D01*
X47336Y45066D01*
X47189Y45095D01*
D02*
G37*
G36*
X45533Y45065D02*
X45386Y45036D01*
X45262Y44953D01*
X45180Y44829D01*
X45150Y44683D01*
X45180Y44537D01*
X45262Y44413D01*
X45386Y44330D01*
X45533Y44301D01*
X45679Y44330D01*
X45803Y44413D01*
X45886Y44537D01*
X45915Y44683D01*
X45886Y44829D01*
X45803Y44953D01*
X45679Y45036D01*
X45533Y45065D01*
D02*
G37*
G36*
X50485Y44772D02*
X50368Y44749D01*
X50269Y44682D01*
X50202Y44583D01*
X50179Y44466D01*
X50202Y44349D01*
X50269Y44250D01*
X50368Y44183D01*
X50485Y44160D01*
X50602Y44183D01*
X50701Y44250D01*
X50768Y44349D01*
X50791Y44466D01*
X50768Y44583D01*
X50701Y44682D01*
X50602Y44749D01*
X50485Y44772D01*
D02*
G37*
G36*
X58375Y44631D02*
X58258Y44608D01*
X58159Y44541D01*
X58092Y44442D01*
X58069Y44325D01*
X58092Y44208D01*
X58159Y44109D01*
X58258Y44042D01*
X58375Y44019D01*
X58492Y44042D01*
X58591Y44109D01*
X58658Y44208D01*
X58681Y44325D01*
X58658Y44442D01*
X58591Y44541D01*
X58492Y44608D01*
X58375Y44631D01*
D02*
G37*
G36*
X57782Y44118D02*
X57665Y44095D01*
X57566Y44029D01*
X57499Y43930D01*
X57476Y43812D01*
X57499Y43695D01*
X57566Y43596D01*
X57665Y43530D01*
X57782Y43507D01*
X57899Y43530D01*
X57998Y43596D01*
X58065Y43695D01*
X58088Y43812D01*
X58065Y43930D01*
X57998Y44029D01*
X57899Y44095D01*
X57782Y44118D01*
D02*
G37*
G36*
X58348Y43606D02*
X58231Y43583D01*
X58132Y43516D01*
X58066Y43417D01*
X58045Y43312D01*
X58027Y43279D01*
X57973Y43224D01*
X57966Y43226D01*
X57849Y43203D01*
X57749Y43136D01*
X57683Y43037D01*
X57660Y42920D01*
X57683Y42803D01*
X57749Y42704D01*
X57849Y42637D01*
X57966Y42614D01*
X58083Y42637D01*
X58182Y42704D01*
X58248Y42803D01*
X58269Y42908D01*
X58286Y42941D01*
X58341Y42996D01*
X58348Y42994D01*
X58465Y43017D01*
X58564Y43084D01*
X58631Y43183D01*
X58654Y43300D01*
X58631Y43417D01*
X58564Y43516D01*
X58465Y43583D01*
X58348Y43606D01*
D02*
G37*
G36*
X58850Y44106D02*
X58733Y44083D01*
X58634Y44016D01*
X58567Y43917D01*
X58544Y43800D01*
X58567Y43683D01*
X58634Y43584D01*
X58733Y43517D01*
X58850Y43494D01*
X58939Y43512D01*
X59007Y43463D01*
X59026Y43437D01*
X59019Y43400D01*
X59042Y43283D01*
X59109Y43184D01*
X59208Y43117D01*
X59325Y43094D01*
X59442Y43117D01*
X59541Y43184D01*
X59608Y43283D01*
X59631Y43400D01*
X59608Y43517D01*
X59541Y43616D01*
X59442Y43683D01*
X59325Y43706D01*
X59236Y43688D01*
X59168Y43737D01*
X59149Y43763D01*
X59156Y43800D01*
X59133Y43917D01*
X59066Y44016D01*
X58967Y44083D01*
X58850Y44106D01*
D02*
G37*
G36*
X58875Y43046D02*
X58758Y43023D01*
X58659Y42956D01*
X58592Y42857D01*
X58569Y42740D01*
X58591Y42628D01*
X58578Y42611D01*
X58524Y42564D01*
X58516Y42558D01*
X58400Y42581D01*
X58283Y42558D01*
X58184Y42491D01*
X58117Y42392D01*
X58094Y42275D01*
X58117Y42158D01*
X58184Y42059D01*
X58283Y41992D01*
X58400Y41969D01*
X58517Y41992D01*
X58616Y42059D01*
X58683Y42158D01*
X58706Y42275D01*
X58684Y42387D01*
X58697Y42404D01*
X58751Y42451D01*
X58759Y42457D01*
X58875Y42434D01*
X58895Y42438D01*
X58984Y42375D01*
X59007Y42258D01*
X59074Y42159D01*
X59173Y42092D01*
X59290Y42069D01*
X59407Y42092D01*
X59506Y42159D01*
X59573Y42258D01*
X59596Y42375D01*
X59573Y42492D01*
X59506Y42591D01*
X59407Y42658D01*
X59290Y42681D01*
X59270Y42677D01*
X59181Y42740D01*
X59158Y42857D01*
X59091Y42956D01*
X58992Y43023D01*
X58875Y43046D01*
D02*
G37*
G36*
X52031Y43106D02*
X51914Y43083D01*
X51815Y43016D01*
X51748Y42917D01*
X51725Y42800D01*
X51748Y42683D01*
X51815Y42584D01*
X51914Y42517D01*
X52031Y42494D01*
X52148Y42517D01*
X52247Y42584D01*
X52314Y42683D01*
X52337Y42800D01*
X52314Y42917D01*
X52247Y43016D01*
X52148Y43083D01*
X52031Y43106D01*
D02*
G37*
G36*
X52675Y41781D02*
X52558Y41758D01*
X52495Y41716D01*
X52425Y41699D01*
X52355Y41716D01*
X52292Y41758D01*
X52175Y41781D01*
X52058Y41758D01*
X51959Y41691D01*
X51892Y41592D01*
X51869Y41475D01*
X51892Y41358D01*
X51959Y41259D01*
X52058Y41192D01*
X52175Y41169D01*
X52292Y41192D01*
X52355Y41234D01*
X52425Y41251D01*
X52495Y41234D01*
X52558Y41192D01*
X52675Y41169D01*
X52792Y41192D01*
X52891Y41259D01*
X52958Y41358D01*
X52981Y41475D01*
X52958Y41592D01*
X52891Y41691D01*
X52792Y41758D01*
X52675Y41781D01*
D02*
G37*
G36*
X28526Y55782D02*
X28389Y55755D01*
X28275Y55679D01*
X28162Y55755D01*
X28025Y55782D01*
X27888Y55755D01*
X27774Y55679D01*
X27661Y55755D01*
X27524Y55782D01*
X27387Y55755D01*
X27272Y55677D01*
X27194Y55562D01*
X27167Y55425D01*
X27194Y55288D01*
X27272Y55173D01*
X27387Y55095D01*
X27524Y55068D01*
X27661Y55095D01*
X27774Y55171D01*
X27888Y55095D01*
X28025Y55068D01*
X28162Y55095D01*
X28275Y55171D01*
X28389Y55095D01*
X28526Y55068D01*
X28663Y55095D01*
X28778Y55173D01*
X28856Y55288D01*
X28883Y55425D01*
X28856Y55562D01*
X28778Y55677D01*
X28663Y55755D01*
X28526Y55782D01*
D02*
G37*
G36*
X26676D02*
X26539Y55755D01*
X26426Y55679D01*
X26312Y55755D01*
X26175Y55782D01*
X26038Y55755D01*
X25924Y55679D01*
X25811Y55755D01*
X25674Y55782D01*
X25537Y55755D01*
X25422Y55677D01*
X25344Y55562D01*
X25317Y55425D01*
X25344Y55288D01*
X25422Y55173D01*
X25537Y55095D01*
X25674Y55068D01*
X25811Y55095D01*
X25924Y55171D01*
X26038Y55095D01*
X26175Y55068D01*
X26312Y55095D01*
X26426Y55171D01*
X26539Y55095D01*
X26676Y55068D01*
X26813Y55095D01*
X26928Y55173D01*
X27006Y55288D01*
X27033Y55425D01*
X27006Y55562D01*
X26928Y55677D01*
X26813Y55755D01*
X26676Y55782D01*
D02*
G37*
G36*
X24826D02*
X24689Y55755D01*
X24576Y55679D01*
X24462Y55755D01*
X24325Y55782D01*
X24188Y55755D01*
X24074Y55679D01*
X23961Y55755D01*
X23824Y55782D01*
X23687Y55755D01*
X23572Y55677D01*
X23494Y55562D01*
X23467Y55425D01*
X23494Y55288D01*
X23572Y55173D01*
X23687Y55095D01*
X23824Y55068D01*
X23961Y55095D01*
X24074Y55171D01*
X24188Y55095D01*
X24325Y55068D01*
X24462Y55095D01*
X24576Y55171D01*
X24689Y55095D01*
X24826Y55068D01*
X24963Y55095D01*
X25078Y55173D01*
X25156Y55288D01*
X25183Y55425D01*
X25156Y55562D01*
X25078Y55677D01*
X24963Y55755D01*
X24826Y55782D01*
D02*
G37*
G36*
X40025Y54932D02*
X39888Y54905D01*
X39775Y54829D01*
X39662Y54905D01*
X39525Y54932D01*
X39388Y54905D01*
X39273Y54827D01*
X39195Y54712D01*
X39183Y54652D01*
X39092D01*
X39080Y54712D01*
X39002Y54827D01*
X38887Y54905D01*
X38750Y54932D01*
X38613Y54905D01*
X38500Y54829D01*
X38387Y54905D01*
X38250Y54932D01*
X38113Y54905D01*
X37998Y54827D01*
X37920Y54712D01*
X37908Y54652D01*
X37817D01*
X37805Y54712D01*
X37727Y54827D01*
X37612Y54905D01*
X37475Y54932D01*
X37338Y54905D01*
X37225Y54829D01*
X37112Y54905D01*
X36975Y54932D01*
X36838Y54905D01*
X36723Y54827D01*
X36645Y54712D01*
X36633Y54652D01*
X36542D01*
X36530Y54712D01*
X36452Y54827D01*
X36337Y54905D01*
X36200Y54932D01*
X36063Y54905D01*
X35950Y54829D01*
X35837Y54905D01*
X35700Y54932D01*
X35563Y54905D01*
X35448Y54827D01*
X35370Y54712D01*
X35343Y54575D01*
X35370Y54438D01*
X35448Y54323D01*
X35563Y54245D01*
X35700Y54218D01*
X35837Y54245D01*
X35950Y54321D01*
X36063Y54245D01*
X36200Y54218D01*
X36337Y54245D01*
X36452Y54323D01*
X36530Y54438D01*
X36542Y54498D01*
X36633D01*
X36645Y54438D01*
X36723Y54323D01*
X36838Y54245D01*
X36975Y54218D01*
X37112Y54245D01*
X37225Y54321D01*
X37338Y54245D01*
X37475Y54218D01*
X37612Y54245D01*
X37727Y54323D01*
X37805Y54438D01*
X37817Y54498D01*
X37908D01*
X37920Y54438D01*
X37998Y54323D01*
X38113Y54245D01*
X38250Y54218D01*
X38387Y54245D01*
X38500Y54321D01*
X38613Y54245D01*
X38750Y54218D01*
X38887Y54245D01*
X39002Y54323D01*
X39080Y54438D01*
X39092Y54498D01*
X39183D01*
X39195Y54438D01*
X39273Y54323D01*
X39388Y54245D01*
X39525Y54218D01*
X39662Y54245D01*
X39775Y54321D01*
X39888Y54245D01*
X40025Y54218D01*
X40162Y54245D01*
X40277Y54323D01*
X40355Y54438D01*
X40382Y54575D01*
X40355Y54712D01*
X40277Y54827D01*
X40162Y54905D01*
X40025Y54932D01*
D02*
G37*
G36*
X86210Y48795D02*
X86093Y48772D01*
X85994Y48705D01*
X85927Y48606D01*
X85904Y48489D01*
X85927Y48372D01*
X85994Y48273D01*
X86093Y48206D01*
X86210Y48183D01*
X86327Y48206D01*
X86426Y48273D01*
X86493Y48372D01*
X86516Y48489D01*
X86493Y48606D01*
X86426Y48705D01*
X86327Y48772D01*
X86210Y48795D01*
D02*
G37*
G36*
X87661Y48631D02*
X87544Y48608D01*
X87445Y48541D01*
X87378Y48442D01*
X87355Y48325D01*
X87378Y48208D01*
X87445Y48109D01*
X87544Y48042D01*
X87661Y48019D01*
X87778Y48042D01*
X87877Y48109D01*
X87944Y48208D01*
X87967Y48325D01*
X87944Y48442D01*
X87877Y48541D01*
X87778Y48608D01*
X87661Y48631D01*
D02*
G37*
G36*
X69762Y48543D02*
X69645Y48520D01*
X69546Y48454D01*
X69480Y48355D01*
X69457Y48237D01*
X69480Y48120D01*
X69546Y48021D01*
X69645Y47955D01*
X69762Y47932D01*
X69880Y47955D01*
X69979Y48021D01*
X70045Y48120D01*
X70068Y48237D01*
X70045Y48355D01*
X69979Y48454D01*
X69880Y48520D01*
X69762Y48543D01*
D02*
G37*
G36*
X84515Y48360D02*
X84398Y48337D01*
X84299Y48270D01*
X84232Y48171D01*
X84209Y48054D01*
X84232Y47937D01*
X84299Y47838D01*
X84398Y47771D01*
X84515Y47748D01*
X84632Y47771D01*
X84731Y47838D01*
X84798Y47937D01*
X84821Y48054D01*
X84798Y48171D01*
X84731Y48270D01*
X84632Y48337D01*
X84515Y48360D01*
D02*
G37*
G36*
X82085Y48095D02*
X81968Y48072D01*
X81869Y48006D01*
X81802Y47907D01*
X81779Y47790D01*
X81802Y47672D01*
X81869Y47573D01*
X81968Y47507D01*
X82085Y47484D01*
X82202Y47507D01*
X82301Y47573D01*
X82368Y47672D01*
X82391Y47790D01*
X82368Y47907D01*
X82301Y48006D01*
X82202Y48072D01*
X82085Y48095D01*
D02*
G37*
G36*
X81271Y46895D02*
X81154Y46871D01*
X81055Y46805D01*
X80988Y46706D01*
X80965Y46589D01*
X80988Y46472D01*
X81055Y46373D01*
X81154Y46306D01*
X81271Y46283D01*
X81388Y46306D01*
X81487Y46373D01*
X81554Y46472D01*
X81577Y46589D01*
X81554Y46706D01*
X81487Y46805D01*
X81388Y46871D01*
X81271Y46895D01*
D02*
G37*
G36*
X83660Y46771D02*
X83543Y46748D01*
X83444Y46681D01*
X83377Y46582D01*
X83354Y46465D01*
X83377Y46348D01*
X83444Y46249D01*
X83543Y46182D01*
X83660Y46159D01*
X83777Y46182D01*
X83876Y46249D01*
X83943Y46348D01*
X83966Y46465D01*
X83943Y46582D01*
X83876Y46681D01*
X83777Y46748D01*
X83660Y46771D01*
D02*
G37*
G36*
X67855Y46126D02*
X67738Y46103D01*
X67639Y46036D01*
X67572Y45937D01*
X67549Y45820D01*
X67572Y45703D01*
X67611Y45645D01*
X67622Y45629D01*
X67557Y45564D01*
X67542Y45574D01*
X67492Y45608D01*
X67375Y45631D01*
X67258Y45608D01*
X67159Y45541D01*
X67092Y45442D01*
X67069Y45325D01*
X67074Y45298D01*
X66998Y45222D01*
X66971Y45227D01*
X66854Y45204D01*
X66755Y45138D01*
X66689Y45038D01*
X66665Y44921D01*
X66689Y44804D01*
X66755Y44705D01*
X66854Y44639D01*
X66971Y44615D01*
X67088Y44639D01*
X67188Y44705D01*
X67254Y44804D01*
X67277Y44921D01*
X67272Y44948D01*
X67348Y45024D01*
X67375Y45019D01*
X67492Y45042D01*
X67591Y45109D01*
X67658Y45208D01*
X67681Y45325D01*
X67658Y45442D01*
X67619Y45500D01*
X67608Y45516D01*
X67673Y45581D01*
X67688Y45571D01*
X67738Y45537D01*
X67855Y45514D01*
X67972Y45537D01*
X68071Y45604D01*
X68138Y45703D01*
X68161Y45820D01*
X68138Y45937D01*
X68071Y46036D01*
X67972Y46103D01*
X67855Y46126D01*
D02*
G37*
G36*
X86860Y46171D02*
X86743Y46148D01*
X86644Y46081D01*
X86577Y45982D01*
X86554Y45865D01*
X86577Y45748D01*
X86644Y45649D01*
X86743Y45582D01*
X86860Y45559D01*
X86977Y45582D01*
X87076Y45649D01*
X87143Y45748D01*
X87166Y45865D01*
X87143Y45982D01*
X87076Y46081D01*
X86977Y46148D01*
X86860Y46171D01*
D02*
G37*
G36*
X66875Y46147D02*
X66758Y46124D01*
X66659Y46057D01*
X66592Y45958D01*
X66569Y45841D01*
X66592Y45724D01*
X66659Y45625D01*
X66758Y45558D01*
X66875Y45535D01*
X66992Y45558D01*
X67091Y45625D01*
X67158Y45724D01*
X67181Y45841D01*
X67158Y45958D01*
X67091Y46057D01*
X66992Y46124D01*
X66875Y46147D01*
D02*
G37*
G36*
X80400Y46025D02*
X80283Y46002D01*
X80184Y45935D01*
X80117Y45836D01*
X80094Y45719D01*
X80117Y45602D01*
X80184Y45503D01*
X80283Y45436D01*
X80400Y45413D01*
X80517Y45436D01*
X80616Y45503D01*
X80683Y45602D01*
X80706Y45719D01*
X80683Y45836D01*
X80616Y45935D01*
X80517Y46002D01*
X80400Y46025D01*
D02*
G37*
G36*
X84509Y45829D02*
X84392Y45805D01*
X84293Y45739D01*
X84226Y45640D01*
X84203Y45523D01*
X84226Y45406D01*
X84293Y45306D01*
X84392Y45240D01*
X84509Y45217D01*
X84626Y45240D01*
X84725Y45306D01*
X84792Y45406D01*
X84815Y45523D01*
X84792Y45640D01*
X84725Y45739D01*
X84626Y45805D01*
X84509Y45829D01*
D02*
G37*
G36*
X80340Y45330D02*
X80223Y45307D01*
X80124Y45241D01*
X80057Y45142D01*
X80046Y45085D01*
X80019Y45024D01*
X79948Y45020D01*
X79895Y45030D01*
X79778Y45007D01*
X79679Y44941D01*
X79612Y44842D01*
X79589Y44725D01*
X79612Y44607D01*
X79679Y44508D01*
X79778Y44442D01*
X79895Y44419D01*
X80012Y44442D01*
X80111Y44508D01*
X80178Y44607D01*
X80189Y44664D01*
X80216Y44725D01*
X80287Y44729D01*
X80340Y44719D01*
X80457Y44742D01*
X80556Y44808D01*
X80623Y44907D01*
X80646Y45025D01*
X80623Y45142D01*
X80556Y45241D01*
X80457Y45307D01*
X80340Y45330D01*
D02*
G37*
G36*
X88460Y45571D02*
X88343Y45548D01*
X88244Y45481D01*
X88177Y45382D01*
X88154Y45265D01*
X88177Y45148D01*
X88244Y45049D01*
X88343Y44982D01*
X88460Y44959D01*
X88577Y44982D01*
X88676Y45049D01*
X88743Y45148D01*
X88766Y45265D01*
X88743Y45382D01*
X88676Y45481D01*
X88577Y45548D01*
X88460Y45571D01*
D02*
G37*
G36*
X67875Y45046D02*
X67758Y45023D01*
X67659Y44956D01*
X67592Y44857D01*
X67569Y44740D01*
X67592Y44623D01*
X67659Y44524D01*
X67758Y44457D01*
X67875Y44434D01*
X67992Y44457D01*
X68091Y44524D01*
X68158Y44623D01*
X68181Y44740D01*
X68158Y44857D01*
X68091Y44956D01*
X67992Y45023D01*
X67875Y45046D01*
D02*
G37*
G36*
X85990Y44591D02*
X85873Y44568D01*
X85774Y44501D01*
X85707Y44402D01*
X85684Y44285D01*
X85707Y44168D01*
X85774Y44069D01*
X85873Y44002D01*
X85990Y43979D01*
X86107Y44002D01*
X86206Y44069D01*
X86273Y44168D01*
X86296Y44285D01*
X86273Y44402D01*
X86206Y44501D01*
X86107Y44568D01*
X85990Y44591D01*
D02*
G37*
G36*
X67375Y44546D02*
X67258Y44523D01*
X67159Y44456D01*
X67092Y44357D01*
X67069Y44240D01*
X67092Y44123D01*
X67159Y44024D01*
X67258Y43957D01*
X67375Y43934D01*
X67492Y43957D01*
X67591Y44024D01*
X67658Y44123D01*
X67681Y44240D01*
X67658Y44357D01*
X67591Y44456D01*
X67492Y44523D01*
X67375Y44546D01*
D02*
G37*
G36*
X80410Y44535D02*
X80293Y44512D01*
X80194Y44446D01*
X80127Y44347D01*
X80104Y44230D01*
X80127Y44112D01*
X80194Y44013D01*
X80293Y43947D01*
X80410Y43924D01*
X80527Y43947D01*
X80626Y44013D01*
X80693Y44112D01*
X80716Y44230D01*
X80693Y44347D01*
X80626Y44446D01*
X80527Y44512D01*
X80410Y44535D01*
D02*
G37*
G36*
X83659Y44296D02*
X83542Y44273D01*
X83443Y44206D01*
X83376Y44107D01*
X83353Y43990D01*
X83376Y43873D01*
X83443Y43774D01*
X83542Y43707D01*
X83659Y43684D01*
X83776Y43707D01*
X83875Y43774D01*
X83942Y43873D01*
X83965Y43990D01*
X83942Y44107D01*
X83875Y44206D01*
X83776Y44273D01*
X83659Y44296D01*
D02*
G37*
G36*
X82860Y44921D02*
X82743Y44898D01*
X82644Y44831D01*
X82577Y44732D01*
X82554Y44615D01*
X82577Y44498D01*
X82644Y44399D01*
X82713Y44353D01*
X82714Y44349D01*
Y44256D01*
X82713Y44252D01*
X82644Y44206D01*
X82577Y44107D01*
X82554Y43990D01*
X82577Y43873D01*
X82644Y43774D01*
X82743Y43707D01*
X82860Y43684D01*
X82977Y43707D01*
X83076Y43774D01*
X83143Y43873D01*
X83166Y43990D01*
X83143Y44107D01*
X83076Y44206D01*
X83007Y44252D01*
X83006Y44256D01*
Y44349D01*
X83007Y44353D01*
X83076Y44399D01*
X83143Y44498D01*
X83166Y44615D01*
X83143Y44732D01*
X83076Y44831D01*
X82977Y44898D01*
X82860Y44921D01*
D02*
G37*
G36*
X86860Y44246D02*
X86743Y44223D01*
X86644Y44156D01*
X86577Y44057D01*
X86554Y43940D01*
X86577Y43823D01*
X86644Y43724D01*
X86743Y43657D01*
X86860Y43634D01*
X86977Y43657D01*
X87076Y43724D01*
X87143Y43823D01*
X87166Y43940D01*
X87143Y44057D01*
X87076Y44156D01*
X86977Y44223D01*
X86860Y44246D01*
D02*
G37*
G36*
X87675Y44156D02*
X87558Y44133D01*
X87459Y44066D01*
X87392Y43967D01*
X87369Y43850D01*
X87392Y43733D01*
X87459Y43634D01*
X87558Y43567D01*
X87675Y43544D01*
X87792Y43567D01*
X87891Y43634D01*
X87958Y43733D01*
X87981Y43850D01*
X87958Y43967D01*
X87891Y44066D01*
X87792Y44133D01*
X87675Y44156D01*
D02*
G37*
G36*
X66200Y43511D02*
X66083Y43488D01*
X65984Y43421D01*
X65917Y43322D01*
X65894Y43205D01*
X65917Y43088D01*
X65984Y42989D01*
X66083Y42922D01*
X66200Y42899D01*
X66317Y42922D01*
X66416Y42989D01*
X66483Y43088D01*
X66506Y43205D01*
X66483Y43322D01*
X66416Y43421D01*
X66317Y43488D01*
X66200Y43511D01*
D02*
G37*
G36*
X87675Y43456D02*
X87558Y43433D01*
X87459Y43366D01*
X87392Y43267D01*
X87369Y43150D01*
X87392Y43033D01*
X87459Y42934D01*
X87558Y42867D01*
X87675Y42844D01*
X87792Y42867D01*
X87891Y42934D01*
X87958Y43033D01*
X87981Y43150D01*
X87958Y43267D01*
X87891Y43366D01*
X87792Y43433D01*
X87675Y43456D01*
D02*
G37*
G36*
X67950Y43131D02*
X67833Y43108D01*
X67734Y43041D01*
X67667Y42942D01*
X67644Y42825D01*
X67667Y42708D01*
X67682Y42685D01*
X67618Y42621D01*
X67577Y42648D01*
X67460Y42671D01*
X67343Y42648D01*
X67244Y42581D01*
X67177Y42482D01*
X67154Y42365D01*
X67177Y42248D01*
X67244Y42149D01*
X67343Y42082D01*
X67460Y42059D01*
X67577Y42082D01*
X67676Y42149D01*
X67743Y42248D01*
X67766Y42365D01*
X67743Y42482D01*
X67728Y42505D01*
X67792Y42569D01*
X67833Y42542D01*
X67950Y42519D01*
X68067Y42542D01*
X68166Y42609D01*
X68233Y42708D01*
X68256Y42825D01*
X68233Y42942D01*
X68166Y43041D01*
X68067Y43108D01*
X67950Y43131D01*
D02*
G37*
G36*
X82860Y43596D02*
X82743Y43573D01*
X82644Y43506D01*
X82577Y43407D01*
X82554Y43290D01*
X82577Y43173D01*
X82644Y43074D01*
X82688Y43044D01*
Y42936D01*
X82644Y42906D01*
X82577Y42807D01*
X82554Y42690D01*
X82577Y42573D01*
X82644Y42474D01*
X82743Y42407D01*
X82860Y42384D01*
X82977Y42407D01*
X83076Y42474D01*
X83143Y42573D01*
X83166Y42690D01*
X83143Y42807D01*
X83076Y42906D01*
X83032Y42936D01*
Y43044D01*
X83076Y43074D01*
X83143Y43173D01*
X83166Y43290D01*
X83143Y43407D01*
X83076Y43506D01*
X82977Y43573D01*
X82860Y43596D01*
D02*
G37*
G36*
X86860Y42971D02*
X86743Y42948D01*
X86644Y42881D01*
X86577Y42782D01*
X86554Y42665D01*
X86577Y42548D01*
X86644Y42449D01*
X86743Y42382D01*
X86860Y42359D01*
X86977Y42382D01*
X87076Y42449D01*
X87143Y42548D01*
X87166Y42665D01*
X87143Y42782D01*
X87076Y42881D01*
X86977Y42948D01*
X86860Y42971D01*
D02*
G37*
G36*
X81260Y44311D02*
X81143Y44288D01*
X81044Y44221D01*
X80977Y44122D01*
X80954Y44005D01*
X80977Y43888D01*
X81044Y43789D01*
X81143Y43722D01*
X81206Y43710D01*
X81226Y43706D01*
Y43614D01*
X81206Y43610D01*
X81143Y43598D01*
X81044Y43531D01*
X80977Y43432D01*
X80954Y43315D01*
X80977Y43198D01*
X81044Y43099D01*
X81143Y43032D01*
X81206Y43020D01*
X81226Y43016D01*
Y42924D01*
X81206Y42920D01*
X81143Y42908D01*
X81044Y42841D01*
X80977Y42742D01*
X80954Y42625D01*
X80977Y42508D01*
X81044Y42409D01*
X81143Y42342D01*
X81260Y42319D01*
X81377Y42342D01*
X81476Y42409D01*
X81543Y42508D01*
X81566Y42625D01*
X81543Y42742D01*
X81476Y42841D01*
X81377Y42908D01*
X81314Y42920D01*
X81294Y42924D01*
Y43016D01*
X81314Y43020D01*
X81377Y43032D01*
X81476Y43099D01*
X81543Y43198D01*
X81566Y43315D01*
X81543Y43432D01*
X81476Y43531D01*
X81377Y43598D01*
X81314Y43610D01*
X81294Y43614D01*
Y43706D01*
X81314Y43710D01*
X81377Y43722D01*
X81476Y43789D01*
X81543Y43888D01*
X81566Y44005D01*
X81543Y44122D01*
X81476Y44221D01*
X81377Y44288D01*
X81260Y44311D01*
D02*
G37*
G36*
X84374Y42895D02*
X84257Y42872D01*
X84158Y42806D01*
X84091Y42707D01*
X84068Y42590D01*
X84091Y42472D01*
X84158Y42373D01*
X84257Y42307D01*
X84374Y42284D01*
X84491Y42307D01*
X84590Y42373D01*
X84657Y42472D01*
X84680Y42590D01*
X84657Y42707D01*
X84590Y42806D01*
X84491Y42872D01*
X84374Y42895D01*
D02*
G37*
G36*
X83574D02*
X83457Y42872D01*
X83358Y42806D01*
X83291Y42707D01*
X83268Y42590D01*
X83291Y42472D01*
X83358Y42373D01*
X83457Y42307D01*
X83574Y42284D01*
X83691Y42307D01*
X83790Y42373D01*
X83857Y42472D01*
X83880Y42590D01*
X83857Y42707D01*
X83790Y42806D01*
X83691Y42872D01*
X83574Y42895D01*
D02*
G37*
G36*
X89260Y43521D02*
X89143Y43498D01*
X89044Y43431D01*
X88977Y43332D01*
X88954Y43215D01*
X88977Y43098D01*
X89044Y42999D01*
X89135Y42938D01*
X89139Y42890D01*
X89135Y42842D01*
X89044Y42781D01*
X88977Y42682D01*
X88954Y42565D01*
X88977Y42448D01*
X89044Y42349D01*
X89143Y42282D01*
X89260Y42259D01*
X89377Y42282D01*
X89476Y42349D01*
X89543Y42448D01*
X89566Y42565D01*
X89543Y42682D01*
X89476Y42781D01*
X89385Y42842D01*
X89381Y42890D01*
X89385Y42938D01*
X89476Y42999D01*
X89543Y43098D01*
X89566Y43215D01*
X89543Y43332D01*
X89476Y43431D01*
X89377Y43498D01*
X89260Y43521D01*
D02*
G37*
G36*
X88460Y43496D02*
X88343Y43473D01*
X88244Y43406D01*
X88177Y43307D01*
X88154Y43190D01*
X88177Y43073D01*
X88244Y42974D01*
X88313Y42928D01*
X88314Y42924D01*
Y42831D01*
X88313Y42827D01*
X88244Y42781D01*
X88177Y42682D01*
X88154Y42565D01*
X88177Y42448D01*
X88244Y42349D01*
X88343Y42282D01*
X88460Y42259D01*
X88577Y42282D01*
X88676Y42349D01*
X88743Y42448D01*
X88766Y42565D01*
X88743Y42682D01*
X88676Y42781D01*
X88607Y42827D01*
X88606Y42831D01*
Y42924D01*
X88607Y42928D01*
X88676Y42974D01*
X88743Y43073D01*
X88766Y43190D01*
X88743Y43307D01*
X88676Y43406D01*
X88577Y43473D01*
X88460Y43496D01*
D02*
G37*
G36*
X87075Y42156D02*
X86958Y42133D01*
X86859Y42066D01*
X86792Y41967D01*
X86769Y41850D01*
X86792Y41733D01*
X86859Y41634D01*
X86958Y41567D01*
X87075Y41544D01*
X87192Y41567D01*
X87291Y41634D01*
X87358Y41733D01*
X87381Y41850D01*
X87358Y41967D01*
X87291Y42066D01*
X87192Y42133D01*
X87075Y42156D01*
D02*
G37*
G36*
X67970Y42036D02*
X67853Y42013D01*
X67754Y41946D01*
X67687Y41847D01*
X67664Y41730D01*
X67687Y41613D01*
X67754Y41514D01*
X67853Y41447D01*
X67970Y41424D01*
X68087Y41447D01*
X68186Y41514D01*
X68253Y41613D01*
X68276Y41730D01*
X68253Y41847D01*
X68186Y41946D01*
X68087Y42013D01*
X67970Y42036D01*
D02*
G37*
G36*
X66950Y42131D02*
X66833Y42108D01*
X66734Y42041D01*
X66667Y41942D01*
X66644Y41825D01*
X66667Y41708D01*
X66734Y41609D01*
X66833Y41542D01*
X66950Y41519D01*
X67067Y41542D01*
X67129Y41584D01*
X67184Y41516D01*
X67160Y41480D01*
X67117Y41417D01*
X67094Y41300D01*
X67117Y41183D01*
X67184Y41084D01*
X67283Y41017D01*
X67400Y40994D01*
X67517Y41017D01*
X67616Y41084D01*
X67683Y41183D01*
X67706Y41300D01*
X67683Y41417D01*
X67616Y41516D01*
X67517Y41583D01*
X67400Y41606D01*
X67283Y41583D01*
X67221Y41541D01*
X67166Y41609D01*
X67190Y41645D01*
X67233Y41708D01*
X67256Y41825D01*
X67233Y41942D01*
X67166Y42041D01*
X67067Y42108D01*
X66950Y42131D01*
D02*
G37*
G36*
X67961Y41158D02*
X67844Y41135D01*
X67745Y41069D01*
X67678Y40970D01*
X67655Y40853D01*
X67678Y40736D01*
X67745Y40636D01*
X67844Y40570D01*
X67961Y40547D01*
X68078Y40570D01*
X68177Y40636D01*
X68244Y40736D01*
X68267Y40853D01*
X68244Y40970D01*
X68177Y41069D01*
X68078Y41135D01*
X67961Y41158D01*
D02*
G37*
G36*
X66850Y41156D02*
X66733Y41133D01*
X66634Y41066D01*
X66567Y40967D01*
X66544Y40850D01*
X66567Y40733D01*
X66634Y40634D01*
X66733Y40567D01*
X66850Y40544D01*
X66967Y40567D01*
X67066Y40634D01*
X67133Y40733D01*
X67156Y40850D01*
X67133Y40967D01*
X67066Y41066D01*
X66967Y41133D01*
X66850Y41156D01*
D02*
G37*
G36*
X88460Y40971D02*
X88343Y40948D01*
X88244Y40881D01*
X88177Y40782D01*
X88154Y40665D01*
X88177Y40548D01*
X88244Y40449D01*
X88343Y40382D01*
X88460Y40359D01*
X88577Y40382D01*
X88676Y40449D01*
X88743Y40548D01*
X88766Y40665D01*
X88743Y40782D01*
X88676Y40881D01*
X88577Y40948D01*
X88460Y40971D01*
D02*
G37*
G36*
X86860D02*
X86743Y40948D01*
X86644Y40881D01*
X86577Y40782D01*
X86554Y40665D01*
X86577Y40548D01*
X86644Y40449D01*
X86743Y40382D01*
X86860Y40359D01*
X86977Y40382D01*
X87076Y40449D01*
X87143Y40548D01*
X87166Y40665D01*
X87143Y40782D01*
X87076Y40881D01*
X86977Y40948D01*
X86860Y40971D01*
D02*
G37*
G36*
X88460Y40246D02*
X88343Y40223D01*
X88244Y40156D01*
X88177Y40057D01*
X88154Y39940D01*
X88177Y39823D01*
X88244Y39724D01*
X88343Y39657D01*
X88460Y39634D01*
X88577Y39657D01*
X88676Y39724D01*
X88743Y39823D01*
X88766Y39940D01*
X88743Y40057D01*
X88676Y40156D01*
X88577Y40223D01*
X88460Y40246D01*
D02*
G37*
G36*
X82860D02*
X82743Y40223D01*
X82644Y40156D01*
X82577Y40057D01*
X82554Y39940D01*
X82577Y39823D01*
X82644Y39724D01*
X82743Y39657D01*
X82860Y39634D01*
X82977Y39657D01*
X83076Y39724D01*
X83143Y39823D01*
X83166Y39940D01*
X83143Y40057D01*
X83076Y40156D01*
X82977Y40223D01*
X82860Y40246D01*
D02*
G37*
G36*
X67925Y40216D02*
X67808Y40193D01*
X67709Y40126D01*
X67642Y40027D01*
X67619Y39910D01*
X67642Y39793D01*
X67709Y39694D01*
X67808Y39627D01*
X67925Y39604D01*
X68042Y39627D01*
X68141Y39694D01*
X68208Y39793D01*
X68231Y39910D01*
X68208Y40027D01*
X68141Y40126D01*
X68042Y40193D01*
X67925Y40216D01*
D02*
G37*
G36*
X81235Y40251D02*
X81118Y40228D01*
X81019Y40161D01*
X80952Y40062D01*
X80929Y39945D01*
X80952Y39828D01*
X81018Y39729D01*
X81034Y39705D01*
Y39679D01*
X81024Y39617D01*
X80967Y39532D01*
X80944Y39415D01*
X80967Y39298D01*
X81034Y39199D01*
X81133Y39132D01*
X81250Y39109D01*
X81367Y39132D01*
X81466Y39199D01*
X81533Y39298D01*
X81556Y39415D01*
X81533Y39532D01*
X81467Y39631D01*
X81451Y39655D01*
Y39681D01*
X81461Y39743D01*
X81518Y39828D01*
X81541Y39945D01*
X81518Y40062D01*
X81451Y40161D01*
X81352Y40228D01*
X81235Y40251D01*
D02*
G37*
G36*
X66965Y40206D02*
X66848Y40183D01*
X66749Y40116D01*
X66682Y40017D01*
X66659Y39900D01*
X66682Y39783D01*
X66749Y39684D01*
X66848Y39617D01*
X66965Y39594D01*
X67082Y39617D01*
X67105Y39632D01*
X67169Y39568D01*
X67142Y39527D01*
X67119Y39410D01*
X67142Y39293D01*
X67209Y39194D01*
X67308Y39127D01*
X67425Y39104D01*
X67542Y39127D01*
X67641Y39194D01*
X67708Y39293D01*
X67731Y39410D01*
X67708Y39527D01*
X67641Y39626D01*
X67542Y39693D01*
X67425Y39716D01*
X67308Y39693D01*
X67285Y39678D01*
X67221Y39742D01*
X67248Y39783D01*
X67271Y39900D01*
X67248Y40017D01*
X67181Y40116D01*
X67082Y40183D01*
X66965Y40206D01*
D02*
G37*
G36*
X84460Y39696D02*
X84343Y39673D01*
X84244Y39606D01*
X84177Y39507D01*
X84154Y39390D01*
X84177Y39273D01*
X84244Y39174D01*
X84343Y39107D01*
X84460Y39084D01*
X84577Y39107D01*
X84676Y39174D01*
X84743Y39273D01*
X84766Y39390D01*
X84743Y39507D01*
X84676Y39606D01*
X84577Y39673D01*
X84460Y39696D01*
D02*
G37*
G36*
X83660D02*
X83543Y39673D01*
X83444Y39606D01*
X83377Y39507D01*
X83354Y39390D01*
X83377Y39273D01*
X83444Y39174D01*
X83543Y39107D01*
X83660Y39084D01*
X83777Y39107D01*
X83876Y39174D01*
X83943Y39273D01*
X83966Y39390D01*
X83943Y39507D01*
X83876Y39606D01*
X83777Y39673D01*
X83660Y39696D01*
D02*
G37*
G36*
X82060Y39546D02*
X81943Y39523D01*
X81844Y39456D01*
X81777Y39357D01*
X81754Y39240D01*
X81777Y39123D01*
X81844Y39024D01*
X81943Y38957D01*
X82060Y38934D01*
X82177Y38957D01*
X82276Y39024D01*
X82343Y39123D01*
X82366Y39240D01*
X82343Y39357D01*
X82276Y39456D01*
X82177Y39523D01*
X82060Y39546D01*
D02*
G37*
G36*
X66875Y39216D02*
X66758Y39193D01*
X66659Y39126D01*
X66592Y39027D01*
X66569Y38910D01*
X66592Y38793D01*
X66659Y38694D01*
X66758Y38627D01*
X66875Y38604D01*
X66992Y38627D01*
X67091Y38694D01*
X67158Y38793D01*
X67181Y38910D01*
X67158Y39027D01*
X67091Y39126D01*
X66992Y39193D01*
X66875Y39216D01*
D02*
G37*
G36*
X86835Y39631D02*
X86718Y39608D01*
X86619Y39541D01*
X86552Y39442D01*
X86529Y39325D01*
X86552Y39208D01*
X86619Y39109D01*
X86652Y39087D01*
Y38978D01*
X86619Y38956D01*
X86552Y38857D01*
X86529Y38740D01*
X86552Y38623D01*
X86619Y38524D01*
X86718Y38457D01*
X86835Y38434D01*
X86952Y38457D01*
X87051Y38524D01*
X87118Y38623D01*
X87141Y38740D01*
X87118Y38857D01*
X87051Y38956D01*
X87018Y38978D01*
Y39087D01*
X87051Y39109D01*
X87118Y39208D01*
X87141Y39325D01*
X87118Y39442D01*
X87051Y39541D01*
X86952Y39608D01*
X86835Y39631D01*
D02*
G37*
G36*
X82860Y39531D02*
X82743Y39508D01*
X82644Y39441D01*
X82577Y39342D01*
X82554Y39225D01*
X82577Y39108D01*
X82630Y39030D01*
X82638Y38970D01*
X82630Y38910D01*
X82577Y38832D01*
X82554Y38715D01*
X82577Y38597D01*
X82644Y38498D01*
X82743Y38432D01*
X82860Y38409D01*
X82977Y38432D01*
X83076Y38498D01*
X83143Y38597D01*
X83166Y38715D01*
X83143Y38832D01*
X83090Y38910D01*
X83082Y38970D01*
X83090Y39030D01*
X83143Y39108D01*
X83166Y39225D01*
X83143Y39342D01*
X83076Y39441D01*
X82977Y39508D01*
X82860Y39531D01*
D02*
G37*
G36*
X80150Y39006D02*
X80033Y38983D01*
X79934Y38916D01*
X79867Y38817D01*
X79844Y38700D01*
X79867Y38583D01*
X79934Y38484D01*
X80033Y38417D01*
X80150Y38394D01*
X80267Y38417D01*
X80366Y38484D01*
X80433Y38583D01*
X80456Y38700D01*
X80433Y38817D01*
X80366Y38916D01*
X80267Y38983D01*
X80150Y39006D01*
D02*
G37*
G36*
X88460Y38996D02*
X88343Y38973D01*
X88244Y38906D01*
X88177Y38807D01*
X88154Y38690D01*
X88177Y38573D01*
X88244Y38474D01*
X88343Y38407D01*
X88460Y38384D01*
X88577Y38407D01*
X88676Y38474D01*
X88743Y38573D01*
X88766Y38690D01*
X88743Y38807D01*
X88676Y38906D01*
X88577Y38973D01*
X88460Y38996D01*
D02*
G37*
G36*
X86085Y38946D02*
X85968Y38923D01*
X85869Y38856D01*
X85802Y38757D01*
X85779Y38640D01*
X85802Y38523D01*
X85869Y38424D01*
X85968Y38357D01*
X86085Y38334D01*
X86202Y38357D01*
X86301Y38424D01*
X86368Y38523D01*
X86391Y38640D01*
X86368Y38757D01*
X86301Y38856D01*
X86202Y38923D01*
X86085Y38946D01*
D02*
G37*
G36*
X84535Y38821D02*
X84418Y38798D01*
X84319Y38731D01*
X84252Y38632D01*
X84229Y38515D01*
X84252Y38398D01*
X84319Y38299D01*
X84418Y38232D01*
X84535Y38209D01*
X84652Y38232D01*
X84751Y38299D01*
X84818Y38398D01*
X84841Y38515D01*
X84818Y38632D01*
X84751Y38731D01*
X84652Y38798D01*
X84535Y38821D01*
D02*
G37*
G36*
X89260Y38321D02*
X89143Y38298D01*
X89044Y38231D01*
X88977Y38132D01*
X88954Y38015D01*
X88977Y37898D01*
X89044Y37799D01*
X89143Y37732D01*
X89260Y37709D01*
X89377Y37732D01*
X89476Y37799D01*
X89543Y37898D01*
X89566Y38015D01*
X89543Y38132D01*
X89476Y38231D01*
X89377Y38298D01*
X89260Y38321D01*
D02*
G37*
G36*
X67460Y38631D02*
X67343Y38608D01*
X67244Y38541D01*
X67177Y38442D01*
X67154Y38325D01*
X67177Y38208D01*
X67244Y38109D01*
X67343Y38042D01*
X67460Y38019D01*
X67577Y38042D01*
X67602Y38059D01*
X67681Y38003D01*
X67664Y37920D01*
X67687Y37803D01*
X67754Y37704D01*
X67853Y37637D01*
X67970Y37614D01*
X68087Y37637D01*
X68186Y37704D01*
X68253Y37803D01*
X68276Y37920D01*
X68253Y38037D01*
X68186Y38136D01*
X68087Y38203D01*
X67970Y38226D01*
X67853Y38203D01*
X67828Y38186D01*
X67749Y38242D01*
X67766Y38325D01*
X67743Y38442D01*
X67676Y38541D01*
X67577Y38608D01*
X67460Y38631D01*
D02*
G37*
G36*
X88460Y37646D02*
X88343Y37623D01*
X88244Y37556D01*
X88177Y37457D01*
X88154Y37340D01*
X88177Y37223D01*
X88244Y37124D01*
X88343Y37057D01*
X88460Y37034D01*
X88577Y37057D01*
X88676Y37124D01*
X88743Y37223D01*
X88766Y37340D01*
X88743Y37457D01*
X88676Y37556D01*
X88577Y37623D01*
X88460Y37646D01*
D02*
G37*
G36*
X85885Y37346D02*
X85768Y37323D01*
X85669Y37256D01*
X85602Y37157D01*
X85579Y37040D01*
X85602Y36923D01*
X85669Y36824D01*
X85768Y36757D01*
X85885Y36734D01*
X86002Y36757D01*
X86101Y36824D01*
X86168Y36923D01*
X86191Y37040D01*
X86168Y37157D01*
X86101Y37256D01*
X86002Y37323D01*
X85885Y37346D01*
D02*
G37*
G36*
X80410Y37326D02*
X80293Y37303D01*
X80194Y37236D01*
X80127Y37137D01*
X80104Y37020D01*
X80127Y36903D01*
X80194Y36804D01*
X80293Y36737D01*
X80410Y36714D01*
X80527Y36737D01*
X80626Y36804D01*
X80693Y36903D01*
X80716Y37020D01*
X80693Y37137D01*
X80626Y37236D01*
X80527Y37303D01*
X80410Y37326D01*
D02*
G37*
G36*
X84485Y37196D02*
X84368Y37173D01*
X84269Y37106D01*
X84202Y37007D01*
X84179Y36890D01*
X84202Y36773D01*
X84269Y36674D01*
X84368Y36607D01*
X84485Y36584D01*
X84602Y36607D01*
X84701Y36674D01*
X84768Y36773D01*
X84791Y36890D01*
X84768Y37007D01*
X84701Y37106D01*
X84602Y37173D01*
X84485Y37196D01*
D02*
G37*
G36*
X67960Y37131D02*
X67843Y37108D01*
X67744Y37041D01*
X67677Y36942D01*
X67654Y36825D01*
X67677Y36708D01*
X67744Y36609D01*
X67843Y36542D01*
X67960Y36519D01*
X68077Y36542D01*
X68176Y36609D01*
X68243Y36708D01*
X68266Y36825D01*
X68243Y36942D01*
X68176Y37041D01*
X68077Y37108D01*
X67960Y37131D01*
D02*
G37*
G36*
X68850Y36716D02*
X68733Y36693D01*
X68634Y36626D01*
X68567Y36527D01*
X68544Y36410D01*
X68567Y36293D01*
X68634Y36194D01*
X68733Y36127D01*
X68850Y36104D01*
X68967Y36127D01*
X69066Y36194D01*
X69133Y36293D01*
X69156Y36410D01*
X69133Y36527D01*
X69066Y36626D01*
X68967Y36693D01*
X68850Y36716D01*
D02*
G37*
G36*
X83635Y36481D02*
X83518Y36458D01*
X83419Y36391D01*
X83352Y36292D01*
X83329Y36175D01*
X83352Y36058D01*
X83419Y35959D01*
X83518Y35892D01*
X83635Y35869D01*
X83752Y35892D01*
X83851Y35959D01*
X83918Y36058D01*
X83941Y36175D01*
X83918Y36292D01*
X83851Y36391D01*
X83752Y36458D01*
X83635Y36481D01*
D02*
G37*
G36*
X81240Y36351D02*
X81123Y36328D01*
X81024Y36261D01*
X80957Y36162D01*
X80934Y36045D01*
X80957Y35928D01*
X81024Y35829D01*
X81123Y35762D01*
X81240Y35739D01*
X81357Y35762D01*
X81456Y35829D01*
X81523Y35928D01*
X81546Y36045D01*
X81523Y36162D01*
X81456Y36261D01*
X81357Y36328D01*
X81240Y36351D01*
D02*
G37*
G36*
X86835Y36287D02*
X86718Y36263D01*
X86618Y36197D01*
X86552Y36098D01*
X86529Y35981D01*
X86552Y35864D01*
X86618Y35765D01*
X86718Y35698D01*
X86835Y35675D01*
X86952Y35698D01*
X87051Y35765D01*
X87117Y35864D01*
X87141Y35981D01*
X87117Y36098D01*
X87051Y36197D01*
X86952Y36263D01*
X86835Y36287D01*
D02*
G37*
G36*
X86010Y34755D02*
X85893Y34732D01*
X85794Y34666D01*
X85727Y34567D01*
X85704Y34450D01*
X85727Y34332D01*
X85794Y34233D01*
X85893Y34167D01*
X86010Y34144D01*
X86127Y34167D01*
X86226Y34233D01*
X86293Y34332D01*
X86316Y34450D01*
X86293Y34567D01*
X86226Y34666D01*
X86127Y34732D01*
X86010Y34755D01*
D02*
G37*
G36*
X82830Y34505D02*
X82713Y34482D01*
X82614Y34416D01*
X82547Y34317D01*
X82524Y34200D01*
X82547Y34082D01*
X82614Y33983D01*
X82713Y33917D01*
X82830Y33894D01*
X82947Y33917D01*
X83046Y33983D01*
X83113Y34082D01*
X83136Y34200D01*
X83113Y34317D01*
X83046Y34416D01*
X82947Y34482D01*
X82830Y34505D01*
D02*
G37*
G36*
X69768Y34503D02*
X69651Y34480D01*
X69552Y34413D01*
X69485Y34314D01*
X69462Y34197D01*
X69485Y34080D01*
X69552Y33981D01*
X69651Y33914D01*
X69768Y33891D01*
X69885Y33914D01*
X69984Y33981D01*
X70051Y34080D01*
X70074Y34197D01*
X70051Y34314D01*
X69984Y34413D01*
X69885Y34480D01*
X69768Y34503D01*
D02*
G37*
G36*
X88060Y34320D02*
X87943Y34297D01*
X87844Y34231D01*
X87777Y34132D01*
X87754Y34015D01*
X87777Y33897D01*
X87844Y33798D01*
X87943Y33732D01*
X88060Y33709D01*
X88177Y33732D01*
X88276Y33798D01*
X88343Y33897D01*
X88366Y34015D01*
X88343Y34132D01*
X88276Y34231D01*
X88177Y34297D01*
X88060Y34320D01*
D02*
G37*
G36*
X36420Y43232D02*
X36283Y43205D01*
X36168Y43127D01*
X36090Y43012D01*
X36063Y42875D01*
X36090Y42738D01*
X36166Y42625D01*
X36090Y42512D01*
X36063Y42375D01*
X36090Y42238D01*
X36168Y42123D01*
X36283Y42045D01*
X36420Y42018D01*
X36557Y42045D01*
X36672Y42123D01*
X36750Y42238D01*
X36777Y42375D01*
X36750Y42512D01*
X36674Y42625D01*
X36750Y42738D01*
X36777Y42875D01*
X36750Y43012D01*
X36672Y43127D01*
X36557Y43205D01*
X36420Y43232D01*
D02*
G37*
G36*
X40104Y42757D02*
X39967Y42730D01*
X39852Y42653D01*
X39774Y42537D01*
X39747Y42401D01*
X39774Y42264D01*
X39850Y42150D01*
X39774Y42036D01*
X39747Y41900D01*
X39774Y41763D01*
X39852Y41647D01*
X39967Y41570D01*
X40104Y41543D01*
X40241Y41570D01*
X40356Y41647D01*
X40434Y41763D01*
X40461Y41900D01*
X40434Y42036D01*
X40358Y42150D01*
X40434Y42264D01*
X40461Y42401D01*
X40434Y42537D01*
X40356Y42653D01*
X40241Y42730D01*
X40104Y42757D01*
D02*
G37*
G36*
X38304D02*
X38167Y42730D01*
X38052Y42653D01*
X37974Y42537D01*
X37947Y42401D01*
X37974Y42264D01*
X38050Y42150D01*
X37974Y42036D01*
X37947Y41900D01*
X37974Y41763D01*
X38052Y41647D01*
X38167Y41570D01*
X38304Y41543D01*
X38441Y41570D01*
X38556Y41647D01*
X38634Y41763D01*
X38661Y41900D01*
X38634Y42036D01*
X38558Y42150D01*
X38634Y42264D01*
X38661Y42401D01*
X38634Y42537D01*
X38556Y42653D01*
X38441Y42730D01*
X38304Y42757D01*
D02*
G37*
G36*
X64625Y40449D02*
X64508Y40426D01*
X64409Y40359D01*
X64342Y40260D01*
X64319Y40143D01*
X64342Y40026D01*
X64409Y39927D01*
X64508Y39860D01*
X64625Y39837D01*
X64742Y39860D01*
X64841Y39927D01*
X64908Y40026D01*
X64931Y40143D01*
X64908Y40260D01*
X64841Y40359D01*
X64742Y40426D01*
X64625Y40449D01*
D02*
G37*
G36*
X62700Y40381D02*
X62583Y40358D01*
X62484Y40291D01*
X62417Y40192D01*
X62394Y40075D01*
X62417Y39958D01*
X62484Y39859D01*
X62583Y39792D01*
X62700Y39769D01*
X62817Y39792D01*
X62916Y39859D01*
X62983Y39958D01*
X63006Y40075D01*
X62983Y40192D01*
X62916Y40291D01*
X62817Y40358D01*
X62700Y40381D01*
D02*
G37*
G36*
X64198Y39881D02*
X64081Y39858D01*
X63982Y39791D01*
X63915Y39692D01*
X63892Y39575D01*
X63915Y39458D01*
X63982Y39359D01*
X64081Y39292D01*
X64198Y39269D01*
X64315Y39292D01*
X64414Y39359D01*
X64481Y39458D01*
X64504Y39575D01*
X64481Y39692D01*
X64414Y39791D01*
X64315Y39858D01*
X64198Y39881D01*
D02*
G37*
G36*
X64800Y38056D02*
X64683Y38033D01*
X64584Y37966D01*
X64517Y37867D01*
X64494Y37750D01*
X64497Y37733D01*
X64412Y37648D01*
X64375Y37656D01*
X64258Y37633D01*
X64159Y37566D01*
X64092Y37467D01*
X64069Y37350D01*
X64092Y37233D01*
X64159Y37134D01*
X64258Y37067D01*
X64375Y37044D01*
X64492Y37067D01*
X64591Y37134D01*
X64658Y37233D01*
X64681Y37350D01*
X64678Y37367D01*
X64763Y37452D01*
X64800Y37444D01*
X64917Y37467D01*
X65016Y37534D01*
X65083Y37633D01*
X65106Y37750D01*
X65083Y37867D01*
X65016Y37966D01*
X64917Y38033D01*
X64800Y38056D01*
D02*
G37*
G36*
X63900Y38231D02*
X63783Y38208D01*
X63684Y38141D01*
X63617Y38042D01*
X63594Y37925D01*
X63617Y37808D01*
X63684Y37709D01*
X63783Y37642D01*
X63900Y37619D01*
X64017Y37642D01*
X64116Y37709D01*
X64183Y37808D01*
X64206Y37925D01*
X64183Y38042D01*
X64116Y38141D01*
X64017Y38208D01*
X63900Y38231D01*
D02*
G37*
G36*
X62875Y38066D02*
X62758Y38043D01*
X62659Y37976D01*
X62592Y37877D01*
X62569Y37760D01*
X62592Y37643D01*
X62659Y37544D01*
X62758Y37477D01*
X62875Y37454D01*
X62992Y37477D01*
X63091Y37544D01*
X63158Y37643D01*
X63181Y37760D01*
X63158Y37877D01*
X63091Y37976D01*
X62992Y38043D01*
X62875Y38066D01*
D02*
G37*
G36*
X63385Y37571D02*
X63268Y37548D01*
X63169Y37481D01*
X63102Y37382D01*
X63079Y37265D01*
X63102Y37148D01*
X63169Y37049D01*
X63268Y36982D01*
X63385Y36959D01*
X63502Y36982D01*
X63601Y37049D01*
X63668Y37148D01*
X63691Y37265D01*
X63668Y37382D01*
X63601Y37481D01*
X63502Y37548D01*
X63385Y37571D01*
D02*
G37*
G36*
X62375Y37546D02*
X62258Y37523D01*
X62159Y37456D01*
X62092Y37357D01*
X62069Y37240D01*
X62092Y37123D01*
X62159Y37024D01*
X62258Y36957D01*
X62375Y36934D01*
X62492Y36957D01*
X62591Y37024D01*
X62658Y37123D01*
X62681Y37240D01*
X62658Y37357D01*
X62591Y37456D01*
X62492Y37523D01*
X62375Y37546D01*
D02*
G37*
G36*
X60841Y37160D02*
X60724Y37137D01*
X60625Y37070D01*
X60558Y36971D01*
X60535Y36854D01*
X60558Y36737D01*
X60625Y36638D01*
X60724Y36572D01*
X60841Y36548D01*
X60958Y36572D01*
X61057Y36638D01*
X61124Y36737D01*
X61147Y36854D01*
X61124Y36971D01*
X61057Y37070D01*
X60958Y37137D01*
X60841Y37160D01*
D02*
G37*
G36*
X64875Y37135D02*
X64758Y37112D01*
X64659Y37045D01*
X64592Y36946D01*
X64569Y36829D01*
X64592Y36712D01*
X64659Y36613D01*
X64758Y36546D01*
X64875Y36523D01*
X64992Y36546D01*
X65091Y36613D01*
X65158Y36712D01*
X65181Y36829D01*
X65158Y36946D01*
X65091Y37045D01*
X64992Y37112D01*
X64875Y37135D01*
D02*
G37*
G36*
X63900Y37081D02*
X63783Y37058D01*
X63684Y36991D01*
X63617Y36892D01*
X63594Y36775D01*
X63617Y36658D01*
X63684Y36559D01*
X63783Y36492D01*
X63900Y36469D01*
X64017Y36492D01*
X64116Y36559D01*
X64183Y36658D01*
X64206Y36775D01*
X64183Y36892D01*
X64116Y36991D01*
X64017Y37058D01*
X63900Y37081D01*
D02*
G37*
G36*
X62875Y37046D02*
X62758Y37023D01*
X62659Y36956D01*
X62592Y36857D01*
X62569Y36740D01*
X62592Y36623D01*
X62659Y36524D01*
X62758Y36457D01*
X62875Y36434D01*
X62992Y36457D01*
X63091Y36524D01*
X63158Y36623D01*
X63181Y36740D01*
X63158Y36857D01*
X63091Y36956D01*
X62992Y37023D01*
X62875Y37046D01*
D02*
G37*
G36*
X61875D02*
X61758Y37023D01*
X61659Y36956D01*
X61592Y36857D01*
X61569Y36740D01*
X61592Y36623D01*
X61659Y36524D01*
X61758Y36457D01*
X61875Y36434D01*
X61992Y36457D01*
X62091Y36524D01*
X62158Y36623D01*
X62181Y36740D01*
X62158Y36857D01*
X62091Y36956D01*
X61992Y37023D01*
X61875Y37046D01*
D02*
G37*
G36*
X64375Y36546D02*
X64258Y36523D01*
X64159Y36456D01*
X64092Y36357D01*
X64069Y36240D01*
X64092Y36123D01*
X64159Y36024D01*
X64258Y35957D01*
X64375Y35934D01*
X64492Y35957D01*
X64591Y36024D01*
X64658Y36123D01*
X64681Y36240D01*
X64658Y36357D01*
X64591Y36456D01*
X64492Y36523D01*
X64375Y36546D01*
D02*
G37*
G36*
X63375D02*
X63258Y36523D01*
X63159Y36456D01*
X63092Y36357D01*
X63069Y36240D01*
X63092Y36123D01*
X63159Y36024D01*
X63258Y35957D01*
X63375Y35934D01*
X63492Y35957D01*
X63591Y36024D01*
X63658Y36123D01*
X63681Y36240D01*
X63658Y36357D01*
X63591Y36456D01*
X63492Y36523D01*
X63375Y36546D01*
D02*
G37*
G36*
X62375D02*
X62258Y36523D01*
X62159Y36456D01*
X62092Y36357D01*
X62069Y36240D01*
X62092Y36123D01*
X62159Y36024D01*
X62258Y35957D01*
X62375Y35934D01*
X62492Y35957D01*
X62591Y36024D01*
X62658Y36123D01*
X62681Y36240D01*
X62658Y36357D01*
X62591Y36456D01*
X62492Y36523D01*
X62375Y36546D01*
D02*
G37*
G36*
X61300D02*
X61183Y36523D01*
X61084Y36456D01*
X61017Y36357D01*
X60994Y36240D01*
X61017Y36123D01*
X61084Y36024D01*
X61183Y35957D01*
X61300Y35934D01*
X61417Y35957D01*
X61516Y36024D01*
X61583Y36123D01*
X61606Y36240D01*
X61583Y36357D01*
X61516Y36456D01*
X61417Y36523D01*
X61300Y36546D01*
D02*
G37*
G36*
X55875Y35131D02*
X55758Y35108D01*
X55659Y35041D01*
X55592Y34942D01*
X55569Y34825D01*
X55592Y34708D01*
X55659Y34609D01*
X55758Y34542D01*
X55875Y34519D01*
X55992Y34542D01*
X56091Y34609D01*
X56158Y34708D01*
X56181Y34825D01*
X56158Y34942D01*
X56091Y35041D01*
X55992Y35108D01*
X55875Y35131D01*
D02*
G37*
G36*
X43902Y34961D02*
X43785Y34937D01*
X43685Y34871D01*
X43619Y34772D01*
X43596Y34655D01*
X43619Y34538D01*
X43685Y34439D01*
X43785Y34372D01*
X43902Y34349D01*
X44019Y34372D01*
X44118Y34439D01*
X44184Y34538D01*
X44208Y34655D01*
X44184Y34772D01*
X44118Y34871D01*
X44019Y34937D01*
X43902Y34961D01*
D02*
G37*
G36*
X55146Y34799D02*
X55029Y34776D01*
X54930Y34710D01*
X54864Y34611D01*
X54840Y34494D01*
X54864Y34377D01*
X54930Y34277D01*
X55029Y34211D01*
X55146Y34188D01*
X55263Y34211D01*
X55363Y34277D01*
X55429Y34377D01*
X55452Y34494D01*
X55429Y34611D01*
X55363Y34710D01*
X55263Y34776D01*
X55146Y34799D01*
D02*
G37*
G36*
X47125Y34807D02*
X46979Y34778D01*
X46855Y34695D01*
X46772Y34571D01*
X46743Y34425D01*
X46772Y34279D01*
X46855Y34155D01*
X46979Y34072D01*
X47125Y34043D01*
X47272Y34072D01*
X47396Y34155D01*
X47479Y34279D01*
X47508Y34425D01*
X47479Y34571D01*
X47396Y34695D01*
X47272Y34778D01*
X47125Y34807D01*
D02*
G37*
G36*
X58816Y34519D02*
X58699Y34496D01*
X58600Y34429D01*
X58533Y34330D01*
X58510Y34213D01*
X58533Y34096D01*
X58600Y33997D01*
X58699Y33930D01*
X58816Y33907D01*
X58933Y33930D01*
X59032Y33997D01*
X59099Y34096D01*
X59122Y34213D01*
X59099Y34330D01*
X59032Y34429D01*
X58933Y34496D01*
X58816Y34519D01*
D02*
G37*
G36*
X51631Y34257D02*
X51485Y34228D01*
X51361Y34145D01*
X51278Y34021D01*
X51249Y33875D01*
X51278Y33729D01*
X51361Y33605D01*
X51485Y33522D01*
X51631Y33493D01*
X51777Y33522D01*
X51901Y33605D01*
X51984Y33729D01*
X52013Y33875D01*
X51984Y34021D01*
X51901Y34145D01*
X51777Y34228D01*
X51631Y34257D01*
D02*
G37*
G36*
X50389Y34251D02*
X50242Y34222D01*
X50118Y34139D01*
X50035Y34015D01*
X50006Y33869D01*
X50035Y33723D01*
X50118Y33599D01*
X50242Y33516D01*
X50389Y33487D01*
X50535Y33516D01*
X50659Y33599D01*
X50742Y33723D01*
X50771Y33869D01*
X50742Y34015D01*
X50659Y34139D01*
X50535Y34222D01*
X50389Y34251D01*
D02*
G37*
G36*
X48200Y34802D02*
X48054Y34773D01*
X47930Y34690D01*
X47847Y34566D01*
X47818Y34420D01*
X47847Y34274D01*
X47930Y34150D01*
X48054Y34067D01*
X48200Y34038D01*
X48347Y34067D01*
X48401Y34103D01*
X48473Y34031D01*
X48453Y34001D01*
X48424Y33855D01*
X48453Y33709D01*
X48536Y33585D01*
X48660Y33502D01*
X48806Y33473D01*
X48953Y33502D01*
X49077Y33585D01*
X49091Y33605D01*
X49191D01*
X49204Y33585D01*
X49328Y33502D01*
X49475Y33473D01*
X49621Y33502D01*
X49745Y33585D01*
X49828Y33709D01*
X49857Y33855D01*
X49828Y34001D01*
X49745Y34125D01*
X49621Y34208D01*
X49475Y34237D01*
X49328Y34208D01*
X49204Y34125D01*
X49191Y34105D01*
X49091D01*
X49077Y34125D01*
X48953Y34208D01*
X48806Y34237D01*
X48660Y34208D01*
X48606Y34172D01*
X48534Y34244D01*
X48554Y34274D01*
X48583Y34420D01*
X48554Y34566D01*
X48471Y34690D01*
X48347Y34773D01*
X48200Y34802D01*
D02*
G37*
G36*
X60973Y33907D02*
X60856Y33884D01*
X60757Y33818D01*
X60691Y33718D01*
X60668Y33601D01*
X60691Y33484D01*
X60757Y33385D01*
X60856Y33319D01*
X60973Y33295D01*
X61091Y33319D01*
X61190Y33385D01*
X61256Y33484D01*
X61279Y33601D01*
X61256Y33718D01*
X61190Y33818D01*
X61091Y33884D01*
X60973Y33907D01*
D02*
G37*
G36*
X47112Y33928D02*
X46966Y33899D01*
X46842Y33816D01*
X46759Y33692D01*
X46730Y33546D01*
X46759Y33399D01*
X46842Y33275D01*
X46966Y33193D01*
X47112Y33163D01*
X47259Y33193D01*
X47383Y33275D01*
X47466Y33399D01*
X47495Y33546D01*
X47466Y33692D01*
X47383Y33816D01*
X47259Y33899D01*
X47112Y33928D01*
D02*
G37*
G36*
X43900Y33306D02*
X43783Y33283D01*
X43684Y33216D01*
X43618Y33117D01*
X43595Y33000D01*
X43618Y32883D01*
X43684Y32784D01*
X43783Y32717D01*
X43900Y32694D01*
X44017Y32717D01*
X44117Y32784D01*
X44183Y32883D01*
X44206Y33000D01*
X44183Y33117D01*
X44117Y33216D01*
X44017Y33283D01*
X43900Y33306D01*
D02*
G37*
G36*
X53329Y33338D02*
X53183Y33309D01*
X53059Y33226D01*
X52976Y33102D01*
X52947Y32955D01*
X52976Y32809D01*
X53059Y32685D01*
X53183Y32602D01*
X53329Y32573D01*
X53476Y32602D01*
X53600Y32685D01*
X53683Y32809D01*
X53712Y32955D01*
X53683Y33102D01*
X53600Y33226D01*
X53476Y33309D01*
X53329Y33338D01*
D02*
G37*
G36*
X60956Y33070D02*
X60839Y33047D01*
X60740Y32981D01*
X60674Y32882D01*
X60650Y32765D01*
X60674Y32647D01*
X60740Y32548D01*
X60715Y32452D01*
X60624Y32420D01*
X60525Y32486D01*
X60408Y32510D01*
X60291Y32486D01*
X60192Y32420D01*
X60125Y32321D01*
X60102Y32204D01*
X60125Y32087D01*
X60192Y31987D01*
X60291Y31921D01*
X60408Y31898D01*
X60525Y31921D01*
X60624Y31987D01*
X60636Y32005D01*
X60736D01*
X60744Y31993D01*
X60843Y31927D01*
X60960Y31904D01*
X61077Y31927D01*
X61176Y31993D01*
X61243Y32092D01*
X61266Y32210D01*
X61243Y32327D01*
X61176Y32426D01*
X61158Y32438D01*
Y32538D01*
X61173Y32548D01*
X61239Y32647D01*
X61262Y32765D01*
X61239Y32882D01*
X61173Y32981D01*
X61073Y33047D01*
X60956Y33070D01*
D02*
G37*
G36*
X56956Y32815D02*
X56839Y32792D01*
X56740Y32726D01*
X56674Y32627D01*
X56650Y32510D01*
X56674Y32392D01*
X56740Y32293D01*
X56839Y32227D01*
X56956Y32204D01*
X57073Y32227D01*
X57173Y32293D01*
X57239Y32392D01*
X57262Y32510D01*
X57239Y32627D01*
X57173Y32726D01*
X57073Y32792D01*
X56956Y32815D01*
D02*
G37*
G36*
X57275Y32106D02*
X57158Y32083D01*
X57059Y32016D01*
X56992Y31917D01*
X56969Y31800D01*
X56992Y31683D01*
X57059Y31584D01*
X57158Y31517D01*
X57275Y31494D01*
X57392Y31517D01*
X57491Y31584D01*
X57558Y31683D01*
X57581Y31800D01*
X57558Y31917D01*
X57491Y32016D01*
X57392Y32083D01*
X57275Y32106D01*
D02*
G37*
G36*
X42551Y31938D02*
X42434Y31915D01*
X42335Y31849D01*
X42268Y31750D01*
X42245Y31633D01*
X42268Y31516D01*
X42335Y31416D01*
X42434Y31350D01*
X42551Y31327D01*
X42668Y31350D01*
X42767Y31416D01*
X42834Y31516D01*
X42857Y31633D01*
X42834Y31750D01*
X42767Y31849D01*
X42668Y31915D01*
X42551Y31938D01*
D02*
G37*
G36*
X51000Y31892D02*
X50883Y31869D01*
X50784Y31803D01*
X50717Y31703D01*
X50694Y31586D01*
X50717Y31469D01*
X50784Y31370D01*
X50883Y31304D01*
X51000Y31280D01*
X51117Y31304D01*
X51216Y31370D01*
X51283Y31469D01*
X51306Y31586D01*
X51283Y31703D01*
X51216Y31803D01*
X51117Y31869D01*
X51000Y31892D01*
D02*
G37*
G36*
X48075Y31856D02*
X47958Y31833D01*
X47859Y31766D01*
X47793Y31667D01*
X47770Y31550D01*
X47793Y31433D01*
X47859Y31334D01*
X47958Y31267D01*
X48075Y31244D01*
X48192Y31267D01*
X48292Y31334D01*
X48358Y31433D01*
X48381Y31550D01*
X48358Y31667D01*
X48292Y31766D01*
X48192Y31833D01*
X48075Y31856D01*
D02*
G37*
G36*
X49725Y31982D02*
X49579Y31953D01*
X49455Y31870D01*
X49372Y31746D01*
X49343Y31600D01*
X49372Y31454D01*
X49455Y31330D01*
X49579Y31247D01*
X49725Y31218D01*
X49872Y31247D01*
X49996Y31330D01*
X50079Y31454D01*
X50108Y31600D01*
X50079Y31746D01*
X49996Y31870D01*
X49872Y31953D01*
X49725Y31982D01*
D02*
G37*
G36*
X60960Y31481D02*
X60843Y31458D01*
X60744Y31391D01*
X60677Y31292D01*
X60654Y31175D01*
X60677Y31058D01*
X60744Y30959D01*
X60843Y30892D01*
X60960Y30869D01*
X61077Y30892D01*
X61176Y30959D01*
X61243Y31058D01*
X61266Y31175D01*
X61243Y31292D01*
X61176Y31391D01*
X61077Y31458D01*
X60960Y31481D01*
D02*
G37*
G36*
X59781D02*
X59664Y31458D01*
X59565Y31391D01*
X59498Y31292D01*
X59475Y31175D01*
X59498Y31058D01*
X59565Y30959D01*
X59664Y30892D01*
X59781Y30869D01*
X59898Y30892D01*
X59997Y30959D01*
X60064Y31058D01*
X60087Y31175D01*
X60064Y31292D01*
X59997Y31391D01*
X59898Y31458D01*
X59781Y31481D01*
D02*
G37*
G36*
X57271Y31288D02*
X57154Y31265D01*
X57055Y31199D01*
X56989Y31100D01*
X56966Y30982D01*
X56989Y30865D01*
X57055Y30766D01*
X57154Y30700D01*
X57271Y30677D01*
X57389Y30700D01*
X57488Y30766D01*
X57554Y30865D01*
X57577Y30982D01*
X57554Y31100D01*
X57488Y31199D01*
X57389Y31265D01*
X57271Y31288D01*
D02*
G37*
G36*
X56293Y31375D02*
X56147Y31346D01*
X56023Y31263D01*
X55940Y31139D01*
X55911Y30993D01*
X55940Y30846D01*
X56023Y30722D01*
X56147Y30640D01*
X56293Y30610D01*
X56440Y30640D01*
X56564Y30722D01*
X56647Y30846D01*
X56676Y30993D01*
X56647Y31139D01*
X56564Y31263D01*
X56440Y31346D01*
X56293Y31375D01*
D02*
G37*
G36*
X49889Y40172D02*
X49772Y40149D01*
X49673Y40083D01*
X49574D01*
X49475Y40149D01*
X49358Y40172D01*
X49241Y40149D01*
X49141Y40083D01*
X49075Y39983D01*
X49052Y39866D01*
X49075Y39749D01*
X49141Y39650D01*
X49241Y39584D01*
X49358Y39560D01*
X49475Y39584D01*
X49574Y39650D01*
X49673D01*
X49772Y39584D01*
X49889Y39560D01*
X50006Y39584D01*
X50105Y39650D01*
X50172Y39749D01*
X50195Y39866D01*
X50172Y39983D01*
X50105Y40083D01*
X50006Y40149D01*
X49889Y40172D01*
D02*
G37*
G36*
X54436Y40383D02*
X54319Y40360D01*
X54220Y40293D01*
X54154Y40194D01*
X54130Y40077D01*
X54154Y39960D01*
X54220Y39861D01*
X54319Y39795D01*
X54436Y39771D01*
X54553Y39795D01*
X54653Y39861D01*
X54719Y39960D01*
X54742Y40077D01*
X54719Y40194D01*
X54653Y40293D01*
X54553Y40360D01*
X54436Y40383D01*
D02*
G37*
G36*
X55458Y40376D02*
X55341Y40353D01*
X55242Y40286D01*
X55176Y40187D01*
X55152Y40070D01*
X55176Y39953D01*
X55242Y39854D01*
X55341Y39787D01*
X55458Y39764D01*
X55575Y39787D01*
X55674Y39854D01*
X55741Y39953D01*
X55764Y40070D01*
X55741Y40187D01*
X55674Y40286D01*
X55575Y40353D01*
X55458Y40376D01*
D02*
G37*
G36*
X58875Y40216D02*
X58758Y40193D01*
X58659Y40126D01*
X58592Y40027D01*
X58569Y39910D01*
X58592Y39793D01*
X58659Y39694D01*
X58758Y39627D01*
X58875Y39604D01*
X58992Y39627D01*
X59091Y39694D01*
X59158Y39793D01*
X59181Y39910D01*
X59158Y40027D01*
X59091Y40126D01*
X58992Y40193D01*
X58875Y40216D01*
D02*
G37*
G36*
X57790Y40181D02*
X57673Y40158D01*
X57574Y40091D01*
X57507Y39992D01*
X57484Y39875D01*
X57507Y39758D01*
X57574Y39659D01*
X57673Y39592D01*
X57790Y39569D01*
X57907Y39592D01*
X58006Y39659D01*
X58073Y39758D01*
X58096Y39875D01*
X58073Y39992D01*
X58006Y40091D01*
X57907Y40158D01*
X57790Y40181D01*
D02*
G37*
G36*
X59345Y39661D02*
X59228Y39638D01*
X59129Y39571D01*
X59062Y39472D01*
X59039Y39355D01*
X59062Y39238D01*
X59129Y39139D01*
X59228Y39072D01*
X59345Y39049D01*
X59462Y39072D01*
X59561Y39139D01*
X59628Y39238D01*
X59651Y39355D01*
X59628Y39472D01*
X59561Y39571D01*
X59462Y39638D01*
X59345Y39661D01*
D02*
G37*
G36*
X58325D02*
X58208Y39638D01*
X58109Y39571D01*
X58042Y39472D01*
X58019Y39355D01*
X58042Y39238D01*
X58109Y39139D01*
X58208Y39072D01*
X58325Y39049D01*
X58442Y39072D01*
X58541Y39139D01*
X58608Y39238D01*
X58631Y39355D01*
X58608Y39472D01*
X58541Y39571D01*
X58442Y39638D01*
X58325Y39661D01*
D02*
G37*
G36*
X50050Y38860D02*
X49933Y38837D01*
X49834Y38770D01*
X49822Y38754D01*
X49702D01*
X49691Y38770D01*
X49592Y38837D01*
X49475Y38860D01*
X49358Y38837D01*
X49258Y38770D01*
X49192Y38671D01*
X49169Y38554D01*
X49192Y38437D01*
X49258Y38338D01*
X49358Y38271D01*
X49475Y38248D01*
X49592Y38271D01*
X49691Y38338D01*
X49702Y38355D01*
X49822D01*
X49834Y38338D01*
X49933Y38271D01*
X50050Y38248D01*
X50167Y38271D01*
X50266Y38338D01*
X50333Y38437D01*
X50356Y38554D01*
X50333Y38671D01*
X50266Y38770D01*
X50167Y38837D01*
X50050Y38860D01*
D02*
G37*
G36*
X57790Y39156D02*
X57673Y39133D01*
X57574Y39066D01*
X57507Y38967D01*
X57484Y38850D01*
X57507Y38733D01*
X57574Y38634D01*
X57673Y38567D01*
X57790Y38544D01*
X57907Y38567D01*
X58006Y38634D01*
X58073Y38733D01*
X58096Y38850D01*
X58073Y38967D01*
X58006Y39066D01*
X57907Y39133D01*
X57790Y39156D01*
D02*
G37*
G36*
X58925Y39081D02*
X58808Y39058D01*
X58709Y38991D01*
X58642Y38892D01*
X58619Y38775D01*
X58642Y38658D01*
X58709Y38559D01*
X58808Y38492D01*
X58925Y38469D01*
X59042Y38492D01*
X59141Y38559D01*
X59208Y38658D01*
X59231Y38775D01*
X59208Y38892D01*
X59141Y38991D01*
X59042Y39058D01*
X58925Y39081D01*
D02*
G37*
G36*
X54932Y39050D02*
X54815Y39026D01*
X54716Y38960D01*
X54650Y38861D01*
X54626Y38744D01*
X54650Y38627D01*
X54716Y38527D01*
X54815Y38461D01*
X54932Y38438D01*
X55049Y38461D01*
X55148Y38527D01*
X55215Y38627D01*
X55238Y38744D01*
X55215Y38861D01*
X55148Y38960D01*
X55049Y39026D01*
X54932Y39050D01*
D02*
G37*
G36*
X45800Y38431D02*
X45683Y38408D01*
X45620Y38366D01*
X45550Y38349D01*
X45480Y38366D01*
X45417Y38408D01*
X45300Y38431D01*
X45183Y38408D01*
X45120Y38366D01*
X45050Y38349D01*
X44980Y38366D01*
X44917Y38408D01*
X44800Y38431D01*
X44683Y38408D01*
X44584Y38341D01*
X44517Y38242D01*
X44494Y38125D01*
X44517Y38008D01*
X44584Y37909D01*
X44683Y37842D01*
X44800Y37819D01*
X44917Y37842D01*
X44980Y37884D01*
X45050Y37901D01*
X45120Y37884D01*
X45183Y37842D01*
X45300Y37819D01*
X45417Y37842D01*
X45480Y37884D01*
X45550Y37901D01*
X45620Y37884D01*
X45683Y37842D01*
X45800Y37819D01*
X45917Y37842D01*
X46016Y37909D01*
X46083Y38008D01*
X46106Y38125D01*
X46083Y38242D01*
X46016Y38341D01*
X45917Y38408D01*
X45800Y38431D01*
D02*
G37*
G36*
X52850Y38781D02*
X52733Y38758D01*
X52634Y38691D01*
X52567Y38592D01*
X52544Y38475D01*
X52567Y38358D01*
X52634Y38259D01*
X52733Y38192D01*
X52850Y38169D01*
X52967Y38192D01*
X53066Y38259D01*
X53133Y38358D01*
X53156Y38475D01*
X53133Y38592D01*
X53066Y38691D01*
X52967Y38758D01*
X52850Y38781D01*
D02*
G37*
G36*
X59475Y38631D02*
X59358Y38608D01*
X59259Y38541D01*
X59192Y38442D01*
X59169Y38325D01*
X59192Y38208D01*
X59259Y38109D01*
X59358Y38042D01*
X59475Y38019D01*
X59592Y38042D01*
X59691Y38109D01*
X59758Y38208D01*
X59781Y38325D01*
X59758Y38442D01*
X59691Y38541D01*
X59592Y38608D01*
X59475Y38631D01*
D02*
G37*
G36*
X58349Y38621D02*
X58232Y38598D01*
X58133Y38531D01*
X58066Y38432D01*
X58043Y38315D01*
X58066Y38198D01*
X58133Y38099D01*
X58232Y38032D01*
X58349Y38009D01*
X58466Y38032D01*
X58565Y38099D01*
X58632Y38198D01*
X58655Y38315D01*
X58632Y38432D01*
X58565Y38531D01*
X58466Y38598D01*
X58349Y38621D01*
D02*
G37*
G36*
X55550Y38391D02*
X55433Y38368D01*
X55334Y38302D01*
X55267Y38203D01*
X55244Y38085D01*
X55267Y37968D01*
X55334Y37869D01*
X55433Y37803D01*
X55550Y37780D01*
X55667Y37803D01*
X55766Y37869D01*
X55833Y37968D01*
X55856Y38085D01*
X55833Y38203D01*
X55766Y38302D01*
X55667Y38368D01*
X55550Y38391D01*
D02*
G37*
G36*
X48805Y38367D02*
X48688Y38343D01*
X48588Y38277D01*
X48522Y38178D01*
X48499Y38061D01*
X48522Y37944D01*
X48588Y37845D01*
X48688Y37778D01*
X48805Y37755D01*
X48922Y37778D01*
X49021Y37845D01*
X49087Y37944D01*
X49111Y38061D01*
X49087Y38178D01*
X49021Y38277D01*
X48922Y38343D01*
X48805Y38367D01*
D02*
G37*
G36*
X57825Y38106D02*
X57708Y38083D01*
X57609Y38016D01*
X57542Y37917D01*
X57519Y37800D01*
X57542Y37683D01*
X57609Y37584D01*
X57708Y37517D01*
X57825Y37494D01*
X57942Y37517D01*
X58041Y37584D01*
X58108Y37683D01*
X58131Y37800D01*
X58108Y37917D01*
X58041Y38016D01*
X57942Y38083D01*
X57825Y38106D01*
D02*
G37*
G36*
X58939Y38076D02*
X58822Y38052D01*
X58723Y37986D01*
X58657Y37887D01*
X58634Y37770D01*
X58657Y37653D01*
X58723Y37554D01*
X58822Y37487D01*
X58939Y37464D01*
X59056Y37487D01*
X59156Y37554D01*
X59222Y37653D01*
X59245Y37770D01*
X59222Y37887D01*
X59156Y37986D01*
X59056Y38052D01*
X58939Y38076D01*
D02*
G37*
G36*
X44400Y37426D02*
X44283Y37403D01*
X44220Y37361D01*
X44150Y37344D01*
X44080Y37361D01*
X44017Y37403D01*
X43900Y37426D01*
X43783Y37403D01*
X43684Y37336D01*
X43617Y37237D01*
X43594Y37120D01*
X43617Y37003D01*
X43684Y36904D01*
X43783Y36837D01*
X43900Y36814D01*
X44017Y36837D01*
X44080Y36879D01*
X44150Y36896D01*
X44220Y36879D01*
X44283Y36837D01*
X44400Y36814D01*
X44517Y36837D01*
X44616Y36904D01*
X44683Y37003D01*
X44706Y37120D01*
X44683Y37237D01*
X44616Y37336D01*
X44517Y37403D01*
X44400Y37426D01*
D02*
G37*
G36*
X58375Y37656D02*
X58258Y37633D01*
X58159Y37566D01*
X58092Y37467D01*
X58069Y37350D01*
X58092Y37233D01*
X58159Y37134D01*
X58258Y37067D01*
X58375Y37044D01*
X58492Y37067D01*
X58591Y37134D01*
X58658Y37233D01*
X58681Y37350D01*
X58658Y37467D01*
X58591Y37566D01*
X58492Y37633D01*
X58375Y37656D01*
D02*
G37*
G36*
X46875Y37131D02*
X46758Y37108D01*
X46659Y37041D01*
X46650Y37028D01*
X46550D01*
X46541Y37041D01*
X46442Y37108D01*
X46325Y37131D01*
X46208Y37108D01*
X46145Y37066D01*
X46075Y37049D01*
X46005Y37066D01*
X45942Y37108D01*
X45825Y37131D01*
X45708Y37108D01*
X45609Y37041D01*
X45542Y36942D01*
X45519Y36825D01*
X45542Y36708D01*
X45609Y36609D01*
X45708Y36542D01*
X45825Y36519D01*
X45942Y36542D01*
X46005Y36584D01*
X46075Y36601D01*
X46145Y36584D01*
X46208Y36542D01*
X46325Y36519D01*
X46442Y36542D01*
X46541Y36609D01*
X46550Y36622D01*
X46650D01*
X46659Y36609D01*
X46758Y36542D01*
X46875Y36519D01*
X46992Y36542D01*
X47091Y36609D01*
X47158Y36708D01*
X47181Y36825D01*
X47158Y36942D01*
X47091Y37041D01*
X46992Y37108D01*
X46875Y37131D01*
D02*
G37*
G36*
X57872Y37046D02*
X57755Y37023D01*
X57656Y36956D01*
X57590Y36857D01*
X57566Y36740D01*
X57590Y36623D01*
X57656Y36524D01*
X57755Y36457D01*
X57872Y36434D01*
X57989Y36457D01*
X58089Y36524D01*
X58155Y36623D01*
X58178Y36740D01*
X58155Y36857D01*
X58089Y36956D01*
X57989Y37023D01*
X57872Y37046D01*
D02*
G37*
G36*
X43902Y36611D02*
X43785Y36587D01*
X43685Y36521D01*
X43619Y36422D01*
X43596Y36305D01*
X43619Y36188D01*
X43685Y36089D01*
X43785Y36022D01*
X43902Y35999D01*
X44019Y36022D01*
X44118Y36089D01*
X44184Y36188D01*
X44208Y36305D01*
X44184Y36422D01*
X44118Y36521D01*
X44019Y36587D01*
X43902Y36611D01*
D02*
G37*
G36*
X47625Y36682D02*
X47479Y36653D01*
X47355Y36570D01*
X47272Y36446D01*
X47243Y36300D01*
X47272Y36154D01*
X47355Y36030D01*
X47479Y35947D01*
X47625Y35918D01*
X47772Y35947D01*
X47896Y36030D01*
X47979Y36154D01*
X48008Y36300D01*
X47979Y36446D01*
X47896Y36570D01*
X47772Y36653D01*
X47625Y36682D01*
D02*
G37*
G36*
X18920Y48640D02*
X18780D01*
X18652Y48587D01*
X18553Y48488D01*
X18500Y48360D01*
Y48220D01*
X18553Y48092D01*
X18652Y47993D01*
X18780Y47940D01*
X18920D01*
X19048Y47993D01*
X19147Y48092D01*
X19200Y48220D01*
Y48360D01*
X19147Y48488D01*
X19048Y48587D01*
X18920Y48640D01*
D02*
G37*
G36*
X31740Y48050D02*
X31600D01*
X31472Y47997D01*
X31373Y47898D01*
X31320Y47770D01*
Y47630D01*
X31373Y47502D01*
X31472Y47403D01*
X31600Y47350D01*
X31740D01*
X31868Y47403D01*
X31967Y47502D01*
X32020Y47630D01*
Y47770D01*
X31967Y47898D01*
X31868Y47997D01*
X31740Y48050D01*
D02*
G37*
G36*
X25395Y47325D02*
X25255D01*
X25127Y47272D01*
X25083Y47228D01*
X25000Y47187D01*
X24917Y47228D01*
X24873Y47272D01*
X24745Y47325D01*
X24605D01*
X24477Y47272D01*
X24378Y47173D01*
X24325Y47045D01*
Y46905D01*
X24378Y46777D01*
X24477Y46678D01*
X24605Y46625D01*
X24745D01*
X24873Y46678D01*
X24917Y46722D01*
X25000Y46763D01*
X25083Y46722D01*
X25127Y46678D01*
X25255Y46625D01*
X25395D01*
X25523Y46678D01*
X25622Y46777D01*
X25675Y46905D01*
Y47045D01*
X25622Y47173D01*
X25523Y47272D01*
X25395Y47325D01*
D02*
G37*
G36*
X32240Y47280D02*
X32100D01*
X31972Y47227D01*
X31873Y47128D01*
X31820Y47000D01*
Y46860D01*
X31873Y46732D01*
X31972Y46633D01*
X32100Y46580D01*
X32240D01*
X32368Y46633D01*
X32467Y46732D01*
X32520Y46860D01*
Y47000D01*
X32467Y47128D01*
X32368Y47227D01*
X32240Y47280D01*
D02*
G37*
G36*
X30220Y45800D02*
X30080D01*
X29952Y45747D01*
X29853Y45648D01*
X29800Y45520D01*
Y45380D01*
X29853Y45252D01*
X29952Y45153D01*
X30080Y45100D01*
X30220D01*
X30348Y45153D01*
X30447Y45252D01*
X30500Y45380D01*
Y45520D01*
X30447Y45648D01*
X30348Y45747D01*
X30220Y45800D01*
D02*
G37*
G36*
X28570D02*
X28430D01*
X28302Y45747D01*
X28203Y45648D01*
X28150Y45520D01*
Y45380D01*
X28203Y45252D01*
X28302Y45153D01*
X28430Y45100D01*
X28570D01*
X28698Y45153D01*
X28797Y45252D01*
X28850Y45380D01*
Y45520D01*
X28797Y45648D01*
X28698Y45747D01*
X28570Y45800D01*
D02*
G37*
G36*
X26920D02*
X26780D01*
X26652Y45747D01*
X26553Y45648D01*
X26500Y45520D01*
Y45380D01*
X26553Y45252D01*
X26652Y45153D01*
X26780Y45100D01*
X26920D01*
X27048Y45153D01*
X27147Y45252D01*
X27200Y45380D01*
Y45520D01*
X27147Y45648D01*
X27048Y45747D01*
X26920Y45800D01*
D02*
G37*
G36*
X17465Y45140D02*
X17325D01*
X17197Y45087D01*
X17098Y44988D01*
X17045Y44860D01*
Y44720D01*
X17098Y44592D01*
X17197Y44493D01*
X17325Y44440D01*
X17465D01*
X17593Y44493D01*
X17692Y44592D01*
X17745Y44720D01*
Y44860D01*
X17692Y44988D01*
X17593Y45087D01*
X17465Y45140D01*
D02*
G37*
G36*
X29395Y44975D02*
X29255D01*
X29127Y44922D01*
X29028Y44823D01*
X28975Y44695D01*
Y44555D01*
X29028Y44427D01*
X29127Y44328D01*
X29255Y44275D01*
X29395D01*
X29523Y44328D01*
X29622Y44427D01*
X29675Y44555D01*
Y44695D01*
X29622Y44823D01*
X29523Y44922D01*
X29395Y44975D01*
D02*
G37*
G36*
X27745D02*
X27605D01*
X27477Y44922D01*
X27378Y44823D01*
X27325Y44695D01*
Y44555D01*
X27378Y44427D01*
X27477Y44328D01*
X27605Y44275D01*
X27745D01*
X27873Y44328D01*
X27972Y44427D01*
X28025Y44555D01*
Y44695D01*
X27972Y44823D01*
X27873Y44922D01*
X27745Y44975D01*
D02*
G37*
G36*
X23078D02*
X22938D01*
X22810Y44922D01*
X22711Y44823D01*
X22658Y44695D01*
Y44555D01*
X22711Y44427D01*
X22810Y44328D01*
X22938Y44275D01*
X23078D01*
X23206Y44328D01*
X23305Y44427D01*
X23358Y44555D01*
Y44695D01*
X23305Y44823D01*
X23206Y44922D01*
X23078Y44975D01*
D02*
G37*
G36*
X33350Y44225D02*
X33210D01*
X33082Y44172D01*
X32983Y44073D01*
X32930Y43945D01*
Y43805D01*
X32983Y43677D01*
X33082Y43578D01*
X33210Y43525D01*
X33350D01*
X33478Y43578D01*
X33577Y43677D01*
X33630Y43805D01*
Y43945D01*
X33577Y44073D01*
X33478Y44172D01*
X33350Y44225D01*
D02*
G37*
G36*
X30220Y44150D02*
X30080D01*
X29952Y44097D01*
X29853Y43998D01*
X29800Y43870D01*
Y43730D01*
X29853Y43602D01*
X29952Y43503D01*
X30080Y43450D01*
X30220D01*
X30348Y43503D01*
X30447Y43602D01*
X30500Y43730D01*
Y43870D01*
X30447Y43998D01*
X30348Y44097D01*
X30220Y44150D01*
D02*
G37*
G36*
X28570D02*
X28430D01*
X28302Y44097D01*
X28203Y43998D01*
X28150Y43870D01*
Y43730D01*
X28203Y43602D01*
X28302Y43503D01*
X28430Y43450D01*
X28570D01*
X28698Y43503D01*
X28797Y43602D01*
X28850Y43730D01*
Y43870D01*
X28797Y43998D01*
X28698Y44097D01*
X28570Y44150D01*
D02*
G37*
G36*
X26920D02*
X26780D01*
X26652Y44097D01*
X26553Y43998D01*
X26500Y43870D01*
Y43730D01*
X26553Y43602D01*
X26652Y43503D01*
X26780Y43450D01*
X26920D01*
X27048Y43503D01*
X27147Y43602D01*
X27200Y43730D01*
Y43870D01*
X27147Y43998D01*
X27048Y44097D01*
X26920Y44150D01*
D02*
G37*
G36*
X29395Y43325D02*
X29255D01*
X29127Y43272D01*
X29028Y43173D01*
X28975Y43045D01*
Y42905D01*
X29028Y42777D01*
X29127Y42678D01*
X29255Y42625D01*
X29395D01*
X29523Y42678D01*
X29622Y42777D01*
X29675Y42905D01*
Y43045D01*
X29622Y43173D01*
X29523Y43272D01*
X29395Y43325D01*
D02*
G37*
G36*
X27745D02*
X27605D01*
X27477Y43272D01*
X27378Y43173D01*
X27325Y43045D01*
Y42905D01*
X27378Y42777D01*
X27477Y42678D01*
X27605Y42625D01*
X27745D01*
X27873Y42678D01*
X27972Y42777D01*
X28025Y42905D01*
Y43045D01*
X27972Y43173D01*
X27873Y43272D01*
X27745Y43325D01*
D02*
G37*
G36*
X24257Y42912D02*
X24118D01*
X23989Y42859D01*
X23891Y42761D01*
X23837Y42632D01*
Y42493D01*
X23891Y42364D01*
X23989Y42266D01*
X24118Y42213D01*
X24257D01*
X24386Y42266D01*
X24484Y42364D01*
X24538Y42493D01*
Y42632D01*
X24484Y42761D01*
X24386Y42859D01*
X24257Y42912D01*
D02*
G37*
G36*
X13920Y45650D02*
X13780D01*
X13652Y45597D01*
X13553Y45498D01*
X13500Y45370D01*
Y45230D01*
X13553Y45102D01*
X13605Y45050D01*
X13553Y44998D01*
X13500Y44870D01*
Y44730D01*
X13553Y44602D01*
X13652Y44503D01*
X13739Y44467D01*
Y44333D01*
X13652Y44297D01*
X13553Y44198D01*
X13500Y44070D01*
Y43930D01*
X13553Y43802D01*
X13605Y43750D01*
X13553Y43698D01*
X13500Y43570D01*
Y43430D01*
X13553Y43302D01*
X13652Y43203D01*
X13739Y43167D01*
Y43033D01*
X13652Y42997D01*
X13553Y42898D01*
X13500Y42770D01*
Y42630D01*
X13553Y42502D01*
X13605Y42450D01*
X13553Y42398D01*
X13500Y42270D01*
Y42130D01*
X13553Y42002D01*
X13652Y41903D01*
X13780Y41850D01*
X13920D01*
X14048Y41903D01*
X14147Y42002D01*
X14200Y42130D01*
Y42270D01*
X14147Y42398D01*
X14095Y42450D01*
X14147Y42502D01*
X14200Y42630D01*
Y42770D01*
X14147Y42898D01*
X14048Y42997D01*
X13961Y43033D01*
Y43167D01*
X14048Y43203D01*
X14147Y43302D01*
X14200Y43430D01*
Y43570D01*
X14147Y43698D01*
X14095Y43750D01*
X14147Y43802D01*
X14200Y43930D01*
Y44070D01*
X14147Y44198D01*
X14048Y44297D01*
X13961Y44333D01*
Y44467D01*
X14048Y44503D01*
X14147Y44602D01*
X14200Y44730D01*
Y44870D01*
X14147Y44998D01*
X14095Y45050D01*
X14147Y45102D01*
X14200Y45230D01*
Y45370D01*
X14147Y45498D01*
X14048Y45597D01*
X13920Y45650D01*
D02*
G37*
G36*
X30220Y42500D02*
X30080D01*
X29952Y42447D01*
X29853Y42348D01*
X29800Y42220D01*
Y42080D01*
X29853Y41952D01*
X29952Y41853D01*
X30080Y41800D01*
X30220D01*
X30348Y41853D01*
X30447Y41952D01*
X30500Y42080D01*
Y42220D01*
X30447Y42348D01*
X30348Y42447D01*
X30220Y42500D01*
D02*
G37*
G36*
X28570D02*
X28430D01*
X28302Y42447D01*
X28203Y42348D01*
X28150Y42220D01*
Y42080D01*
X28203Y41952D01*
X28302Y41853D01*
X28430Y41800D01*
X28570D01*
X28698Y41853D01*
X28797Y41952D01*
X28850Y42080D01*
Y42220D01*
X28797Y42348D01*
X28698Y42447D01*
X28570Y42500D01*
D02*
G37*
G36*
X26920D02*
X26780D01*
X26652Y42447D01*
X26553Y42348D01*
X26500Y42220D01*
Y42080D01*
X26553Y41952D01*
X26652Y41853D01*
X26780Y41800D01*
X26920D01*
X27048Y41853D01*
X27147Y41952D01*
X27200Y42080D01*
Y42220D01*
X27147Y42348D01*
X27048Y42447D01*
X26920Y42500D01*
D02*
G37*
G36*
X22495Y41552D02*
X22355D01*
X22227Y41499D01*
X22175Y41446D01*
X22122Y41499D01*
X21994Y41552D01*
X21854D01*
X21726Y41499D01*
X21627Y41400D01*
X21574Y41272D01*
Y41132D01*
X21627Y41004D01*
X21726Y40905D01*
X21854Y40852D01*
X21994D01*
X22122Y40905D01*
X22175Y40958D01*
X22227Y40905D01*
X22355Y40852D01*
X22495D01*
X22623Y40905D01*
X22722Y41004D01*
X22775Y41132D01*
Y41272D01*
X22722Y41400D01*
X22623Y41499D01*
X22495Y41552D01*
D02*
G37*
G36*
X32841Y42450D02*
X32702D01*
X32573Y42397D01*
X32475Y42298D01*
X32422Y42170D01*
Y42030D01*
X32475Y41902D01*
X32573Y41803D01*
X32575Y41800D01*
X32585Y41661D01*
X32519Y41595D01*
X32465Y41466D01*
Y41327D01*
X32519Y41198D01*
X32617Y41100D01*
X32746Y41047D01*
X32885D01*
X33014Y41100D01*
X33112Y41198D01*
X33165Y41327D01*
Y41466D01*
X33112Y41595D01*
X33014Y41693D01*
X33012Y41697D01*
X33002Y41836D01*
X33068Y41902D01*
X33122Y42030D01*
Y42170D01*
X33068Y42298D01*
X32970Y42397D01*
X32841Y42450D01*
D02*
G37*
G36*
X20395Y41600D02*
X20255D01*
X20127Y41547D01*
X20028Y41448D01*
X19975Y41320D01*
Y41180D01*
X20028Y41052D01*
X20080Y41000D01*
X20028Y40948D01*
X19999Y40877D01*
X19948Y40873D01*
X19867Y40890D01*
X19823Y40996D01*
X19724Y41095D01*
X19596Y41148D01*
X19456D01*
X19328Y41095D01*
X19275Y41042D01*
X19223Y41095D01*
X19095Y41148D01*
X18955D01*
X18827Y41095D01*
X18774Y41042D01*
X18722Y41095D01*
X18594Y41148D01*
X18454D01*
X18326Y41095D01*
X18227Y40996D01*
X18193Y40914D01*
X18057D01*
X18023Y40996D01*
X17924Y41095D01*
X17796Y41148D01*
X17656D01*
X17528Y41095D01*
X17476Y41042D01*
X17423Y41095D01*
X17295Y41148D01*
X17155D01*
X17027Y41095D01*
X16975Y41042D01*
X16922Y41095D01*
X16794Y41148D01*
X16654D01*
X16526Y41095D01*
X16427Y40996D01*
X16393Y40914D01*
X16257D01*
X16223Y40996D01*
X16124Y41095D01*
X15996Y41148D01*
X15856D01*
X15728Y41095D01*
X15675Y41042D01*
X15623Y41095D01*
X15495Y41148D01*
X15355D01*
X15227Y41095D01*
X15175Y41042D01*
X15122Y41095D01*
X14994Y41148D01*
X14854D01*
X14726Y41095D01*
X14627Y40996D01*
X14593Y40914D01*
X14457D01*
X14423Y40996D01*
X14324Y41095D01*
X14196Y41148D01*
X14056D01*
X13928Y41095D01*
X13875Y41042D01*
X13823Y41095D01*
X13695Y41148D01*
X13555D01*
X13427Y41095D01*
X13375Y41042D01*
X13322Y41095D01*
X13194Y41148D01*
X13054D01*
X12926Y41095D01*
X12827Y40996D01*
X12774Y40868D01*
Y40728D01*
X12827Y40600D01*
X12926Y40501D01*
X13054Y40448D01*
X13194D01*
X13322Y40501D01*
X13375Y40554D01*
X13427Y40501D01*
X13555Y40448D01*
X13695D01*
X13823Y40501D01*
X13875Y40554D01*
X13928Y40501D01*
X14056Y40448D01*
X14196D01*
X14324Y40501D01*
X14423Y40600D01*
X14457Y40682D01*
X14593D01*
X14627Y40600D01*
X14726Y40501D01*
X14854Y40448D01*
X14994D01*
X15122Y40501D01*
X15175Y40554D01*
X15227Y40501D01*
X15355Y40448D01*
X15495D01*
X15623Y40501D01*
X15675Y40554D01*
X15728Y40501D01*
X15856Y40448D01*
X15996D01*
X16124Y40501D01*
X16223Y40600D01*
X16257Y40682D01*
X16393D01*
X16427Y40600D01*
X16526Y40501D01*
X16654Y40448D01*
X16794D01*
X16922Y40501D01*
X16975Y40554D01*
X17027Y40501D01*
X17155Y40448D01*
X17295D01*
X17423Y40501D01*
X17476Y40554D01*
X17528Y40501D01*
X17656Y40448D01*
X17796D01*
X17924Y40501D01*
X18023Y40600D01*
X18057Y40682D01*
X18193D01*
X18227Y40600D01*
X18326Y40501D01*
X18454Y40448D01*
X18594D01*
X18722Y40501D01*
X18774Y40554D01*
X18827Y40501D01*
X18955Y40448D01*
X19095D01*
X19223Y40501D01*
X19275Y40554D01*
X19328Y40501D01*
X19456Y40448D01*
X19596D01*
X19724Y40501D01*
X19823Y40600D01*
X19852Y40671D01*
X19903Y40675D01*
X19984Y40658D01*
X20028Y40552D01*
X20127Y40453D01*
X20255Y40400D01*
X20395D01*
X20523Y40453D01*
X20622Y40552D01*
X20675Y40680D01*
Y40820D01*
X20622Y40948D01*
X20570Y41000D01*
X20622Y41052D01*
X20675Y41180D01*
Y41320D01*
X20622Y41448D01*
X20523Y41547D01*
X20395Y41600D01*
D02*
G37*
G36*
X32305Y38920D02*
X32165D01*
X32037Y38867D01*
X31938Y38768D01*
X31885Y38640D01*
Y38500D01*
X31938Y38372D01*
X32037Y38273D01*
X32165Y38220D01*
X32305D01*
X32433Y38273D01*
X32532Y38372D01*
X32585Y38500D01*
Y38640D01*
X32532Y38768D01*
X32433Y38867D01*
X32305Y38920D01*
D02*
G37*
G36*
X29637Y39302D02*
X29498D01*
X29369Y39249D01*
X29271Y39151D01*
X29218Y39022D01*
Y38883D01*
X29271Y38754D01*
X29369Y38656D01*
X29498Y38602D01*
X29532Y38475D01*
X29520Y38447D01*
Y38308D01*
X29574Y38179D01*
X29672Y38081D01*
X29801Y38027D01*
X29940D01*
X30069Y38081D01*
X30167Y38179D01*
X30220Y38308D01*
Y38447D01*
X30167Y38576D01*
X30069Y38674D01*
X29940Y38727D01*
X29906Y38854D01*
X29918Y38883D01*
Y39022D01*
X29864Y39151D01*
X29766Y39249D01*
X29637Y39302D01*
D02*
G37*
G36*
X32660Y37840D02*
X32520D01*
X32392Y37787D01*
X32293Y37688D01*
X32240Y37560D01*
Y37420D01*
X32293Y37292D01*
X32392Y37193D01*
X32520Y37140D01*
X32660D01*
X32788Y37193D01*
X32887Y37292D01*
X32940Y37420D01*
Y37560D01*
X32887Y37688D01*
X32788Y37787D01*
X32660Y37840D01*
D02*
G37*
G36*
X28855Y37620D02*
X28715D01*
X28587Y37567D01*
X28488Y37468D01*
X28435Y37340D01*
Y37200D01*
X28488Y37072D01*
X28587Y36973D01*
X28715Y36920D01*
X28855D01*
X28983Y36973D01*
X29082Y37072D01*
X29135Y37200D01*
Y37340D01*
X29082Y37468D01*
X28983Y37567D01*
X28855Y37620D01*
D02*
G37*
G36*
X28370Y36811D02*
X28230D01*
X28102Y36757D01*
X28003Y36659D01*
X27950Y36530D01*
Y36391D01*
X28003Y36262D01*
X28102Y36164D01*
X28230Y36111D01*
X28370D01*
X28498Y36164D01*
X28597Y36262D01*
X28650Y36391D01*
Y36530D01*
X28597Y36659D01*
X28498Y36757D01*
X28370Y36811D01*
D02*
G37*
G36*
X35315Y36810D02*
X35175D01*
X35047Y36757D01*
X34948Y36658D01*
X34895Y36530D01*
Y36390D01*
X34948Y36262D01*
X35047Y36163D01*
X35175Y36110D01*
X35315D01*
X35443Y36163D01*
X35542Y36262D01*
X35595Y36390D01*
Y36530D01*
X35542Y36658D01*
X35443Y36757D01*
X35315Y36810D01*
D02*
G37*
G36*
X31055Y36770D02*
X30915D01*
X30787Y36717D01*
X30688Y36618D01*
X30635Y36490D01*
Y36350D01*
X30688Y36222D01*
X30787Y36123D01*
X30915Y36070D01*
X31055D01*
X31183Y36123D01*
X31282Y36222D01*
X31335Y36350D01*
Y36490D01*
X31282Y36618D01*
X31183Y36717D01*
X31055Y36770D01*
D02*
G37*
G36*
X34095Y36340D02*
X33955D01*
X33827Y36287D01*
X33728Y36188D01*
X33675Y36060D01*
X33675Y36004D01*
X33550Y36000D01*
X33534Y36037D01*
X33497Y36128D01*
X33398Y36227D01*
X33270Y36280D01*
X33130D01*
X33002Y36227D01*
X32903Y36128D01*
X32850Y36000D01*
Y35860D01*
X32903Y35732D01*
X33002Y35633D01*
X33130Y35580D01*
X33270D01*
X33398Y35633D01*
X33497Y35732D01*
X33550Y35860D01*
X33550Y35916D01*
X33675Y35920D01*
X33691Y35882D01*
X33728Y35792D01*
X33827Y35693D01*
X33955Y35640D01*
X34095D01*
X34223Y35693D01*
X34322Y35792D01*
X34375Y35920D01*
Y36060D01*
X34322Y36188D01*
X34223Y36287D01*
X34095Y36340D01*
D02*
G37*
G36*
X28310Y35930D02*
X28170D01*
X28042Y35877D01*
X27943Y35778D01*
X27890Y35650D01*
Y35510D01*
X27943Y35382D01*
X28042Y35283D01*
X28170Y35230D01*
X28310D01*
X28438Y35283D01*
X28537Y35382D01*
X28590Y35510D01*
Y35650D01*
X28537Y35778D01*
X28438Y35877D01*
X28310Y35930D01*
D02*
G37*
G36*
Y35030D02*
X28170D01*
X28042Y34977D01*
X27983Y34918D01*
X27941Y34879D01*
X27821Y34914D01*
X27798Y34937D01*
X27670Y34990D01*
X27530D01*
X27402Y34937D01*
X27303Y34838D01*
X27250Y34710D01*
Y34570D01*
X27303Y34442D01*
X27402Y34343D01*
X27530Y34290D01*
X27670D01*
X27798Y34343D01*
X27857Y34402D01*
X27899Y34441D01*
X28019Y34406D01*
X28042Y34383D01*
X28170Y34330D01*
X28310D01*
X28438Y34383D01*
X28537Y34482D01*
X28590Y34610D01*
Y34750D01*
X28537Y34878D01*
X28438Y34977D01*
X28310Y35030D01*
D02*
G37*
G36*
X35425Y35320D02*
X35275D01*
X35138Y35263D01*
X35032Y35157D01*
X34975Y35020D01*
Y34870D01*
X35032Y34733D01*
X35138Y34627D01*
X35275Y34570D01*
X35425D01*
X35562Y34627D01*
X35668Y34733D01*
X35725Y34870D01*
Y35020D01*
X35668Y35157D01*
X35562Y35263D01*
X35425Y35320D01*
D02*
G37*
G36*
X31920Y35190D02*
X31780D01*
X31652Y35137D01*
X31553Y35038D01*
X31500Y34910D01*
Y34770D01*
X31553Y34642D01*
X31652Y34543D01*
X31780Y34490D01*
X31920D01*
X32048Y34543D01*
X32147Y34642D01*
X32200Y34770D01*
Y34910D01*
X32147Y35038D01*
X32048Y35137D01*
X31920Y35190D01*
D02*
G37*
G36*
X30355Y35030D02*
X30215D01*
X30087Y34977D01*
X29988Y34878D01*
X29935Y34750D01*
Y34610D01*
X29988Y34482D01*
X30087Y34383D01*
X30215Y34330D01*
X30355D01*
X30483Y34383D01*
X30582Y34482D01*
X30635Y34610D01*
Y34750D01*
X30582Y34878D01*
X30483Y34977D01*
X30355Y35030D01*
D02*
G37*
G36*
X6423Y45751D02*
X6273D01*
X6136Y45694D01*
X6030Y45589D01*
X5973Y45451D01*
Y45302D01*
X6030Y45164D01*
X6136Y45058D01*
X6273Y45001D01*
X6423D01*
X6560Y45058D01*
X6666Y45164D01*
X6723Y45302D01*
Y45451D01*
X6666Y45589D01*
X6560Y45694D01*
X6423Y45751D01*
D02*
G37*
G36*
Y44851D02*
X6273D01*
X6136Y44794D01*
X6030Y44689D01*
X5973Y44551D01*
Y44402D01*
X6030Y44264D01*
X6136Y44158D01*
X6273Y44101D01*
X6423D01*
X6560Y44158D01*
X6666Y44264D01*
X6723Y44402D01*
Y44551D01*
X6666Y44689D01*
X6560Y44794D01*
X6423Y44851D01*
D02*
G37*
G36*
Y43951D02*
X6273D01*
X6136Y43894D01*
X6030Y43789D01*
X5973Y43651D01*
Y43502D01*
X6030Y43364D01*
X6136Y43258D01*
X6273Y43201D01*
X6423D01*
X6560Y43258D01*
X6666Y43364D01*
X6723Y43502D01*
Y43651D01*
X6666Y43789D01*
X6560Y43894D01*
X6423Y43951D01*
D02*
G37*
G36*
Y42189D02*
X6273D01*
X6136Y42132D01*
X6030Y42026D01*
X5973Y41888D01*
Y41739D01*
X6030Y41601D01*
X6136Y41496D01*
X6273Y41439D01*
X6423D01*
X6560Y41496D01*
X6666Y41601D01*
X6723Y41739D01*
Y41888D01*
X6666Y42026D01*
X6560Y42132D01*
X6423Y42189D01*
D02*
G37*
G36*
Y41289D02*
X6273D01*
X6136Y41232D01*
X6030Y41126D01*
X5973Y40988D01*
Y40839D01*
X6030Y40701D01*
X6136Y40596D01*
X6273Y40539D01*
X6423D01*
X6560Y40596D01*
X6666Y40701D01*
X6723Y40839D01*
Y40988D01*
X6666Y41126D01*
X6560Y41232D01*
X6423Y41289D01*
D02*
G37*
G36*
Y40389D02*
X6273D01*
X6136Y40332D01*
X6030Y40226D01*
X5973Y40088D01*
Y39939D01*
X6030Y39801D01*
X6136Y39696D01*
X6273Y39639D01*
X6423D01*
X6560Y39696D01*
X6666Y39801D01*
X6723Y39939D01*
Y40088D01*
X6666Y40226D01*
X6560Y40332D01*
X6423Y40389D01*
D02*
G37*
G36*
X25405Y39087D02*
X25265D01*
X25137Y39034D01*
X25038Y38935D01*
X24985Y38806D01*
Y38667D01*
X25038Y38539D01*
X25137Y38440D01*
X25265Y38387D01*
X25405D01*
X25533Y38440D01*
X25632Y38539D01*
X25685Y38667D01*
Y38806D01*
X25632Y38935D01*
X25533Y39034D01*
X25405Y39087D01*
D02*
G37*
G36*
X24795Y37110D02*
X24655D01*
X24527Y37057D01*
X24428Y36958D01*
X24375Y36830D01*
Y36690D01*
X24428Y36562D01*
X24527Y36463D01*
X24655Y36410D01*
X24795D01*
X24923Y36463D01*
X25022Y36562D01*
X25075Y36690D01*
Y36830D01*
X25022Y36958D01*
X24923Y37057D01*
X24795Y37110D01*
D02*
G37*
G36*
X24792Y34960D02*
X24652D01*
X24524Y34907D01*
X24425Y34808D01*
X24372Y34680D01*
Y34540D01*
X24425Y34412D01*
X24524Y34313D01*
X24652Y34260D01*
X24792D01*
X24920Y34313D01*
X25019Y34412D01*
X25072Y34540D01*
Y34680D01*
X25019Y34808D01*
X24920Y34907D01*
X24792Y34960D01*
D02*
G37*
G36*
X23650Y34975D02*
X23500D01*
X23363Y34918D01*
X23257Y34812D01*
X23200Y34675D01*
Y34525D01*
X23257Y34388D01*
X23363Y34282D01*
X23500Y34225D01*
X23650D01*
X23787Y34282D01*
X23893Y34388D01*
X23950Y34525D01*
Y34675D01*
X23893Y34812D01*
X23787Y34918D01*
X23650Y34975D01*
D02*
G37*
G36*
X22575D02*
X22425D01*
X22288Y34918D01*
X22182Y34812D01*
X22125Y34675D01*
Y34525D01*
X22182Y34388D01*
X22288Y34282D01*
X22425Y34225D01*
X22575D01*
X22712Y34282D01*
X22818Y34388D01*
X22875Y34525D01*
Y34675D01*
X22818Y34812D01*
X22712Y34918D01*
X22575Y34975D01*
D02*
G37*
G36*
X21565D02*
X21415D01*
X21278Y34918D01*
X21172Y34812D01*
X21115Y34675D01*
Y34525D01*
X21172Y34388D01*
X21278Y34282D01*
X21415Y34225D01*
X21565D01*
X21702Y34282D01*
X21808Y34388D01*
X21865Y34525D01*
Y34675D01*
X21808Y34812D01*
X21702Y34918D01*
X21565Y34975D01*
D02*
G37*
G36*
X11462Y34022D02*
X11312D01*
X11175Y33965D01*
X11069Y33860D01*
X11012Y33722D01*
Y33573D01*
X11069Y33435D01*
X11175Y33330D01*
X11312Y33272D01*
X11462D01*
X11599Y33330D01*
X11705Y33435D01*
X11762Y33573D01*
Y33722D01*
X11705Y33860D01*
X11599Y33965D01*
X11462Y34022D01*
D02*
G37*
%LPD*%
D13*
X65569Y37527D02*
Y38615D01*
X65350Y38835D02*
Y39271D01*
Y38835D02*
X65569Y38615D01*
X65674Y44353D02*
X65773Y44451D01*
X65734Y44411D02*
X65735D01*
X65566Y37525D02*
X65569Y37527D01*
X53025Y35823D02*
Y35875D01*
X52627Y35425D02*
X53025Y35823D01*
X43144Y35425D02*
X52627D01*
X66900Y33008D02*
Y33754D01*
X65603Y31711D02*
X66900Y33008D01*
X55449Y29766D02*
X58598D01*
X58944Y30112D01*
X55049Y30165D02*
X55449Y29766D01*
X63861Y29688D02*
X65603Y31430D01*
X58962Y30112D02*
X59386Y29688D01*
X63861D01*
X42415Y36154D02*
X43144Y35425D01*
X65603Y31430D02*
Y31711D01*
X67041Y33895D02*
Y34559D01*
X66900Y33754D02*
X67041Y33895D01*
Y34559D02*
X67375Y34893D01*
Y36325D01*
X60790Y44885D02*
X60811Y44906D01*
X61890D01*
X62200Y44596D01*
X65285Y41593D02*
Y42251D01*
Y40928D02*
Y41575D01*
X63445Y41593D02*
X65285D01*
X63077Y41961D02*
X63445Y41593D01*
X65285Y42251D02*
X65440Y42406D01*
X65285Y40928D02*
X65640Y40572D01*
X65284Y42894D02*
X65440Y42738D01*
Y42406D02*
Y42738D01*
X65375Y43231D02*
Y44053D01*
X65284Y42894D02*
Y43140D01*
X65375Y43231D01*
X62200Y44264D02*
Y44596D01*
X62320Y42814D02*
Y44144D01*
X62200Y44264D02*
X62320Y44144D01*
X65350Y39271D02*
X65930Y39851D01*
X65566Y37525D02*
X66770Y36322D01*
X67372D01*
X62320Y42814D02*
X62725Y42409D01*
X62810D01*
X63077Y42143D02*
Y42155D01*
X62810Y42409D02*
X63077Y42143D01*
Y41961D02*
Y42143D01*
X63075Y42156D02*
X63077Y42155D01*
X65773Y44591D02*
X65794Y44612D01*
X65378Y45999D02*
X65794Y45583D01*
X65773Y44451D02*
Y44591D01*
X65794Y44612D02*
Y45583D01*
X65930Y39851D02*
Y40336D01*
X65378Y45999D02*
Y46319D01*
X65375Y44053D02*
X65734Y44411D01*
X65694Y40572D02*
X65930Y40336D01*
X65640Y40572D02*
X65694D01*
X65927Y46868D02*
X65981D01*
X65378Y46319D02*
X65927Y46868D01*
D16*
X79450Y56685D02*
D03*
X69768Y34197D02*
D03*
X67970Y37920D02*
D03*
X67855Y45820D02*
D03*
X81260Y43315D02*
D03*
X66400Y44400D02*
D03*
X66971Y44921D02*
D03*
X87076Y33920D02*
D03*
X86060Y35490D02*
D03*
X89985Y36065D02*
D03*
X88060Y34015D02*
D03*
X88016Y33516D02*
D03*
X86835Y35981D02*
D03*
X86010Y34450D02*
D03*
X86085Y46490D02*
D03*
X85990Y47505D02*
D03*
X86210Y48489D02*
D03*
X86860Y43940D02*
D03*
X87665Y45229D02*
D03*
X86865D02*
D03*
X86860Y45865D02*
D03*
X88460Y45265D02*
D03*
X87661Y48325D02*
D03*
X87659Y47765D02*
D03*
X85990Y44285D02*
D03*
X86010Y43565D02*
D03*
X83574Y42590D02*
D03*
X84479Y44694D02*
D03*
X83660Y43253D02*
D03*
Y46465D02*
D03*
X84380Y46490D02*
D03*
X83659Y43990D02*
D03*
X84509Y45523D02*
D03*
X82860Y42050D02*
D03*
Y43990D02*
D03*
Y42690D02*
D03*
Y43290D02*
D03*
Y44615D02*
D03*
X82835Y47790D02*
D03*
X84515Y48054D02*
D03*
X84374Y42590D02*
D03*
X89972Y45840D02*
D03*
X89260Y38015D02*
D03*
X90160Y44265D02*
D03*
X90060Y42565D02*
D03*
Y43215D02*
D03*
X89260D02*
D03*
X90110Y39640D02*
D03*
X90160Y44915D02*
D03*
X89285Y38665D02*
D03*
X89260Y42565D02*
D03*
X90160Y41190D02*
D03*
X90110Y40290D02*
D03*
Y38990D02*
D03*
X80340Y45025D02*
D03*
X82060Y46540D02*
D03*
X80546Y46490D02*
D03*
X80400Y45719D02*
D03*
X79895Y44725D02*
D03*
X81260Y44005D02*
D03*
Y42625D02*
D03*
X80414Y42784D02*
D03*
X80410Y44230D02*
D03*
X82085Y47790D02*
D03*
X81271Y46589D02*
D03*
X86860Y42665D02*
D03*
X87675Y43150D02*
D03*
X86835Y39325D02*
D03*
X87685Y37390D02*
D03*
X87675Y43850D02*
D03*
X87075Y41850D02*
D03*
X87685Y40665D02*
D03*
X86860D02*
D03*
X86835Y38740D02*
D03*
X81240Y36045D02*
D03*
X85210Y37765D02*
D03*
X80410Y37020D02*
D03*
X85885Y37040D02*
D03*
X84535Y38515D02*
D03*
X84485Y36890D02*
D03*
X84375Y35440D02*
D03*
X83635Y36175D02*
D03*
X82860Y34744D02*
D03*
X82830Y34200D02*
D03*
X82085Y37315D02*
D03*
X80460Y36045D02*
D03*
X86145Y39340D02*
D03*
X86085Y38640D02*
D03*
X80150Y38700D02*
D03*
X84460Y39390D02*
D03*
X84809Y38965D02*
D03*
X82860Y39940D02*
D03*
Y38715D02*
D03*
Y39225D02*
D03*
X82060Y39940D02*
D03*
X81235Y39945D02*
D03*
X82060Y39240D02*
D03*
X83660Y39390D02*
D03*
X81250Y39415D02*
D03*
X80415Y40235D02*
D03*
X89985Y37365D02*
D03*
X91884Y36829D02*
D03*
Y43904D02*
D03*
X89985Y36715D02*
D03*
X88460Y38690D02*
D03*
Y39940D02*
D03*
Y42565D02*
D03*
Y43190D02*
D03*
X88425Y41975D02*
D03*
X88460Y40665D02*
D03*
Y37340D02*
D03*
X67375Y45325D02*
D03*
X67400Y41300D02*
D03*
X66200Y43205D02*
D03*
X66850Y40850D02*
D03*
X66965Y39900D02*
D03*
X66875Y45841D02*
D03*
X66875Y38910D02*
D03*
X67460Y42365D02*
D03*
X66950Y41825D02*
D03*
X67460Y38325D02*
D03*
X67375Y44240D02*
D03*
X67425Y39410D02*
D03*
X67950Y42825D02*
D03*
X67925Y39910D02*
D03*
X67961Y40853D02*
D03*
X67875Y44740D02*
D03*
X67970Y41730D02*
D03*
X66350Y45375D02*
D03*
X65870Y43910D02*
D03*
X68850Y36410D02*
D03*
X67960Y36825D02*
D03*
X58875Y45900D02*
D03*
X59450Y46325D02*
D03*
X46475Y16550D02*
D03*
X53025Y35875D02*
D03*
X55049Y30165D02*
D03*
X55146Y34494D02*
D03*
X52841Y36352D02*
D03*
X60389Y30112D02*
D03*
X42415Y36154D02*
D03*
X58962Y30112D02*
D03*
X43751Y50580D02*
D03*
X50485Y44466D02*
D03*
X48158Y39500D02*
D03*
X54932Y38744D02*
D03*
X61350Y45350D02*
D03*
X48805Y38061D02*
D03*
X44430Y41000D02*
D03*
X65743Y43000D02*
D03*
X48075Y31550D02*
D03*
X54694Y47600D02*
D03*
X43900Y33000D02*
D03*
X43902Y36305D02*
D03*
Y34655D02*
D03*
X42551Y31633D02*
D03*
X27875Y58675D02*
D03*
X21675Y60437D02*
D03*
X46875Y36825D02*
D03*
X46325D02*
D03*
X45825D02*
D03*
X51000Y31586D02*
D03*
X58325Y39355D02*
D03*
X58400Y42275D02*
D03*
X58875Y41750D02*
D03*
X58280Y41421D02*
D03*
X57872Y36740D02*
D03*
X57790Y40850D02*
D03*
X60025Y38600D02*
D03*
X59410Y41410D02*
D03*
X59850Y41650D02*
D03*
X57790Y41825D02*
D03*
X60198Y40638D02*
D03*
X57790Y39875D02*
D03*
X58925Y38775D02*
D03*
X59475Y38325D02*
D03*
X60558Y44442D02*
D03*
X62650Y41975D02*
D03*
X61725Y44505D02*
D03*
X60531Y42990D02*
D03*
X62072Y42497D02*
D03*
X45800Y38125D02*
D03*
X45300D02*
D03*
X44800D02*
D03*
X43900Y37120D02*
D03*
X44400D02*
D03*
X60375Y45350D02*
D03*
X60790Y44885D02*
D03*
X61100Y44490D02*
D03*
X60950Y37800D02*
D03*
X61300Y36240D02*
D03*
X61875Y36740D02*
D03*
X60841Y36854D02*
D03*
X63385Y37265D02*
D03*
X63900Y36775D02*
D03*
X64375Y36240D02*
D03*
X62375Y37240D02*
D03*
X62875Y36740D02*
D03*
X63375Y36240D02*
D03*
X62875Y37760D02*
D03*
X62030Y38675D02*
D03*
X62606Y44480D02*
D03*
X62720Y42980D02*
D03*
X64550Y44448D02*
D03*
X64875Y45910D02*
D03*
X63210Y42575D02*
D03*
X60375Y46344D02*
D03*
X65780Y36730D02*
D03*
X66900Y36925D02*
D03*
X65390Y45410D02*
D03*
X65735Y44426D02*
D03*
X65970Y38260D02*
D03*
X65375Y36240D02*
D03*
X65040Y42572D02*
D03*
X65378Y46319D02*
D03*
X66450Y46425D02*
D03*
X60210Y42575D02*
D03*
X59290Y42375D02*
D03*
X66003Y31546D02*
D03*
X65969Y37735D02*
D03*
X67375Y36325D02*
D03*
X66450Y42400D02*
D03*
X65530Y40170D02*
D03*
X59989Y37735D02*
D03*
X64625Y42983D02*
D03*
X62375Y36240D02*
D03*
Y45300D02*
D03*
X57862Y44875D02*
D03*
X57275Y31800D02*
D03*
X49889Y39866D02*
D03*
X61625Y38160D02*
D03*
X64375Y37350D02*
D03*
X63900Y37925D02*
D03*
X64875Y36829D02*
D03*
X79425Y57375D02*
D03*
X52175Y41475D02*
D03*
X52675D02*
D03*
X64198Y39575D02*
D03*
X64625Y40143D02*
D03*
X49358Y39866D02*
D03*
X53389Y41170D02*
D03*
X52031Y42800D02*
D03*
X54436Y40077D02*
D03*
X55458Y40070D02*
D03*
X49325Y35825D02*
D03*
X61125Y38675D02*
D03*
X60600Y38175D02*
D03*
X49475Y38554D02*
D03*
X65500Y30275D02*
D03*
X65956Y28986D02*
D03*
X60408Y32204D02*
D03*
X53450Y36225D02*
D03*
X54175D02*
D03*
X60375Y30750D02*
D03*
X66003Y29720D02*
D03*
X57271Y30195D02*
D03*
Y30982D02*
D03*
X60973Y33601D02*
D03*
X59781Y31175D02*
D03*
X60960D02*
D03*
Y32210D02*
D03*
X60956Y32765D02*
D03*
X56956Y32510D02*
D03*
X65999Y30944D02*
D03*
X58240Y49865D02*
D03*
X55875Y47825D02*
D03*
Y34825D02*
D03*
X50050Y35897D02*
D03*
Y38554D02*
D03*
X52850Y38475D02*
D03*
X55077Y36225D02*
D03*
X55550Y38085D02*
D03*
X67300Y33588D02*
D03*
X61625Y42100D02*
D03*
X61625Y42983D02*
D03*
X58396Y46369D02*
D03*
X59931Y45892D02*
D03*
X58348Y43300D02*
D03*
X64800Y37750D02*
D03*
X59469Y37256D02*
D03*
X58939Y37770D02*
D03*
X58349Y38315D02*
D03*
X58858Y40910D02*
D03*
X59345Y39355D02*
D03*
X58875Y39910D02*
D03*
X63747Y38971D02*
D03*
X61625Y40089D02*
D03*
X61040Y42575D02*
D03*
X64017Y42572D02*
D03*
X63625Y42983D02*
D03*
X57782Y43812D02*
D03*
X65806Y40972D02*
D03*
X64125Y38629D02*
D03*
X63075Y38650D02*
D03*
X65050Y40550D02*
D03*
X61125Y48775D02*
D03*
X58816Y34213D02*
D03*
X69762Y48237D02*
D03*
X57966Y42920D02*
D03*
X58375Y37350D02*
D03*
X58875Y36825D02*
D03*
X65750Y39000D02*
D03*
X64876Y38245D02*
D03*
X65150Y39650D02*
D03*
X60525Y40100D02*
D03*
X63625Y41100D02*
D03*
X61092Y40638D02*
D03*
X62700Y40075D02*
D03*
X59325Y43400D02*
D03*
X64125Y40575D02*
D03*
X65700Y42075D02*
D03*
X60625Y42100D02*
D03*
X62875Y45725D02*
D03*
X62400Y46325D02*
D03*
X61875Y45825D02*
D03*
X63100Y40575D02*
D03*
X64625Y42075D02*
D03*
X63625D02*
D03*
X63375Y46250D02*
D03*
X61375Y46325D02*
D03*
X57825Y37800D02*
D03*
X62150Y40625D02*
D03*
X63850Y45725D02*
D03*
X58850Y43800D02*
D03*
X58875Y42740D02*
D03*
X58375Y44325D02*
D03*
X57790Y38850D02*
D03*
X59400Y45375D02*
D03*
X57900Y45800D02*
D03*
X63328Y44412D02*
D03*
X63900Y44825D02*
D03*
X81325Y56655D02*
D03*
Y56155D02*
D03*
X77925Y56755D02*
D03*
D41*
X60619Y41098D02*
X60633Y41112D01*
X60827Y40328D02*
X61125Y40030D01*
Y38675D02*
Y40030D01*
X60827Y40328D02*
Y40373D01*
X60619Y40581D02*
X60827Y40373D01*
X60619Y40581D02*
Y41098D01*
D69*
X67603Y27562D02*
X69284Y29244D01*
X43518Y27562D02*
X67603D01*
X31550Y48776D02*
X31575D01*
X31629Y48773D02*
X31940Y49084D01*
X31575Y48773D02*
X31629D01*
X29784Y49027D02*
X31299D01*
X31550Y48776D01*
X34955Y46601D02*
Y48989D01*
X33473Y49513D02*
X34431D01*
X34955Y48989D01*
X33043Y49084D02*
X33473Y49513D01*
X31940Y49084D02*
X33043D01*
X42051Y43156D02*
X42451Y42756D01*
X42252Y40375D02*
X42451Y40573D01*
Y42756D01*
X35956Y45600D02*
X41499D01*
X42051Y43156D02*
Y45048D01*
X41499Y45600D02*
X42051Y45048D01*
X34955Y46601D02*
X35956Y45600D01*
X42252Y38285D02*
Y40375D01*
X69284Y29244D02*
Y30569D01*
D74*
X78340Y59032D02*
Y59045D01*
X78200Y58891D02*
X78340Y59032D01*
X76886Y57894D02*
X76975Y57805D01*
X78200Y58821D02*
Y58891D01*
X77819Y58440D02*
X78200Y58821D01*
X77431Y58440D02*
X77819D01*
X77050Y58059D02*
X77431Y58440D01*
X73827Y60953D02*
X76886Y57894D01*
X77050Y57894D02*
Y58059D01*
X76975Y57819D02*
X77050Y57894D01*
X76975Y57805D02*
Y57819D01*
X53869Y60953D02*
X73827D01*
X53676Y61146D02*
X53869Y60953D01*
X11458Y52457D02*
X20147Y61146D01*
X53676D01*
X37798Y34168D02*
Y38523D01*
X37800Y38525D01*
X65911Y28391D02*
X65947D01*
X43576Y28390D02*
X65911D01*
X65947Y28391D02*
X65956Y28400D01*
X65911Y28390D02*
X65911Y28391D01*
X37150Y33930D02*
X43518Y27562D01*
X37798Y34168D02*
X43576Y28390D01*
X51443Y58432D02*
X65303D01*
X68777Y54958D01*
X51443Y58432D02*
X51445Y58435D01*
X32368Y58432D02*
X51443D01*
X11458Y39839D02*
Y52457D01*
X32365Y58430D02*
X32368Y58432D01*
X26372Y37762D02*
X26765Y37369D01*
X26372Y37762D02*
Y39786D01*
X25509Y40649D02*
X26372Y39786D01*
X23203Y40649D02*
X25509D01*
X37150Y33930D02*
Y37500D01*
X26372Y34908D02*
X26765Y35301D01*
X26372Y33553D02*
Y34908D01*
Y33553D02*
X26800Y33125D01*
X26765Y35301D02*
Y37369D01*
X32235Y39530D02*
X35120D01*
X37150Y37500D01*
X12524Y38773D02*
X21327D01*
X23203Y40649D01*
X11458Y39839D02*
X12524Y38773D01*
D76*
X29100Y52955D02*
X29780D01*
Y52950D02*
X61405D01*
X61411Y52956D02*
X66023Y48344D01*
X65981Y46868D02*
X66023Y46910D01*
Y48344D01*
D80*
X62072Y42360D02*
Y42497D01*
X62125Y41837D02*
Y42307D01*
X61426Y41138D02*
X62125Y41837D01*
X62072Y42360D02*
X62125Y42307D01*
X60633Y41112D02*
X60859D01*
X60885Y41138D01*
X61426D01*
D83*
X19639Y46137D02*
X19700Y46198D01*
X19639Y45640D02*
Y46137D01*
Y45640D02*
X19702Y45576D01*
Y45473D02*
Y45576D01*
D88*
X47175Y46475D02*
D03*
X48425D02*
D03*
D89*
X91285Y34865D02*
D03*
X90755Y32906D02*
D03*
X87250Y52216D02*
D03*
X88551Y51167D02*
D03*
X83870Y52208D02*
D03*
X89772Y49948D02*
D03*
X91101Y48492D02*
D03*
X91339Y41128D02*
D03*
X91617Y39829D02*
D03*
X91339Y46544D02*
D03*
X91467Y42332D02*
D03*
X2175Y830D02*
D03*
X4600D02*
D03*
X7050D02*
D03*
X9875D02*
D03*
X12900D02*
D03*
X15825D02*
D03*
X825Y1625D02*
D03*
Y3225D02*
D03*
Y4775D02*
D03*
Y6500D02*
D03*
X3600Y78750D02*
D03*
X825Y77825D02*
D03*
Y75500D02*
D03*
Y70575D02*
D03*
X95000Y78775D02*
D03*
X92500D02*
D03*
X115411D02*
D03*
X112911D02*
D03*
X110086D02*
D03*
X97586D02*
D03*
X100086D02*
D03*
X102586D02*
D03*
X105086D02*
D03*
X107586D02*
D03*
X51925D02*
D03*
X49425D02*
D03*
X89486D02*
D03*
X86986D02*
D03*
X84486D02*
D03*
X79836D02*
D03*
X77336D02*
D03*
X74836D02*
D03*
X72336D02*
D03*
X69836D02*
D03*
X82336D02*
D03*
X67011D02*
D03*
X54511D02*
D03*
X57011D02*
D03*
X59511D02*
D03*
X62011D02*
D03*
X64511D02*
D03*
X21436D02*
D03*
X18936D02*
D03*
X16436D02*
D03*
X13936D02*
D03*
X11436D02*
D03*
X23936D02*
D03*
X39261D02*
D03*
X26761D02*
D03*
X29261D02*
D03*
X31761D02*
D03*
X34261D02*
D03*
X36761D02*
D03*
X41411D02*
D03*
X43911D02*
D03*
X46411D02*
D03*
X28386Y830D02*
D03*
X25886D02*
D03*
X23386D02*
D03*
X20886D02*
D03*
X18386D02*
D03*
X30886D02*
D03*
X46211D02*
D03*
X33711D02*
D03*
X36211D02*
D03*
X38711D02*
D03*
X41211D02*
D03*
X43711D02*
D03*
X48361D02*
D03*
X50861D02*
D03*
X53361D02*
D03*
X107300D02*
D03*
X104000Y805D02*
D03*
X101286D02*
D03*
X96311Y830D02*
D03*
X93811D02*
D03*
X91311D02*
D03*
X88811D02*
D03*
X86311D02*
D03*
X98811D02*
D03*
X81661D02*
D03*
X79161D02*
D03*
X76661D02*
D03*
X74161D02*
D03*
X71661D02*
D03*
X84161D02*
D03*
X118625Y2850D02*
D03*
Y5350D02*
D03*
Y7850D02*
D03*
Y10350D02*
D03*
Y12850D02*
D03*
X109425Y830D02*
D03*
X111725D02*
D03*
X113975D02*
D03*
X116325D02*
D03*
X118625D02*
D03*
Y15350D02*
D03*
Y32850D02*
D03*
Y35350D02*
D03*
Y37850D02*
D03*
Y40350D02*
D03*
Y42850D02*
D03*
Y17850D02*
D03*
Y20350D02*
D03*
Y22850D02*
D03*
Y25350D02*
D03*
Y27850D02*
D03*
Y30350D02*
D03*
Y45350D02*
D03*
Y62850D02*
D03*
Y65350D02*
D03*
Y67850D02*
D03*
Y70350D02*
D03*
Y72850D02*
D03*
Y47850D02*
D03*
Y50350D02*
D03*
Y52850D02*
D03*
Y55350D02*
D03*
Y57850D02*
D03*
Y60350D02*
D03*
Y77850D02*
D03*
Y75350D02*
D03*
X825Y23475D02*
D03*
Y25975D02*
D03*
Y28475D02*
D03*
Y30975D02*
D03*
Y33475D02*
D03*
Y8475D02*
D03*
Y10975D02*
D03*
Y13475D02*
D03*
Y15975D02*
D03*
Y18475D02*
D03*
Y20975D02*
D03*
Y35975D02*
D03*
Y73500D02*
D03*
Y66000D02*
D03*
Y68500D02*
D03*
X6350Y78775D02*
D03*
X8850D02*
D03*
X6800Y27975D02*
D03*
X23575Y34600D02*
D03*
X42656Y44024D02*
D03*
X37800Y38525D02*
D03*
X53329Y32955D02*
D03*
X47189Y44713D02*
D03*
X21490Y34600D02*
D03*
X22500D02*
D03*
X42575Y65995D02*
D03*
X50389Y33869D02*
D03*
X68777Y54958D02*
D03*
X49725Y31600D02*
D03*
X47672Y29202D02*
D03*
X48200Y34420D02*
D03*
X47112Y33546D02*
D03*
X46975Y30500D02*
D03*
X47125Y34425D02*
D03*
X47625Y36300D02*
D03*
X50450Y60275D02*
D03*
Y63575D02*
D03*
X45995Y47305D02*
D03*
X53800Y23875D02*
D03*
X53467Y26550D02*
D03*
X51350Y21475D02*
D03*
X54175Y63500D02*
D03*
X54195Y60275D02*
D03*
X42252Y38285D02*
D03*
X41577D02*
D03*
X14637Y36823D02*
D03*
X13912D02*
D03*
X14637Y37498D02*
D03*
X13912D02*
D03*
X13187D02*
D03*
Y36823D02*
D03*
X19700Y46198D02*
D03*
X16298Y46890D02*
D03*
X15623D02*
D03*
X16298Y46165D02*
D03*
X15623D02*
D03*
X18850Y51523D02*
D03*
Y50848D02*
D03*
Y50173D02*
D03*
X18175D02*
D03*
Y50848D02*
D03*
Y51523D02*
D03*
X19702Y45473D02*
D03*
X42535Y51865D02*
D03*
X29100Y52950D02*
D03*
X29780D02*
D03*
X42656Y45374D02*
D03*
Y44699D02*
D03*
X43326Y44729D02*
D03*
Y45404D02*
D03*
X41473Y44713D02*
D03*
X40798D02*
D03*
X40123D02*
D03*
Y44038D02*
D03*
X40798D02*
D03*
X41473D02*
D03*
X43326Y44054D02*
D03*
X35350Y34945D02*
D03*
X42252Y37560D02*
D03*
X41577D02*
D03*
X32365Y58430D02*
D03*
X45533Y44683D02*
D03*
X12276Y44465D02*
D03*
X12251Y41802D02*
D03*
Y40902D02*
D03*
X12276Y45365D02*
D03*
X6348Y43576D02*
D03*
Y40914D02*
D03*
Y44476D02*
D03*
X12276Y43565D02*
D03*
X6348Y45376D02*
D03*
Y40014D02*
D03*
X11387Y33647D02*
D03*
X12251Y40002D02*
D03*
X6348Y41814D02*
D03*
X44087Y30462D02*
D03*
X43063Y27050D02*
D03*
X45909Y29117D02*
D03*
X29631Y62047D02*
D03*
X29642Y62800D02*
D03*
X84406Y54265D02*
D03*
X81406D02*
D03*
X82774D02*
D03*
X75500Y62900D02*
D03*
X73575Y57875D02*
D03*
X73884Y55227D02*
D03*
X56293Y30993D02*
D03*
X825Y51000D02*
D03*
Y48500D02*
D03*
Y46000D02*
D03*
Y43500D02*
D03*
Y41000D02*
D03*
Y38500D02*
D03*
Y63500D02*
D03*
Y61000D02*
D03*
Y58500D02*
D03*
Y56000D02*
D03*
Y53500D02*
D03*
X68836Y830D02*
D03*
X56336D02*
D03*
X58836D02*
D03*
X61336D02*
D03*
X63836D02*
D03*
X66336D02*
D03*
X51631Y33875D02*
D03*
X49475Y33855D02*
D03*
X48806D02*
D03*
X77675Y57800D02*
D03*
X81600Y57950D02*
D03*
X69284Y30569D02*
D03*
X65956Y28400D02*
D03*
X67730Y28759D02*
D03*
X68584Y30569D02*
D03*
X81475Y55405D02*
D03*
X78550Y56630D02*
D03*
X77250D02*
D03*
X76975Y57805D02*
D03*
X75925Y57145D02*
D03*
Y57880D02*
D03*
X78350Y59055D02*
D03*
X77575Y59080D02*
D03*
X79450Y58930D02*
D03*
X78375Y57705D02*
D03*
X75675Y54605D02*
D03*
D90*
X28240Y35580D02*
D03*
X15926Y40798D02*
D03*
X15425D02*
D03*
X17726D02*
D03*
X17225D02*
D03*
X16724D02*
D03*
X14924D02*
D03*
X29568Y38952D02*
D03*
X20325Y40750D02*
D03*
X19526Y40798D02*
D03*
X19025D02*
D03*
X18524D02*
D03*
X20325Y39400D02*
D03*
Y39900D02*
D03*
X24725Y36760D02*
D03*
X26110Y37175D02*
D03*
X23410Y39977D02*
D03*
X25335Y38737D02*
D03*
X28300Y36460D02*
D03*
X29870Y38377D02*
D03*
X27565Y38110D02*
D03*
X34025Y35990D02*
D03*
X33200Y35930D02*
D03*
X32235Y38570D02*
D03*
X30985Y36420D02*
D03*
X28785Y37270D02*
D03*
X41904Y41900D02*
D03*
X36420Y42875D02*
D03*
X41904Y42401D02*
D03*
X43100Y41400D02*
D03*
X38304Y41900D02*
D03*
X26850Y42150D02*
D03*
X34125Y47350D02*
D03*
X33625D02*
D03*
X32170Y46930D02*
D03*
X33675Y49000D02*
D03*
X34175D02*
D03*
X38450Y48575D02*
D03*
X38950D02*
D03*
X37150D02*
D03*
X37650D02*
D03*
X36050Y46825D02*
D03*
X36075Y47975D02*
D03*
Y48475D02*
D03*
X36050Y46325D02*
D03*
X13850Y45300D02*
D03*
Y44800D02*
D03*
Y44000D02*
D03*
X20385Y45750D02*
D03*
Y46575D02*
D03*
X21400Y43525D02*
D03*
X17395Y44790D02*
D03*
X13850Y43500D02*
D03*
X19951Y53623D02*
D03*
X19450D02*
D03*
X18850Y48290D02*
D03*
X27524Y55425D02*
D03*
X28025D02*
D03*
X28526D02*
D03*
X25674D02*
D03*
X26175D02*
D03*
X26676D02*
D03*
X24826D02*
D03*
X24325D02*
D03*
X21251Y53623D02*
D03*
X20750D02*
D03*
X22551D02*
D03*
X22050D02*
D03*
X24276Y51123D02*
D03*
X23775D02*
D03*
X23824Y55425D02*
D03*
X24675Y46975D02*
D03*
X25325D02*
D03*
X30150Y45450D02*
D03*
Y43800D02*
D03*
X28500D02*
D03*
X23008Y44625D02*
D03*
X21450Y47348D02*
D03*
X26850Y43800D02*
D03*
Y45450D02*
D03*
X39525Y54575D02*
D03*
X40025D02*
D03*
X41050Y48575D02*
D03*
X41550D02*
D03*
X39750D02*
D03*
X40250D02*
D03*
X23250Y48800D02*
D03*
Y49300D02*
D03*
X31670Y47700D02*
D03*
X29800Y48400D02*
D03*
X28225Y48775D02*
D03*
X31575Y48773D02*
D03*
X24850Y49323D02*
D03*
X26675Y49850D02*
D03*
X27175D02*
D03*
X24850Y48823D02*
D03*
X29100Y51225D02*
D03*
X29763D02*
D03*
X29784Y49027D02*
D03*
X31150Y51033D02*
D03*
X38250Y54575D02*
D03*
X38750D02*
D03*
X36975D02*
D03*
X37475D02*
D03*
X35700D02*
D03*
X36200D02*
D03*
X33280Y43875D02*
D03*
X30960Y37380D02*
D03*
X32235Y39530D02*
D03*
X26165Y36510D02*
D03*
X31850Y34840D02*
D03*
X28240Y34680D02*
D03*
X30285D02*
D03*
X26165Y35550D02*
D03*
X27600Y34640D02*
D03*
X25500Y35610D02*
D03*
X24722Y34610D02*
D03*
X28500Y42150D02*
D03*
X13850Y42200D02*
D03*
X21924Y41202D02*
D03*
X22425D02*
D03*
X21400Y43025D02*
D03*
X13850Y42700D02*
D03*
X20325Y41250D02*
D03*
X14126Y40798D02*
D03*
X13625D02*
D03*
X30150Y42150D02*
D03*
X24188Y42562D02*
D03*
X36420Y42375D02*
D03*
X40104Y42401D02*
D03*
Y41900D02*
D03*
X38304Y42401D02*
D03*
X34635Y37550D02*
D03*
X32590Y37490D02*
D03*
X34575Y41850D02*
D03*
X34075D02*
D03*
X32815Y41397D02*
D03*
X32772Y42100D02*
D03*
X35245Y36460D02*
D03*
X13124Y40798D02*
D03*
X26800Y33125D02*
D03*
X29325Y44625D02*
D03*
X27675D02*
D03*
X28500Y45450D02*
D03*
X29325Y42975D02*
D03*
X27675D02*
D03*
D91*
X88493Y49641D02*
X90622Y47513D01*
X76132Y49641D02*
X88493D01*
X66223Y59550D02*
X76132Y49641D01*
X90622Y46853D02*
Y47513D01*
X90614Y46244D02*
Y46844D01*
X90622Y46853D01*
X90614Y46244D02*
X90622Y46235D01*
Y45570D02*
Y46235D01*
X14898Y52740D02*
X21708Y59550D01*
X90160Y44915D02*
Y45108D01*
X21708Y59550D02*
X66223D01*
X90160Y45108D02*
X90622Y45570D01*
X16598Y45440D02*
X18238Y47080D01*
X14898Y45865D02*
Y52740D01*
Y45865D02*
X15323Y45440D01*
X18238Y47080D02*
X18818D01*
X19700Y46198D01*
X15323Y45440D02*
X16598D01*
M02*
