%TF.GenerationSoftware,KiCad,Pcbnew,9.0.1*%
%TF.CreationDate,2025-06-03T13:31:58-07:00*%
%TF.ProjectId,mp153-devboard,6d703135-332d-4646-9576-626f6172642e,rev?*%
%TF.SameCoordinates,PXb487a00PY650eff0*%
%TF.FileFunction,Drillmap*%
%TF.FilePolarity,Positive*%
%FSLAX45Y45*%
G04 Gerber Fmt 4.5, Leading zero omitted, Abs format (unit mm)*
G04 Created by KiCad (PCBNEW 9.0.1) date 2025-06-03 13:31:58*
%MOMM*%
%LPD*%
G01*
G04 APERTURE LIST*
%ADD10C,0.050000*%
%ADD11C,0.200000*%
%ADD12C,0.100000*%
G04 APERTURE END LIST*
D10*
X0Y5644920D02*
X3990340Y5644920D01*
X3990340Y0D01*
X0Y0D01*
X0Y5644920D01*
D11*
D12*
X58080Y1660760D02*
X78080Y1640760D01*
X78080Y1660760D02*
X58080Y1640760D01*
X141080Y2356760D02*
X161080Y2336760D01*
X161080Y2356760D02*
X141080Y2336760D01*
X384080Y1268760D02*
X404080Y1248760D01*
X404080Y1268760D02*
X384080Y1248760D01*
X390080Y1595760D02*
X410080Y1575760D01*
X410080Y1595760D02*
X390080Y1575760D01*
X447080Y1209760D02*
X467080Y1189760D01*
X467080Y1209760D02*
X447080Y1189760D01*
X452080Y3033760D02*
X472080Y3013760D01*
X472080Y3033760D02*
X452080Y3013760D01*
X455080Y1337760D02*
X475080Y1317760D01*
X475080Y1337760D02*
X455080Y1317760D01*
X467080Y1471760D02*
X487080Y1451760D01*
X487080Y1471760D02*
X467080Y1451760D01*
X502383Y2823335D02*
X522383Y2803335D01*
X522383Y2823335D02*
X502383Y2803335D01*
X547478Y2847158D02*
X567478Y2827158D01*
X567478Y2847158D02*
X547478Y2827158D01*
X564080Y2722760D02*
X584080Y2702760D01*
X584080Y2722760D02*
X564080Y2702760D01*
X589080Y2667760D02*
X609080Y2647760D01*
X609080Y2667760D02*
X589080Y2647760D01*
X620080Y3546760D02*
X640080Y3526760D01*
X640080Y3546760D02*
X620080Y3526760D01*
X625080Y2369760D02*
X645080Y2349760D01*
X645080Y2369760D02*
X625080Y2349760D01*
X635080Y2516760D02*
X655080Y2496760D01*
X655080Y2516760D02*
X635080Y2496760D01*
X646080Y4751760D02*
X666080Y4731760D01*
X666080Y4751760D02*
X646080Y4731760D01*
X654080Y3719760D02*
X674080Y3699760D01*
X674080Y3719760D02*
X654080Y3699760D01*
X678080Y2244760D02*
X698080Y2224760D01*
X698080Y2244760D02*
X678080Y2224760D01*
X684080Y1691760D02*
X704080Y1671760D01*
X704080Y1691760D02*
X684080Y1671760D01*
X716080Y4958760D02*
X736080Y4938760D01*
X736080Y4958760D02*
X716080Y4938760D01*
X766080Y1655760D02*
X786080Y1635760D01*
X786080Y1655760D02*
X766080Y1635760D01*
X769080Y2925760D02*
X789080Y2905760D01*
X789080Y2925760D02*
X769080Y2905760D01*
X773628Y2671531D02*
X793628Y2651531D01*
X793628Y2671531D02*
X773628Y2651531D01*
X781580Y2847760D02*
X801580Y2827760D01*
X801580Y2847760D02*
X781580Y2827760D01*
X825080Y3463760D02*
X845080Y3443760D01*
X845080Y3463760D02*
X825080Y3443760D01*
X830080Y1934710D02*
X850080Y1914710D01*
X850080Y1934710D02*
X830080Y1914710D01*
X850730Y1676760D02*
X870730Y1656760D01*
X870730Y1676760D02*
X850730Y1656760D01*
X888765Y3671760D02*
X908765Y3651760D01*
X908765Y3671760D02*
X888765Y3651760D01*
X890080Y5027760D02*
X910080Y5007760D01*
X910080Y5027760D02*
X890080Y5007760D01*
X899580Y2766760D02*
X919580Y2746760D01*
X919580Y2766760D02*
X899580Y2746760D01*
X919580Y1583260D02*
X939580Y1563260D01*
X939580Y1583260D02*
X919580Y1563260D01*
X923530Y2840760D02*
X943530Y2820760D01*
X943530Y2840760D02*
X923530Y2820760D01*
X932580Y2570760D02*
X952580Y2550760D01*
X952580Y2570760D02*
X932580Y2550760D01*
X940030Y1948760D02*
X960030Y1928760D01*
X960030Y1948760D02*
X940030Y1928760D01*
X948862Y1892710D02*
X968862Y1872710D01*
X968862Y1892710D02*
X948862Y1872710D01*
X959080Y1499760D02*
X979080Y1479760D01*
X979080Y1499760D02*
X959080Y1479760D01*
X1002765Y1261760D02*
X1022765Y1241760D01*
X1022765Y1261760D02*
X1002765Y1241760D01*
X1112580Y3334760D02*
X1132580Y3314760D01*
X1132580Y3334760D02*
X1112580Y3314760D01*
X1145630Y3147344D02*
X1165630Y3127344D01*
X1165630Y3147344D02*
X1145630Y3127344D01*
X1157343Y2945211D02*
X1177343Y2925211D01*
X1177343Y2945211D02*
X1157343Y2925211D01*
X1158080Y2990760D02*
X1178080Y2970760D01*
X1178080Y2990760D02*
X1158080Y2970760D01*
X1220080Y2901760D02*
X1240080Y2881760D01*
X1240080Y2901760D02*
X1220080Y2881760D01*
X1239080Y2775760D02*
X1259080Y2755760D01*
X1259080Y2775760D02*
X1239080Y2755760D01*
X1250080Y2304760D02*
X1270080Y2284760D01*
X1270080Y2304760D02*
X1250080Y2284760D01*
X1271045Y2703220D02*
X1291045Y2683220D01*
X1291045Y2703220D02*
X1271045Y2683220D01*
X1271080Y2619760D02*
X1291080Y2599760D01*
X1291080Y2619760D02*
X1271080Y2599760D01*
X1273080Y2818760D02*
X1293080Y2798760D01*
X1293080Y2818760D02*
X1273080Y2798760D01*
X1275080Y2134760D02*
X1295080Y2114760D01*
X1295080Y2134760D02*
X1275080Y2114760D01*
X1276080Y4275760D02*
X1296080Y4255760D01*
X1296080Y4275760D02*
X1276080Y4255760D01*
X1302330Y2940531D02*
X1322330Y2920531D01*
X1322330Y2940531D02*
X1302330Y2920531D01*
X1319080Y2178760D02*
X1339080Y2158760D01*
X1339080Y2178760D02*
X1319080Y2158760D01*
X1335080Y2742082D02*
X1355080Y2722082D01*
X1355080Y2742082D02*
X1335080Y2722082D01*
X1353080Y1826760D02*
X1373080Y1806760D01*
X1373080Y1826760D02*
X1353080Y1806760D01*
X1398980Y3664282D02*
X1418980Y3644282D01*
X1418980Y3664282D02*
X1398980Y3644282D01*
X1417080Y1517760D02*
X1437080Y1497760D01*
X1437080Y1517760D02*
X1417080Y1497760D01*
X1439880Y2292681D02*
X1459880Y2272681D01*
X1459880Y2292681D02*
X1439880Y2272681D01*
X1441000Y1905000D02*
X1461000Y1885000D01*
X1461000Y1905000D02*
X1441000Y1885000D01*
X1445080Y2018760D02*
X1465080Y1998760D01*
X1465080Y2018760D02*
X1445080Y1998760D01*
X1453080Y4719760D02*
X1473080Y4699760D01*
X1473080Y4719760D02*
X1453080Y4699760D01*
X1456630Y1602429D02*
X1476630Y1582429D01*
X1476630Y1602429D02*
X1456630Y1582429D01*
X1457080Y4478082D02*
X1477080Y4458082D01*
X1477080Y4478082D02*
X1457080Y4458082D01*
X1463080Y1479760D02*
X1483080Y1459760D01*
X1483080Y1479760D02*
X1463080Y1459760D01*
X1465080Y4406082D02*
X1485080Y4386082D01*
X1485080Y4406082D02*
X1465080Y4386082D01*
X1476694Y2981590D02*
X1496694Y2961590D01*
X1496694Y2981590D02*
X1476694Y2961590D01*
X1489080Y1035760D02*
X1509080Y1015760D01*
X1509080Y1035760D02*
X1489080Y1015760D01*
X1519478Y3823152D02*
X1539478Y3803152D01*
X1539478Y3823152D02*
X1519478Y3803152D01*
X1522080Y4794760D02*
X1542080Y4774760D01*
X1542080Y4794760D02*
X1522080Y4774760D01*
X1535480Y4074612D02*
X1555480Y4054612D01*
X1555480Y4074612D02*
X1535480Y4054612D01*
X1539080Y3902082D02*
X1559080Y3882082D01*
X1559080Y3902082D02*
X1539080Y3882082D01*
X1546080Y1954760D02*
X1566080Y1934760D01*
X1566080Y1954760D02*
X1546080Y1934760D01*
X1554080Y1553760D02*
X1574080Y1533760D01*
X1574080Y1553760D02*
X1554080Y1533760D01*
X1566356Y4236096D02*
X1586356Y4216096D01*
X1586356Y4236096D02*
X1566356Y4216096D01*
X1575491Y4370775D02*
X1595491Y4350775D01*
X1595491Y4370775D02*
X1575491Y4350775D01*
X1579310Y3272674D02*
X1599310Y3252674D01*
X1599310Y3272674D02*
X1579310Y3252674D01*
X1580072Y3510672D02*
X1600072Y3490672D01*
X1600072Y3510672D02*
X1580072Y3490672D01*
X1580580Y3428630D02*
X1600580Y3408630D01*
X1600580Y3428630D02*
X1580580Y3408630D01*
X1581850Y3352430D02*
X1601850Y3332430D01*
X1601850Y3352430D02*
X1581850Y3332430D01*
X1583882Y4159532D02*
X1603882Y4139532D01*
X1603882Y4159532D02*
X1583882Y4139532D01*
X1584136Y3192488D02*
X1604136Y3172488D01*
X1604136Y3192488D02*
X1584136Y3172488D01*
X1590232Y3637926D02*
X1610232Y3617926D01*
X1610232Y3637926D02*
X1590232Y3617926D01*
X1593138Y4304090D02*
X1613138Y4284090D01*
X1613138Y4304090D02*
X1593138Y4284090D01*
X1594662Y3874968D02*
X1614662Y3854968D01*
X1614662Y3874968D02*
X1594662Y3854968D01*
X1595080Y1484760D02*
X1615080Y1464760D01*
X1615080Y1484760D02*
X1595080Y1464760D01*
X1619422Y2467541D02*
X1639422Y2447541D01*
X1639422Y2467541D02*
X1619422Y2447541D01*
X1623780Y2813282D02*
X1643780Y2793282D01*
X1643780Y2813282D02*
X1623780Y2793282D01*
X1625080Y4605082D02*
X1645080Y4585082D01*
X1645080Y4605082D02*
X1625080Y4585082D01*
X1628080Y2517082D02*
X1648080Y2497082D01*
X1648080Y2517082D02*
X1628080Y2497082D01*
X1632080Y2711482D02*
X1652080Y2691482D01*
X1652080Y2711482D02*
X1632080Y2691482D01*
X1632080Y1030760D02*
X1652080Y1010760D01*
X1652080Y1030760D02*
X1632080Y1010760D01*
X1633080Y1581760D02*
X1653080Y1561760D01*
X1653080Y1581760D02*
X1633080Y1561760D01*
X1634787Y2761885D02*
X1654787Y2741885D01*
X1654787Y2761885D02*
X1634787Y2741885D01*
X1635556Y2586680D02*
X1655556Y2566680D01*
X1655556Y2586680D02*
X1635556Y2566680D01*
X1640083Y311000D02*
X1660083Y291000D01*
X1660083Y311000D02*
X1640083Y291000D01*
X1642080Y2418760D02*
X1662080Y2398760D01*
X1662080Y2418760D02*
X1642080Y2398760D01*
X1644580Y2335760D02*
X1664580Y2315760D01*
X1664580Y2335760D02*
X1644580Y2315760D01*
X1645170Y576000D02*
X1665170Y556000D01*
X1665170Y576000D02*
X1645170Y556000D01*
X1651080Y2195760D02*
X1671080Y2175760D01*
X1671080Y2195760D02*
X1651080Y2175760D01*
X1663680Y3472682D02*
X1683680Y3452682D01*
X1683680Y3472682D02*
X1663680Y3452682D01*
X1671766Y3633354D02*
X1691766Y3613354D01*
X1691766Y3633354D02*
X1671766Y3613354D01*
X1672274Y4038484D02*
X1692274Y4018484D01*
X1692274Y4038484D02*
X1672274Y4018484D01*
X1673544Y3235082D02*
X1693544Y3215082D01*
X1693544Y3235082D02*
X1673544Y3215082D01*
X1674052Y3314838D02*
X1694052Y3294838D01*
X1694052Y3314838D02*
X1674052Y3294838D01*
X1674480Y3165482D02*
X1694480Y3145482D01*
X1694480Y3165482D02*
X1674480Y3145482D01*
X1675322Y3716666D02*
X1695322Y3696666D01*
X1695322Y3716666D02*
X1675322Y3696666D01*
X1675830Y3398912D02*
X1695830Y3378912D01*
X1695830Y3398912D02*
X1675830Y3378912D01*
X1675942Y3792926D02*
X1695942Y3772926D01*
X1695942Y3792926D02*
X1675942Y3772926D01*
X1677243Y3561851D02*
X1697243Y3541851D01*
X1697243Y3561851D02*
X1677243Y3541851D01*
X1681343Y387108D02*
X1701343Y367108D01*
X1701343Y387108D02*
X1681343Y367108D01*
X1683152Y3960716D02*
X1703152Y3940716D01*
X1703152Y3960716D02*
X1683152Y3940716D01*
X1694980Y2936482D02*
X1714980Y2916482D01*
X1714980Y2936482D02*
X1694980Y2916482D01*
X1700162Y2396260D02*
X1720162Y2376260D01*
X1720162Y2396260D02*
X1700162Y2376260D01*
X1708080Y2720082D02*
X1728080Y2700082D01*
X1728080Y2720082D02*
X1708080Y2700082D01*
X1708654Y2808452D02*
X1728654Y2788453D01*
X1728654Y2808452D02*
X1708654Y2788453D01*
X1709580Y2660082D02*
X1729580Y2640082D01*
X1729580Y2660082D02*
X1709580Y2640082D01*
X1725170Y417760D02*
X1745170Y397760D01*
X1745170Y417760D02*
X1725170Y397760D01*
X1741480Y2996482D02*
X1761480Y2976482D01*
X1761480Y2996482D02*
X1741480Y2976482D01*
X1748580Y3954260D02*
X1768580Y3934260D01*
X1768580Y3954260D02*
X1748580Y3934260D01*
X1753300Y4354460D02*
X1773300Y4334460D01*
X1773300Y4354460D02*
X1753300Y4334460D01*
X1753480Y3162382D02*
X1773480Y3142382D01*
X1773480Y3162382D02*
X1753480Y3142382D01*
X1753808Y3315600D02*
X1773808Y3295600D01*
X1773808Y3315600D02*
X1753808Y3295600D01*
X1754306Y3885071D02*
X1774306Y3865071D01*
X1774306Y3885071D02*
X1754306Y3865071D01*
X1755717Y4286596D02*
X1775717Y4266596D01*
X1775717Y4286596D02*
X1755717Y4266596D01*
X1755840Y4194440D02*
X1775840Y4174440D01*
X1775840Y4194440D02*
X1755840Y4174440D01*
X1755862Y2795508D02*
X1775862Y2775508D01*
X1775862Y2795508D02*
X1755862Y2775508D01*
X1755863Y3479382D02*
X1775863Y3459382D01*
X1775863Y3479382D02*
X1755863Y3459382D01*
X1756080Y3713682D02*
X1776080Y3693682D01*
X1776080Y3713682D02*
X1756080Y3693682D01*
X1756094Y4033404D02*
X1776094Y4013404D01*
X1776094Y4033404D02*
X1756094Y4013404D01*
X1756094Y3635132D02*
X1776094Y3615132D01*
X1776094Y3635132D02*
X1756094Y3615132D01*
X1757364Y3392370D02*
X1777364Y3372370D01*
X1777364Y3392370D02*
X1757364Y3372370D01*
X1759318Y3236606D02*
X1779318Y3216606D01*
X1779318Y3236606D02*
X1759318Y3216606D01*
X1761080Y4613532D02*
X1781080Y4593532D01*
X1781080Y4613532D02*
X1761080Y4593532D01*
X1761380Y3567582D02*
X1781380Y3547582D01*
X1781380Y3567582D02*
X1761380Y3547582D01*
X1768906Y2526736D02*
X1788906Y2506736D01*
X1788906Y2526736D02*
X1768906Y2506736D01*
X1770826Y2724796D02*
X1790826Y2704796D01*
X1790826Y2724796D02*
X1770826Y2704796D01*
X1774080Y2659082D02*
X1794080Y2639082D01*
X1794080Y2659082D02*
X1774080Y2639082D01*
X1776080Y2397082D02*
X1796080Y2377082D01*
X1796080Y2397082D02*
X1776080Y2377082D01*
X1792280Y2989282D02*
X1812280Y2969282D01*
X1812280Y2989282D02*
X1792280Y2969282D01*
X1804704Y2798756D02*
X1824704Y2778756D01*
X1824704Y2798756D02*
X1804704Y2778756D01*
X1825080Y1998760D02*
X1845080Y1978760D01*
X1845080Y1998760D02*
X1825080Y1978760D01*
X1834759Y2527944D02*
X1854759Y2507944D01*
X1854759Y2527944D02*
X1834759Y2507944D01*
X1834880Y2198882D02*
X1854880Y2178882D01*
X1854880Y2198882D02*
X1834880Y2178882D01*
X1835359Y4104016D02*
X1855359Y4084016D01*
X1855359Y4104016D02*
X1835359Y4084016D01*
X1837530Y3010582D02*
X1857530Y2990582D01*
X1857530Y3010582D02*
X1837530Y2990582D01*
X1839080Y2730282D02*
X1859080Y2710282D01*
X1859080Y2730282D02*
X1839080Y2710282D01*
X1839080Y2399082D02*
X1859080Y2379082D01*
X1859080Y2399082D02*
X1839080Y2379082D01*
X1841438Y2936886D02*
X1861438Y2916886D01*
X1861438Y2936886D02*
X1841438Y2916886D01*
X1853641Y2799906D02*
X1873641Y2779906D01*
X1873641Y2799906D02*
X1853641Y2779906D01*
X1854080Y916760D02*
X1874080Y896760D01*
X1874080Y916760D02*
X1854080Y896760D01*
X1891080Y960760D02*
X1911080Y940760D01*
X1911080Y960760D02*
X1891080Y940760D01*
X1894080Y1888760D02*
X1914080Y1868760D01*
X1914080Y1888760D02*
X1894080Y1868760D01*
X1896880Y2265482D02*
X1916880Y2245482D01*
X1916880Y2265482D02*
X1896880Y2245482D01*
X1899680Y2528381D02*
X1919680Y2508381D01*
X1919680Y2528381D02*
X1899680Y2508381D01*
X1902252Y2805660D02*
X1922252Y2785660D01*
X1922252Y2805660D02*
X1902252Y2785660D01*
X1905080Y2397082D02*
X1925080Y2377082D01*
X1925080Y2397082D02*
X1905080Y2377082D01*
X1922630Y3055532D02*
X1942630Y3035532D01*
X1942630Y3055532D02*
X1922630Y3035532D01*
X1933630Y2978882D02*
X1953630Y2958882D01*
X1953630Y2978882D02*
X1933630Y2958882D01*
X1965080Y1064760D02*
X1985080Y1044760D01*
X1985080Y1064760D02*
X1965080Y1044760D01*
X1966514Y2528133D02*
X1986514Y2508133D01*
X1986514Y2528133D02*
X1966514Y2508133D01*
X1967080Y2394082D02*
X1987080Y2374082D01*
X1987080Y2394082D02*
X1967080Y2374082D01*
X1970380Y2791682D02*
X1990380Y2771682D01*
X1990380Y2791682D02*
X1970380Y2771682D01*
X1983789Y1806199D02*
X2003789Y1786199D01*
X2003789Y1806199D02*
X1983789Y1786199D01*
X2016713Y2807473D02*
X2036713Y2787473D01*
X2036713Y2807473D02*
X2016713Y2787473D01*
X2021580Y3532282D02*
X2041580Y3512282D01*
X2041580Y3532282D02*
X2021580Y3512282D01*
X2024080Y2266760D02*
X2044080Y2246760D01*
X2044080Y2266760D02*
X2024080Y2246760D01*
X2029135Y2527970D02*
X2049135Y2507970D01*
X2049135Y2527970D02*
X2029135Y2507970D01*
X2038380Y3417582D02*
X2058380Y3397582D01*
X2058380Y3417582D02*
X2038380Y3397582D01*
X2056080Y2180760D02*
X2076080Y2160760D01*
X2076080Y2180760D02*
X2056080Y2160760D01*
X2061547Y3938543D02*
X2081547Y3918543D01*
X2081547Y3938543D02*
X2061547Y3918543D01*
X2064564Y4038796D02*
X2084564Y4018796D01*
X2084564Y4038796D02*
X2064564Y4018796D01*
X2067102Y2398466D02*
X2087102Y2378466D01*
X2087102Y2398466D02*
X2067102Y2378466D01*
X2072752Y3794424D02*
X2092752Y3774424D01*
X2092752Y3794424D02*
X2072752Y3774424D01*
X2096080Y2269082D02*
X2116080Y2249082D01*
X2116080Y2269082D02*
X2096080Y2249082D01*
X2096080Y1881760D02*
X2116080Y1861760D01*
X2116080Y1881760D02*
X2096080Y1861760D01*
X2096519Y2796122D02*
X2116519Y2776122D01*
X2116519Y2796122D02*
X2096519Y2776122D01*
X2096538Y2528350D02*
X2116538Y2508350D01*
X2116538Y2528350D02*
X2096538Y2508350D01*
X2096780Y2715382D02*
X2116780Y2695382D01*
X2116780Y2715382D02*
X2096780Y2695382D01*
X2100080Y2329082D02*
X2120080Y2309082D01*
X2120080Y2329082D02*
X2100080Y2309082D01*
X2103080Y5141760D02*
X2123080Y5121760D01*
X2123080Y5141760D02*
X2103080Y5121760D01*
X2105930Y1951532D02*
X2125930Y1931532D01*
X2125930Y1951532D02*
X2105930Y1931532D01*
X2112080Y1257760D02*
X2132080Y1237760D01*
X2132080Y1257760D02*
X2112080Y1237760D01*
X2145380Y2799082D02*
X2165380Y2779082D01*
X2165380Y2799082D02*
X2145380Y2779082D01*
X2151176Y3711392D02*
X2171176Y3691392D01*
X2171176Y3711392D02*
X2151176Y3691392D01*
X2151826Y3877194D02*
X2171826Y3857194D01*
X2171826Y3877194D02*
X2151826Y3857194D01*
X2155780Y2656282D02*
X2175780Y2636282D01*
X2175780Y2656282D02*
X2155780Y2636282D01*
X2161080Y1447760D02*
X2181080Y1427760D01*
X2181080Y1447760D02*
X2161080Y1427760D01*
X2161677Y2460759D02*
X2181677Y2440759D01*
X2181677Y2460759D02*
X2161677Y2440759D01*
X2166080Y2203760D02*
X2186080Y2183760D01*
X2186080Y2203760D02*
X2166080Y2183760D01*
X2169212Y3091605D02*
X2189212Y3071605D01*
X2189212Y3091605D02*
X2169212Y3071605D01*
X2195176Y2803955D02*
X2215176Y2783955D01*
X2215176Y2803955D02*
X2195176Y2783955D01*
X2204381Y3140229D02*
X2224381Y3120229D01*
X2224381Y3140229D02*
X2204381Y3120229D01*
X2213080Y2178760D02*
X2233080Y2158760D01*
X2233080Y2178760D02*
X2213080Y2158760D01*
X2213306Y4187451D02*
X2233306Y4167451D01*
X2233306Y4187451D02*
X2213306Y4167451D01*
X2213914Y4632650D02*
X2233914Y4612650D01*
X2233914Y4632650D02*
X2213914Y4612650D01*
X2214780Y3718082D02*
X2234780Y3698082D01*
X2234780Y3718082D02*
X2214780Y3698082D01*
X2223580Y2335082D02*
X2243580Y2315082D01*
X2243580Y2335082D02*
X2223580Y2315082D01*
X2228545Y3008702D02*
X2248545Y2988702D01*
X2248545Y3008702D02*
X2228545Y2988702D01*
X2229515Y2583147D02*
X2249515Y2563147D01*
X2249515Y2583147D02*
X2229515Y2563147D01*
X2232459Y2532021D02*
X2252459Y2512021D01*
X2252459Y2532021D02*
X2232459Y2512021D01*
X2233280Y3873582D02*
X2253280Y3853582D01*
X2253280Y3873582D02*
X2233280Y3853582D01*
X2233614Y3633862D02*
X2253614Y3613862D01*
X2253614Y3633862D02*
X2233614Y3613862D01*
X2235138Y4355222D02*
X2255138Y4335222D01*
X2255138Y4355222D02*
X2235138Y4335222D01*
X2236000Y2728000D02*
X2256000Y2708000D01*
X2256000Y2728000D02*
X2236000Y2708000D01*
X2238080Y2645760D02*
X2258080Y2625760D01*
X2258080Y2645760D02*
X2238080Y2625760D01*
X2240370Y2265146D02*
X2260370Y2245146D01*
X2260370Y2265146D02*
X2240370Y2245146D01*
X2244698Y1760976D02*
X2264698Y1740976D01*
X2264698Y1760976D02*
X2244698Y1740976D01*
X2247780Y2807082D02*
X2267780Y2787082D01*
X2267780Y2807082D02*
X2247780Y2787082D01*
X2274280Y2990482D02*
X2294280Y2970482D01*
X2294280Y2990482D02*
X2274280Y2970482D01*
X2290080Y1420760D02*
X2310080Y1400760D01*
X2310080Y1420760D02*
X2290080Y1400760D01*
X2296080Y1944760D02*
X2316080Y1924760D01*
X2316080Y1944760D02*
X2296080Y1924760D01*
X2305354Y3634938D02*
X2325354Y3614938D01*
X2325354Y3634938D02*
X2305354Y3614938D01*
X2307080Y4585082D02*
X2327080Y4565082D01*
X2327080Y4585082D02*
X2307080Y4565082D01*
X2308580Y3080260D02*
X2328580Y3060260D01*
X2328580Y3080260D02*
X2308580Y3060260D01*
X2321080Y5111760D02*
X2341080Y5091760D01*
X2341080Y5111760D02*
X2321080Y5091760D01*
X2321580Y3883182D02*
X2341580Y3863182D01*
X2341580Y3883182D02*
X2321580Y3863182D01*
X2322514Y3260228D02*
X2342514Y3240228D01*
X2342514Y3260228D02*
X2322514Y3240228D01*
X2322514Y3200538D02*
X2342514Y3180538D01*
X2342514Y3200538D02*
X2322514Y3180538D01*
X2326070Y4350904D02*
X2346070Y4330904D01*
X2346070Y4350904D02*
X2326070Y4330904D01*
X2327580Y4160260D02*
X2347580Y4140260D01*
X2347580Y4160260D02*
X2327580Y4140260D01*
X2328080Y3503082D02*
X2348080Y3483082D01*
X2348080Y3503082D02*
X2328080Y3483082D01*
X2328580Y3992260D02*
X2348580Y3972260D01*
X2348580Y3992260D02*
X2328580Y3972260D01*
X2329880Y4232540D02*
X2349880Y4212540D01*
X2349880Y4232540D02*
X2329880Y4212540D01*
X2330060Y3349466D02*
X2350060Y3329466D01*
X2350060Y3349466D02*
X2330060Y3329466D01*
X2330080Y3446082D02*
X2350080Y3426082D01*
X2350080Y3446082D02*
X2330080Y3426082D01*
X2331580Y4074260D02*
X2351580Y4054260D01*
X2351580Y4074260D02*
X2331580Y4054260D01*
X2346630Y1485344D02*
X2366630Y1465344D01*
X2366630Y1485344D02*
X2346630Y1465344D01*
X2360380Y2998682D02*
X2380380Y2978682D01*
X2380380Y2998682D02*
X2360380Y2978682D01*
X2367580Y4120260D02*
X2387580Y4100260D01*
X2387580Y4120260D02*
X2367580Y4100260D01*
X2380298Y4482522D02*
X2400298Y4462522D01*
X2400298Y4482522D02*
X2380298Y4462522D01*
X2387080Y5120760D02*
X2407080Y5100760D01*
X2407080Y5120760D02*
X2387080Y5100760D01*
X2407080Y2013082D02*
X2427080Y1993082D01*
X2427080Y2013082D02*
X2407080Y1993082D01*
X2416080Y3606082D02*
X2436080Y3586082D01*
X2436080Y3606082D02*
X2416080Y3586082D01*
X2423780Y3063482D02*
X2443780Y3043482D01*
X2443780Y3063482D02*
X2423780Y3043482D01*
X2429866Y4027548D02*
X2449866Y4007548D01*
X2449866Y4027548D02*
X2429866Y4007548D01*
X2436080Y2643225D02*
X2456080Y2623225D01*
X2456080Y2643225D02*
X2436080Y2623225D01*
X2436080Y1943760D02*
X2456080Y1923760D01*
X2456080Y1943760D02*
X2436080Y1923760D01*
X2438030Y2969014D02*
X2458030Y2949014D01*
X2458030Y2969014D02*
X2438030Y2949014D01*
X2442880Y2807082D02*
X2462880Y2787082D01*
X2462880Y2807082D02*
X2442880Y2787082D01*
X2445080Y435075D02*
X2465080Y415075D01*
X2465080Y435075D02*
X2445080Y415075D01*
X2446580Y4384582D02*
X2466580Y4364582D01*
X2466580Y4384582D02*
X2446580Y4364582D01*
X2451318Y4278320D02*
X2471318Y4258320D01*
X2471318Y4278320D02*
X2451318Y4258320D01*
X2455548Y4183614D02*
X2475548Y4163614D01*
X2475548Y4183614D02*
X2455548Y4163614D01*
X2465080Y5119760D02*
X2485080Y5099760D01*
X2485080Y5119760D02*
X2465080Y5099760D01*
X2481892Y2228260D02*
X2501892Y2208260D01*
X2501892Y2228260D02*
X2481892Y2208260D01*
X2484080Y389760D02*
X2504080Y369760D01*
X2504080Y389760D02*
X2484080Y369760D01*
X2502080Y3319760D02*
X2522080Y3299760D01*
X2522080Y3319760D02*
X2502080Y3299760D01*
X2505063Y2685294D02*
X2525063Y2665294D01*
X2525063Y2685294D02*
X2505063Y2665294D01*
X2528080Y422760D02*
X2548080Y402760D01*
X2548080Y422760D02*
X2528080Y402760D01*
X2543080Y2169760D02*
X2563080Y2149760D01*
X2563080Y2169760D02*
X2543080Y2149760D01*
X2544000Y5093000D02*
X2564000Y5073000D01*
X2564000Y5093000D02*
X2544000Y5073000D01*
X2545293Y574787D02*
X2565293Y554787D01*
X2565293Y574787D02*
X2545293Y554787D01*
X2565000Y4848000D02*
X2585000Y4828000D01*
X2585000Y4848000D02*
X2565000Y4828000D01*
X2566347Y2634225D02*
X2586347Y2614225D01*
X2586347Y2634225D02*
X2566347Y2614225D01*
X2604258Y574641D02*
X2624258Y554641D01*
X2624258Y574641D02*
X2604258Y554641D01*
X2628551Y2634225D02*
X2648551Y2614225D01*
X2648551Y2634225D02*
X2628551Y2614225D01*
X2661080Y4705760D02*
X2681080Y4685760D01*
X2681080Y4705760D02*
X2661080Y4685760D01*
X2663220Y575292D02*
X2683220Y555292D01*
X2683220Y575292D02*
X2663220Y555292D01*
X2664080Y4278082D02*
X2684080Y4258082D01*
X2684080Y4278082D02*
X2664080Y4258082D01*
X2674080Y4076760D02*
X2694080Y4056760D01*
X2694080Y4076760D02*
X2674080Y4056760D01*
X2683080Y4842760D02*
X2703080Y4822760D01*
X2703080Y4842760D02*
X2683080Y4822760D01*
X2694477Y2611863D02*
X2714477Y2591863D01*
X2714477Y2611863D02*
X2694477Y2591863D01*
X2705765Y2941760D02*
X2725765Y2921760D01*
X2725765Y2941760D02*
X2705765Y2921760D01*
X2722080Y571760D02*
X2742080Y551760D01*
X2742080Y571760D02*
X2722080Y551760D01*
X2725080Y128760D02*
X2745080Y108760D01*
X2745080Y128760D02*
X2725080Y108760D01*
X2739672Y4841268D02*
X2759672Y4821268D01*
X2759672Y4841268D02*
X2739672Y4821268D01*
X2744080Y5126760D02*
X2764080Y5106760D01*
X2764080Y5126760D02*
X2744080Y5106760D01*
X2767080Y1918760D02*
X2787080Y1898760D01*
X2787080Y1918760D02*
X2767080Y1898760D01*
X2769080Y125760D02*
X2789080Y105760D01*
X2789080Y125760D02*
X2769080Y105760D01*
X2777018Y2259784D02*
X2797018Y2239784D01*
X2797018Y2259784D02*
X2777018Y2239784D01*
X2780255Y2569466D02*
X2800255Y2549466D01*
X2800255Y2569466D02*
X2780255Y2549466D01*
X2790834Y2206760D02*
X2810834Y2186760D01*
X2810834Y2206760D02*
X2790834Y2186760D01*
X2794080Y2128760D02*
X2814080Y2108760D01*
X2814080Y2128760D02*
X2794080Y2108760D01*
X2798139Y4848917D02*
X2818139Y4828917D01*
X2818139Y4848917D02*
X2798139Y4828917D01*
X2857095Y4847884D02*
X2877095Y4827884D01*
X2877095Y4847884D02*
X2857095Y4827884D01*
X2899615Y2196409D02*
X2919615Y2176409D01*
X2919615Y2196409D02*
X2899615Y2176409D01*
X2910080Y4873760D02*
X2930080Y4853760D01*
X2930080Y4873760D02*
X2910080Y4853760D01*
X2951080Y2593760D02*
X2971080Y2573760D01*
X2971080Y2593760D02*
X2951080Y2573760D01*
X2957080Y4850760D02*
X2977080Y4830760D01*
X2977080Y4850760D02*
X2957080Y4830760D01*
X2971395Y2849760D02*
X2991395Y2829760D01*
X2991395Y2849760D02*
X2971395Y2829760D01*
X2980080Y2712760D02*
X3000080Y2692760D01*
X3000080Y2712760D02*
X2980080Y2692760D01*
X2982080Y2792760D02*
X3002080Y2772760D01*
X3002080Y2792760D02*
X2982080Y2772760D01*
X2988969Y2388756D02*
X3008969Y2368756D01*
X3008969Y2388756D02*
X2988969Y2368756D01*
X2995080Y2556760D02*
X3015080Y2536760D01*
X3015080Y2556760D02*
X2995080Y2536760D01*
X3002032Y2322932D02*
X3022032Y2302932D01*
X3022032Y2322932D02*
X3002032Y2302932D01*
X3018080Y4846760D02*
X3038080Y4826760D01*
X3038080Y4846760D02*
X3018080Y4826760D01*
X3058080Y5121760D02*
X3078080Y5101760D01*
X3078080Y5121760D02*
X3058080Y5101760D01*
X3079080Y4842760D02*
X3099080Y4822760D01*
X3099080Y4842760D02*
X3079080Y4822760D01*
X3084080Y2772760D02*
X3104080Y2752760D01*
X3104080Y2772760D02*
X3084080Y2752760D01*
X3104634Y3706860D02*
X3124634Y3686860D01*
X3124634Y3706860D02*
X3104634Y3686860D01*
X3114080Y4067760D02*
X3134080Y4047760D01*
X3134080Y4067760D02*
X3114080Y4047760D01*
X3143808Y5075164D02*
X3163808Y5055164D01*
X3163808Y5075164D02*
X3143808Y5055164D01*
X3146080Y4854760D02*
X3166080Y4834760D01*
X3166080Y4854760D02*
X3146080Y4834760D01*
X3168080Y2115575D02*
X3188080Y2095575D01*
X3188080Y2115575D02*
X3168080Y2095575D01*
X3178128Y5112889D02*
X3198128Y5092889D01*
X3198128Y5112889D02*
X3178128Y5092889D01*
X3207080Y4860760D02*
X3227080Y4840760D01*
X3227080Y4860760D02*
X3207080Y4840760D01*
X3227128Y5112889D02*
X3247128Y5092889D01*
X3247128Y5112889D02*
X3227128Y5092889D01*
X3239634Y2970760D02*
X3259634Y2950760D01*
X3259634Y2970760D02*
X3239634Y2950760D01*
X3263080Y2516760D02*
X3283080Y2496760D01*
X3283080Y2516760D02*
X3263080Y2496760D01*
X3266080Y4861760D02*
X3286080Y4841760D01*
X3286080Y4861760D02*
X3266080Y4841760D01*
X3285080Y5111760D02*
X3305080Y5091760D01*
X3305080Y5111760D02*
X3285080Y5091760D01*
X3293634Y3521760D02*
X3313634Y3501760D01*
X3313634Y3521760D02*
X3293634Y3501760D01*
X3308080Y3941760D02*
X3328080Y3921760D01*
X3328080Y3941760D02*
X3308080Y3921760D01*
X3320080Y2550760D02*
X3340080Y2530760D01*
X3340080Y2550760D02*
X3320080Y2530760D01*
X3324080Y2775760D02*
X3344080Y2755760D01*
X3344080Y2775760D02*
X3324080Y2755760D01*
X3358634Y3298760D02*
X3378634Y3278760D01*
X3378634Y3298760D02*
X3358634Y3278760D01*
X3368080Y4075760D02*
X3388080Y4055760D01*
X3388080Y4075760D02*
X3368080Y4055760D01*
X3432634Y3335860D02*
X3452634Y3315860D01*
X3452634Y3335860D02*
X3432634Y3315860D01*
X3433334Y3206360D02*
X3453334Y3186360D01*
X3453334Y3206360D02*
X3433334Y3186360D01*
X3451580Y2160260D02*
X3471580Y2140260D01*
X3471580Y2160260D02*
X3451580Y2140260D01*
X3499373Y4696829D02*
X3519373Y4676829D01*
X3519373Y4696829D02*
X3499373Y4676829D01*
X3551080Y1654760D02*
X3571080Y1634760D01*
X3571080Y1654760D02*
X3551080Y1634760D01*
X3556634Y3337960D02*
X3576634Y3317960D01*
X3576634Y3337960D02*
X3556634Y3317960D01*
X3564034Y3205460D02*
X3584034Y3185460D01*
X3584034Y3205460D02*
X3564034Y3185460D01*
X3592080Y4191860D02*
X3612080Y4171860D01*
X3612080Y4191860D02*
X3592080Y4171860D01*
X3606634Y3102760D02*
X3626634Y3082760D01*
X3626634Y3102760D02*
X3606634Y3082760D01*
X3627080Y4394760D02*
X3647080Y4374760D01*
X3647080Y4394760D02*
X3627080Y4374760D01*
X3664080Y3820760D02*
X3684080Y3800760D01*
X3684080Y3820760D02*
X3664080Y3800760D01*
X3685080Y1689760D02*
X3705080Y1669760D01*
X3705080Y1689760D02*
X3685080Y1669760D01*
X3710656Y4112709D02*
X3730656Y4092709D01*
X3730656Y4112709D02*
X3710656Y4092709D01*
X3769080Y1542760D02*
X3789080Y1522760D01*
X3789080Y1542760D02*
X3769080Y1522760D01*
X3470733Y3641560D02*
G75*
G02*
X3440733Y3641560I-15000J0D01*
G01*
X3440733Y3641560D02*
G75*
G02*
X3470733Y3641560I15000J0D01*
G01*
X3842080Y2879760D02*
X3842080Y2829760D01*
X3817080Y2854760D02*
X3867080Y2854760D01*
X3874580Y2879760D02*
X3809580Y2879760D01*
X3809580Y2829760D02*
G75*
G02*
X3809580Y2879760I0J25000D01*
G01*
X3809580Y2829760D02*
X3874580Y2829760D01*
X3874580Y2829760D02*
G75*
G03*
X3874580Y2879760I0J25000D01*
G01*
X3842080Y2179760D02*
X3842080Y2129760D01*
X3817080Y2154760D02*
X3867080Y2154760D01*
X3874580Y2179760D02*
X3809580Y2179760D01*
X3809580Y2129760D02*
G75*
G02*
X3809580Y2179760I0J25000D01*
G01*
X3809580Y2129760D02*
X3874580Y2129760D01*
X3874580Y2129760D02*
G75*
G03*
X3874580Y2179760I0J25000D01*
G01*
X3591526Y2735314D02*
X3591526Y2774206D01*
X3552634Y2774206D01*
X3552634Y2735314D01*
X3591526Y2735314D01*
X3544580Y2769760D02*
X3544580Y2739760D01*
X3599580Y2739760D02*
G75*
G02*
X3544580Y2739760I-27500J0D01*
G01*
X3599580Y2739760D02*
X3599580Y2769760D01*
X3599580Y2769760D02*
G75*
G03*
X3544580Y2769760I-27500J0D01*
G01*
X3591526Y2235314D02*
X3591526Y2274206D01*
X3552634Y2274206D01*
X3552634Y2235314D01*
X3591526Y2235314D01*
X3544580Y2269760D02*
X3544580Y2239760D01*
X3599580Y2239760D02*
G75*
G02*
X3544580Y2239760I-27500J0D01*
G01*
X3599580Y2239760D02*
X3599580Y2269760D01*
X3599580Y2269760D02*
G75*
G03*
X3544580Y2269760I-27500J0D01*
G01*
X149080Y3352760D02*
X199080Y3402760D01*
X149080Y3452760D01*
X99080Y3402760D01*
X149080Y3352760D01*
X149080Y3098760D02*
X199080Y3148760D01*
X149080Y3198760D01*
X99080Y3148760D01*
X149080Y3098760D01*
X149080Y2844760D02*
X199080Y2894760D01*
X149080Y2944760D01*
X99080Y2894760D01*
X149080Y2844760D01*
X149080Y2590760D02*
X199080Y2640760D01*
X149080Y2690760D01*
X99080Y2640760D01*
X149080Y2590760D01*
X403080Y3352760D02*
X453080Y3402760D01*
X403080Y3452760D01*
X353080Y3402760D01*
X403080Y3352760D01*
X403080Y3098760D02*
X453080Y3148760D01*
X403080Y3198760D01*
X353080Y3148760D01*
X403080Y3098760D01*
X403080Y2844760D02*
X453080Y2894760D01*
X403080Y2944760D01*
X353080Y2894760D01*
X403080Y2844760D01*
X403080Y2590760D02*
X453080Y2640760D01*
X403080Y2690760D01*
X353080Y2640760D01*
X403080Y2590760D01*
D11*
X258277Y-313984D02*
X258277Y-113984D01*
X258277Y-113984D02*
X305896Y-113984D01*
X305896Y-113984D02*
X334467Y-123508D01*
X334467Y-123508D02*
X353515Y-142555D01*
X353515Y-142555D02*
X363039Y-161603D01*
X363039Y-161603D02*
X372562Y-199698D01*
X372562Y-199698D02*
X372562Y-228269D01*
X372562Y-228269D02*
X363039Y-266365D01*
X363039Y-266365D02*
X353515Y-285412D01*
X353515Y-285412D02*
X334467Y-304460D01*
X334467Y-304460D02*
X305896Y-313984D01*
X305896Y-313984D02*
X258277Y-313984D01*
X458277Y-313984D02*
X458277Y-180650D01*
X458277Y-218746D02*
X467801Y-199698D01*
X467801Y-199698D02*
X477324Y-190174D01*
X477324Y-190174D02*
X496372Y-180650D01*
X496372Y-180650D02*
X515420Y-180650D01*
X582086Y-313984D02*
X582086Y-180650D01*
X582086Y-113984D02*
X572563Y-123508D01*
X572563Y-123508D02*
X582086Y-133031D01*
X582086Y-133031D02*
X591610Y-123508D01*
X591610Y-123508D02*
X582086Y-113984D01*
X582086Y-113984D02*
X582086Y-133031D01*
X705896Y-313984D02*
X686848Y-304460D01*
X686848Y-304460D02*
X677324Y-285412D01*
X677324Y-285412D02*
X677324Y-113984D01*
X810658Y-313984D02*
X791610Y-304460D01*
X791610Y-304460D02*
X782086Y-285412D01*
X782086Y-285412D02*
X782086Y-113984D01*
X1039229Y-313984D02*
X1039229Y-113984D01*
X1039229Y-113984D02*
X1105896Y-256841D01*
X1105896Y-256841D02*
X1172563Y-113984D01*
X1172563Y-113984D02*
X1172563Y-313984D01*
X1353515Y-313984D02*
X1353515Y-209222D01*
X1353515Y-209222D02*
X1343991Y-190174D01*
X1343991Y-190174D02*
X1324944Y-180650D01*
X1324944Y-180650D02*
X1286848Y-180650D01*
X1286848Y-180650D02*
X1267801Y-190174D01*
X1353515Y-304460D02*
X1334467Y-313984D01*
X1334467Y-313984D02*
X1286848Y-313984D01*
X1286848Y-313984D02*
X1267801Y-304460D01*
X1267801Y-304460D02*
X1258277Y-285412D01*
X1258277Y-285412D02*
X1258277Y-266365D01*
X1258277Y-266365D02*
X1267801Y-247317D01*
X1267801Y-247317D02*
X1286848Y-237793D01*
X1286848Y-237793D02*
X1334467Y-237793D01*
X1334467Y-237793D02*
X1353515Y-228269D01*
X1448753Y-180650D02*
X1448753Y-380650D01*
X1448753Y-190174D02*
X1467801Y-180650D01*
X1467801Y-180650D02*
X1505896Y-180650D01*
X1505896Y-180650D02*
X1524943Y-190174D01*
X1524943Y-190174D02*
X1534467Y-199698D01*
X1534467Y-199698D02*
X1543991Y-218746D01*
X1543991Y-218746D02*
X1543991Y-275889D01*
X1543991Y-275889D02*
X1534467Y-294936D01*
X1534467Y-294936D02*
X1524943Y-304460D01*
X1524943Y-304460D02*
X1505896Y-313984D01*
X1505896Y-313984D02*
X1467801Y-313984D01*
X1467801Y-313984D02*
X1448753Y-304460D01*
X1629705Y-294936D02*
X1639229Y-304460D01*
X1639229Y-304460D02*
X1629705Y-313984D01*
X1629705Y-313984D02*
X1620182Y-304460D01*
X1620182Y-304460D02*
X1629705Y-294936D01*
X1629705Y-294936D02*
X1629705Y-313984D01*
X1629705Y-190174D02*
X1639229Y-199698D01*
X1639229Y-199698D02*
X1629705Y-209222D01*
X1629705Y-209222D02*
X1620182Y-199698D01*
X1620182Y-199698D02*
X1629705Y-190174D01*
X1629705Y-190174D02*
X1629705Y-209222D01*
D12*
X-22500Y-632500D02*
X-2500Y-652500D01*
X-2500Y-632500D02*
X-22500Y-652500D01*
D11*
X296372Y-533984D02*
X315420Y-533984D01*
X315420Y-533984D02*
X334467Y-543508D01*
X334467Y-543508D02*
X343991Y-553031D01*
X343991Y-553031D02*
X353515Y-572079D01*
X353515Y-572079D02*
X363039Y-610174D01*
X363039Y-610174D02*
X363039Y-657793D01*
X363039Y-657793D02*
X353515Y-695889D01*
X353515Y-695889D02*
X343991Y-714936D01*
X343991Y-714936D02*
X334467Y-724460D01*
X334467Y-724460D02*
X315420Y-733984D01*
X315420Y-733984D02*
X296372Y-733984D01*
X296372Y-733984D02*
X277324Y-724460D01*
X277324Y-724460D02*
X267801Y-714936D01*
X267801Y-714936D02*
X258277Y-695889D01*
X258277Y-695889D02*
X248753Y-657793D01*
X248753Y-657793D02*
X248753Y-610174D01*
X248753Y-610174D02*
X258277Y-572079D01*
X258277Y-572079D02*
X267801Y-553031D01*
X267801Y-553031D02*
X277324Y-543508D01*
X277324Y-543508D02*
X296372Y-533984D01*
X448753Y-714936D02*
X458277Y-724460D01*
X458277Y-724460D02*
X448753Y-733984D01*
X448753Y-733984D02*
X439229Y-724460D01*
X439229Y-724460D02*
X448753Y-714936D01*
X448753Y-714936D02*
X448753Y-733984D01*
X534467Y-553031D02*
X543991Y-543508D01*
X543991Y-543508D02*
X563039Y-533984D01*
X563039Y-533984D02*
X610658Y-533984D01*
X610658Y-533984D02*
X629705Y-543508D01*
X629705Y-543508D02*
X639229Y-553031D01*
X639229Y-553031D02*
X648753Y-572079D01*
X648753Y-572079D02*
X648753Y-591127D01*
X648753Y-591127D02*
X639229Y-619698D01*
X639229Y-619698D02*
X524944Y-733984D01*
X524944Y-733984D02*
X648753Y-733984D01*
X772562Y-533984D02*
X791610Y-533984D01*
X791610Y-533984D02*
X810658Y-543508D01*
X810658Y-543508D02*
X820182Y-553031D01*
X820182Y-553031D02*
X829705Y-572079D01*
X829705Y-572079D02*
X839229Y-610174D01*
X839229Y-610174D02*
X839229Y-657793D01*
X839229Y-657793D02*
X829705Y-695889D01*
X829705Y-695889D02*
X820182Y-714936D01*
X820182Y-714936D02*
X810658Y-724460D01*
X810658Y-724460D02*
X791610Y-733984D01*
X791610Y-733984D02*
X772562Y-733984D01*
X772562Y-733984D02*
X753515Y-724460D01*
X753515Y-724460D02*
X743991Y-714936D01*
X743991Y-714936D02*
X734467Y-695889D01*
X734467Y-695889D02*
X724943Y-657793D01*
X724943Y-657793D02*
X724943Y-610174D01*
X724943Y-610174D02*
X734467Y-572079D01*
X734467Y-572079D02*
X743991Y-553031D01*
X743991Y-553031D02*
X753515Y-543508D01*
X753515Y-543508D02*
X772562Y-533984D01*
X963039Y-533984D02*
X982086Y-533984D01*
X982086Y-533984D02*
X1001134Y-543508D01*
X1001134Y-543508D02*
X1010658Y-553031D01*
X1010658Y-553031D02*
X1020182Y-572079D01*
X1020182Y-572079D02*
X1029705Y-610174D01*
X1029705Y-610174D02*
X1029705Y-657793D01*
X1029705Y-657793D02*
X1020182Y-695889D01*
X1020182Y-695889D02*
X1010658Y-714936D01*
X1010658Y-714936D02*
X1001134Y-724460D01*
X1001134Y-724460D02*
X982086Y-733984D01*
X982086Y-733984D02*
X963039Y-733984D01*
X963039Y-733984D02*
X943991Y-724460D01*
X943991Y-724460D02*
X934467Y-714936D01*
X934467Y-714936D02*
X924943Y-695889D01*
X924943Y-695889D02*
X915420Y-657793D01*
X915420Y-657793D02*
X915420Y-610174D01*
X915420Y-610174D02*
X924943Y-572079D01*
X924943Y-572079D02*
X934467Y-553031D01*
X934467Y-553031D02*
X943991Y-543508D01*
X943991Y-543508D02*
X963039Y-533984D01*
X1115420Y-733984D02*
X1115420Y-600650D01*
X1115420Y-619698D02*
X1124944Y-610174D01*
X1124944Y-610174D02*
X1143991Y-600650D01*
X1143991Y-600650D02*
X1172563Y-600650D01*
X1172563Y-600650D02*
X1191610Y-610174D01*
X1191610Y-610174D02*
X1201134Y-629222D01*
X1201134Y-629222D02*
X1201134Y-733984D01*
X1201134Y-629222D02*
X1210658Y-610174D01*
X1210658Y-610174D02*
X1229705Y-600650D01*
X1229705Y-600650D02*
X1258277Y-600650D01*
X1258277Y-600650D02*
X1277325Y-610174D01*
X1277325Y-610174D02*
X1286848Y-629222D01*
X1286848Y-629222D02*
X1286848Y-733984D01*
X1382086Y-733984D02*
X1382086Y-600650D01*
X1382086Y-619698D02*
X1391610Y-610174D01*
X1391610Y-610174D02*
X1410658Y-600650D01*
X1410658Y-600650D02*
X1439229Y-600650D01*
X1439229Y-600650D02*
X1458277Y-610174D01*
X1458277Y-610174D02*
X1467801Y-629222D01*
X1467801Y-629222D02*
X1467801Y-733984D01*
X1467801Y-629222D02*
X1477324Y-610174D01*
X1477324Y-610174D02*
X1496372Y-600650D01*
X1496372Y-600650D02*
X1524943Y-600650D01*
X1524943Y-600650D02*
X1543991Y-610174D01*
X1543991Y-610174D02*
X1553515Y-629222D01*
X1553515Y-629222D02*
X1553515Y-733984D01*
X1943991Y-524460D02*
X1772563Y-781603D01*
X2201134Y-533984D02*
X2220182Y-533984D01*
X2220182Y-533984D02*
X2239229Y-543508D01*
X2239229Y-543508D02*
X2248753Y-553031D01*
X2248753Y-553031D02*
X2258277Y-572079D01*
X2258277Y-572079D02*
X2267801Y-610174D01*
X2267801Y-610174D02*
X2267801Y-657793D01*
X2267801Y-657793D02*
X2258277Y-695889D01*
X2258277Y-695889D02*
X2248753Y-714936D01*
X2248753Y-714936D02*
X2239229Y-724460D01*
X2239229Y-724460D02*
X2220182Y-733984D01*
X2220182Y-733984D02*
X2201134Y-733984D01*
X2201134Y-733984D02*
X2182087Y-724460D01*
X2182087Y-724460D02*
X2172563Y-714936D01*
X2172563Y-714936D02*
X2163039Y-695889D01*
X2163039Y-695889D02*
X2153515Y-657793D01*
X2153515Y-657793D02*
X2153515Y-610174D01*
X2153515Y-610174D02*
X2163039Y-572079D01*
X2163039Y-572079D02*
X2172563Y-553031D01*
X2172563Y-553031D02*
X2182087Y-543508D01*
X2182087Y-543508D02*
X2201134Y-533984D01*
X2353515Y-714936D02*
X2363039Y-724460D01*
X2363039Y-724460D02*
X2353515Y-733984D01*
X2353515Y-733984D02*
X2343991Y-724460D01*
X2343991Y-724460D02*
X2353515Y-714936D01*
X2353515Y-714936D02*
X2353515Y-733984D01*
X2486848Y-533984D02*
X2505896Y-533984D01*
X2505896Y-533984D02*
X2524944Y-543508D01*
X2524944Y-543508D02*
X2534468Y-553031D01*
X2534468Y-553031D02*
X2543991Y-572079D01*
X2543991Y-572079D02*
X2553515Y-610174D01*
X2553515Y-610174D02*
X2553515Y-657793D01*
X2553515Y-657793D02*
X2543991Y-695889D01*
X2543991Y-695889D02*
X2534468Y-714936D01*
X2534468Y-714936D02*
X2524944Y-724460D01*
X2524944Y-724460D02*
X2505896Y-733984D01*
X2505896Y-733984D02*
X2486848Y-733984D01*
X2486848Y-733984D02*
X2467801Y-724460D01*
X2467801Y-724460D02*
X2458277Y-714936D01*
X2458277Y-714936D02*
X2448753Y-695889D01*
X2448753Y-695889D02*
X2439229Y-657793D01*
X2439229Y-657793D02*
X2439229Y-610174D01*
X2439229Y-610174D02*
X2448753Y-572079D01*
X2448753Y-572079D02*
X2458277Y-553031D01*
X2458277Y-553031D02*
X2467801Y-543508D01*
X2467801Y-543508D02*
X2486848Y-533984D01*
X2677325Y-533984D02*
X2696372Y-533984D01*
X2696372Y-533984D02*
X2715420Y-543508D01*
X2715420Y-543508D02*
X2724944Y-553031D01*
X2724944Y-553031D02*
X2734468Y-572079D01*
X2734468Y-572079D02*
X2743991Y-610174D01*
X2743991Y-610174D02*
X2743991Y-657793D01*
X2743991Y-657793D02*
X2734468Y-695889D01*
X2734468Y-695889D02*
X2724944Y-714936D01*
X2724944Y-714936D02*
X2715420Y-724460D01*
X2715420Y-724460D02*
X2696372Y-733984D01*
X2696372Y-733984D02*
X2677325Y-733984D01*
X2677325Y-733984D02*
X2658277Y-724460D01*
X2658277Y-724460D02*
X2648753Y-714936D01*
X2648753Y-714936D02*
X2639229Y-695889D01*
X2639229Y-695889D02*
X2629706Y-657793D01*
X2629706Y-657793D02*
X2629706Y-610174D01*
X2629706Y-610174D02*
X2639229Y-572079D01*
X2639229Y-572079D02*
X2648753Y-553031D01*
X2648753Y-553031D02*
X2658277Y-543508D01*
X2658277Y-543508D02*
X2677325Y-533984D01*
X2810658Y-533984D02*
X2943991Y-533984D01*
X2943991Y-533984D02*
X2858277Y-733984D01*
X3029706Y-733984D02*
X3067801Y-733984D01*
X3067801Y-733984D02*
X3086848Y-724460D01*
X3086848Y-724460D02*
X3096372Y-714936D01*
X3096372Y-714936D02*
X3115420Y-686365D01*
X3115420Y-686365D02*
X3124944Y-648270D01*
X3124944Y-648270D02*
X3124944Y-572079D01*
X3124944Y-572079D02*
X3115420Y-553031D01*
X3115420Y-553031D02*
X3105896Y-543508D01*
X3105896Y-543508D02*
X3086848Y-533984D01*
X3086848Y-533984D02*
X3048753Y-533984D01*
X3048753Y-533984D02*
X3029706Y-543508D01*
X3029706Y-543508D02*
X3020182Y-553031D01*
X3020182Y-553031D02*
X3010658Y-572079D01*
X3010658Y-572079D02*
X3010658Y-619698D01*
X3010658Y-619698D02*
X3020182Y-638746D01*
X3020182Y-638746D02*
X3029706Y-648270D01*
X3029706Y-648270D02*
X3048753Y-657793D01*
X3048753Y-657793D02*
X3086848Y-657793D01*
X3086848Y-657793D02*
X3105896Y-648270D01*
X3105896Y-648270D02*
X3115420Y-638746D01*
X3115420Y-638746D02*
X3124944Y-619698D01*
X3201134Y-533984D02*
X3201134Y-572079D01*
X3277325Y-533984D02*
X3277325Y-572079D01*
X3572563Y-810174D02*
X3563039Y-800650D01*
X3563039Y-800650D02*
X3543991Y-772079D01*
X3543991Y-772079D02*
X3534468Y-753031D01*
X3534468Y-753031D02*
X3524944Y-724460D01*
X3524944Y-724460D02*
X3515420Y-676841D01*
X3515420Y-676841D02*
X3515420Y-638746D01*
X3515420Y-638746D02*
X3524944Y-591127D01*
X3524944Y-591127D02*
X3534468Y-562555D01*
X3534468Y-562555D02*
X3543991Y-543508D01*
X3543991Y-543508D02*
X3563039Y-514936D01*
X3563039Y-514936D02*
X3572563Y-505412D01*
X3629706Y-533984D02*
X3753515Y-533984D01*
X3753515Y-533984D02*
X3686848Y-610174D01*
X3686848Y-610174D02*
X3715420Y-610174D01*
X3715420Y-610174D02*
X3734468Y-619698D01*
X3734468Y-619698D02*
X3743991Y-629222D01*
X3743991Y-629222D02*
X3753515Y-648270D01*
X3753515Y-648270D02*
X3753515Y-695889D01*
X3753515Y-695889D02*
X3743991Y-714936D01*
X3743991Y-714936D02*
X3734468Y-724460D01*
X3734468Y-724460D02*
X3715420Y-733984D01*
X3715420Y-733984D02*
X3658277Y-733984D01*
X3658277Y-733984D02*
X3639229Y-724460D01*
X3639229Y-724460D02*
X3629706Y-714936D01*
X3943991Y-733984D02*
X3829706Y-733984D01*
X3886848Y-733984D02*
X3886848Y-533984D01*
X3886848Y-533984D02*
X3867801Y-562555D01*
X3867801Y-562555D02*
X3848753Y-581603D01*
X3848753Y-581603D02*
X3829706Y-591127D01*
X4039229Y-733984D02*
X4077325Y-733984D01*
X4077325Y-733984D02*
X4096372Y-724460D01*
X4096372Y-724460D02*
X4105896Y-714936D01*
X4105896Y-714936D02*
X4124944Y-686365D01*
X4124944Y-686365D02*
X4134468Y-648270D01*
X4134468Y-648270D02*
X4134468Y-572079D01*
X4134468Y-572079D02*
X4124944Y-553031D01*
X4124944Y-553031D02*
X4115420Y-543508D01*
X4115420Y-543508D02*
X4096372Y-533984D01*
X4096372Y-533984D02*
X4058277Y-533984D01*
X4058277Y-533984D02*
X4039229Y-543508D01*
X4039229Y-543508D02*
X4029706Y-553031D01*
X4029706Y-553031D02*
X4020182Y-572079D01*
X4020182Y-572079D02*
X4020182Y-619698D01*
X4020182Y-619698D02*
X4029706Y-638746D01*
X4029706Y-638746D02*
X4039229Y-648270D01*
X4039229Y-648270D02*
X4058277Y-657793D01*
X4058277Y-657793D02*
X4096372Y-657793D01*
X4096372Y-657793D02*
X4115420Y-648270D01*
X4115420Y-648270D02*
X4124944Y-638746D01*
X4124944Y-638746D02*
X4134468Y-619698D01*
X4372563Y-733984D02*
X4372563Y-533984D01*
X4458277Y-733984D02*
X4458277Y-629222D01*
X4458277Y-629222D02*
X4448753Y-610174D01*
X4448753Y-610174D02*
X4429706Y-600650D01*
X4429706Y-600650D02*
X4401134Y-600650D01*
X4401134Y-600650D02*
X4382087Y-610174D01*
X4382087Y-610174D02*
X4372563Y-619698D01*
X4582087Y-733984D02*
X4563039Y-724460D01*
X4563039Y-724460D02*
X4553515Y-714936D01*
X4553515Y-714936D02*
X4543992Y-695889D01*
X4543992Y-695889D02*
X4543992Y-638746D01*
X4543992Y-638746D02*
X4553515Y-619698D01*
X4553515Y-619698D02*
X4563039Y-610174D01*
X4563039Y-610174D02*
X4582087Y-600650D01*
X4582087Y-600650D02*
X4610658Y-600650D01*
X4610658Y-600650D02*
X4629706Y-610174D01*
X4629706Y-610174D02*
X4639230Y-619698D01*
X4639230Y-619698D02*
X4648753Y-638746D01*
X4648753Y-638746D02*
X4648753Y-695889D01*
X4648753Y-695889D02*
X4639230Y-714936D01*
X4639230Y-714936D02*
X4629706Y-724460D01*
X4629706Y-724460D02*
X4610658Y-733984D01*
X4610658Y-733984D02*
X4582087Y-733984D01*
X4763039Y-733984D02*
X4743992Y-724460D01*
X4743992Y-724460D02*
X4734468Y-705412D01*
X4734468Y-705412D02*
X4734468Y-533984D01*
X4915420Y-724460D02*
X4896373Y-733984D01*
X4896373Y-733984D02*
X4858277Y-733984D01*
X4858277Y-733984D02*
X4839230Y-724460D01*
X4839230Y-724460D02*
X4829706Y-705412D01*
X4829706Y-705412D02*
X4829706Y-629222D01*
X4829706Y-629222D02*
X4839230Y-610174D01*
X4839230Y-610174D02*
X4858277Y-600650D01*
X4858277Y-600650D02*
X4896373Y-600650D01*
X4896373Y-600650D02*
X4915420Y-610174D01*
X4915420Y-610174D02*
X4924944Y-629222D01*
X4924944Y-629222D02*
X4924944Y-648270D01*
X4924944Y-648270D02*
X4829706Y-667317D01*
X5001134Y-724460D02*
X5020182Y-733984D01*
X5020182Y-733984D02*
X5058277Y-733984D01*
X5058277Y-733984D02*
X5077325Y-724460D01*
X5077325Y-724460D02*
X5086849Y-705412D01*
X5086849Y-705412D02*
X5086849Y-695889D01*
X5086849Y-695889D02*
X5077325Y-676841D01*
X5077325Y-676841D02*
X5058277Y-667317D01*
X5058277Y-667317D02*
X5029706Y-667317D01*
X5029706Y-667317D02*
X5010658Y-657793D01*
X5010658Y-657793D02*
X5001134Y-638746D01*
X5001134Y-638746D02*
X5001134Y-629222D01*
X5001134Y-629222D02*
X5010658Y-610174D01*
X5010658Y-610174D02*
X5029706Y-600650D01*
X5029706Y-600650D02*
X5058277Y-600650D01*
X5058277Y-600650D02*
X5077325Y-610174D01*
X5153515Y-810174D02*
X5163039Y-800650D01*
X5163039Y-800650D02*
X5182087Y-772079D01*
X5182087Y-772079D02*
X5191611Y-753031D01*
X5191611Y-753031D02*
X5201134Y-724460D01*
X5201134Y-724460D02*
X5210658Y-676841D01*
X5210658Y-676841D02*
X5210658Y-638746D01*
X5210658Y-638746D02*
X5201134Y-591127D01*
X5201134Y-591127D02*
X5191611Y-562555D01*
X5191611Y-562555D02*
X5182087Y-543508D01*
X5182087Y-543508D02*
X5163039Y-514936D01*
X5163039Y-514936D02*
X5153515Y-505412D01*
D12*
X-2500Y-906500D02*
G75*
G02*
X-32500Y-906500I-15000J0D01*
G01*
X-32500Y-906500D02*
G75*
G02*
X-2500Y-906500I15000J0D01*
G01*
D11*
X296372Y-797984D02*
X315420Y-797984D01*
X315420Y-797984D02*
X334467Y-807508D01*
X334467Y-807508D02*
X343991Y-817031D01*
X343991Y-817031D02*
X353515Y-836079D01*
X353515Y-836079D02*
X363039Y-874174D01*
X363039Y-874174D02*
X363039Y-921793D01*
X363039Y-921793D02*
X353515Y-959888D01*
X353515Y-959888D02*
X343991Y-978936D01*
X343991Y-978936D02*
X334467Y-988460D01*
X334467Y-988460D02*
X315420Y-997984D01*
X315420Y-997984D02*
X296372Y-997984D01*
X296372Y-997984D02*
X277324Y-988460D01*
X277324Y-988460D02*
X267801Y-978936D01*
X267801Y-978936D02*
X258277Y-959888D01*
X258277Y-959888D02*
X248753Y-921793D01*
X248753Y-921793D02*
X248753Y-874174D01*
X248753Y-874174D02*
X258277Y-836079D01*
X258277Y-836079D02*
X267801Y-817031D01*
X267801Y-817031D02*
X277324Y-807508D01*
X277324Y-807508D02*
X296372Y-797984D01*
X448753Y-978936D02*
X458277Y-988460D01*
X458277Y-988460D02*
X448753Y-997984D01*
X448753Y-997984D02*
X439229Y-988460D01*
X439229Y-988460D02*
X448753Y-978936D01*
X448753Y-978936D02*
X448753Y-997984D01*
X524944Y-797984D02*
X648753Y-797984D01*
X648753Y-797984D02*
X582086Y-874174D01*
X582086Y-874174D02*
X610658Y-874174D01*
X610658Y-874174D02*
X629705Y-883698D01*
X629705Y-883698D02*
X639229Y-893222D01*
X639229Y-893222D02*
X648753Y-912269D01*
X648753Y-912269D02*
X648753Y-959888D01*
X648753Y-959888D02*
X639229Y-978936D01*
X639229Y-978936D02*
X629705Y-988460D01*
X629705Y-988460D02*
X610658Y-997984D01*
X610658Y-997984D02*
X553515Y-997984D01*
X553515Y-997984D02*
X534467Y-988460D01*
X534467Y-988460D02*
X524944Y-978936D01*
X772562Y-797984D02*
X791610Y-797984D01*
X791610Y-797984D02*
X810658Y-807508D01*
X810658Y-807508D02*
X820182Y-817031D01*
X820182Y-817031D02*
X829705Y-836079D01*
X829705Y-836079D02*
X839229Y-874174D01*
X839229Y-874174D02*
X839229Y-921793D01*
X839229Y-921793D02*
X829705Y-959888D01*
X829705Y-959888D02*
X820182Y-978936D01*
X820182Y-978936D02*
X810658Y-988460D01*
X810658Y-988460D02*
X791610Y-997984D01*
X791610Y-997984D02*
X772562Y-997984D01*
X772562Y-997984D02*
X753515Y-988460D01*
X753515Y-988460D02*
X743991Y-978936D01*
X743991Y-978936D02*
X734467Y-959888D01*
X734467Y-959888D02*
X724943Y-921793D01*
X724943Y-921793D02*
X724943Y-874174D01*
X724943Y-874174D02*
X734467Y-836079D01*
X734467Y-836079D02*
X743991Y-817031D01*
X743991Y-817031D02*
X753515Y-807508D01*
X753515Y-807508D02*
X772562Y-797984D01*
X963039Y-797984D02*
X982086Y-797984D01*
X982086Y-797984D02*
X1001134Y-807508D01*
X1001134Y-807508D02*
X1010658Y-817031D01*
X1010658Y-817031D02*
X1020182Y-836079D01*
X1020182Y-836079D02*
X1029705Y-874174D01*
X1029705Y-874174D02*
X1029705Y-921793D01*
X1029705Y-921793D02*
X1020182Y-959888D01*
X1020182Y-959888D02*
X1010658Y-978936D01*
X1010658Y-978936D02*
X1001134Y-988460D01*
X1001134Y-988460D02*
X982086Y-997984D01*
X982086Y-997984D02*
X963039Y-997984D01*
X963039Y-997984D02*
X943991Y-988460D01*
X943991Y-988460D02*
X934467Y-978936D01*
X934467Y-978936D02*
X924943Y-959888D01*
X924943Y-959888D02*
X915420Y-921793D01*
X915420Y-921793D02*
X915420Y-874174D01*
X915420Y-874174D02*
X924943Y-836079D01*
X924943Y-836079D02*
X934467Y-817031D01*
X934467Y-817031D02*
X943991Y-807508D01*
X943991Y-807508D02*
X963039Y-797984D01*
X1115420Y-997984D02*
X1115420Y-864650D01*
X1115420Y-883698D02*
X1124944Y-874174D01*
X1124944Y-874174D02*
X1143991Y-864650D01*
X1143991Y-864650D02*
X1172563Y-864650D01*
X1172563Y-864650D02*
X1191610Y-874174D01*
X1191610Y-874174D02*
X1201134Y-893222D01*
X1201134Y-893222D02*
X1201134Y-997984D01*
X1201134Y-893222D02*
X1210658Y-874174D01*
X1210658Y-874174D02*
X1229705Y-864650D01*
X1229705Y-864650D02*
X1258277Y-864650D01*
X1258277Y-864650D02*
X1277325Y-874174D01*
X1277325Y-874174D02*
X1286848Y-893222D01*
X1286848Y-893222D02*
X1286848Y-997984D01*
X1382086Y-997984D02*
X1382086Y-864650D01*
X1382086Y-883698D02*
X1391610Y-874174D01*
X1391610Y-874174D02*
X1410658Y-864650D01*
X1410658Y-864650D02*
X1439229Y-864650D01*
X1439229Y-864650D02*
X1458277Y-874174D01*
X1458277Y-874174D02*
X1467801Y-893222D01*
X1467801Y-893222D02*
X1467801Y-997984D01*
X1467801Y-893222D02*
X1477324Y-874174D01*
X1477324Y-874174D02*
X1496372Y-864650D01*
X1496372Y-864650D02*
X1524943Y-864650D01*
X1524943Y-864650D02*
X1543991Y-874174D01*
X1543991Y-874174D02*
X1553515Y-893222D01*
X1553515Y-893222D02*
X1553515Y-997984D01*
X1943991Y-788460D02*
X1772563Y-1045603D01*
X2201134Y-797984D02*
X2220182Y-797984D01*
X2220182Y-797984D02*
X2239229Y-807508D01*
X2239229Y-807508D02*
X2248753Y-817031D01*
X2248753Y-817031D02*
X2258277Y-836079D01*
X2258277Y-836079D02*
X2267801Y-874174D01*
X2267801Y-874174D02*
X2267801Y-921793D01*
X2267801Y-921793D02*
X2258277Y-959888D01*
X2258277Y-959888D02*
X2248753Y-978936D01*
X2248753Y-978936D02*
X2239229Y-988460D01*
X2239229Y-988460D02*
X2220182Y-997984D01*
X2220182Y-997984D02*
X2201134Y-997984D01*
X2201134Y-997984D02*
X2182087Y-988460D01*
X2182087Y-988460D02*
X2172563Y-978936D01*
X2172563Y-978936D02*
X2163039Y-959888D01*
X2163039Y-959888D02*
X2153515Y-921793D01*
X2153515Y-921793D02*
X2153515Y-874174D01*
X2153515Y-874174D02*
X2163039Y-836079D01*
X2163039Y-836079D02*
X2172563Y-817031D01*
X2172563Y-817031D02*
X2182087Y-807508D01*
X2182087Y-807508D02*
X2201134Y-797984D01*
X2353515Y-978936D02*
X2363039Y-988460D01*
X2363039Y-988460D02*
X2353515Y-997984D01*
X2353515Y-997984D02*
X2343991Y-988460D01*
X2343991Y-988460D02*
X2353515Y-978936D01*
X2353515Y-978936D02*
X2353515Y-997984D01*
X2486848Y-797984D02*
X2505896Y-797984D01*
X2505896Y-797984D02*
X2524944Y-807508D01*
X2524944Y-807508D02*
X2534468Y-817031D01*
X2534468Y-817031D02*
X2543991Y-836079D01*
X2543991Y-836079D02*
X2553515Y-874174D01*
X2553515Y-874174D02*
X2553515Y-921793D01*
X2553515Y-921793D02*
X2543991Y-959888D01*
X2543991Y-959888D02*
X2534468Y-978936D01*
X2534468Y-978936D02*
X2524944Y-988460D01*
X2524944Y-988460D02*
X2505896Y-997984D01*
X2505896Y-997984D02*
X2486848Y-997984D01*
X2486848Y-997984D02*
X2467801Y-988460D01*
X2467801Y-988460D02*
X2458277Y-978936D01*
X2458277Y-978936D02*
X2448753Y-959888D01*
X2448753Y-959888D02*
X2439229Y-921793D01*
X2439229Y-921793D02*
X2439229Y-874174D01*
X2439229Y-874174D02*
X2448753Y-836079D01*
X2448753Y-836079D02*
X2458277Y-817031D01*
X2458277Y-817031D02*
X2467801Y-807508D01*
X2467801Y-807508D02*
X2486848Y-797984D01*
X2743991Y-997984D02*
X2629706Y-997984D01*
X2686848Y-997984D02*
X2686848Y-797984D01*
X2686848Y-797984D02*
X2667801Y-826555D01*
X2667801Y-826555D02*
X2648753Y-845603D01*
X2648753Y-845603D02*
X2629706Y-855127D01*
X2934467Y-997984D02*
X2820182Y-997984D01*
X2877325Y-997984D02*
X2877325Y-797984D01*
X2877325Y-797984D02*
X2858277Y-826555D01*
X2858277Y-826555D02*
X2839229Y-845603D01*
X2839229Y-845603D02*
X2820182Y-855127D01*
X3048753Y-883698D02*
X3029706Y-874174D01*
X3029706Y-874174D02*
X3020182Y-864650D01*
X3020182Y-864650D02*
X3010658Y-845603D01*
X3010658Y-845603D02*
X3010658Y-836079D01*
X3010658Y-836079D02*
X3020182Y-817031D01*
X3020182Y-817031D02*
X3029706Y-807508D01*
X3029706Y-807508D02*
X3048753Y-797984D01*
X3048753Y-797984D02*
X3086848Y-797984D01*
X3086848Y-797984D02*
X3105896Y-807508D01*
X3105896Y-807508D02*
X3115420Y-817031D01*
X3115420Y-817031D02*
X3124944Y-836079D01*
X3124944Y-836079D02*
X3124944Y-845603D01*
X3124944Y-845603D02*
X3115420Y-864650D01*
X3115420Y-864650D02*
X3105896Y-874174D01*
X3105896Y-874174D02*
X3086848Y-883698D01*
X3086848Y-883698D02*
X3048753Y-883698D01*
X3048753Y-883698D02*
X3029706Y-893222D01*
X3029706Y-893222D02*
X3020182Y-902746D01*
X3020182Y-902746D02*
X3010658Y-921793D01*
X3010658Y-921793D02*
X3010658Y-959888D01*
X3010658Y-959888D02*
X3020182Y-978936D01*
X3020182Y-978936D02*
X3029706Y-988460D01*
X3029706Y-988460D02*
X3048753Y-997984D01*
X3048753Y-997984D02*
X3086848Y-997984D01*
X3086848Y-997984D02*
X3105896Y-988460D01*
X3105896Y-988460D02*
X3115420Y-978936D01*
X3115420Y-978936D02*
X3124944Y-959888D01*
X3124944Y-959888D02*
X3124944Y-921793D01*
X3124944Y-921793D02*
X3115420Y-902746D01*
X3115420Y-902746D02*
X3105896Y-893222D01*
X3105896Y-893222D02*
X3086848Y-883698D01*
X3201134Y-797984D02*
X3201134Y-836079D01*
X3277325Y-797984D02*
X3277325Y-836079D01*
X3572563Y-1074174D02*
X3563039Y-1064650D01*
X3563039Y-1064650D02*
X3543991Y-1036079D01*
X3543991Y-1036079D02*
X3534468Y-1017031D01*
X3534468Y-1017031D02*
X3524944Y-988460D01*
X3524944Y-988460D02*
X3515420Y-940841D01*
X3515420Y-940841D02*
X3515420Y-902746D01*
X3515420Y-902746D02*
X3524944Y-855127D01*
X3524944Y-855127D02*
X3534468Y-826555D01*
X3534468Y-826555D02*
X3543991Y-807508D01*
X3543991Y-807508D02*
X3563039Y-778936D01*
X3563039Y-778936D02*
X3572563Y-769412D01*
X3753515Y-997984D02*
X3639229Y-997984D01*
X3696372Y-997984D02*
X3696372Y-797984D01*
X3696372Y-797984D02*
X3677325Y-826555D01*
X3677325Y-826555D02*
X3658277Y-845603D01*
X3658277Y-845603D02*
X3639229Y-855127D01*
X3991610Y-997984D02*
X3991610Y-797984D01*
X4077325Y-997984D02*
X4077325Y-893222D01*
X4077325Y-893222D02*
X4067801Y-874174D01*
X4067801Y-874174D02*
X4048753Y-864650D01*
X4048753Y-864650D02*
X4020182Y-864650D01*
X4020182Y-864650D02*
X4001134Y-874174D01*
X4001134Y-874174D02*
X3991610Y-883698D01*
X4201134Y-997984D02*
X4182087Y-988460D01*
X4182087Y-988460D02*
X4172563Y-978936D01*
X4172563Y-978936D02*
X4163039Y-959888D01*
X4163039Y-959888D02*
X4163039Y-902746D01*
X4163039Y-902746D02*
X4172563Y-883698D01*
X4172563Y-883698D02*
X4182087Y-874174D01*
X4182087Y-874174D02*
X4201134Y-864650D01*
X4201134Y-864650D02*
X4229706Y-864650D01*
X4229706Y-864650D02*
X4248753Y-874174D01*
X4248753Y-874174D02*
X4258277Y-883698D01*
X4258277Y-883698D02*
X4267801Y-902746D01*
X4267801Y-902746D02*
X4267801Y-959888D01*
X4267801Y-959888D02*
X4258277Y-978936D01*
X4258277Y-978936D02*
X4248753Y-988460D01*
X4248753Y-988460D02*
X4229706Y-997984D01*
X4229706Y-997984D02*
X4201134Y-997984D01*
X4382087Y-997984D02*
X4363039Y-988460D01*
X4363039Y-988460D02*
X4353515Y-969412D01*
X4353515Y-969412D02*
X4353515Y-797984D01*
X4534468Y-988460D02*
X4515420Y-997984D01*
X4515420Y-997984D02*
X4477325Y-997984D01*
X4477325Y-997984D02*
X4458277Y-988460D01*
X4458277Y-988460D02*
X4448753Y-969412D01*
X4448753Y-969412D02*
X4448753Y-893222D01*
X4448753Y-893222D02*
X4458277Y-874174D01*
X4458277Y-874174D02*
X4477325Y-864650D01*
X4477325Y-864650D02*
X4515420Y-864650D01*
X4515420Y-864650D02*
X4534468Y-874174D01*
X4534468Y-874174D02*
X4543992Y-893222D01*
X4543992Y-893222D02*
X4543992Y-912269D01*
X4543992Y-912269D02*
X4448753Y-931317D01*
X4610658Y-1074174D02*
X4620182Y-1064650D01*
X4620182Y-1064650D02*
X4639230Y-1036079D01*
X4639230Y-1036079D02*
X4648753Y-1017031D01*
X4648753Y-1017031D02*
X4658277Y-988460D01*
X4658277Y-988460D02*
X4667801Y-940841D01*
X4667801Y-940841D02*
X4667801Y-902746D01*
X4667801Y-902746D02*
X4658277Y-855127D01*
X4658277Y-855127D02*
X4648753Y-826555D01*
X4648753Y-826555D02*
X4639230Y-807508D01*
X4639230Y-807508D02*
X4620182Y-778936D01*
X4620182Y-778936D02*
X4610658Y-769412D01*
D12*
X-27500Y-1145500D02*
X-27500Y-1195500D01*
X-52500Y-1170500D02*
X-2500Y-1170500D01*
D11*
X296372Y-1061984D02*
X315420Y-1061984D01*
X315420Y-1061984D02*
X334467Y-1071508D01*
X334467Y-1071508D02*
X343991Y-1081031D01*
X343991Y-1081031D02*
X353515Y-1100079D01*
X353515Y-1100079D02*
X363039Y-1138174D01*
X363039Y-1138174D02*
X363039Y-1185793D01*
X363039Y-1185793D02*
X353515Y-1223889D01*
X353515Y-1223889D02*
X343991Y-1242936D01*
X343991Y-1242936D02*
X334467Y-1252460D01*
X334467Y-1252460D02*
X315420Y-1261984D01*
X315420Y-1261984D02*
X296372Y-1261984D01*
X296372Y-1261984D02*
X277324Y-1252460D01*
X277324Y-1252460D02*
X267801Y-1242936D01*
X267801Y-1242936D02*
X258277Y-1223889D01*
X258277Y-1223889D02*
X248753Y-1185793D01*
X248753Y-1185793D02*
X248753Y-1138174D01*
X248753Y-1138174D02*
X258277Y-1100079D01*
X258277Y-1100079D02*
X267801Y-1081031D01*
X267801Y-1081031D02*
X277324Y-1071508D01*
X277324Y-1071508D02*
X296372Y-1061984D01*
X448753Y-1242936D02*
X458277Y-1252460D01*
X458277Y-1252460D02*
X448753Y-1261984D01*
X448753Y-1261984D02*
X439229Y-1252460D01*
X439229Y-1252460D02*
X448753Y-1242936D01*
X448753Y-1242936D02*
X448753Y-1261984D01*
X639229Y-1061984D02*
X543991Y-1061984D01*
X543991Y-1061984D02*
X534467Y-1157222D01*
X534467Y-1157222D02*
X543991Y-1147698D01*
X543991Y-1147698D02*
X563039Y-1138174D01*
X563039Y-1138174D02*
X610658Y-1138174D01*
X610658Y-1138174D02*
X629705Y-1147698D01*
X629705Y-1147698D02*
X639229Y-1157222D01*
X639229Y-1157222D02*
X648753Y-1176270D01*
X648753Y-1176270D02*
X648753Y-1223889D01*
X648753Y-1223889D02*
X639229Y-1242936D01*
X639229Y-1242936D02*
X629705Y-1252460D01*
X629705Y-1252460D02*
X610658Y-1261984D01*
X610658Y-1261984D02*
X563039Y-1261984D01*
X563039Y-1261984D02*
X543991Y-1252460D01*
X543991Y-1252460D02*
X534467Y-1242936D01*
X772562Y-1061984D02*
X791610Y-1061984D01*
X791610Y-1061984D02*
X810658Y-1071508D01*
X810658Y-1071508D02*
X820182Y-1081031D01*
X820182Y-1081031D02*
X829705Y-1100079D01*
X829705Y-1100079D02*
X839229Y-1138174D01*
X839229Y-1138174D02*
X839229Y-1185793D01*
X839229Y-1185793D02*
X829705Y-1223889D01*
X829705Y-1223889D02*
X820182Y-1242936D01*
X820182Y-1242936D02*
X810658Y-1252460D01*
X810658Y-1252460D02*
X791610Y-1261984D01*
X791610Y-1261984D02*
X772562Y-1261984D01*
X772562Y-1261984D02*
X753515Y-1252460D01*
X753515Y-1252460D02*
X743991Y-1242936D01*
X743991Y-1242936D02*
X734467Y-1223889D01*
X734467Y-1223889D02*
X724943Y-1185793D01*
X724943Y-1185793D02*
X724943Y-1138174D01*
X724943Y-1138174D02*
X734467Y-1100079D01*
X734467Y-1100079D02*
X743991Y-1081031D01*
X743991Y-1081031D02*
X753515Y-1071508D01*
X753515Y-1071508D02*
X772562Y-1061984D01*
X963039Y-1061984D02*
X982086Y-1061984D01*
X982086Y-1061984D02*
X1001134Y-1071508D01*
X1001134Y-1071508D02*
X1010658Y-1081031D01*
X1010658Y-1081031D02*
X1020182Y-1100079D01*
X1020182Y-1100079D02*
X1029705Y-1138174D01*
X1029705Y-1138174D02*
X1029705Y-1185793D01*
X1029705Y-1185793D02*
X1020182Y-1223889D01*
X1020182Y-1223889D02*
X1010658Y-1242936D01*
X1010658Y-1242936D02*
X1001134Y-1252460D01*
X1001134Y-1252460D02*
X982086Y-1261984D01*
X982086Y-1261984D02*
X963039Y-1261984D01*
X963039Y-1261984D02*
X943991Y-1252460D01*
X943991Y-1252460D02*
X934467Y-1242936D01*
X934467Y-1242936D02*
X924943Y-1223889D01*
X924943Y-1223889D02*
X915420Y-1185793D01*
X915420Y-1185793D02*
X915420Y-1138174D01*
X915420Y-1138174D02*
X924943Y-1100079D01*
X924943Y-1100079D02*
X934467Y-1081031D01*
X934467Y-1081031D02*
X943991Y-1071508D01*
X943991Y-1071508D02*
X963039Y-1061984D01*
X1115420Y-1261984D02*
X1115420Y-1128650D01*
X1115420Y-1147698D02*
X1124944Y-1138174D01*
X1124944Y-1138174D02*
X1143991Y-1128650D01*
X1143991Y-1128650D02*
X1172563Y-1128650D01*
X1172563Y-1128650D02*
X1191610Y-1138174D01*
X1191610Y-1138174D02*
X1201134Y-1157222D01*
X1201134Y-1157222D02*
X1201134Y-1261984D01*
X1201134Y-1157222D02*
X1210658Y-1138174D01*
X1210658Y-1138174D02*
X1229705Y-1128650D01*
X1229705Y-1128650D02*
X1258277Y-1128650D01*
X1258277Y-1128650D02*
X1277325Y-1138174D01*
X1277325Y-1138174D02*
X1286848Y-1157222D01*
X1286848Y-1157222D02*
X1286848Y-1261984D01*
X1382086Y-1261984D02*
X1382086Y-1128650D01*
X1382086Y-1147698D02*
X1391610Y-1138174D01*
X1391610Y-1138174D02*
X1410658Y-1128650D01*
X1410658Y-1128650D02*
X1439229Y-1128650D01*
X1439229Y-1128650D02*
X1458277Y-1138174D01*
X1458277Y-1138174D02*
X1467801Y-1157222D01*
X1467801Y-1157222D02*
X1467801Y-1261984D01*
X1467801Y-1157222D02*
X1477324Y-1138174D01*
X1477324Y-1138174D02*
X1496372Y-1128650D01*
X1496372Y-1128650D02*
X1524943Y-1128650D01*
X1524943Y-1128650D02*
X1543991Y-1138174D01*
X1543991Y-1138174D02*
X1553515Y-1157222D01*
X1553515Y-1157222D02*
X1553515Y-1261984D01*
X1943991Y-1052460D02*
X1772563Y-1309603D01*
X2201134Y-1061984D02*
X2220182Y-1061984D01*
X2220182Y-1061984D02*
X2239229Y-1071508D01*
X2239229Y-1071508D02*
X2248753Y-1081031D01*
X2248753Y-1081031D02*
X2258277Y-1100079D01*
X2258277Y-1100079D02*
X2267801Y-1138174D01*
X2267801Y-1138174D02*
X2267801Y-1185793D01*
X2267801Y-1185793D02*
X2258277Y-1223889D01*
X2258277Y-1223889D02*
X2248753Y-1242936D01*
X2248753Y-1242936D02*
X2239229Y-1252460D01*
X2239229Y-1252460D02*
X2220182Y-1261984D01*
X2220182Y-1261984D02*
X2201134Y-1261984D01*
X2201134Y-1261984D02*
X2182087Y-1252460D01*
X2182087Y-1252460D02*
X2172563Y-1242936D01*
X2172563Y-1242936D02*
X2163039Y-1223889D01*
X2163039Y-1223889D02*
X2153515Y-1185793D01*
X2153515Y-1185793D02*
X2153515Y-1138174D01*
X2153515Y-1138174D02*
X2163039Y-1100079D01*
X2163039Y-1100079D02*
X2172563Y-1081031D01*
X2172563Y-1081031D02*
X2182087Y-1071508D01*
X2182087Y-1071508D02*
X2201134Y-1061984D01*
X2353515Y-1242936D02*
X2363039Y-1252460D01*
X2363039Y-1252460D02*
X2353515Y-1261984D01*
X2353515Y-1261984D02*
X2343991Y-1252460D01*
X2343991Y-1252460D02*
X2353515Y-1242936D01*
X2353515Y-1242936D02*
X2353515Y-1261984D01*
X2486848Y-1061984D02*
X2505896Y-1061984D01*
X2505896Y-1061984D02*
X2524944Y-1071508D01*
X2524944Y-1071508D02*
X2534468Y-1081031D01*
X2534468Y-1081031D02*
X2543991Y-1100079D01*
X2543991Y-1100079D02*
X2553515Y-1138174D01*
X2553515Y-1138174D02*
X2553515Y-1185793D01*
X2553515Y-1185793D02*
X2543991Y-1223889D01*
X2543991Y-1223889D02*
X2534468Y-1242936D01*
X2534468Y-1242936D02*
X2524944Y-1252460D01*
X2524944Y-1252460D02*
X2505896Y-1261984D01*
X2505896Y-1261984D02*
X2486848Y-1261984D01*
X2486848Y-1261984D02*
X2467801Y-1252460D01*
X2467801Y-1252460D02*
X2458277Y-1242936D01*
X2458277Y-1242936D02*
X2448753Y-1223889D01*
X2448753Y-1223889D02*
X2439229Y-1185793D01*
X2439229Y-1185793D02*
X2439229Y-1138174D01*
X2439229Y-1138174D02*
X2448753Y-1100079D01*
X2448753Y-1100079D02*
X2458277Y-1081031D01*
X2458277Y-1081031D02*
X2467801Y-1071508D01*
X2467801Y-1071508D02*
X2486848Y-1061984D01*
X2743991Y-1261984D02*
X2629706Y-1261984D01*
X2686848Y-1261984D02*
X2686848Y-1061984D01*
X2686848Y-1061984D02*
X2667801Y-1090555D01*
X2667801Y-1090555D02*
X2648753Y-1109603D01*
X2648753Y-1109603D02*
X2629706Y-1119127D01*
X2839229Y-1261984D02*
X2877325Y-1261984D01*
X2877325Y-1261984D02*
X2896372Y-1252460D01*
X2896372Y-1252460D02*
X2905896Y-1242936D01*
X2905896Y-1242936D02*
X2924944Y-1214365D01*
X2924944Y-1214365D02*
X2934467Y-1176270D01*
X2934467Y-1176270D02*
X2934467Y-1100079D01*
X2934467Y-1100079D02*
X2924944Y-1081031D01*
X2924944Y-1081031D02*
X2915420Y-1071508D01*
X2915420Y-1071508D02*
X2896372Y-1061984D01*
X2896372Y-1061984D02*
X2858277Y-1061984D01*
X2858277Y-1061984D02*
X2839229Y-1071508D01*
X2839229Y-1071508D02*
X2829706Y-1081031D01*
X2829706Y-1081031D02*
X2820182Y-1100079D01*
X2820182Y-1100079D02*
X2820182Y-1147698D01*
X2820182Y-1147698D02*
X2829706Y-1166746D01*
X2829706Y-1166746D02*
X2839229Y-1176270D01*
X2839229Y-1176270D02*
X2858277Y-1185793D01*
X2858277Y-1185793D02*
X2896372Y-1185793D01*
X2896372Y-1185793D02*
X2915420Y-1176270D01*
X2915420Y-1176270D02*
X2924944Y-1166746D01*
X2924944Y-1166746D02*
X2934467Y-1147698D01*
X3001134Y-1061984D02*
X3134467Y-1061984D01*
X3134467Y-1061984D02*
X3048753Y-1261984D01*
X3201134Y-1061984D02*
X3201134Y-1100079D01*
X3277325Y-1061984D02*
X3277325Y-1100079D01*
X3572563Y-1338174D02*
X3563039Y-1328650D01*
X3563039Y-1328650D02*
X3543991Y-1300079D01*
X3543991Y-1300079D02*
X3534468Y-1281031D01*
X3534468Y-1281031D02*
X3524944Y-1252460D01*
X3524944Y-1252460D02*
X3515420Y-1204841D01*
X3515420Y-1204841D02*
X3515420Y-1166746D01*
X3515420Y-1166746D02*
X3524944Y-1119127D01*
X3524944Y-1119127D02*
X3534468Y-1090555D01*
X3534468Y-1090555D02*
X3543991Y-1071508D01*
X3543991Y-1071508D02*
X3563039Y-1042936D01*
X3563039Y-1042936D02*
X3572563Y-1033412D01*
X3686848Y-1061984D02*
X3705896Y-1061984D01*
X3705896Y-1061984D02*
X3724944Y-1071508D01*
X3724944Y-1071508D02*
X3734468Y-1081031D01*
X3734468Y-1081031D02*
X3743991Y-1100079D01*
X3743991Y-1100079D02*
X3753515Y-1138174D01*
X3753515Y-1138174D02*
X3753515Y-1185793D01*
X3753515Y-1185793D02*
X3743991Y-1223889D01*
X3743991Y-1223889D02*
X3734468Y-1242936D01*
X3734468Y-1242936D02*
X3724944Y-1252460D01*
X3724944Y-1252460D02*
X3705896Y-1261984D01*
X3705896Y-1261984D02*
X3686848Y-1261984D01*
X3686848Y-1261984D02*
X3667801Y-1252460D01*
X3667801Y-1252460D02*
X3658277Y-1242936D01*
X3658277Y-1242936D02*
X3648753Y-1223889D01*
X3648753Y-1223889D02*
X3639229Y-1185793D01*
X3639229Y-1185793D02*
X3639229Y-1138174D01*
X3639229Y-1138174D02*
X3648753Y-1100079D01*
X3648753Y-1100079D02*
X3658277Y-1081031D01*
X3658277Y-1081031D02*
X3667801Y-1071508D01*
X3667801Y-1071508D02*
X3686848Y-1061984D01*
X3991610Y-1261984D02*
X3991610Y-1061984D01*
X4077325Y-1261984D02*
X4077325Y-1157222D01*
X4077325Y-1157222D02*
X4067801Y-1138174D01*
X4067801Y-1138174D02*
X4048753Y-1128650D01*
X4048753Y-1128650D02*
X4020182Y-1128650D01*
X4020182Y-1128650D02*
X4001134Y-1138174D01*
X4001134Y-1138174D02*
X3991610Y-1147698D01*
X4201134Y-1261984D02*
X4182087Y-1252460D01*
X4182087Y-1252460D02*
X4172563Y-1242936D01*
X4172563Y-1242936D02*
X4163039Y-1223889D01*
X4163039Y-1223889D02*
X4163039Y-1166746D01*
X4163039Y-1166746D02*
X4172563Y-1147698D01*
X4172563Y-1147698D02*
X4182087Y-1138174D01*
X4182087Y-1138174D02*
X4201134Y-1128650D01*
X4201134Y-1128650D02*
X4229706Y-1128650D01*
X4229706Y-1128650D02*
X4248753Y-1138174D01*
X4248753Y-1138174D02*
X4258277Y-1147698D01*
X4258277Y-1147698D02*
X4267801Y-1166746D01*
X4267801Y-1166746D02*
X4267801Y-1223889D01*
X4267801Y-1223889D02*
X4258277Y-1242936D01*
X4258277Y-1242936D02*
X4248753Y-1252460D01*
X4248753Y-1252460D02*
X4229706Y-1261984D01*
X4229706Y-1261984D02*
X4201134Y-1261984D01*
X4382087Y-1261984D02*
X4363039Y-1252460D01*
X4363039Y-1252460D02*
X4353515Y-1233412D01*
X4353515Y-1233412D02*
X4353515Y-1061984D01*
X4534468Y-1252460D02*
X4515420Y-1261984D01*
X4515420Y-1261984D02*
X4477325Y-1261984D01*
X4477325Y-1261984D02*
X4458277Y-1252460D01*
X4458277Y-1252460D02*
X4448753Y-1233412D01*
X4448753Y-1233412D02*
X4448753Y-1157222D01*
X4448753Y-1157222D02*
X4458277Y-1138174D01*
X4458277Y-1138174D02*
X4477325Y-1128650D01*
X4477325Y-1128650D02*
X4515420Y-1128650D01*
X4515420Y-1128650D02*
X4534468Y-1138174D01*
X4534468Y-1138174D02*
X4543992Y-1157222D01*
X4543992Y-1157222D02*
X4543992Y-1176270D01*
X4543992Y-1176270D02*
X4448753Y-1195317D01*
X4620182Y-1252460D02*
X4639230Y-1261984D01*
X4639230Y-1261984D02*
X4677325Y-1261984D01*
X4677325Y-1261984D02*
X4696373Y-1252460D01*
X4696373Y-1252460D02*
X4705896Y-1233412D01*
X4705896Y-1233412D02*
X4705896Y-1223889D01*
X4705896Y-1223889D02*
X4696373Y-1204841D01*
X4696373Y-1204841D02*
X4677325Y-1195317D01*
X4677325Y-1195317D02*
X4648753Y-1195317D01*
X4648753Y-1195317D02*
X4629706Y-1185793D01*
X4629706Y-1185793D02*
X4620182Y-1166746D01*
X4620182Y-1166746D02*
X4620182Y-1157222D01*
X4620182Y-1157222D02*
X4629706Y-1138174D01*
X4629706Y-1138174D02*
X4648753Y-1128650D01*
X4648753Y-1128650D02*
X4677325Y-1128650D01*
X4677325Y-1128650D02*
X4696373Y-1138174D01*
X4943992Y-1185793D02*
X5096373Y-1185793D01*
X5020182Y-1261984D02*
X5020182Y-1109603D01*
X5334468Y-1081031D02*
X5343992Y-1071508D01*
X5343992Y-1071508D02*
X5363039Y-1061984D01*
X5363039Y-1061984D02*
X5410658Y-1061984D01*
X5410658Y-1061984D02*
X5429706Y-1071508D01*
X5429706Y-1071508D02*
X5439230Y-1081031D01*
X5439230Y-1081031D02*
X5448754Y-1100079D01*
X5448754Y-1100079D02*
X5448754Y-1119127D01*
X5448754Y-1119127D02*
X5439230Y-1147698D01*
X5439230Y-1147698D02*
X5324944Y-1261984D01*
X5324944Y-1261984D02*
X5448754Y-1261984D01*
X5677325Y-1252460D02*
X5696373Y-1261984D01*
X5696373Y-1261984D02*
X5734468Y-1261984D01*
X5734468Y-1261984D02*
X5753515Y-1252460D01*
X5753515Y-1252460D02*
X5763039Y-1233412D01*
X5763039Y-1233412D02*
X5763039Y-1223889D01*
X5763039Y-1223889D02*
X5753515Y-1204841D01*
X5753515Y-1204841D02*
X5734468Y-1195317D01*
X5734468Y-1195317D02*
X5705896Y-1195317D01*
X5705896Y-1195317D02*
X5686849Y-1185793D01*
X5686849Y-1185793D02*
X5677325Y-1166746D01*
X5677325Y-1166746D02*
X5677325Y-1157222D01*
X5677325Y-1157222D02*
X5686849Y-1138174D01*
X5686849Y-1138174D02*
X5705896Y-1128650D01*
X5705896Y-1128650D02*
X5734468Y-1128650D01*
X5734468Y-1128650D02*
X5753515Y-1138174D01*
X5877325Y-1261984D02*
X5858277Y-1252460D01*
X5858277Y-1252460D02*
X5848754Y-1233412D01*
X5848754Y-1233412D02*
X5848754Y-1061984D01*
X5982087Y-1261984D02*
X5963039Y-1252460D01*
X5963039Y-1252460D02*
X5953515Y-1242936D01*
X5953515Y-1242936D02*
X5943992Y-1223889D01*
X5943992Y-1223889D02*
X5943992Y-1166746D01*
X5943992Y-1166746D02*
X5953515Y-1147698D01*
X5953515Y-1147698D02*
X5963039Y-1138174D01*
X5963039Y-1138174D02*
X5982087Y-1128650D01*
X5982087Y-1128650D02*
X6010658Y-1128650D01*
X6010658Y-1128650D02*
X6029706Y-1138174D01*
X6029706Y-1138174D02*
X6039230Y-1147698D01*
X6039230Y-1147698D02*
X6048754Y-1166746D01*
X6048754Y-1166746D02*
X6048754Y-1223889D01*
X6048754Y-1223889D02*
X6039230Y-1242936D01*
X6039230Y-1242936D02*
X6029706Y-1252460D01*
X6029706Y-1252460D02*
X6010658Y-1261984D01*
X6010658Y-1261984D02*
X5982087Y-1261984D01*
X6105896Y-1128650D02*
X6182087Y-1128650D01*
X6134468Y-1061984D02*
X6134468Y-1233412D01*
X6134468Y-1233412D02*
X6143992Y-1252460D01*
X6143992Y-1252460D02*
X6163039Y-1261984D01*
X6163039Y-1261984D02*
X6182087Y-1261984D01*
X6239230Y-1252460D02*
X6258277Y-1261984D01*
X6258277Y-1261984D02*
X6296373Y-1261984D01*
X6296373Y-1261984D02*
X6315420Y-1252460D01*
X6315420Y-1252460D02*
X6324944Y-1233412D01*
X6324944Y-1233412D02*
X6324944Y-1223889D01*
X6324944Y-1223889D02*
X6315420Y-1204841D01*
X6315420Y-1204841D02*
X6296373Y-1195317D01*
X6296373Y-1195317D02*
X6267801Y-1195317D01*
X6267801Y-1195317D02*
X6248754Y-1185793D01*
X6248754Y-1185793D02*
X6239230Y-1166746D01*
X6239230Y-1166746D02*
X6239230Y-1157222D01*
X6239230Y-1157222D02*
X6248754Y-1138174D01*
X6248754Y-1138174D02*
X6267801Y-1128650D01*
X6267801Y-1128650D02*
X6296373Y-1128650D01*
X6296373Y-1128650D02*
X6315420Y-1138174D01*
X6391611Y-1338174D02*
X6401135Y-1328650D01*
X6401135Y-1328650D02*
X6420182Y-1300079D01*
X6420182Y-1300079D02*
X6429706Y-1281031D01*
X6429706Y-1281031D02*
X6439230Y-1252460D01*
X6439230Y-1252460D02*
X6448754Y-1204841D01*
X6448754Y-1204841D02*
X6448754Y-1166746D01*
X6448754Y-1166746D02*
X6439230Y-1119127D01*
X6439230Y-1119127D02*
X6429706Y-1090555D01*
X6429706Y-1090555D02*
X6420182Y-1071508D01*
X6420182Y-1071508D02*
X6401135Y-1042936D01*
X6401135Y-1042936D02*
X6391611Y-1033412D01*
D12*
X-10554Y-1453946D02*
X-10554Y-1415054D01*
X-49446Y-1415054D01*
X-49446Y-1453946D01*
X-10554Y-1453946D01*
D11*
X296372Y-1325984D02*
X315420Y-1325984D01*
X315420Y-1325984D02*
X334467Y-1335508D01*
X334467Y-1335508D02*
X343991Y-1345031D01*
X343991Y-1345031D02*
X353515Y-1364079D01*
X353515Y-1364079D02*
X363039Y-1402174D01*
X363039Y-1402174D02*
X363039Y-1449793D01*
X363039Y-1449793D02*
X353515Y-1487888D01*
X353515Y-1487888D02*
X343991Y-1506936D01*
X343991Y-1506936D02*
X334467Y-1516460D01*
X334467Y-1516460D02*
X315420Y-1525984D01*
X315420Y-1525984D02*
X296372Y-1525984D01*
X296372Y-1525984D02*
X277324Y-1516460D01*
X277324Y-1516460D02*
X267801Y-1506936D01*
X267801Y-1506936D02*
X258277Y-1487888D01*
X258277Y-1487888D02*
X248753Y-1449793D01*
X248753Y-1449793D02*
X248753Y-1402174D01*
X248753Y-1402174D02*
X258277Y-1364079D01*
X258277Y-1364079D02*
X267801Y-1345031D01*
X267801Y-1345031D02*
X277324Y-1335508D01*
X277324Y-1335508D02*
X296372Y-1325984D01*
X448753Y-1506936D02*
X458277Y-1516460D01*
X458277Y-1516460D02*
X448753Y-1525984D01*
X448753Y-1525984D02*
X439229Y-1516460D01*
X439229Y-1516460D02*
X448753Y-1506936D01*
X448753Y-1506936D02*
X448753Y-1525984D01*
X639229Y-1325984D02*
X543991Y-1325984D01*
X543991Y-1325984D02*
X534467Y-1421222D01*
X534467Y-1421222D02*
X543991Y-1411698D01*
X543991Y-1411698D02*
X563039Y-1402174D01*
X563039Y-1402174D02*
X610658Y-1402174D01*
X610658Y-1402174D02*
X629705Y-1411698D01*
X629705Y-1411698D02*
X639229Y-1421222D01*
X639229Y-1421222D02*
X648753Y-1440269D01*
X648753Y-1440269D02*
X648753Y-1487888D01*
X648753Y-1487888D02*
X639229Y-1506936D01*
X639229Y-1506936D02*
X629705Y-1516460D01*
X629705Y-1516460D02*
X610658Y-1525984D01*
X610658Y-1525984D02*
X563039Y-1525984D01*
X563039Y-1525984D02*
X543991Y-1516460D01*
X543991Y-1516460D02*
X534467Y-1506936D01*
X829705Y-1325984D02*
X734467Y-1325984D01*
X734467Y-1325984D02*
X724943Y-1421222D01*
X724943Y-1421222D02*
X734467Y-1411698D01*
X734467Y-1411698D02*
X753515Y-1402174D01*
X753515Y-1402174D02*
X801134Y-1402174D01*
X801134Y-1402174D02*
X820182Y-1411698D01*
X820182Y-1411698D02*
X829705Y-1421222D01*
X829705Y-1421222D02*
X839229Y-1440269D01*
X839229Y-1440269D02*
X839229Y-1487888D01*
X839229Y-1487888D02*
X829705Y-1506936D01*
X829705Y-1506936D02*
X820182Y-1516460D01*
X820182Y-1516460D02*
X801134Y-1525984D01*
X801134Y-1525984D02*
X753515Y-1525984D01*
X753515Y-1525984D02*
X734467Y-1516460D01*
X734467Y-1516460D02*
X724943Y-1506936D01*
X963039Y-1325984D02*
X982086Y-1325984D01*
X982086Y-1325984D02*
X1001134Y-1335508D01*
X1001134Y-1335508D02*
X1010658Y-1345031D01*
X1010658Y-1345031D02*
X1020182Y-1364079D01*
X1020182Y-1364079D02*
X1029705Y-1402174D01*
X1029705Y-1402174D02*
X1029705Y-1449793D01*
X1029705Y-1449793D02*
X1020182Y-1487888D01*
X1020182Y-1487888D02*
X1010658Y-1506936D01*
X1010658Y-1506936D02*
X1001134Y-1516460D01*
X1001134Y-1516460D02*
X982086Y-1525984D01*
X982086Y-1525984D02*
X963039Y-1525984D01*
X963039Y-1525984D02*
X943991Y-1516460D01*
X943991Y-1516460D02*
X934467Y-1506936D01*
X934467Y-1506936D02*
X924943Y-1487888D01*
X924943Y-1487888D02*
X915420Y-1449793D01*
X915420Y-1449793D02*
X915420Y-1402174D01*
X915420Y-1402174D02*
X924943Y-1364079D01*
X924943Y-1364079D02*
X934467Y-1345031D01*
X934467Y-1345031D02*
X943991Y-1335508D01*
X943991Y-1335508D02*
X963039Y-1325984D01*
X1115420Y-1525984D02*
X1115420Y-1392650D01*
X1115420Y-1411698D02*
X1124944Y-1402174D01*
X1124944Y-1402174D02*
X1143991Y-1392650D01*
X1143991Y-1392650D02*
X1172563Y-1392650D01*
X1172563Y-1392650D02*
X1191610Y-1402174D01*
X1191610Y-1402174D02*
X1201134Y-1421222D01*
X1201134Y-1421222D02*
X1201134Y-1525984D01*
X1201134Y-1421222D02*
X1210658Y-1402174D01*
X1210658Y-1402174D02*
X1229705Y-1392650D01*
X1229705Y-1392650D02*
X1258277Y-1392650D01*
X1258277Y-1392650D02*
X1277325Y-1402174D01*
X1277325Y-1402174D02*
X1286848Y-1421222D01*
X1286848Y-1421222D02*
X1286848Y-1525984D01*
X1382086Y-1525984D02*
X1382086Y-1392650D01*
X1382086Y-1411698D02*
X1391610Y-1402174D01*
X1391610Y-1402174D02*
X1410658Y-1392650D01*
X1410658Y-1392650D02*
X1439229Y-1392650D01*
X1439229Y-1392650D02*
X1458277Y-1402174D01*
X1458277Y-1402174D02*
X1467801Y-1421222D01*
X1467801Y-1421222D02*
X1467801Y-1525984D01*
X1467801Y-1421222D02*
X1477324Y-1402174D01*
X1477324Y-1402174D02*
X1496372Y-1392650D01*
X1496372Y-1392650D02*
X1524943Y-1392650D01*
X1524943Y-1392650D02*
X1543991Y-1402174D01*
X1543991Y-1402174D02*
X1553515Y-1421222D01*
X1553515Y-1421222D02*
X1553515Y-1525984D01*
X1943991Y-1316460D02*
X1772563Y-1573603D01*
X2201134Y-1325984D02*
X2220182Y-1325984D01*
X2220182Y-1325984D02*
X2239229Y-1335508D01*
X2239229Y-1335508D02*
X2248753Y-1345031D01*
X2248753Y-1345031D02*
X2258277Y-1364079D01*
X2258277Y-1364079D02*
X2267801Y-1402174D01*
X2267801Y-1402174D02*
X2267801Y-1449793D01*
X2267801Y-1449793D02*
X2258277Y-1487888D01*
X2258277Y-1487888D02*
X2248753Y-1506936D01*
X2248753Y-1506936D02*
X2239229Y-1516460D01*
X2239229Y-1516460D02*
X2220182Y-1525984D01*
X2220182Y-1525984D02*
X2201134Y-1525984D01*
X2201134Y-1525984D02*
X2182087Y-1516460D01*
X2182087Y-1516460D02*
X2172563Y-1506936D01*
X2172563Y-1506936D02*
X2163039Y-1487888D01*
X2163039Y-1487888D02*
X2153515Y-1449793D01*
X2153515Y-1449793D02*
X2153515Y-1402174D01*
X2153515Y-1402174D02*
X2163039Y-1364079D01*
X2163039Y-1364079D02*
X2172563Y-1345031D01*
X2172563Y-1345031D02*
X2182087Y-1335508D01*
X2182087Y-1335508D02*
X2201134Y-1325984D01*
X2353515Y-1506936D02*
X2363039Y-1516460D01*
X2363039Y-1516460D02*
X2353515Y-1525984D01*
X2353515Y-1525984D02*
X2343991Y-1516460D01*
X2343991Y-1516460D02*
X2353515Y-1506936D01*
X2353515Y-1506936D02*
X2353515Y-1525984D01*
X2486848Y-1325984D02*
X2505896Y-1325984D01*
X2505896Y-1325984D02*
X2524944Y-1335508D01*
X2524944Y-1335508D02*
X2534468Y-1345031D01*
X2534468Y-1345031D02*
X2543991Y-1364079D01*
X2543991Y-1364079D02*
X2553515Y-1402174D01*
X2553515Y-1402174D02*
X2553515Y-1449793D01*
X2553515Y-1449793D02*
X2543991Y-1487888D01*
X2543991Y-1487888D02*
X2534468Y-1506936D01*
X2534468Y-1506936D02*
X2524944Y-1516460D01*
X2524944Y-1516460D02*
X2505896Y-1525984D01*
X2505896Y-1525984D02*
X2486848Y-1525984D01*
X2486848Y-1525984D02*
X2467801Y-1516460D01*
X2467801Y-1516460D02*
X2458277Y-1506936D01*
X2458277Y-1506936D02*
X2448753Y-1487888D01*
X2448753Y-1487888D02*
X2439229Y-1449793D01*
X2439229Y-1449793D02*
X2439229Y-1402174D01*
X2439229Y-1402174D02*
X2448753Y-1364079D01*
X2448753Y-1364079D02*
X2458277Y-1345031D01*
X2458277Y-1345031D02*
X2467801Y-1335508D01*
X2467801Y-1335508D02*
X2486848Y-1325984D01*
X2629706Y-1345031D02*
X2639229Y-1335508D01*
X2639229Y-1335508D02*
X2658277Y-1325984D01*
X2658277Y-1325984D02*
X2705896Y-1325984D01*
X2705896Y-1325984D02*
X2724944Y-1335508D01*
X2724944Y-1335508D02*
X2734468Y-1345031D01*
X2734468Y-1345031D02*
X2743991Y-1364079D01*
X2743991Y-1364079D02*
X2743991Y-1383127D01*
X2743991Y-1383127D02*
X2734468Y-1411698D01*
X2734468Y-1411698D02*
X2620182Y-1525984D01*
X2620182Y-1525984D02*
X2743991Y-1525984D01*
X2934467Y-1525984D02*
X2820182Y-1525984D01*
X2877325Y-1525984D02*
X2877325Y-1325984D01*
X2877325Y-1325984D02*
X2858277Y-1354555D01*
X2858277Y-1354555D02*
X2839229Y-1373603D01*
X2839229Y-1373603D02*
X2820182Y-1383127D01*
X3001134Y-1325984D02*
X3134467Y-1325984D01*
X3134467Y-1325984D02*
X3048753Y-1525984D01*
X3201134Y-1325984D02*
X3201134Y-1364079D01*
X3277325Y-1325984D02*
X3277325Y-1364079D01*
X3572563Y-1602174D02*
X3563039Y-1592650D01*
X3563039Y-1592650D02*
X3543991Y-1564079D01*
X3543991Y-1564079D02*
X3534468Y-1545031D01*
X3534468Y-1545031D02*
X3524944Y-1516460D01*
X3524944Y-1516460D02*
X3515420Y-1468841D01*
X3515420Y-1468841D02*
X3515420Y-1430746D01*
X3515420Y-1430746D02*
X3524944Y-1383127D01*
X3524944Y-1383127D02*
X3534468Y-1354555D01*
X3534468Y-1354555D02*
X3543991Y-1335508D01*
X3543991Y-1335508D02*
X3563039Y-1306936D01*
X3563039Y-1306936D02*
X3572563Y-1297412D01*
X3686848Y-1325984D02*
X3705896Y-1325984D01*
X3705896Y-1325984D02*
X3724944Y-1335508D01*
X3724944Y-1335508D02*
X3734468Y-1345031D01*
X3734468Y-1345031D02*
X3743991Y-1364079D01*
X3743991Y-1364079D02*
X3753515Y-1402174D01*
X3753515Y-1402174D02*
X3753515Y-1449793D01*
X3753515Y-1449793D02*
X3743991Y-1487888D01*
X3743991Y-1487888D02*
X3734468Y-1506936D01*
X3734468Y-1506936D02*
X3724944Y-1516460D01*
X3724944Y-1516460D02*
X3705896Y-1525984D01*
X3705896Y-1525984D02*
X3686848Y-1525984D01*
X3686848Y-1525984D02*
X3667801Y-1516460D01*
X3667801Y-1516460D02*
X3658277Y-1506936D01*
X3658277Y-1506936D02*
X3648753Y-1487888D01*
X3648753Y-1487888D02*
X3639229Y-1449793D01*
X3639229Y-1449793D02*
X3639229Y-1402174D01*
X3639229Y-1402174D02*
X3648753Y-1364079D01*
X3648753Y-1364079D02*
X3658277Y-1345031D01*
X3658277Y-1345031D02*
X3667801Y-1335508D01*
X3667801Y-1335508D02*
X3686848Y-1325984D01*
X3991610Y-1525984D02*
X3991610Y-1325984D01*
X4077325Y-1525984D02*
X4077325Y-1421222D01*
X4077325Y-1421222D02*
X4067801Y-1402174D01*
X4067801Y-1402174D02*
X4048753Y-1392650D01*
X4048753Y-1392650D02*
X4020182Y-1392650D01*
X4020182Y-1392650D02*
X4001134Y-1402174D01*
X4001134Y-1402174D02*
X3991610Y-1411698D01*
X4201134Y-1525984D02*
X4182087Y-1516460D01*
X4182087Y-1516460D02*
X4172563Y-1506936D01*
X4172563Y-1506936D02*
X4163039Y-1487888D01*
X4163039Y-1487888D02*
X4163039Y-1430746D01*
X4163039Y-1430746D02*
X4172563Y-1411698D01*
X4172563Y-1411698D02*
X4182087Y-1402174D01*
X4182087Y-1402174D02*
X4201134Y-1392650D01*
X4201134Y-1392650D02*
X4229706Y-1392650D01*
X4229706Y-1392650D02*
X4248753Y-1402174D01*
X4248753Y-1402174D02*
X4258277Y-1411698D01*
X4258277Y-1411698D02*
X4267801Y-1430746D01*
X4267801Y-1430746D02*
X4267801Y-1487888D01*
X4267801Y-1487888D02*
X4258277Y-1506936D01*
X4258277Y-1506936D02*
X4248753Y-1516460D01*
X4248753Y-1516460D02*
X4229706Y-1525984D01*
X4229706Y-1525984D02*
X4201134Y-1525984D01*
X4382087Y-1525984D02*
X4363039Y-1516460D01*
X4363039Y-1516460D02*
X4353515Y-1497412D01*
X4353515Y-1497412D02*
X4353515Y-1325984D01*
X4534468Y-1516460D02*
X4515420Y-1525984D01*
X4515420Y-1525984D02*
X4477325Y-1525984D01*
X4477325Y-1525984D02*
X4458277Y-1516460D01*
X4458277Y-1516460D02*
X4448753Y-1497412D01*
X4448753Y-1497412D02*
X4448753Y-1421222D01*
X4448753Y-1421222D02*
X4458277Y-1402174D01*
X4458277Y-1402174D02*
X4477325Y-1392650D01*
X4477325Y-1392650D02*
X4515420Y-1392650D01*
X4515420Y-1392650D02*
X4534468Y-1402174D01*
X4534468Y-1402174D02*
X4543992Y-1421222D01*
X4543992Y-1421222D02*
X4543992Y-1440269D01*
X4543992Y-1440269D02*
X4448753Y-1459317D01*
X4620182Y-1516460D02*
X4639230Y-1525984D01*
X4639230Y-1525984D02*
X4677325Y-1525984D01*
X4677325Y-1525984D02*
X4696373Y-1516460D01*
X4696373Y-1516460D02*
X4705896Y-1497412D01*
X4705896Y-1497412D02*
X4705896Y-1487888D01*
X4705896Y-1487888D02*
X4696373Y-1468841D01*
X4696373Y-1468841D02*
X4677325Y-1459317D01*
X4677325Y-1459317D02*
X4648753Y-1459317D01*
X4648753Y-1459317D02*
X4629706Y-1449793D01*
X4629706Y-1449793D02*
X4620182Y-1430746D01*
X4620182Y-1430746D02*
X4620182Y-1421222D01*
X4620182Y-1421222D02*
X4629706Y-1402174D01*
X4629706Y-1402174D02*
X4648753Y-1392650D01*
X4648753Y-1392650D02*
X4677325Y-1392650D01*
X4677325Y-1392650D02*
X4696373Y-1402174D01*
X4943992Y-1449793D02*
X5096373Y-1449793D01*
X5020182Y-1525984D02*
X5020182Y-1373603D01*
X5334468Y-1345031D02*
X5343992Y-1335508D01*
X5343992Y-1335508D02*
X5363039Y-1325984D01*
X5363039Y-1325984D02*
X5410658Y-1325984D01*
X5410658Y-1325984D02*
X5429706Y-1335508D01*
X5429706Y-1335508D02*
X5439230Y-1345031D01*
X5439230Y-1345031D02*
X5448754Y-1364079D01*
X5448754Y-1364079D02*
X5448754Y-1383127D01*
X5448754Y-1383127D02*
X5439230Y-1411698D01*
X5439230Y-1411698D02*
X5324944Y-1525984D01*
X5324944Y-1525984D02*
X5448754Y-1525984D01*
X5677325Y-1516460D02*
X5696373Y-1525984D01*
X5696373Y-1525984D02*
X5734468Y-1525984D01*
X5734468Y-1525984D02*
X5753515Y-1516460D01*
X5753515Y-1516460D02*
X5763039Y-1497412D01*
X5763039Y-1497412D02*
X5763039Y-1487888D01*
X5763039Y-1487888D02*
X5753515Y-1468841D01*
X5753515Y-1468841D02*
X5734468Y-1459317D01*
X5734468Y-1459317D02*
X5705896Y-1459317D01*
X5705896Y-1459317D02*
X5686849Y-1449793D01*
X5686849Y-1449793D02*
X5677325Y-1430746D01*
X5677325Y-1430746D02*
X5677325Y-1421222D01*
X5677325Y-1421222D02*
X5686849Y-1402174D01*
X5686849Y-1402174D02*
X5705896Y-1392650D01*
X5705896Y-1392650D02*
X5734468Y-1392650D01*
X5734468Y-1392650D02*
X5753515Y-1402174D01*
X5877325Y-1525984D02*
X5858277Y-1516460D01*
X5858277Y-1516460D02*
X5848754Y-1497412D01*
X5848754Y-1497412D02*
X5848754Y-1325984D01*
X5982087Y-1525984D02*
X5963039Y-1516460D01*
X5963039Y-1516460D02*
X5953515Y-1506936D01*
X5953515Y-1506936D02*
X5943992Y-1487888D01*
X5943992Y-1487888D02*
X5943992Y-1430746D01*
X5943992Y-1430746D02*
X5953515Y-1411698D01*
X5953515Y-1411698D02*
X5963039Y-1402174D01*
X5963039Y-1402174D02*
X5982087Y-1392650D01*
X5982087Y-1392650D02*
X6010658Y-1392650D01*
X6010658Y-1392650D02*
X6029706Y-1402174D01*
X6029706Y-1402174D02*
X6039230Y-1411698D01*
X6039230Y-1411698D02*
X6048754Y-1430746D01*
X6048754Y-1430746D02*
X6048754Y-1487888D01*
X6048754Y-1487888D02*
X6039230Y-1506936D01*
X6039230Y-1506936D02*
X6029706Y-1516460D01*
X6029706Y-1516460D02*
X6010658Y-1525984D01*
X6010658Y-1525984D02*
X5982087Y-1525984D01*
X6105896Y-1392650D02*
X6182087Y-1392650D01*
X6134468Y-1325984D02*
X6134468Y-1497412D01*
X6134468Y-1497412D02*
X6143992Y-1516460D01*
X6143992Y-1516460D02*
X6163039Y-1525984D01*
X6163039Y-1525984D02*
X6182087Y-1525984D01*
X6239230Y-1516460D02*
X6258277Y-1525984D01*
X6258277Y-1525984D02*
X6296373Y-1525984D01*
X6296373Y-1525984D02*
X6315420Y-1516460D01*
X6315420Y-1516460D02*
X6324944Y-1497412D01*
X6324944Y-1497412D02*
X6324944Y-1487888D01*
X6324944Y-1487888D02*
X6315420Y-1468841D01*
X6315420Y-1468841D02*
X6296373Y-1459317D01*
X6296373Y-1459317D02*
X6267801Y-1459317D01*
X6267801Y-1459317D02*
X6248754Y-1449793D01*
X6248754Y-1449793D02*
X6239230Y-1430746D01*
X6239230Y-1430746D02*
X6239230Y-1421222D01*
X6239230Y-1421222D02*
X6248754Y-1402174D01*
X6248754Y-1402174D02*
X6267801Y-1392650D01*
X6267801Y-1392650D02*
X6296373Y-1392650D01*
X6296373Y-1392650D02*
X6315420Y-1402174D01*
X6391611Y-1602174D02*
X6401135Y-1592650D01*
X6401135Y-1592650D02*
X6420182Y-1564079D01*
X6420182Y-1564079D02*
X6429706Y-1545031D01*
X6429706Y-1545031D02*
X6439230Y-1516460D01*
X6439230Y-1516460D02*
X6448754Y-1468841D01*
X6448754Y-1468841D02*
X6448754Y-1430746D01*
X6448754Y-1430746D02*
X6439230Y-1383127D01*
X6439230Y-1383127D02*
X6429706Y-1354555D01*
X6429706Y-1354555D02*
X6420182Y-1335508D01*
X6420182Y-1335508D02*
X6401135Y-1306936D01*
X6401135Y-1306936D02*
X6391611Y-1297412D01*
D12*
X-52500Y-1748500D02*
X-2500Y-1698500D01*
X-52500Y-1648500D01*
X-102500Y-1698500D01*
X-52500Y-1748500D01*
D11*
X363039Y-1789984D02*
X248753Y-1789984D01*
X305896Y-1789984D02*
X305896Y-1589984D01*
X305896Y-1589984D02*
X286848Y-1618555D01*
X286848Y-1618555D02*
X267801Y-1637603D01*
X267801Y-1637603D02*
X248753Y-1647127D01*
X448753Y-1770936D02*
X458277Y-1780460D01*
X458277Y-1780460D02*
X448753Y-1789984D01*
X448753Y-1789984D02*
X439229Y-1780460D01*
X439229Y-1780460D02*
X448753Y-1770936D01*
X448753Y-1770936D02*
X448753Y-1789984D01*
X582086Y-1589984D02*
X601134Y-1589984D01*
X601134Y-1589984D02*
X620182Y-1599508D01*
X620182Y-1599508D02*
X629705Y-1609031D01*
X629705Y-1609031D02*
X639229Y-1628079D01*
X639229Y-1628079D02*
X648753Y-1666174D01*
X648753Y-1666174D02*
X648753Y-1713793D01*
X648753Y-1713793D02*
X639229Y-1751888D01*
X639229Y-1751888D02*
X629705Y-1770936D01*
X629705Y-1770936D02*
X620182Y-1780460D01*
X620182Y-1780460D02*
X601134Y-1789984D01*
X601134Y-1789984D02*
X582086Y-1789984D01*
X582086Y-1789984D02*
X563039Y-1780460D01*
X563039Y-1780460D02*
X553515Y-1770936D01*
X553515Y-1770936D02*
X543991Y-1751888D01*
X543991Y-1751888D02*
X534467Y-1713793D01*
X534467Y-1713793D02*
X534467Y-1666174D01*
X534467Y-1666174D02*
X543991Y-1628079D01*
X543991Y-1628079D02*
X553515Y-1609031D01*
X553515Y-1609031D02*
X563039Y-1599508D01*
X563039Y-1599508D02*
X582086Y-1589984D01*
X772562Y-1589984D02*
X791610Y-1589984D01*
X791610Y-1589984D02*
X810658Y-1599508D01*
X810658Y-1599508D02*
X820182Y-1609031D01*
X820182Y-1609031D02*
X829705Y-1628079D01*
X829705Y-1628079D02*
X839229Y-1666174D01*
X839229Y-1666174D02*
X839229Y-1713793D01*
X839229Y-1713793D02*
X829705Y-1751888D01*
X829705Y-1751888D02*
X820182Y-1770936D01*
X820182Y-1770936D02*
X810658Y-1780460D01*
X810658Y-1780460D02*
X791610Y-1789984D01*
X791610Y-1789984D02*
X772562Y-1789984D01*
X772562Y-1789984D02*
X753515Y-1780460D01*
X753515Y-1780460D02*
X743991Y-1770936D01*
X743991Y-1770936D02*
X734467Y-1751888D01*
X734467Y-1751888D02*
X724943Y-1713793D01*
X724943Y-1713793D02*
X724943Y-1666174D01*
X724943Y-1666174D02*
X734467Y-1628079D01*
X734467Y-1628079D02*
X743991Y-1609031D01*
X743991Y-1609031D02*
X753515Y-1599508D01*
X753515Y-1599508D02*
X772562Y-1589984D01*
X963039Y-1589984D02*
X982086Y-1589984D01*
X982086Y-1589984D02*
X1001134Y-1599508D01*
X1001134Y-1599508D02*
X1010658Y-1609031D01*
X1010658Y-1609031D02*
X1020182Y-1628079D01*
X1020182Y-1628079D02*
X1029705Y-1666174D01*
X1029705Y-1666174D02*
X1029705Y-1713793D01*
X1029705Y-1713793D02*
X1020182Y-1751888D01*
X1020182Y-1751888D02*
X1010658Y-1770936D01*
X1010658Y-1770936D02*
X1001134Y-1780460D01*
X1001134Y-1780460D02*
X982086Y-1789984D01*
X982086Y-1789984D02*
X963039Y-1789984D01*
X963039Y-1789984D02*
X943991Y-1780460D01*
X943991Y-1780460D02*
X934467Y-1770936D01*
X934467Y-1770936D02*
X924943Y-1751888D01*
X924943Y-1751888D02*
X915420Y-1713793D01*
X915420Y-1713793D02*
X915420Y-1666174D01*
X915420Y-1666174D02*
X924943Y-1628079D01*
X924943Y-1628079D02*
X934467Y-1609031D01*
X934467Y-1609031D02*
X943991Y-1599508D01*
X943991Y-1599508D02*
X963039Y-1589984D01*
X1115420Y-1789984D02*
X1115420Y-1656650D01*
X1115420Y-1675698D02*
X1124944Y-1666174D01*
X1124944Y-1666174D02*
X1143991Y-1656650D01*
X1143991Y-1656650D02*
X1172563Y-1656650D01*
X1172563Y-1656650D02*
X1191610Y-1666174D01*
X1191610Y-1666174D02*
X1201134Y-1685222D01*
X1201134Y-1685222D02*
X1201134Y-1789984D01*
X1201134Y-1685222D02*
X1210658Y-1666174D01*
X1210658Y-1666174D02*
X1229705Y-1656650D01*
X1229705Y-1656650D02*
X1258277Y-1656650D01*
X1258277Y-1656650D02*
X1277325Y-1666174D01*
X1277325Y-1666174D02*
X1286848Y-1685222D01*
X1286848Y-1685222D02*
X1286848Y-1789984D01*
X1382086Y-1789984D02*
X1382086Y-1656650D01*
X1382086Y-1675698D02*
X1391610Y-1666174D01*
X1391610Y-1666174D02*
X1410658Y-1656650D01*
X1410658Y-1656650D02*
X1439229Y-1656650D01*
X1439229Y-1656650D02*
X1458277Y-1666174D01*
X1458277Y-1666174D02*
X1467801Y-1685222D01*
X1467801Y-1685222D02*
X1467801Y-1789984D01*
X1467801Y-1685222D02*
X1477324Y-1666174D01*
X1477324Y-1666174D02*
X1496372Y-1656650D01*
X1496372Y-1656650D02*
X1524943Y-1656650D01*
X1524943Y-1656650D02*
X1543991Y-1666174D01*
X1543991Y-1666174D02*
X1553515Y-1685222D01*
X1553515Y-1685222D02*
X1553515Y-1789984D01*
X1943991Y-1580460D02*
X1772563Y-1837603D01*
X2201134Y-1589984D02*
X2220182Y-1589984D01*
X2220182Y-1589984D02*
X2239229Y-1599508D01*
X2239229Y-1599508D02*
X2248753Y-1609031D01*
X2248753Y-1609031D02*
X2258277Y-1628079D01*
X2258277Y-1628079D02*
X2267801Y-1666174D01*
X2267801Y-1666174D02*
X2267801Y-1713793D01*
X2267801Y-1713793D02*
X2258277Y-1751888D01*
X2258277Y-1751888D02*
X2248753Y-1770936D01*
X2248753Y-1770936D02*
X2239229Y-1780460D01*
X2239229Y-1780460D02*
X2220182Y-1789984D01*
X2220182Y-1789984D02*
X2201134Y-1789984D01*
X2201134Y-1789984D02*
X2182087Y-1780460D01*
X2182087Y-1780460D02*
X2172563Y-1770936D01*
X2172563Y-1770936D02*
X2163039Y-1751888D01*
X2163039Y-1751888D02*
X2153515Y-1713793D01*
X2153515Y-1713793D02*
X2153515Y-1666174D01*
X2153515Y-1666174D02*
X2163039Y-1628079D01*
X2163039Y-1628079D02*
X2172563Y-1609031D01*
X2172563Y-1609031D02*
X2182087Y-1599508D01*
X2182087Y-1599508D02*
X2201134Y-1589984D01*
X2353515Y-1770936D02*
X2363039Y-1780460D01*
X2363039Y-1780460D02*
X2353515Y-1789984D01*
X2353515Y-1789984D02*
X2343991Y-1780460D01*
X2343991Y-1780460D02*
X2353515Y-1770936D01*
X2353515Y-1770936D02*
X2353515Y-1789984D01*
X2486848Y-1589984D02*
X2505896Y-1589984D01*
X2505896Y-1589984D02*
X2524944Y-1599508D01*
X2524944Y-1599508D02*
X2534468Y-1609031D01*
X2534468Y-1609031D02*
X2543991Y-1628079D01*
X2543991Y-1628079D02*
X2553515Y-1666174D01*
X2553515Y-1666174D02*
X2553515Y-1713793D01*
X2553515Y-1713793D02*
X2543991Y-1751888D01*
X2543991Y-1751888D02*
X2534468Y-1770936D01*
X2534468Y-1770936D02*
X2524944Y-1780460D01*
X2524944Y-1780460D02*
X2505896Y-1789984D01*
X2505896Y-1789984D02*
X2486848Y-1789984D01*
X2486848Y-1789984D02*
X2467801Y-1780460D01*
X2467801Y-1780460D02*
X2458277Y-1770936D01*
X2458277Y-1770936D02*
X2448753Y-1751888D01*
X2448753Y-1751888D02*
X2439229Y-1713793D01*
X2439229Y-1713793D02*
X2439229Y-1666174D01*
X2439229Y-1666174D02*
X2448753Y-1628079D01*
X2448753Y-1628079D02*
X2458277Y-1609031D01*
X2458277Y-1609031D02*
X2467801Y-1599508D01*
X2467801Y-1599508D02*
X2486848Y-1589984D01*
X2620182Y-1589984D02*
X2743991Y-1589984D01*
X2743991Y-1589984D02*
X2677325Y-1666174D01*
X2677325Y-1666174D02*
X2705896Y-1666174D01*
X2705896Y-1666174D02*
X2724944Y-1675698D01*
X2724944Y-1675698D02*
X2734468Y-1685222D01*
X2734468Y-1685222D02*
X2743991Y-1704269D01*
X2743991Y-1704269D02*
X2743991Y-1751888D01*
X2743991Y-1751888D02*
X2734468Y-1770936D01*
X2734468Y-1770936D02*
X2724944Y-1780460D01*
X2724944Y-1780460D02*
X2705896Y-1789984D01*
X2705896Y-1789984D02*
X2648753Y-1789984D01*
X2648753Y-1789984D02*
X2629706Y-1780460D01*
X2629706Y-1780460D02*
X2620182Y-1770936D01*
X2839229Y-1789984D02*
X2877325Y-1789984D01*
X2877325Y-1789984D02*
X2896372Y-1780460D01*
X2896372Y-1780460D02*
X2905896Y-1770936D01*
X2905896Y-1770936D02*
X2924944Y-1742365D01*
X2924944Y-1742365D02*
X2934467Y-1704269D01*
X2934467Y-1704269D02*
X2934467Y-1628079D01*
X2934467Y-1628079D02*
X2924944Y-1609031D01*
X2924944Y-1609031D02*
X2915420Y-1599508D01*
X2915420Y-1599508D02*
X2896372Y-1589984D01*
X2896372Y-1589984D02*
X2858277Y-1589984D01*
X2858277Y-1589984D02*
X2839229Y-1599508D01*
X2839229Y-1599508D02*
X2829706Y-1609031D01*
X2829706Y-1609031D02*
X2820182Y-1628079D01*
X2820182Y-1628079D02*
X2820182Y-1675698D01*
X2820182Y-1675698D02*
X2829706Y-1694746D01*
X2829706Y-1694746D02*
X2839229Y-1704269D01*
X2839229Y-1704269D02*
X2858277Y-1713793D01*
X2858277Y-1713793D02*
X2896372Y-1713793D01*
X2896372Y-1713793D02*
X2915420Y-1704269D01*
X2915420Y-1704269D02*
X2924944Y-1694746D01*
X2924944Y-1694746D02*
X2934467Y-1675698D01*
X3105896Y-1656650D02*
X3105896Y-1789984D01*
X3058277Y-1580460D02*
X3010658Y-1723317D01*
X3010658Y-1723317D02*
X3134467Y-1723317D01*
X3201134Y-1589984D02*
X3201134Y-1628079D01*
X3277325Y-1589984D02*
X3277325Y-1628079D01*
X3572563Y-1866174D02*
X3563039Y-1856650D01*
X3563039Y-1856650D02*
X3543991Y-1828079D01*
X3543991Y-1828079D02*
X3534468Y-1809031D01*
X3534468Y-1809031D02*
X3524944Y-1780460D01*
X3524944Y-1780460D02*
X3515420Y-1732841D01*
X3515420Y-1732841D02*
X3515420Y-1694746D01*
X3515420Y-1694746D02*
X3524944Y-1647127D01*
X3524944Y-1647127D02*
X3534468Y-1618555D01*
X3534468Y-1618555D02*
X3543991Y-1599508D01*
X3543991Y-1599508D02*
X3563039Y-1570936D01*
X3563039Y-1570936D02*
X3572563Y-1561412D01*
X3677325Y-1675698D02*
X3658277Y-1666174D01*
X3658277Y-1666174D02*
X3648753Y-1656650D01*
X3648753Y-1656650D02*
X3639229Y-1637603D01*
X3639229Y-1637603D02*
X3639229Y-1628079D01*
X3639229Y-1628079D02*
X3648753Y-1609031D01*
X3648753Y-1609031D02*
X3658277Y-1599508D01*
X3658277Y-1599508D02*
X3677325Y-1589984D01*
X3677325Y-1589984D02*
X3715420Y-1589984D01*
X3715420Y-1589984D02*
X3734468Y-1599508D01*
X3734468Y-1599508D02*
X3743991Y-1609031D01*
X3743991Y-1609031D02*
X3753515Y-1628079D01*
X3753515Y-1628079D02*
X3753515Y-1637603D01*
X3753515Y-1637603D02*
X3743991Y-1656650D01*
X3743991Y-1656650D02*
X3734468Y-1666174D01*
X3734468Y-1666174D02*
X3715420Y-1675698D01*
X3715420Y-1675698D02*
X3677325Y-1675698D01*
X3677325Y-1675698D02*
X3658277Y-1685222D01*
X3658277Y-1685222D02*
X3648753Y-1694746D01*
X3648753Y-1694746D02*
X3639229Y-1713793D01*
X3639229Y-1713793D02*
X3639229Y-1751888D01*
X3639229Y-1751888D02*
X3648753Y-1770936D01*
X3648753Y-1770936D02*
X3658277Y-1780460D01*
X3658277Y-1780460D02*
X3677325Y-1789984D01*
X3677325Y-1789984D02*
X3715420Y-1789984D01*
X3715420Y-1789984D02*
X3734468Y-1780460D01*
X3734468Y-1780460D02*
X3743991Y-1770936D01*
X3743991Y-1770936D02*
X3753515Y-1751888D01*
X3753515Y-1751888D02*
X3753515Y-1713793D01*
X3753515Y-1713793D02*
X3743991Y-1694746D01*
X3743991Y-1694746D02*
X3734468Y-1685222D01*
X3734468Y-1685222D02*
X3715420Y-1675698D01*
X3991610Y-1789984D02*
X3991610Y-1589984D01*
X4077325Y-1789984D02*
X4077325Y-1685222D01*
X4077325Y-1685222D02*
X4067801Y-1666174D01*
X4067801Y-1666174D02*
X4048753Y-1656650D01*
X4048753Y-1656650D02*
X4020182Y-1656650D01*
X4020182Y-1656650D02*
X4001134Y-1666174D01*
X4001134Y-1666174D02*
X3991610Y-1675698D01*
X4201134Y-1789984D02*
X4182087Y-1780460D01*
X4182087Y-1780460D02*
X4172563Y-1770936D01*
X4172563Y-1770936D02*
X4163039Y-1751888D01*
X4163039Y-1751888D02*
X4163039Y-1694746D01*
X4163039Y-1694746D02*
X4172563Y-1675698D01*
X4172563Y-1675698D02*
X4182087Y-1666174D01*
X4182087Y-1666174D02*
X4201134Y-1656650D01*
X4201134Y-1656650D02*
X4229706Y-1656650D01*
X4229706Y-1656650D02*
X4248753Y-1666174D01*
X4248753Y-1666174D02*
X4258277Y-1675698D01*
X4258277Y-1675698D02*
X4267801Y-1694746D01*
X4267801Y-1694746D02*
X4267801Y-1751888D01*
X4267801Y-1751888D02*
X4258277Y-1770936D01*
X4258277Y-1770936D02*
X4248753Y-1780460D01*
X4248753Y-1780460D02*
X4229706Y-1789984D01*
X4229706Y-1789984D02*
X4201134Y-1789984D01*
X4382087Y-1789984D02*
X4363039Y-1780460D01*
X4363039Y-1780460D02*
X4353515Y-1761412D01*
X4353515Y-1761412D02*
X4353515Y-1589984D01*
X4534468Y-1780460D02*
X4515420Y-1789984D01*
X4515420Y-1789984D02*
X4477325Y-1789984D01*
X4477325Y-1789984D02*
X4458277Y-1780460D01*
X4458277Y-1780460D02*
X4448753Y-1761412D01*
X4448753Y-1761412D02*
X4448753Y-1685222D01*
X4448753Y-1685222D02*
X4458277Y-1666174D01*
X4458277Y-1666174D02*
X4477325Y-1656650D01*
X4477325Y-1656650D02*
X4515420Y-1656650D01*
X4515420Y-1656650D02*
X4534468Y-1666174D01*
X4534468Y-1666174D02*
X4543992Y-1685222D01*
X4543992Y-1685222D02*
X4543992Y-1704269D01*
X4543992Y-1704269D02*
X4448753Y-1723317D01*
X4620182Y-1780460D02*
X4639230Y-1789984D01*
X4639230Y-1789984D02*
X4677325Y-1789984D01*
X4677325Y-1789984D02*
X4696373Y-1780460D01*
X4696373Y-1780460D02*
X4705896Y-1761412D01*
X4705896Y-1761412D02*
X4705896Y-1751888D01*
X4705896Y-1751888D02*
X4696373Y-1732841D01*
X4696373Y-1732841D02*
X4677325Y-1723317D01*
X4677325Y-1723317D02*
X4648753Y-1723317D01*
X4648753Y-1723317D02*
X4629706Y-1713793D01*
X4629706Y-1713793D02*
X4620182Y-1694746D01*
X4620182Y-1694746D02*
X4620182Y-1685222D01*
X4620182Y-1685222D02*
X4629706Y-1666174D01*
X4629706Y-1666174D02*
X4648753Y-1656650D01*
X4648753Y-1656650D02*
X4677325Y-1656650D01*
X4677325Y-1656650D02*
X4696373Y-1666174D01*
X4772563Y-1866174D02*
X4782087Y-1856650D01*
X4782087Y-1856650D02*
X4801134Y-1828079D01*
X4801134Y-1828079D02*
X4810658Y-1809031D01*
X4810658Y-1809031D02*
X4820182Y-1780460D01*
X4820182Y-1780460D02*
X4829706Y-1732841D01*
X4829706Y-1732841D02*
X4829706Y-1694746D01*
X4829706Y-1694746D02*
X4820182Y-1647127D01*
X4820182Y-1647127D02*
X4810658Y-1618555D01*
X4810658Y-1618555D02*
X4801134Y-1599508D01*
X4801134Y-1599508D02*
X4782087Y-1570936D01*
X4782087Y-1570936D02*
X4772563Y-1561412D01*
M02*
