G04 #@! TF.GenerationSoftware,KiCad,Pcbnew,9.0.1*
G04 #@! TF.CreationDate,2025-06-04T13:38:33-07:00*
G04 #@! TF.ProjectId,mp153-devboard,6d703135-332d-4646-9576-626f6172642e,rev?*
G04 #@! TF.SameCoordinates,PXb487a00PY650eff0*
G04 #@! TF.FileFunction,Paste,Top*
G04 #@! TF.FilePolarity,Positive*
%FSLAX46Y46*%
G04 Gerber Fmt 4.6, Leading zero omitted, Abs format (unit mm)*
G04 Created by KiCad (PCBNEW 9.0.1) date 2025-06-04 13:38:33*
%MOMM*%
%LPD*%
G01*
G04 APERTURE LIST*
G04 Aperture macros list*
%AMRoundRect*
0 Rectangle with rounded corners*
0 $1 Rounding radius*
0 $2 $3 $4 $5 $6 $7 $8 $9 X,Y pos of 4 corners*
0 Add a 4 corners polygon primitive as box body*
4,1,4,$2,$3,$4,$5,$6,$7,$8,$9,$2,$3,0*
0 Add four circle primitives for the rounded corners*
1,1,$1+$1,$2,$3*
1,1,$1+$1,$4,$5*
1,1,$1+$1,$6,$7*
1,1,$1+$1,$8,$9*
0 Add four rect primitives between the rounded corners*
20,1,$1+$1,$2,$3,$4,$5,0*
20,1,$1+$1,$4,$5,$6,$7,0*
20,1,$1+$1,$6,$7,$8,$9,0*
20,1,$1+$1,$8,$9,$2,$3,0*%
G04 Aperture macros list end*
%ADD10RoundRect,0.147500X0.172500X-0.147500X0.172500X0.147500X-0.172500X0.147500X-0.172500X-0.147500X0*%
%ADD11RoundRect,0.150000X-0.512500X-0.150000X0.512500X-0.150000X0.512500X0.150000X-0.512500X0.150000X0*%
%ADD12RoundRect,0.147500X0.147500X0.172500X-0.147500X0.172500X-0.147500X-0.172500X0.147500X-0.172500X0*%
%ADD13RoundRect,0.147500X-0.172500X0.147500X-0.172500X-0.147500X0.172500X-0.147500X0.172500X0.147500X0*%
%ADD14R,0.160000X0.500000*%
%ADD15R,0.500000X0.500000*%
%ADD16R,1.000000X1.000000*%
%ADD17C,0.230000*%
%ADD18R,0.800000X0.700000*%
%ADD19RoundRect,0.147500X-0.147500X-0.172500X0.147500X-0.172500X0.147500X0.172500X-0.147500X0.172500X0*%
%ADD20R,0.200000X0.890000*%
%ADD21R,0.350000X0.890000*%
%ADD22R,0.800100X0.800100*%
%ADD23C,0.400000*%
%ADD24R,0.600000X2.000000*%
G04 APERTURE END LIST*
D10*
G04 #@! TO.C,C42*
X14130800Y37555821D03*
X14130800Y38525821D03*
G04 #@! TD*
D11*
G04 #@! TO.C,U3*
X35302500Y25590000D03*
X35302500Y24640000D03*
X35302500Y23690000D03*
X37577500Y23690000D03*
X37577500Y24640000D03*
X37577500Y25590000D03*
G04 #@! TD*
D12*
G04 #@! TO.C,R4*
X33445000Y25890000D03*
X32475000Y25890000D03*
G04 #@! TD*
D13*
G04 #@! TO.C,C98*
X25160800Y44715821D03*
X25160800Y43745821D03*
G04 #@! TD*
D14*
G04 #@! TO.C,NT2*
X20280800Y10807600D03*
X20280800Y10307600D03*
G04 #@! TD*
D15*
G04 #@! TO.C,JP1*
X7740800Y17617600D03*
X7060800Y17617600D03*
X6380800Y17617600D03*
G04 #@! TD*
D10*
G04 #@! TO.C,R67*
X25130800Y35825821D03*
X25130800Y36795821D03*
G04 #@! TD*
D16*
G04 #@! TO.C,C81*
X23170800Y46610821D03*
X21470800Y46610821D03*
G04 #@! TD*
D13*
G04 #@! TO.C,C13*
X14930800Y17662600D03*
X14930800Y16692600D03*
G04 #@! TD*
D10*
G04 #@! TO.C,C64*
X26174260Y43740741D03*
X26174260Y44710741D03*
G04 #@! TD*
D13*
G04 #@! TO.C,C55*
X26190800Y42715821D03*
X26190800Y41745821D03*
G04 #@! TD*
D17*
G04 #@! TO.C,U2*
X16860800Y22237600D03*
X16860800Y22887600D03*
X16860800Y23537600D03*
X16860800Y24187600D03*
X16860800Y24837600D03*
X16860800Y25487600D03*
X16860800Y26137600D03*
X16860800Y26787600D03*
X16860800Y27437600D03*
X17510800Y22237600D03*
X17510800Y22887600D03*
X17510800Y23537600D03*
X17510800Y24187600D03*
X17510800Y24837600D03*
X17510800Y25487600D03*
X17510800Y26137600D03*
X17510800Y26787600D03*
X17510800Y27437600D03*
X18160800Y22237600D03*
X18160800Y22887600D03*
X18160800Y23537600D03*
X18160800Y24187600D03*
X18160800Y24837600D03*
X18160800Y25487600D03*
X18160800Y26137600D03*
X18160800Y26787600D03*
X18160800Y27437600D03*
X18810800Y22237600D03*
X18810800Y22887600D03*
X18810800Y23537600D03*
X18810800Y24187600D03*
X18810800Y24837600D03*
X18810800Y25487600D03*
X18810800Y26137600D03*
X18810800Y26787600D03*
X18810800Y27437600D03*
X19460800Y22237600D03*
X19460800Y22887600D03*
X19460800Y23537600D03*
X19460800Y24187600D03*
X19460800Y24837600D03*
X19460800Y25487600D03*
X19460800Y26137600D03*
X19460800Y26787600D03*
X19460800Y27437600D03*
X20110800Y22237600D03*
X20110800Y22887600D03*
X20110800Y23537600D03*
X20110800Y24187600D03*
X20110800Y24837600D03*
X20110800Y25487600D03*
X20110800Y26137600D03*
X20110800Y26787600D03*
X20110800Y27437600D03*
X20760800Y22237600D03*
X20760800Y22887600D03*
X20760800Y23537600D03*
X20760800Y24187600D03*
X20760800Y24837600D03*
X20760800Y25487600D03*
X20760800Y26137600D03*
X20760800Y26787600D03*
X20760800Y27437600D03*
X21410800Y22237600D03*
X21410800Y22887600D03*
X21410800Y23537600D03*
X21410800Y24187600D03*
X21410800Y24837600D03*
X21410800Y25487600D03*
X21410800Y26137600D03*
X21410800Y26787600D03*
X21410800Y27437600D03*
X22060800Y22237600D03*
X22060800Y22887600D03*
X22060800Y23537600D03*
X22060800Y24187600D03*
X22060800Y24837600D03*
X22060800Y25487600D03*
X22060800Y26137600D03*
X22060800Y26787600D03*
X22060800Y27437600D03*
X14960800Y20337600D03*
X14960800Y20837600D03*
X14960800Y21337600D03*
X14960800Y21837600D03*
X14960800Y22837600D03*
X14960800Y23337600D03*
X14960800Y24337600D03*
X14960800Y24837600D03*
X14960800Y25837600D03*
X14960800Y26337600D03*
X14960800Y27337600D03*
X14960800Y27837600D03*
X14960800Y28337600D03*
X14960800Y28837600D03*
X14960800Y29337600D03*
X15460800Y20337600D03*
X15460800Y20837600D03*
X15460800Y21337600D03*
X15460800Y21837600D03*
X15460800Y22337600D03*
X15460800Y22837600D03*
X15460800Y23337600D03*
X15460800Y23837600D03*
X15460800Y24337600D03*
X15460800Y24837600D03*
X15460800Y25337600D03*
X15460800Y25837600D03*
X15460800Y26337600D03*
X15460800Y26837600D03*
X15460800Y27337600D03*
X15460800Y27837600D03*
X15460800Y28337600D03*
X15460800Y28837600D03*
X15460800Y29337600D03*
X15960800Y20337600D03*
X15960800Y20837600D03*
X15960800Y21337600D03*
X15960800Y21837600D03*
X15960800Y22337600D03*
X15960800Y22837600D03*
X15960800Y23337600D03*
X15960800Y23837600D03*
X15960800Y24337600D03*
X15960800Y24837600D03*
X15960800Y25337600D03*
X15960800Y25837600D03*
X15960800Y26337600D03*
X15960800Y26837600D03*
X15960800Y27337600D03*
X15960800Y27837600D03*
X15960800Y28337600D03*
X15960800Y28837600D03*
X15960800Y29337600D03*
X16460800Y20337600D03*
X16460800Y20837600D03*
X16460800Y21337600D03*
X16460800Y28337600D03*
X16460800Y28837600D03*
X16460800Y29337600D03*
X16960800Y20337600D03*
X16960800Y20837600D03*
X16960800Y21337600D03*
X16960800Y28337600D03*
X16960800Y28837600D03*
X17460800Y20837600D03*
X17460800Y21337600D03*
X17460800Y28337600D03*
X17460800Y28837600D03*
X17460800Y29337600D03*
X17960800Y20337600D03*
X17960800Y20837600D03*
X17960800Y21337600D03*
X17960800Y28337600D03*
X17960800Y28837600D03*
X17960800Y29337600D03*
X18460800Y20337600D03*
X18460800Y20837600D03*
X18460800Y21337600D03*
X18460800Y28337600D03*
X18460800Y28837600D03*
X18960800Y20837600D03*
X18960800Y21337600D03*
X18960800Y28337600D03*
X18960800Y28837600D03*
X18960800Y29337600D03*
X19460800Y20337600D03*
X19460800Y20837600D03*
X19460800Y21337600D03*
X19460800Y28337600D03*
X19460800Y28837600D03*
X19460800Y29337600D03*
X19960800Y20337600D03*
X19960800Y20837600D03*
X19960800Y21337600D03*
X19960800Y28337600D03*
X19960800Y28837600D03*
X20460800Y20837600D03*
X20460800Y21337600D03*
X20460800Y28337600D03*
X20460800Y28837600D03*
X20460800Y29337600D03*
X20960800Y20337600D03*
X20960800Y20837600D03*
X20960800Y21337600D03*
X20960800Y28337600D03*
X20960800Y28837600D03*
X20960800Y29337600D03*
X21460800Y20337600D03*
X21460800Y20837600D03*
X21460800Y21337600D03*
X21460800Y28337600D03*
X21460800Y28837600D03*
X21960800Y20837600D03*
X21960800Y21337600D03*
X21960800Y28337600D03*
X21960800Y28837600D03*
X21960800Y29337600D03*
X22460800Y20337600D03*
X22460800Y20837600D03*
X22460800Y21337600D03*
X22460800Y28337600D03*
X22460800Y28837600D03*
X22460800Y29337600D03*
X22960800Y20337600D03*
X22960800Y20837600D03*
X22960800Y21337600D03*
X22960800Y21837600D03*
X22960800Y22337600D03*
X22960800Y22837600D03*
X22960800Y23337600D03*
X22960800Y23837600D03*
X22960800Y24337600D03*
X22960800Y24837600D03*
X22960800Y25337600D03*
X22960800Y25837600D03*
X22960800Y26337600D03*
X22960800Y26837600D03*
X22960800Y27337600D03*
X22960800Y27837600D03*
X22960800Y28337600D03*
X22960800Y28837600D03*
X22960800Y29337600D03*
X23460800Y20337600D03*
X23460800Y20837600D03*
X23460800Y21337600D03*
X23460800Y21837600D03*
X23460800Y22337600D03*
X23460800Y22837600D03*
X23460800Y23337600D03*
X23460800Y23837600D03*
X23460800Y24337600D03*
X23460800Y24837600D03*
X23460800Y25337600D03*
X23460800Y25837600D03*
X23460800Y26337600D03*
X23460800Y26837600D03*
X23460800Y27337600D03*
X23460800Y27837600D03*
X23460800Y28337600D03*
X23460800Y28837600D03*
X23460800Y29337600D03*
X23960800Y20337600D03*
X23960800Y20837600D03*
X23960800Y21337600D03*
X23960800Y21837600D03*
X23960800Y22337600D03*
X23960800Y23337600D03*
X23960800Y23837600D03*
X23960800Y24837600D03*
X23960800Y25337600D03*
X23960800Y26337600D03*
X23960800Y26837600D03*
X23960800Y27837600D03*
X23960800Y28337600D03*
X23960800Y28837600D03*
X23960800Y29337600D03*
G04 #@! TD*
D16*
G04 #@! TO.C,C83*
X17810800Y46620821D03*
X16110800Y46620821D03*
G04 #@! TD*
D18*
G04 #@! TO.C,X1*
X17395807Y17940808D03*
X16095803Y17940808D03*
X16095803Y16940808D03*
X17395807Y16940808D03*
G04 #@! TD*
D19*
G04 #@! TO.C,C24*
X18495800Y16047600D03*
X19465800Y16047600D03*
G04 #@! TD*
D12*
G04 #@! TO.C,R3*
X29375800Y27027600D03*
X28405800Y27027600D03*
G04 #@! TD*
D20*
G04 #@! TO.C,J4*
X12151700Y1912600D03*
X12151700Y4802600D03*
X12551700Y1912600D03*
X12551700Y4802600D03*
X12951700Y1912600D03*
X12951700Y4802600D03*
X13351700Y1912600D03*
X13351700Y4802600D03*
X13751700Y1912600D03*
X13751700Y4802600D03*
X14151700Y1912600D03*
X14151700Y4802600D03*
X14551700Y1912600D03*
X14551700Y4802600D03*
X14951700Y1912600D03*
X14951700Y4802600D03*
X15351700Y1912600D03*
X15351700Y4802600D03*
X15751700Y1912600D03*
X15751700Y4802600D03*
X16151700Y1912600D03*
X16151700Y4802600D03*
X16551700Y1912600D03*
X16551700Y4802600D03*
X16951700Y1912600D03*
X16951700Y4802600D03*
X17351700Y1912600D03*
X17351700Y4802600D03*
X17751700Y1912600D03*
X17751700Y4802600D03*
X18151700Y1912600D03*
X18151700Y4802600D03*
X18551700Y1912600D03*
X18551700Y4802600D03*
X18951700Y1912600D03*
X18951700Y4802600D03*
X19351700Y1912600D03*
X19351700Y4802600D03*
X19751700Y1912600D03*
X19751700Y4802600D03*
X20151700Y1912600D03*
X20151700Y4802600D03*
X20551700Y1912600D03*
X20551700Y4802600D03*
X20951700Y1912600D03*
X20951700Y4802600D03*
X21351700Y1912600D03*
X21351700Y4802600D03*
X21751700Y1912600D03*
X21751700Y4802600D03*
X22151700Y1912600D03*
X22151700Y4802600D03*
X22551700Y1912600D03*
X22551700Y4802600D03*
X22951700Y1912600D03*
X22951700Y4802600D03*
X23351700Y1912600D03*
X23351700Y4802600D03*
X23751700Y1912600D03*
X23751700Y4802600D03*
X24151700Y1912600D03*
X24151700Y4802600D03*
X24551700Y1912600D03*
X24551700Y4802600D03*
X24951700Y1912600D03*
X24951700Y4802600D03*
X25351700Y1912600D03*
X25351700Y4802600D03*
X25751700Y1912600D03*
X25751700Y4802600D03*
X26151700Y1912600D03*
X26151700Y4802600D03*
X26551700Y1912600D03*
X26551700Y4802600D03*
X26951700Y1912600D03*
X26951700Y4802600D03*
X27351700Y1912600D03*
X27351700Y4802600D03*
X27751700Y1912600D03*
X27751700Y4802600D03*
D21*
X11676700Y1912600D03*
X28226700Y1912600D03*
X11676700Y4802600D03*
X28226700Y4802600D03*
G04 #@! TD*
D13*
G04 #@! TO.C,C102*
X25150800Y40265821D03*
X25150800Y39295821D03*
G04 #@! TD*
D10*
G04 #@! TO.C,C94*
X19140800Y46285821D03*
X19140800Y47255821D03*
G04 #@! TD*
D19*
G04 #@! TO.C,R5*
X32465000Y26900000D03*
X33435000Y26900000D03*
G04 #@! TD*
D10*
G04 #@! TO.C,C14*
X18534260Y17025741D03*
X18534260Y17995741D03*
G04 #@! TD*
D22*
G04 #@! TO.C,U13*
X21850800Y13057600D03*
X23750800Y13057600D03*
X22800800Y15056580D03*
G04 #@! TD*
D13*
G04 #@! TO.C,C12*
X33380000Y16445000D03*
X33380000Y15475000D03*
G04 #@! TD*
D23*
G04 #@! TO.C,U14*
X16440398Y43836600D03*
X17240400Y43836600D03*
X18040400Y43836600D03*
X21240400Y43836600D03*
X22040400Y43836600D03*
X22840400Y43836600D03*
X16440398Y43036600D03*
X17240400Y43036600D03*
X18040400Y43036600D03*
X21240400Y43036600D03*
X22040400Y43036600D03*
X22840400Y43036600D03*
X16440398Y42236600D03*
X17240400Y42236600D03*
X18040400Y42236600D03*
X21240400Y42236600D03*
X22040400Y42236600D03*
X22840400Y42236600D03*
X16440398Y41436600D03*
X17240400Y41436600D03*
X18040400Y41436600D03*
X21240400Y41436600D03*
X22040400Y41436600D03*
X22840400Y41436600D03*
X16440398Y40636600D03*
X17240400Y40636600D03*
X18040400Y40636600D03*
X21240400Y40636600D03*
X22040400Y40636600D03*
X22840400Y40636600D03*
X16440398Y39836600D03*
X17240400Y39836600D03*
X18040400Y39836600D03*
X21240400Y39836600D03*
X22040400Y39836600D03*
X22840400Y39836600D03*
X16440398Y39036600D03*
X17240400Y39036600D03*
X18040400Y39036600D03*
X21240400Y39036600D03*
X22040400Y39036600D03*
X22840400Y39036600D03*
X16440398Y38236600D03*
X17240400Y38236600D03*
X18040400Y38236600D03*
X21240400Y38236600D03*
X22040400Y38236600D03*
X22840400Y38236600D03*
X16440398Y37436600D03*
X17240400Y37436600D03*
X18040400Y37436600D03*
X21240400Y37436600D03*
X22040400Y37436600D03*
X22840400Y37436600D03*
X16440398Y36636600D03*
X17240400Y36636600D03*
X18040400Y36636600D03*
X21240400Y36636600D03*
X22040400Y36636600D03*
X22840400Y36636600D03*
X16440398Y35836600D03*
X17240400Y35836600D03*
X18040400Y35836600D03*
X21240400Y35836600D03*
X22040400Y35836600D03*
X22840400Y35836600D03*
X16440398Y35036600D03*
X17240400Y35036600D03*
X18040400Y35036600D03*
X21240400Y35036600D03*
X22040400Y35036600D03*
X22840400Y35036600D03*
X16440398Y34236600D03*
X17240400Y34236600D03*
X18040400Y34236600D03*
X21240400Y34236600D03*
X22040400Y34236600D03*
X22840400Y34236600D03*
X16440398Y33436600D03*
X17240400Y33436600D03*
X18040400Y33436600D03*
X21240400Y33436600D03*
X22040400Y33436600D03*
X22840400Y33436600D03*
X16440398Y32636600D03*
X17240400Y32636600D03*
X18040400Y32636600D03*
X21240400Y32636600D03*
X22040400Y32636600D03*
X22840400Y32636600D03*
X16440398Y31836600D03*
X17240400Y31836600D03*
X18040400Y31836600D03*
X21240400Y31836600D03*
X22040400Y31836600D03*
X22840400Y31836600D03*
G04 #@! TD*
D12*
G04 #@! TO.C,C40*
X26395800Y28154821D03*
X25425800Y28154821D03*
G04 #@! TD*
D13*
G04 #@! TO.C,C82*
X14130800Y40445821D03*
X14130800Y39475821D03*
G04 #@! TD*
D10*
G04 #@! TO.C,C99*
X25172060Y41736141D03*
X25172060Y42706141D03*
G04 #@! TD*
G04 #@! TO.C,C21*
X9270000Y14680000D03*
X9270000Y15650000D03*
G04 #@! TD*
D13*
G04 #@! TO.C,C87*
X20200800Y47255821D03*
X20200800Y46285821D03*
G04 #@! TD*
D19*
G04 #@! TO.C,R11*
X35785000Y21780000D03*
X36755000Y21780000D03*
G04 #@! TD*
D10*
G04 #@! TO.C,C92*
X14130800Y43695821D03*
X14130800Y44665821D03*
G04 #@! TD*
D16*
G04 #@! TO.C,C44*
X23508800Y11496600D03*
X21808800Y11496600D03*
G04 #@! TD*
D19*
G04 #@! TO.C,R10*
X36725000Y27160000D03*
X37695000Y27160000D03*
G04 #@! TD*
D10*
G04 #@! TO.C,C106*
X14140800Y35025821D03*
X14140800Y35995821D03*
G04 #@! TD*
D16*
G04 #@! TO.C,C41*
X20130800Y13747600D03*
X20130800Y12047600D03*
G04 #@! TD*
D10*
G04 #@! TO.C,R59*
X25150800Y33895821D03*
X25150800Y34865821D03*
G04 #@! TD*
D24*
G04 #@! TO.C,U5*
X34785000Y9648000D03*
X36055000Y9648000D03*
X37325000Y9648000D03*
X38595000Y9648000D03*
X38595000Y16252000D03*
X37325000Y16252000D03*
X36055000Y16252000D03*
X34785000Y16252000D03*
G04 #@! TD*
D20*
G04 #@! TO.C,J6*
X14151700Y51912600D03*
X14151700Y54802600D03*
X14551700Y51912600D03*
X14551700Y54802600D03*
X14951700Y51912600D03*
X14951700Y54802600D03*
X15351700Y51912600D03*
X15351700Y54802600D03*
X15751700Y51912600D03*
X15751700Y54802600D03*
X16151700Y51912600D03*
X16151700Y54802600D03*
X16551700Y51912600D03*
X16551700Y54802600D03*
X16951700Y51912600D03*
X16951700Y54802600D03*
X17351700Y51912600D03*
X17351700Y54802600D03*
X17751700Y51912600D03*
X17751700Y54802600D03*
X18151700Y51912600D03*
X18151700Y54802600D03*
X18551700Y51912600D03*
X18551700Y54802600D03*
X18951700Y51912600D03*
X18951700Y54802600D03*
X19351700Y51912600D03*
X19351700Y54802600D03*
X19751700Y51912600D03*
X19751700Y54802600D03*
X20151700Y51912600D03*
X20151700Y54802600D03*
X20551700Y51912600D03*
X20551700Y54802600D03*
X20951700Y51912600D03*
X20951700Y54802600D03*
X21351700Y51912600D03*
X21351700Y54802600D03*
X21751700Y51912600D03*
X21751700Y54802600D03*
X22151700Y51912600D03*
X22151700Y54802600D03*
X22551700Y51912600D03*
X22551700Y54802600D03*
X22951700Y51912600D03*
X22951700Y54802600D03*
X23351700Y51912600D03*
X23351700Y54802600D03*
X23751700Y51912600D03*
X23751700Y54802600D03*
X24151700Y51912600D03*
X24151700Y54802600D03*
X24551700Y51912600D03*
X24551700Y54802600D03*
X24951700Y51912600D03*
X24951700Y54802600D03*
X25351700Y51912600D03*
X25351700Y54802600D03*
X25751700Y51912600D03*
X25751700Y54802600D03*
X26151700Y51912600D03*
X26151700Y54802600D03*
X26551700Y51912600D03*
X26551700Y54802600D03*
X26951700Y51912600D03*
X26951700Y54802600D03*
X27351700Y51912600D03*
X27351700Y54802600D03*
X27751700Y51912600D03*
X27751700Y54802600D03*
X28151700Y51912600D03*
X28151700Y54802600D03*
X28551700Y51912600D03*
X28551700Y54802600D03*
X28951700Y51912600D03*
X28951700Y54802600D03*
X29351700Y51912600D03*
X29351700Y54802600D03*
X29751700Y51912600D03*
X29751700Y54802600D03*
D21*
X13676700Y51912600D03*
X30226700Y51912600D03*
X13676700Y54802600D03*
X30226700Y54802600D03*
G04 #@! TD*
M02*
