G04 #@! TF.GenerationSoftware,KiCad,Pcbnew,9.0.1*
G04 #@! TF.CreationDate,2025-06-03T13:31:56-07:00*
G04 #@! TF.ProjectId,mp153-devboard,6d703135-332d-4646-9576-626f6172642e,rev?*
G04 #@! TF.SameCoordinates,PXb487a00PY650eff0*
G04 #@! TF.FileFunction,Soldermask,Bot*
G04 #@! TF.FilePolarity,Negative*
%FSLAX46Y46*%
G04 Gerber Fmt 4.6, Leading zero omitted, Abs format (unit mm)*
G04 Created by KiCad (PCBNEW 9.0.1) date 2025-06-03 13:31:56*
%MOMM*%
%LPD*%
G01*
G04 APERTURE LIST*
G04 Aperture macros list*
%AMRoundRect*
0 Rectangle with rounded corners*
0 $1 Rounding radius*
0 $2 $3 $4 $5 $6 $7 $8 $9 X,Y pos of 4 corners*
0 Add a 4 corners polygon primitive as box body*
4,1,4,$2,$3,$4,$5,$6,$7,$8,$9,$2,$3,0*
0 Add four circle primitives for the rounded corners*
1,1,$1+$1,$2,$3*
1,1,$1+$1,$4,$5*
1,1,$1+$1,$6,$7*
1,1,$1+$1,$8,$9*
0 Add four rect primitives between the rounded corners*
20,1,$1+$1,$2,$3,$4,$5,0*
20,1,$1+$1,$4,$5,$6,$7,0*
20,1,$1+$1,$6,$7,$8,$9,0*
20,1,$1+$1,$8,$9,$2,$3,0*%
G04 Aperture macros list end*
%ADD10C,3.000000*%
%ADD11R,1.000000X1.000000*%
%ADD12RoundRect,0.147500X-0.172500X0.147500X-0.172500X-0.147500X0.172500X-0.147500X0.172500X0.147500X0*%
%ADD13RoundRect,0.147500X-0.147500X-0.172500X0.147500X-0.172500X0.147500X0.172500X-0.147500X0.172500X0*%
%ADD14RoundRect,0.150000X0.150000X-0.512500X0.150000X0.512500X-0.150000X0.512500X-0.150000X-0.512500X0*%
%ADD15RoundRect,0.147500X0.147500X0.172500X-0.147500X0.172500X-0.147500X-0.172500X0.147500X-0.172500X0*%
%ADD16RoundRect,0.250000X-0.375000X-0.850000X0.375000X-0.850000X0.375000X0.850000X-0.375000X0.850000X0*%
%ADD17R,0.700000X0.340000*%
%ADD18R,0.700000X1.000000*%
%ADD19RoundRect,0.147500X0.172500X-0.147500X0.172500X0.147500X-0.172500X0.147500X-0.172500X-0.147500X0*%
%ADD20RoundRect,0.125000X0.125000X0.225000X-0.125000X0.225000X-0.125000X-0.225000X0.125000X-0.225000X0*%
%ADD21RoundRect,0.147500X0.226274X0.017678X0.017678X0.226274X-0.226274X-0.017678X-0.017678X-0.226274X0*%
%ADD22R,1.350000X0.400000*%
%ADD23O,1.550000X0.890000*%
%ADD24R,1.550000X1.200000*%
%ADD25O,0.950000X1.250000*%
%ADD26R,1.550000X1.500000*%
%ADD27RoundRect,0.250000X-0.850000X0.375000X-0.850000X-0.375000X0.850000X-0.375000X0.850000X0.375000X0*%
%ADD28R,0.350000X0.650000*%
%ADD29R,1.600000X1.000000*%
%ADD30R,0.340000X0.700000*%
%ADD31R,0.650000X1.060000*%
%ADD32R,2.400000X0.740000*%
%ADD33R,1.700000X1.700000*%
%ADD34O,1.700000X1.700000*%
%ADD35R,0.850000X2.300000*%
G04 APERTURE END LIST*
D10*
G04 #@! TO.C,H4*
X37250800Y3357600D03*
G04 #@! TD*
G04 #@! TO.C,H2*
X3250800Y53357600D03*
G04 #@! TD*
G04 #@! TO.C,H3*
X3250800Y3357600D03*
G04 #@! TD*
G04 #@! TO.C,H1*
X37250800Y53357600D03*
G04 #@! TD*
D11*
G04 #@! TO.C,C91*
X34029800Y39649600D03*
X32329800Y39649600D03*
G04 #@! TD*
D12*
G04 #@! TO.C,C69*
X34235800Y44867600D03*
X34235800Y43897600D03*
G04 #@! TD*
D13*
G04 #@! TO.C,C79*
X10009800Y29330600D03*
X10979800Y29330600D03*
G04 #@! TD*
D12*
G04 #@! TO.C,C46*
X6718800Y21527600D03*
X6718800Y20557600D03*
G04 #@! TD*
D14*
G04 #@! TO.C,U3*
X33710800Y24042600D03*
X32760800Y24042600D03*
X31810800Y24042600D03*
X31810800Y26317600D03*
X32760800Y26317600D03*
X33710800Y26317600D03*
G04 #@! TD*
D12*
G04 #@! TO.C,R65*
X36630800Y42359600D03*
X36630800Y41389600D03*
G04 #@! TD*
D15*
G04 #@! TO.C,R62*
X8505800Y35937600D03*
X7535800Y35937600D03*
G04 #@! TD*
G04 #@! TO.C,C59*
X18332620Y23249661D03*
X17362620Y23249661D03*
G04 #@! TD*
D13*
G04 #@! TO.C,R60*
X7311800Y23689600D03*
X8281800Y23689600D03*
G04 #@! TD*
D15*
G04 #@! TO.C,R41*
X35125800Y46088580D03*
X34155800Y46088580D03*
G04 #@! TD*
D16*
G04 #@! TO.C,L1*
X6975800Y31247600D03*
X9125800Y31247600D03*
G04 #@! TD*
D15*
G04 #@! TO.C,C52*
X21661800Y27082821D03*
X20691800Y27082821D03*
G04 #@! TD*
D17*
G04 #@! TO.C,U15*
X9048800Y34355600D03*
X9048800Y33855600D03*
X9048800Y33355600D03*
X7548800Y33355600D03*
X7548800Y33855600D03*
X7548800Y34355600D03*
G04 #@! TD*
D15*
G04 #@! TO.C,R61*
X6515800Y36307600D03*
X5545800Y36307600D03*
G04 #@! TD*
D18*
G04 #@! TO.C,S1*
X22630800Y10367600D03*
X22630800Y16367600D03*
X18930800Y10367600D03*
X18930800Y16367600D03*
G04 #@! TD*
D13*
G04 #@! TO.C,C56*
X9317800Y23717600D03*
X10287800Y23717600D03*
G04 #@! TD*
G04 #@! TO.C,R64*
X31636340Y37326600D03*
X32606340Y37326600D03*
G04 #@! TD*
D12*
G04 #@! TO.C,C61*
X14062880Y33757501D03*
X14062880Y32787501D03*
G04 #@! TD*
G04 #@! TO.C,R74*
X11540800Y14692600D03*
X11540800Y13722600D03*
G04 #@! TD*
D15*
G04 #@! TO.C,C60*
X22281800Y23888821D03*
X21311800Y23888821D03*
G04 #@! TD*
D19*
G04 #@! TO.C,C32*
X23420800Y23715821D03*
X23420800Y24685821D03*
G04 #@! TD*
D11*
G04 #@! TO.C,C89*
X10757800Y32495600D03*
X10757800Y30795600D03*
G04 #@! TD*
D19*
G04 #@! TO.C,C67*
X6400800Y33132600D03*
X6400800Y34102600D03*
G04 #@! TD*
G04 #@! TO.C,C68*
X30952340Y33152600D03*
X30952340Y34122600D03*
G04 #@! TD*
D13*
G04 #@! TO.C,C72*
X1795800Y18137600D03*
X2765800Y18137600D03*
G04 #@! TD*
G04 #@! TO.C,C74*
X20645800Y28520821D03*
X21615800Y28520821D03*
G04 #@! TD*
G04 #@! TO.C,C63*
X16925800Y21120821D03*
X17895800Y21120821D03*
G04 #@! TD*
D17*
G04 #@! TO.C,U16*
X33620840Y34258600D03*
X33620840Y33758600D03*
X33620840Y33258600D03*
X32120840Y33258600D03*
X32120840Y33758600D03*
X32120840Y34258600D03*
G04 #@! TD*
D19*
G04 #@! TO.C,C95*
X24010800Y31665821D03*
X24010800Y32635821D03*
G04 #@! TD*
D11*
G04 #@! TO.C,C88*
X11650800Y21287600D03*
X11650800Y19587600D03*
G04 #@! TD*
D19*
G04 #@! TO.C,R66*
X37650800Y41397600D03*
X37650800Y42367600D03*
G04 #@! TD*
D11*
G04 #@! TO.C,C49*
X35665800Y39563600D03*
X37365800Y39563600D03*
G04 #@! TD*
D13*
G04 #@! TO.C,C80*
X18522800Y26825821D03*
X19492800Y26825821D03*
G04 #@! TD*
D15*
G04 #@! TO.C,C84*
X3295800Y22967600D03*
X2325800Y22967600D03*
G04 #@! TD*
D11*
G04 #@! TO.C,C48*
X35093340Y33925600D03*
X35093340Y35625600D03*
G04 #@! TD*
D15*
G04 #@! TO.C,C31*
X20039360Y21885681D03*
X19069360Y21885681D03*
G04 #@! TD*
G04 #@! TO.C,C54*
X24424800Y22770821D03*
X23454800Y22770821D03*
G04 #@! TD*
G04 #@! TO.C,C73*
X18365360Y24514581D03*
X17395360Y24514581D03*
G04 #@! TD*
D20*
G04 #@! TO.C,D11*
X34540800Y47168580D03*
X33740800Y47168580D03*
G04 #@! TD*
D15*
G04 #@! TO.C,C70*
X18365500Y25870941D03*
X17395500Y25870941D03*
G04 #@! TD*
D21*
G04 #@! TO.C,R68*
X20537340Y38408381D03*
X19851446Y39094275D03*
G04 #@! TD*
D22*
G04 #@! TO.C,J3*
X35720800Y26347600D03*
X35720800Y25697600D03*
X35720800Y25047600D03*
X35720800Y24397600D03*
X35720800Y23747600D03*
D23*
X38420800Y28547600D03*
D24*
X38420800Y27947600D03*
D25*
X35720800Y27547600D03*
D26*
X38420800Y26047600D03*
X38420800Y24047600D03*
D25*
X35720800Y22547600D03*
D24*
X38420800Y22147600D03*
D23*
X38420800Y21547600D03*
G04 #@! TD*
D27*
G04 #@! TO.C,L3*
X32291800Y43491600D03*
X32291800Y41341600D03*
G04 #@! TD*
D18*
G04 #@! TO.C,S2*
X2790800Y44567600D03*
X2790800Y38567600D03*
X6490800Y44567600D03*
X6490800Y38567600D03*
G04 #@! TD*
D13*
G04 #@! TO.C,C12*
X36185800Y15777600D03*
X37155800Y15777600D03*
G04 #@! TD*
D19*
G04 #@! TO.C,C33*
X20290800Y18882600D03*
X20290800Y19852600D03*
G04 #@! TD*
D15*
G04 #@! TO.C,R72*
X13935800Y18807600D03*
X12965800Y18807600D03*
G04 #@! TD*
D11*
G04 #@! TO.C,C90*
X35083340Y32367600D03*
X35083340Y30667600D03*
G04 #@! TD*
D15*
G04 #@! TO.C,C109*
X13059260Y34160741D03*
X12089260Y34160741D03*
G04 #@! TD*
D19*
G04 #@! TO.C,R69*
X14799480Y30717401D03*
X14799480Y31687401D03*
G04 #@! TD*
D28*
G04 #@! TO.C,U20*
X27144260Y20440741D03*
X26494260Y20440741D03*
X25844260Y20440741D03*
X25844260Y22540741D03*
X26494260Y22540741D03*
X27144260Y22540741D03*
D29*
X26494260Y21490741D03*
G04 #@! TD*
D18*
G04 #@! TO.C,S3*
X16830800Y11187600D03*
X16830800Y17187600D03*
X13130800Y11187600D03*
X13130800Y17187600D03*
G04 #@! TD*
D13*
G04 #@! TO.C,R71*
X12094260Y35200741D03*
X13064260Y35200741D03*
G04 #@! TD*
D19*
G04 #@! TO.C,C45*
X5270800Y20527600D03*
X5270800Y21497600D03*
G04 #@! TD*
D30*
G04 #@! TO.C,U17*
X35325800Y41195600D03*
X34825800Y41195600D03*
X34325800Y41195600D03*
X34325800Y42695600D03*
X34825800Y42695600D03*
X35325800Y42695600D03*
G04 #@! TD*
D11*
G04 #@! TO.C,C47*
X10782800Y34048600D03*
X10782800Y35748600D03*
G04 #@! TD*
D13*
G04 #@! TO.C,C30*
X19061740Y20869681D03*
X20031740Y20869681D03*
G04 #@! TD*
D15*
G04 #@! TO.C,C50*
X20222240Y23239501D03*
X19252240Y23239501D03*
G04 #@! TD*
D12*
G04 #@! TO.C,C21*
X10970800Y17762600D03*
X10970800Y16792600D03*
G04 #@! TD*
D19*
G04 #@! TO.C,R52*
X15368440Y27390001D03*
X15368440Y28360001D03*
G04 #@! TD*
D31*
G04 #@! TO.C,U19*
X8099800Y22255600D03*
X9049800Y22255600D03*
X9999800Y22255600D03*
X9999800Y20055600D03*
X8099800Y20055600D03*
G04 #@! TD*
D12*
G04 #@! TO.C,C93*
X15038240Y33744801D03*
X15038240Y32774801D03*
G04 #@! TD*
D15*
G04 #@! TO.C,C62*
X20277980Y25835381D03*
X19307980Y25835381D03*
G04 #@! TD*
D32*
G04 #@! TO.C,J2*
X2470800Y10707600D03*
X6370800Y10707600D03*
X2470800Y11977600D03*
X6370800Y11977600D03*
X2470800Y13247600D03*
X6370800Y13247600D03*
X2470800Y14517600D03*
X6370800Y14517600D03*
X2470800Y15787600D03*
X6370800Y15787600D03*
G04 #@! TD*
D15*
G04 #@! TO.C,C76*
X26469260Y23710741D03*
X25499260Y23710741D03*
G04 #@! TD*
D19*
G04 #@! TO.C,C43*
X13870800Y37805821D03*
X13870800Y38775821D03*
G04 #@! TD*
D33*
G04 #@! TO.C,J1*
X4030800Y34027600D03*
D34*
X1490800Y34027600D03*
X4030800Y31487600D03*
X1490800Y31487600D03*
X4030800Y28947600D03*
X1490800Y28947600D03*
X4030800Y26407600D03*
X1490800Y26407600D03*
G04 #@! TD*
D31*
G04 #@! TO.C,U18*
X3880800Y19467600D03*
X2930800Y19467600D03*
X1980800Y19467600D03*
X1980800Y21667600D03*
X3880800Y21667600D03*
G04 #@! TD*
D15*
G04 #@! TO.C,R63*
X32525340Y36277600D03*
X31555340Y36277600D03*
G04 #@! TD*
D12*
G04 #@! TO.C,C103*
X14784240Y42769421D03*
X14784240Y41799421D03*
G04 #@! TD*
D19*
G04 #@! TO.C,R70*
X12894260Y32115741D03*
X12894260Y33085741D03*
G04 #@! TD*
D35*
G04 #@! TO.C,L2*
X31509340Y31077600D03*
X33459340Y31077600D03*
G04 #@! TD*
D15*
G04 #@! TO.C,C53*
X20247640Y24509501D03*
X19277640Y24509501D03*
G04 #@! TD*
D19*
G04 #@! TO.C,C51*
X23460800Y20865821D03*
X23460800Y21835821D03*
G04 #@! TD*
G04 #@! TO.C,C75*
X11370800Y22532600D03*
X11370800Y23502600D03*
G04 #@! TD*
D15*
G04 #@! TO.C,C71*
X16457960Y26381481D03*
X15487960Y26381481D03*
G04 #@! TD*
M02*
