M48
; DRILL file {KiCad 9.0.7} date 2026-04-01T22:26:18-0700
; FORMAT={-:-/ absolute / metric / decimal}
; #@! TF.CreationDate,2026-04-01T22:26:18-07:00
; #@! TF.GenerationSoftware,Kicad,Pcbnew,9.0.7
; #@! TF.FileFunction,MixedPlating,1,4
FMAT,2
METRIC
; #@! TA.AperFunction,Plated,PTH,ViaDrill
T1C0.150
; #@! TA.AperFunction,Plated,PTH,ViaDrill
T2C0.200
; #@! TA.AperFunction,Plated,PTH,ComponentDrill
T3C0.200
; #@! TA.AperFunction,Plated,PTH,ViaDrill
T4C0.250
; #@! TA.AperFunction,Plated,PTH,ViaDrill
T5C0.350
; #@! TA.AperFunction,Plated,PTH,ComponentDrill
T6C0.600
; #@! TA.AperFunction,Plated,PTH,ComponentDrill
T7C0.900
; #@! TA.AperFunction,Plated,PTH,ComponentDrill
T8C1.000
; #@! TA.AperFunction,NonPlated,NPTH,ComponentDrill
T9C3.000
%
G90
G05
T1
X-1.969Y9.5
X-1.709Y26.591
X-1.694Y7.605
X-1.235Y11.348
X-1.05Y13.777
X-0.955Y19.028
X-0.892Y18.325
X-0.706Y38.382
X-0.127Y13.996
X-0.088Y38.7
X0.067Y7.401
X0.427Y37.507
X0.468Y10.902
X0.49Y7.894
X0.501Y12.4
X0.555Y9.186
X0.989Y16.049
X1.003Y20.965
X1.553Y15.919
X1.693Y17.131
X2.216Y23.129
X2.219Y20.022
X2.24Y15.901
X2.279Y18.413
X2.288Y22.336
X2.288Y21.564
X2.416Y19.002
X2.455Y17.978
X2.476Y17.481
X2.568Y22.784
X2.568Y21.954
X2.575Y20.527
X2.586Y19.761
X3.22Y33.018
X3.287Y32.385
X4.089Y52.948
X5.423Y14.922
X5.471Y17.01
X5.788Y17.838
X5.795Y16.457
X6.064Y35.564
X6.14Y19.732
X6.556Y35.386
X6.996Y14.514
X7.371Y6.214
X7.469Y37.747
X7.64Y22.936
X7.669Y19.936
X7.68Y1.448
X7.762Y4.078
X8.194Y27.4
X8.249Y23.256
X8.354Y8.565
X8.539Y12.978
X8.599Y24.826
X8.669Y18.916
X8.836Y15.227
X9.073Y11.42
X9.089Y18.316
X9.129Y17.378
X9.3Y27.388
X9.51Y11.099
X9.609Y17.826
X9.659Y18.806
X9.685Y31.909
X9.717Y1.011
X9.792Y11.468
X9.816Y35.43
X9.818Y45.826
X10.115Y38.971
X10.125Y9.589
X10.232Y39.845
X10.236Y18.493
X10.241Y17.399
X10.375Y15.234
X10.425Y36.742
X10.534Y9.294
X10.685Y14.869
X11.017Y9.303
X11.089Y15.54
X11.111Y27.464
X11.189Y18.526
X11.316Y7.255
X11.576Y6.668
X11.622Y47.35
X11.774Y15.419
X12.086Y8.953
X12.188Y14.907
X12.189Y26.406
X12.441Y7.961
X12.53Y45.614
X12.903Y14.609
X13.001Y12.847
X13.331Y50.108
X13.37Y31.172
X13.404Y31.72
X13.549Y33.076
X13.586Y34.008
X13.61Y33.545
X13.832Y14.278
X13.966Y50.547
X13.975Y17.215
X14.071Y37.917
X14.111Y32.606
X14.25Y0.741
X14.32Y17.54
X14.341Y13.348
X14.397Y53.331
X14.491Y1.506
X14.603Y50.494
X14.648Y51.189
X14.729Y15.306
X14.986Y1.042
X15.075Y8.502
X15.157Y51.263
X15.331Y15.933
X15.547Y44.165
X15.671Y51.024
X15.69Y51.616
X15.742Y8.571
X15.84Y34.387
X16.019Y27.506
X16.331Y6.138
X16.791Y29.538
X16.831Y6.138
X16.923Y45.147
X17.317Y6.09
X17.672Y15.007
X18.06Y50.913
X18.504Y39.913
X18.504Y39.473
X18.615Y51.583
X18.655Y32.813
X18.809Y44.748
X18.993Y13.413
X19.003Y31.495
X19.201Y6.146
X19.212Y51.631
X19.337Y44.078
X19.621Y51.645
X19.901Y44.524
X20.006Y50.472
X20.294Y49.704
X20.488Y6.083
X20.732Y32.128
X20.732Y31.59
X21.181Y6.118
X21.855Y6.838
X21.997Y53.268
X22.001Y5.908
X22.15Y51.378
X22.195Y12.487
X22.341Y9.478
X22.488Y6.439
X23.197Y5.998
X23.333Y39.691
X23.333Y12.42
X23.674Y51.292
X24.171Y6.938
X24.806Y54.076
X25.217Y53.629
X25.273Y12.42
X25.3Y22.9
X25.413Y10.422
X25.507Y51.611
X25.744Y1.046
X25.928Y51.084
X26.331Y6.328
X27.153Y12.42
X27.635Y8.453
X28.551Y24.813
X28.775Y29.534
X29.063Y12.41
X29.191Y37.559
X29.225Y29.544
X30.943Y12.42
X31.439Y28.907
X31.643Y33.151
X31.698Y32.696
X31.708Y49.332
X31.713Y3.522
X31.716Y32.272
X31.759Y5.522
X36.642Y48.379
X36.997Y45.259
X37.289Y26.78
X37.474Y48.431
X37.611Y35.17
X37.94Y23.352
X38.128Y44.095
X38.237Y11.75
X38.952Y9.936
T2
X0.231Y55.486
X2.224Y45.022
X2.925Y53.061
X3.969Y55.215
X5.254Y55.195
X5.342Y16.352
X5.504Y52.895
X5.864Y25.757
X6.176Y27.892
X7.129Y55.096
X7.619Y18.864
X7.656Y25.939
X7.666Y17.804
X7.672Y23.974
X7.694Y26.864
X8.016Y55.121
X8.115Y44.729
X8.142Y24.364
X8.169Y25.389
X8.169Y18.414
X8.219Y22.376
X8.669Y22.814
X8.669Y20.974
X8.669Y17.889
X8.73Y23.899
X8.751Y10.806
X9.074Y55.148
X9.084Y23.439
X9.09Y20.362
X9.119Y24.464
X9.194Y26.439
X9.204Y22.474
X9.644Y22.714
X9.725Y26.956
X9.917Y19.664
X9.992Y21.701
X10.004Y23.639
X10.169Y27.407
X10.319Y21.164
X10.325Y24.054
X10.352Y25.505
X10.419Y23.164
X10.584Y25.949
X10.834Y23.639
X10.886Y21.701
X10.894Y25.554
X10.919Y19.739
X10.974Y6.26
X11.144Y26.414
X11.195Y55.609
X11.356Y52.698
X11.419Y23.164
X11.419Y24.047
X11.419Y21.153
X11.519Y25.569
X11.595Y26.815
X11.669Y17.936
X11.824Y19.739
X11.866Y23.56
X11.944Y21.689
X12.149Y18.366
X12.194Y27.389
X12.4Y25.544
X12.444Y23.039
X12.494Y21.139
X12.514Y24.044
X12.719Y25.956
X12.816Y19.159
X12.869Y19.714
X12.894Y21.639
X13.004Y23.639
X13.122Y25.476
X13.254Y18.397
X13.334Y1.457
X13.419Y24.047
X13.419Y23.139
X13.419Y22.164
X13.541Y20.035
X13.694Y17.839
X13.749Y25.577
X13.811Y23.636
X13.919Y21.639
X13.919Y19.693
X13.992Y20.639
X14.073Y27.436
X14.344Y25.512
X14.419Y24.047
X14.419Y23.139
X14.419Y21.207
X14.669Y26.974
X14.67Y19.309
X14.834Y23.636
X14.844Y21.614
X14.944Y20.714
X14.992Y56.021
X15.172Y27.383
X15.334Y21.138
X15.544Y24.064
X15.544Y20.064
X15.549Y25.479
X15.594Y26.979
X15.6Y22.036
X15.66Y54.471
X15.664Y24.974
X15.763Y18.799
X15.764Y19.324
X15.929Y24.55
X16.054Y21.462
X16.158Y22.307
X16.159Y18.394
X16.264Y19.294
X16.376Y4.595
X16.573Y26.985
X16.665Y21.813
X16.667Y19.881
X16.669Y17.964
X16.675Y22.786
X16.706Y18.959
X16.761Y25.812
X16.765Y24.985
X17.144Y26.304
X17.16Y23.398
X17.166Y20.335
X17.169Y22.344
X17.196Y17.399
X17.234Y24.397
X17.254Y21.369
X17.265Y25.485
X17.574Y16.484
X17.609Y39.112
X17.609Y37.536
X17.629Y40.546
X17.652Y20.884
X17.669Y24.834
X17.673Y22.906
X17.71Y23.885
X17.729Y19.869
X17.734Y26.819
X17.754Y25.889
X17.754Y18.889
X17.754Y17.889
X17.754Y21.894
X17.996Y53.728
X18.042Y35.374
X18.145Y14.941
X18.279Y41.88
X18.365Y47.715
X18.464Y43.913
X18.488Y38.202
X19.197Y53.704
X19.439Y29.835
X19.649Y39.509
X19.649Y38.684
X19.907Y15.069
X20.241Y53.688
X20.424Y41.687
X20.504Y42.317
X20.758Y46.065
X20.981Y53.688
X21.416Y44.119
X22.236Y39.462
X22.272Y40.634
X22.639Y30.52
X22.674Y45.282
X22.784Y36.507
X22.784Y33.367
X23.4Y36.62
X23.451Y42.696
X23.574Y33.357
X23.798Y31.036
X23.939Y38.231
X24.074Y35.277
X24.114Y36.436
X24.366Y48.604
X24.387Y51.59
X24.532Y30.509
X24.589Y38.284
X24.597Y22.195
X24.599Y46.522
X24.935Y50.296
X25.175Y4.392
X25.182Y47.666
X25.381Y31.139
X25.383Y22.19
X25.744Y24.182
X25.939Y35.409
X26.164Y23.002
X26.379Y30.509
X26.439Y35.409
X26.829Y47.149
X26.99Y56.021
X27.136Y1.592
X27.137Y30.982
X27.419Y3.653
X27.453Y5.94
X27.504Y50.579
X27.527Y51.54
X27.748Y36.436
X27.997Y29.293
X28.049Y47.989
X28.364Y34.034
X28.409Y53.913
X28.498Y49.033
X28.831Y46.306
X29.026Y34.034
X29.134Y46.881
X29.215Y36.378
X29.796Y53.923
X30.023Y49.217
X30.224Y47.879
X30.414Y34.226
X30.839Y36.486
X30.934Y37.559
X31.434Y38.329
X31.743Y45.935
X31.745Y46.788
X31.773Y47.945
X32.036Y43.159
X32.079Y43.862
X32.464Y49.329
X32.544Y41.384
X32.801Y31.568
X33.289Y49.269
X33.439Y37.859
X33.439Y36.259
X33.633Y4.968
X33.651Y31.578
X33.819Y7.472
X33.899Y47.709
X34.158Y13.951
X34.241Y34.973
X34.274Y43.446
X34.431Y31.578
X34.509Y48.799
X34.7Y16.566
X35.102Y7.806
X35.131Y31.588
X35.317Y37.983
X35.337Y14.891
X35.339Y36.784
X35.35Y39.14
X35.404Y37.295
X35.908Y43.581
X36.066Y42.797
X36.483Y29.217
X36.696Y28.215
X36.733Y32.083
X36.944Y36.168
X37.102Y11.417
X37.552Y39.418
X37.785Y36.053
X37.812Y41.088
X38.176Y10.988
T3
X26.589Y42.634
X26.589Y41.459
X26.589Y40.284
X27.764Y42.634
X27.764Y41.459
X27.764Y40.284
X28.939Y42.634
X28.939Y41.459
X28.939Y40.284
T4
X22.814Y21.777
X22.839Y22.377
X22.964Y17.402
X23.364Y24.027
X23.644Y16.536
X23.764Y22.202
X23.764Y18.202
X23.764Y17.402
X23.964Y24.027
X24.16Y16.01
X24.564Y18.202
X24.564Y17.402
X25.364Y18.202
X25.364Y17.402
X26.164Y22.202
X26.164Y18.202
X26.164Y17.402
X26.164Y16.602
X26.274Y24.004
X26.964Y23.002
X26.964Y22.202
X26.964Y18.202
X26.964Y17.402
X26.966Y23.995
X27.427Y16.585
X27.764Y23.002
X27.764Y22.202
X27.764Y18.202
X27.835Y17.537
X27.952Y23.977
X28.395Y16.591
X28.561Y22.213
X28.564Y23.002
X28.933Y16.348
X28.964Y23.977
X29.564Y23.952
X29.714Y16.452
X30.164Y23.952
X30.206Y30.073
X30.514Y16.452
X30.966Y17.425
X31.797Y17.395
X32.106Y29.607
X32.164Y23.952
X32.564Y16.452
X32.964Y23.952
X33.164Y16.452
X33.364Y21.402
X33.764Y23.952
X33.764Y16.452
X34.164Y21.402
X34.311Y29.182
X34.964Y23.802
X34.964Y23.002
X35.481Y29.071
X35.828Y22.246
X35.914Y17.852
X35.914Y17.052
T5
X19.49Y34.543
X20.703Y33.734
X22.922Y31.808
T7
X33.045Y56.045
X33.045Y53.505
T8
X-1.046Y36.061
X-1.046Y33.521
X-1.046Y30.981
X-1.046Y28.441
X1.494Y36.061
X1.494Y33.521
X1.494Y30.981
X1.494Y28.441
T9
X3.095Y39.597
X3.097Y3.78
X37.097Y53.78
T6
G00X33.584Y9.592
M15
G01X32.784Y9.592
M16
G05
G00X33.584Y0.952
M15
G01X32.784Y0.952
M16
G05
G00X37.784Y9.592
M15
G01X36.584Y9.592
M16
G05
G00X37.784Y0.952
M15
G01X36.584Y0.952
M16
G05
M30
