G04 #@! TF.GenerationSoftware,KiCad,Pcbnew,9.0.1*
G04 #@! TF.CreationDate,2025-06-04T13:38:33-07:00*
G04 #@! TF.ProjectId,mp153-devboard,6d703135-332d-4646-9576-626f6172642e,rev?*
G04 #@! TF.SameCoordinates,PXb487a00PY650eff0*
G04 #@! TF.FileFunction,Legend,Top*
G04 #@! TF.FilePolarity,Positive*
%FSLAX46Y46*%
G04 Gerber Fmt 4.6, Leading zero omitted, Abs format (unit mm)*
G04 Created by KiCad (PCBNEW 9.0.1) date 2025-06-04 13:38:33*
%MOMM*%
%LPD*%
G01*
G04 APERTURE LIST*
G04 Aperture macros list*
%AMRoundRect*
0 Rectangle with rounded corners*
0 $1 Rounding radius*
0 $2 $3 $4 $5 $6 $7 $8 $9 X,Y pos of 4 corners*
0 Add a 4 corners polygon primitive as box body*
4,1,4,$2,$3,$4,$5,$6,$7,$8,$9,$2,$3,0*
0 Add four circle primitives for the rounded corners*
1,1,$1+$1,$2,$3*
1,1,$1+$1,$4,$5*
1,1,$1+$1,$6,$7*
1,1,$1+$1,$8,$9*
0 Add four rect primitives between the rounded corners*
20,1,$1+$1,$2,$3,$4,$5,0*
20,1,$1+$1,$4,$5,$6,$7,0*
20,1,$1+$1,$6,$7,$8,$9,0*
20,1,$1+$1,$8,$9,$2,$3,0*%
G04 Aperture macros list end*
%ADD10C,0.120000*%
%ADD11C,0.150000*%
%ADD12C,0.149860*%
%ADD13C,0.100000*%
%ADD14C,0.200000*%
%ADD15RoundRect,0.147500X0.172500X-0.147500X0.172500X0.147500X-0.172500X0.147500X-0.172500X-0.147500X0*%
%ADD16RoundRect,0.150000X-0.512500X-0.150000X0.512500X-0.150000X0.512500X0.150000X-0.512500X0.150000X0*%
%ADD17RoundRect,0.147500X0.147500X0.172500X-0.147500X0.172500X-0.147500X-0.172500X0.147500X-0.172500X0*%
%ADD18RoundRect,0.147500X-0.172500X0.147500X-0.172500X-0.147500X0.172500X-0.147500X0.172500X0.147500X0*%
%ADD19R,0.160000X0.500000*%
%ADD20R,0.500000X0.500000*%
%ADD21R,1.000000X1.000000*%
%ADD22C,3.000000*%
%ADD23C,0.230000*%
%ADD24RoundRect,0.050000X0.400000X0.350000X-0.400000X0.350000X-0.400000X-0.350000X0.400000X-0.350000X0*%
%ADD25RoundRect,0.147500X-0.147500X-0.172500X0.147500X-0.172500X0.147500X0.172500X-0.147500X0.172500X0*%
%ADD26R,0.200000X0.890000*%
%ADD27R,0.350000X0.890000*%
%ADD28R,0.800100X0.800100*%
%ADD29C,0.500000*%
%ADD30R,0.600000X2.000000*%
%ADD31C,1.651000*%
%ADD32O,2.352400X1.152400*%
%ADD33O,1.952400X1.152400*%
%ADD34R,1.700000X1.700000*%
%ADD35O,1.700000X1.700000*%
G04 APERTURE END LIST*
D10*
X35090000Y26640000D02*
X35380000Y26970000D01*
X35090000Y27320000D02*
X35090000Y26640000D01*
X35090000Y26640000D02*
X34780000Y26970000D01*
D11*
X14250588Y50305705D02*
X13679160Y50305705D01*
X13964874Y50305705D02*
X13964874Y51105705D01*
X13964874Y51105705D02*
X13869636Y50991420D01*
X13869636Y50991420D02*
X13774398Y50915229D01*
X13774398Y50915229D02*
X13679160Y50877134D01*
X28871541Y51015705D02*
X29538207Y51015705D01*
X29538207Y51015705D02*
X29109636Y50215705D01*
X29966779Y50215705D02*
X30157255Y50215705D01*
X30157255Y50215705D02*
X30252493Y50253800D01*
X30252493Y50253800D02*
X30300112Y50291896D01*
X30300112Y50291896D02*
X30395350Y50406181D01*
X30395350Y50406181D02*
X30442969Y50558562D01*
X30442969Y50558562D02*
X30442969Y50863324D01*
X30442969Y50863324D02*
X30395350Y50939515D01*
X30395350Y50939515D02*
X30347731Y50977610D01*
X30347731Y50977610D02*
X30252493Y51015705D01*
X30252493Y51015705D02*
X30062017Y51015705D01*
X30062017Y51015705D02*
X29966779Y50977610D01*
X29966779Y50977610D02*
X29919160Y50939515D01*
X29919160Y50939515D02*
X29871541Y50863324D01*
X29871541Y50863324D02*
X29871541Y50672848D01*
X29871541Y50672848D02*
X29919160Y50596658D01*
X29919160Y50596658D02*
X29966779Y50558562D01*
X29966779Y50558562D02*
X30062017Y50520467D01*
X30062017Y50520467D02*
X30252493Y50520467D01*
X30252493Y50520467D02*
X30347731Y50558562D01*
X30347731Y50558562D02*
X30395350Y50596658D01*
X30395350Y50596658D02*
X30442969Y50672848D01*
X8629960Y17874948D02*
X8629960Y17410662D01*
X8629960Y17410662D02*
X8599007Y17317805D01*
X8599007Y17317805D02*
X8537103Y17255900D01*
X8537103Y17255900D02*
X8444245Y17224948D01*
X8444245Y17224948D02*
X8382341Y17224948D01*
X8846626Y17874948D02*
X9218055Y17874948D01*
X9032341Y17224948D02*
X9032341Y17874948D01*
X9806150Y17224948D02*
X9589483Y17534472D01*
X9434721Y17224948D02*
X9434721Y17874948D01*
X9434721Y17874948D02*
X9682340Y17874948D01*
X9682340Y17874948D02*
X9744245Y17843996D01*
X9744245Y17843996D02*
X9775198Y17813043D01*
X9775198Y17813043D02*
X9806150Y17751139D01*
X9806150Y17751139D02*
X9806150Y17658281D01*
X9806150Y17658281D02*
X9775198Y17596377D01*
X9775198Y17596377D02*
X9744245Y17565424D01*
X9744245Y17565424D02*
X9682340Y17534472D01*
X9682340Y17534472D02*
X9434721Y17534472D01*
X10053769Y17255900D02*
X10146626Y17224948D01*
X10146626Y17224948D02*
X10301388Y17224948D01*
X10301388Y17224948D02*
X10363293Y17255900D01*
X10363293Y17255900D02*
X10394245Y17286853D01*
X10394245Y17286853D02*
X10425198Y17348758D01*
X10425198Y17348758D02*
X10425198Y17410662D01*
X10425198Y17410662D02*
X10394245Y17472567D01*
X10394245Y17472567D02*
X10363293Y17503520D01*
X10363293Y17503520D02*
X10301388Y17534472D01*
X10301388Y17534472D02*
X10177579Y17565424D01*
X10177579Y17565424D02*
X10115674Y17596377D01*
X10115674Y17596377D02*
X10084721Y17627329D01*
X10084721Y17627329D02*
X10053769Y17689234D01*
X10053769Y17689234D02*
X10053769Y17751139D01*
X10053769Y17751139D02*
X10084721Y17813043D01*
X10084721Y17813043D02*
X10115674Y17843996D01*
X10115674Y17843996D02*
X10177579Y17874948D01*
X10177579Y17874948D02*
X10332340Y17874948D01*
X10332340Y17874948D02*
X10425198Y17843996D01*
X10610912Y17874948D02*
X10982341Y17874948D01*
X10796627Y17224948D02*
X10796627Y17874948D01*
X27082341Y1123305D02*
X27749007Y1123305D01*
X27749007Y1123305D02*
X27320436Y323305D01*
X28177579Y323305D02*
X28368055Y323305D01*
X28368055Y323305D02*
X28463293Y361400D01*
X28463293Y361400D02*
X28510912Y399496D01*
X28510912Y399496D02*
X28606150Y513781D01*
X28606150Y513781D02*
X28653769Y666162D01*
X28653769Y666162D02*
X28653769Y970924D01*
X28653769Y970924D02*
X28606150Y1047115D01*
X28606150Y1047115D02*
X28558531Y1085210D01*
X28558531Y1085210D02*
X28463293Y1123305D01*
X28463293Y1123305D02*
X28272817Y1123305D01*
X28272817Y1123305D02*
X28177579Y1085210D01*
X28177579Y1085210D02*
X28129960Y1047115D01*
X28129960Y1047115D02*
X28082341Y970924D01*
X28082341Y970924D02*
X28082341Y780448D01*
X28082341Y780448D02*
X28129960Y704258D01*
X28129960Y704258D02*
X28177579Y666162D01*
X28177579Y666162D02*
X28272817Y628067D01*
X28272817Y628067D02*
X28463293Y628067D01*
X28463293Y628067D02*
X28558531Y666162D01*
X28558531Y666162D02*
X28606150Y704258D01*
X28606150Y704258D02*
X28653769Y780448D01*
X12461388Y413305D02*
X11889960Y413305D01*
X12175674Y413305D02*
X12175674Y1213305D01*
X12175674Y1213305D02*
X12080436Y1099020D01*
X12080436Y1099020D02*
X11985198Y1022829D01*
X11985198Y1022829D02*
X11889960Y984734D01*
X13629160Y56079515D02*
X13676779Y56117610D01*
X13676779Y56117610D02*
X13772017Y56155705D01*
X13772017Y56155705D02*
X14010112Y56155705D01*
X14010112Y56155705D02*
X14105350Y56117610D01*
X14105350Y56117610D02*
X14152969Y56079515D01*
X14152969Y56079515D02*
X14200588Y56003324D01*
X14200588Y56003324D02*
X14200588Y55927134D01*
X14200588Y55927134D02*
X14152969Y55812848D01*
X14152969Y55812848D02*
X13581541Y55355705D01*
X13581541Y55355705D02*
X14200588Y55355705D01*
X29409636Y55842848D02*
X29314398Y55880943D01*
X29314398Y55880943D02*
X29266779Y55919039D01*
X29266779Y55919039D02*
X29219160Y55995229D01*
X29219160Y55995229D02*
X29219160Y56033324D01*
X29219160Y56033324D02*
X29266779Y56109515D01*
X29266779Y56109515D02*
X29314398Y56147610D01*
X29314398Y56147610D02*
X29409636Y56185705D01*
X29409636Y56185705D02*
X29600112Y56185705D01*
X29600112Y56185705D02*
X29695350Y56147610D01*
X29695350Y56147610D02*
X29742969Y56109515D01*
X29742969Y56109515D02*
X29790588Y56033324D01*
X29790588Y56033324D02*
X29790588Y55995229D01*
X29790588Y55995229D02*
X29742969Y55919039D01*
X29742969Y55919039D02*
X29695350Y55880943D01*
X29695350Y55880943D02*
X29600112Y55842848D01*
X29600112Y55842848D02*
X29409636Y55842848D01*
X29409636Y55842848D02*
X29314398Y55804753D01*
X29314398Y55804753D02*
X29266779Y55766658D01*
X29266779Y55766658D02*
X29219160Y55690467D01*
X29219160Y55690467D02*
X29219160Y55538086D01*
X29219160Y55538086D02*
X29266779Y55461896D01*
X29266779Y55461896D02*
X29314398Y55423800D01*
X29314398Y55423800D02*
X29409636Y55385705D01*
X29409636Y55385705D02*
X29600112Y55385705D01*
X29600112Y55385705D02*
X29695350Y55423800D01*
X29695350Y55423800D02*
X29742969Y55461896D01*
X29742969Y55461896D02*
X29790588Y55538086D01*
X29790588Y55538086D02*
X29790588Y55690467D01*
X29790588Y55690467D02*
X29742969Y55766658D01*
X29742969Y55766658D02*
X29695350Y55804753D01*
X29695350Y55804753D02*
X29600112Y55842848D01*
X30409636Y56185705D02*
X30504874Y56185705D01*
X30504874Y56185705D02*
X30600112Y56147610D01*
X30600112Y56147610D02*
X30647731Y56109515D01*
X30647731Y56109515D02*
X30695350Y56033324D01*
X30695350Y56033324D02*
X30742969Y55880943D01*
X30742969Y55880943D02*
X30742969Y55690467D01*
X30742969Y55690467D02*
X30695350Y55538086D01*
X30695350Y55538086D02*
X30647731Y55461896D01*
X30647731Y55461896D02*
X30600112Y55423800D01*
X30600112Y55423800D02*
X30504874Y55385705D01*
X30504874Y55385705D02*
X30409636Y55385705D01*
X30409636Y55385705D02*
X30314398Y55423800D01*
X30314398Y55423800D02*
X30266779Y55461896D01*
X30266779Y55461896D02*
X30219160Y55538086D01*
X30219160Y55538086D02*
X30171541Y55690467D01*
X30171541Y55690467D02*
X30171541Y55880943D01*
X30171541Y55880943D02*
X30219160Y56033324D01*
X30219160Y56033324D02*
X30266779Y56109515D01*
X30266779Y56109515D02*
X30314398Y56147610D01*
X30314398Y56147610D02*
X30409636Y56185705D01*
X12029960Y6467115D02*
X12077579Y6505210D01*
X12077579Y6505210D02*
X12172817Y6543305D01*
X12172817Y6543305D02*
X12410912Y6543305D01*
X12410912Y6543305D02*
X12506150Y6505210D01*
X12506150Y6505210D02*
X12553769Y6467115D01*
X12553769Y6467115D02*
X12601388Y6390924D01*
X12601388Y6390924D02*
X12601388Y6314734D01*
X12601388Y6314734D02*
X12553769Y6200448D01*
X12553769Y6200448D02*
X11982341Y5743305D01*
X11982341Y5743305D02*
X12601388Y5743305D01*
X3533445Y17257348D02*
X3533445Y17907348D01*
X3533445Y17907348D02*
X3904874Y17257348D01*
X3904874Y17257348D02*
X3904874Y17907348D01*
X4585826Y17257348D02*
X4369159Y17566872D01*
X4214397Y17257348D02*
X4214397Y17907348D01*
X4214397Y17907348D02*
X4462016Y17907348D01*
X4462016Y17907348D02*
X4523921Y17876396D01*
X4523921Y17876396D02*
X4554874Y17845443D01*
X4554874Y17845443D02*
X4585826Y17783539D01*
X4585826Y17783539D02*
X4585826Y17690681D01*
X4585826Y17690681D02*
X4554874Y17628777D01*
X4554874Y17628777D02*
X4523921Y17597824D01*
X4523921Y17597824D02*
X4462016Y17566872D01*
X4462016Y17566872D02*
X4214397Y17566872D01*
X4833445Y17288300D02*
X4926302Y17257348D01*
X4926302Y17257348D02*
X5081064Y17257348D01*
X5081064Y17257348D02*
X5142969Y17288300D01*
X5142969Y17288300D02*
X5173921Y17319253D01*
X5173921Y17319253D02*
X5204874Y17381158D01*
X5204874Y17381158D02*
X5204874Y17443062D01*
X5204874Y17443062D02*
X5173921Y17504967D01*
X5173921Y17504967D02*
X5142969Y17535920D01*
X5142969Y17535920D02*
X5081064Y17566872D01*
X5081064Y17566872D02*
X4957255Y17597824D01*
X4957255Y17597824D02*
X4895350Y17628777D01*
X4895350Y17628777D02*
X4864397Y17659729D01*
X4864397Y17659729D02*
X4833445Y17721634D01*
X4833445Y17721634D02*
X4833445Y17783539D01*
X4833445Y17783539D02*
X4864397Y17845443D01*
X4864397Y17845443D02*
X4895350Y17876396D01*
X4895350Y17876396D02*
X4957255Y17907348D01*
X4957255Y17907348D02*
X5112016Y17907348D01*
X5112016Y17907348D02*
X5204874Y17876396D01*
X5390588Y17907348D02*
X5762017Y17907348D01*
X5576303Y17257348D02*
X5576303Y17907348D01*
X27810436Y6230448D02*
X27715198Y6268543D01*
X27715198Y6268543D02*
X27667579Y6306639D01*
X27667579Y6306639D02*
X27619960Y6382829D01*
X27619960Y6382829D02*
X27619960Y6420924D01*
X27619960Y6420924D02*
X27667579Y6497115D01*
X27667579Y6497115D02*
X27715198Y6535210D01*
X27715198Y6535210D02*
X27810436Y6573305D01*
X27810436Y6573305D02*
X28000912Y6573305D01*
X28000912Y6573305D02*
X28096150Y6535210D01*
X28096150Y6535210D02*
X28143769Y6497115D01*
X28143769Y6497115D02*
X28191388Y6420924D01*
X28191388Y6420924D02*
X28191388Y6382829D01*
X28191388Y6382829D02*
X28143769Y6306639D01*
X28143769Y6306639D02*
X28096150Y6268543D01*
X28096150Y6268543D02*
X28000912Y6230448D01*
X28000912Y6230448D02*
X27810436Y6230448D01*
X27810436Y6230448D02*
X27715198Y6192353D01*
X27715198Y6192353D02*
X27667579Y6154258D01*
X27667579Y6154258D02*
X27619960Y6078067D01*
X27619960Y6078067D02*
X27619960Y5925686D01*
X27619960Y5925686D02*
X27667579Y5849496D01*
X27667579Y5849496D02*
X27715198Y5811400D01*
X27715198Y5811400D02*
X27810436Y5773305D01*
X27810436Y5773305D02*
X28000912Y5773305D01*
X28000912Y5773305D02*
X28096150Y5811400D01*
X28096150Y5811400D02*
X28143769Y5849496D01*
X28143769Y5849496D02*
X28191388Y5925686D01*
X28191388Y5925686D02*
X28191388Y6078067D01*
X28191388Y6078067D02*
X28143769Y6154258D01*
X28143769Y6154258D02*
X28096150Y6192353D01*
X28096150Y6192353D02*
X28000912Y6230448D01*
X28810436Y6573305D02*
X28905674Y6573305D01*
X28905674Y6573305D02*
X29000912Y6535210D01*
X29000912Y6535210D02*
X29048531Y6497115D01*
X29048531Y6497115D02*
X29096150Y6420924D01*
X29096150Y6420924D02*
X29143769Y6268543D01*
X29143769Y6268543D02*
X29143769Y6078067D01*
X29143769Y6078067D02*
X29096150Y5925686D01*
X29096150Y5925686D02*
X29048531Y5849496D01*
X29048531Y5849496D02*
X29000912Y5811400D01*
X29000912Y5811400D02*
X28905674Y5773305D01*
X28905674Y5773305D02*
X28810436Y5773305D01*
X28810436Y5773305D02*
X28715198Y5811400D01*
X28715198Y5811400D02*
X28667579Y5849496D01*
X28667579Y5849496D02*
X28619960Y5925686D01*
X28619960Y5925686D02*
X28572341Y6078067D01*
X28572341Y6078067D02*
X28572341Y6268543D01*
X28572341Y6268543D02*
X28619960Y6420924D01*
X28619960Y6420924D02*
X28667579Y6497115D01*
X28667579Y6497115D02*
X28715198Y6535210D01*
X28715198Y6535210D02*
X28810436Y6573305D01*
D12*
X13411800Y37459753D02*
X13442752Y37428801D01*
X13442752Y37428801D02*
X13473703Y37335946D01*
X13473703Y37335946D02*
X13473703Y37274042D01*
X13473703Y37274042D02*
X13442752Y37181187D01*
X13442752Y37181187D02*
X13380848Y37119284D01*
X13380848Y37119284D02*
X13318945Y37088332D01*
X13318945Y37088332D02*
X13195138Y37057380D01*
X13195138Y37057380D02*
X13102283Y37057380D01*
X13102283Y37057380D02*
X12978476Y37088332D01*
X12978476Y37088332D02*
X12916572Y37119284D01*
X12916572Y37119284D02*
X12854669Y37181187D01*
X12854669Y37181187D02*
X12823717Y37274042D01*
X12823717Y37274042D02*
X12823717Y37335946D01*
X12823717Y37335946D02*
X12854669Y37428801D01*
X12854669Y37428801D02*
X12885621Y37459753D01*
X13040379Y38016883D02*
X13473703Y38016883D01*
X12792766Y37862125D02*
X13257041Y37707366D01*
X13257041Y37707366D02*
X13257041Y38109739D01*
X12885621Y38326400D02*
X12854669Y38357352D01*
X12854669Y38357352D02*
X12823717Y38419255D01*
X12823717Y38419255D02*
X12823717Y38574014D01*
X12823717Y38574014D02*
X12854669Y38635917D01*
X12854669Y38635917D02*
X12885621Y38666869D01*
X12885621Y38666869D02*
X12947524Y38697821D01*
X12947524Y38697821D02*
X13009428Y38697821D01*
X13009428Y38697821D02*
X13102283Y38666869D01*
X13102283Y38666869D02*
X13473703Y38295449D01*
X13473703Y38295449D02*
X13473703Y38697821D01*
X34704772Y28217083D02*
X34704772Y27690904D01*
X34704772Y27690904D02*
X34735724Y27629000D01*
X34735724Y27629000D02*
X34766676Y27598048D01*
X34766676Y27598048D02*
X34828579Y27567097D01*
X34828579Y27567097D02*
X34952386Y27567097D01*
X34952386Y27567097D02*
X35014289Y27598048D01*
X35014289Y27598048D02*
X35045241Y27629000D01*
X35045241Y27629000D02*
X35076193Y27690904D01*
X35076193Y27690904D02*
X35076193Y28217083D01*
X35323807Y28217083D02*
X35726179Y28217083D01*
X35726179Y28217083D02*
X35509517Y27969469D01*
X35509517Y27969469D02*
X35602372Y27969469D01*
X35602372Y27969469D02*
X35664276Y27938517D01*
X35664276Y27938517D02*
X35695227Y27907566D01*
X35695227Y27907566D02*
X35726179Y27845662D01*
X35726179Y27845662D02*
X35726179Y27690904D01*
X35726179Y27690904D02*
X35695227Y27629000D01*
X35695227Y27629000D02*
X35664276Y27598048D01*
X35664276Y27598048D02*
X35602372Y27567097D01*
X35602372Y27567097D02*
X35416662Y27567097D01*
X35416662Y27567097D02*
X35354758Y27598048D01*
X35354758Y27598048D02*
X35323807Y27629000D01*
X31231669Y25607097D02*
X31015007Y25916614D01*
X30860248Y25607097D02*
X30860248Y26257083D01*
X30860248Y26257083D02*
X31107862Y26257083D01*
X31107862Y26257083D02*
X31169765Y26226131D01*
X31169765Y26226131D02*
X31200717Y26195179D01*
X31200717Y26195179D02*
X31231669Y26133276D01*
X31231669Y26133276D02*
X31231669Y26040421D01*
X31231669Y26040421D02*
X31200717Y25978517D01*
X31200717Y25978517D02*
X31169765Y25947566D01*
X31169765Y25947566D02*
X31107862Y25916614D01*
X31107862Y25916614D02*
X30860248Y25916614D01*
X31788800Y26040421D02*
X31788800Y25607097D01*
X31634041Y26288034D02*
X31479282Y25823759D01*
X31479282Y25823759D02*
X31881655Y25823759D01*
X25071800Y45619753D02*
X25102752Y45588801D01*
X25102752Y45588801D02*
X25133703Y45495946D01*
X25133703Y45495946D02*
X25133703Y45434042D01*
X25133703Y45434042D02*
X25102752Y45341187D01*
X25102752Y45341187D02*
X25040848Y45279284D01*
X25040848Y45279284D02*
X24978945Y45248332D01*
X24978945Y45248332D02*
X24855138Y45217380D01*
X24855138Y45217380D02*
X24762283Y45217380D01*
X24762283Y45217380D02*
X24638476Y45248332D01*
X24638476Y45248332D02*
X24576572Y45279284D01*
X24576572Y45279284D02*
X24514669Y45341187D01*
X24514669Y45341187D02*
X24483717Y45434042D01*
X24483717Y45434042D02*
X24483717Y45495946D01*
X24483717Y45495946D02*
X24514669Y45588801D01*
X24514669Y45588801D02*
X24545621Y45619753D01*
X25133703Y45929270D02*
X25133703Y46053077D01*
X25133703Y46053077D02*
X25102752Y46114980D01*
X25102752Y46114980D02*
X25071800Y46145932D01*
X25071800Y46145932D02*
X24978945Y46207835D01*
X24978945Y46207835D02*
X24855138Y46238787D01*
X24855138Y46238787D02*
X24607524Y46238787D01*
X24607524Y46238787D02*
X24545621Y46207835D01*
X24545621Y46207835D02*
X24514669Y46176883D01*
X24514669Y46176883D02*
X24483717Y46114980D01*
X24483717Y46114980D02*
X24483717Y45991173D01*
X24483717Y45991173D02*
X24514669Y45929270D01*
X24514669Y45929270D02*
X24545621Y45898318D01*
X24545621Y45898318D02*
X24607524Y45867366D01*
X24607524Y45867366D02*
X24762283Y45867366D01*
X24762283Y45867366D02*
X24824186Y45898318D01*
X24824186Y45898318D02*
X24855138Y45929270D01*
X24855138Y45929270D02*
X24886090Y45991173D01*
X24886090Y45991173D02*
X24886090Y46114980D01*
X24886090Y46114980D02*
X24855138Y46176883D01*
X24855138Y46176883D02*
X24824186Y46207835D01*
X24824186Y46207835D02*
X24762283Y46238787D01*
X24762283Y46610207D02*
X24731331Y46548304D01*
X24731331Y46548304D02*
X24700379Y46517352D01*
X24700379Y46517352D02*
X24638476Y46486400D01*
X24638476Y46486400D02*
X24607524Y46486400D01*
X24607524Y46486400D02*
X24545621Y46517352D01*
X24545621Y46517352D02*
X24514669Y46548304D01*
X24514669Y46548304D02*
X24483717Y46610207D01*
X24483717Y46610207D02*
X24483717Y46734014D01*
X24483717Y46734014D02*
X24514669Y46795917D01*
X24514669Y46795917D02*
X24545621Y46826869D01*
X24545621Y46826869D02*
X24607524Y46857821D01*
X24607524Y46857821D02*
X24638476Y46857821D01*
X24638476Y46857821D02*
X24700379Y46826869D01*
X24700379Y46826869D02*
X24731331Y46795917D01*
X24731331Y46795917D02*
X24762283Y46734014D01*
X24762283Y46734014D02*
X24762283Y46610207D01*
X24762283Y46610207D02*
X24793234Y46548304D01*
X24793234Y46548304D02*
X24824186Y46517352D01*
X24824186Y46517352D02*
X24886090Y46486400D01*
X24886090Y46486400D02*
X25009896Y46486400D01*
X25009896Y46486400D02*
X25071800Y46517352D01*
X25071800Y46517352D02*
X25102752Y46548304D01*
X25102752Y46548304D02*
X25133703Y46610207D01*
X25133703Y46610207D02*
X25133703Y46734014D01*
X25133703Y46734014D02*
X25102752Y46795917D01*
X25102752Y46795917D02*
X25071800Y46826869D01*
X25071800Y46826869D02*
X25009896Y46857821D01*
X25009896Y46857821D02*
X24886090Y46857821D01*
X24886090Y46857821D02*
X24824186Y46826869D01*
X24824186Y46826869D02*
X24793234Y46795917D01*
X24793234Y46795917D02*
X24762283Y46734014D01*
D11*
X6509133Y16764698D02*
X6509133Y16300412D01*
X6509133Y16300412D02*
X6478180Y16207555D01*
X6478180Y16207555D02*
X6416276Y16145650D01*
X6416276Y16145650D02*
X6323418Y16114698D01*
X6323418Y16114698D02*
X6261514Y16114698D01*
X6818656Y16114698D02*
X6818656Y16764698D01*
X6818656Y16764698D02*
X7066275Y16764698D01*
X7066275Y16764698D02*
X7128180Y16733746D01*
X7128180Y16733746D02*
X7159133Y16702793D01*
X7159133Y16702793D02*
X7190085Y16640889D01*
X7190085Y16640889D02*
X7190085Y16548031D01*
X7190085Y16548031D02*
X7159133Y16486127D01*
X7159133Y16486127D02*
X7128180Y16455174D01*
X7128180Y16455174D02*
X7066275Y16424222D01*
X7066275Y16424222D02*
X6818656Y16424222D01*
X7809133Y16114698D02*
X7437704Y16114698D01*
X7623418Y16114698D02*
X7623418Y16764698D01*
X7623418Y16764698D02*
X7561514Y16671841D01*
X7561514Y16671841D02*
X7499609Y16609936D01*
X7499609Y16609936D02*
X7437704Y16578984D01*
D12*
X26493703Y35952974D02*
X26184186Y35736312D01*
X26493703Y35581553D02*
X25843717Y35581553D01*
X25843717Y35581553D02*
X25843717Y35829167D01*
X25843717Y35829167D02*
X25874669Y35891070D01*
X25874669Y35891070D02*
X25905621Y35922022D01*
X25905621Y35922022D02*
X25967524Y35952974D01*
X25967524Y35952974D02*
X26060379Y35952974D01*
X26060379Y35952974D02*
X26122283Y35922022D01*
X26122283Y35922022D02*
X26153234Y35891070D01*
X26153234Y35891070D02*
X26184186Y35829167D01*
X26184186Y35829167D02*
X26184186Y35581553D01*
X25843717Y36510104D02*
X25843717Y36386298D01*
X25843717Y36386298D02*
X25874669Y36324394D01*
X25874669Y36324394D02*
X25905621Y36293442D01*
X25905621Y36293442D02*
X25998476Y36231539D01*
X25998476Y36231539D02*
X26122283Y36200587D01*
X26122283Y36200587D02*
X26369896Y36200587D01*
X26369896Y36200587D02*
X26431800Y36231539D01*
X26431800Y36231539D02*
X26462752Y36262491D01*
X26462752Y36262491D02*
X26493703Y36324394D01*
X26493703Y36324394D02*
X26493703Y36448201D01*
X26493703Y36448201D02*
X26462752Y36510104D01*
X26462752Y36510104D02*
X26431800Y36541056D01*
X26431800Y36541056D02*
X26369896Y36572008D01*
X26369896Y36572008D02*
X26215138Y36572008D01*
X26215138Y36572008D02*
X26153234Y36541056D01*
X26153234Y36541056D02*
X26122283Y36510104D01*
X26122283Y36510104D02*
X26091331Y36448201D01*
X26091331Y36448201D02*
X26091331Y36324394D01*
X26091331Y36324394D02*
X26122283Y36262491D01*
X26122283Y36262491D02*
X26153234Y36231539D01*
X26153234Y36231539D02*
X26215138Y36200587D01*
X25843717Y36788670D02*
X25843717Y37221994D01*
X25843717Y37221994D02*
X26493703Y36943428D01*
X22222952Y47436600D02*
X22192000Y47405648D01*
X22192000Y47405648D02*
X22099145Y47374697D01*
X22099145Y47374697D02*
X22037241Y47374697D01*
X22037241Y47374697D02*
X21944386Y47405648D01*
X21944386Y47405648D02*
X21882483Y47467552D01*
X21882483Y47467552D02*
X21851531Y47529455D01*
X21851531Y47529455D02*
X21820579Y47653262D01*
X21820579Y47653262D02*
X21820579Y47746117D01*
X21820579Y47746117D02*
X21851531Y47869924D01*
X21851531Y47869924D02*
X21882483Y47931828D01*
X21882483Y47931828D02*
X21944386Y47993731D01*
X21944386Y47993731D02*
X22037241Y48024683D01*
X22037241Y48024683D02*
X22099145Y48024683D01*
X22099145Y48024683D02*
X22192000Y47993731D01*
X22192000Y47993731D02*
X22222952Y47962779D01*
X22594372Y47746117D02*
X22532469Y47777069D01*
X22532469Y47777069D02*
X22501517Y47808021D01*
X22501517Y47808021D02*
X22470565Y47869924D01*
X22470565Y47869924D02*
X22470565Y47900876D01*
X22470565Y47900876D02*
X22501517Y47962779D01*
X22501517Y47962779D02*
X22532469Y47993731D01*
X22532469Y47993731D02*
X22594372Y48024683D01*
X22594372Y48024683D02*
X22718179Y48024683D01*
X22718179Y48024683D02*
X22780083Y47993731D01*
X22780083Y47993731D02*
X22811034Y47962779D01*
X22811034Y47962779D02*
X22841986Y47900876D01*
X22841986Y47900876D02*
X22841986Y47869924D01*
X22841986Y47869924D02*
X22811034Y47808021D01*
X22811034Y47808021D02*
X22780083Y47777069D01*
X22780083Y47777069D02*
X22718179Y47746117D01*
X22718179Y47746117D02*
X22594372Y47746117D01*
X22594372Y47746117D02*
X22532469Y47715166D01*
X22532469Y47715166D02*
X22501517Y47684214D01*
X22501517Y47684214D02*
X22470565Y47622310D01*
X22470565Y47622310D02*
X22470565Y47498504D01*
X22470565Y47498504D02*
X22501517Y47436600D01*
X22501517Y47436600D02*
X22532469Y47405648D01*
X22532469Y47405648D02*
X22594372Y47374697D01*
X22594372Y47374697D02*
X22718179Y47374697D01*
X22718179Y47374697D02*
X22780083Y47405648D01*
X22780083Y47405648D02*
X22811034Y47436600D01*
X22811034Y47436600D02*
X22841986Y47498504D01*
X22841986Y47498504D02*
X22841986Y47622310D01*
X22841986Y47622310D02*
X22811034Y47684214D01*
X22811034Y47684214D02*
X22780083Y47715166D01*
X22780083Y47715166D02*
X22718179Y47746117D01*
X23461020Y47374697D02*
X23089599Y47374697D01*
X23275310Y47374697D02*
X23275310Y48024683D01*
X23275310Y48024683D02*
X23213406Y47931828D01*
X23213406Y47931828D02*
X23151503Y47869924D01*
X23151503Y47869924D02*
X23089599Y47838972D01*
X14018800Y16632753D02*
X14049752Y16601801D01*
X14049752Y16601801D02*
X14080703Y16508946D01*
X14080703Y16508946D02*
X14080703Y16447042D01*
X14080703Y16447042D02*
X14049752Y16354187D01*
X14049752Y16354187D02*
X13987848Y16292284D01*
X13987848Y16292284D02*
X13925945Y16261332D01*
X13925945Y16261332D02*
X13802138Y16230380D01*
X13802138Y16230380D02*
X13709283Y16230380D01*
X13709283Y16230380D02*
X13585476Y16261332D01*
X13585476Y16261332D02*
X13523572Y16292284D01*
X13523572Y16292284D02*
X13461669Y16354187D01*
X13461669Y16354187D02*
X13430717Y16447042D01*
X13430717Y16447042D02*
X13430717Y16508946D01*
X13430717Y16508946D02*
X13461669Y16601801D01*
X13461669Y16601801D02*
X13492621Y16632753D01*
X14080703Y17251787D02*
X14080703Y16880366D01*
X14080703Y17066077D02*
X13430717Y17066077D01*
X13430717Y17066077D02*
X13523572Y17004173D01*
X13523572Y17004173D02*
X13585476Y16942270D01*
X13585476Y16942270D02*
X13616428Y16880366D01*
X13430717Y17468449D02*
X13430717Y17870821D01*
X13430717Y17870821D02*
X13678331Y17654159D01*
X13678331Y17654159D02*
X13678331Y17747014D01*
X13678331Y17747014D02*
X13709283Y17808917D01*
X13709283Y17808917D02*
X13740234Y17839869D01*
X13740234Y17839869D02*
X13802138Y17870821D01*
X13802138Y17870821D02*
X13956896Y17870821D01*
X13956896Y17870821D02*
X14018800Y17839869D01*
X14018800Y17839869D02*
X14049752Y17808917D01*
X14049752Y17808917D02*
X14080703Y17747014D01*
X14080703Y17747014D02*
X14080703Y17561304D01*
X14080703Y17561304D02*
X14049752Y17499400D01*
X14049752Y17499400D02*
X14018800Y17468449D01*
X27011800Y45559753D02*
X27042752Y45528801D01*
X27042752Y45528801D02*
X27073703Y45435946D01*
X27073703Y45435946D02*
X27073703Y45374042D01*
X27073703Y45374042D02*
X27042752Y45281187D01*
X27042752Y45281187D02*
X26980848Y45219284D01*
X26980848Y45219284D02*
X26918945Y45188332D01*
X26918945Y45188332D02*
X26795138Y45157380D01*
X26795138Y45157380D02*
X26702283Y45157380D01*
X26702283Y45157380D02*
X26578476Y45188332D01*
X26578476Y45188332D02*
X26516572Y45219284D01*
X26516572Y45219284D02*
X26454669Y45281187D01*
X26454669Y45281187D02*
X26423717Y45374042D01*
X26423717Y45374042D02*
X26423717Y45435946D01*
X26423717Y45435946D02*
X26454669Y45528801D01*
X26454669Y45528801D02*
X26485621Y45559753D01*
X26423717Y46116883D02*
X26423717Y45993077D01*
X26423717Y45993077D02*
X26454669Y45931173D01*
X26454669Y45931173D02*
X26485621Y45900221D01*
X26485621Y45900221D02*
X26578476Y45838318D01*
X26578476Y45838318D02*
X26702283Y45807366D01*
X26702283Y45807366D02*
X26949896Y45807366D01*
X26949896Y45807366D02*
X27011800Y45838318D01*
X27011800Y45838318D02*
X27042752Y45869270D01*
X27042752Y45869270D02*
X27073703Y45931173D01*
X27073703Y45931173D02*
X27073703Y46054980D01*
X27073703Y46054980D02*
X27042752Y46116883D01*
X27042752Y46116883D02*
X27011800Y46147835D01*
X27011800Y46147835D02*
X26949896Y46178787D01*
X26949896Y46178787D02*
X26795138Y46178787D01*
X26795138Y46178787D02*
X26733234Y46147835D01*
X26733234Y46147835D02*
X26702283Y46116883D01*
X26702283Y46116883D02*
X26671331Y46054980D01*
X26671331Y46054980D02*
X26671331Y45931173D01*
X26671331Y45931173D02*
X26702283Y45869270D01*
X26702283Y45869270D02*
X26733234Y45838318D01*
X26733234Y45838318D02*
X26795138Y45807366D01*
X26640379Y46735917D02*
X27073703Y46735917D01*
X26392766Y46581159D02*
X26857041Y46426400D01*
X26857041Y46426400D02*
X26857041Y46828773D01*
X27451800Y41849753D02*
X27482752Y41818801D01*
X27482752Y41818801D02*
X27513703Y41725946D01*
X27513703Y41725946D02*
X27513703Y41664042D01*
X27513703Y41664042D02*
X27482752Y41571187D01*
X27482752Y41571187D02*
X27420848Y41509284D01*
X27420848Y41509284D02*
X27358945Y41478332D01*
X27358945Y41478332D02*
X27235138Y41447380D01*
X27235138Y41447380D02*
X27142283Y41447380D01*
X27142283Y41447380D02*
X27018476Y41478332D01*
X27018476Y41478332D02*
X26956572Y41509284D01*
X26956572Y41509284D02*
X26894669Y41571187D01*
X26894669Y41571187D02*
X26863717Y41664042D01*
X26863717Y41664042D02*
X26863717Y41725946D01*
X26863717Y41725946D02*
X26894669Y41818801D01*
X26894669Y41818801D02*
X26925621Y41849753D01*
X26863717Y42437835D02*
X26863717Y42128318D01*
X26863717Y42128318D02*
X27173234Y42097366D01*
X27173234Y42097366D02*
X27142283Y42128318D01*
X27142283Y42128318D02*
X27111331Y42190221D01*
X27111331Y42190221D02*
X27111331Y42344980D01*
X27111331Y42344980D02*
X27142283Y42406883D01*
X27142283Y42406883D02*
X27173234Y42437835D01*
X27173234Y42437835D02*
X27235138Y42468787D01*
X27235138Y42468787D02*
X27389896Y42468787D01*
X27389896Y42468787D02*
X27451800Y42437835D01*
X27451800Y42437835D02*
X27482752Y42406883D01*
X27482752Y42406883D02*
X27513703Y42344980D01*
X27513703Y42344980D02*
X27513703Y42190221D01*
X27513703Y42190221D02*
X27482752Y42128318D01*
X27482752Y42128318D02*
X27451800Y42097366D01*
X26863717Y43056869D02*
X26863717Y42747352D01*
X26863717Y42747352D02*
X27173234Y42716400D01*
X27173234Y42716400D02*
X27142283Y42747352D01*
X27142283Y42747352D02*
X27111331Y42809255D01*
X27111331Y42809255D02*
X27111331Y42964014D01*
X27111331Y42964014D02*
X27142283Y43025917D01*
X27142283Y43025917D02*
X27173234Y43056869D01*
X27173234Y43056869D02*
X27235138Y43087821D01*
X27235138Y43087821D02*
X27389896Y43087821D01*
X27389896Y43087821D02*
X27451800Y43056869D01*
X27451800Y43056869D02*
X27482752Y43025917D01*
X27482752Y43025917D02*
X27513703Y42964014D01*
X27513703Y42964014D02*
X27513703Y42809255D01*
X27513703Y42809255D02*
X27482752Y42747352D01*
X27482752Y42747352D02*
X27451800Y42716400D01*
X13025437Y19235854D02*
X13551616Y19235854D01*
X13551616Y19235854D02*
X13613520Y19266806D01*
X13613520Y19266806D02*
X13644472Y19297757D01*
X13644472Y19297757D02*
X13675423Y19359661D01*
X13675423Y19359661D02*
X13675423Y19483468D01*
X13675423Y19483468D02*
X13644472Y19545371D01*
X13644472Y19545371D02*
X13613520Y19576323D01*
X13613520Y19576323D02*
X13551616Y19607275D01*
X13551616Y19607275D02*
X13025437Y19607275D01*
X13087341Y19885840D02*
X13056389Y19916792D01*
X13056389Y19916792D02*
X13025437Y19978695D01*
X13025437Y19978695D02*
X13025437Y20133454D01*
X13025437Y20133454D02*
X13056389Y20195357D01*
X13056389Y20195357D02*
X13087341Y20226309D01*
X13087341Y20226309D02*
X13149244Y20257261D01*
X13149244Y20257261D02*
X13211148Y20257261D01*
X13211148Y20257261D02*
X13304003Y20226309D01*
X13304003Y20226309D02*
X13675423Y19854889D01*
X13675423Y19854889D02*
X13675423Y20257261D01*
X15772952Y47571600D02*
X15742000Y47540648D01*
X15742000Y47540648D02*
X15649145Y47509697D01*
X15649145Y47509697D02*
X15587241Y47509697D01*
X15587241Y47509697D02*
X15494386Y47540648D01*
X15494386Y47540648D02*
X15432483Y47602552D01*
X15432483Y47602552D02*
X15401531Y47664455D01*
X15401531Y47664455D02*
X15370579Y47788262D01*
X15370579Y47788262D02*
X15370579Y47881117D01*
X15370579Y47881117D02*
X15401531Y48004924D01*
X15401531Y48004924D02*
X15432483Y48066828D01*
X15432483Y48066828D02*
X15494386Y48128731D01*
X15494386Y48128731D02*
X15587241Y48159683D01*
X15587241Y48159683D02*
X15649145Y48159683D01*
X15649145Y48159683D02*
X15742000Y48128731D01*
X15742000Y48128731D02*
X15772952Y48097779D01*
X16144372Y47881117D02*
X16082469Y47912069D01*
X16082469Y47912069D02*
X16051517Y47943021D01*
X16051517Y47943021D02*
X16020565Y48004924D01*
X16020565Y48004924D02*
X16020565Y48035876D01*
X16020565Y48035876D02*
X16051517Y48097779D01*
X16051517Y48097779D02*
X16082469Y48128731D01*
X16082469Y48128731D02*
X16144372Y48159683D01*
X16144372Y48159683D02*
X16268179Y48159683D01*
X16268179Y48159683D02*
X16330083Y48128731D01*
X16330083Y48128731D02*
X16361034Y48097779D01*
X16361034Y48097779D02*
X16391986Y48035876D01*
X16391986Y48035876D02*
X16391986Y48004924D01*
X16391986Y48004924D02*
X16361034Y47943021D01*
X16361034Y47943021D02*
X16330083Y47912069D01*
X16330083Y47912069D02*
X16268179Y47881117D01*
X16268179Y47881117D02*
X16144372Y47881117D01*
X16144372Y47881117D02*
X16082469Y47850166D01*
X16082469Y47850166D02*
X16051517Y47819214D01*
X16051517Y47819214D02*
X16020565Y47757310D01*
X16020565Y47757310D02*
X16020565Y47633504D01*
X16020565Y47633504D02*
X16051517Y47571600D01*
X16051517Y47571600D02*
X16082469Y47540648D01*
X16082469Y47540648D02*
X16144372Y47509697D01*
X16144372Y47509697D02*
X16268179Y47509697D01*
X16268179Y47509697D02*
X16330083Y47540648D01*
X16330083Y47540648D02*
X16361034Y47571600D01*
X16361034Y47571600D02*
X16391986Y47633504D01*
X16391986Y47633504D02*
X16391986Y47757310D01*
X16391986Y47757310D02*
X16361034Y47819214D01*
X16361034Y47819214D02*
X16330083Y47850166D01*
X16330083Y47850166D02*
X16268179Y47881117D01*
X16608648Y48159683D02*
X17011020Y48159683D01*
X17011020Y48159683D02*
X16794358Y47912069D01*
X16794358Y47912069D02*
X16887213Y47912069D01*
X16887213Y47912069D02*
X16949117Y47881117D01*
X16949117Y47881117D02*
X16980068Y47850166D01*
X16980068Y47850166D02*
X17011020Y47788262D01*
X17011020Y47788262D02*
X17011020Y47633504D01*
X17011020Y47633504D02*
X16980068Y47571600D01*
X16980068Y47571600D02*
X16949117Y47540648D01*
X16949117Y47540648D02*
X16887213Y47509697D01*
X16887213Y47509697D02*
X16701503Y47509697D01*
X16701503Y47509697D02*
X16639599Y47540648D01*
X16639599Y47540648D02*
X16608648Y47571600D01*
X16132247Y19314925D02*
X16565571Y18664939D01*
X16565571Y19314925D02*
X16132247Y18664939D01*
X17153653Y18664939D02*
X16782232Y18664939D01*
X16967943Y18664939D02*
X16967943Y19314925D01*
X16967943Y19314925D02*
X16906039Y19222070D01*
X16906039Y19222070D02*
X16844136Y19160166D01*
X16844136Y19160166D02*
X16782232Y19129214D01*
X18613332Y14789340D02*
X18582380Y14758388D01*
X18582380Y14758388D02*
X18489525Y14727437D01*
X18489525Y14727437D02*
X18427621Y14727437D01*
X18427621Y14727437D02*
X18334766Y14758388D01*
X18334766Y14758388D02*
X18272863Y14820292D01*
X18272863Y14820292D02*
X18241911Y14882195D01*
X18241911Y14882195D02*
X18210959Y15006002D01*
X18210959Y15006002D02*
X18210959Y15098857D01*
X18210959Y15098857D02*
X18241911Y15222664D01*
X18241911Y15222664D02*
X18272863Y15284568D01*
X18272863Y15284568D02*
X18334766Y15346471D01*
X18334766Y15346471D02*
X18427621Y15377423D01*
X18427621Y15377423D02*
X18489525Y15377423D01*
X18489525Y15377423D02*
X18582380Y15346471D01*
X18582380Y15346471D02*
X18613332Y15315519D01*
X18860945Y15315519D02*
X18891897Y15346471D01*
X18891897Y15346471D02*
X18953801Y15377423D01*
X18953801Y15377423D02*
X19108559Y15377423D01*
X19108559Y15377423D02*
X19170463Y15346471D01*
X19170463Y15346471D02*
X19201414Y15315519D01*
X19201414Y15315519D02*
X19232366Y15253616D01*
X19232366Y15253616D02*
X19232366Y15191712D01*
X19232366Y15191712D02*
X19201414Y15098857D01*
X19201414Y15098857D02*
X18829994Y14727437D01*
X18829994Y14727437D02*
X19232366Y14727437D01*
X19789497Y15160761D02*
X19789497Y14727437D01*
X19634738Y15408374D02*
X19479979Y14944099D01*
X19479979Y14944099D02*
X19882352Y14944099D01*
X28332469Y25754697D02*
X28115807Y26064214D01*
X27961048Y25754697D02*
X27961048Y26404683D01*
X27961048Y26404683D02*
X28208662Y26404683D01*
X28208662Y26404683D02*
X28270565Y26373731D01*
X28270565Y26373731D02*
X28301517Y26342779D01*
X28301517Y26342779D02*
X28332469Y26280876D01*
X28332469Y26280876D02*
X28332469Y26188021D01*
X28332469Y26188021D02*
X28301517Y26126117D01*
X28301517Y26126117D02*
X28270565Y26095166D01*
X28270565Y26095166D02*
X28208662Y26064214D01*
X28208662Y26064214D02*
X27961048Y26064214D01*
X28549131Y26404683D02*
X28951503Y26404683D01*
X28951503Y26404683D02*
X28734841Y26157069D01*
X28734841Y26157069D02*
X28827696Y26157069D01*
X28827696Y26157069D02*
X28889600Y26126117D01*
X28889600Y26126117D02*
X28920551Y26095166D01*
X28920551Y26095166D02*
X28951503Y26033262D01*
X28951503Y26033262D02*
X28951503Y25878504D01*
X28951503Y25878504D02*
X28920551Y25816600D01*
X28920551Y25816600D02*
X28889600Y25785648D01*
X28889600Y25785648D02*
X28827696Y25754697D01*
X28827696Y25754697D02*
X28641986Y25754697D01*
X28641986Y25754697D02*
X28580082Y25785648D01*
X28580082Y25785648D02*
X28549131Y25816600D01*
D11*
X8977466Y4162781D02*
X8977466Y3448496D01*
X8977466Y3448496D02*
X8929847Y3305639D01*
X8929847Y3305639D02*
X8834609Y3210400D01*
X8834609Y3210400D02*
X8691752Y3162781D01*
X8691752Y3162781D02*
X8596514Y3162781D01*
X9882228Y3829448D02*
X9882228Y3162781D01*
X9644133Y4210400D02*
X9406038Y3496115D01*
X9406038Y3496115D02*
X10025085Y3496115D01*
D12*
X26391800Y38253457D02*
X26422752Y38222505D01*
X26422752Y38222505D02*
X26453703Y38129650D01*
X26453703Y38129650D02*
X26453703Y38067746D01*
X26453703Y38067746D02*
X26422752Y37974891D01*
X26422752Y37974891D02*
X26360848Y37912988D01*
X26360848Y37912988D02*
X26298945Y37882036D01*
X26298945Y37882036D02*
X26175138Y37851084D01*
X26175138Y37851084D02*
X26082283Y37851084D01*
X26082283Y37851084D02*
X25958476Y37882036D01*
X25958476Y37882036D02*
X25896572Y37912988D01*
X25896572Y37912988D02*
X25834669Y37974891D01*
X25834669Y37974891D02*
X25803717Y38067746D01*
X25803717Y38067746D02*
X25803717Y38129650D01*
X25803717Y38129650D02*
X25834669Y38222505D01*
X25834669Y38222505D02*
X25865621Y38253457D01*
X26453703Y38872491D02*
X26453703Y38501070D01*
X26453703Y38686781D02*
X25803717Y38686781D01*
X25803717Y38686781D02*
X25896572Y38624877D01*
X25896572Y38624877D02*
X25958476Y38562974D01*
X25958476Y38562974D02*
X25989428Y38501070D01*
X25803717Y39274863D02*
X25803717Y39336766D01*
X25803717Y39336766D02*
X25834669Y39398670D01*
X25834669Y39398670D02*
X25865621Y39429621D01*
X25865621Y39429621D02*
X25927524Y39460573D01*
X25927524Y39460573D02*
X26051331Y39491525D01*
X26051331Y39491525D02*
X26206090Y39491525D01*
X26206090Y39491525D02*
X26329896Y39460573D01*
X26329896Y39460573D02*
X26391800Y39429621D01*
X26391800Y39429621D02*
X26422752Y39398670D01*
X26422752Y39398670D02*
X26453703Y39336766D01*
X26453703Y39336766D02*
X26453703Y39274863D01*
X26453703Y39274863D02*
X26422752Y39212959D01*
X26422752Y39212959D02*
X26391800Y39182008D01*
X26391800Y39182008D02*
X26329896Y39151056D01*
X26329896Y39151056D02*
X26206090Y39120104D01*
X26206090Y39120104D02*
X26051331Y39120104D01*
X26051331Y39120104D02*
X25927524Y39151056D01*
X25927524Y39151056D02*
X25865621Y39182008D01*
X25865621Y39182008D02*
X25834669Y39212959D01*
X25834669Y39212959D02*
X25803717Y39274863D01*
X25865621Y39739138D02*
X25834669Y39770090D01*
X25834669Y39770090D02*
X25803717Y39831993D01*
X25803717Y39831993D02*
X25803717Y39986752D01*
X25803717Y39986752D02*
X25834669Y40048655D01*
X25834669Y40048655D02*
X25865621Y40079607D01*
X25865621Y40079607D02*
X25927524Y40110559D01*
X25927524Y40110559D02*
X25989428Y40110559D01*
X25989428Y40110559D02*
X26082283Y40079607D01*
X26082283Y40079607D02*
X26453703Y39708187D01*
X26453703Y39708187D02*
X26453703Y40110559D01*
X19311800Y48169753D02*
X19342752Y48138801D01*
X19342752Y48138801D02*
X19373703Y48045946D01*
X19373703Y48045946D02*
X19373703Y47984042D01*
X19373703Y47984042D02*
X19342752Y47891187D01*
X19342752Y47891187D02*
X19280848Y47829284D01*
X19280848Y47829284D02*
X19218945Y47798332D01*
X19218945Y47798332D02*
X19095138Y47767380D01*
X19095138Y47767380D02*
X19002283Y47767380D01*
X19002283Y47767380D02*
X18878476Y47798332D01*
X18878476Y47798332D02*
X18816572Y47829284D01*
X18816572Y47829284D02*
X18754669Y47891187D01*
X18754669Y47891187D02*
X18723717Y47984042D01*
X18723717Y47984042D02*
X18723717Y48045946D01*
X18723717Y48045946D02*
X18754669Y48138801D01*
X18754669Y48138801D02*
X18785621Y48169753D01*
X19373703Y48479270D02*
X19373703Y48603077D01*
X19373703Y48603077D02*
X19342752Y48664980D01*
X19342752Y48664980D02*
X19311800Y48695932D01*
X19311800Y48695932D02*
X19218945Y48757835D01*
X19218945Y48757835D02*
X19095138Y48788787D01*
X19095138Y48788787D02*
X18847524Y48788787D01*
X18847524Y48788787D02*
X18785621Y48757835D01*
X18785621Y48757835D02*
X18754669Y48726883D01*
X18754669Y48726883D02*
X18723717Y48664980D01*
X18723717Y48664980D02*
X18723717Y48541173D01*
X18723717Y48541173D02*
X18754669Y48479270D01*
X18754669Y48479270D02*
X18785621Y48448318D01*
X18785621Y48448318D02*
X18847524Y48417366D01*
X18847524Y48417366D02*
X19002283Y48417366D01*
X19002283Y48417366D02*
X19064186Y48448318D01*
X19064186Y48448318D02*
X19095138Y48479270D01*
X19095138Y48479270D02*
X19126090Y48541173D01*
X19126090Y48541173D02*
X19126090Y48664980D01*
X19126090Y48664980D02*
X19095138Y48726883D01*
X19095138Y48726883D02*
X19064186Y48757835D01*
X19064186Y48757835D02*
X19002283Y48788787D01*
X18940379Y49345917D02*
X19373703Y49345917D01*
X18692766Y49191159D02*
X19157041Y49036400D01*
X19157041Y49036400D02*
X19157041Y49438773D01*
X31201669Y26587097D02*
X30985007Y26896614D01*
X30830248Y26587097D02*
X30830248Y27237083D01*
X30830248Y27237083D02*
X31077862Y27237083D01*
X31077862Y27237083D02*
X31139765Y27206131D01*
X31139765Y27206131D02*
X31170717Y27175179D01*
X31170717Y27175179D02*
X31201669Y27113276D01*
X31201669Y27113276D02*
X31201669Y27020421D01*
X31201669Y27020421D02*
X31170717Y26958517D01*
X31170717Y26958517D02*
X31139765Y26927566D01*
X31139765Y26927566D02*
X31077862Y26896614D01*
X31077862Y26896614D02*
X30830248Y26896614D01*
X31789751Y27237083D02*
X31480234Y27237083D01*
X31480234Y27237083D02*
X31449282Y26927566D01*
X31449282Y26927566D02*
X31480234Y26958517D01*
X31480234Y26958517D02*
X31542138Y26989469D01*
X31542138Y26989469D02*
X31696896Y26989469D01*
X31696896Y26989469D02*
X31758800Y26958517D01*
X31758800Y26958517D02*
X31789751Y26927566D01*
X31789751Y26927566D02*
X31820703Y26865662D01*
X31820703Y26865662D02*
X31820703Y26710904D01*
X31820703Y26710904D02*
X31789751Y26649000D01*
X31789751Y26649000D02*
X31758800Y26618048D01*
X31758800Y26618048D02*
X31696896Y26587097D01*
X31696896Y26587097D02*
X31542138Y26587097D01*
X31542138Y26587097D02*
X31480234Y26618048D01*
X31480234Y26618048D02*
X31449282Y26649000D01*
X19811800Y17289753D02*
X19842752Y17258801D01*
X19842752Y17258801D02*
X19873703Y17165946D01*
X19873703Y17165946D02*
X19873703Y17104042D01*
X19873703Y17104042D02*
X19842752Y17011187D01*
X19842752Y17011187D02*
X19780848Y16949284D01*
X19780848Y16949284D02*
X19718945Y16918332D01*
X19718945Y16918332D02*
X19595138Y16887380D01*
X19595138Y16887380D02*
X19502283Y16887380D01*
X19502283Y16887380D02*
X19378476Y16918332D01*
X19378476Y16918332D02*
X19316572Y16949284D01*
X19316572Y16949284D02*
X19254669Y17011187D01*
X19254669Y17011187D02*
X19223717Y17104042D01*
X19223717Y17104042D02*
X19223717Y17165946D01*
X19223717Y17165946D02*
X19254669Y17258801D01*
X19254669Y17258801D02*
X19285621Y17289753D01*
X19873703Y17908787D02*
X19873703Y17537366D01*
X19873703Y17723077D02*
X19223717Y17723077D01*
X19223717Y17723077D02*
X19316572Y17661173D01*
X19316572Y17661173D02*
X19378476Y17599270D01*
X19378476Y17599270D02*
X19409428Y17537366D01*
X19440379Y18465917D02*
X19873703Y18465917D01*
X19192766Y18311159D02*
X19657041Y18156400D01*
X19657041Y18156400D02*
X19657041Y18558773D01*
X24136055Y15934683D02*
X24136055Y15408504D01*
X24136055Y15408504D02*
X24167007Y15346600D01*
X24167007Y15346600D02*
X24197959Y15315648D01*
X24197959Y15315648D02*
X24259862Y15284697D01*
X24259862Y15284697D02*
X24383669Y15284697D01*
X24383669Y15284697D02*
X24445572Y15315648D01*
X24445572Y15315648D02*
X24476524Y15346600D01*
X24476524Y15346600D02*
X24507476Y15408504D01*
X24507476Y15408504D02*
X24507476Y15934683D01*
X25157462Y15284697D02*
X24786041Y15284697D01*
X24971752Y15284697D02*
X24971752Y15934683D01*
X24971752Y15934683D02*
X24909848Y15841828D01*
X24909848Y15841828D02*
X24847945Y15779924D01*
X24847945Y15779924D02*
X24786041Y15748972D01*
X25374124Y15934683D02*
X25776496Y15934683D01*
X25776496Y15934683D02*
X25559834Y15687069D01*
X25559834Y15687069D02*
X25652689Y15687069D01*
X25652689Y15687069D02*
X25714593Y15656117D01*
X25714593Y15656117D02*
X25745544Y15625166D01*
X25745544Y15625166D02*
X25776496Y15563262D01*
X25776496Y15563262D02*
X25776496Y15408504D01*
X25776496Y15408504D02*
X25745544Y15346600D01*
X25745544Y15346600D02*
X25714593Y15315648D01*
X25714593Y15315648D02*
X25652689Y15284697D01*
X25652689Y15284697D02*
X25466979Y15284697D01*
X25466979Y15284697D02*
X25405075Y15315648D01*
X25405075Y15315648D02*
X25374124Y15346600D01*
X33591000Y17542153D02*
X33621952Y17511201D01*
X33621952Y17511201D02*
X33652903Y17418346D01*
X33652903Y17418346D02*
X33652903Y17356442D01*
X33652903Y17356442D02*
X33621952Y17263587D01*
X33621952Y17263587D02*
X33560048Y17201684D01*
X33560048Y17201684D02*
X33498145Y17170732D01*
X33498145Y17170732D02*
X33374338Y17139780D01*
X33374338Y17139780D02*
X33281483Y17139780D01*
X33281483Y17139780D02*
X33157676Y17170732D01*
X33157676Y17170732D02*
X33095772Y17201684D01*
X33095772Y17201684D02*
X33033869Y17263587D01*
X33033869Y17263587D02*
X33002917Y17356442D01*
X33002917Y17356442D02*
X33002917Y17418346D01*
X33002917Y17418346D02*
X33033869Y17511201D01*
X33033869Y17511201D02*
X33064821Y17542153D01*
X33652903Y18161187D02*
X33652903Y17789766D01*
X33652903Y17975477D02*
X33002917Y17975477D01*
X33002917Y17975477D02*
X33095772Y17913573D01*
X33095772Y17913573D02*
X33157676Y17851670D01*
X33157676Y17851670D02*
X33188628Y17789766D01*
X33064821Y18408800D02*
X33033869Y18439752D01*
X33033869Y18439752D02*
X33002917Y18501655D01*
X33002917Y18501655D02*
X33002917Y18656414D01*
X33002917Y18656414D02*
X33033869Y18718317D01*
X33033869Y18718317D02*
X33064821Y18749269D01*
X33064821Y18749269D02*
X33126724Y18780221D01*
X33126724Y18780221D02*
X33188628Y18780221D01*
X33188628Y18780221D02*
X33281483Y18749269D01*
X33281483Y18749269D02*
X33652903Y18377849D01*
X33652903Y18377849D02*
X33652903Y18780221D01*
X14349277Y45930826D02*
X14349277Y45404647D01*
X14349277Y45404647D02*
X14380229Y45342743D01*
X14380229Y45342743D02*
X14411181Y45311791D01*
X14411181Y45311791D02*
X14473084Y45280840D01*
X14473084Y45280840D02*
X14596891Y45280840D01*
X14596891Y45280840D02*
X14658794Y45311791D01*
X14658794Y45311791D02*
X14689746Y45342743D01*
X14689746Y45342743D02*
X14720698Y45404647D01*
X14720698Y45404647D02*
X14720698Y45930826D01*
X15370684Y45280840D02*
X14999263Y45280840D01*
X15184974Y45280840D02*
X15184974Y45930826D01*
X15184974Y45930826D02*
X15123070Y45837971D01*
X15123070Y45837971D02*
X15061167Y45776067D01*
X15061167Y45776067D02*
X14999263Y45745115D01*
X15927815Y45714164D02*
X15927815Y45280840D01*
X15773056Y45961777D02*
X15618297Y45497502D01*
X15618297Y45497502D02*
X16020670Y45497502D01*
X25589672Y29080401D02*
X25558720Y29049449D01*
X25558720Y29049449D02*
X25465865Y29018498D01*
X25465865Y29018498D02*
X25403961Y29018498D01*
X25403961Y29018498D02*
X25311106Y29049449D01*
X25311106Y29049449D02*
X25249203Y29111353D01*
X25249203Y29111353D02*
X25218251Y29173256D01*
X25218251Y29173256D02*
X25187299Y29297063D01*
X25187299Y29297063D02*
X25187299Y29389918D01*
X25187299Y29389918D02*
X25218251Y29513725D01*
X25218251Y29513725D02*
X25249203Y29575629D01*
X25249203Y29575629D02*
X25311106Y29637532D01*
X25311106Y29637532D02*
X25403961Y29668484D01*
X25403961Y29668484D02*
X25465865Y29668484D01*
X25465865Y29668484D02*
X25558720Y29637532D01*
X25558720Y29637532D02*
X25589672Y29606580D01*
X26146803Y29451822D02*
X26146803Y29018498D01*
X25992044Y29699435D02*
X25837285Y29235160D01*
X25837285Y29235160D02*
X26239658Y29235160D01*
X26611078Y29668484D02*
X26672981Y29668484D01*
X26672981Y29668484D02*
X26734885Y29637532D01*
X26734885Y29637532D02*
X26765837Y29606580D01*
X26765837Y29606580D02*
X26796788Y29544677D01*
X26796788Y29544677D02*
X26827740Y29420870D01*
X26827740Y29420870D02*
X26827740Y29266111D01*
X26827740Y29266111D02*
X26796788Y29142305D01*
X26796788Y29142305D02*
X26765837Y29080401D01*
X26765837Y29080401D02*
X26734885Y29049449D01*
X26734885Y29049449D02*
X26672981Y29018498D01*
X26672981Y29018498D02*
X26611078Y29018498D01*
X26611078Y29018498D02*
X26549175Y29049449D01*
X26549175Y29049449D02*
X26518223Y29080401D01*
X26518223Y29080401D02*
X26487271Y29142305D01*
X26487271Y29142305D02*
X26456319Y29266111D01*
X26456319Y29266111D02*
X26456319Y29420870D01*
X26456319Y29420870D02*
X26487271Y29544677D01*
X26487271Y29544677D02*
X26518223Y29606580D01*
X26518223Y29606580D02*
X26549175Y29637532D01*
X26549175Y29637532D02*
X26611078Y29668484D01*
X13561800Y40559753D02*
X13592752Y40528801D01*
X13592752Y40528801D02*
X13623703Y40435946D01*
X13623703Y40435946D02*
X13623703Y40374042D01*
X13623703Y40374042D02*
X13592752Y40281187D01*
X13592752Y40281187D02*
X13530848Y40219284D01*
X13530848Y40219284D02*
X13468945Y40188332D01*
X13468945Y40188332D02*
X13345138Y40157380D01*
X13345138Y40157380D02*
X13252283Y40157380D01*
X13252283Y40157380D02*
X13128476Y40188332D01*
X13128476Y40188332D02*
X13066572Y40219284D01*
X13066572Y40219284D02*
X13004669Y40281187D01*
X13004669Y40281187D02*
X12973717Y40374042D01*
X12973717Y40374042D02*
X12973717Y40435946D01*
X12973717Y40435946D02*
X13004669Y40528801D01*
X13004669Y40528801D02*
X13035621Y40559753D01*
X13252283Y40931173D02*
X13221331Y40869270D01*
X13221331Y40869270D02*
X13190379Y40838318D01*
X13190379Y40838318D02*
X13128476Y40807366D01*
X13128476Y40807366D02*
X13097524Y40807366D01*
X13097524Y40807366D02*
X13035621Y40838318D01*
X13035621Y40838318D02*
X13004669Y40869270D01*
X13004669Y40869270D02*
X12973717Y40931173D01*
X12973717Y40931173D02*
X12973717Y41054980D01*
X12973717Y41054980D02*
X13004669Y41116883D01*
X13004669Y41116883D02*
X13035621Y41147835D01*
X13035621Y41147835D02*
X13097524Y41178787D01*
X13097524Y41178787D02*
X13128476Y41178787D01*
X13128476Y41178787D02*
X13190379Y41147835D01*
X13190379Y41147835D02*
X13221331Y41116883D01*
X13221331Y41116883D02*
X13252283Y41054980D01*
X13252283Y41054980D02*
X13252283Y40931173D01*
X13252283Y40931173D02*
X13283234Y40869270D01*
X13283234Y40869270D02*
X13314186Y40838318D01*
X13314186Y40838318D02*
X13376090Y40807366D01*
X13376090Y40807366D02*
X13499896Y40807366D01*
X13499896Y40807366D02*
X13561800Y40838318D01*
X13561800Y40838318D02*
X13592752Y40869270D01*
X13592752Y40869270D02*
X13623703Y40931173D01*
X13623703Y40931173D02*
X13623703Y41054980D01*
X13623703Y41054980D02*
X13592752Y41116883D01*
X13592752Y41116883D02*
X13561800Y41147835D01*
X13561800Y41147835D02*
X13499896Y41178787D01*
X13499896Y41178787D02*
X13376090Y41178787D01*
X13376090Y41178787D02*
X13314186Y41147835D01*
X13314186Y41147835D02*
X13283234Y41116883D01*
X13283234Y41116883D02*
X13252283Y41054980D01*
X13035621Y41426400D02*
X13004669Y41457352D01*
X13004669Y41457352D02*
X12973717Y41519255D01*
X12973717Y41519255D02*
X12973717Y41674014D01*
X12973717Y41674014D02*
X13004669Y41735917D01*
X13004669Y41735917D02*
X13035621Y41766869D01*
X13035621Y41766869D02*
X13097524Y41797821D01*
X13097524Y41797821D02*
X13159428Y41797821D01*
X13159428Y41797821D02*
X13252283Y41766869D01*
X13252283Y41766869D02*
X13623703Y41395449D01*
X13623703Y41395449D02*
X13623703Y41797821D01*
X24511800Y41779753D02*
X24542752Y41748801D01*
X24542752Y41748801D02*
X24573703Y41655946D01*
X24573703Y41655946D02*
X24573703Y41594042D01*
X24573703Y41594042D02*
X24542752Y41501187D01*
X24542752Y41501187D02*
X24480848Y41439284D01*
X24480848Y41439284D02*
X24418945Y41408332D01*
X24418945Y41408332D02*
X24295138Y41377380D01*
X24295138Y41377380D02*
X24202283Y41377380D01*
X24202283Y41377380D02*
X24078476Y41408332D01*
X24078476Y41408332D02*
X24016572Y41439284D01*
X24016572Y41439284D02*
X23954669Y41501187D01*
X23954669Y41501187D02*
X23923717Y41594042D01*
X23923717Y41594042D02*
X23923717Y41655946D01*
X23923717Y41655946D02*
X23954669Y41748801D01*
X23954669Y41748801D02*
X23985621Y41779753D01*
X24573703Y42089270D02*
X24573703Y42213077D01*
X24573703Y42213077D02*
X24542752Y42274980D01*
X24542752Y42274980D02*
X24511800Y42305932D01*
X24511800Y42305932D02*
X24418945Y42367835D01*
X24418945Y42367835D02*
X24295138Y42398787D01*
X24295138Y42398787D02*
X24047524Y42398787D01*
X24047524Y42398787D02*
X23985621Y42367835D01*
X23985621Y42367835D02*
X23954669Y42336883D01*
X23954669Y42336883D02*
X23923717Y42274980D01*
X23923717Y42274980D02*
X23923717Y42151173D01*
X23923717Y42151173D02*
X23954669Y42089270D01*
X23954669Y42089270D02*
X23985621Y42058318D01*
X23985621Y42058318D02*
X24047524Y42027366D01*
X24047524Y42027366D02*
X24202283Y42027366D01*
X24202283Y42027366D02*
X24264186Y42058318D01*
X24264186Y42058318D02*
X24295138Y42089270D01*
X24295138Y42089270D02*
X24326090Y42151173D01*
X24326090Y42151173D02*
X24326090Y42274980D01*
X24326090Y42274980D02*
X24295138Y42336883D01*
X24295138Y42336883D02*
X24264186Y42367835D01*
X24264186Y42367835D02*
X24202283Y42398787D01*
X24573703Y42708304D02*
X24573703Y42832111D01*
X24573703Y42832111D02*
X24542752Y42894014D01*
X24542752Y42894014D02*
X24511800Y42924966D01*
X24511800Y42924966D02*
X24418945Y42986869D01*
X24418945Y42986869D02*
X24295138Y43017821D01*
X24295138Y43017821D02*
X24047524Y43017821D01*
X24047524Y43017821D02*
X23985621Y42986869D01*
X23985621Y42986869D02*
X23954669Y42955917D01*
X23954669Y42955917D02*
X23923717Y42894014D01*
X23923717Y42894014D02*
X23923717Y42770207D01*
X23923717Y42770207D02*
X23954669Y42708304D01*
X23954669Y42708304D02*
X23985621Y42677352D01*
X23985621Y42677352D02*
X24047524Y42646400D01*
X24047524Y42646400D02*
X24202283Y42646400D01*
X24202283Y42646400D02*
X24264186Y42677352D01*
X24264186Y42677352D02*
X24295138Y42708304D01*
X24295138Y42708304D02*
X24326090Y42770207D01*
X24326090Y42770207D02*
X24326090Y42894014D01*
X24326090Y42894014D02*
X24295138Y42955917D01*
X24295138Y42955917D02*
X24264186Y42986869D01*
X24264186Y42986869D02*
X24202283Y43017821D01*
X8461000Y14597153D02*
X8491952Y14566201D01*
X8491952Y14566201D02*
X8522903Y14473346D01*
X8522903Y14473346D02*
X8522903Y14411442D01*
X8522903Y14411442D02*
X8491952Y14318587D01*
X8491952Y14318587D02*
X8430048Y14256684D01*
X8430048Y14256684D02*
X8368145Y14225732D01*
X8368145Y14225732D02*
X8244338Y14194780D01*
X8244338Y14194780D02*
X8151483Y14194780D01*
X8151483Y14194780D02*
X8027676Y14225732D01*
X8027676Y14225732D02*
X7965772Y14256684D01*
X7965772Y14256684D02*
X7903869Y14318587D01*
X7903869Y14318587D02*
X7872917Y14411442D01*
X7872917Y14411442D02*
X7872917Y14473346D01*
X7872917Y14473346D02*
X7903869Y14566201D01*
X7903869Y14566201D02*
X7934821Y14597153D01*
X7934821Y14844766D02*
X7903869Y14875718D01*
X7903869Y14875718D02*
X7872917Y14937621D01*
X7872917Y14937621D02*
X7872917Y15092380D01*
X7872917Y15092380D02*
X7903869Y15154283D01*
X7903869Y15154283D02*
X7934821Y15185235D01*
X7934821Y15185235D02*
X7996724Y15216187D01*
X7996724Y15216187D02*
X8058628Y15216187D01*
X8058628Y15216187D02*
X8151483Y15185235D01*
X8151483Y15185235D02*
X8522903Y14813815D01*
X8522903Y14813815D02*
X8522903Y15216187D01*
X8522903Y15835221D02*
X8522903Y15463800D01*
X8522903Y15649511D02*
X7872917Y15649511D01*
X7872917Y15649511D02*
X7965772Y15587607D01*
X7965772Y15587607D02*
X8027676Y15525704D01*
X8027676Y15525704D02*
X8058628Y15463800D01*
X20571800Y48169753D02*
X20602752Y48138801D01*
X20602752Y48138801D02*
X20633703Y48045946D01*
X20633703Y48045946D02*
X20633703Y47984042D01*
X20633703Y47984042D02*
X20602752Y47891187D01*
X20602752Y47891187D02*
X20540848Y47829284D01*
X20540848Y47829284D02*
X20478945Y47798332D01*
X20478945Y47798332D02*
X20355138Y47767380D01*
X20355138Y47767380D02*
X20262283Y47767380D01*
X20262283Y47767380D02*
X20138476Y47798332D01*
X20138476Y47798332D02*
X20076572Y47829284D01*
X20076572Y47829284D02*
X20014669Y47891187D01*
X20014669Y47891187D02*
X19983717Y47984042D01*
X19983717Y47984042D02*
X19983717Y48045946D01*
X19983717Y48045946D02*
X20014669Y48138801D01*
X20014669Y48138801D02*
X20045621Y48169753D01*
X20262283Y48541173D02*
X20231331Y48479270D01*
X20231331Y48479270D02*
X20200379Y48448318D01*
X20200379Y48448318D02*
X20138476Y48417366D01*
X20138476Y48417366D02*
X20107524Y48417366D01*
X20107524Y48417366D02*
X20045621Y48448318D01*
X20045621Y48448318D02*
X20014669Y48479270D01*
X20014669Y48479270D02*
X19983717Y48541173D01*
X19983717Y48541173D02*
X19983717Y48664980D01*
X19983717Y48664980D02*
X20014669Y48726883D01*
X20014669Y48726883D02*
X20045621Y48757835D01*
X20045621Y48757835D02*
X20107524Y48788787D01*
X20107524Y48788787D02*
X20138476Y48788787D01*
X20138476Y48788787D02*
X20200379Y48757835D01*
X20200379Y48757835D02*
X20231331Y48726883D01*
X20231331Y48726883D02*
X20262283Y48664980D01*
X20262283Y48664980D02*
X20262283Y48541173D01*
X20262283Y48541173D02*
X20293234Y48479270D01*
X20293234Y48479270D02*
X20324186Y48448318D01*
X20324186Y48448318D02*
X20386090Y48417366D01*
X20386090Y48417366D02*
X20509896Y48417366D01*
X20509896Y48417366D02*
X20571800Y48448318D01*
X20571800Y48448318D02*
X20602752Y48479270D01*
X20602752Y48479270D02*
X20633703Y48541173D01*
X20633703Y48541173D02*
X20633703Y48664980D01*
X20633703Y48664980D02*
X20602752Y48726883D01*
X20602752Y48726883D02*
X20571800Y48757835D01*
X20571800Y48757835D02*
X20509896Y48788787D01*
X20509896Y48788787D02*
X20386090Y48788787D01*
X20386090Y48788787D02*
X20324186Y48757835D01*
X20324186Y48757835D02*
X20293234Y48726883D01*
X20293234Y48726883D02*
X20262283Y48664980D01*
X19983717Y49005449D02*
X19983717Y49438773D01*
X19983717Y49438773D02*
X20633703Y49160207D01*
D11*
X38209164Y21387857D02*
X37852021Y21137857D01*
X38209164Y20959286D02*
X37459164Y20959286D01*
X37459164Y20959286D02*
X37459164Y21245000D01*
X37459164Y21245000D02*
X37494878Y21316429D01*
X37494878Y21316429D02*
X37530592Y21352143D01*
X37530592Y21352143D02*
X37602021Y21387857D01*
X37602021Y21387857D02*
X37709164Y21387857D01*
X37709164Y21387857D02*
X37780592Y21352143D01*
X37780592Y21352143D02*
X37816307Y21316429D01*
X37816307Y21316429D02*
X37852021Y21245000D01*
X37852021Y21245000D02*
X37852021Y20959286D01*
X38209164Y22102143D02*
X38209164Y21673572D01*
X38209164Y21887857D02*
X37459164Y21887857D01*
X37459164Y21887857D02*
X37566307Y21816429D01*
X37566307Y21816429D02*
X37637735Y21745000D01*
X37637735Y21745000D02*
X37673450Y21673572D01*
X38209164Y22816429D02*
X38209164Y22387858D01*
X38209164Y22602143D02*
X37459164Y22602143D01*
X37459164Y22602143D02*
X37566307Y22530715D01*
X37566307Y22530715D02*
X37637735Y22459286D01*
X37637735Y22459286D02*
X37673450Y22387858D01*
D12*
X13397287Y43995874D02*
X13428239Y43964922D01*
X13428239Y43964922D02*
X13459190Y43872067D01*
X13459190Y43872067D02*
X13459190Y43810163D01*
X13459190Y43810163D02*
X13428239Y43717308D01*
X13428239Y43717308D02*
X13366335Y43655405D01*
X13366335Y43655405D02*
X13304432Y43624453D01*
X13304432Y43624453D02*
X13180625Y43593501D01*
X13180625Y43593501D02*
X13087770Y43593501D01*
X13087770Y43593501D02*
X12963963Y43624453D01*
X12963963Y43624453D02*
X12902059Y43655405D01*
X12902059Y43655405D02*
X12840156Y43717308D01*
X12840156Y43717308D02*
X12809204Y43810163D01*
X12809204Y43810163D02*
X12809204Y43872067D01*
X12809204Y43872067D02*
X12840156Y43964922D01*
X12840156Y43964922D02*
X12871108Y43995874D01*
X13459190Y44305391D02*
X13459190Y44429198D01*
X13459190Y44429198D02*
X13428239Y44491101D01*
X13428239Y44491101D02*
X13397287Y44522053D01*
X13397287Y44522053D02*
X13304432Y44583956D01*
X13304432Y44583956D02*
X13180625Y44614908D01*
X13180625Y44614908D02*
X12933011Y44614908D01*
X12933011Y44614908D02*
X12871108Y44583956D01*
X12871108Y44583956D02*
X12840156Y44553004D01*
X12840156Y44553004D02*
X12809204Y44491101D01*
X12809204Y44491101D02*
X12809204Y44367294D01*
X12809204Y44367294D02*
X12840156Y44305391D01*
X12840156Y44305391D02*
X12871108Y44274439D01*
X12871108Y44274439D02*
X12933011Y44243487D01*
X12933011Y44243487D02*
X13087770Y44243487D01*
X13087770Y44243487D02*
X13149673Y44274439D01*
X13149673Y44274439D02*
X13180625Y44305391D01*
X13180625Y44305391D02*
X13211577Y44367294D01*
X13211577Y44367294D02*
X13211577Y44491101D01*
X13211577Y44491101D02*
X13180625Y44553004D01*
X13180625Y44553004D02*
X13149673Y44583956D01*
X13149673Y44583956D02*
X13087770Y44614908D01*
X12871108Y44862521D02*
X12840156Y44893473D01*
X12840156Y44893473D02*
X12809204Y44955376D01*
X12809204Y44955376D02*
X12809204Y45110135D01*
X12809204Y45110135D02*
X12840156Y45172038D01*
X12840156Y45172038D02*
X12871108Y45202990D01*
X12871108Y45202990D02*
X12933011Y45233942D01*
X12933011Y45233942D02*
X12994915Y45233942D01*
X12994915Y45233942D02*
X13087770Y45202990D01*
X13087770Y45202990D02*
X13459190Y44831570D01*
X13459190Y44831570D02*
X13459190Y45233942D01*
X21499712Y9947090D02*
X21468760Y9916138D01*
X21468760Y9916138D02*
X21375905Y9885187D01*
X21375905Y9885187D02*
X21314001Y9885187D01*
X21314001Y9885187D02*
X21221146Y9916138D01*
X21221146Y9916138D02*
X21159243Y9978042D01*
X21159243Y9978042D02*
X21128291Y10039945D01*
X21128291Y10039945D02*
X21097339Y10163752D01*
X21097339Y10163752D02*
X21097339Y10256607D01*
X21097339Y10256607D02*
X21128291Y10380414D01*
X21128291Y10380414D02*
X21159243Y10442318D01*
X21159243Y10442318D02*
X21221146Y10504221D01*
X21221146Y10504221D02*
X21314001Y10535173D01*
X21314001Y10535173D02*
X21375905Y10535173D01*
X21375905Y10535173D02*
X21468760Y10504221D01*
X21468760Y10504221D02*
X21499712Y10473269D01*
X22056843Y10318511D02*
X22056843Y9885187D01*
X21902084Y10566124D02*
X21747325Y10101849D01*
X21747325Y10101849D02*
X22149698Y10101849D01*
X22675877Y10318511D02*
X22675877Y9885187D01*
X22521118Y10566124D02*
X22366359Y10101849D01*
X22366359Y10101849D02*
X22768732Y10101849D01*
D11*
X39149164Y26427857D02*
X38792021Y26177857D01*
X39149164Y25999286D02*
X38399164Y25999286D01*
X38399164Y25999286D02*
X38399164Y26285000D01*
X38399164Y26285000D02*
X38434878Y26356429D01*
X38434878Y26356429D02*
X38470592Y26392143D01*
X38470592Y26392143D02*
X38542021Y26427857D01*
X38542021Y26427857D02*
X38649164Y26427857D01*
X38649164Y26427857D02*
X38720592Y26392143D01*
X38720592Y26392143D02*
X38756307Y26356429D01*
X38756307Y26356429D02*
X38792021Y26285000D01*
X38792021Y26285000D02*
X38792021Y25999286D01*
X39149164Y27142143D02*
X39149164Y26713572D01*
X39149164Y26927857D02*
X38399164Y26927857D01*
X38399164Y26927857D02*
X38506307Y26856429D01*
X38506307Y26856429D02*
X38577735Y26785000D01*
X38577735Y26785000D02*
X38613450Y26713572D01*
X38399164Y27606429D02*
X38399164Y27677858D01*
X38399164Y27677858D02*
X38434878Y27749286D01*
X38434878Y27749286D02*
X38470592Y27785000D01*
X38470592Y27785000D02*
X38542021Y27820715D01*
X38542021Y27820715D02*
X38684878Y27856429D01*
X38684878Y27856429D02*
X38863450Y27856429D01*
X38863450Y27856429D02*
X39006307Y27820715D01*
X39006307Y27820715D02*
X39077735Y27785000D01*
X39077735Y27785000D02*
X39113450Y27749286D01*
X39113450Y27749286D02*
X39149164Y27677858D01*
X39149164Y27677858D02*
X39149164Y27606429D01*
X39149164Y27606429D02*
X39113450Y27535000D01*
X39113450Y27535000D02*
X39077735Y27499286D01*
X39077735Y27499286D02*
X39006307Y27463572D01*
X39006307Y27463572D02*
X38863450Y27427858D01*
X38863450Y27427858D02*
X38684878Y27427858D01*
X38684878Y27427858D02*
X38542021Y27463572D01*
X38542021Y27463572D02*
X38470592Y27499286D01*
X38470592Y27499286D02*
X38434878Y27535000D01*
X38434878Y27535000D02*
X38399164Y27606429D01*
D12*
X13371800Y33870236D02*
X13402752Y33839284D01*
X13402752Y33839284D02*
X13433703Y33746429D01*
X13433703Y33746429D02*
X13433703Y33684525D01*
X13433703Y33684525D02*
X13402752Y33591670D01*
X13402752Y33591670D02*
X13340848Y33529767D01*
X13340848Y33529767D02*
X13278945Y33498815D01*
X13278945Y33498815D02*
X13155138Y33467863D01*
X13155138Y33467863D02*
X13062283Y33467863D01*
X13062283Y33467863D02*
X12938476Y33498815D01*
X12938476Y33498815D02*
X12876572Y33529767D01*
X12876572Y33529767D02*
X12814669Y33591670D01*
X12814669Y33591670D02*
X12783717Y33684525D01*
X12783717Y33684525D02*
X12783717Y33746429D01*
X12783717Y33746429D02*
X12814669Y33839284D01*
X12814669Y33839284D02*
X12845621Y33870236D01*
X13433703Y34489270D02*
X13433703Y34117849D01*
X13433703Y34303560D02*
X12783717Y34303560D01*
X12783717Y34303560D02*
X12876572Y34241656D01*
X12876572Y34241656D02*
X12938476Y34179753D01*
X12938476Y34179753D02*
X12969428Y34117849D01*
X12783717Y34891642D02*
X12783717Y34953545D01*
X12783717Y34953545D02*
X12814669Y35015449D01*
X12814669Y35015449D02*
X12845621Y35046400D01*
X12845621Y35046400D02*
X12907524Y35077352D01*
X12907524Y35077352D02*
X13031331Y35108304D01*
X13031331Y35108304D02*
X13186090Y35108304D01*
X13186090Y35108304D02*
X13309896Y35077352D01*
X13309896Y35077352D02*
X13371800Y35046400D01*
X13371800Y35046400D02*
X13402752Y35015449D01*
X13402752Y35015449D02*
X13433703Y34953545D01*
X13433703Y34953545D02*
X13433703Y34891642D01*
X13433703Y34891642D02*
X13402752Y34829738D01*
X13402752Y34829738D02*
X13371800Y34798787D01*
X13371800Y34798787D02*
X13309896Y34767835D01*
X13309896Y34767835D02*
X13186090Y34736883D01*
X13186090Y34736883D02*
X13031331Y34736883D01*
X13031331Y34736883D02*
X12907524Y34767835D01*
X12907524Y34767835D02*
X12845621Y34798787D01*
X12845621Y34798787D02*
X12814669Y34829738D01*
X12814669Y34829738D02*
X12783717Y34891642D01*
X12783717Y35665434D02*
X12783717Y35541628D01*
X12783717Y35541628D02*
X12814669Y35479724D01*
X12814669Y35479724D02*
X12845621Y35448772D01*
X12845621Y35448772D02*
X12938476Y35386869D01*
X12938476Y35386869D02*
X13062283Y35355917D01*
X13062283Y35355917D02*
X13309896Y35355917D01*
X13309896Y35355917D02*
X13371800Y35386869D01*
X13371800Y35386869D02*
X13402752Y35417821D01*
X13402752Y35417821D02*
X13433703Y35479724D01*
X13433703Y35479724D02*
X13433703Y35603531D01*
X13433703Y35603531D02*
X13402752Y35665434D01*
X13402752Y35665434D02*
X13371800Y35696386D01*
X13371800Y35696386D02*
X13309896Y35727338D01*
X13309896Y35727338D02*
X13155138Y35727338D01*
X13155138Y35727338D02*
X13093234Y35696386D01*
X13093234Y35696386D02*
X13062283Y35665434D01*
X13062283Y35665434D02*
X13031331Y35603531D01*
X13031331Y35603531D02*
X13031331Y35479724D01*
X13031331Y35479724D02*
X13062283Y35417821D01*
X13062283Y35417821D02*
X13093234Y35386869D01*
X13093234Y35386869D02*
X13155138Y35355917D01*
X20761800Y15139753D02*
X20792752Y15108801D01*
X20792752Y15108801D02*
X20823703Y15015946D01*
X20823703Y15015946D02*
X20823703Y14954042D01*
X20823703Y14954042D02*
X20792752Y14861187D01*
X20792752Y14861187D02*
X20730848Y14799284D01*
X20730848Y14799284D02*
X20668945Y14768332D01*
X20668945Y14768332D02*
X20545138Y14737380D01*
X20545138Y14737380D02*
X20452283Y14737380D01*
X20452283Y14737380D02*
X20328476Y14768332D01*
X20328476Y14768332D02*
X20266572Y14799284D01*
X20266572Y14799284D02*
X20204669Y14861187D01*
X20204669Y14861187D02*
X20173717Y14954042D01*
X20173717Y14954042D02*
X20173717Y15015946D01*
X20173717Y15015946D02*
X20204669Y15108801D01*
X20204669Y15108801D02*
X20235621Y15139753D01*
X20390379Y15696883D02*
X20823703Y15696883D01*
X20142766Y15542125D02*
X20607041Y15387366D01*
X20607041Y15387366D02*
X20607041Y15789739D01*
X20823703Y16377821D02*
X20823703Y16006400D01*
X20823703Y16192111D02*
X20173717Y16192111D01*
X20173717Y16192111D02*
X20266572Y16130207D01*
X20266572Y16130207D02*
X20328476Y16068304D01*
X20328476Y16068304D02*
X20359428Y16006400D01*
X26513703Y33742974D02*
X26204186Y33526312D01*
X26513703Y33371553D02*
X25863717Y33371553D01*
X25863717Y33371553D02*
X25863717Y33619167D01*
X25863717Y33619167D02*
X25894669Y33681070D01*
X25894669Y33681070D02*
X25925621Y33712022D01*
X25925621Y33712022D02*
X25987524Y33742974D01*
X25987524Y33742974D02*
X26080379Y33742974D01*
X26080379Y33742974D02*
X26142283Y33712022D01*
X26142283Y33712022D02*
X26173234Y33681070D01*
X26173234Y33681070D02*
X26204186Y33619167D01*
X26204186Y33619167D02*
X26204186Y33371553D01*
X25863717Y34331056D02*
X25863717Y34021539D01*
X25863717Y34021539D02*
X26173234Y33990587D01*
X26173234Y33990587D02*
X26142283Y34021539D01*
X26142283Y34021539D02*
X26111331Y34083442D01*
X26111331Y34083442D02*
X26111331Y34238201D01*
X26111331Y34238201D02*
X26142283Y34300104D01*
X26142283Y34300104D02*
X26173234Y34331056D01*
X26173234Y34331056D02*
X26235138Y34362008D01*
X26235138Y34362008D02*
X26389896Y34362008D01*
X26389896Y34362008D02*
X26451800Y34331056D01*
X26451800Y34331056D02*
X26482752Y34300104D01*
X26482752Y34300104D02*
X26513703Y34238201D01*
X26513703Y34238201D02*
X26513703Y34083442D01*
X26513703Y34083442D02*
X26482752Y34021539D01*
X26482752Y34021539D02*
X26451800Y33990587D01*
X26513703Y34671525D02*
X26513703Y34795332D01*
X26513703Y34795332D02*
X26482752Y34857235D01*
X26482752Y34857235D02*
X26451800Y34888187D01*
X26451800Y34888187D02*
X26358945Y34950090D01*
X26358945Y34950090D02*
X26235138Y34981042D01*
X26235138Y34981042D02*
X25987524Y34981042D01*
X25987524Y34981042D02*
X25925621Y34950090D01*
X25925621Y34950090D02*
X25894669Y34919138D01*
X25894669Y34919138D02*
X25863717Y34857235D01*
X25863717Y34857235D02*
X25863717Y34733428D01*
X25863717Y34733428D02*
X25894669Y34671525D01*
X25894669Y34671525D02*
X25925621Y34640573D01*
X25925621Y34640573D02*
X25987524Y34609621D01*
X25987524Y34609621D02*
X26142283Y34609621D01*
X26142283Y34609621D02*
X26204186Y34640573D01*
X26204186Y34640573D02*
X26235138Y34671525D01*
X26235138Y34671525D02*
X26266090Y34733428D01*
X26266090Y34733428D02*
X26266090Y34857235D01*
X26266090Y34857235D02*
X26235138Y34919138D01*
X26235138Y34919138D02*
X26204186Y34950090D01*
X26204186Y34950090D02*
X26142283Y34981042D01*
D11*
X32624819Y13678096D02*
X33434342Y13678096D01*
X33434342Y13678096D02*
X33529580Y13725715D01*
X33529580Y13725715D02*
X33577200Y13773334D01*
X33577200Y13773334D02*
X33624819Y13868572D01*
X33624819Y13868572D02*
X33624819Y14059048D01*
X33624819Y14059048D02*
X33577200Y14154286D01*
X33577200Y14154286D02*
X33529580Y14201905D01*
X33529580Y14201905D02*
X33434342Y14249524D01*
X33434342Y14249524D02*
X32624819Y14249524D01*
X32624819Y15201905D02*
X32624819Y14725715D01*
X32624819Y14725715D02*
X33101009Y14678096D01*
X33101009Y14678096D02*
X33053390Y14725715D01*
X33053390Y14725715D02*
X33005771Y14820953D01*
X33005771Y14820953D02*
X33005771Y15059048D01*
X33005771Y15059048D02*
X33053390Y15154286D01*
X33053390Y15154286D02*
X33101009Y15201905D01*
X33101009Y15201905D02*
X33196247Y15249524D01*
X33196247Y15249524D02*
X33434342Y15249524D01*
X33434342Y15249524D02*
X33529580Y15201905D01*
X33529580Y15201905D02*
X33577200Y15154286D01*
X33577200Y15154286D02*
X33624819Y15059048D01*
X33624819Y15059048D02*
X33624819Y14820953D01*
X33624819Y14820953D02*
X33577200Y14725715D01*
X33577200Y14725715D02*
X33529580Y14678096D01*
X10997466Y53982781D02*
X10997466Y53268496D01*
X10997466Y53268496D02*
X10949847Y53125639D01*
X10949847Y53125639D02*
X10854609Y53030400D01*
X10854609Y53030400D02*
X10711752Y52982781D01*
X10711752Y52982781D02*
X10616514Y52982781D01*
X11902228Y53982781D02*
X11711752Y53982781D01*
X11711752Y53982781D02*
X11616514Y53935162D01*
X11616514Y53935162D02*
X11568895Y53887543D01*
X11568895Y53887543D02*
X11473657Y53744686D01*
X11473657Y53744686D02*
X11426038Y53554210D01*
X11426038Y53554210D02*
X11426038Y53173258D01*
X11426038Y53173258D02*
X11473657Y53078020D01*
X11473657Y53078020D02*
X11521276Y53030400D01*
X11521276Y53030400D02*
X11616514Y52982781D01*
X11616514Y52982781D02*
X11806990Y52982781D01*
X11806990Y52982781D02*
X11902228Y53030400D01*
X11902228Y53030400D02*
X11949847Y53078020D01*
X11949847Y53078020D02*
X11997466Y53173258D01*
X11997466Y53173258D02*
X11997466Y53411353D01*
X11997466Y53411353D02*
X11949847Y53506591D01*
X11949847Y53506591D02*
X11902228Y53554210D01*
X11902228Y53554210D02*
X11806990Y53601829D01*
X11806990Y53601829D02*
X11616514Y53601829D01*
X11616514Y53601829D02*
X11521276Y53554210D01*
X11521276Y53554210D02*
X11473657Y53506591D01*
X11473657Y53506591D02*
X11426038Y53411353D01*
D13*
G04 #@! TO.C,C42*
X13740800Y37885821D02*
X13740800Y38195821D01*
X14520800Y37885821D02*
X14520800Y38195821D01*
D10*
G04 #@! TO.C,U3*
X36440000Y26200000D02*
X34640000Y26200000D01*
X36440000Y26200000D02*
X37240000Y26200000D01*
X36440000Y23080000D02*
X35640000Y23080000D01*
X36440000Y23080000D02*
X37240000Y23080000D01*
D13*
G04 #@! TO.C,R4*
X32045600Y26334500D02*
X33874400Y26334500D01*
X32045600Y25445500D02*
X32045600Y26334500D01*
X33874400Y25445500D02*
X32045600Y25445500D01*
X33874400Y25445500D02*
X33874400Y26334500D01*
G04 #@! TO.C,C98*
X24770800Y44385821D02*
X24770800Y44075821D01*
X25550800Y44385821D02*
X25550800Y44075821D01*
G04 #@! TO.C,JP1*
X5930800Y18097600D02*
X5930800Y17137600D01*
X5930800Y18097600D02*
X8190800Y18097600D01*
X8190800Y18097600D02*
X8190800Y17137600D01*
X8190800Y17137600D02*
X5930800Y17137600D01*
G04 #@! TO.C,R67*
X24686300Y37225221D02*
X25575300Y37225221D01*
X24686300Y35396421D02*
X24686300Y37225221D01*
X24686300Y35396421D02*
X25575300Y35396421D01*
X25575300Y37225221D02*
X25575300Y35396421D01*
D10*
G04 #@! TO.C,C81*
X22170800Y47210821D02*
X22170800Y46010821D01*
X22470800Y46010821D02*
X22470800Y47210821D01*
G04 #@! TO.C,H4*
X39350800Y3357600D02*
G75*
G02*
X35150800Y3357600I-2100000J0D01*
G01*
X35150800Y3357600D02*
G75*
G02*
X39350800Y3357600I2100000J0D01*
G01*
G04 #@! TO.C,H2*
X5350800Y39170000D02*
G75*
G02*
X1150800Y39170000I-2100000J0D01*
G01*
X1150800Y39170000D02*
G75*
G02*
X5350800Y39170000I2100000J0D01*
G01*
D13*
G04 #@! TO.C,C13*
X14540800Y17332600D02*
X14540800Y17022600D01*
X15320800Y17332600D02*
X15320800Y17022600D01*
D10*
G04 #@! TO.C,H3*
X5350800Y3357600D02*
G75*
G02*
X1150800Y3357600I-2100000J0D01*
G01*
X1150800Y3357600D02*
G75*
G02*
X5350800Y3357600I2100000J0D01*
G01*
D13*
G04 #@! TO.C,C64*
X25784260Y44070741D02*
X25784260Y44380741D01*
X26564260Y44070741D02*
X26564260Y44380741D01*
G04 #@! TO.C,C55*
X25800800Y42385821D02*
X25800800Y42075821D01*
X26580800Y42385821D02*
X26580800Y42075821D01*
D10*
G04 #@! TO.C,U2*
X14340800Y29957600D02*
X16840800Y29957600D01*
X14340800Y29957600D02*
X16840800Y29957600D01*
X14340800Y29957600D02*
X16840800Y29957600D01*
X14340800Y27457600D02*
X14340800Y29957600D01*
X14340800Y27457600D02*
X14340800Y29957600D01*
X14340800Y27457600D02*
X14340800Y29957600D01*
X14340800Y22217600D02*
X14340800Y20837600D01*
X14340800Y20832600D02*
X14720800Y20442600D01*
X15080800Y20107600D02*
X15460800Y19717600D01*
X15460800Y19717600D02*
X16840800Y19717600D01*
X24580800Y29957600D02*
X22080800Y29957600D01*
X24580800Y27457600D02*
X24580800Y29957600D01*
X24580800Y22217600D02*
X24580800Y19717600D01*
X24580800Y19717600D02*
X22080800Y19717600D01*
D14*
X14560800Y19837600D02*
G75*
G02*
X14360800Y19837600I-100000J0D01*
G01*
X14360800Y19837600D02*
G75*
G02*
X14560800Y19837600I100000J0D01*
G01*
D10*
G04 #@! TO.C,C83*
X16810800Y47220821D02*
X16810800Y46020821D01*
X17110800Y46020821D02*
X17110800Y47220821D01*
G04 #@! TO.C,X1*
X15695805Y17415808D02*
X15695805Y17465808D01*
X15845805Y17415808D02*
X15845805Y17465808D01*
X16870807Y18290808D02*
X16620805Y18290808D01*
X16870807Y18140808D02*
X16620805Y18140808D01*
X16870807Y16740808D02*
X16620805Y16740808D01*
X16870807Y16590808D02*
X16620805Y16590808D01*
X17645806Y17415808D02*
X17645806Y17465808D01*
X17795806Y17415808D02*
X17795806Y17465808D01*
X17920805Y18415808D02*
X17520805Y18415808D01*
X17920805Y18015808D02*
X17920805Y18415808D01*
X18190674Y18590808D02*
G75*
G02*
X18000938Y18590808I-94868J0D01*
G01*
X18000938Y18590808D02*
G75*
G02*
X18190674Y18590808I94868J0D01*
G01*
D13*
G04 #@! TO.C,C24*
X18825800Y16437600D02*
X19135800Y16437600D01*
X18825800Y15657600D02*
X19135800Y15657600D01*
G04 #@! TO.C,R3*
X27976400Y27472100D02*
X29805200Y27472100D01*
X27976400Y26583100D02*
X27976400Y27472100D01*
X29805200Y26583100D02*
X27976400Y26583100D01*
X29805200Y26583100D02*
X29805200Y27472100D01*
D10*
G04 #@! TO.C,J4*
X10551700Y1467600D02*
X10551700Y5247600D01*
X29351700Y5247600D02*
X28351700Y5247600D01*
X29351700Y1467600D02*
X28351700Y1467600D01*
X29351700Y1467600D02*
X29351700Y5247600D01*
G04 #@! TO.C,H1*
X39350800Y53357600D02*
G75*
G02*
X35150800Y53357600I-2100000J0D01*
G01*
X35150800Y53357600D02*
G75*
G02*
X39350800Y53357600I2100000J0D01*
G01*
D13*
G04 #@! TO.C,C102*
X24760800Y39935821D02*
X24760800Y39625821D01*
X25540800Y39935821D02*
X25540800Y39625821D01*
G04 #@! TO.C,C94*
X18750800Y46615821D02*
X18750800Y46925821D01*
X19530800Y46615821D02*
X19530800Y46925821D01*
G04 #@! TO.C,R5*
X32035600Y27344500D02*
X32035600Y26455500D01*
X32035600Y27344500D02*
X33864400Y27344500D01*
X33864400Y27344500D02*
X33864400Y26455500D01*
X33864400Y26455500D02*
X32035600Y26455500D01*
G04 #@! TO.C,C14*
X18144260Y17355741D02*
X18144260Y17665741D01*
X18924260Y17355741D02*
X18924260Y17665741D01*
D11*
G04 #@! TO.C,U13*
X21300980Y14708600D02*
X21549900Y14708600D01*
X21300980Y14007560D02*
X21300980Y14708600D01*
X24099960Y14708600D02*
X24051700Y14708600D01*
X24099960Y14708600D02*
X24300620Y14708600D01*
X24300620Y14708600D02*
X24300620Y14007560D01*
D13*
G04 #@! TO.C,C12*
X32990000Y16115000D02*
X32990000Y15805000D01*
X33770000Y16115000D02*
X33770000Y15805000D01*
D10*
G04 #@! TO.C,U14*
X15440400Y45036600D02*
X16890400Y45036600D01*
X15440400Y43461600D02*
X15440400Y45036600D01*
X15590400Y44886600D02*
X23690400Y44886600D01*
X15590400Y30786600D02*
X15590400Y44886600D01*
X15590400Y30786600D02*
X23690400Y30786600D01*
X18365398Y30786600D02*
X18365398Y44886600D01*
X20915400Y30786600D02*
X20915400Y44886600D01*
X23690400Y30786600D02*
X23690400Y44886600D01*
X16790398Y43836600D02*
G75*
G02*
X16789623Y43859881I-350000J2D01*
G01*
D13*
G04 #@! TO.C,C40*
X26065800Y28544821D02*
X25755800Y28544821D01*
X26065800Y27764821D02*
X25755800Y27764821D01*
G04 #@! TO.C,C82*
X13740800Y40115821D02*
X13740800Y39805821D01*
X14520800Y40115821D02*
X14520800Y39805821D01*
G04 #@! TO.C,C99*
X24782060Y42066141D02*
X24782060Y42376141D01*
X25562060Y42066141D02*
X25562060Y42376141D01*
G04 #@! TO.C,C21*
X8880000Y15010000D02*
X8880000Y15320000D01*
X9660000Y15010000D02*
X9660000Y15320000D01*
G04 #@! TO.C,C87*
X19810800Y46925821D02*
X19810800Y46615821D01*
X20590800Y46925821D02*
X20590800Y46615821D01*
G04 #@! TO.C,R11*
X35355600Y22224500D02*
X35355600Y21335500D01*
X35355600Y22224500D02*
X37184400Y22224500D01*
X37184400Y22224500D02*
X37184400Y21335500D01*
X37184400Y21335500D02*
X35355600Y21335500D01*
G04 #@! TO.C,C92*
X13740800Y44025821D02*
X13740800Y44335821D01*
X14520800Y44025821D02*
X14520800Y44335821D01*
D10*
G04 #@! TO.C,C44*
X22508800Y12096600D02*
X22508800Y10896600D01*
X22808800Y10896600D02*
X22808800Y12096600D01*
D13*
G04 #@! TO.C,R10*
X36295600Y27604500D02*
X36295600Y26715500D01*
X36295600Y27604500D02*
X38124400Y27604500D01*
X38124400Y27604500D02*
X38124400Y26715500D01*
X38124400Y26715500D02*
X36295600Y26715500D01*
G04 #@! TO.C,C106*
X13750800Y35355821D02*
X13750800Y35665821D01*
X14530800Y35355821D02*
X14530800Y35665821D01*
D10*
G04 #@! TO.C,C41*
X19530800Y12747600D02*
X20730800Y12747600D01*
X20730800Y13047600D02*
X19530800Y13047600D01*
D13*
G04 #@! TO.C,R59*
X24706300Y35295221D02*
X25595300Y35295221D01*
X24706300Y33466421D02*
X24706300Y35295221D01*
X24706300Y33466421D02*
X25595300Y33466421D01*
X25595300Y35295221D02*
X25595300Y33466421D01*
D11*
G04 #@! TO.C,U5*
X34115000Y15025000D02*
X34260000Y15025000D01*
X34115000Y10875000D02*
X34115000Y15025000D01*
X34115000Y10875000D02*
X34260000Y10875000D01*
X39265000Y15025000D02*
X39120000Y15025000D01*
X39265000Y10875000D02*
X39120000Y10875000D01*
X39265000Y10875000D02*
X39265000Y15025000D01*
X35021109Y11781600D02*
G75*
G02*
X34498091Y11781600I-261509J0D01*
G01*
X34498091Y11781600D02*
G75*
G02*
X35021109Y11781600I261509J0D01*
G01*
D10*
G04 #@! TO.C,J6*
X12551700Y51467600D02*
X12551700Y55247600D01*
X31351700Y55247600D02*
X30351700Y55247600D01*
X31351700Y51467600D02*
X30351700Y51467600D01*
X31351700Y51467600D02*
X31351700Y55247600D01*
G04 #@! TD*
%LPC*%
D15*
G04 #@! TO.C,C42*
X14130800Y37555821D03*
X14130800Y38525821D03*
G04 #@! TD*
D16*
G04 #@! TO.C,U3*
X35302500Y25590000D03*
X35302500Y24640000D03*
X35302500Y23690000D03*
X37577500Y23690000D03*
X37577500Y24640000D03*
X37577500Y25590000D03*
G04 #@! TD*
D17*
G04 #@! TO.C,R4*
X33445000Y25890000D03*
X32475000Y25890000D03*
G04 #@! TD*
D18*
G04 #@! TO.C,C98*
X25160800Y44715821D03*
X25160800Y43745821D03*
G04 #@! TD*
D19*
G04 #@! TO.C,NT2*
X20280800Y10807600D03*
X20280800Y10307600D03*
G04 #@! TD*
D20*
G04 #@! TO.C,JP1*
X7740800Y17617600D03*
X7060800Y17617600D03*
X6380800Y17617600D03*
G04 #@! TD*
D15*
G04 #@! TO.C,R67*
X25130800Y35825821D03*
X25130800Y36795821D03*
G04 #@! TD*
D21*
G04 #@! TO.C,C81*
X23170800Y46610821D03*
X21470800Y46610821D03*
G04 #@! TD*
D22*
G04 #@! TO.C,H4*
X37250800Y3357600D03*
G04 #@! TD*
G04 #@! TO.C,H2*
X3250800Y39170000D03*
G04 #@! TD*
D18*
G04 #@! TO.C,C13*
X14930800Y17662600D03*
X14930800Y16692600D03*
G04 #@! TD*
D22*
G04 #@! TO.C,H3*
X3250800Y3357600D03*
G04 #@! TD*
D15*
G04 #@! TO.C,C64*
X26174260Y43740741D03*
X26174260Y44710741D03*
G04 #@! TD*
D18*
G04 #@! TO.C,C55*
X26190800Y42715821D03*
X26190800Y41745821D03*
G04 #@! TD*
D23*
G04 #@! TO.C,U2*
X16860800Y22237600D03*
X16860800Y22887600D03*
X16860800Y23537600D03*
X16860800Y24187600D03*
X16860800Y24837600D03*
X16860800Y25487600D03*
X16860800Y26137600D03*
X16860800Y26787600D03*
X16860800Y27437600D03*
X17510800Y22237600D03*
X17510800Y22887600D03*
X17510800Y23537600D03*
X17510800Y24187600D03*
X17510800Y24837600D03*
X17510800Y25487600D03*
X17510800Y26137600D03*
X17510800Y26787600D03*
X17510800Y27437600D03*
X18160800Y22237600D03*
X18160800Y22887600D03*
X18160800Y23537600D03*
X18160800Y24187600D03*
X18160800Y24837600D03*
X18160800Y25487600D03*
X18160800Y26137600D03*
X18160800Y26787600D03*
X18160800Y27437600D03*
X18810800Y22237600D03*
X18810800Y22887600D03*
X18810800Y23537600D03*
X18810800Y24187600D03*
X18810800Y24837600D03*
X18810800Y25487600D03*
X18810800Y26137600D03*
X18810800Y26787600D03*
X18810800Y27437600D03*
X19460800Y22237600D03*
X19460800Y22887600D03*
X19460800Y23537600D03*
X19460800Y24187600D03*
X19460800Y24837600D03*
X19460800Y25487600D03*
X19460800Y26137600D03*
X19460800Y26787600D03*
X19460800Y27437600D03*
X20110800Y22237600D03*
X20110800Y22887600D03*
X20110800Y23537600D03*
X20110800Y24187600D03*
X20110800Y24837600D03*
X20110800Y25487600D03*
X20110800Y26137600D03*
X20110800Y26787600D03*
X20110800Y27437600D03*
X20760800Y22237600D03*
X20760800Y22887600D03*
X20760800Y23537600D03*
X20760800Y24187600D03*
X20760800Y24837600D03*
X20760800Y25487600D03*
X20760800Y26137600D03*
X20760800Y26787600D03*
X20760800Y27437600D03*
X21410800Y22237600D03*
X21410800Y22887600D03*
X21410800Y23537600D03*
X21410800Y24187600D03*
X21410800Y24837600D03*
X21410800Y25487600D03*
X21410800Y26137600D03*
X21410800Y26787600D03*
X21410800Y27437600D03*
X22060800Y22237600D03*
X22060800Y22887600D03*
X22060800Y23537600D03*
X22060800Y24187600D03*
X22060800Y24837600D03*
X22060800Y25487600D03*
X22060800Y26137600D03*
X22060800Y26787600D03*
X22060800Y27437600D03*
X14960800Y20337600D03*
X14960800Y20837600D03*
X14960800Y21337600D03*
X14960800Y21837600D03*
X14960800Y22837600D03*
X14960800Y23337600D03*
X14960800Y24337600D03*
X14960800Y24837600D03*
X14960800Y25837600D03*
X14960800Y26337600D03*
X14960800Y27337600D03*
X14960800Y27837600D03*
X14960800Y28337600D03*
X14960800Y28837600D03*
X14960800Y29337600D03*
X15460800Y20337600D03*
X15460800Y20837600D03*
X15460800Y21337600D03*
X15460800Y21837600D03*
X15460800Y22337600D03*
X15460800Y22837600D03*
X15460800Y23337600D03*
X15460800Y23837600D03*
X15460800Y24337600D03*
X15460800Y24837600D03*
X15460800Y25337600D03*
X15460800Y25837600D03*
X15460800Y26337600D03*
X15460800Y26837600D03*
X15460800Y27337600D03*
X15460800Y27837600D03*
X15460800Y28337600D03*
X15460800Y28837600D03*
X15460800Y29337600D03*
X15960800Y20337600D03*
X15960800Y20837600D03*
X15960800Y21337600D03*
X15960800Y21837600D03*
X15960800Y22337600D03*
X15960800Y22837600D03*
X15960800Y23337600D03*
X15960800Y23837600D03*
X15960800Y24337600D03*
X15960800Y24837600D03*
X15960800Y25337600D03*
X15960800Y25837600D03*
X15960800Y26337600D03*
X15960800Y26837600D03*
X15960800Y27337600D03*
X15960800Y27837600D03*
X15960800Y28337600D03*
X15960800Y28837600D03*
X15960800Y29337600D03*
X16460800Y20337600D03*
X16460800Y20837600D03*
X16460800Y21337600D03*
X16460800Y28337600D03*
X16460800Y28837600D03*
X16460800Y29337600D03*
X16960800Y20337600D03*
X16960800Y20837600D03*
X16960800Y21337600D03*
X16960800Y28337600D03*
X16960800Y28837600D03*
X17460800Y20837600D03*
X17460800Y21337600D03*
X17460800Y28337600D03*
X17460800Y28837600D03*
X17460800Y29337600D03*
X17960800Y20337600D03*
X17960800Y20837600D03*
X17960800Y21337600D03*
X17960800Y28337600D03*
X17960800Y28837600D03*
X17960800Y29337600D03*
X18460800Y20337600D03*
X18460800Y20837600D03*
X18460800Y21337600D03*
X18460800Y28337600D03*
X18460800Y28837600D03*
X18960800Y20837600D03*
X18960800Y21337600D03*
X18960800Y28337600D03*
X18960800Y28837600D03*
X18960800Y29337600D03*
X19460800Y20337600D03*
X19460800Y20837600D03*
X19460800Y21337600D03*
X19460800Y28337600D03*
X19460800Y28837600D03*
X19460800Y29337600D03*
X19960800Y20337600D03*
X19960800Y20837600D03*
X19960800Y21337600D03*
X19960800Y28337600D03*
X19960800Y28837600D03*
X20460800Y20837600D03*
X20460800Y21337600D03*
X20460800Y28337600D03*
X20460800Y28837600D03*
X20460800Y29337600D03*
X20960800Y20337600D03*
X20960800Y20837600D03*
X20960800Y21337600D03*
X20960800Y28337600D03*
X20960800Y28837600D03*
X20960800Y29337600D03*
X21460800Y20337600D03*
X21460800Y20837600D03*
X21460800Y21337600D03*
X21460800Y28337600D03*
X21460800Y28837600D03*
X21960800Y20837600D03*
X21960800Y21337600D03*
X21960800Y28337600D03*
X21960800Y28837600D03*
X21960800Y29337600D03*
X22460800Y20337600D03*
X22460800Y20837600D03*
X22460800Y21337600D03*
X22460800Y28337600D03*
X22460800Y28837600D03*
X22460800Y29337600D03*
X22960800Y20337600D03*
X22960800Y20837600D03*
X22960800Y21337600D03*
X22960800Y21837600D03*
X22960800Y22337600D03*
X22960800Y22837600D03*
X22960800Y23337600D03*
X22960800Y23837600D03*
X22960800Y24337600D03*
X22960800Y24837600D03*
X22960800Y25337600D03*
X22960800Y25837600D03*
X22960800Y26337600D03*
X22960800Y26837600D03*
X22960800Y27337600D03*
X22960800Y27837600D03*
X22960800Y28337600D03*
X22960800Y28837600D03*
X22960800Y29337600D03*
X23460800Y20337600D03*
X23460800Y20837600D03*
X23460800Y21337600D03*
X23460800Y21837600D03*
X23460800Y22337600D03*
X23460800Y22837600D03*
X23460800Y23337600D03*
X23460800Y23837600D03*
X23460800Y24337600D03*
X23460800Y24837600D03*
X23460800Y25337600D03*
X23460800Y25837600D03*
X23460800Y26337600D03*
X23460800Y26837600D03*
X23460800Y27337600D03*
X23460800Y27837600D03*
X23460800Y28337600D03*
X23460800Y28837600D03*
X23460800Y29337600D03*
X23960800Y20337600D03*
X23960800Y20837600D03*
X23960800Y21337600D03*
X23960800Y21837600D03*
X23960800Y22337600D03*
X23960800Y23337600D03*
X23960800Y23837600D03*
X23960800Y24837600D03*
X23960800Y25337600D03*
X23960800Y26337600D03*
X23960800Y26837600D03*
X23960800Y27837600D03*
X23960800Y28337600D03*
X23960800Y28837600D03*
X23960800Y29337600D03*
G04 #@! TD*
D21*
G04 #@! TO.C,C83*
X17810800Y46620821D03*
X16110800Y46620821D03*
G04 #@! TD*
D24*
G04 #@! TO.C,X1*
X17395807Y17940808D03*
X16095803Y17940808D03*
X16095803Y16940808D03*
X17395807Y16940808D03*
G04 #@! TD*
D25*
G04 #@! TO.C,C24*
X18495800Y16047600D03*
X19465800Y16047600D03*
G04 #@! TD*
D17*
G04 #@! TO.C,R3*
X29375800Y27027600D03*
X28405800Y27027600D03*
G04 #@! TD*
D26*
G04 #@! TO.C,J4*
X12151700Y1912600D03*
X12151700Y4802600D03*
X12551700Y1912600D03*
X12551700Y4802600D03*
X12951700Y1912600D03*
X12951700Y4802600D03*
X13351700Y1912600D03*
X13351700Y4802600D03*
X13751700Y1912600D03*
X13751700Y4802600D03*
X14151700Y1912600D03*
X14151700Y4802600D03*
X14551700Y1912600D03*
X14551700Y4802600D03*
X14951700Y1912600D03*
X14951700Y4802600D03*
X15351700Y1912600D03*
X15351700Y4802600D03*
X15751700Y1912600D03*
X15751700Y4802600D03*
X16151700Y1912600D03*
X16151700Y4802600D03*
X16551700Y1912600D03*
X16551700Y4802600D03*
X16951700Y1912600D03*
X16951700Y4802600D03*
X17351700Y1912600D03*
X17351700Y4802600D03*
X17751700Y1912600D03*
X17751700Y4802600D03*
X18151700Y1912600D03*
X18151700Y4802600D03*
X18551700Y1912600D03*
X18551700Y4802600D03*
X18951700Y1912600D03*
X18951700Y4802600D03*
X19351700Y1912600D03*
X19351700Y4802600D03*
X19751700Y1912600D03*
X19751700Y4802600D03*
X20151700Y1912600D03*
X20151700Y4802600D03*
X20551700Y1912600D03*
X20551700Y4802600D03*
X20951700Y1912600D03*
X20951700Y4802600D03*
X21351700Y1912600D03*
X21351700Y4802600D03*
X21751700Y1912600D03*
X21751700Y4802600D03*
X22151700Y1912600D03*
X22151700Y4802600D03*
X22551700Y1912600D03*
X22551700Y4802600D03*
X22951700Y1912600D03*
X22951700Y4802600D03*
X23351700Y1912600D03*
X23351700Y4802600D03*
X23751700Y1912600D03*
X23751700Y4802600D03*
X24151700Y1912600D03*
X24151700Y4802600D03*
X24551700Y1912600D03*
X24551700Y4802600D03*
X24951700Y1912600D03*
X24951700Y4802600D03*
X25351700Y1912600D03*
X25351700Y4802600D03*
X25751700Y1912600D03*
X25751700Y4802600D03*
X26151700Y1912600D03*
X26151700Y4802600D03*
X26551700Y1912600D03*
X26551700Y4802600D03*
X26951700Y1912600D03*
X26951700Y4802600D03*
X27351700Y1912600D03*
X27351700Y4802600D03*
X27751700Y1912600D03*
X27751700Y4802600D03*
D27*
X11676700Y1912600D03*
X28226700Y1912600D03*
X11676700Y4802600D03*
X28226700Y4802600D03*
G04 #@! TD*
D22*
G04 #@! TO.C,H1*
X37250800Y53357600D03*
G04 #@! TD*
D18*
G04 #@! TO.C,C102*
X25150800Y40265821D03*
X25150800Y39295821D03*
G04 #@! TD*
D15*
G04 #@! TO.C,C94*
X19140800Y46285821D03*
X19140800Y47255821D03*
G04 #@! TD*
D25*
G04 #@! TO.C,R5*
X32465000Y26900000D03*
X33435000Y26900000D03*
G04 #@! TD*
D15*
G04 #@! TO.C,C14*
X18534260Y17025741D03*
X18534260Y17995741D03*
G04 #@! TD*
D28*
G04 #@! TO.C,U13*
X21850800Y13057600D03*
X23750800Y13057600D03*
X22800800Y15056580D03*
G04 #@! TD*
D18*
G04 #@! TO.C,C12*
X33380000Y16445000D03*
X33380000Y15475000D03*
G04 #@! TD*
D29*
G04 #@! TO.C,U14*
X16440398Y43836600D03*
X17240400Y43836600D03*
X18040400Y43836600D03*
X21240400Y43836600D03*
X22040400Y43836600D03*
X22840400Y43836600D03*
X16440398Y43036600D03*
X17240400Y43036600D03*
X18040400Y43036600D03*
X21240400Y43036600D03*
X22040400Y43036600D03*
X22840400Y43036600D03*
X16440398Y42236600D03*
X17240400Y42236600D03*
X18040400Y42236600D03*
X21240400Y42236600D03*
X22040400Y42236600D03*
X22840400Y42236600D03*
X16440398Y41436600D03*
X17240400Y41436600D03*
X18040400Y41436600D03*
X21240400Y41436600D03*
X22040400Y41436600D03*
X22840400Y41436600D03*
X16440398Y40636600D03*
X17240400Y40636600D03*
X18040400Y40636600D03*
X21240400Y40636600D03*
X22040400Y40636600D03*
X22840400Y40636600D03*
X16440398Y39836600D03*
X17240400Y39836600D03*
X18040400Y39836600D03*
X21240400Y39836600D03*
X22040400Y39836600D03*
X22840400Y39836600D03*
X16440398Y39036600D03*
X17240400Y39036600D03*
X18040400Y39036600D03*
X21240400Y39036600D03*
X22040400Y39036600D03*
X22840400Y39036600D03*
X16440398Y38236600D03*
X17240400Y38236600D03*
X18040400Y38236600D03*
X21240400Y38236600D03*
X22040400Y38236600D03*
X22840400Y38236600D03*
X16440398Y37436600D03*
X17240400Y37436600D03*
X18040400Y37436600D03*
X21240400Y37436600D03*
X22040400Y37436600D03*
X22840400Y37436600D03*
X16440398Y36636600D03*
X17240400Y36636600D03*
X18040400Y36636600D03*
X21240400Y36636600D03*
X22040400Y36636600D03*
X22840400Y36636600D03*
X16440398Y35836600D03*
X17240400Y35836600D03*
X18040400Y35836600D03*
X21240400Y35836600D03*
X22040400Y35836600D03*
X22840400Y35836600D03*
X16440398Y35036600D03*
X17240400Y35036600D03*
X18040400Y35036600D03*
X21240400Y35036600D03*
X22040400Y35036600D03*
X22840400Y35036600D03*
X16440398Y34236600D03*
X17240400Y34236600D03*
X18040400Y34236600D03*
X21240400Y34236600D03*
X22040400Y34236600D03*
X22840400Y34236600D03*
X16440398Y33436600D03*
X17240400Y33436600D03*
X18040400Y33436600D03*
X21240400Y33436600D03*
X22040400Y33436600D03*
X22840400Y33436600D03*
X16440398Y32636600D03*
X17240400Y32636600D03*
X18040400Y32636600D03*
X21240400Y32636600D03*
X22040400Y32636600D03*
X22840400Y32636600D03*
X16440398Y31836600D03*
X17240400Y31836600D03*
X18040400Y31836600D03*
X21240400Y31836600D03*
X22040400Y31836600D03*
X22840400Y31836600D03*
G04 #@! TD*
D17*
G04 #@! TO.C,C40*
X26395800Y28154821D03*
X25425800Y28154821D03*
G04 #@! TD*
D18*
G04 #@! TO.C,C82*
X14130800Y40445821D03*
X14130800Y39475821D03*
G04 #@! TD*
D15*
G04 #@! TO.C,C99*
X25172060Y41736141D03*
X25172060Y42706141D03*
G04 #@! TD*
G04 #@! TO.C,C21*
X9270000Y14680000D03*
X9270000Y15650000D03*
G04 #@! TD*
D18*
G04 #@! TO.C,C87*
X20200800Y47255821D03*
X20200800Y46285821D03*
G04 #@! TD*
D25*
G04 #@! TO.C,R11*
X35785000Y21780000D03*
X36755000Y21780000D03*
G04 #@! TD*
D15*
G04 #@! TO.C,C92*
X14130800Y43695821D03*
X14130800Y44665821D03*
G04 #@! TD*
D21*
G04 #@! TO.C,C44*
X23508800Y11496600D03*
X21808800Y11496600D03*
G04 #@! TD*
D25*
G04 #@! TO.C,R10*
X36725000Y27160000D03*
X37695000Y27160000D03*
G04 #@! TD*
D15*
G04 #@! TO.C,C106*
X14140800Y35025821D03*
X14140800Y35995821D03*
G04 #@! TD*
D21*
G04 #@! TO.C,C41*
X20130800Y13747600D03*
X20130800Y12047600D03*
G04 #@! TD*
D15*
G04 #@! TO.C,R59*
X25150800Y33895821D03*
X25150800Y34865821D03*
G04 #@! TD*
D30*
G04 #@! TO.C,U5*
X34785000Y9648000D03*
X36055000Y9648000D03*
X37325000Y9648000D03*
X38595000Y9648000D03*
X38595000Y16252000D03*
X37325000Y16252000D03*
X36055000Y16252000D03*
X34785000Y16252000D03*
G04 #@! TD*
D26*
G04 #@! TO.C,J6*
X14151700Y51912600D03*
X14151700Y54802600D03*
X14551700Y51912600D03*
X14551700Y54802600D03*
X14951700Y51912600D03*
X14951700Y54802600D03*
X15351700Y51912600D03*
X15351700Y54802600D03*
X15751700Y51912600D03*
X15751700Y54802600D03*
X16151700Y51912600D03*
X16151700Y54802600D03*
X16551700Y51912600D03*
X16551700Y54802600D03*
X16951700Y51912600D03*
X16951700Y54802600D03*
X17351700Y51912600D03*
X17351700Y54802600D03*
X17751700Y51912600D03*
X17751700Y54802600D03*
X18151700Y51912600D03*
X18151700Y54802600D03*
X18551700Y51912600D03*
X18551700Y54802600D03*
X18951700Y51912600D03*
X18951700Y54802600D03*
X19351700Y51912600D03*
X19351700Y54802600D03*
X19751700Y51912600D03*
X19751700Y54802600D03*
X20151700Y51912600D03*
X20151700Y54802600D03*
X20551700Y51912600D03*
X20551700Y54802600D03*
X20951700Y51912600D03*
X20951700Y54802600D03*
X21351700Y51912600D03*
X21351700Y54802600D03*
X21751700Y51912600D03*
X21751700Y54802600D03*
X22151700Y51912600D03*
X22151700Y54802600D03*
X22551700Y51912600D03*
X22551700Y54802600D03*
X22951700Y51912600D03*
X22951700Y54802600D03*
X23351700Y51912600D03*
X23351700Y54802600D03*
X23751700Y51912600D03*
X23751700Y54802600D03*
X24151700Y51912600D03*
X24151700Y54802600D03*
X24551700Y51912600D03*
X24551700Y54802600D03*
X24951700Y51912600D03*
X24951700Y54802600D03*
X25351700Y51912600D03*
X25351700Y54802600D03*
X25751700Y51912600D03*
X25751700Y54802600D03*
X26151700Y51912600D03*
X26151700Y54802600D03*
X26551700Y51912600D03*
X26551700Y54802600D03*
X26951700Y51912600D03*
X26951700Y54802600D03*
X27351700Y51912600D03*
X27351700Y54802600D03*
X27751700Y51912600D03*
X27751700Y54802600D03*
X28151700Y51912600D03*
X28151700Y54802600D03*
X28551700Y51912600D03*
X28551700Y54802600D03*
X28951700Y51912600D03*
X28951700Y54802600D03*
X29351700Y51912600D03*
X29351700Y54802600D03*
X29751700Y51912600D03*
X29751700Y54802600D03*
D27*
X13676700Y51912600D03*
X30226700Y51912600D03*
X13676700Y54802600D03*
X30226700Y54802600D03*
G04 #@! TD*
D31*
G04 #@! TO.C,J5*
X33100000Y54660000D03*
X33100000Y52120000D03*
G04 #@! TD*
D32*
G04 #@! TO.C,J3*
X37340000Y28540000D03*
X37340000Y19900000D03*
D33*
X33340000Y28540000D03*
X33340000Y19900000D03*
G04 #@! TD*
D34*
G04 #@! TO.C,J1*
X4030800Y34027600D03*
D35*
X1490800Y34027600D03*
X4030800Y31487600D03*
X1490800Y31487600D03*
X4030800Y28947600D03*
X1490800Y28947600D03*
X4030800Y26407600D03*
X1490800Y26407600D03*
G04 #@! TD*
%LPD*%
M02*
