M48
; DRILL file {KiCad 9.0.1} date 2025-06-04T13:38:35-0700
; FORMAT={-:-/ absolute / metric / decimal}
; #@! TF.CreationDate,2025-06-04T13:38:35-07:00
; #@! TF.GenerationSoftware,Kicad,Pcbnew,9.0.1
; #@! TF.FileFunction,Plated,1,4,PTH
FMAT,2
METRIC
; #@! TA.AperFunction,Plated,PTH,ViaDrill
T1C0.200
; #@! TA.AperFunction,Plated,PTH,ViaDrill
T2C0.300
; #@! TA.AperFunction,Plated,PTH,ComponentDrill
T3C0.600
; #@! TA.AperFunction,Plated,PTH,ComponentDrill
T4C0.900
; #@! TA.AperFunction,Plated,PTH,ComponentDrill
T5C1.000
%
G90
G05
T1
X0.681Y16.508
X1.511Y23.468
X3.941Y12.588
X4.001Y15.858
X4.02Y6.97
X4.571Y11.998
X4.621Y30.238
X4.651Y13.278
X4.77Y7.63
X4.771Y14.618
X5.124Y28.133
X5.575Y28.372
X5.741Y27.128
X5.78Y54.66
X5.991Y26.578
X6.13Y37.88
X6.245Y47.195
X6.351Y23.598
X6.451Y25.068
X6.506Y35.46
X6.72Y49.06
X6.881Y22.348
X6.941Y16.818
X7.33Y49.71
X7.761Y16.458
X7.791Y29.158
X7.836Y26.615
X7.916Y28.378
X7.92Y9.752
X7.93Y54.66
X8.351Y34.538
X8.401Y19.247
X8.607Y16.668
X8.988Y36.618
X9.001Y50.178
X9.01Y54.69
X9.071Y17.99
X9.096Y27.568
X9.24Y14.2
X9.335Y28.308
X9.426Y25.608
X9.45Y8.21
X9.5Y19.388
X9.589Y18.827
X10.12Y54.76
X10.39Y16.14
X10.84Y45.6
X10.896Y15.32
X11.226Y33.248
X11.556Y31.373
X11.673Y29.352
X11.681Y29.808
X12.301Y28.918
X12.491Y27.658
X12.601Y22.948
X12.81Y26.932
X12.811Y26.098
X12.831Y28.088
X12.851Y21.248
X12.861Y42.658
X13.123Y29.305
X13.291Y21.688
X13.451Y27.321
X13.91Y18.168
X14.09Y36.543
X14.35Y15.28
X14.394Y18.796
X14.43Y20.088
X14.499Y22.827
X14.631Y47.098
X14.666Y15.924
X14.671Y44.681
X14.751Y43.961
X14.84Y12.84
X14.867Y29.716
X15.146Y55.599
X15.295Y38.132
X15.321Y47.848
X15.455Y40.646
X15.491Y38.921
X15.54Y12.73
X15.752Y55.598
X15.764Y42.261
X15.855Y43.608
X15.893Y32.627
X15.901Y35.007
X15.906Y34.186
X15.918Y33.424
X15.939Y41.495
X15.941Y31.825
X16.002Y36.279
X16.031Y42.941
X16.047Y38.65
X16.294Y24.575
X16.338Y28.033
X16.351Y45.951
X16.381Y25.071
X16.421Y27.015
X16.448Y27.519
X16.456Y25.767
X16.501Y3.01
X16.521Y24.088
X16.546Y23.258
X16.552Y5.66
X16.611Y21.858
X16.737Y34.627
X16.818Y36.234
X16.823Y40.285
X16.835Y32.251
X16.841Y33.048
X16.845Y31.555
X16.853Y37.067
X16.858Y33.889
X16.859Y37.829
X16.872Y35.519
X16.913Y3.771
X16.932Y39.507
X17.05Y29.265
X17.102Y23.863
X17.181Y27.101
X17.187Y27.985
X17.196Y26.501
X17.352Y4.078
X17.515Y29.865
X17.586Y39.443
X17.633Y43.445
X17.635Y31.524
X17.638Y33.056
X17.643Y38.751
X17.657Y42.766
X17.658Y41.844
X17.659Y27.855
X17.659Y34.694
X17.661Y37.037
X17.661Y40.234
X17.661Y36.251
X17.674Y33.824
X17.693Y32.266
X17.711Y46.035
X17.714Y35.576
X17.789Y25.167
X17.808Y27.148
X17.841Y26.491
X17.861Y23.871
X18.023Y29.793
X18.131Y51.318
X18.147Y27.888
X18.351Y19.888
X18.448Y25.179
X18.449Y21.889
X18.454Y40.94
X18.475Y30.006
X18.491Y27.203
X18.491Y23.891
X18.514Y29.269
X18.636Y27.899
X19.041Y18.788
X19.069Y22.555
X19.097Y25.184
X19.123Y27.957
X19.151Y23.871
X19.32Y13.748
X19.326Y30.455
X19.436Y29.689
X19.751Y10.548
X19.765Y25.181
X19.771Y23.841
X19.804Y27.817
X19.938Y17.962
X20.267Y27.975
X20.311Y51.018
X20.316Y35.223
X20.341Y22.568
X20.391Y25.18
X20.484Y34.076
X20.661Y21.708
X20.715Y39.285
X20.746Y40.288
X20.771Y23.885
X20.828Y37.844
X20.971Y51.108
X21.061Y22.591
X21.061Y18.718
X21.065Y27.861
X21.065Y25.184
X21.068Y27.054
X21.101Y23.191
X21.159Y19.415
X21.554Y27.891
X21.612Y37.014
X21.618Y38.672
X21.658Y26.463
X21.711Y14.378
X21.717Y24.508
X21.751Y51.098
X21.761Y21.938
X21.792Y30.816
X22.052Y27.94
X22.09Y48.72
X22.144Y31.302
X22.231Y21.688
X22.233Y41.775
X22.239Y46.227
X22.248Y37.081
X22.336Y23.251
X22.385Y29.987
X22.395Y25.731
X22.425Y25.22
X22.433Y38.636
X22.436Y36.239
X22.451Y43.452
X22.46Y27.18
X22.481Y26.358
X22.504Y22.551
X22.54Y50.83
X22.547Y17.51
X22.578Y27.971
X22.843Y29.805
X23.001Y14.108
X23.061Y19.348
X23.154Y36.249
X23.16Y48.42
X23.171Y45.751
X23.186Y30.703
X23.316Y38.732
X23.325Y32.502
X23.325Y31.905
X23.361Y43.409
X23.376Y41.503
X23.381Y34.931
X23.386Y39.823
X23.399Y42.225
X23.401Y33.395
X23.401Y34.361
X23.416Y40.643
X23.566Y14.753
X23.619Y48.681
X23.704Y29.887
X23.776Y41.103
X23.903Y44.725
X24.06Y49.05
X24.171Y20.031
X24.261Y35.961
X24.338Y30.535
X24.399Y40.175
X24.461Y26.332
X24.461Y19.338
X24.48Y29.59
X24.529Y27.971
X24.541Y51.168
X24.551Y4.251
X24.566Y43.746
X24.613Y42.683
X24.655Y41.736
X24.75Y0.56
X24.919Y22.183
X24.941Y3.798
X25.121Y33.098
X25.151Y26.753
X25.381Y4.128
X25.531Y21.598
X26.05Y6.064
X26.386Y26.242
X26.578Y6.064
X26.711Y46.958
X26.741Y42.681
X26.841Y40.668
X27.045Y26.019
X27.14Y53.72
X27.158Y29.318
X27.211Y6.036
X27.351Y3.4
X27.681Y51.118
X27.771Y19.088
X27.791Y2.97
X27.85Y5.92
X27.87Y22.498
X27.903Y25.595
X28.008Y21.968
X28.041Y21.188
X28.563Y53.49
X28.671Y48.379
X28.881Y51.247
X29.031Y22.468
X29.201Y48.638
X29.371Y51.2
X29.38Y26.048
X29.67Y25.17
X29.671Y48.408
X29.814Y28.398
X29.85Y27.31
X29.881Y25.95
X29.921Y27.828
X29.95Y53.5
X29.97Y18.89
X30.14Y25.45
X30.15Y23.09
X30.281Y48.368
X30.891Y48.328
X31.146Y36.969
X31.241Y40.578
X31.561Y48.448
X31.8Y25.18
X31.87Y23.97
X32.54Y48.57
X33.036Y35.118
X33.181Y39.318
X33.686Y32.888
X33.781Y40.658
X34.012Y14.842
X34.165Y16.94
X34.27Y26.42
X34.426Y33.259
X34.433Y31.964
X35.25Y21.85
X35.33Y17.89
X35.666Y33.28
X35.74Y31.955
X36.021Y41.819
X36.03Y45.24
X36.12Y13.69
X36.16Y27.1
X36.289Y24.7
X36.371Y43.848
X36.741Y38.108
X37.207Y41.027
X38.52Y24.98
X38.56Y10.96
X38.576Y24.446
T2
X34.557Y36.416
T4
X33.1Y54.66
X33.1Y52.12
T5
X1.491Y34.028
X1.491Y31.488
X1.491Y28.948
X1.491Y26.408
X4.031Y34.028
X4.031Y31.488
X4.031Y28.948
X4.031Y26.408
T3
G00X33.74Y28.54
M15
G01X32.94Y28.54
M16
G05
G00X33.74Y19.9
M15
G01X32.94Y19.9
M16
G05
G00X37.94Y28.54
M15
G01X36.74Y28.54
M16
G05
G00X37.94Y19.9
M15
G01X36.74Y19.9
M16
G05
M30
