G04 #@! TF.GenerationSoftware,KiCad,Pcbnew,9.0.1*
G04 #@! TF.CreationDate,2025-06-03T13:31:56-07:00*
G04 #@! TF.ProjectId,mp153-devboard,6d703135-332d-4646-9576-626f6172642e,rev?*
G04 #@! TF.SameCoordinates,PXb487a00PY650eff0*
G04 #@! TF.FileFunction,Soldermask,Top*
G04 #@! TF.FilePolarity,Negative*
%FSLAX46Y46*%
G04 Gerber Fmt 4.6, Leading zero omitted, Abs format (unit mm)*
G04 Created by KiCad (PCBNEW 9.0.1) date 2025-06-03 13:31:56*
%MOMM*%
%LPD*%
G01*
G04 APERTURE LIST*
G04 Aperture macros list*
%AMRoundRect*
0 Rectangle with rounded corners*
0 $1 Rounding radius*
0 $2 $3 $4 $5 $6 $7 $8 $9 X,Y pos of 4 corners*
0 Add a 4 corners polygon primitive as box body*
4,1,4,$2,$3,$4,$5,$6,$7,$8,$9,$2,$3,0*
0 Add four circle primitives for the rounded corners*
1,1,$1+$1,$2,$3*
1,1,$1+$1,$4,$5*
1,1,$1+$1,$6,$7*
1,1,$1+$1,$8,$9*
0 Add four rect primitives between the rounded corners*
20,1,$1+$1,$2,$3,$4,$5,0*
20,1,$1+$1,$4,$5,$6,$7,0*
20,1,$1+$1,$6,$7,$8,$9,0*
20,1,$1+$1,$8,$9,$2,$3,0*%
G04 Aperture macros list end*
%ADD10RoundRect,0.147500X0.172500X-0.147500X0.172500X0.147500X-0.172500X0.147500X-0.172500X-0.147500X0*%
%ADD11RoundRect,0.147500X-0.172500X0.147500X-0.172500X-0.147500X0.172500X-0.147500X0.172500X0.147500X0*%
%ADD12R,0.160000X0.500000*%
%ADD13R,0.500000X0.500000*%
%ADD14R,1.000000X1.000000*%
%ADD15C,3.000000*%
%ADD16C,0.230000*%
%ADD17RoundRect,0.050000X0.400000X0.350000X-0.400000X0.350000X-0.400000X-0.350000X0.400000X-0.350000X0*%
%ADD18RoundRect,0.147500X-0.147500X-0.172500X0.147500X-0.172500X0.147500X0.172500X-0.147500X0.172500X0*%
%ADD19RoundRect,0.147500X0.147500X0.172500X-0.147500X0.172500X-0.147500X-0.172500X0.147500X-0.172500X0*%
%ADD20R,0.200000X0.890000*%
%ADD21R,0.350000X0.890000*%
%ADD22R,0.800100X0.800100*%
%ADD23C,0.500000*%
%ADD24R,0.600000X2.000000*%
%ADD25O,1.550000X0.890000*%
%ADD26O,0.950000X1.250000*%
%ADD27R,1.700000X1.700000*%
%ADD28O,1.700000X1.700000*%
G04 APERTURE END LIST*
D10*
G04 #@! TO.C,C42*
X14130800Y37555821D03*
X14130800Y38525821D03*
G04 #@! TD*
G04 #@! TO.C,R4*
X32740800Y27745100D03*
X32740800Y28715100D03*
G04 #@! TD*
D11*
G04 #@! TO.C,C98*
X25160800Y44715821D03*
X25160800Y43745821D03*
G04 #@! TD*
D12*
G04 #@! TO.C,NT2*
X20280800Y10807600D03*
X20280800Y10307600D03*
G04 #@! TD*
D13*
G04 #@! TO.C,JP1*
X7740800Y17617600D03*
X7060800Y17617600D03*
X6380800Y17617600D03*
G04 #@! TD*
D10*
G04 #@! TO.C,R67*
X25130800Y35825821D03*
X25130800Y36795821D03*
G04 #@! TD*
D14*
G04 #@! TO.C,C81*
X23170800Y46610821D03*
X21470800Y46610821D03*
G04 #@! TD*
D15*
G04 #@! TO.C,H4*
X37250800Y3357600D03*
G04 #@! TD*
G04 #@! TO.C,H2*
X3250800Y53357600D03*
G04 #@! TD*
D11*
G04 #@! TO.C,C13*
X14930800Y17662600D03*
X14930800Y16692600D03*
G04 #@! TD*
D15*
G04 #@! TO.C,H3*
X3250800Y3357600D03*
G04 #@! TD*
D10*
G04 #@! TO.C,C64*
X26174260Y43740741D03*
X26174260Y44710741D03*
G04 #@! TD*
D11*
G04 #@! TO.C,C55*
X26190800Y42715821D03*
X26190800Y41745821D03*
G04 #@! TD*
D16*
G04 #@! TO.C,U2*
X16860800Y22237600D03*
X16860800Y22887600D03*
X16860800Y23537600D03*
X16860800Y24187600D03*
X16860800Y24837600D03*
X16860800Y25487600D03*
X16860800Y26137600D03*
X16860800Y26787600D03*
X16860800Y27437600D03*
X17510800Y22237600D03*
X17510800Y22887600D03*
X17510800Y23537600D03*
X17510800Y24187600D03*
X17510800Y24837600D03*
X17510800Y25487600D03*
X17510800Y26137600D03*
X17510800Y26787600D03*
X17510800Y27437600D03*
X18160800Y22237600D03*
X18160800Y22887600D03*
X18160800Y23537600D03*
X18160800Y24187600D03*
X18160800Y24837600D03*
X18160800Y25487600D03*
X18160800Y26137600D03*
X18160800Y26787600D03*
X18160800Y27437600D03*
X18810800Y22237600D03*
X18810800Y22887600D03*
X18810800Y23537600D03*
X18810800Y24187600D03*
X18810800Y24837600D03*
X18810800Y25487600D03*
X18810800Y26137600D03*
X18810800Y26787600D03*
X18810800Y27437600D03*
X19460800Y22237600D03*
X19460800Y22887600D03*
X19460800Y23537600D03*
X19460800Y24187600D03*
X19460800Y24837600D03*
X19460800Y25487600D03*
X19460800Y26137600D03*
X19460800Y26787600D03*
X19460800Y27437600D03*
X20110800Y22237600D03*
X20110800Y22887600D03*
X20110800Y23537600D03*
X20110800Y24187600D03*
X20110800Y24837600D03*
X20110800Y25487600D03*
X20110800Y26137600D03*
X20110800Y26787600D03*
X20110800Y27437600D03*
X20760800Y22237600D03*
X20760800Y22887600D03*
X20760800Y23537600D03*
X20760800Y24187600D03*
X20760800Y24837600D03*
X20760800Y25487600D03*
X20760800Y26137600D03*
X20760800Y26787600D03*
X20760800Y27437600D03*
X21410800Y22237600D03*
X21410800Y22887600D03*
X21410800Y23537600D03*
X21410800Y24187600D03*
X21410800Y24837600D03*
X21410800Y25487600D03*
X21410800Y26137600D03*
X21410800Y26787600D03*
X21410800Y27437600D03*
X22060800Y22237600D03*
X22060800Y22887600D03*
X22060800Y23537600D03*
X22060800Y24187600D03*
X22060800Y24837600D03*
X22060800Y25487600D03*
X22060800Y26137600D03*
X22060800Y26787600D03*
X22060800Y27437600D03*
X14960800Y20337600D03*
X14960800Y20837600D03*
X14960800Y21337600D03*
X14960800Y21837600D03*
X14960800Y22837600D03*
X14960800Y23337600D03*
X14960800Y24337600D03*
X14960800Y24837600D03*
X14960800Y25837600D03*
X14960800Y26337600D03*
X14960800Y27337600D03*
X14960800Y27837600D03*
X14960800Y28337600D03*
X14960800Y28837600D03*
X14960800Y29337600D03*
X15460800Y20337600D03*
X15460800Y20837600D03*
X15460800Y21337600D03*
X15460800Y21837600D03*
X15460800Y22337600D03*
X15460800Y22837600D03*
X15460800Y23337600D03*
X15460800Y23837600D03*
X15460800Y24337600D03*
X15460800Y24837600D03*
X15460800Y25337600D03*
X15460800Y25837600D03*
X15460800Y26337600D03*
X15460800Y26837600D03*
X15460800Y27337600D03*
X15460800Y27837600D03*
X15460800Y28337600D03*
X15460800Y28837600D03*
X15460800Y29337600D03*
X15960800Y20337600D03*
X15960800Y20837600D03*
X15960800Y21337600D03*
X15960800Y21837600D03*
X15960800Y22337600D03*
X15960800Y22837600D03*
X15960800Y23337600D03*
X15960800Y23837600D03*
X15960800Y24337600D03*
X15960800Y24837600D03*
X15960800Y25337600D03*
X15960800Y25837600D03*
X15960800Y26337600D03*
X15960800Y26837600D03*
X15960800Y27337600D03*
X15960800Y27837600D03*
X15960800Y28337600D03*
X15960800Y28837600D03*
X15960800Y29337600D03*
X16460800Y20337600D03*
X16460800Y20837600D03*
X16460800Y21337600D03*
X16460800Y28337600D03*
X16460800Y28837600D03*
X16460800Y29337600D03*
X16960800Y20337600D03*
X16960800Y20837600D03*
X16960800Y21337600D03*
X16960800Y28337600D03*
X16960800Y28837600D03*
X17460800Y20837600D03*
X17460800Y21337600D03*
X17460800Y28337600D03*
X17460800Y28837600D03*
X17460800Y29337600D03*
X17960800Y20337600D03*
X17960800Y20837600D03*
X17960800Y21337600D03*
X17960800Y28337600D03*
X17960800Y28837600D03*
X17960800Y29337600D03*
X18460800Y20337600D03*
X18460800Y20837600D03*
X18460800Y21337600D03*
X18460800Y28337600D03*
X18460800Y28837600D03*
X18960800Y20837600D03*
X18960800Y21337600D03*
X18960800Y28337600D03*
X18960800Y28837600D03*
X18960800Y29337600D03*
X19460800Y20337600D03*
X19460800Y20837600D03*
X19460800Y21337600D03*
X19460800Y28337600D03*
X19460800Y28837600D03*
X19460800Y29337600D03*
X19960800Y20337600D03*
X19960800Y20837600D03*
X19960800Y21337600D03*
X19960800Y28337600D03*
X19960800Y28837600D03*
X20460800Y20837600D03*
X20460800Y21337600D03*
X20460800Y28337600D03*
X20460800Y28837600D03*
X20460800Y29337600D03*
X20960800Y20337600D03*
X20960800Y20837600D03*
X20960800Y21337600D03*
X20960800Y28337600D03*
X20960800Y28837600D03*
X20960800Y29337600D03*
X21460800Y20337600D03*
X21460800Y20837600D03*
X21460800Y21337600D03*
X21460800Y28337600D03*
X21460800Y28837600D03*
X21960800Y20837600D03*
X21960800Y21337600D03*
X21960800Y28337600D03*
X21960800Y28837600D03*
X21960800Y29337600D03*
X22460800Y20337600D03*
X22460800Y20837600D03*
X22460800Y21337600D03*
X22460800Y28337600D03*
X22460800Y28837600D03*
X22460800Y29337600D03*
X22960800Y20337600D03*
X22960800Y20837600D03*
X22960800Y21337600D03*
X22960800Y21837600D03*
X22960800Y22337600D03*
X22960800Y22837600D03*
X22960800Y23337600D03*
X22960800Y23837600D03*
X22960800Y24337600D03*
X22960800Y24837600D03*
X22960800Y25337600D03*
X22960800Y25837600D03*
X22960800Y26337600D03*
X22960800Y26837600D03*
X22960800Y27337600D03*
X22960800Y27837600D03*
X22960800Y28337600D03*
X22960800Y28837600D03*
X22960800Y29337600D03*
X23460800Y20337600D03*
X23460800Y20837600D03*
X23460800Y21337600D03*
X23460800Y21837600D03*
X23460800Y22337600D03*
X23460800Y22837600D03*
X23460800Y23337600D03*
X23460800Y23837600D03*
X23460800Y24337600D03*
X23460800Y24837600D03*
X23460800Y25337600D03*
X23460800Y25837600D03*
X23460800Y26337600D03*
X23460800Y26837600D03*
X23460800Y27337600D03*
X23460800Y27837600D03*
X23460800Y28337600D03*
X23460800Y28837600D03*
X23460800Y29337600D03*
X23960800Y20337600D03*
X23960800Y20837600D03*
X23960800Y21337600D03*
X23960800Y21837600D03*
X23960800Y22337600D03*
X23960800Y23337600D03*
X23960800Y23837600D03*
X23960800Y24837600D03*
X23960800Y25337600D03*
X23960800Y26337600D03*
X23960800Y26837600D03*
X23960800Y27837600D03*
X23960800Y28337600D03*
X23960800Y28837600D03*
X23960800Y29337600D03*
G04 #@! TD*
D14*
G04 #@! TO.C,C83*
X17810800Y46620821D03*
X16110800Y46620821D03*
G04 #@! TD*
D17*
G04 #@! TO.C,X1*
X17395807Y17940808D03*
X16095803Y17940808D03*
X16095803Y16940808D03*
X17395807Y16940808D03*
G04 #@! TD*
D18*
G04 #@! TO.C,C24*
X18495800Y16047600D03*
X19465800Y16047600D03*
G04 #@! TD*
D19*
G04 #@! TO.C,R73*
X18345800Y11437600D03*
X17375800Y11437600D03*
G04 #@! TD*
G04 #@! TO.C,R3*
X29375800Y27027600D03*
X28405800Y27027600D03*
G04 #@! TD*
D20*
G04 #@! TO.C,J4*
X12151700Y1912600D03*
X12151700Y4802600D03*
X12551700Y1912600D03*
X12551700Y4802600D03*
X12951700Y1912600D03*
X12951700Y4802600D03*
X13351700Y1912600D03*
X13351700Y4802600D03*
X13751700Y1912600D03*
X13751700Y4802600D03*
X14151700Y1912600D03*
X14151700Y4802600D03*
X14551700Y1912600D03*
X14551700Y4802600D03*
X14951700Y1912600D03*
X14951700Y4802600D03*
X15351700Y1912600D03*
X15351700Y4802600D03*
X15751700Y1912600D03*
X15751700Y4802600D03*
X16151700Y1912600D03*
X16151700Y4802600D03*
X16551700Y1912600D03*
X16551700Y4802600D03*
X16951700Y1912600D03*
X16951700Y4802600D03*
X17351700Y1912600D03*
X17351700Y4802600D03*
X17751700Y1912600D03*
X17751700Y4802600D03*
X18151700Y1912600D03*
X18151700Y4802600D03*
X18551700Y1912600D03*
X18551700Y4802600D03*
X18951700Y1912600D03*
X18951700Y4802600D03*
X19351700Y1912600D03*
X19351700Y4802600D03*
X19751700Y1912600D03*
X19751700Y4802600D03*
X20151700Y1912600D03*
X20151700Y4802600D03*
X20551700Y1912600D03*
X20551700Y4802600D03*
X20951700Y1912600D03*
X20951700Y4802600D03*
X21351700Y1912600D03*
X21351700Y4802600D03*
X21751700Y1912600D03*
X21751700Y4802600D03*
X22151700Y1912600D03*
X22151700Y4802600D03*
X22551700Y1912600D03*
X22551700Y4802600D03*
X22951700Y1912600D03*
X22951700Y4802600D03*
X23351700Y1912600D03*
X23351700Y4802600D03*
X23751700Y1912600D03*
X23751700Y4802600D03*
X24151700Y1912600D03*
X24151700Y4802600D03*
X24551700Y1912600D03*
X24551700Y4802600D03*
X24951700Y1912600D03*
X24951700Y4802600D03*
X25351700Y1912600D03*
X25351700Y4802600D03*
X25751700Y1912600D03*
X25751700Y4802600D03*
X26151700Y1912600D03*
X26151700Y4802600D03*
X26551700Y1912600D03*
X26551700Y4802600D03*
X26951700Y1912600D03*
X26951700Y4802600D03*
X27351700Y1912600D03*
X27351700Y4802600D03*
X27751700Y1912600D03*
X27751700Y4802600D03*
D21*
X11676700Y1912600D03*
X28226700Y1912600D03*
X11676700Y4802600D03*
X28226700Y4802600D03*
G04 #@! TD*
D10*
G04 #@! TO.C,R30*
X15790800Y10402600D03*
X15790800Y11372600D03*
G04 #@! TD*
D15*
G04 #@! TO.C,H1*
X37250800Y53357600D03*
G04 #@! TD*
D11*
G04 #@! TO.C,C102*
X25150800Y40265821D03*
X25150800Y39295821D03*
G04 #@! TD*
D10*
G04 #@! TO.C,C94*
X19140800Y46285821D03*
X19140800Y47255821D03*
G04 #@! TD*
D11*
G04 #@! TO.C,R5*
X31640800Y28720100D03*
X31640800Y27750100D03*
G04 #@! TD*
D10*
G04 #@! TO.C,C14*
X18534260Y17025741D03*
X18534260Y17995741D03*
G04 #@! TD*
D22*
G04 #@! TO.C,U13*
X21850800Y13057600D03*
X23750800Y13057600D03*
X22800800Y15056580D03*
G04 #@! TD*
D23*
G04 #@! TO.C,U14*
X16440398Y43836600D03*
X17240400Y43836600D03*
X18040400Y43836600D03*
X21240400Y43836600D03*
X22040400Y43836600D03*
X22840400Y43836600D03*
X16440398Y43036600D03*
X17240400Y43036600D03*
X18040400Y43036600D03*
X21240400Y43036600D03*
X22040400Y43036600D03*
X22840400Y43036600D03*
X16440398Y42236600D03*
X17240400Y42236600D03*
X18040400Y42236600D03*
X21240400Y42236600D03*
X22040400Y42236600D03*
X22840400Y42236600D03*
X16440398Y41436600D03*
X17240400Y41436600D03*
X18040400Y41436600D03*
X21240400Y41436600D03*
X22040400Y41436600D03*
X22840400Y41436600D03*
X16440398Y40636600D03*
X17240400Y40636600D03*
X18040400Y40636600D03*
X21240400Y40636600D03*
X22040400Y40636600D03*
X22840400Y40636600D03*
X16440398Y39836600D03*
X17240400Y39836600D03*
X18040400Y39836600D03*
X21240400Y39836600D03*
X22040400Y39836600D03*
X22840400Y39836600D03*
X16440398Y39036600D03*
X17240400Y39036600D03*
X18040400Y39036600D03*
X21240400Y39036600D03*
X22040400Y39036600D03*
X22840400Y39036600D03*
X16440398Y38236600D03*
X17240400Y38236600D03*
X18040400Y38236600D03*
X21240400Y38236600D03*
X22040400Y38236600D03*
X22840400Y38236600D03*
X16440398Y37436600D03*
X17240400Y37436600D03*
X18040400Y37436600D03*
X21240400Y37436600D03*
X22040400Y37436600D03*
X22840400Y37436600D03*
X16440398Y36636600D03*
X17240400Y36636600D03*
X18040400Y36636600D03*
X21240400Y36636600D03*
X22040400Y36636600D03*
X22840400Y36636600D03*
X16440398Y35836600D03*
X17240400Y35836600D03*
X18040400Y35836600D03*
X21240400Y35836600D03*
X22040400Y35836600D03*
X22840400Y35836600D03*
X16440398Y35036600D03*
X17240400Y35036600D03*
X18040400Y35036600D03*
X21240400Y35036600D03*
X22040400Y35036600D03*
X22840400Y35036600D03*
X16440398Y34236600D03*
X17240400Y34236600D03*
X18040400Y34236600D03*
X21240400Y34236600D03*
X22040400Y34236600D03*
X22840400Y34236600D03*
X16440398Y33436600D03*
X17240400Y33436600D03*
X18040400Y33436600D03*
X21240400Y33436600D03*
X22040400Y33436600D03*
X22840400Y33436600D03*
X16440398Y32636600D03*
X17240400Y32636600D03*
X18040400Y32636600D03*
X21240400Y32636600D03*
X22040400Y32636600D03*
X22840400Y32636600D03*
X16440398Y31836600D03*
X17240400Y31836600D03*
X18040400Y31836600D03*
X21240400Y31836600D03*
X22040400Y31836600D03*
X22840400Y31836600D03*
G04 #@! TD*
D19*
G04 #@! TO.C,C40*
X26395800Y28154821D03*
X25425800Y28154821D03*
G04 #@! TD*
G04 #@! TO.C,C29*
X32305800Y26357600D03*
X31335800Y26357600D03*
G04 #@! TD*
D11*
G04 #@! TO.C,C82*
X14130800Y40445821D03*
X14130800Y39475821D03*
G04 #@! TD*
D10*
G04 #@! TO.C,C99*
X25172060Y41736141D03*
X25172060Y42706141D03*
G04 #@! TD*
D11*
G04 #@! TO.C,C87*
X20200800Y47255821D03*
X20200800Y46285821D03*
G04 #@! TD*
D22*
G04 #@! TO.C,Q1*
X16110800Y12676840D03*
X18010800Y12676840D03*
X17060800Y14675820D03*
G04 #@! TD*
D10*
G04 #@! TO.C,C92*
X14130800Y43695821D03*
X14130800Y44665821D03*
G04 #@! TD*
D14*
G04 #@! TO.C,C44*
X23508800Y11496600D03*
X21808800Y11496600D03*
G04 #@! TD*
D10*
G04 #@! TO.C,C106*
X14140800Y35025821D03*
X14140800Y35995821D03*
G04 #@! TD*
D14*
G04 #@! TO.C,C41*
X20130800Y13747600D03*
X20130800Y12047600D03*
G04 #@! TD*
D10*
G04 #@! TO.C,R59*
X25150800Y33895821D03*
X25150800Y34865821D03*
G04 #@! TD*
D24*
G04 #@! TO.C,U5*
X34765800Y12475600D03*
X36035800Y12475600D03*
X37305800Y12475600D03*
X38575800Y12475600D03*
X38575800Y19079600D03*
X37305800Y19079600D03*
X36035800Y19079600D03*
X34765800Y19079600D03*
G04 #@! TD*
D20*
G04 #@! TO.C,J6*
X17151700Y51912600D03*
X17151700Y54802600D03*
X17551700Y51912600D03*
X17551700Y54802600D03*
X17951700Y51912600D03*
X17951700Y54802600D03*
X18351700Y51912600D03*
X18351700Y54802600D03*
X18751700Y51912600D03*
X18751700Y54802600D03*
X19151700Y51912600D03*
X19151700Y54802600D03*
X19551700Y51912600D03*
X19551700Y54802600D03*
X19951700Y51912600D03*
X19951700Y54802600D03*
X20351700Y51912600D03*
X20351700Y54802600D03*
X20751700Y51912600D03*
X20751700Y54802600D03*
X21151700Y51912600D03*
X21151700Y54802600D03*
X21551700Y51912600D03*
X21551700Y54802600D03*
X21951700Y51912600D03*
X21951700Y54802600D03*
X22351700Y51912600D03*
X22351700Y54802600D03*
X22751700Y51912600D03*
X22751700Y54802600D03*
X23151700Y51912600D03*
X23151700Y54802600D03*
X23551700Y51912600D03*
X23551700Y54802600D03*
X23951700Y51912600D03*
X23951700Y54802600D03*
X24351700Y51912600D03*
X24351700Y54802600D03*
X24751700Y51912600D03*
X24751700Y54802600D03*
X25151700Y51912600D03*
X25151700Y54802600D03*
X25551700Y51912600D03*
X25551700Y54802600D03*
X25951700Y51912600D03*
X25951700Y54802600D03*
X26351700Y51912600D03*
X26351700Y54802600D03*
X26751700Y51912600D03*
X26751700Y54802600D03*
X27151700Y51912600D03*
X27151700Y54802600D03*
X27551700Y51912600D03*
X27551700Y54802600D03*
X27951700Y51912600D03*
X27951700Y54802600D03*
X28351700Y51912600D03*
X28351700Y54802600D03*
X28751700Y51912600D03*
X28751700Y54802600D03*
X29151700Y51912600D03*
X29151700Y54802600D03*
X29551700Y51912600D03*
X29551700Y54802600D03*
X29951700Y51912600D03*
X29951700Y54802600D03*
X30351700Y51912600D03*
X30351700Y54802600D03*
X30751700Y51912600D03*
X30751700Y54802600D03*
X31151700Y51912600D03*
X31151700Y54802600D03*
X31551700Y51912600D03*
X31551700Y54802600D03*
X31951700Y51912600D03*
X31951700Y54802600D03*
X32351700Y51912600D03*
X32351700Y54802600D03*
X32751700Y51912600D03*
X32751700Y54802600D03*
D21*
X16676700Y51912600D03*
X33226700Y51912600D03*
X16676700Y54802600D03*
X33226700Y54802600D03*
G04 #@! TD*
D25*
G04 #@! TO.C,J3*
X38420800Y28547600D03*
D26*
X35720800Y27547600D03*
X35720800Y22547600D03*
D25*
X38420800Y21547600D03*
G04 #@! TD*
D27*
G04 #@! TO.C,J1*
X4030800Y34027600D03*
D28*
X1490800Y34027600D03*
X4030800Y31487600D03*
X1490800Y31487600D03*
X4030800Y28947600D03*
X1490800Y28947600D03*
X4030800Y26407600D03*
X1490800Y26407600D03*
G04 #@! TD*
M02*
