%TF.GenerationSoftware,KiCad,Pcbnew,9.0.1*%
%TF.CreationDate,2025-06-04T13:38:35-07:00*%
%TF.ProjectId,mp153-devboard,6d703135-332d-4646-9576-626f6172642e,rev?*%
%TF.SameCoordinates,PXb487a00PY650eff0*%
%TF.FileFunction,Drillmap*%
%TF.FilePolarity,Positive*%
%FSLAX45Y45*%
G04 Gerber Fmt 4.5, Leading zero omitted, Abs format (unit mm)*
G04 Created by KiCad (PCBNEW 9.0.1) date 2025-06-04 13:38:35*
%MOMM*%
%LPD*%
G01*
G04 APERTURE LIST*
%ADD10C,0.050000*%
%ADD11C,0.200000*%
%ADD12C,0.100000*%
G04 APERTURE END LIST*
D10*
X0Y5726920D02*
X3990340Y5726920D01*
X3990340Y-60000D01*
X0Y-60000D01*
X0Y5726920D01*
D11*
D12*
X58080Y1660760D02*
X78080Y1640760D01*
X78080Y1660760D02*
X58080Y1640760D01*
X141080Y2356760D02*
X161080Y2336760D01*
X161080Y2356760D02*
X141080Y2336760D01*
X384080Y1268760D02*
X404080Y1248760D01*
X404080Y1268760D02*
X384080Y1248760D01*
X390080Y1595760D02*
X410080Y1575760D01*
X410080Y1595760D02*
X390080Y1575760D01*
X392000Y707000D02*
X412000Y687000D01*
X412000Y707000D02*
X392000Y687000D01*
X447080Y1209760D02*
X467080Y1189760D01*
X467080Y1209760D02*
X447080Y1189760D01*
X452080Y3033760D02*
X472080Y3013760D01*
X472080Y3033760D02*
X452080Y3013760D01*
X455080Y1337760D02*
X475080Y1317760D01*
X475080Y1337760D02*
X455080Y1317760D01*
X467000Y773000D02*
X487000Y753000D01*
X487000Y773000D02*
X467000Y753000D01*
X467080Y1471760D02*
X487080Y1451760D01*
X487080Y1471760D02*
X467080Y1451760D01*
X502383Y2823335D02*
X522383Y2803335D01*
X522383Y2823335D02*
X502383Y2803335D01*
X547478Y2847158D02*
X567478Y2827158D01*
X567478Y2847158D02*
X547478Y2827158D01*
X564080Y2722760D02*
X584080Y2702760D01*
X584080Y2722760D02*
X564080Y2702760D01*
X568000Y5476000D02*
X588000Y5456000D01*
X588000Y5476000D02*
X568000Y5456000D01*
X589080Y2667760D02*
X609080Y2647760D01*
X609080Y2667760D02*
X589080Y2647760D01*
X603000Y3798000D02*
X623000Y3778000D01*
X623000Y3798000D02*
X603000Y3778000D01*
X614500Y4729500D02*
X634500Y4709500D01*
X634500Y4729500D02*
X614500Y4709500D01*
X625080Y2369760D02*
X645080Y2349760D01*
X645080Y2369760D02*
X625080Y2349760D01*
X635080Y2516760D02*
X655080Y2496760D01*
X655080Y2516760D02*
X635080Y2496760D01*
X640580Y3556000D02*
X660580Y3536000D01*
X660580Y3556000D02*
X640580Y3536000D01*
X662000Y4916000D02*
X682000Y4896000D01*
X682000Y4916000D02*
X662000Y4896000D01*
X678080Y2244760D02*
X698080Y2224760D01*
X698080Y2244760D02*
X678080Y2224760D01*
X684080Y1691760D02*
X704080Y1671760D01*
X704080Y1691760D02*
X684080Y1671760D01*
X723000Y4981000D02*
X743000Y4961000D01*
X743000Y4981000D02*
X723000Y4961000D01*
X766080Y1655760D02*
X786080Y1635760D01*
X786080Y1655760D02*
X766080Y1635760D01*
X769080Y2925760D02*
X789080Y2905760D01*
X789080Y2925760D02*
X769080Y2905760D01*
X773628Y2671531D02*
X793628Y2651531D01*
X793628Y2671531D02*
X773628Y2651531D01*
X781580Y2847760D02*
X801580Y2827760D01*
X801580Y2847760D02*
X781580Y2827760D01*
X782000Y985160D02*
X802000Y965160D01*
X802000Y985160D02*
X782000Y965160D01*
X783000Y5476000D02*
X803000Y5456000D01*
X803000Y5476000D02*
X783000Y5456000D01*
X825080Y3463760D02*
X845080Y3443760D01*
X845080Y3463760D02*
X825080Y3443760D01*
X830080Y1934710D02*
X850080Y1914710D01*
X850080Y1934710D02*
X830080Y1914710D01*
X850730Y1676760D02*
X870730Y1656760D01*
X870730Y1676760D02*
X850730Y1656760D01*
X888765Y3671760D02*
X908765Y3651760D01*
X908765Y3671760D02*
X888765Y3651760D01*
X890080Y5027760D02*
X910080Y5007760D01*
X910080Y5027760D02*
X890080Y5007760D01*
X891000Y5479000D02*
X911000Y5459000D01*
X911000Y5479000D02*
X891000Y5459000D01*
X897080Y1809000D02*
X917080Y1789000D01*
X917080Y1809000D02*
X897080Y1789000D01*
X899580Y2766760D02*
X919580Y2746760D01*
X919580Y2766760D02*
X899580Y2746760D01*
X914000Y1430000D02*
X934000Y1410000D01*
X934000Y1430000D02*
X914000Y1410000D01*
X923530Y2840760D02*
X943530Y2820760D01*
X943530Y2840760D02*
X923530Y2820760D01*
X932580Y2570760D02*
X952580Y2550760D01*
X952580Y2570760D02*
X932580Y2550760D01*
X935000Y831000D02*
X955000Y811000D01*
X955000Y831000D02*
X935000Y811000D01*
X940030Y1948760D02*
X960030Y1928760D01*
X960030Y1948760D02*
X940030Y1928760D01*
X948862Y1892710D02*
X968862Y1872710D01*
X968862Y1892710D02*
X948862Y1872710D01*
X1002000Y5486000D02*
X1022000Y5466000D01*
X1022000Y5486000D02*
X1002000Y5466000D01*
X1029000Y1624000D02*
X1049000Y1604000D01*
X1049000Y1624000D02*
X1029000Y1604000D01*
X1074000Y4570000D02*
X1094000Y4550000D01*
X1094000Y4570000D02*
X1074000Y4550000D01*
X1079580Y1542000D02*
X1099580Y1522000D01*
X1099580Y1542000D02*
X1079580Y1522000D01*
X1112580Y3334760D02*
X1132580Y3314760D01*
X1132580Y3334760D02*
X1112580Y3314760D01*
X1145630Y3147344D02*
X1165630Y3127344D01*
X1165630Y3147344D02*
X1145630Y3127344D01*
X1157343Y2945211D02*
X1177343Y2925211D01*
X1177343Y2945211D02*
X1157343Y2925211D01*
X1158080Y2990760D02*
X1178080Y2970760D01*
X1178080Y2990760D02*
X1158080Y2970760D01*
X1220080Y2901760D02*
X1240080Y2881760D01*
X1240080Y2901760D02*
X1220080Y2881760D01*
X1239080Y2775760D02*
X1259080Y2755760D01*
X1259080Y2775760D02*
X1239080Y2755760D01*
X1250080Y2304760D02*
X1270080Y2284760D01*
X1270080Y2304760D02*
X1250080Y2284760D01*
X1271045Y2703220D02*
X1291045Y2683220D01*
X1291045Y2703220D02*
X1271045Y2683220D01*
X1271080Y2619760D02*
X1291080Y2599760D01*
X1291080Y2619760D02*
X1271080Y2599760D01*
X1273080Y2818760D02*
X1293080Y2798760D01*
X1293080Y2818760D02*
X1273080Y2798760D01*
X1275080Y2134760D02*
X1295080Y2114760D01*
X1295080Y2134760D02*
X1275080Y2114760D01*
X1276080Y4275760D02*
X1296080Y4255760D01*
X1296080Y4275760D02*
X1276080Y4255760D01*
X1302330Y2940531D02*
X1322330Y2920531D01*
X1322330Y2940531D02*
X1302330Y2920531D01*
X1319080Y2178760D02*
X1339080Y2158760D01*
X1339080Y2178760D02*
X1319080Y2158760D01*
X1335080Y2742082D02*
X1355080Y2722082D01*
X1355080Y2742082D02*
X1335080Y2722082D01*
X1381000Y1826760D02*
X1401000Y1806760D01*
X1401000Y1826760D02*
X1381000Y1806760D01*
X1398980Y3664282D02*
X1418980Y3644282D01*
X1418980Y3664282D02*
X1398980Y3644282D01*
X1425000Y1538000D02*
X1445000Y1518000D01*
X1445000Y1538000D02*
X1425000Y1518000D01*
X1429398Y1889602D02*
X1449398Y1869602D01*
X1449398Y1889602D02*
X1429398Y1869602D01*
X1433000Y2018760D02*
X1453000Y1998760D01*
X1453000Y2018760D02*
X1433000Y1998760D01*
X1439880Y2292681D02*
X1459880Y2272681D01*
X1459880Y2292681D02*
X1439880Y2272681D01*
X1453080Y4719760D02*
X1473080Y4699760D01*
X1473080Y4719760D02*
X1453080Y4699760D01*
X1456630Y1602429D02*
X1476630Y1582429D01*
X1476630Y1602429D02*
X1456630Y1582429D01*
X1457080Y4478082D02*
X1477080Y4458082D01*
X1477080Y4478082D02*
X1457080Y4458082D01*
X1465080Y4406082D02*
X1485080Y4386082D01*
X1485080Y4406082D02*
X1465080Y4386082D01*
X1474000Y1294000D02*
X1494000Y1274000D01*
X1494000Y1294000D02*
X1474000Y1274000D01*
X1476694Y2981590D02*
X1496694Y2961590D01*
X1496694Y2981590D02*
X1476694Y2961590D01*
X1504617Y5569872D02*
X1524617Y5549872D01*
X1524617Y5569872D02*
X1504617Y5549872D01*
X1519478Y3823152D02*
X1539478Y3803152D01*
X1539478Y3823152D02*
X1519478Y3803152D01*
X1522080Y4794760D02*
X1542080Y4774760D01*
X1542080Y4794760D02*
X1522080Y4774760D01*
X1535480Y4074612D02*
X1555480Y4054612D01*
X1555480Y4074612D02*
X1535480Y4054612D01*
X1539080Y3902082D02*
X1559080Y3882082D01*
X1559080Y3902082D02*
X1539080Y3882082D01*
X1544000Y1283000D02*
X1564000Y1263000D01*
X1564000Y1283000D02*
X1544000Y1263000D01*
X1565170Y5569772D02*
X1585170Y5549772D01*
X1585170Y5569772D02*
X1565170Y5549772D01*
X1566356Y4236096D02*
X1586356Y4216096D01*
X1586356Y4236096D02*
X1566356Y4216096D01*
X1575491Y4370775D02*
X1595491Y4350775D01*
X1595491Y4370775D02*
X1575491Y4350775D01*
X1579310Y3272674D02*
X1599310Y3252674D01*
X1599310Y3272674D02*
X1579310Y3252674D01*
X1580072Y3510672D02*
X1600072Y3490672D01*
X1600072Y3510672D02*
X1580072Y3490672D01*
X1580580Y3428630D02*
X1600580Y3408630D01*
X1600580Y3428630D02*
X1580580Y3408630D01*
X1581850Y3352430D02*
X1601850Y3332430D01*
X1601850Y3352430D02*
X1581850Y3332430D01*
X1583882Y4159532D02*
X1603882Y4139532D01*
X1603882Y4159532D02*
X1583882Y4139532D01*
X1584136Y3192488D02*
X1604136Y3172488D01*
X1604136Y3192488D02*
X1584136Y3172488D01*
X1590232Y3637926D02*
X1610232Y3617926D01*
X1610232Y3637926D02*
X1590232Y3617926D01*
X1593138Y4304090D02*
X1613138Y4284090D01*
X1613138Y4304090D02*
X1593138Y4284090D01*
X1594662Y3874968D02*
X1614662Y3854968D01*
X1614662Y3874968D02*
X1594662Y3854968D01*
X1619422Y2467541D02*
X1639422Y2447541D01*
X1639422Y2467541D02*
X1619422Y2447541D01*
X1623780Y2813282D02*
X1643780Y2793282D01*
X1643780Y2813282D02*
X1623780Y2793282D01*
X1625080Y4605082D02*
X1645080Y4585082D01*
X1645080Y4605082D02*
X1625080Y4585082D01*
X1628080Y2517082D02*
X1648080Y2497082D01*
X1648080Y2517082D02*
X1628080Y2497082D01*
X1632080Y2711482D02*
X1652080Y2691482D01*
X1652080Y2711482D02*
X1632080Y2691482D01*
X1634787Y2761885D02*
X1654787Y2741885D01*
X1654787Y2761885D02*
X1634787Y2741885D01*
X1635556Y2586680D02*
X1655556Y2566680D01*
X1655556Y2586680D02*
X1635556Y2566680D01*
X1640083Y311000D02*
X1660083Y291000D01*
X1660083Y311000D02*
X1640083Y291000D01*
X1642080Y2418760D02*
X1662080Y2398760D01*
X1662080Y2418760D02*
X1642080Y2398760D01*
X1644580Y2335760D02*
X1664580Y2315760D01*
X1664580Y2335760D02*
X1644580Y2315760D01*
X1645170Y576000D02*
X1665170Y556000D01*
X1665170Y576000D02*
X1645170Y556000D01*
X1651080Y2195760D02*
X1671080Y2175760D01*
X1671080Y2195760D02*
X1651080Y2175760D01*
X1663680Y3472682D02*
X1683680Y3452682D01*
X1683680Y3472682D02*
X1663680Y3452682D01*
X1671766Y3633354D02*
X1691766Y3613354D01*
X1691766Y3633354D02*
X1671766Y3613354D01*
X1672274Y4038484D02*
X1692274Y4018484D01*
X1692274Y4038484D02*
X1672274Y4018484D01*
X1673544Y3235082D02*
X1693544Y3215082D01*
X1693544Y3235082D02*
X1673544Y3215082D01*
X1674052Y3314838D02*
X1694052Y3294838D01*
X1694052Y3314838D02*
X1674052Y3294838D01*
X1674480Y3165482D02*
X1694480Y3145482D01*
X1694480Y3165482D02*
X1674480Y3145482D01*
X1675322Y3716666D02*
X1695322Y3696666D01*
X1695322Y3716666D02*
X1675322Y3696666D01*
X1675830Y3398912D02*
X1695830Y3378912D01*
X1695830Y3398912D02*
X1675830Y3378912D01*
X1675942Y3792926D02*
X1695942Y3772926D01*
X1695942Y3792926D02*
X1675942Y3772926D01*
X1677243Y3561851D02*
X1697243Y3541851D01*
X1697243Y3561851D02*
X1677243Y3541851D01*
X1681343Y387108D02*
X1701343Y367108D01*
X1701343Y387108D02*
X1681343Y367108D01*
X1683152Y3960716D02*
X1703152Y3940716D01*
X1703152Y3960716D02*
X1683152Y3940716D01*
X1694980Y2936482D02*
X1714980Y2916482D01*
X1714980Y2936482D02*
X1694980Y2916482D01*
X1700162Y2396260D02*
X1720162Y2376260D01*
X1720162Y2396260D02*
X1700162Y2376260D01*
X1708080Y2720082D02*
X1728080Y2700082D01*
X1728080Y2720082D02*
X1708080Y2700082D01*
X1708654Y2808452D02*
X1728654Y2788453D01*
X1728654Y2808452D02*
X1708654Y2788453D01*
X1709580Y2660082D02*
X1729580Y2640082D01*
X1729580Y2660082D02*
X1709580Y2640082D01*
X1725170Y417760D02*
X1745170Y397760D01*
X1745170Y417760D02*
X1725170Y397760D01*
X1741480Y2996482D02*
X1761480Y2976482D01*
X1761480Y2996482D02*
X1741480Y2976482D01*
X1748580Y3954260D02*
X1768580Y3934260D01*
X1768580Y3954260D02*
X1748580Y3934260D01*
X1753300Y4354460D02*
X1773300Y4334460D01*
X1773300Y4354460D02*
X1753300Y4334460D01*
X1753480Y3162382D02*
X1773480Y3142382D01*
X1773480Y3162382D02*
X1753480Y3142382D01*
X1753808Y3315600D02*
X1773808Y3295600D01*
X1773808Y3315600D02*
X1753808Y3295600D01*
X1754306Y3885071D02*
X1774306Y3865071D01*
X1774306Y3885071D02*
X1754306Y3865071D01*
X1755717Y4286596D02*
X1775717Y4266596D01*
X1775717Y4286596D02*
X1755717Y4266596D01*
X1755840Y4194440D02*
X1775840Y4174440D01*
X1775840Y4194440D02*
X1755840Y4174440D01*
X1755862Y2795508D02*
X1775862Y2775508D01*
X1775862Y2795508D02*
X1755862Y2775508D01*
X1755863Y3479382D02*
X1775863Y3459382D01*
X1775863Y3479382D02*
X1755863Y3459382D01*
X1756080Y3713682D02*
X1776080Y3693682D01*
X1776080Y3713682D02*
X1756080Y3693682D01*
X1756094Y4033404D02*
X1776094Y4013404D01*
X1776094Y4033404D02*
X1756094Y4013404D01*
X1756094Y3635132D02*
X1776094Y3615132D01*
X1776094Y3635132D02*
X1756094Y3615132D01*
X1757364Y3392370D02*
X1777364Y3372370D01*
X1777364Y3392370D02*
X1757364Y3372370D01*
X1759318Y3236606D02*
X1779318Y3216606D01*
X1779318Y3236606D02*
X1759318Y3216606D01*
X1761080Y4613532D02*
X1781080Y4593532D01*
X1781080Y4613532D02*
X1761080Y4593532D01*
X1761380Y3567582D02*
X1781380Y3547582D01*
X1781380Y3567582D02*
X1761380Y3547582D01*
X1768906Y2526736D02*
X1788906Y2506736D01*
X1788906Y2526736D02*
X1768906Y2506736D01*
X1770826Y2724796D02*
X1790826Y2704796D01*
X1790826Y2724796D02*
X1770826Y2704796D01*
X1774080Y2659082D02*
X1794080Y2639082D01*
X1794080Y2659082D02*
X1774080Y2639082D01*
X1776080Y2397082D02*
X1796080Y2377082D01*
X1796080Y2397082D02*
X1776080Y2377082D01*
X1792280Y2989282D02*
X1812280Y2969282D01*
X1812280Y2989282D02*
X1792280Y2969282D01*
X1803080Y5141760D02*
X1823080Y5121760D01*
X1823080Y5141760D02*
X1803080Y5121760D01*
X1804704Y2798756D02*
X1824704Y2778756D01*
X1824704Y2798756D02*
X1804704Y2778756D01*
X1825080Y1998760D02*
X1845080Y1978760D01*
X1845080Y1998760D02*
X1825080Y1978760D01*
X1834759Y2527944D02*
X1854759Y2507944D01*
X1854759Y2527944D02*
X1834759Y2507944D01*
X1834880Y2198882D02*
X1854880Y2178882D01*
X1854880Y2198882D02*
X1834880Y2178882D01*
X1835359Y4104016D02*
X1855359Y4084016D01*
X1855359Y4104016D02*
X1835359Y4084016D01*
X1837530Y3010582D02*
X1857530Y2990582D01*
X1857530Y3010582D02*
X1837530Y2990582D01*
X1839080Y2730282D02*
X1859080Y2710282D01*
X1859080Y2730282D02*
X1839080Y2710282D01*
X1839080Y2399082D02*
X1859080Y2379082D01*
X1859080Y2399082D02*
X1839080Y2379082D01*
X1841438Y2936886D02*
X1861438Y2916886D01*
X1861438Y2936886D02*
X1841438Y2916886D01*
X1853641Y2799906D02*
X1873641Y2779906D01*
X1873641Y2799906D02*
X1853641Y2779906D01*
X1894080Y1888760D02*
X1914080Y1868760D01*
X1914080Y1888760D02*
X1894080Y1868760D01*
X1896880Y2265482D02*
X1916880Y2245482D01*
X1916880Y2265482D02*
X1896880Y2245482D01*
X1899680Y2528381D02*
X1919680Y2508381D01*
X1919680Y2528381D02*
X1899680Y2508381D01*
X1902252Y2805660D02*
X1922252Y2785660D01*
X1922252Y2805660D02*
X1902252Y2785660D01*
X1905080Y2397082D02*
X1925080Y2377082D01*
X1925080Y2397082D02*
X1905080Y2377082D01*
X1922000Y1384760D02*
X1942000Y1364760D01*
X1942000Y1384760D02*
X1922000Y1364760D01*
X1922630Y3055532D02*
X1942630Y3035532D01*
X1942630Y3055532D02*
X1922630Y3035532D01*
X1933630Y2978882D02*
X1953630Y2958882D01*
X1953630Y2978882D02*
X1933630Y2958882D01*
X1965080Y1064760D02*
X1985080Y1044760D01*
X1985080Y1064760D02*
X1965080Y1044760D01*
X1966514Y2528133D02*
X1986514Y2508133D01*
X1986514Y2528133D02*
X1966514Y2508133D01*
X1967080Y2394082D02*
X1987080Y2374082D01*
X1987080Y2394082D02*
X1967080Y2374082D01*
X1970380Y2791682D02*
X1990380Y2771682D01*
X1990380Y2791682D02*
X1970380Y2771682D01*
X1983789Y1806199D02*
X2003789Y1786199D01*
X2003789Y1806199D02*
X1983789Y1786199D01*
X2016713Y2807473D02*
X2036713Y2787473D01*
X2036713Y2807473D02*
X2016713Y2787473D01*
X2021080Y5111760D02*
X2041080Y5091760D01*
X2041080Y5111760D02*
X2021080Y5091760D01*
X2021580Y3532282D02*
X2041580Y3512282D01*
X2041580Y3532282D02*
X2021580Y3512282D01*
X2024080Y2266760D02*
X2044080Y2246760D01*
X2044080Y2266760D02*
X2024080Y2246760D01*
X2029135Y2527970D02*
X2049135Y2507970D01*
X2049135Y2527970D02*
X2029135Y2507970D01*
X2038380Y3417582D02*
X2058380Y3397582D01*
X2058380Y3417582D02*
X2038380Y3397582D01*
X2056080Y2180760D02*
X2076080Y2160760D01*
X2076080Y2180760D02*
X2056080Y2160760D01*
X2061547Y3938543D02*
X2081547Y3918543D01*
X2081547Y3938543D02*
X2061547Y3918543D01*
X2064564Y4038796D02*
X2084564Y4018796D01*
X2084564Y4038796D02*
X2064564Y4018796D01*
X2067102Y2398466D02*
X2087102Y2378466D01*
X2087102Y2398466D02*
X2067102Y2378466D01*
X2072752Y3794424D02*
X2092752Y3774424D01*
X2092752Y3794424D02*
X2072752Y3774424D01*
X2087080Y5120760D02*
X2107080Y5100760D01*
X2107080Y5120760D02*
X2087080Y5100760D01*
X2096080Y2269082D02*
X2116080Y2249082D01*
X2116080Y2269082D02*
X2096080Y2249082D01*
X2096080Y1881760D02*
X2116080Y1861760D01*
X2116080Y1881760D02*
X2096080Y1861760D01*
X2096519Y2796122D02*
X2116519Y2776122D01*
X2116519Y2796122D02*
X2096519Y2776122D01*
X2096538Y2528350D02*
X2116538Y2508350D01*
X2116538Y2528350D02*
X2096538Y2508350D01*
X2096780Y2715382D02*
X2116780Y2695382D01*
X2116780Y2715382D02*
X2096780Y2695382D01*
X2100080Y2329082D02*
X2120080Y2309082D01*
X2120080Y2329082D02*
X2100080Y2309082D01*
X2105930Y1951532D02*
X2125930Y1931532D01*
X2125930Y1951532D02*
X2105930Y1931532D01*
X2145380Y2799082D02*
X2165380Y2779082D01*
X2165380Y2799082D02*
X2145380Y2779082D01*
X2151176Y3711392D02*
X2171176Y3691392D01*
X2171176Y3711392D02*
X2151176Y3691392D01*
X2151826Y3877194D02*
X2171826Y3857194D01*
X2171826Y3877194D02*
X2151826Y3857194D01*
X2155780Y2656282D02*
X2175780Y2636282D01*
X2175780Y2656282D02*
X2155780Y2636282D01*
X2161080Y1447760D02*
X2181080Y1427760D01*
X2181080Y1447760D02*
X2161080Y1427760D01*
X2161677Y2460759D02*
X2181677Y2440759D01*
X2181677Y2460759D02*
X2161677Y2440759D01*
X2165080Y5119760D02*
X2185080Y5099760D01*
X2185080Y5119760D02*
X2165080Y5099760D01*
X2166080Y2203760D02*
X2186080Y2183760D01*
X2186080Y2203760D02*
X2166080Y2183760D01*
X2169212Y3091605D02*
X2189212Y3071605D01*
X2189212Y3091605D02*
X2169212Y3071605D01*
X2195176Y2803955D02*
X2215176Y2783955D01*
X2215176Y2803955D02*
X2195176Y2783955D01*
X2199000Y4882000D02*
X2219000Y4862000D01*
X2219000Y4882000D02*
X2199000Y4862000D01*
X2204381Y3140229D02*
X2224381Y3120229D01*
X2224381Y3140229D02*
X2204381Y3120229D01*
X2213080Y2178760D02*
X2233080Y2158760D01*
X2233080Y2178760D02*
X2213080Y2158760D01*
X2213306Y4187451D02*
X2233306Y4167451D01*
X2233306Y4187451D02*
X2213306Y4167451D01*
X2213914Y4632650D02*
X2233914Y4612650D01*
X2233914Y4632650D02*
X2213914Y4612650D01*
X2214780Y3718082D02*
X2234780Y3698082D01*
X2234780Y3718082D02*
X2214780Y3698082D01*
X2223580Y2335082D02*
X2243580Y2315082D01*
X2243580Y2335082D02*
X2223580Y2315082D01*
X2228545Y3008702D02*
X2248545Y2988702D01*
X2248545Y3008702D02*
X2228545Y2988702D01*
X2229515Y2583147D02*
X2249515Y2563147D01*
X2249515Y2583147D02*
X2229515Y2563147D01*
X2232459Y2532021D02*
X2252459Y2512021D01*
X2252459Y2532021D02*
X2232459Y2512021D01*
X2233280Y3873582D02*
X2253280Y3853582D01*
X2253280Y3873582D02*
X2233280Y3853582D01*
X2233614Y3633862D02*
X2253614Y3613862D01*
X2253614Y3633862D02*
X2233614Y3613862D01*
X2235138Y4355222D02*
X2255138Y4335222D01*
X2255138Y4355222D02*
X2235138Y4335222D01*
X2236000Y2728000D02*
X2256000Y2708000D01*
X2256000Y2728000D02*
X2236000Y2708000D01*
X2238080Y2645760D02*
X2258080Y2625760D01*
X2258080Y2645760D02*
X2238080Y2625760D01*
X2240370Y2265146D02*
X2260370Y2245146D01*
X2260370Y2265146D02*
X2240370Y2245146D01*
X2244000Y5093000D02*
X2264000Y5073000D01*
X2264000Y5093000D02*
X2244000Y5073000D01*
X2244698Y1760976D02*
X2264698Y1740976D01*
X2264698Y1760976D02*
X2244698Y1740976D01*
X2247780Y2807082D02*
X2267780Y2787082D01*
X2267780Y2807082D02*
X2247780Y2787082D01*
X2274280Y2990482D02*
X2294280Y2970482D01*
X2294280Y2990482D02*
X2274280Y2970482D01*
X2290080Y1420760D02*
X2310080Y1400760D01*
X2310080Y1420760D02*
X2290080Y1400760D01*
X2296080Y1944760D02*
X2316080Y1924760D01*
X2316080Y1944760D02*
X2296080Y1924760D01*
X2305354Y3634938D02*
X2325354Y3614938D01*
X2325354Y3634938D02*
X2305354Y3614938D01*
X2306000Y4852000D02*
X2326000Y4832000D01*
X2326000Y4852000D02*
X2306000Y4832000D01*
X2307080Y4585082D02*
X2327080Y4565082D01*
X2327080Y4585082D02*
X2307080Y4565082D01*
X2308580Y3080260D02*
X2328580Y3060260D01*
X2328580Y3080260D02*
X2308580Y3060260D01*
X2321580Y3883182D02*
X2341580Y3863182D01*
X2341580Y3883182D02*
X2321580Y3863182D01*
X2322514Y3260228D02*
X2342514Y3240228D01*
X2342514Y3260228D02*
X2322514Y3240228D01*
X2322514Y3200538D02*
X2342514Y3180538D01*
X2342514Y3200538D02*
X2322514Y3180538D01*
X2326070Y4350904D02*
X2346070Y4330904D01*
X2346070Y4350904D02*
X2326070Y4330904D01*
X2327580Y4160260D02*
X2347580Y4140260D01*
X2347580Y4160260D02*
X2327580Y4140260D01*
X2328080Y3503082D02*
X2348080Y3483082D01*
X2348080Y3503082D02*
X2328080Y3483082D01*
X2328580Y3992260D02*
X2348580Y3972260D01*
X2348580Y3992260D02*
X2328580Y3972260D01*
X2329880Y4232540D02*
X2349880Y4212540D01*
X2349880Y4232540D02*
X2329880Y4212540D01*
X2330060Y3349466D02*
X2350060Y3329466D01*
X2350060Y3349466D02*
X2330060Y3329466D01*
X2330080Y3446082D02*
X2350080Y3426082D01*
X2350080Y3446082D02*
X2330080Y3426082D01*
X2331580Y4074260D02*
X2351580Y4054260D01*
X2351580Y4074260D02*
X2331580Y4054260D01*
X2346630Y1485344D02*
X2366630Y1465344D01*
X2366630Y1485344D02*
X2346630Y1465344D01*
X2351861Y4878110D02*
X2371861Y4858110D01*
X2371861Y4878110D02*
X2351861Y4858110D01*
X2360380Y2998682D02*
X2380380Y2978682D01*
X2380380Y2998682D02*
X2360380Y2978682D01*
X2367580Y4120260D02*
X2387580Y4100260D01*
X2387580Y4120260D02*
X2367580Y4100260D01*
X2380298Y4482522D02*
X2400298Y4462522D01*
X2400298Y4482522D02*
X2380298Y4462522D01*
X2396000Y4915000D02*
X2416000Y4895000D01*
X2416000Y4915000D02*
X2396000Y4895000D01*
X2407080Y2013082D02*
X2427080Y1993082D01*
X2427080Y2013082D02*
X2407080Y1993082D01*
X2416080Y3606082D02*
X2436080Y3586082D01*
X2436080Y3606082D02*
X2416080Y3586082D01*
X2423780Y3063482D02*
X2443780Y3043482D01*
X2443780Y3063482D02*
X2423780Y3043482D01*
X2429866Y4027548D02*
X2449866Y4007548D01*
X2449866Y4027548D02*
X2429866Y4007548D01*
X2436080Y2643225D02*
X2456080Y2623225D01*
X2456080Y2643225D02*
X2436080Y2623225D01*
X2436080Y1943760D02*
X2456080Y1923760D01*
X2456080Y1943760D02*
X2436080Y1923760D01*
X2438030Y2969014D02*
X2458030Y2949014D01*
X2458030Y2969014D02*
X2438030Y2949014D01*
X2442880Y2807082D02*
X2462880Y2787082D01*
X2462880Y2807082D02*
X2442880Y2787082D01*
X2444080Y5126760D02*
X2464080Y5106760D01*
X2464080Y5126760D02*
X2444080Y5106760D01*
X2445080Y435075D02*
X2465080Y415075D01*
X2465080Y435075D02*
X2445080Y415075D01*
X2446580Y4384582D02*
X2466580Y4364582D01*
X2466580Y4384582D02*
X2446580Y4364582D01*
X2451318Y4278320D02*
X2471318Y4258320D01*
X2471318Y4278320D02*
X2451318Y4258320D01*
X2455548Y4183614D02*
X2475548Y4163614D01*
X2475548Y4183614D02*
X2455548Y4163614D01*
X2465000Y66000D02*
X2485000Y46000D01*
X2485000Y66000D02*
X2465000Y46000D01*
X2481892Y2228260D02*
X2501892Y2208260D01*
X2501892Y2228260D02*
X2481892Y2208260D01*
X2484080Y389760D02*
X2504080Y369760D01*
X2504080Y389760D02*
X2484080Y369760D01*
X2502080Y3319760D02*
X2522080Y3299760D01*
X2522080Y3319760D02*
X2502080Y3299760D01*
X2505063Y2685294D02*
X2525063Y2665294D01*
X2525063Y2685294D02*
X2505063Y2665294D01*
X2528080Y422760D02*
X2548080Y402760D01*
X2548080Y422760D02*
X2528080Y402760D01*
X2543080Y2169760D02*
X2563080Y2149760D01*
X2563080Y2169760D02*
X2543080Y2149760D01*
X2595000Y616410D02*
X2615000Y596410D01*
X2615000Y616410D02*
X2595000Y596410D01*
X2628551Y2634225D02*
X2648551Y2614225D01*
X2648551Y2634225D02*
X2628551Y2614225D01*
X2647809Y616410D02*
X2667809Y596410D01*
X2667809Y616410D02*
X2647809Y596410D01*
X2661080Y4705760D02*
X2681080Y4685760D01*
X2681080Y4705760D02*
X2661080Y4685760D01*
X2664080Y4278082D02*
X2684080Y4258082D01*
X2684080Y4278082D02*
X2664080Y4258082D01*
X2674080Y4076760D02*
X2694080Y4056760D01*
X2694080Y4076760D02*
X2674080Y4056760D01*
X2694477Y2611863D02*
X2714477Y2591863D01*
X2714477Y2611863D02*
X2694477Y2591863D01*
X2704000Y5382000D02*
X2724000Y5362000D01*
X2724000Y5382000D02*
X2704000Y5362000D01*
X2705765Y2941760D02*
X2725765Y2921760D01*
X2725765Y2941760D02*
X2705765Y2921760D01*
X2711106Y613607D02*
X2731106Y593607D01*
X2731106Y613607D02*
X2711106Y593607D01*
X2725080Y350000D02*
X2745080Y330000D01*
X2745080Y350000D02*
X2725080Y330000D01*
X2758080Y5121760D02*
X2778080Y5101760D01*
X2778080Y5121760D02*
X2758080Y5101760D01*
X2767080Y1918760D02*
X2787080Y1898760D01*
X2787080Y1918760D02*
X2767080Y1898760D01*
X2769080Y307000D02*
X2789080Y287000D01*
X2789080Y307000D02*
X2769080Y287000D01*
X2775000Y602000D02*
X2795000Y582000D01*
X2795000Y602000D02*
X2775000Y582000D01*
X2777018Y2259784D02*
X2797018Y2239784D01*
X2797018Y2259784D02*
X2777018Y2239784D01*
X2780255Y2569466D02*
X2800255Y2549466D01*
X2800255Y2569466D02*
X2780255Y2549466D01*
X2790834Y2206760D02*
X2810834Y2186760D01*
X2810834Y2206760D02*
X2790834Y2186760D01*
X2794080Y2128760D02*
X2814080Y2108760D01*
X2814080Y2128760D02*
X2794080Y2108760D01*
X2846330Y5359000D02*
X2866330Y5339000D01*
X2866330Y5359000D02*
X2846330Y5339000D01*
X2857095Y4847884D02*
X2877095Y4827884D01*
X2877095Y4847884D02*
X2857095Y4827884D01*
X2878128Y5134718D02*
X2898128Y5114718D01*
X2898128Y5134718D02*
X2878128Y5114718D01*
X2893076Y2256801D02*
X2913076Y2236801D01*
X2913076Y2256801D02*
X2893076Y2236801D01*
X2910080Y4873760D02*
X2930080Y4853760D01*
X2930080Y4873760D02*
X2910080Y4853760D01*
X2927128Y5130000D02*
X2947128Y5110000D01*
X2947128Y5130000D02*
X2927128Y5110000D01*
X2928000Y2614760D02*
X2948000Y2594760D01*
X2948000Y2614760D02*
X2928000Y2594760D01*
X2957000Y2527000D02*
X2977000Y2507000D01*
X2977000Y2527000D02*
X2957000Y2507000D01*
X2957080Y4850760D02*
X2977080Y4830760D01*
X2977080Y4850760D02*
X2957080Y4830760D01*
X2971395Y2849760D02*
X2991395Y2829760D01*
X2991395Y2849760D02*
X2971395Y2829760D01*
X2975000Y2741000D02*
X2995000Y2721000D01*
X2995000Y2741000D02*
X2975000Y2721000D01*
X2978056Y2604989D02*
X2998056Y2584989D01*
X2998056Y2604989D02*
X2978056Y2584989D01*
X2982080Y2792760D02*
X3002080Y2772760D01*
X3002080Y2792760D02*
X2982080Y2772760D01*
X2985000Y5360000D02*
X3005000Y5340000D01*
X3005000Y5360000D02*
X2985000Y5340000D01*
X2987000Y1899000D02*
X3007000Y1879000D01*
X3007000Y1899000D02*
X2987000Y1879000D01*
X3004000Y2555000D02*
X3024000Y2535000D01*
X3024000Y2555000D02*
X3004000Y2535000D01*
X3005000Y2319000D02*
X3025000Y2299000D01*
X3025000Y2319000D02*
X3005000Y2299000D01*
X3018080Y4846760D02*
X3038080Y4826760D01*
X3038080Y4846760D02*
X3018080Y4826760D01*
X3079080Y4842760D02*
X3099080Y4822760D01*
X3099080Y4842760D02*
X3079080Y4822760D01*
X3104634Y3706860D02*
X3124634Y3686860D01*
X3124634Y3706860D02*
X3104634Y3686860D01*
X3114080Y4067760D02*
X3134080Y4047760D01*
X3134080Y4067760D02*
X3114080Y4047760D01*
X3146080Y4854760D02*
X3166080Y4834760D01*
X3166080Y4854760D02*
X3146080Y4834760D01*
X3170000Y2528000D02*
X3190000Y2508000D01*
X3190000Y2528000D02*
X3170000Y2508000D01*
X3177000Y2407000D02*
X3197000Y2387000D01*
X3197000Y2407000D02*
X3177000Y2387000D01*
X3244000Y4867000D02*
X3264000Y4847000D01*
X3264000Y4867000D02*
X3244000Y4847000D01*
X3293634Y3521760D02*
X3313634Y3501760D01*
X3313634Y3521760D02*
X3293634Y3501760D01*
X3308080Y3941760D02*
X3328080Y3921760D01*
X3328080Y3941760D02*
X3308080Y3921760D01*
X3358634Y3298760D02*
X3378634Y3278760D01*
X3378634Y3298760D02*
X3358634Y3278760D01*
X3368080Y4075760D02*
X3388080Y4055760D01*
X3388080Y4075760D02*
X3368080Y4055760D01*
X3391250Y1494250D02*
X3411250Y1474250D01*
X3411250Y1494250D02*
X3391250Y1474250D01*
X3406500Y1704000D02*
X3426500Y1684000D01*
X3426500Y1704000D02*
X3406500Y1684000D01*
X3417000Y2652000D02*
X3437000Y2632000D01*
X3437000Y2652000D02*
X3417000Y2632000D01*
X3432634Y3335860D02*
X3452634Y3315860D01*
X3452634Y3335860D02*
X3432634Y3315860D01*
X3433334Y3206360D02*
X3453334Y3186360D01*
X3453334Y3206360D02*
X3433334Y3186360D01*
X3515000Y2195000D02*
X3535000Y2175000D01*
X3535000Y2195000D02*
X3515000Y2175000D01*
X3523000Y1799000D02*
X3543000Y1779000D01*
X3543000Y1799000D02*
X3523000Y1779000D01*
X3556634Y3337960D02*
X3576634Y3317960D01*
X3576634Y3337960D02*
X3556634Y3317960D01*
X3564034Y3205460D02*
X3584034Y3185460D01*
X3584034Y3205460D02*
X3564034Y3185460D01*
X3592080Y4191860D02*
X3612080Y4171860D01*
X3612080Y4191860D02*
X3592080Y4171860D01*
X3593000Y4534000D02*
X3613000Y4514000D01*
X3613000Y4534000D02*
X3593000Y4514000D01*
X3602000Y1379000D02*
X3622000Y1359000D01*
X3622000Y1379000D02*
X3602000Y1359000D01*
X3606000Y2720000D02*
X3626000Y2700000D01*
X3626000Y2720000D02*
X3606000Y2700000D01*
X3618879Y2480037D02*
X3638879Y2460037D01*
X3638879Y2480037D02*
X3618879Y2460037D01*
X3627080Y4394760D02*
X3647080Y4374760D01*
X3647080Y4394760D02*
X3627080Y4374760D01*
X3664080Y3820760D02*
X3684080Y3800760D01*
X3684080Y3820760D02*
X3664080Y3800760D01*
X3710656Y4112709D02*
X3730656Y4092709D01*
X3730656Y4112709D02*
X3710656Y4092709D01*
X3842000Y2508000D02*
X3862000Y2488000D01*
X3862000Y2508000D02*
X3842000Y2488000D01*
X3846000Y1106000D02*
X3866000Y1086000D01*
X3866000Y1106000D02*
X3846000Y1086000D01*
X3847569Y2454584D02*
X3867569Y2434584D01*
X3867569Y2454584D02*
X3847569Y2434584D01*
X3470733Y3641560D02*
G75*
G02*
X3440733Y3641560I-15000J0D01*
G01*
X3440733Y3641560D02*
G75*
G02*
X3470733Y3641560I15000J0D01*
G01*
X3334000Y2884000D02*
X3334000Y2824000D01*
X3304000Y2854000D02*
X3364000Y2854000D01*
X3374000Y2884000D02*
X3294000Y2884000D01*
X3294000Y2824000D02*
G75*
G02*
X3294000Y2884000I0J30000D01*
G01*
X3294000Y2824000D02*
X3374000Y2824000D01*
X3374000Y2824000D02*
G75*
G03*
X3374000Y2884000I0J30000D01*
G01*
X3334000Y2020000D02*
X3334000Y1960000D01*
X3304000Y1990000D02*
X3364000Y1990000D01*
X3374000Y2020000D02*
X3294000Y2020000D01*
X3294000Y1960000D02*
G75*
G02*
X3294000Y2020000I0J30000D01*
G01*
X3294000Y1960000D02*
X3374000Y1960000D01*
X3374000Y1960000D02*
G75*
G03*
X3374000Y2020000I0J30000D01*
G01*
X3734000Y2884000D02*
X3734000Y2824000D01*
X3704000Y2854000D02*
X3764000Y2854000D01*
X3794000Y2884000D02*
X3674000Y2884000D01*
X3674000Y2824000D02*
G75*
G02*
X3674000Y2884000I0J30000D01*
G01*
X3674000Y2824000D02*
X3794000Y2824000D01*
X3794000Y2824000D02*
G75*
G03*
X3794000Y2884000I0J30000D01*
G01*
X3734000Y2020000D02*
X3734000Y1960000D01*
X3704000Y1990000D02*
X3764000Y1990000D01*
X3794000Y2020000D02*
X3674000Y2020000D01*
X3674000Y1960000D02*
G75*
G02*
X3674000Y2020000I0J30000D01*
G01*
X3674000Y1960000D02*
X3794000Y1960000D01*
X3794000Y1960000D02*
G75*
G03*
X3794000Y2020000I0J30000D01*
G01*
X3341820Y5434180D02*
X3341820Y5497820D01*
X3278180Y5497820D01*
X3278180Y5434180D01*
X3341820Y5434180D01*
X3341820Y5180180D02*
X3341820Y5243820D01*
X3278180Y5243820D01*
X3278180Y5180180D01*
X3341820Y5180180D01*
X149080Y3352760D02*
X199080Y3402760D01*
X149080Y3452760D01*
X99080Y3402760D01*
X149080Y3352760D01*
X149080Y3098760D02*
X199080Y3148760D01*
X149080Y3198760D01*
X99080Y3148760D01*
X149080Y3098760D01*
X149080Y2844760D02*
X199080Y2894760D01*
X149080Y2944760D01*
X99080Y2894760D01*
X149080Y2844760D01*
X149080Y2590760D02*
X199080Y2640760D01*
X149080Y2690760D01*
X99080Y2640760D01*
X149080Y2590760D01*
X403080Y3352760D02*
X453080Y3402760D01*
X403080Y3452760D01*
X353080Y3402760D01*
X403080Y3352760D01*
X403080Y3098760D02*
X453080Y3148760D01*
X403080Y3198760D01*
X353080Y3148760D01*
X403080Y3098760D01*
X403080Y2844760D02*
X453080Y2894760D01*
X403080Y2944760D01*
X353080Y2894760D01*
X403080Y2844760D01*
X403080Y2590760D02*
X453080Y2640760D01*
X403080Y2690760D01*
X353080Y2640760D01*
X403080Y2590760D01*
D11*
X258277Y-373984D02*
X258277Y-173984D01*
X258277Y-173984D02*
X305896Y-173984D01*
X305896Y-173984D02*
X334467Y-183508D01*
X334467Y-183508D02*
X353515Y-202555D01*
X353515Y-202555D02*
X363039Y-221603D01*
X363039Y-221603D02*
X372562Y-259698D01*
X372562Y-259698D02*
X372562Y-288270D01*
X372562Y-288270D02*
X363039Y-326365D01*
X363039Y-326365D02*
X353515Y-345412D01*
X353515Y-345412D02*
X334467Y-364460D01*
X334467Y-364460D02*
X305896Y-373984D01*
X305896Y-373984D02*
X258277Y-373984D01*
X458277Y-373984D02*
X458277Y-240650D01*
X458277Y-278746D02*
X467801Y-259698D01*
X467801Y-259698D02*
X477324Y-250174D01*
X477324Y-250174D02*
X496372Y-240650D01*
X496372Y-240650D02*
X515420Y-240650D01*
X582086Y-373984D02*
X582086Y-240650D01*
X582086Y-173984D02*
X572563Y-183508D01*
X572563Y-183508D02*
X582086Y-193031D01*
X582086Y-193031D02*
X591610Y-183508D01*
X591610Y-183508D02*
X582086Y-173984D01*
X582086Y-173984D02*
X582086Y-193031D01*
X705896Y-373984D02*
X686848Y-364460D01*
X686848Y-364460D02*
X677324Y-345412D01*
X677324Y-345412D02*
X677324Y-173984D01*
X810658Y-373984D02*
X791610Y-364460D01*
X791610Y-364460D02*
X782086Y-345412D01*
X782086Y-345412D02*
X782086Y-173984D01*
X1039229Y-373984D02*
X1039229Y-173984D01*
X1039229Y-173984D02*
X1105896Y-316841D01*
X1105896Y-316841D02*
X1172563Y-173984D01*
X1172563Y-173984D02*
X1172563Y-373984D01*
X1353515Y-373984D02*
X1353515Y-269222D01*
X1353515Y-269222D02*
X1343991Y-250174D01*
X1343991Y-250174D02*
X1324944Y-240650D01*
X1324944Y-240650D02*
X1286848Y-240650D01*
X1286848Y-240650D02*
X1267801Y-250174D01*
X1353515Y-364460D02*
X1334467Y-373984D01*
X1334467Y-373984D02*
X1286848Y-373984D01*
X1286848Y-373984D02*
X1267801Y-364460D01*
X1267801Y-364460D02*
X1258277Y-345412D01*
X1258277Y-345412D02*
X1258277Y-326365D01*
X1258277Y-326365D02*
X1267801Y-307317D01*
X1267801Y-307317D02*
X1286848Y-297793D01*
X1286848Y-297793D02*
X1334467Y-297793D01*
X1334467Y-297793D02*
X1353515Y-288270D01*
X1448753Y-240650D02*
X1448753Y-440650D01*
X1448753Y-250174D02*
X1467801Y-240650D01*
X1467801Y-240650D02*
X1505896Y-240650D01*
X1505896Y-240650D02*
X1524943Y-250174D01*
X1524943Y-250174D02*
X1534467Y-259698D01*
X1534467Y-259698D02*
X1543991Y-278746D01*
X1543991Y-278746D02*
X1543991Y-335889D01*
X1543991Y-335889D02*
X1534467Y-354936D01*
X1534467Y-354936D02*
X1524943Y-364460D01*
X1524943Y-364460D02*
X1505896Y-373984D01*
X1505896Y-373984D02*
X1467801Y-373984D01*
X1467801Y-373984D02*
X1448753Y-364460D01*
X1629705Y-354936D02*
X1639229Y-364460D01*
X1639229Y-364460D02*
X1629705Y-373984D01*
X1629705Y-373984D02*
X1620182Y-364460D01*
X1620182Y-364460D02*
X1629705Y-354936D01*
X1629705Y-354936D02*
X1629705Y-373984D01*
X1629705Y-250174D02*
X1639229Y-259698D01*
X1639229Y-259698D02*
X1629705Y-269222D01*
X1629705Y-269222D02*
X1620182Y-259698D01*
X1620182Y-259698D02*
X1629705Y-250174D01*
X1629705Y-250174D02*
X1629705Y-269222D01*
D12*
X-22500Y-692500D02*
X-2500Y-712500D01*
X-2500Y-692500D02*
X-22500Y-712500D01*
D11*
X296372Y-593984D02*
X315420Y-593984D01*
X315420Y-593984D02*
X334467Y-603508D01*
X334467Y-603508D02*
X343991Y-613031D01*
X343991Y-613031D02*
X353515Y-632079D01*
X353515Y-632079D02*
X363039Y-670174D01*
X363039Y-670174D02*
X363039Y-717793D01*
X363039Y-717793D02*
X353515Y-755888D01*
X353515Y-755888D02*
X343991Y-774936D01*
X343991Y-774936D02*
X334467Y-784460D01*
X334467Y-784460D02*
X315420Y-793984D01*
X315420Y-793984D02*
X296372Y-793984D01*
X296372Y-793984D02*
X277324Y-784460D01*
X277324Y-784460D02*
X267801Y-774936D01*
X267801Y-774936D02*
X258277Y-755888D01*
X258277Y-755888D02*
X248753Y-717793D01*
X248753Y-717793D02*
X248753Y-670174D01*
X248753Y-670174D02*
X258277Y-632079D01*
X258277Y-632079D02*
X267801Y-613031D01*
X267801Y-613031D02*
X277324Y-603508D01*
X277324Y-603508D02*
X296372Y-593984D01*
X448753Y-774936D02*
X458277Y-784460D01*
X458277Y-784460D02*
X448753Y-793984D01*
X448753Y-793984D02*
X439229Y-784460D01*
X439229Y-784460D02*
X448753Y-774936D01*
X448753Y-774936D02*
X448753Y-793984D01*
X534467Y-613031D02*
X543991Y-603508D01*
X543991Y-603508D02*
X563039Y-593984D01*
X563039Y-593984D02*
X610658Y-593984D01*
X610658Y-593984D02*
X629705Y-603508D01*
X629705Y-603508D02*
X639229Y-613031D01*
X639229Y-613031D02*
X648753Y-632079D01*
X648753Y-632079D02*
X648753Y-651127D01*
X648753Y-651127D02*
X639229Y-679698D01*
X639229Y-679698D02*
X524944Y-793984D01*
X524944Y-793984D02*
X648753Y-793984D01*
X772562Y-593984D02*
X791610Y-593984D01*
X791610Y-593984D02*
X810658Y-603508D01*
X810658Y-603508D02*
X820182Y-613031D01*
X820182Y-613031D02*
X829705Y-632079D01*
X829705Y-632079D02*
X839229Y-670174D01*
X839229Y-670174D02*
X839229Y-717793D01*
X839229Y-717793D02*
X829705Y-755888D01*
X829705Y-755888D02*
X820182Y-774936D01*
X820182Y-774936D02*
X810658Y-784460D01*
X810658Y-784460D02*
X791610Y-793984D01*
X791610Y-793984D02*
X772562Y-793984D01*
X772562Y-793984D02*
X753515Y-784460D01*
X753515Y-784460D02*
X743991Y-774936D01*
X743991Y-774936D02*
X734467Y-755888D01*
X734467Y-755888D02*
X724943Y-717793D01*
X724943Y-717793D02*
X724943Y-670174D01*
X724943Y-670174D02*
X734467Y-632079D01*
X734467Y-632079D02*
X743991Y-613031D01*
X743991Y-613031D02*
X753515Y-603508D01*
X753515Y-603508D02*
X772562Y-593984D01*
X963039Y-593984D02*
X982086Y-593984D01*
X982086Y-593984D02*
X1001134Y-603508D01*
X1001134Y-603508D02*
X1010658Y-613031D01*
X1010658Y-613031D02*
X1020182Y-632079D01*
X1020182Y-632079D02*
X1029705Y-670174D01*
X1029705Y-670174D02*
X1029705Y-717793D01*
X1029705Y-717793D02*
X1020182Y-755888D01*
X1020182Y-755888D02*
X1010658Y-774936D01*
X1010658Y-774936D02*
X1001134Y-784460D01*
X1001134Y-784460D02*
X982086Y-793984D01*
X982086Y-793984D02*
X963039Y-793984D01*
X963039Y-793984D02*
X943991Y-784460D01*
X943991Y-784460D02*
X934467Y-774936D01*
X934467Y-774936D02*
X924943Y-755888D01*
X924943Y-755888D02*
X915420Y-717793D01*
X915420Y-717793D02*
X915420Y-670174D01*
X915420Y-670174D02*
X924943Y-632079D01*
X924943Y-632079D02*
X934467Y-613031D01*
X934467Y-613031D02*
X943991Y-603508D01*
X943991Y-603508D02*
X963039Y-593984D01*
X1115420Y-793984D02*
X1115420Y-660650D01*
X1115420Y-679698D02*
X1124944Y-670174D01*
X1124944Y-670174D02*
X1143991Y-660650D01*
X1143991Y-660650D02*
X1172563Y-660650D01*
X1172563Y-660650D02*
X1191610Y-670174D01*
X1191610Y-670174D02*
X1201134Y-689222D01*
X1201134Y-689222D02*
X1201134Y-793984D01*
X1201134Y-689222D02*
X1210658Y-670174D01*
X1210658Y-670174D02*
X1229705Y-660650D01*
X1229705Y-660650D02*
X1258277Y-660650D01*
X1258277Y-660650D02*
X1277325Y-670174D01*
X1277325Y-670174D02*
X1286848Y-689222D01*
X1286848Y-689222D02*
X1286848Y-793984D01*
X1382086Y-793984D02*
X1382086Y-660650D01*
X1382086Y-679698D02*
X1391610Y-670174D01*
X1391610Y-670174D02*
X1410658Y-660650D01*
X1410658Y-660650D02*
X1439229Y-660650D01*
X1439229Y-660650D02*
X1458277Y-670174D01*
X1458277Y-670174D02*
X1467801Y-689222D01*
X1467801Y-689222D02*
X1467801Y-793984D01*
X1467801Y-689222D02*
X1477324Y-670174D01*
X1477324Y-670174D02*
X1496372Y-660650D01*
X1496372Y-660650D02*
X1524943Y-660650D01*
X1524943Y-660650D02*
X1543991Y-670174D01*
X1543991Y-670174D02*
X1553515Y-689222D01*
X1553515Y-689222D02*
X1553515Y-793984D01*
X1943991Y-584460D02*
X1772563Y-841603D01*
X2201134Y-593984D02*
X2220182Y-593984D01*
X2220182Y-593984D02*
X2239229Y-603508D01*
X2239229Y-603508D02*
X2248753Y-613031D01*
X2248753Y-613031D02*
X2258277Y-632079D01*
X2258277Y-632079D02*
X2267801Y-670174D01*
X2267801Y-670174D02*
X2267801Y-717793D01*
X2267801Y-717793D02*
X2258277Y-755888D01*
X2258277Y-755888D02*
X2248753Y-774936D01*
X2248753Y-774936D02*
X2239229Y-784460D01*
X2239229Y-784460D02*
X2220182Y-793984D01*
X2220182Y-793984D02*
X2201134Y-793984D01*
X2201134Y-793984D02*
X2182087Y-784460D01*
X2182087Y-784460D02*
X2172563Y-774936D01*
X2172563Y-774936D02*
X2163039Y-755888D01*
X2163039Y-755888D02*
X2153515Y-717793D01*
X2153515Y-717793D02*
X2153515Y-670174D01*
X2153515Y-670174D02*
X2163039Y-632079D01*
X2163039Y-632079D02*
X2172563Y-613031D01*
X2172563Y-613031D02*
X2182087Y-603508D01*
X2182087Y-603508D02*
X2201134Y-593984D01*
X2353515Y-774936D02*
X2363039Y-784460D01*
X2363039Y-784460D02*
X2353515Y-793984D01*
X2353515Y-793984D02*
X2343991Y-784460D01*
X2343991Y-784460D02*
X2353515Y-774936D01*
X2353515Y-774936D02*
X2353515Y-793984D01*
X2486848Y-593984D02*
X2505896Y-593984D01*
X2505896Y-593984D02*
X2524944Y-603508D01*
X2524944Y-603508D02*
X2534468Y-613031D01*
X2534468Y-613031D02*
X2543991Y-632079D01*
X2543991Y-632079D02*
X2553515Y-670174D01*
X2553515Y-670174D02*
X2553515Y-717793D01*
X2553515Y-717793D02*
X2543991Y-755888D01*
X2543991Y-755888D02*
X2534468Y-774936D01*
X2534468Y-774936D02*
X2524944Y-784460D01*
X2524944Y-784460D02*
X2505896Y-793984D01*
X2505896Y-793984D02*
X2486848Y-793984D01*
X2486848Y-793984D02*
X2467801Y-784460D01*
X2467801Y-784460D02*
X2458277Y-774936D01*
X2458277Y-774936D02*
X2448753Y-755888D01*
X2448753Y-755888D02*
X2439229Y-717793D01*
X2439229Y-717793D02*
X2439229Y-670174D01*
X2439229Y-670174D02*
X2448753Y-632079D01*
X2448753Y-632079D02*
X2458277Y-613031D01*
X2458277Y-613031D02*
X2467801Y-603508D01*
X2467801Y-603508D02*
X2486848Y-593984D01*
X2677325Y-593984D02*
X2696372Y-593984D01*
X2696372Y-593984D02*
X2715420Y-603508D01*
X2715420Y-603508D02*
X2724944Y-613031D01*
X2724944Y-613031D02*
X2734468Y-632079D01*
X2734468Y-632079D02*
X2743991Y-670174D01*
X2743991Y-670174D02*
X2743991Y-717793D01*
X2743991Y-717793D02*
X2734468Y-755888D01*
X2734468Y-755888D02*
X2724944Y-774936D01*
X2724944Y-774936D02*
X2715420Y-784460D01*
X2715420Y-784460D02*
X2696372Y-793984D01*
X2696372Y-793984D02*
X2677325Y-793984D01*
X2677325Y-793984D02*
X2658277Y-784460D01*
X2658277Y-784460D02*
X2648753Y-774936D01*
X2648753Y-774936D02*
X2639229Y-755888D01*
X2639229Y-755888D02*
X2629706Y-717793D01*
X2629706Y-717793D02*
X2629706Y-670174D01*
X2629706Y-670174D02*
X2639229Y-632079D01*
X2639229Y-632079D02*
X2648753Y-613031D01*
X2648753Y-613031D02*
X2658277Y-603508D01*
X2658277Y-603508D02*
X2677325Y-593984D01*
X2810658Y-593984D02*
X2943991Y-593984D01*
X2943991Y-593984D02*
X2858277Y-793984D01*
X3029706Y-793984D02*
X3067801Y-793984D01*
X3067801Y-793984D02*
X3086848Y-784460D01*
X3086848Y-784460D02*
X3096372Y-774936D01*
X3096372Y-774936D02*
X3115420Y-746365D01*
X3115420Y-746365D02*
X3124944Y-708269D01*
X3124944Y-708269D02*
X3124944Y-632079D01*
X3124944Y-632079D02*
X3115420Y-613031D01*
X3115420Y-613031D02*
X3105896Y-603508D01*
X3105896Y-603508D02*
X3086848Y-593984D01*
X3086848Y-593984D02*
X3048753Y-593984D01*
X3048753Y-593984D02*
X3029706Y-603508D01*
X3029706Y-603508D02*
X3020182Y-613031D01*
X3020182Y-613031D02*
X3010658Y-632079D01*
X3010658Y-632079D02*
X3010658Y-679698D01*
X3010658Y-679698D02*
X3020182Y-698746D01*
X3020182Y-698746D02*
X3029706Y-708269D01*
X3029706Y-708269D02*
X3048753Y-717793D01*
X3048753Y-717793D02*
X3086848Y-717793D01*
X3086848Y-717793D02*
X3105896Y-708269D01*
X3105896Y-708269D02*
X3115420Y-698746D01*
X3115420Y-698746D02*
X3124944Y-679698D01*
X3201134Y-593984D02*
X3201134Y-632079D01*
X3277325Y-593984D02*
X3277325Y-632079D01*
X3572563Y-870174D02*
X3563039Y-860650D01*
X3563039Y-860650D02*
X3543991Y-832079D01*
X3543991Y-832079D02*
X3534468Y-813031D01*
X3534468Y-813031D02*
X3524944Y-784460D01*
X3524944Y-784460D02*
X3515420Y-736841D01*
X3515420Y-736841D02*
X3515420Y-698746D01*
X3515420Y-698746D02*
X3524944Y-651127D01*
X3524944Y-651127D02*
X3534468Y-622555D01*
X3534468Y-622555D02*
X3543991Y-603508D01*
X3543991Y-603508D02*
X3563039Y-574936D01*
X3563039Y-574936D02*
X3572563Y-565412D01*
X3629706Y-593984D02*
X3753515Y-593984D01*
X3753515Y-593984D02*
X3686848Y-670174D01*
X3686848Y-670174D02*
X3715420Y-670174D01*
X3715420Y-670174D02*
X3734468Y-679698D01*
X3734468Y-679698D02*
X3743991Y-689222D01*
X3743991Y-689222D02*
X3753515Y-708269D01*
X3753515Y-708269D02*
X3753515Y-755888D01*
X3753515Y-755888D02*
X3743991Y-774936D01*
X3743991Y-774936D02*
X3734468Y-784460D01*
X3734468Y-784460D02*
X3715420Y-793984D01*
X3715420Y-793984D02*
X3658277Y-793984D01*
X3658277Y-793984D02*
X3639229Y-784460D01*
X3639229Y-784460D02*
X3629706Y-774936D01*
X3829706Y-613031D02*
X3839229Y-603508D01*
X3839229Y-603508D02*
X3858277Y-593984D01*
X3858277Y-593984D02*
X3905896Y-593984D01*
X3905896Y-593984D02*
X3924944Y-603508D01*
X3924944Y-603508D02*
X3934468Y-613031D01*
X3934468Y-613031D02*
X3943991Y-632079D01*
X3943991Y-632079D02*
X3943991Y-651127D01*
X3943991Y-651127D02*
X3934468Y-679698D01*
X3934468Y-679698D02*
X3820182Y-793984D01*
X3820182Y-793984D02*
X3943991Y-793984D01*
X4039229Y-793984D02*
X4077325Y-793984D01*
X4077325Y-793984D02*
X4096372Y-784460D01*
X4096372Y-784460D02*
X4105896Y-774936D01*
X4105896Y-774936D02*
X4124944Y-746365D01*
X4124944Y-746365D02*
X4134468Y-708269D01*
X4134468Y-708269D02*
X4134468Y-632079D01*
X4134468Y-632079D02*
X4124944Y-613031D01*
X4124944Y-613031D02*
X4115420Y-603508D01*
X4115420Y-603508D02*
X4096372Y-593984D01*
X4096372Y-593984D02*
X4058277Y-593984D01*
X4058277Y-593984D02*
X4039229Y-603508D01*
X4039229Y-603508D02*
X4029706Y-613031D01*
X4029706Y-613031D02*
X4020182Y-632079D01*
X4020182Y-632079D02*
X4020182Y-679698D01*
X4020182Y-679698D02*
X4029706Y-698746D01*
X4029706Y-698746D02*
X4039229Y-708269D01*
X4039229Y-708269D02*
X4058277Y-717793D01*
X4058277Y-717793D02*
X4096372Y-717793D01*
X4096372Y-717793D02*
X4115420Y-708269D01*
X4115420Y-708269D02*
X4124944Y-698746D01*
X4124944Y-698746D02*
X4134468Y-679698D01*
X4372563Y-793984D02*
X4372563Y-593984D01*
X4458277Y-793984D02*
X4458277Y-689222D01*
X4458277Y-689222D02*
X4448753Y-670174D01*
X4448753Y-670174D02*
X4429706Y-660650D01*
X4429706Y-660650D02*
X4401134Y-660650D01*
X4401134Y-660650D02*
X4382087Y-670174D01*
X4382087Y-670174D02*
X4372563Y-679698D01*
X4582087Y-793984D02*
X4563039Y-784460D01*
X4563039Y-784460D02*
X4553515Y-774936D01*
X4553515Y-774936D02*
X4543992Y-755888D01*
X4543992Y-755888D02*
X4543992Y-698746D01*
X4543992Y-698746D02*
X4553515Y-679698D01*
X4553515Y-679698D02*
X4563039Y-670174D01*
X4563039Y-670174D02*
X4582087Y-660650D01*
X4582087Y-660650D02*
X4610658Y-660650D01*
X4610658Y-660650D02*
X4629706Y-670174D01*
X4629706Y-670174D02*
X4639230Y-679698D01*
X4639230Y-679698D02*
X4648753Y-698746D01*
X4648753Y-698746D02*
X4648753Y-755888D01*
X4648753Y-755888D02*
X4639230Y-774936D01*
X4639230Y-774936D02*
X4629706Y-784460D01*
X4629706Y-784460D02*
X4610658Y-793984D01*
X4610658Y-793984D02*
X4582087Y-793984D01*
X4763039Y-793984D02*
X4743992Y-784460D01*
X4743992Y-784460D02*
X4734468Y-765412D01*
X4734468Y-765412D02*
X4734468Y-593984D01*
X4915420Y-784460D02*
X4896373Y-793984D01*
X4896373Y-793984D02*
X4858277Y-793984D01*
X4858277Y-793984D02*
X4839230Y-784460D01*
X4839230Y-784460D02*
X4829706Y-765412D01*
X4829706Y-765412D02*
X4829706Y-689222D01*
X4829706Y-689222D02*
X4839230Y-670174D01*
X4839230Y-670174D02*
X4858277Y-660650D01*
X4858277Y-660650D02*
X4896373Y-660650D01*
X4896373Y-660650D02*
X4915420Y-670174D01*
X4915420Y-670174D02*
X4924944Y-689222D01*
X4924944Y-689222D02*
X4924944Y-708269D01*
X4924944Y-708269D02*
X4829706Y-727317D01*
X5001134Y-784460D02*
X5020182Y-793984D01*
X5020182Y-793984D02*
X5058277Y-793984D01*
X5058277Y-793984D02*
X5077325Y-784460D01*
X5077325Y-784460D02*
X5086849Y-765412D01*
X5086849Y-765412D02*
X5086849Y-755888D01*
X5086849Y-755888D02*
X5077325Y-736841D01*
X5077325Y-736841D02*
X5058277Y-727317D01*
X5058277Y-727317D02*
X5029706Y-727317D01*
X5029706Y-727317D02*
X5010658Y-717793D01*
X5010658Y-717793D02*
X5001134Y-698746D01*
X5001134Y-698746D02*
X5001134Y-689222D01*
X5001134Y-689222D02*
X5010658Y-670174D01*
X5010658Y-670174D02*
X5029706Y-660650D01*
X5029706Y-660650D02*
X5058277Y-660650D01*
X5058277Y-660650D02*
X5077325Y-670174D01*
X5153515Y-870174D02*
X5163039Y-860650D01*
X5163039Y-860650D02*
X5182087Y-832079D01*
X5182087Y-832079D02*
X5191611Y-813031D01*
X5191611Y-813031D02*
X5201134Y-784460D01*
X5201134Y-784460D02*
X5210658Y-736841D01*
X5210658Y-736841D02*
X5210658Y-698746D01*
X5210658Y-698746D02*
X5201134Y-651127D01*
X5201134Y-651127D02*
X5191611Y-622555D01*
X5191611Y-622555D02*
X5182087Y-603508D01*
X5182087Y-603508D02*
X5163039Y-574936D01*
X5163039Y-574936D02*
X5153515Y-565412D01*
D12*
X-2500Y-966500D02*
G75*
G02*
X-32500Y-966500I-15000J0D01*
G01*
X-32500Y-966500D02*
G75*
G02*
X-2500Y-966500I15000J0D01*
G01*
D11*
X296372Y-857984D02*
X315420Y-857984D01*
X315420Y-857984D02*
X334467Y-867508D01*
X334467Y-867508D02*
X343991Y-877031D01*
X343991Y-877031D02*
X353515Y-896079D01*
X353515Y-896079D02*
X363039Y-934174D01*
X363039Y-934174D02*
X363039Y-981793D01*
X363039Y-981793D02*
X353515Y-1019888D01*
X353515Y-1019888D02*
X343991Y-1038936D01*
X343991Y-1038936D02*
X334467Y-1048460D01*
X334467Y-1048460D02*
X315420Y-1057984D01*
X315420Y-1057984D02*
X296372Y-1057984D01*
X296372Y-1057984D02*
X277324Y-1048460D01*
X277324Y-1048460D02*
X267801Y-1038936D01*
X267801Y-1038936D02*
X258277Y-1019888D01*
X258277Y-1019888D02*
X248753Y-981793D01*
X248753Y-981793D02*
X248753Y-934174D01*
X248753Y-934174D02*
X258277Y-896079D01*
X258277Y-896079D02*
X267801Y-877031D01*
X267801Y-877031D02*
X277324Y-867508D01*
X277324Y-867508D02*
X296372Y-857984D01*
X448753Y-1038936D02*
X458277Y-1048460D01*
X458277Y-1048460D02*
X448753Y-1057984D01*
X448753Y-1057984D02*
X439229Y-1048460D01*
X439229Y-1048460D02*
X448753Y-1038936D01*
X448753Y-1038936D02*
X448753Y-1057984D01*
X524944Y-857984D02*
X648753Y-857984D01*
X648753Y-857984D02*
X582086Y-934174D01*
X582086Y-934174D02*
X610658Y-934174D01*
X610658Y-934174D02*
X629705Y-943698D01*
X629705Y-943698D02*
X639229Y-953222D01*
X639229Y-953222D02*
X648753Y-972269D01*
X648753Y-972269D02*
X648753Y-1019888D01*
X648753Y-1019888D02*
X639229Y-1038936D01*
X639229Y-1038936D02*
X629705Y-1048460D01*
X629705Y-1048460D02*
X610658Y-1057984D01*
X610658Y-1057984D02*
X553515Y-1057984D01*
X553515Y-1057984D02*
X534467Y-1048460D01*
X534467Y-1048460D02*
X524944Y-1038936D01*
X772562Y-857984D02*
X791610Y-857984D01*
X791610Y-857984D02*
X810658Y-867508D01*
X810658Y-867508D02*
X820182Y-877031D01*
X820182Y-877031D02*
X829705Y-896079D01*
X829705Y-896079D02*
X839229Y-934174D01*
X839229Y-934174D02*
X839229Y-981793D01*
X839229Y-981793D02*
X829705Y-1019888D01*
X829705Y-1019888D02*
X820182Y-1038936D01*
X820182Y-1038936D02*
X810658Y-1048460D01*
X810658Y-1048460D02*
X791610Y-1057984D01*
X791610Y-1057984D02*
X772562Y-1057984D01*
X772562Y-1057984D02*
X753515Y-1048460D01*
X753515Y-1048460D02*
X743991Y-1038936D01*
X743991Y-1038936D02*
X734467Y-1019888D01*
X734467Y-1019888D02*
X724943Y-981793D01*
X724943Y-981793D02*
X724943Y-934174D01*
X724943Y-934174D02*
X734467Y-896079D01*
X734467Y-896079D02*
X743991Y-877031D01*
X743991Y-877031D02*
X753515Y-867508D01*
X753515Y-867508D02*
X772562Y-857984D01*
X963039Y-857984D02*
X982086Y-857984D01*
X982086Y-857984D02*
X1001134Y-867508D01*
X1001134Y-867508D02*
X1010658Y-877031D01*
X1010658Y-877031D02*
X1020182Y-896079D01*
X1020182Y-896079D02*
X1029705Y-934174D01*
X1029705Y-934174D02*
X1029705Y-981793D01*
X1029705Y-981793D02*
X1020182Y-1019888D01*
X1020182Y-1019888D02*
X1010658Y-1038936D01*
X1010658Y-1038936D02*
X1001134Y-1048460D01*
X1001134Y-1048460D02*
X982086Y-1057984D01*
X982086Y-1057984D02*
X963039Y-1057984D01*
X963039Y-1057984D02*
X943991Y-1048460D01*
X943991Y-1048460D02*
X934467Y-1038936D01*
X934467Y-1038936D02*
X924943Y-1019888D01*
X924943Y-1019888D02*
X915420Y-981793D01*
X915420Y-981793D02*
X915420Y-934174D01*
X915420Y-934174D02*
X924943Y-896079D01*
X924943Y-896079D02*
X934467Y-877031D01*
X934467Y-877031D02*
X943991Y-867508D01*
X943991Y-867508D02*
X963039Y-857984D01*
X1115420Y-1057984D02*
X1115420Y-924650D01*
X1115420Y-943698D02*
X1124944Y-934174D01*
X1124944Y-934174D02*
X1143991Y-924650D01*
X1143991Y-924650D02*
X1172563Y-924650D01*
X1172563Y-924650D02*
X1191610Y-934174D01*
X1191610Y-934174D02*
X1201134Y-953222D01*
X1201134Y-953222D02*
X1201134Y-1057984D01*
X1201134Y-953222D02*
X1210658Y-934174D01*
X1210658Y-934174D02*
X1229705Y-924650D01*
X1229705Y-924650D02*
X1258277Y-924650D01*
X1258277Y-924650D02*
X1277325Y-934174D01*
X1277325Y-934174D02*
X1286848Y-953222D01*
X1286848Y-953222D02*
X1286848Y-1057984D01*
X1382086Y-1057984D02*
X1382086Y-924650D01*
X1382086Y-943698D02*
X1391610Y-934174D01*
X1391610Y-934174D02*
X1410658Y-924650D01*
X1410658Y-924650D02*
X1439229Y-924650D01*
X1439229Y-924650D02*
X1458277Y-934174D01*
X1458277Y-934174D02*
X1467801Y-953222D01*
X1467801Y-953222D02*
X1467801Y-1057984D01*
X1467801Y-953222D02*
X1477324Y-934174D01*
X1477324Y-934174D02*
X1496372Y-924650D01*
X1496372Y-924650D02*
X1524943Y-924650D01*
X1524943Y-924650D02*
X1543991Y-934174D01*
X1543991Y-934174D02*
X1553515Y-953222D01*
X1553515Y-953222D02*
X1553515Y-1057984D01*
X1943991Y-848460D02*
X1772563Y-1105603D01*
X2201134Y-857984D02*
X2220182Y-857984D01*
X2220182Y-857984D02*
X2239229Y-867508D01*
X2239229Y-867508D02*
X2248753Y-877031D01*
X2248753Y-877031D02*
X2258277Y-896079D01*
X2258277Y-896079D02*
X2267801Y-934174D01*
X2267801Y-934174D02*
X2267801Y-981793D01*
X2267801Y-981793D02*
X2258277Y-1019888D01*
X2258277Y-1019888D02*
X2248753Y-1038936D01*
X2248753Y-1038936D02*
X2239229Y-1048460D01*
X2239229Y-1048460D02*
X2220182Y-1057984D01*
X2220182Y-1057984D02*
X2201134Y-1057984D01*
X2201134Y-1057984D02*
X2182087Y-1048460D01*
X2182087Y-1048460D02*
X2172563Y-1038936D01*
X2172563Y-1038936D02*
X2163039Y-1019888D01*
X2163039Y-1019888D02*
X2153515Y-981793D01*
X2153515Y-981793D02*
X2153515Y-934174D01*
X2153515Y-934174D02*
X2163039Y-896079D01*
X2163039Y-896079D02*
X2172563Y-877031D01*
X2172563Y-877031D02*
X2182087Y-867508D01*
X2182087Y-867508D02*
X2201134Y-857984D01*
X2353515Y-1038936D02*
X2363039Y-1048460D01*
X2363039Y-1048460D02*
X2353515Y-1057984D01*
X2353515Y-1057984D02*
X2343991Y-1048460D01*
X2343991Y-1048460D02*
X2353515Y-1038936D01*
X2353515Y-1038936D02*
X2353515Y-1057984D01*
X2486848Y-857984D02*
X2505896Y-857984D01*
X2505896Y-857984D02*
X2524944Y-867508D01*
X2524944Y-867508D02*
X2534468Y-877031D01*
X2534468Y-877031D02*
X2543991Y-896079D01*
X2543991Y-896079D02*
X2553515Y-934174D01*
X2553515Y-934174D02*
X2553515Y-981793D01*
X2553515Y-981793D02*
X2543991Y-1019888D01*
X2543991Y-1019888D02*
X2534468Y-1038936D01*
X2534468Y-1038936D02*
X2524944Y-1048460D01*
X2524944Y-1048460D02*
X2505896Y-1057984D01*
X2505896Y-1057984D02*
X2486848Y-1057984D01*
X2486848Y-1057984D02*
X2467801Y-1048460D01*
X2467801Y-1048460D02*
X2458277Y-1038936D01*
X2458277Y-1038936D02*
X2448753Y-1019888D01*
X2448753Y-1019888D02*
X2439229Y-981793D01*
X2439229Y-981793D02*
X2439229Y-934174D01*
X2439229Y-934174D02*
X2448753Y-896079D01*
X2448753Y-896079D02*
X2458277Y-877031D01*
X2458277Y-877031D02*
X2467801Y-867508D01*
X2467801Y-867508D02*
X2486848Y-857984D01*
X2743991Y-1057984D02*
X2629706Y-1057984D01*
X2686848Y-1057984D02*
X2686848Y-857984D01*
X2686848Y-857984D02*
X2667801Y-886555D01*
X2667801Y-886555D02*
X2648753Y-905603D01*
X2648753Y-905603D02*
X2629706Y-915127D01*
X2934467Y-1057984D02*
X2820182Y-1057984D01*
X2877325Y-1057984D02*
X2877325Y-857984D01*
X2877325Y-857984D02*
X2858277Y-886555D01*
X2858277Y-886555D02*
X2839229Y-905603D01*
X2839229Y-905603D02*
X2820182Y-915127D01*
X3048753Y-943698D02*
X3029706Y-934174D01*
X3029706Y-934174D02*
X3020182Y-924650D01*
X3020182Y-924650D02*
X3010658Y-905603D01*
X3010658Y-905603D02*
X3010658Y-896079D01*
X3010658Y-896079D02*
X3020182Y-877031D01*
X3020182Y-877031D02*
X3029706Y-867508D01*
X3029706Y-867508D02*
X3048753Y-857984D01*
X3048753Y-857984D02*
X3086848Y-857984D01*
X3086848Y-857984D02*
X3105896Y-867508D01*
X3105896Y-867508D02*
X3115420Y-877031D01*
X3115420Y-877031D02*
X3124944Y-896079D01*
X3124944Y-896079D02*
X3124944Y-905603D01*
X3124944Y-905603D02*
X3115420Y-924650D01*
X3115420Y-924650D02*
X3105896Y-934174D01*
X3105896Y-934174D02*
X3086848Y-943698D01*
X3086848Y-943698D02*
X3048753Y-943698D01*
X3048753Y-943698D02*
X3029706Y-953222D01*
X3029706Y-953222D02*
X3020182Y-962746D01*
X3020182Y-962746D02*
X3010658Y-981793D01*
X3010658Y-981793D02*
X3010658Y-1019888D01*
X3010658Y-1019888D02*
X3020182Y-1038936D01*
X3020182Y-1038936D02*
X3029706Y-1048460D01*
X3029706Y-1048460D02*
X3048753Y-1057984D01*
X3048753Y-1057984D02*
X3086848Y-1057984D01*
X3086848Y-1057984D02*
X3105896Y-1048460D01*
X3105896Y-1048460D02*
X3115420Y-1038936D01*
X3115420Y-1038936D02*
X3124944Y-1019888D01*
X3124944Y-1019888D02*
X3124944Y-981793D01*
X3124944Y-981793D02*
X3115420Y-962746D01*
X3115420Y-962746D02*
X3105896Y-953222D01*
X3105896Y-953222D02*
X3086848Y-943698D01*
X3201134Y-857984D02*
X3201134Y-896079D01*
X3277325Y-857984D02*
X3277325Y-896079D01*
X3572563Y-1134174D02*
X3563039Y-1124650D01*
X3563039Y-1124650D02*
X3543991Y-1096079D01*
X3543991Y-1096079D02*
X3534468Y-1077031D01*
X3534468Y-1077031D02*
X3524944Y-1048460D01*
X3524944Y-1048460D02*
X3515420Y-1000841D01*
X3515420Y-1000841D02*
X3515420Y-962746D01*
X3515420Y-962746D02*
X3524944Y-915127D01*
X3524944Y-915127D02*
X3534468Y-886555D01*
X3534468Y-886555D02*
X3543991Y-867508D01*
X3543991Y-867508D02*
X3563039Y-838936D01*
X3563039Y-838936D02*
X3572563Y-829412D01*
X3753515Y-1057984D02*
X3639229Y-1057984D01*
X3696372Y-1057984D02*
X3696372Y-857984D01*
X3696372Y-857984D02*
X3677325Y-886555D01*
X3677325Y-886555D02*
X3658277Y-905603D01*
X3658277Y-905603D02*
X3639229Y-915127D01*
X3991610Y-1057984D02*
X3991610Y-857984D01*
X4077325Y-1057984D02*
X4077325Y-953222D01*
X4077325Y-953222D02*
X4067801Y-934174D01*
X4067801Y-934174D02*
X4048753Y-924650D01*
X4048753Y-924650D02*
X4020182Y-924650D01*
X4020182Y-924650D02*
X4001134Y-934174D01*
X4001134Y-934174D02*
X3991610Y-943698D01*
X4201134Y-1057984D02*
X4182087Y-1048460D01*
X4182087Y-1048460D02*
X4172563Y-1038936D01*
X4172563Y-1038936D02*
X4163039Y-1019888D01*
X4163039Y-1019888D02*
X4163039Y-962746D01*
X4163039Y-962746D02*
X4172563Y-943698D01*
X4172563Y-943698D02*
X4182087Y-934174D01*
X4182087Y-934174D02*
X4201134Y-924650D01*
X4201134Y-924650D02*
X4229706Y-924650D01*
X4229706Y-924650D02*
X4248753Y-934174D01*
X4248753Y-934174D02*
X4258277Y-943698D01*
X4258277Y-943698D02*
X4267801Y-962746D01*
X4267801Y-962746D02*
X4267801Y-1019888D01*
X4267801Y-1019888D02*
X4258277Y-1038936D01*
X4258277Y-1038936D02*
X4248753Y-1048460D01*
X4248753Y-1048460D02*
X4229706Y-1057984D01*
X4229706Y-1057984D02*
X4201134Y-1057984D01*
X4382087Y-1057984D02*
X4363039Y-1048460D01*
X4363039Y-1048460D02*
X4353515Y-1029412D01*
X4353515Y-1029412D02*
X4353515Y-857984D01*
X4534468Y-1048460D02*
X4515420Y-1057984D01*
X4515420Y-1057984D02*
X4477325Y-1057984D01*
X4477325Y-1057984D02*
X4458277Y-1048460D01*
X4458277Y-1048460D02*
X4448753Y-1029412D01*
X4448753Y-1029412D02*
X4448753Y-953222D01*
X4448753Y-953222D02*
X4458277Y-934174D01*
X4458277Y-934174D02*
X4477325Y-924650D01*
X4477325Y-924650D02*
X4515420Y-924650D01*
X4515420Y-924650D02*
X4534468Y-934174D01*
X4534468Y-934174D02*
X4543992Y-953222D01*
X4543992Y-953222D02*
X4543992Y-972269D01*
X4543992Y-972269D02*
X4448753Y-991317D01*
X4610658Y-1134174D02*
X4620182Y-1124650D01*
X4620182Y-1124650D02*
X4639230Y-1096079D01*
X4639230Y-1096079D02*
X4648753Y-1077031D01*
X4648753Y-1077031D02*
X4658277Y-1048460D01*
X4658277Y-1048460D02*
X4667801Y-1000841D01*
X4667801Y-1000841D02*
X4667801Y-962746D01*
X4667801Y-962746D02*
X4658277Y-915127D01*
X4658277Y-915127D02*
X4648753Y-886555D01*
X4648753Y-886555D02*
X4639230Y-867508D01*
X4639230Y-867508D02*
X4620182Y-838936D01*
X4620182Y-838936D02*
X4610658Y-829412D01*
D12*
X-32500Y-1200500D02*
X-32500Y-1260500D01*
X-62500Y-1230500D02*
X-2500Y-1230500D01*
D11*
X296372Y-1121984D02*
X315420Y-1121984D01*
X315420Y-1121984D02*
X334467Y-1131508D01*
X334467Y-1131508D02*
X343991Y-1141031D01*
X343991Y-1141031D02*
X353515Y-1160079D01*
X353515Y-1160079D02*
X363039Y-1198174D01*
X363039Y-1198174D02*
X363039Y-1245793D01*
X363039Y-1245793D02*
X353515Y-1283889D01*
X353515Y-1283889D02*
X343991Y-1302936D01*
X343991Y-1302936D02*
X334467Y-1312460D01*
X334467Y-1312460D02*
X315420Y-1321984D01*
X315420Y-1321984D02*
X296372Y-1321984D01*
X296372Y-1321984D02*
X277324Y-1312460D01*
X277324Y-1312460D02*
X267801Y-1302936D01*
X267801Y-1302936D02*
X258277Y-1283889D01*
X258277Y-1283889D02*
X248753Y-1245793D01*
X248753Y-1245793D02*
X248753Y-1198174D01*
X248753Y-1198174D02*
X258277Y-1160079D01*
X258277Y-1160079D02*
X267801Y-1141031D01*
X267801Y-1141031D02*
X277324Y-1131508D01*
X277324Y-1131508D02*
X296372Y-1121984D01*
X448753Y-1302936D02*
X458277Y-1312460D01*
X458277Y-1312460D02*
X448753Y-1321984D01*
X448753Y-1321984D02*
X439229Y-1312460D01*
X439229Y-1312460D02*
X448753Y-1302936D01*
X448753Y-1302936D02*
X448753Y-1321984D01*
X629705Y-1121984D02*
X591610Y-1121984D01*
X591610Y-1121984D02*
X572563Y-1131508D01*
X572563Y-1131508D02*
X563039Y-1141031D01*
X563039Y-1141031D02*
X543991Y-1169603D01*
X543991Y-1169603D02*
X534467Y-1207698D01*
X534467Y-1207698D02*
X534467Y-1283889D01*
X534467Y-1283889D02*
X543991Y-1302936D01*
X543991Y-1302936D02*
X553515Y-1312460D01*
X553515Y-1312460D02*
X572563Y-1321984D01*
X572563Y-1321984D02*
X610658Y-1321984D01*
X610658Y-1321984D02*
X629705Y-1312460D01*
X629705Y-1312460D02*
X639229Y-1302936D01*
X639229Y-1302936D02*
X648753Y-1283889D01*
X648753Y-1283889D02*
X648753Y-1236270D01*
X648753Y-1236270D02*
X639229Y-1217222D01*
X639229Y-1217222D02*
X629705Y-1207698D01*
X629705Y-1207698D02*
X610658Y-1198174D01*
X610658Y-1198174D02*
X572563Y-1198174D01*
X572563Y-1198174D02*
X553515Y-1207698D01*
X553515Y-1207698D02*
X543991Y-1217222D01*
X543991Y-1217222D02*
X534467Y-1236270D01*
X772562Y-1121984D02*
X791610Y-1121984D01*
X791610Y-1121984D02*
X810658Y-1131508D01*
X810658Y-1131508D02*
X820182Y-1141031D01*
X820182Y-1141031D02*
X829705Y-1160079D01*
X829705Y-1160079D02*
X839229Y-1198174D01*
X839229Y-1198174D02*
X839229Y-1245793D01*
X839229Y-1245793D02*
X829705Y-1283889D01*
X829705Y-1283889D02*
X820182Y-1302936D01*
X820182Y-1302936D02*
X810658Y-1312460D01*
X810658Y-1312460D02*
X791610Y-1321984D01*
X791610Y-1321984D02*
X772562Y-1321984D01*
X772562Y-1321984D02*
X753515Y-1312460D01*
X753515Y-1312460D02*
X743991Y-1302936D01*
X743991Y-1302936D02*
X734467Y-1283889D01*
X734467Y-1283889D02*
X724943Y-1245793D01*
X724943Y-1245793D02*
X724943Y-1198174D01*
X724943Y-1198174D02*
X734467Y-1160079D01*
X734467Y-1160079D02*
X743991Y-1141031D01*
X743991Y-1141031D02*
X753515Y-1131508D01*
X753515Y-1131508D02*
X772562Y-1121984D01*
X963039Y-1121984D02*
X982086Y-1121984D01*
X982086Y-1121984D02*
X1001134Y-1131508D01*
X1001134Y-1131508D02*
X1010658Y-1141031D01*
X1010658Y-1141031D02*
X1020182Y-1160079D01*
X1020182Y-1160079D02*
X1029705Y-1198174D01*
X1029705Y-1198174D02*
X1029705Y-1245793D01*
X1029705Y-1245793D02*
X1020182Y-1283889D01*
X1020182Y-1283889D02*
X1010658Y-1302936D01*
X1010658Y-1302936D02*
X1001134Y-1312460D01*
X1001134Y-1312460D02*
X982086Y-1321984D01*
X982086Y-1321984D02*
X963039Y-1321984D01*
X963039Y-1321984D02*
X943991Y-1312460D01*
X943991Y-1312460D02*
X934467Y-1302936D01*
X934467Y-1302936D02*
X924943Y-1283889D01*
X924943Y-1283889D02*
X915420Y-1245793D01*
X915420Y-1245793D02*
X915420Y-1198174D01*
X915420Y-1198174D02*
X924943Y-1160079D01*
X924943Y-1160079D02*
X934467Y-1141031D01*
X934467Y-1141031D02*
X943991Y-1131508D01*
X943991Y-1131508D02*
X963039Y-1121984D01*
X1115420Y-1321984D02*
X1115420Y-1188650D01*
X1115420Y-1207698D02*
X1124944Y-1198174D01*
X1124944Y-1198174D02*
X1143991Y-1188650D01*
X1143991Y-1188650D02*
X1172563Y-1188650D01*
X1172563Y-1188650D02*
X1191610Y-1198174D01*
X1191610Y-1198174D02*
X1201134Y-1217222D01*
X1201134Y-1217222D02*
X1201134Y-1321984D01*
X1201134Y-1217222D02*
X1210658Y-1198174D01*
X1210658Y-1198174D02*
X1229705Y-1188650D01*
X1229705Y-1188650D02*
X1258277Y-1188650D01*
X1258277Y-1188650D02*
X1277325Y-1198174D01*
X1277325Y-1198174D02*
X1286848Y-1217222D01*
X1286848Y-1217222D02*
X1286848Y-1321984D01*
X1382086Y-1321984D02*
X1382086Y-1188650D01*
X1382086Y-1207698D02*
X1391610Y-1198174D01*
X1391610Y-1198174D02*
X1410658Y-1188650D01*
X1410658Y-1188650D02*
X1439229Y-1188650D01*
X1439229Y-1188650D02*
X1458277Y-1198174D01*
X1458277Y-1198174D02*
X1467801Y-1217222D01*
X1467801Y-1217222D02*
X1467801Y-1321984D01*
X1467801Y-1217222D02*
X1477324Y-1198174D01*
X1477324Y-1198174D02*
X1496372Y-1188650D01*
X1496372Y-1188650D02*
X1524943Y-1188650D01*
X1524943Y-1188650D02*
X1543991Y-1198174D01*
X1543991Y-1198174D02*
X1553515Y-1217222D01*
X1553515Y-1217222D02*
X1553515Y-1321984D01*
X1943991Y-1112460D02*
X1772563Y-1369603D01*
X2201134Y-1121984D02*
X2220182Y-1121984D01*
X2220182Y-1121984D02*
X2239229Y-1131508D01*
X2239229Y-1131508D02*
X2248753Y-1141031D01*
X2248753Y-1141031D02*
X2258277Y-1160079D01*
X2258277Y-1160079D02*
X2267801Y-1198174D01*
X2267801Y-1198174D02*
X2267801Y-1245793D01*
X2267801Y-1245793D02*
X2258277Y-1283889D01*
X2258277Y-1283889D02*
X2248753Y-1302936D01*
X2248753Y-1302936D02*
X2239229Y-1312460D01*
X2239229Y-1312460D02*
X2220182Y-1321984D01*
X2220182Y-1321984D02*
X2201134Y-1321984D01*
X2201134Y-1321984D02*
X2182087Y-1312460D01*
X2182087Y-1312460D02*
X2172563Y-1302936D01*
X2172563Y-1302936D02*
X2163039Y-1283889D01*
X2163039Y-1283889D02*
X2153515Y-1245793D01*
X2153515Y-1245793D02*
X2153515Y-1198174D01*
X2153515Y-1198174D02*
X2163039Y-1160079D01*
X2163039Y-1160079D02*
X2172563Y-1141031D01*
X2172563Y-1141031D02*
X2182087Y-1131508D01*
X2182087Y-1131508D02*
X2201134Y-1121984D01*
X2353515Y-1302936D02*
X2363039Y-1312460D01*
X2363039Y-1312460D02*
X2353515Y-1321984D01*
X2353515Y-1321984D02*
X2343991Y-1312460D01*
X2343991Y-1312460D02*
X2353515Y-1302936D01*
X2353515Y-1302936D02*
X2353515Y-1321984D01*
X2486848Y-1121984D02*
X2505896Y-1121984D01*
X2505896Y-1121984D02*
X2524944Y-1131508D01*
X2524944Y-1131508D02*
X2534468Y-1141031D01*
X2534468Y-1141031D02*
X2543991Y-1160079D01*
X2543991Y-1160079D02*
X2553515Y-1198174D01*
X2553515Y-1198174D02*
X2553515Y-1245793D01*
X2553515Y-1245793D02*
X2543991Y-1283889D01*
X2543991Y-1283889D02*
X2534468Y-1302936D01*
X2534468Y-1302936D02*
X2524944Y-1312460D01*
X2524944Y-1312460D02*
X2505896Y-1321984D01*
X2505896Y-1321984D02*
X2486848Y-1321984D01*
X2486848Y-1321984D02*
X2467801Y-1312460D01*
X2467801Y-1312460D02*
X2458277Y-1302936D01*
X2458277Y-1302936D02*
X2448753Y-1283889D01*
X2448753Y-1283889D02*
X2439229Y-1245793D01*
X2439229Y-1245793D02*
X2439229Y-1198174D01*
X2439229Y-1198174D02*
X2448753Y-1160079D01*
X2448753Y-1160079D02*
X2458277Y-1141031D01*
X2458277Y-1141031D02*
X2467801Y-1131508D01*
X2467801Y-1131508D02*
X2486848Y-1121984D01*
X2629706Y-1141031D02*
X2639229Y-1131508D01*
X2639229Y-1131508D02*
X2658277Y-1121984D01*
X2658277Y-1121984D02*
X2705896Y-1121984D01*
X2705896Y-1121984D02*
X2724944Y-1131508D01*
X2724944Y-1131508D02*
X2734468Y-1141031D01*
X2734468Y-1141031D02*
X2743991Y-1160079D01*
X2743991Y-1160079D02*
X2743991Y-1179127D01*
X2743991Y-1179127D02*
X2734468Y-1207698D01*
X2734468Y-1207698D02*
X2620182Y-1321984D01*
X2620182Y-1321984D02*
X2743991Y-1321984D01*
X2810658Y-1121984D02*
X2934467Y-1121984D01*
X2934467Y-1121984D02*
X2867801Y-1198174D01*
X2867801Y-1198174D02*
X2896372Y-1198174D01*
X2896372Y-1198174D02*
X2915420Y-1207698D01*
X2915420Y-1207698D02*
X2924944Y-1217222D01*
X2924944Y-1217222D02*
X2934467Y-1236270D01*
X2934467Y-1236270D02*
X2934467Y-1283889D01*
X2934467Y-1283889D02*
X2924944Y-1302936D01*
X2924944Y-1302936D02*
X2915420Y-1312460D01*
X2915420Y-1312460D02*
X2896372Y-1321984D01*
X2896372Y-1321984D02*
X2839229Y-1321984D01*
X2839229Y-1321984D02*
X2820182Y-1312460D01*
X2820182Y-1312460D02*
X2810658Y-1302936D01*
X3105896Y-1121984D02*
X3067801Y-1121984D01*
X3067801Y-1121984D02*
X3048753Y-1131508D01*
X3048753Y-1131508D02*
X3039229Y-1141031D01*
X3039229Y-1141031D02*
X3020182Y-1169603D01*
X3020182Y-1169603D02*
X3010658Y-1207698D01*
X3010658Y-1207698D02*
X3010658Y-1283889D01*
X3010658Y-1283889D02*
X3020182Y-1302936D01*
X3020182Y-1302936D02*
X3029706Y-1312460D01*
X3029706Y-1312460D02*
X3048753Y-1321984D01*
X3048753Y-1321984D02*
X3086848Y-1321984D01*
X3086848Y-1321984D02*
X3105896Y-1312460D01*
X3105896Y-1312460D02*
X3115420Y-1302936D01*
X3115420Y-1302936D02*
X3124944Y-1283889D01*
X3124944Y-1283889D02*
X3124944Y-1236270D01*
X3124944Y-1236270D02*
X3115420Y-1217222D01*
X3115420Y-1217222D02*
X3105896Y-1207698D01*
X3105896Y-1207698D02*
X3086848Y-1198174D01*
X3086848Y-1198174D02*
X3048753Y-1198174D01*
X3048753Y-1198174D02*
X3029706Y-1207698D01*
X3029706Y-1207698D02*
X3020182Y-1217222D01*
X3020182Y-1217222D02*
X3010658Y-1236270D01*
X3201134Y-1121984D02*
X3201134Y-1160079D01*
X3277325Y-1121984D02*
X3277325Y-1160079D01*
X3572563Y-1398174D02*
X3563039Y-1388650D01*
X3563039Y-1388650D02*
X3543991Y-1360079D01*
X3543991Y-1360079D02*
X3534468Y-1341031D01*
X3534468Y-1341031D02*
X3524944Y-1312460D01*
X3524944Y-1312460D02*
X3515420Y-1264841D01*
X3515420Y-1264841D02*
X3515420Y-1226746D01*
X3515420Y-1226746D02*
X3524944Y-1179127D01*
X3524944Y-1179127D02*
X3534468Y-1150555D01*
X3534468Y-1150555D02*
X3543991Y-1131508D01*
X3543991Y-1131508D02*
X3563039Y-1102936D01*
X3563039Y-1102936D02*
X3572563Y-1093412D01*
X3686848Y-1121984D02*
X3705896Y-1121984D01*
X3705896Y-1121984D02*
X3724944Y-1131508D01*
X3724944Y-1131508D02*
X3734468Y-1141031D01*
X3734468Y-1141031D02*
X3743991Y-1160079D01*
X3743991Y-1160079D02*
X3753515Y-1198174D01*
X3753515Y-1198174D02*
X3753515Y-1245793D01*
X3753515Y-1245793D02*
X3743991Y-1283889D01*
X3743991Y-1283889D02*
X3734468Y-1302936D01*
X3734468Y-1302936D02*
X3724944Y-1312460D01*
X3724944Y-1312460D02*
X3705896Y-1321984D01*
X3705896Y-1321984D02*
X3686848Y-1321984D01*
X3686848Y-1321984D02*
X3667801Y-1312460D01*
X3667801Y-1312460D02*
X3658277Y-1302936D01*
X3658277Y-1302936D02*
X3648753Y-1283889D01*
X3648753Y-1283889D02*
X3639229Y-1245793D01*
X3639229Y-1245793D02*
X3639229Y-1198174D01*
X3639229Y-1198174D02*
X3648753Y-1160079D01*
X3648753Y-1160079D02*
X3658277Y-1141031D01*
X3658277Y-1141031D02*
X3667801Y-1131508D01*
X3667801Y-1131508D02*
X3686848Y-1121984D01*
X3991610Y-1321984D02*
X3991610Y-1121984D01*
X4077325Y-1321984D02*
X4077325Y-1217222D01*
X4077325Y-1217222D02*
X4067801Y-1198174D01*
X4067801Y-1198174D02*
X4048753Y-1188650D01*
X4048753Y-1188650D02*
X4020182Y-1188650D01*
X4020182Y-1188650D02*
X4001134Y-1198174D01*
X4001134Y-1198174D02*
X3991610Y-1207698D01*
X4201134Y-1321984D02*
X4182087Y-1312460D01*
X4182087Y-1312460D02*
X4172563Y-1302936D01*
X4172563Y-1302936D02*
X4163039Y-1283889D01*
X4163039Y-1283889D02*
X4163039Y-1226746D01*
X4163039Y-1226746D02*
X4172563Y-1207698D01*
X4172563Y-1207698D02*
X4182087Y-1198174D01*
X4182087Y-1198174D02*
X4201134Y-1188650D01*
X4201134Y-1188650D02*
X4229706Y-1188650D01*
X4229706Y-1188650D02*
X4248753Y-1198174D01*
X4248753Y-1198174D02*
X4258277Y-1207698D01*
X4258277Y-1207698D02*
X4267801Y-1226746D01*
X4267801Y-1226746D02*
X4267801Y-1283889D01*
X4267801Y-1283889D02*
X4258277Y-1302936D01*
X4258277Y-1302936D02*
X4248753Y-1312460D01*
X4248753Y-1312460D02*
X4229706Y-1321984D01*
X4229706Y-1321984D02*
X4201134Y-1321984D01*
X4382087Y-1321984D02*
X4363039Y-1312460D01*
X4363039Y-1312460D02*
X4353515Y-1293412D01*
X4353515Y-1293412D02*
X4353515Y-1121984D01*
X4534468Y-1312460D02*
X4515420Y-1321984D01*
X4515420Y-1321984D02*
X4477325Y-1321984D01*
X4477325Y-1321984D02*
X4458277Y-1312460D01*
X4458277Y-1312460D02*
X4448753Y-1293412D01*
X4448753Y-1293412D02*
X4448753Y-1217222D01*
X4448753Y-1217222D02*
X4458277Y-1198174D01*
X4458277Y-1198174D02*
X4477325Y-1188650D01*
X4477325Y-1188650D02*
X4515420Y-1188650D01*
X4515420Y-1188650D02*
X4534468Y-1198174D01*
X4534468Y-1198174D02*
X4543992Y-1217222D01*
X4543992Y-1217222D02*
X4543992Y-1236270D01*
X4543992Y-1236270D02*
X4448753Y-1255317D01*
X4620182Y-1312460D02*
X4639230Y-1321984D01*
X4639230Y-1321984D02*
X4677325Y-1321984D01*
X4677325Y-1321984D02*
X4696373Y-1312460D01*
X4696373Y-1312460D02*
X4705896Y-1293412D01*
X4705896Y-1293412D02*
X4705896Y-1283889D01*
X4705896Y-1283889D02*
X4696373Y-1264841D01*
X4696373Y-1264841D02*
X4677325Y-1255317D01*
X4677325Y-1255317D02*
X4648753Y-1255317D01*
X4648753Y-1255317D02*
X4629706Y-1245793D01*
X4629706Y-1245793D02*
X4620182Y-1226746D01*
X4620182Y-1226746D02*
X4620182Y-1217222D01*
X4620182Y-1217222D02*
X4629706Y-1198174D01*
X4629706Y-1198174D02*
X4648753Y-1188650D01*
X4648753Y-1188650D02*
X4677325Y-1188650D01*
X4677325Y-1188650D02*
X4696373Y-1198174D01*
X4943992Y-1245793D02*
X5096373Y-1245793D01*
X5020182Y-1321984D02*
X5020182Y-1169603D01*
X5429706Y-1188650D02*
X5429706Y-1321984D01*
X5382087Y-1112460D02*
X5334468Y-1255317D01*
X5334468Y-1255317D02*
X5458277Y-1255317D01*
X5677325Y-1312460D02*
X5696373Y-1321984D01*
X5696373Y-1321984D02*
X5734468Y-1321984D01*
X5734468Y-1321984D02*
X5753515Y-1312460D01*
X5753515Y-1312460D02*
X5763039Y-1293412D01*
X5763039Y-1293412D02*
X5763039Y-1283889D01*
X5763039Y-1283889D02*
X5753515Y-1264841D01*
X5753515Y-1264841D02*
X5734468Y-1255317D01*
X5734468Y-1255317D02*
X5705896Y-1255317D01*
X5705896Y-1255317D02*
X5686849Y-1245793D01*
X5686849Y-1245793D02*
X5677325Y-1226746D01*
X5677325Y-1226746D02*
X5677325Y-1217222D01*
X5677325Y-1217222D02*
X5686849Y-1198174D01*
X5686849Y-1198174D02*
X5705896Y-1188650D01*
X5705896Y-1188650D02*
X5734468Y-1188650D01*
X5734468Y-1188650D02*
X5753515Y-1198174D01*
X5877325Y-1321984D02*
X5858277Y-1312460D01*
X5858277Y-1312460D02*
X5848754Y-1293412D01*
X5848754Y-1293412D02*
X5848754Y-1121984D01*
X5982087Y-1321984D02*
X5963039Y-1312460D01*
X5963039Y-1312460D02*
X5953515Y-1302936D01*
X5953515Y-1302936D02*
X5943992Y-1283889D01*
X5943992Y-1283889D02*
X5943992Y-1226746D01*
X5943992Y-1226746D02*
X5953515Y-1207698D01*
X5953515Y-1207698D02*
X5963039Y-1198174D01*
X5963039Y-1198174D02*
X5982087Y-1188650D01*
X5982087Y-1188650D02*
X6010658Y-1188650D01*
X6010658Y-1188650D02*
X6029706Y-1198174D01*
X6029706Y-1198174D02*
X6039230Y-1207698D01*
X6039230Y-1207698D02*
X6048754Y-1226746D01*
X6048754Y-1226746D02*
X6048754Y-1283889D01*
X6048754Y-1283889D02*
X6039230Y-1302936D01*
X6039230Y-1302936D02*
X6029706Y-1312460D01*
X6029706Y-1312460D02*
X6010658Y-1321984D01*
X6010658Y-1321984D02*
X5982087Y-1321984D01*
X6105896Y-1188650D02*
X6182087Y-1188650D01*
X6134468Y-1121984D02*
X6134468Y-1293412D01*
X6134468Y-1293412D02*
X6143992Y-1312460D01*
X6143992Y-1312460D02*
X6163039Y-1321984D01*
X6163039Y-1321984D02*
X6182087Y-1321984D01*
X6239230Y-1312460D02*
X6258277Y-1321984D01*
X6258277Y-1321984D02*
X6296373Y-1321984D01*
X6296373Y-1321984D02*
X6315420Y-1312460D01*
X6315420Y-1312460D02*
X6324944Y-1293412D01*
X6324944Y-1293412D02*
X6324944Y-1283889D01*
X6324944Y-1283889D02*
X6315420Y-1264841D01*
X6315420Y-1264841D02*
X6296373Y-1255317D01*
X6296373Y-1255317D02*
X6267801Y-1255317D01*
X6267801Y-1255317D02*
X6248754Y-1245793D01*
X6248754Y-1245793D02*
X6239230Y-1226746D01*
X6239230Y-1226746D02*
X6239230Y-1217222D01*
X6239230Y-1217222D02*
X6248754Y-1198174D01*
X6248754Y-1198174D02*
X6267801Y-1188650D01*
X6267801Y-1188650D02*
X6296373Y-1188650D01*
X6296373Y-1188650D02*
X6315420Y-1198174D01*
X6391611Y-1398174D02*
X6401135Y-1388650D01*
X6401135Y-1388650D02*
X6420182Y-1360079D01*
X6420182Y-1360079D02*
X6429706Y-1341031D01*
X6429706Y-1341031D02*
X6439230Y-1312460D01*
X6439230Y-1312460D02*
X6448754Y-1264841D01*
X6448754Y-1264841D02*
X6448754Y-1226746D01*
X6448754Y-1226746D02*
X6439230Y-1179127D01*
X6439230Y-1179127D02*
X6429706Y-1150555D01*
X6429706Y-1150555D02*
X6420182Y-1131508D01*
X6420182Y-1131508D02*
X6401135Y-1102936D01*
X6401135Y-1102936D02*
X6391611Y-1093412D01*
D12*
X-15680Y-1526320D02*
X-15680Y-1462680D01*
X-79320Y-1462680D01*
X-79320Y-1526320D01*
X-15680Y-1526320D01*
D11*
X296372Y-1385984D02*
X315420Y-1385984D01*
X315420Y-1385984D02*
X334467Y-1395508D01*
X334467Y-1395508D02*
X343991Y-1405031D01*
X343991Y-1405031D02*
X353515Y-1424079D01*
X353515Y-1424079D02*
X363039Y-1462174D01*
X363039Y-1462174D02*
X363039Y-1509793D01*
X363039Y-1509793D02*
X353515Y-1547888D01*
X353515Y-1547888D02*
X343991Y-1566936D01*
X343991Y-1566936D02*
X334467Y-1576460D01*
X334467Y-1576460D02*
X315420Y-1585984D01*
X315420Y-1585984D02*
X296372Y-1585984D01*
X296372Y-1585984D02*
X277324Y-1576460D01*
X277324Y-1576460D02*
X267801Y-1566936D01*
X267801Y-1566936D02*
X258277Y-1547888D01*
X258277Y-1547888D02*
X248753Y-1509793D01*
X248753Y-1509793D02*
X248753Y-1462174D01*
X248753Y-1462174D02*
X258277Y-1424079D01*
X258277Y-1424079D02*
X267801Y-1405031D01*
X267801Y-1405031D02*
X277324Y-1395508D01*
X277324Y-1395508D02*
X296372Y-1385984D01*
X448753Y-1566936D02*
X458277Y-1576460D01*
X458277Y-1576460D02*
X448753Y-1585984D01*
X448753Y-1585984D02*
X439229Y-1576460D01*
X439229Y-1576460D02*
X448753Y-1566936D01*
X448753Y-1566936D02*
X448753Y-1585984D01*
X553515Y-1585984D02*
X591610Y-1585984D01*
X591610Y-1585984D02*
X610658Y-1576460D01*
X610658Y-1576460D02*
X620182Y-1566936D01*
X620182Y-1566936D02*
X639229Y-1538365D01*
X639229Y-1538365D02*
X648753Y-1500269D01*
X648753Y-1500269D02*
X648753Y-1424079D01*
X648753Y-1424079D02*
X639229Y-1405031D01*
X639229Y-1405031D02*
X629705Y-1395508D01*
X629705Y-1395508D02*
X610658Y-1385984D01*
X610658Y-1385984D02*
X572563Y-1385984D01*
X572563Y-1385984D02*
X553515Y-1395508D01*
X553515Y-1395508D02*
X543991Y-1405031D01*
X543991Y-1405031D02*
X534467Y-1424079D01*
X534467Y-1424079D02*
X534467Y-1471698D01*
X534467Y-1471698D02*
X543991Y-1490746D01*
X543991Y-1490746D02*
X553515Y-1500269D01*
X553515Y-1500269D02*
X572563Y-1509793D01*
X572563Y-1509793D02*
X610658Y-1509793D01*
X610658Y-1509793D02*
X629705Y-1500269D01*
X629705Y-1500269D02*
X639229Y-1490746D01*
X639229Y-1490746D02*
X648753Y-1471698D01*
X772562Y-1385984D02*
X791610Y-1385984D01*
X791610Y-1385984D02*
X810658Y-1395508D01*
X810658Y-1395508D02*
X820182Y-1405031D01*
X820182Y-1405031D02*
X829705Y-1424079D01*
X829705Y-1424079D02*
X839229Y-1462174D01*
X839229Y-1462174D02*
X839229Y-1509793D01*
X839229Y-1509793D02*
X829705Y-1547888D01*
X829705Y-1547888D02*
X820182Y-1566936D01*
X820182Y-1566936D02*
X810658Y-1576460D01*
X810658Y-1576460D02*
X791610Y-1585984D01*
X791610Y-1585984D02*
X772562Y-1585984D01*
X772562Y-1585984D02*
X753515Y-1576460D01*
X753515Y-1576460D02*
X743991Y-1566936D01*
X743991Y-1566936D02*
X734467Y-1547888D01*
X734467Y-1547888D02*
X724943Y-1509793D01*
X724943Y-1509793D02*
X724943Y-1462174D01*
X724943Y-1462174D02*
X734467Y-1424079D01*
X734467Y-1424079D02*
X743991Y-1405031D01*
X743991Y-1405031D02*
X753515Y-1395508D01*
X753515Y-1395508D02*
X772562Y-1385984D01*
X963039Y-1385984D02*
X982086Y-1385984D01*
X982086Y-1385984D02*
X1001134Y-1395508D01*
X1001134Y-1395508D02*
X1010658Y-1405031D01*
X1010658Y-1405031D02*
X1020182Y-1424079D01*
X1020182Y-1424079D02*
X1029705Y-1462174D01*
X1029705Y-1462174D02*
X1029705Y-1509793D01*
X1029705Y-1509793D02*
X1020182Y-1547888D01*
X1020182Y-1547888D02*
X1010658Y-1566936D01*
X1010658Y-1566936D02*
X1001134Y-1576460D01*
X1001134Y-1576460D02*
X982086Y-1585984D01*
X982086Y-1585984D02*
X963039Y-1585984D01*
X963039Y-1585984D02*
X943991Y-1576460D01*
X943991Y-1576460D02*
X934467Y-1566936D01*
X934467Y-1566936D02*
X924943Y-1547888D01*
X924943Y-1547888D02*
X915420Y-1509793D01*
X915420Y-1509793D02*
X915420Y-1462174D01*
X915420Y-1462174D02*
X924943Y-1424079D01*
X924943Y-1424079D02*
X934467Y-1405031D01*
X934467Y-1405031D02*
X943991Y-1395508D01*
X943991Y-1395508D02*
X963039Y-1385984D01*
X1115420Y-1585984D02*
X1115420Y-1452650D01*
X1115420Y-1471698D02*
X1124944Y-1462174D01*
X1124944Y-1462174D02*
X1143991Y-1452650D01*
X1143991Y-1452650D02*
X1172563Y-1452650D01*
X1172563Y-1452650D02*
X1191610Y-1462174D01*
X1191610Y-1462174D02*
X1201134Y-1481222D01*
X1201134Y-1481222D02*
X1201134Y-1585984D01*
X1201134Y-1481222D02*
X1210658Y-1462174D01*
X1210658Y-1462174D02*
X1229705Y-1452650D01*
X1229705Y-1452650D02*
X1258277Y-1452650D01*
X1258277Y-1452650D02*
X1277325Y-1462174D01*
X1277325Y-1462174D02*
X1286848Y-1481222D01*
X1286848Y-1481222D02*
X1286848Y-1585984D01*
X1382086Y-1585984D02*
X1382086Y-1452650D01*
X1382086Y-1471698D02*
X1391610Y-1462174D01*
X1391610Y-1462174D02*
X1410658Y-1452650D01*
X1410658Y-1452650D02*
X1439229Y-1452650D01*
X1439229Y-1452650D02*
X1458277Y-1462174D01*
X1458277Y-1462174D02*
X1467801Y-1481222D01*
X1467801Y-1481222D02*
X1467801Y-1585984D01*
X1467801Y-1481222D02*
X1477324Y-1462174D01*
X1477324Y-1462174D02*
X1496372Y-1452650D01*
X1496372Y-1452650D02*
X1524943Y-1452650D01*
X1524943Y-1452650D02*
X1543991Y-1462174D01*
X1543991Y-1462174D02*
X1553515Y-1481222D01*
X1553515Y-1481222D02*
X1553515Y-1585984D01*
X1943991Y-1376460D02*
X1772563Y-1633603D01*
X2201134Y-1385984D02*
X2220182Y-1385984D01*
X2220182Y-1385984D02*
X2239229Y-1395508D01*
X2239229Y-1395508D02*
X2248753Y-1405031D01*
X2248753Y-1405031D02*
X2258277Y-1424079D01*
X2258277Y-1424079D02*
X2267801Y-1462174D01*
X2267801Y-1462174D02*
X2267801Y-1509793D01*
X2267801Y-1509793D02*
X2258277Y-1547888D01*
X2258277Y-1547888D02*
X2248753Y-1566936D01*
X2248753Y-1566936D02*
X2239229Y-1576460D01*
X2239229Y-1576460D02*
X2220182Y-1585984D01*
X2220182Y-1585984D02*
X2201134Y-1585984D01*
X2201134Y-1585984D02*
X2182087Y-1576460D01*
X2182087Y-1576460D02*
X2172563Y-1566936D01*
X2172563Y-1566936D02*
X2163039Y-1547888D01*
X2163039Y-1547888D02*
X2153515Y-1509793D01*
X2153515Y-1509793D02*
X2153515Y-1462174D01*
X2153515Y-1462174D02*
X2163039Y-1424079D01*
X2163039Y-1424079D02*
X2172563Y-1405031D01*
X2172563Y-1405031D02*
X2182087Y-1395508D01*
X2182087Y-1395508D02*
X2201134Y-1385984D01*
X2353515Y-1566936D02*
X2363039Y-1576460D01*
X2363039Y-1576460D02*
X2353515Y-1585984D01*
X2353515Y-1585984D02*
X2343991Y-1576460D01*
X2343991Y-1576460D02*
X2353515Y-1566936D01*
X2353515Y-1566936D02*
X2353515Y-1585984D01*
X2486848Y-1385984D02*
X2505896Y-1385984D01*
X2505896Y-1385984D02*
X2524944Y-1395508D01*
X2524944Y-1395508D02*
X2534468Y-1405031D01*
X2534468Y-1405031D02*
X2543991Y-1424079D01*
X2543991Y-1424079D02*
X2553515Y-1462174D01*
X2553515Y-1462174D02*
X2553515Y-1509793D01*
X2553515Y-1509793D02*
X2543991Y-1547888D01*
X2543991Y-1547888D02*
X2534468Y-1566936D01*
X2534468Y-1566936D02*
X2524944Y-1576460D01*
X2524944Y-1576460D02*
X2505896Y-1585984D01*
X2505896Y-1585984D02*
X2486848Y-1585984D01*
X2486848Y-1585984D02*
X2467801Y-1576460D01*
X2467801Y-1576460D02*
X2458277Y-1566936D01*
X2458277Y-1566936D02*
X2448753Y-1547888D01*
X2448753Y-1547888D02*
X2439229Y-1509793D01*
X2439229Y-1509793D02*
X2439229Y-1462174D01*
X2439229Y-1462174D02*
X2448753Y-1424079D01*
X2448753Y-1424079D02*
X2458277Y-1405031D01*
X2458277Y-1405031D02*
X2467801Y-1395508D01*
X2467801Y-1395508D02*
X2486848Y-1385984D01*
X2620182Y-1385984D02*
X2743991Y-1385984D01*
X2743991Y-1385984D02*
X2677325Y-1462174D01*
X2677325Y-1462174D02*
X2705896Y-1462174D01*
X2705896Y-1462174D02*
X2724944Y-1471698D01*
X2724944Y-1471698D02*
X2734468Y-1481222D01*
X2734468Y-1481222D02*
X2743991Y-1500269D01*
X2743991Y-1500269D02*
X2743991Y-1547888D01*
X2743991Y-1547888D02*
X2734468Y-1566936D01*
X2734468Y-1566936D02*
X2724944Y-1576460D01*
X2724944Y-1576460D02*
X2705896Y-1585984D01*
X2705896Y-1585984D02*
X2648753Y-1585984D01*
X2648753Y-1585984D02*
X2629706Y-1576460D01*
X2629706Y-1576460D02*
X2620182Y-1566936D01*
X2924944Y-1385984D02*
X2829706Y-1385984D01*
X2829706Y-1385984D02*
X2820182Y-1481222D01*
X2820182Y-1481222D02*
X2829706Y-1471698D01*
X2829706Y-1471698D02*
X2848753Y-1462174D01*
X2848753Y-1462174D02*
X2896372Y-1462174D01*
X2896372Y-1462174D02*
X2915420Y-1471698D01*
X2915420Y-1471698D02*
X2924944Y-1481222D01*
X2924944Y-1481222D02*
X2934467Y-1500269D01*
X2934467Y-1500269D02*
X2934467Y-1547888D01*
X2934467Y-1547888D02*
X2924944Y-1566936D01*
X2924944Y-1566936D02*
X2915420Y-1576460D01*
X2915420Y-1576460D02*
X2896372Y-1585984D01*
X2896372Y-1585984D02*
X2848753Y-1585984D01*
X2848753Y-1585984D02*
X2829706Y-1576460D01*
X2829706Y-1576460D02*
X2820182Y-1566936D01*
X3105896Y-1452650D02*
X3105896Y-1585984D01*
X3058277Y-1376460D02*
X3010658Y-1519317D01*
X3010658Y-1519317D02*
X3134467Y-1519317D01*
X3201134Y-1385984D02*
X3201134Y-1424079D01*
X3277325Y-1385984D02*
X3277325Y-1424079D01*
X3572563Y-1662174D02*
X3563039Y-1652650D01*
X3563039Y-1652650D02*
X3543991Y-1624079D01*
X3543991Y-1624079D02*
X3534468Y-1605031D01*
X3534468Y-1605031D02*
X3524944Y-1576460D01*
X3524944Y-1576460D02*
X3515420Y-1528841D01*
X3515420Y-1528841D02*
X3515420Y-1490746D01*
X3515420Y-1490746D02*
X3524944Y-1443127D01*
X3524944Y-1443127D02*
X3534468Y-1414555D01*
X3534468Y-1414555D02*
X3543991Y-1395508D01*
X3543991Y-1395508D02*
X3563039Y-1366936D01*
X3563039Y-1366936D02*
X3572563Y-1357412D01*
X3639229Y-1405031D02*
X3648753Y-1395508D01*
X3648753Y-1395508D02*
X3667801Y-1385984D01*
X3667801Y-1385984D02*
X3715420Y-1385984D01*
X3715420Y-1385984D02*
X3734468Y-1395508D01*
X3734468Y-1395508D02*
X3743991Y-1405031D01*
X3743991Y-1405031D02*
X3753515Y-1424079D01*
X3753515Y-1424079D02*
X3753515Y-1443127D01*
X3753515Y-1443127D02*
X3743991Y-1471698D01*
X3743991Y-1471698D02*
X3629706Y-1585984D01*
X3629706Y-1585984D02*
X3753515Y-1585984D01*
X3991610Y-1585984D02*
X3991610Y-1385984D01*
X4077325Y-1585984D02*
X4077325Y-1481222D01*
X4077325Y-1481222D02*
X4067801Y-1462174D01*
X4067801Y-1462174D02*
X4048753Y-1452650D01*
X4048753Y-1452650D02*
X4020182Y-1452650D01*
X4020182Y-1452650D02*
X4001134Y-1462174D01*
X4001134Y-1462174D02*
X3991610Y-1471698D01*
X4201134Y-1585984D02*
X4182087Y-1576460D01*
X4182087Y-1576460D02*
X4172563Y-1566936D01*
X4172563Y-1566936D02*
X4163039Y-1547888D01*
X4163039Y-1547888D02*
X4163039Y-1490746D01*
X4163039Y-1490746D02*
X4172563Y-1471698D01*
X4172563Y-1471698D02*
X4182087Y-1462174D01*
X4182087Y-1462174D02*
X4201134Y-1452650D01*
X4201134Y-1452650D02*
X4229706Y-1452650D01*
X4229706Y-1452650D02*
X4248753Y-1462174D01*
X4248753Y-1462174D02*
X4258277Y-1471698D01*
X4258277Y-1471698D02*
X4267801Y-1490746D01*
X4267801Y-1490746D02*
X4267801Y-1547888D01*
X4267801Y-1547888D02*
X4258277Y-1566936D01*
X4258277Y-1566936D02*
X4248753Y-1576460D01*
X4248753Y-1576460D02*
X4229706Y-1585984D01*
X4229706Y-1585984D02*
X4201134Y-1585984D01*
X4382087Y-1585984D02*
X4363039Y-1576460D01*
X4363039Y-1576460D02*
X4353515Y-1557412D01*
X4353515Y-1557412D02*
X4353515Y-1385984D01*
X4534468Y-1576460D02*
X4515420Y-1585984D01*
X4515420Y-1585984D02*
X4477325Y-1585984D01*
X4477325Y-1585984D02*
X4458277Y-1576460D01*
X4458277Y-1576460D02*
X4448753Y-1557412D01*
X4448753Y-1557412D02*
X4448753Y-1481222D01*
X4448753Y-1481222D02*
X4458277Y-1462174D01*
X4458277Y-1462174D02*
X4477325Y-1452650D01*
X4477325Y-1452650D02*
X4515420Y-1452650D01*
X4515420Y-1452650D02*
X4534468Y-1462174D01*
X4534468Y-1462174D02*
X4543992Y-1481222D01*
X4543992Y-1481222D02*
X4543992Y-1500269D01*
X4543992Y-1500269D02*
X4448753Y-1519317D01*
X4620182Y-1576460D02*
X4639230Y-1585984D01*
X4639230Y-1585984D02*
X4677325Y-1585984D01*
X4677325Y-1585984D02*
X4696373Y-1576460D01*
X4696373Y-1576460D02*
X4705896Y-1557412D01*
X4705896Y-1557412D02*
X4705896Y-1547888D01*
X4705896Y-1547888D02*
X4696373Y-1528841D01*
X4696373Y-1528841D02*
X4677325Y-1519317D01*
X4677325Y-1519317D02*
X4648753Y-1519317D01*
X4648753Y-1519317D02*
X4629706Y-1509793D01*
X4629706Y-1509793D02*
X4620182Y-1490746D01*
X4620182Y-1490746D02*
X4620182Y-1481222D01*
X4620182Y-1481222D02*
X4629706Y-1462174D01*
X4629706Y-1462174D02*
X4648753Y-1452650D01*
X4648753Y-1452650D02*
X4677325Y-1452650D01*
X4677325Y-1452650D02*
X4696373Y-1462174D01*
X4772563Y-1662174D02*
X4782087Y-1652650D01*
X4782087Y-1652650D02*
X4801134Y-1624079D01*
X4801134Y-1624079D02*
X4810658Y-1605031D01*
X4810658Y-1605031D02*
X4820182Y-1576460D01*
X4820182Y-1576460D02*
X4829706Y-1528841D01*
X4829706Y-1528841D02*
X4829706Y-1490746D01*
X4829706Y-1490746D02*
X4820182Y-1443127D01*
X4820182Y-1443127D02*
X4810658Y-1414555D01*
X4810658Y-1414555D02*
X4801134Y-1395508D01*
X4801134Y-1395508D02*
X4782087Y-1366936D01*
X4782087Y-1366936D02*
X4772563Y-1357412D01*
D12*
X-52500Y-1808500D02*
X-2500Y-1758500D01*
X-52500Y-1708500D01*
X-102500Y-1758500D01*
X-52500Y-1808500D01*
D11*
X363039Y-1849984D02*
X248753Y-1849984D01*
X305896Y-1849984D02*
X305896Y-1649984D01*
X305896Y-1649984D02*
X286848Y-1678555D01*
X286848Y-1678555D02*
X267801Y-1697603D01*
X267801Y-1697603D02*
X248753Y-1707127D01*
X448753Y-1830936D02*
X458277Y-1840460D01*
X458277Y-1840460D02*
X448753Y-1849984D01*
X448753Y-1849984D02*
X439229Y-1840460D01*
X439229Y-1840460D02*
X448753Y-1830936D01*
X448753Y-1830936D02*
X448753Y-1849984D01*
X582086Y-1649984D02*
X601134Y-1649984D01*
X601134Y-1649984D02*
X620182Y-1659508D01*
X620182Y-1659508D02*
X629705Y-1669031D01*
X629705Y-1669031D02*
X639229Y-1688079D01*
X639229Y-1688079D02*
X648753Y-1726174D01*
X648753Y-1726174D02*
X648753Y-1773793D01*
X648753Y-1773793D02*
X639229Y-1811888D01*
X639229Y-1811888D02*
X629705Y-1830936D01*
X629705Y-1830936D02*
X620182Y-1840460D01*
X620182Y-1840460D02*
X601134Y-1849984D01*
X601134Y-1849984D02*
X582086Y-1849984D01*
X582086Y-1849984D02*
X563039Y-1840460D01*
X563039Y-1840460D02*
X553515Y-1830936D01*
X553515Y-1830936D02*
X543991Y-1811888D01*
X543991Y-1811888D02*
X534467Y-1773793D01*
X534467Y-1773793D02*
X534467Y-1726174D01*
X534467Y-1726174D02*
X543991Y-1688079D01*
X543991Y-1688079D02*
X553515Y-1669031D01*
X553515Y-1669031D02*
X563039Y-1659508D01*
X563039Y-1659508D02*
X582086Y-1649984D01*
X772562Y-1649984D02*
X791610Y-1649984D01*
X791610Y-1649984D02*
X810658Y-1659508D01*
X810658Y-1659508D02*
X820182Y-1669031D01*
X820182Y-1669031D02*
X829705Y-1688079D01*
X829705Y-1688079D02*
X839229Y-1726174D01*
X839229Y-1726174D02*
X839229Y-1773793D01*
X839229Y-1773793D02*
X829705Y-1811888D01*
X829705Y-1811888D02*
X820182Y-1830936D01*
X820182Y-1830936D02*
X810658Y-1840460D01*
X810658Y-1840460D02*
X791610Y-1849984D01*
X791610Y-1849984D02*
X772562Y-1849984D01*
X772562Y-1849984D02*
X753515Y-1840460D01*
X753515Y-1840460D02*
X743991Y-1830936D01*
X743991Y-1830936D02*
X734467Y-1811888D01*
X734467Y-1811888D02*
X724943Y-1773793D01*
X724943Y-1773793D02*
X724943Y-1726174D01*
X724943Y-1726174D02*
X734467Y-1688079D01*
X734467Y-1688079D02*
X743991Y-1669031D01*
X743991Y-1669031D02*
X753515Y-1659508D01*
X753515Y-1659508D02*
X772562Y-1649984D01*
X963039Y-1649984D02*
X982086Y-1649984D01*
X982086Y-1649984D02*
X1001134Y-1659508D01*
X1001134Y-1659508D02*
X1010658Y-1669031D01*
X1010658Y-1669031D02*
X1020182Y-1688079D01*
X1020182Y-1688079D02*
X1029705Y-1726174D01*
X1029705Y-1726174D02*
X1029705Y-1773793D01*
X1029705Y-1773793D02*
X1020182Y-1811888D01*
X1020182Y-1811888D02*
X1010658Y-1830936D01*
X1010658Y-1830936D02*
X1001134Y-1840460D01*
X1001134Y-1840460D02*
X982086Y-1849984D01*
X982086Y-1849984D02*
X963039Y-1849984D01*
X963039Y-1849984D02*
X943991Y-1840460D01*
X943991Y-1840460D02*
X934467Y-1830936D01*
X934467Y-1830936D02*
X924943Y-1811888D01*
X924943Y-1811888D02*
X915420Y-1773793D01*
X915420Y-1773793D02*
X915420Y-1726174D01*
X915420Y-1726174D02*
X924943Y-1688079D01*
X924943Y-1688079D02*
X934467Y-1669031D01*
X934467Y-1669031D02*
X943991Y-1659508D01*
X943991Y-1659508D02*
X963039Y-1649984D01*
X1115420Y-1849984D02*
X1115420Y-1716650D01*
X1115420Y-1735698D02*
X1124944Y-1726174D01*
X1124944Y-1726174D02*
X1143991Y-1716650D01*
X1143991Y-1716650D02*
X1172563Y-1716650D01*
X1172563Y-1716650D02*
X1191610Y-1726174D01*
X1191610Y-1726174D02*
X1201134Y-1745222D01*
X1201134Y-1745222D02*
X1201134Y-1849984D01*
X1201134Y-1745222D02*
X1210658Y-1726174D01*
X1210658Y-1726174D02*
X1229705Y-1716650D01*
X1229705Y-1716650D02*
X1258277Y-1716650D01*
X1258277Y-1716650D02*
X1277325Y-1726174D01*
X1277325Y-1726174D02*
X1286848Y-1745222D01*
X1286848Y-1745222D02*
X1286848Y-1849984D01*
X1382086Y-1849984D02*
X1382086Y-1716650D01*
X1382086Y-1735698D02*
X1391610Y-1726174D01*
X1391610Y-1726174D02*
X1410658Y-1716650D01*
X1410658Y-1716650D02*
X1439229Y-1716650D01*
X1439229Y-1716650D02*
X1458277Y-1726174D01*
X1458277Y-1726174D02*
X1467801Y-1745222D01*
X1467801Y-1745222D02*
X1467801Y-1849984D01*
X1467801Y-1745222D02*
X1477324Y-1726174D01*
X1477324Y-1726174D02*
X1496372Y-1716650D01*
X1496372Y-1716650D02*
X1524943Y-1716650D01*
X1524943Y-1716650D02*
X1543991Y-1726174D01*
X1543991Y-1726174D02*
X1553515Y-1745222D01*
X1553515Y-1745222D02*
X1553515Y-1849984D01*
X1943991Y-1640460D02*
X1772563Y-1897603D01*
X2201134Y-1649984D02*
X2220182Y-1649984D01*
X2220182Y-1649984D02*
X2239229Y-1659508D01*
X2239229Y-1659508D02*
X2248753Y-1669031D01*
X2248753Y-1669031D02*
X2258277Y-1688079D01*
X2258277Y-1688079D02*
X2267801Y-1726174D01*
X2267801Y-1726174D02*
X2267801Y-1773793D01*
X2267801Y-1773793D02*
X2258277Y-1811888D01*
X2258277Y-1811888D02*
X2248753Y-1830936D01*
X2248753Y-1830936D02*
X2239229Y-1840460D01*
X2239229Y-1840460D02*
X2220182Y-1849984D01*
X2220182Y-1849984D02*
X2201134Y-1849984D01*
X2201134Y-1849984D02*
X2182087Y-1840460D01*
X2182087Y-1840460D02*
X2172563Y-1830936D01*
X2172563Y-1830936D02*
X2163039Y-1811888D01*
X2163039Y-1811888D02*
X2153515Y-1773793D01*
X2153515Y-1773793D02*
X2153515Y-1726174D01*
X2153515Y-1726174D02*
X2163039Y-1688079D01*
X2163039Y-1688079D02*
X2172563Y-1669031D01*
X2172563Y-1669031D02*
X2182087Y-1659508D01*
X2182087Y-1659508D02*
X2201134Y-1649984D01*
X2353515Y-1830936D02*
X2363039Y-1840460D01*
X2363039Y-1840460D02*
X2353515Y-1849984D01*
X2353515Y-1849984D02*
X2343991Y-1840460D01*
X2343991Y-1840460D02*
X2353515Y-1830936D01*
X2353515Y-1830936D02*
X2353515Y-1849984D01*
X2486848Y-1649984D02*
X2505896Y-1649984D01*
X2505896Y-1649984D02*
X2524944Y-1659508D01*
X2524944Y-1659508D02*
X2534468Y-1669031D01*
X2534468Y-1669031D02*
X2543991Y-1688079D01*
X2543991Y-1688079D02*
X2553515Y-1726174D01*
X2553515Y-1726174D02*
X2553515Y-1773793D01*
X2553515Y-1773793D02*
X2543991Y-1811888D01*
X2543991Y-1811888D02*
X2534468Y-1830936D01*
X2534468Y-1830936D02*
X2524944Y-1840460D01*
X2524944Y-1840460D02*
X2505896Y-1849984D01*
X2505896Y-1849984D02*
X2486848Y-1849984D01*
X2486848Y-1849984D02*
X2467801Y-1840460D01*
X2467801Y-1840460D02*
X2458277Y-1830936D01*
X2458277Y-1830936D02*
X2448753Y-1811888D01*
X2448753Y-1811888D02*
X2439229Y-1773793D01*
X2439229Y-1773793D02*
X2439229Y-1726174D01*
X2439229Y-1726174D02*
X2448753Y-1688079D01*
X2448753Y-1688079D02*
X2458277Y-1669031D01*
X2458277Y-1669031D02*
X2467801Y-1659508D01*
X2467801Y-1659508D02*
X2486848Y-1649984D01*
X2620182Y-1649984D02*
X2743991Y-1649984D01*
X2743991Y-1649984D02*
X2677325Y-1726174D01*
X2677325Y-1726174D02*
X2705896Y-1726174D01*
X2705896Y-1726174D02*
X2724944Y-1735698D01*
X2724944Y-1735698D02*
X2734468Y-1745222D01*
X2734468Y-1745222D02*
X2743991Y-1764269D01*
X2743991Y-1764269D02*
X2743991Y-1811888D01*
X2743991Y-1811888D02*
X2734468Y-1830936D01*
X2734468Y-1830936D02*
X2724944Y-1840460D01*
X2724944Y-1840460D02*
X2705896Y-1849984D01*
X2705896Y-1849984D02*
X2648753Y-1849984D01*
X2648753Y-1849984D02*
X2629706Y-1840460D01*
X2629706Y-1840460D02*
X2620182Y-1830936D01*
X2839229Y-1849984D02*
X2877325Y-1849984D01*
X2877325Y-1849984D02*
X2896372Y-1840460D01*
X2896372Y-1840460D02*
X2905896Y-1830936D01*
X2905896Y-1830936D02*
X2924944Y-1802365D01*
X2924944Y-1802365D02*
X2934467Y-1764269D01*
X2934467Y-1764269D02*
X2934467Y-1688079D01*
X2934467Y-1688079D02*
X2924944Y-1669031D01*
X2924944Y-1669031D02*
X2915420Y-1659508D01*
X2915420Y-1659508D02*
X2896372Y-1649984D01*
X2896372Y-1649984D02*
X2858277Y-1649984D01*
X2858277Y-1649984D02*
X2839229Y-1659508D01*
X2839229Y-1659508D02*
X2829706Y-1669031D01*
X2829706Y-1669031D02*
X2820182Y-1688079D01*
X2820182Y-1688079D02*
X2820182Y-1735698D01*
X2820182Y-1735698D02*
X2829706Y-1754746D01*
X2829706Y-1754746D02*
X2839229Y-1764269D01*
X2839229Y-1764269D02*
X2858277Y-1773793D01*
X2858277Y-1773793D02*
X2896372Y-1773793D01*
X2896372Y-1773793D02*
X2915420Y-1764269D01*
X2915420Y-1764269D02*
X2924944Y-1754746D01*
X2924944Y-1754746D02*
X2934467Y-1735698D01*
X3105896Y-1716650D02*
X3105896Y-1849984D01*
X3058277Y-1640460D02*
X3010658Y-1783317D01*
X3010658Y-1783317D02*
X3134467Y-1783317D01*
X3201134Y-1649984D02*
X3201134Y-1688079D01*
X3277325Y-1649984D02*
X3277325Y-1688079D01*
X3572563Y-1926174D02*
X3563039Y-1916650D01*
X3563039Y-1916650D02*
X3543991Y-1888079D01*
X3543991Y-1888079D02*
X3534468Y-1869031D01*
X3534468Y-1869031D02*
X3524944Y-1840460D01*
X3524944Y-1840460D02*
X3515420Y-1792841D01*
X3515420Y-1792841D02*
X3515420Y-1754746D01*
X3515420Y-1754746D02*
X3524944Y-1707127D01*
X3524944Y-1707127D02*
X3534468Y-1678555D01*
X3534468Y-1678555D02*
X3543991Y-1659508D01*
X3543991Y-1659508D02*
X3563039Y-1630936D01*
X3563039Y-1630936D02*
X3572563Y-1621412D01*
X3677325Y-1735698D02*
X3658277Y-1726174D01*
X3658277Y-1726174D02*
X3648753Y-1716650D01*
X3648753Y-1716650D02*
X3639229Y-1697603D01*
X3639229Y-1697603D02*
X3639229Y-1688079D01*
X3639229Y-1688079D02*
X3648753Y-1669031D01*
X3648753Y-1669031D02*
X3658277Y-1659508D01*
X3658277Y-1659508D02*
X3677325Y-1649984D01*
X3677325Y-1649984D02*
X3715420Y-1649984D01*
X3715420Y-1649984D02*
X3734468Y-1659508D01*
X3734468Y-1659508D02*
X3743991Y-1669031D01*
X3743991Y-1669031D02*
X3753515Y-1688079D01*
X3753515Y-1688079D02*
X3753515Y-1697603D01*
X3753515Y-1697603D02*
X3743991Y-1716650D01*
X3743991Y-1716650D02*
X3734468Y-1726174D01*
X3734468Y-1726174D02*
X3715420Y-1735698D01*
X3715420Y-1735698D02*
X3677325Y-1735698D01*
X3677325Y-1735698D02*
X3658277Y-1745222D01*
X3658277Y-1745222D02*
X3648753Y-1754746D01*
X3648753Y-1754746D02*
X3639229Y-1773793D01*
X3639229Y-1773793D02*
X3639229Y-1811888D01*
X3639229Y-1811888D02*
X3648753Y-1830936D01*
X3648753Y-1830936D02*
X3658277Y-1840460D01*
X3658277Y-1840460D02*
X3677325Y-1849984D01*
X3677325Y-1849984D02*
X3715420Y-1849984D01*
X3715420Y-1849984D02*
X3734468Y-1840460D01*
X3734468Y-1840460D02*
X3743991Y-1830936D01*
X3743991Y-1830936D02*
X3753515Y-1811888D01*
X3753515Y-1811888D02*
X3753515Y-1773793D01*
X3753515Y-1773793D02*
X3743991Y-1754746D01*
X3743991Y-1754746D02*
X3734468Y-1745222D01*
X3734468Y-1745222D02*
X3715420Y-1735698D01*
X3991610Y-1849984D02*
X3991610Y-1649984D01*
X4077325Y-1849984D02*
X4077325Y-1745222D01*
X4077325Y-1745222D02*
X4067801Y-1726174D01*
X4067801Y-1726174D02*
X4048753Y-1716650D01*
X4048753Y-1716650D02*
X4020182Y-1716650D01*
X4020182Y-1716650D02*
X4001134Y-1726174D01*
X4001134Y-1726174D02*
X3991610Y-1735698D01*
X4201134Y-1849984D02*
X4182087Y-1840460D01*
X4182087Y-1840460D02*
X4172563Y-1830936D01*
X4172563Y-1830936D02*
X4163039Y-1811888D01*
X4163039Y-1811888D02*
X4163039Y-1754746D01*
X4163039Y-1754746D02*
X4172563Y-1735698D01*
X4172563Y-1735698D02*
X4182087Y-1726174D01*
X4182087Y-1726174D02*
X4201134Y-1716650D01*
X4201134Y-1716650D02*
X4229706Y-1716650D01*
X4229706Y-1716650D02*
X4248753Y-1726174D01*
X4248753Y-1726174D02*
X4258277Y-1735698D01*
X4258277Y-1735698D02*
X4267801Y-1754746D01*
X4267801Y-1754746D02*
X4267801Y-1811888D01*
X4267801Y-1811888D02*
X4258277Y-1830936D01*
X4258277Y-1830936D02*
X4248753Y-1840460D01*
X4248753Y-1840460D02*
X4229706Y-1849984D01*
X4229706Y-1849984D02*
X4201134Y-1849984D01*
X4382087Y-1849984D02*
X4363039Y-1840460D01*
X4363039Y-1840460D02*
X4353515Y-1821412D01*
X4353515Y-1821412D02*
X4353515Y-1649984D01*
X4534468Y-1840460D02*
X4515420Y-1849984D01*
X4515420Y-1849984D02*
X4477325Y-1849984D01*
X4477325Y-1849984D02*
X4458277Y-1840460D01*
X4458277Y-1840460D02*
X4448753Y-1821412D01*
X4448753Y-1821412D02*
X4448753Y-1745222D01*
X4448753Y-1745222D02*
X4458277Y-1726174D01*
X4458277Y-1726174D02*
X4477325Y-1716650D01*
X4477325Y-1716650D02*
X4515420Y-1716650D01*
X4515420Y-1716650D02*
X4534468Y-1726174D01*
X4534468Y-1726174D02*
X4543992Y-1745222D01*
X4543992Y-1745222D02*
X4543992Y-1764269D01*
X4543992Y-1764269D02*
X4448753Y-1783317D01*
X4620182Y-1840460D02*
X4639230Y-1849984D01*
X4639230Y-1849984D02*
X4677325Y-1849984D01*
X4677325Y-1849984D02*
X4696373Y-1840460D01*
X4696373Y-1840460D02*
X4705896Y-1821412D01*
X4705896Y-1821412D02*
X4705896Y-1811888D01*
X4705896Y-1811888D02*
X4696373Y-1792841D01*
X4696373Y-1792841D02*
X4677325Y-1783317D01*
X4677325Y-1783317D02*
X4648753Y-1783317D01*
X4648753Y-1783317D02*
X4629706Y-1773793D01*
X4629706Y-1773793D02*
X4620182Y-1754746D01*
X4620182Y-1754746D02*
X4620182Y-1745222D01*
X4620182Y-1745222D02*
X4629706Y-1726174D01*
X4629706Y-1726174D02*
X4648753Y-1716650D01*
X4648753Y-1716650D02*
X4677325Y-1716650D01*
X4677325Y-1716650D02*
X4696373Y-1726174D01*
X4772563Y-1926174D02*
X4782087Y-1916650D01*
X4782087Y-1916650D02*
X4801134Y-1888079D01*
X4801134Y-1888079D02*
X4810658Y-1869031D01*
X4810658Y-1869031D02*
X4820182Y-1840460D01*
X4820182Y-1840460D02*
X4829706Y-1792841D01*
X4829706Y-1792841D02*
X4829706Y-1754746D01*
X4829706Y-1754746D02*
X4820182Y-1707127D01*
X4820182Y-1707127D02*
X4810658Y-1678555D01*
X4810658Y-1678555D02*
X4801134Y-1659508D01*
X4801134Y-1659508D02*
X4782087Y-1630936D01*
X4782087Y-1630936D02*
X4772563Y-1621412D01*
M02*
