G04*
G04 #@! TF.GenerationSoftware,Altium Limited,Altium Designer,24.0.1 (36)*
G04*
G04 Layer_Physical_Order=4*
G04 Layer_Color=16711680*
%FSLAX43Y43*%
%MOMM*%
G71*
G04*
G04 #@! TF.SameCoordinates,D2B2AA1F-A82D-4DD2-BA18-01BE398CF795*
G04*
G04*
G04 #@! TF.FilePolarity,Positive*
G04*
G01*
G75*
%ADD11C,0.200*%
%ADD12C,0.100*%
%ADD17C,0.500*%
%ADD42C,0.090*%
%ADD43R,0.510X0.560*%
%ADD44R,0.510X0.700*%
%ADD45R,0.700X0.510*%
%ADD46C,0.400*%
%ADD49R,0.640X0.890*%
%ADD62R,0.890X0.640*%
%ADD63R,0.560X0.510*%
%ADD65R,0.350X0.350*%
%ADD69C,0.150*%
%ADD70C,0.300*%
%ADD71C,0.250*%
%ADD73C,0.500*%
%ADD76C,0.160*%
%ADD77C,0.110*%
%ADD81C,0.175*%
%ADD84C,0.400*%
%ADD92O,1.000X1.300*%
%ADD93C,0.550*%
%ADD94C,0.700*%
%ADD95C,0.090*%
%ADD96R,1.400X1.000*%
%ADD97R,0.350X0.350*%
%ADD98R,1.000X0.640*%
%ADD99R,1.060X0.540*%
%ADD100R,0.400X0.500*%
%ADD101R,0.500X0.400*%
%ADD102C,1.000*%
G36*
X119490Y510D02*
X1000D01*
X1000Y510D01*
X1000Y510D01*
X952Y510D01*
X857Y529D01*
X768Y566D01*
X688Y619D01*
X619Y687D01*
X566Y768D01*
X529Y857D01*
X510Y952D01*
Y1000D01*
X510Y78600D01*
Y78648D01*
X529Y78743D01*
X566Y78832D01*
X619Y78912D01*
X688Y78981D01*
X768Y79034D01*
X857Y79071D01*
X952Y79090D01*
X1000Y79090D01*
X119490D01*
Y510D01*
D02*
G37*
%LPC*%
G36*
X29642Y63182D02*
X29495Y63153D01*
X29371Y63070D01*
X29288Y62946D01*
X29259Y62800D01*
X29288Y62654D01*
X29371Y62530D01*
X29438Y62485D01*
X29435Y62367D01*
X29361Y62317D01*
X29278Y62193D01*
X29249Y62047D01*
X29278Y61901D01*
X29361Y61776D01*
X29485Y61694D01*
X29631Y61664D01*
X29778Y61694D01*
X29902Y61776D01*
X29985Y61901D01*
X30014Y62047D01*
X29985Y62193D01*
X29902Y62317D01*
X29835Y62362D01*
X29838Y62480D01*
X29912Y62530D01*
X29995Y62654D01*
X30024Y62800D01*
X29995Y62946D01*
X29912Y63070D01*
X29788Y63153D01*
X29642Y63182D01*
D02*
G37*
G36*
X72735Y68627D02*
X43114D01*
X42999Y68580D01*
X32840Y58421D01*
X32741Y58463D01*
X32718Y58576D01*
X32635Y58700D01*
X32511Y58783D01*
X32365Y58812D01*
X32219Y58783D01*
X32095Y58700D01*
X32012Y58576D01*
X32010Y58566D01*
X32006Y58560D01*
X32002Y58541D01*
X25808Y52347D01*
X25731Y52232D01*
X25704Y52095D01*
Y47218D01*
X25604Y47187D01*
X25577Y47227D01*
X25529Y47260D01*
Y47673D01*
X25529Y47673D01*
X25513Y47751D01*
X25469Y47817D01*
X25469Y47817D01*
X25267Y48019D01*
X25201Y48063D01*
X25123Y48079D01*
X22479D01*
X22123Y48434D01*
X22057Y48478D01*
X21979Y48494D01*
X19135D01*
X19102Y48542D01*
X18987Y48620D01*
X18850Y48647D01*
X18713Y48620D01*
X18598Y48542D01*
X18520Y48427D01*
X18493Y48290D01*
X18520Y48153D01*
X18598Y48038D01*
X18713Y47960D01*
X18850Y47933D01*
X18987Y47960D01*
X19102Y48038D01*
X19135Y48086D01*
X21895D01*
X22250Y47731D01*
X22250Y47731D01*
X22316Y47687D01*
X22394Y47671D01*
X22394Y47671D01*
X25039D01*
X25121Y47589D01*
Y47260D01*
X25073Y47227D01*
X24995Y47112D01*
X24968Y46975D01*
X24995Y46838D01*
X25073Y46723D01*
X25188Y46645D01*
X25325Y46618D01*
X25462Y46645D01*
X25577Y46723D01*
X25604Y46763D01*
X25704Y46732D01*
Y46083D01*
X25236Y45616D01*
X25159Y45500D01*
X25132Y45364D01*
Y39062D01*
X25063Y38992D01*
X24985Y38877D01*
X24958Y38740D01*
X24985Y38603D01*
X25015Y38559D01*
X25019Y38452D01*
X21857Y35290D01*
X21539Y34973D01*
X21490Y34982D01*
X21344Y34953D01*
X21220Y34870D01*
X21137Y34746D01*
X21108Y34600D01*
X21137Y34454D01*
X21153Y34429D01*
X21145Y34329D01*
X21145Y34329D01*
X21145Y34329D01*
Y33429D01*
X21855D01*
Y34329D01*
X21855Y34329D01*
X21855D01*
X21827Y34429D01*
X21843Y34454D01*
X21872Y34600D01*
X21843Y34746D01*
X21815Y34789D01*
X22039Y35013D01*
X22264D01*
X22294Y34913D01*
X22230Y34870D01*
X22147Y34746D01*
X22118Y34600D01*
X22147Y34454D01*
X22163Y34429D01*
X22110Y34329D01*
X22045D01*
Y33429D01*
X22755D01*
Y33720D01*
X22869D01*
X23150Y33438D01*
X23265Y33391D01*
X26436D01*
X26490Y33291D01*
X26470Y33262D01*
X26443Y33125D01*
X26470Y32988D01*
X26548Y32873D01*
X26663Y32795D01*
X26800Y32768D01*
X26937Y32795D01*
X27052Y32873D01*
X27130Y32988D01*
X27157Y33125D01*
X27130Y33262D01*
X27110Y33291D01*
X27164Y33391D01*
X37263D01*
X38551Y32102D01*
X38666Y32055D01*
X48438D01*
X48553Y32102D01*
X50015Y33564D01*
X50017Y33570D01*
X50060Y33582D01*
X50133Y33589D01*
X50242Y33516D01*
X50389Y33487D01*
X50535Y33516D01*
X50659Y33599D01*
X50742Y33723D01*
X50771Y33869D01*
X50742Y34015D01*
X50659Y34139D01*
X50535Y34222D01*
X50495Y34230D01*
X50462Y34339D01*
X51296Y35172D01*
X54815D01*
X54930Y35220D01*
X55198Y35488D01*
X55246Y35603D01*
Y35977D01*
X55293Y36009D01*
X55360Y36108D01*
X55383Y36225D01*
X55364Y36321D01*
X55419Y36421D01*
X55461D01*
X55559Y36440D01*
X55642Y36495D01*
X55768Y36622D01*
X56088D01*
X56186Y36641D01*
X56268Y36696D01*
X57117Y37545D01*
X57666D01*
X57708Y37517D01*
X57825Y37494D01*
X57942Y37517D01*
X58041Y37584D01*
X58108Y37683D01*
X58119Y37741D01*
X58202Y37810D01*
X58228Y37813D01*
X58492D01*
X58545Y37835D01*
X58632Y37771D01*
X58635Y37764D01*
X58657Y37653D01*
X58723Y37554D01*
X58822Y37487D01*
X58939Y37464D01*
X59056Y37487D01*
X59156Y37554D01*
X59222Y37653D01*
X59245Y37770D01*
X59228Y37858D01*
X59252Y37923D01*
X59288Y37968D01*
X59376Y38004D01*
X59405Y38033D01*
X59475Y38019D01*
X59592Y38042D01*
X59691Y38109D01*
X59758Y38208D01*
X59773Y38287D01*
X59861Y38335D01*
X59878Y38338D01*
X59908Y38317D01*
X60025Y38294D01*
X60028Y38295D01*
X60226Y38097D01*
X60284Y38058D01*
X60323Y38050D01*
X60384Y37959D01*
X60483Y37892D01*
X60573Y37875D01*
X60644Y37800D01*
X60667Y37683D01*
X60734Y37584D01*
X60811Y37532D01*
X60788Y37432D01*
X60654D01*
X60593Y37420D01*
X60542Y37386D01*
X59541Y36385D01*
X59507Y36334D01*
X59495Y36273D01*
Y34613D01*
X59068Y34187D01*
X59068Y34187D01*
X58015Y33133D01*
X57980Y33082D01*
X57968Y33021D01*
X57980Y32961D01*
X58015Y32910D01*
X58066Y32875D01*
X58126Y32863D01*
X58187Y32875D01*
X58238Y32910D01*
X59292Y33963D01*
X59292Y33963D01*
X59765Y34436D01*
X59799Y34487D01*
X59811Y34548D01*
Y36208D01*
X60719Y37116D01*
X61680D01*
X61693Y37099D01*
X61669Y36963D01*
X61659Y36956D01*
X61627Y36909D01*
X61249D01*
X61188Y36897D01*
X61137Y36863D01*
X60364Y36089D01*
X60329Y36038D01*
X60317Y35978D01*
Y34791D01*
X57866Y32339D01*
X57831Y32288D01*
X57819Y32227D01*
X57831Y32167D01*
X57866Y32116D01*
X57917Y32081D01*
X57977Y32069D01*
X58038Y32081D01*
X58054Y32092D01*
X58118Y32014D01*
X57640Y31537D01*
X57606Y31485D01*
X57594Y31425D01*
X57606Y31365D01*
X57640Y31313D01*
X57691Y31279D01*
X57752Y31267D01*
X57812Y31279D01*
X57863Y31313D01*
X60213Y33662D01*
X60305Y33613D01*
X60300Y33588D01*
Y33296D01*
X57665Y30661D01*
X57631Y30610D01*
X57619Y30550D01*
X57631Y30489D01*
X57665Y30438D01*
X57717Y30404D01*
X57777Y30391D01*
X57838Y30404D01*
X57889Y30438D01*
X60569Y33118D01*
X60604Y33170D01*
X60616Y33230D01*
Y33417D01*
X60716Y33447D01*
X60757Y33385D01*
X60856Y33319D01*
X60973Y33295D01*
X61091Y33319D01*
X61190Y33385D01*
X61256Y33484D01*
X61279Y33601D01*
X61256Y33718D01*
X61190Y33818D01*
X61108Y33873D01*
X61075Y33981D01*
X61637Y34543D01*
X61671Y34594D01*
X61683Y34655D01*
Y35284D01*
X62270Y35870D01*
X62370Y35829D01*
Y34566D01*
X61413Y33610D01*
X61379Y33559D01*
X61367Y33498D01*
Y31919D01*
X61379Y31858D01*
X61413Y31807D01*
X61465Y31773D01*
X61525Y31761D01*
X61585Y31773D01*
X61637Y31807D01*
X61671Y31858D01*
X61683Y31919D01*
Y33433D01*
X62639Y34389D01*
X62674Y34440D01*
X62686Y34501D01*
Y35835D01*
X62987Y36136D01*
X62988Y36137D01*
X63092Y36123D01*
X63159Y36024D01*
X63217Y35985D01*
Y34498D01*
X61870Y33151D01*
X61835Y33100D01*
X61823Y33039D01*
Y31469D01*
X61835Y31408D01*
X61870Y31357D01*
X61921Y31323D01*
X61981Y31311D01*
X62042Y31323D01*
X62093Y31357D01*
X62127Y31408D01*
X62139Y31469D01*
Y32974D01*
X63487Y34321D01*
X63521Y34372D01*
X63533Y34433D01*
Y35794D01*
X63633Y35836D01*
X63896Y35573D01*
Y34387D01*
X63698Y34190D01*
X62672Y33164D01*
X62625Y33049D01*
Y24149D01*
X62672Y24034D01*
X62787Y23987D01*
X62847Y24012D01*
X62872Y23951D01*
X62987Y23904D01*
X63047Y23929D01*
X63072Y23869D01*
X63187Y23821D01*
X63247Y23846D01*
X63272Y23786D01*
X63387Y23738D01*
X63447Y23763D01*
X63472Y23703D01*
X63587Y23655D01*
X63702Y23703D01*
X63749Y23818D01*
Y32650D01*
X64973Y33874D01*
X65021Y33989D01*
Y35713D01*
X65102Y35794D01*
X65150Y35909D01*
Y35909D01*
X65250Y35963D01*
X65258Y35957D01*
X65375Y35934D01*
X65492Y35957D01*
X65591Y36024D01*
X65658Y36123D01*
X65681Y36240D01*
X65660Y36346D01*
X65687Y36390D01*
X65726Y36435D01*
X65780Y36424D01*
X65897Y36447D01*
X65996Y36514D01*
X66037Y36575D01*
X66349D01*
X66367Y36572D01*
X66392D01*
X66544Y36420D01*
X66538Y36411D01*
X66521Y36324D01*
Y35991D01*
X66446D01*
Y35457D01*
X66446Y35441D01*
X66446Y35441D01*
X66473Y35369D01*
X66473Y35369D01*
Y34819D01*
X66521D01*
Y33083D01*
X66538Y32995D01*
X66588Y32921D01*
X66771Y32738D01*
Y31495D01*
X66400D01*
Y30979D01*
X66300Y30969D01*
X66282Y31061D01*
X66215Y31161D01*
X66116Y31227D01*
X65999Y31250D01*
X65882Y31227D01*
X65783Y31161D01*
X65716Y31061D01*
X65693Y30944D01*
X65716Y30827D01*
X65783Y30728D01*
X65882Y30662D01*
X65999Y30638D01*
X66116Y30662D01*
X66215Y30728D01*
X66282Y30827D01*
X66300Y30920D01*
X66400Y30910D01*
Y30655D01*
X67600D01*
Y31460D01*
X67600Y31495D01*
X67673Y31560D01*
X68340D01*
Y31580D01*
X68440Y31621D01*
X69029Y31032D01*
Y30850D01*
X69014Y30840D01*
X68984Y30795D01*
X68884D01*
X68854Y30840D01*
X68730Y30923D01*
X68584Y30952D01*
X68438Y30923D01*
X68314Y30840D01*
X68231Y30716D01*
X68202Y30569D01*
X68231Y30423D01*
X68314Y30299D01*
X68438Y30216D01*
X68584Y30187D01*
X68730Y30216D01*
X68854Y30299D01*
X68884Y30343D01*
X68984D01*
X69014Y30299D01*
X69138Y30216D01*
X69284Y30187D01*
X69430Y30216D01*
X69554Y30299D01*
X69637Y30423D01*
X69666Y30569D01*
X69637Y30716D01*
X69554Y30840D01*
X69539Y30850D01*
Y31138D01*
X69520Y31235D01*
X69464Y31318D01*
X68695Y32088D01*
X68612Y32143D01*
X68514Y32162D01*
X68340D01*
Y32270D01*
X67440D01*
Y31595D01*
X67440Y31560D01*
X67367Y31495D01*
X67229D01*
Y32833D01*
X67212Y32921D01*
X67162Y32995D01*
X66979Y33178D01*
Y33348D01*
X67079Y33378D01*
X67084Y33372D01*
X67183Y33305D01*
X67300Y33282D01*
X67417Y33305D01*
X67459Y33333D01*
X67615D01*
Y33313D01*
X67635D01*
Y33170D01*
X67440D01*
Y32460D01*
X68340D01*
Y33170D01*
X68145D01*
Y33313D01*
X68165D01*
Y33863D01*
X67615D01*
Y33843D01*
X67459D01*
X67417Y33871D01*
X67300Y33894D01*
X67183Y33871D01*
X67084Y33804D01*
X67079Y33798D01*
X66979Y33828D01*
Y34737D01*
X66980Y34737D01*
X67008Y34757D01*
X67116Y34712D01*
X67116Y34711D01*
Y34642D01*
X67116D01*
Y34092D01*
X67666D01*
Y34642D01*
X67666D01*
Y34711D01*
X67666D01*
Y35261D01*
X67553D01*
Y35460D01*
X67646Y35498D01*
X71437Y31707D01*
X77351D01*
X77432Y31691D01*
X77512Y31707D01*
X81149D01*
X82907Y29949D01*
X90348D01*
X96807Y36520D01*
X96950Y36659D01*
X97050Y36617D01*
X97050Y35071D01*
X97050Y35071D01*
X97050Y35071D01*
X97064Y35038D01*
X97082Y34994D01*
X97082Y34994D01*
X97082Y34994D01*
X97152Y34923D01*
X97152Y34923D01*
X97152Y34923D01*
X97193Y34907D01*
X97229Y34892D01*
X97229Y34892D01*
X97229Y34892D01*
X104309Y34894D01*
X104310Y34894D01*
X104388Y34920D01*
Y34927D01*
X105529Y36068D01*
X105561Y36145D01*
Y36147D01*
X105563D01*
X105639Y36178D01*
X105639Y36178D01*
X105906Y36445D01*
X106213D01*
Y36492D01*
X107228Y36492D01*
Y36470D01*
X107988D01*
Y36492D01*
X109033Y36492D01*
X109110Y36523D01*
X109110Y36523D01*
X109641Y37055D01*
X109678D01*
Y37092D01*
X111735Y39148D01*
X111766Y39225D01*
Y41495D01*
X111938D01*
Y42255D01*
X111766D01*
Y43335D01*
X111930D01*
Y44095D01*
X111766D01*
Y45145D01*
X111938D01*
Y45905D01*
X111766D01*
Y48559D01*
X111866Y48569D01*
X111867Y48563D01*
X111934Y48464D01*
X112033Y48397D01*
X112150Y48374D01*
X112267Y48397D01*
X112366Y48464D01*
X112433Y48563D01*
X112456Y48680D01*
X112433Y48797D01*
X112366Y48896D01*
X112267Y48963D01*
X112150Y48986D01*
X112033Y48963D01*
X111934Y48896D01*
X111867Y48797D01*
X111866Y48791D01*
X111766Y48801D01*
Y49075D01*
X111766Y49075D01*
X111735Y49152D01*
X109660Y51227D01*
X109660Y51227D01*
X109583Y51258D01*
X98183Y51258D01*
X98106Y51227D01*
X98075Y51150D01*
X98075Y49627D01*
X98083Y49608D01*
Y49570D01*
X98047Y49497D01*
X98039Y49487D01*
X97931D01*
X97814Y49370D01*
X97088D01*
Y48644D01*
X96120Y47677D01*
X68156D01*
X68155Y47677D01*
X67663D01*
X66643Y46657D01*
X66567Y46708D01*
X66450Y46731D01*
X66333Y46708D01*
X66234Y46641D01*
X66167Y46542D01*
X66144Y46425D01*
X66167Y46308D01*
X66218Y46232D01*
X65995Y46009D01*
X65903Y46048D01*
Y46469D01*
X65855Y46584D01*
X65073Y47366D01*
Y49139D01*
X70124Y54189D01*
X70171Y54304D01*
Y64140D01*
X70124Y64255D01*
X66168Y68210D01*
X66206Y68303D01*
X72668D01*
X77717Y63253D01*
Y61932D01*
X77425D01*
Y61193D01*
X78685D01*
Y61932D01*
X78042D01*
Y63320D01*
X77994Y63435D01*
X72850Y68580D01*
X72735Y68627D01*
D02*
G37*
G36*
X78830Y60244D02*
X78120D01*
Y59484D01*
X78146D01*
Y59370D01*
X78080Y59325D01*
X77997Y59201D01*
X77968Y59055D01*
X77997Y58909D01*
X78080Y58785D01*
X78204Y58702D01*
X78350Y58673D01*
X78496Y58702D01*
X78620Y58785D01*
X78703Y58909D01*
X78732Y59055D01*
X78703Y59201D01*
X78620Y59325D01*
X78554Y59370D01*
Y59484D01*
X78830D01*
Y60244D01*
D02*
G37*
G36*
X80825Y61932D02*
X79565D01*
Y61193D01*
X80003D01*
Y59430D01*
X79852D01*
Y58913D01*
X79598Y58659D01*
X79125D01*
X79125Y58659D01*
X79047Y58643D01*
X78981Y58599D01*
X78453Y58072D01*
X78375Y58087D01*
X78229Y58058D01*
X78105Y57975D01*
X78022Y57851D01*
X77993Y57705D01*
X78022Y57559D01*
X78105Y57435D01*
X78229Y57352D01*
X78375Y57323D01*
X78521Y57352D01*
X78645Y57435D01*
X78728Y57559D01*
X78757Y57705D01*
X78742Y57783D01*
X79209Y58251D01*
X79682D01*
X79721Y58219D01*
Y57649D01*
X79693Y57629D01*
X79622Y57604D01*
X79542Y57658D01*
X79425Y57681D01*
X79308Y57658D01*
X79209Y57591D01*
X79142Y57492D01*
X79119Y57375D01*
X79142Y57258D01*
X79209Y57159D01*
X79308Y57092D01*
X79378Y57078D01*
Y56977D01*
X79333Y56968D01*
X79234Y56901D01*
X79167Y56802D01*
X79144Y56685D01*
X79167Y56568D01*
X79234Y56469D01*
X79333Y56402D01*
X79450Y56379D01*
X79519Y56393D01*
X79613Y56299D01*
X79664Y56265D01*
X79724Y56253D01*
X79725D01*
Y55900D01*
X80625D01*
X80681Y55823D01*
Y55787D01*
X80625Y55710D01*
X79725D01*
Y55000D01*
X80625D01*
Y55151D01*
X80690D01*
X80768Y55167D01*
X80834Y55211D01*
X81029Y55406D01*
X81073Y55472D01*
X81089Y55550D01*
Y55832D01*
X81189Y55885D01*
X81208Y55872D01*
X81325Y55849D01*
X81442Y55872D01*
X81541Y55939D01*
X81608Y56038D01*
X81631Y56155D01*
X81608Y56272D01*
X81541Y56371D01*
X81442Y56438D01*
X81325Y56461D01*
X81208Y56438D01*
X81207Y56437D01*
X81122Y56486D01*
Y56823D01*
X81180Y56881D01*
X81306D01*
X81402Y56900D01*
X81635D01*
Y56800D01*
X82395D01*
Y57510D01*
X81635D01*
Y57410D01*
X81325D01*
X81279Y57448D01*
Y57655D01*
X81263Y57733D01*
X81219Y57799D01*
X81110Y57908D01*
X81096Y58000D01*
X81140Y58066D01*
X81156Y58144D01*
Y58530D01*
X81462D01*
Y59430D01*
X80752D01*
Y58845D01*
X80748Y58825D01*
Y58298D01*
X80721Y58280D01*
X80621Y58316D01*
Y58316D01*
X79962D01*
X79924Y58408D01*
X80045Y58530D01*
X80562D01*
Y59430D01*
X80411D01*
Y61193D01*
X80825D01*
Y61932D01*
D02*
G37*
G36*
X76995Y58935D02*
X76235D01*
Y58318D01*
X76235Y58244D01*
X76172Y58192D01*
X76171Y58191D01*
X76141Y58187D01*
X76071Y58233D01*
X75925Y58262D01*
X75779Y58233D01*
X75740Y58207D01*
X75640Y58235D01*
X75640Y58235D01*
X74880D01*
Y57788D01*
X74435Y57344D01*
X74391Y57278D01*
X74376Y57200D01*
Y57130D01*
X73925D01*
Y56420D01*
X74825D01*
Y57130D01*
X74825Y57130D01*
X74825D01*
X74876Y57207D01*
X75193Y57525D01*
X75640D01*
X75640Y57525D01*
Y57525D01*
X75740Y57553D01*
X75779Y57527D01*
X75925Y57498D01*
X76071Y57527D01*
X76195Y57610D01*
X76278Y57734D01*
X76307Y57880D01*
X76278Y58026D01*
X76225Y58106D01*
X76204Y58138D01*
X76204Y58138D01*
X76222Y58110D01*
X76204Y58139D01*
X76238Y58202D01*
X76255Y58224D01*
X76259Y58225D01*
X76311Y58225D01*
X76411Y58181D01*
Y58074D01*
X76427Y57996D01*
X76471Y57929D01*
X76593Y57807D01*
X76593Y57805D01*
X76622Y57659D01*
X76705Y57535D01*
X76829Y57452D01*
X76975Y57423D01*
X77121Y57452D01*
X77245Y57535D01*
X77328Y57659D01*
X77357Y57805D01*
X77328Y57951D01*
X77245Y58075D01*
X77121Y58158D01*
X77071Y58168D01*
X76995Y58225D01*
Y58935D01*
D02*
G37*
G36*
X77925Y57061D02*
X77808Y57038D01*
X77709Y56971D01*
X77642Y56872D01*
X77619Y56755D01*
X77642Y56638D01*
X77696Y56558D01*
Y56256D01*
X77713Y56168D01*
X77763Y56094D01*
X77953Y55903D01*
X77951Y55899D01*
X77904Y55665D01*
X77951Y55431D01*
X78083Y55232D01*
X78282Y55100D01*
X78516Y55053D01*
X78750Y55100D01*
X78949Y55232D01*
X79081Y55431D01*
X79128Y55665D01*
X79081Y55899D01*
X78949Y56098D01*
X78750Y56230D01*
X78516Y56277D01*
X78282Y56230D01*
X78278Y56228D01*
X78154Y56351D01*
Y56558D01*
X78208Y56638D01*
X78231Y56755D01*
X78208Y56872D01*
X78141Y56971D01*
X78042Y57038D01*
X77925Y57061D01*
D02*
G37*
G36*
X74825Y56230D02*
X73925D01*
Y55703D01*
X73884Y55609D01*
X73738Y55580D01*
X73614Y55497D01*
X73531Y55373D01*
X73502Y55227D01*
X73531Y55081D01*
X73614Y54957D01*
X73738Y54874D01*
X73884Y54845D01*
X74031Y54874D01*
X74155Y54957D01*
X74238Y55081D01*
X74267Y55227D01*
X74238Y55373D01*
X74199Y55431D01*
X74239Y55520D01*
X74825D01*
Y56230D01*
D02*
G37*
G36*
X76490Y55760D02*
X75730D01*
Y55349D01*
X75513Y55132D01*
X75463Y55058D01*
X75446Y54970D01*
Y54903D01*
X75405Y54875D01*
X75322Y54751D01*
X75293Y54605D01*
X75322Y54459D01*
X75405Y54335D01*
X75529Y54252D01*
X75675Y54223D01*
X75821Y54252D01*
X75945Y54335D01*
X75973Y54376D01*
X76647D01*
Y54250D01*
X77407D01*
Y54960D01*
X76647D01*
Y54834D01*
X76005D01*
X75958Y54928D01*
X76079Y55050D01*
X76490D01*
Y55760D01*
D02*
G37*
G36*
X18850Y51905D02*
X18704Y51876D01*
X18580Y51793D01*
X18563Y51768D01*
X18463D01*
X18445Y51793D01*
X18321Y51876D01*
X18175Y51905D01*
X18029Y51876D01*
X17905Y51793D01*
X17822Y51669D01*
X17793Y51523D01*
X17822Y51377D01*
X17905Y51253D01*
X17930Y51235D01*
Y51135D01*
X17905Y51118D01*
X17822Y50994D01*
X17793Y50848D01*
X17822Y50702D01*
X17905Y50578D01*
X17930Y50560D01*
Y50460D01*
X17905Y50443D01*
X17822Y50319D01*
X17793Y50173D01*
X17822Y50027D01*
X17905Y49903D01*
X18029Y49820D01*
X18175Y49791D01*
X18321Y49820D01*
X18445Y49903D01*
X18463Y49928D01*
X18563D01*
X18580Y49903D01*
X18704Y49820D01*
X18850Y49791D01*
X18996Y49820D01*
X19120Y49903D01*
X19203Y50027D01*
X19232Y50173D01*
X19203Y50319D01*
X19120Y50443D01*
X19095Y50460D01*
Y50560D01*
X19120Y50578D01*
X19203Y50702D01*
X19232Y50848D01*
X19203Y50994D01*
X19120Y51118D01*
X19095Y51135D01*
Y51235D01*
X19120Y51253D01*
X19203Y51377D01*
X19232Y51523D01*
X19203Y51669D01*
X19120Y51793D01*
X18996Y51876D01*
X18850Y51905D01*
D02*
G37*
G36*
X23250Y49657D02*
X23113Y49630D01*
X22998Y49552D01*
X22920Y49437D01*
X22893Y49300D01*
X22920Y49163D01*
X22996Y49050D01*
X22920Y48937D01*
X22893Y48800D01*
X22920Y48663D01*
X22998Y48548D01*
X23113Y48470D01*
X23250Y48443D01*
X23387Y48470D01*
X23502Y48548D01*
X23580Y48663D01*
X23607Y48800D01*
X23580Y48937D01*
X23504Y49050D01*
X23580Y49163D01*
X23607Y49300D01*
X23580Y49437D01*
X23502Y49552D01*
X23387Y49630D01*
X23250Y49657D01*
D02*
G37*
G36*
X16298Y47272D02*
X16152Y47243D01*
X16028Y47160D01*
X16010Y47135D01*
X15910D01*
X15893Y47160D01*
X15769Y47243D01*
X15623Y47272D01*
X15477Y47243D01*
X15353Y47160D01*
X15270Y47036D01*
X15241Y46890D01*
X15270Y46744D01*
X15353Y46620D01*
X15401Y46588D01*
Y46467D01*
X15353Y46435D01*
X15270Y46311D01*
X15241Y46165D01*
X15270Y46019D01*
X15353Y45895D01*
X15477Y45812D01*
X15623Y45783D01*
X15769Y45812D01*
X15893Y45895D01*
X15910Y45920D01*
X16010D01*
X16028Y45895D01*
X16152Y45812D01*
X16298Y45783D01*
X16444Y45812D01*
X16568Y45895D01*
X16651Y46019D01*
X16680Y46165D01*
X16651Y46311D01*
X16568Y46435D01*
X16520Y46467D01*
Y46588D01*
X16568Y46620D01*
X16651Y46744D01*
X16680Y46890D01*
X16651Y47036D01*
X16568Y47160D01*
X16444Y47243D01*
X16298Y47272D01*
D02*
G37*
G36*
X21450Y47705D02*
X21313Y47678D01*
X21198Y47600D01*
X21120Y47485D01*
X21093Y47348D01*
X21120Y47211D01*
X21198Y47096D01*
X21313Y47018D01*
X21450Y46991D01*
X21587Y47018D01*
X21702Y47096D01*
X21780Y47211D01*
X21807Y47348D01*
X21780Y47485D01*
X21702Y47600D01*
X21587Y47678D01*
X21450Y47705D01*
D02*
G37*
G36*
X19700Y46580D02*
X19554Y46551D01*
X19430Y46468D01*
X19347Y46344D01*
X19318Y46198D01*
X19347Y46052D01*
X19430Y45928D01*
X19479Y45895D01*
Y45775D01*
X19432Y45743D01*
X19349Y45619D01*
X19320Y45473D01*
X19349Y45327D01*
X19432Y45203D01*
X19556Y45120D01*
X19702Y45091D01*
X19848Y45120D01*
X19972Y45203D01*
X20055Y45327D01*
X20084Y45473D01*
X20055Y45619D01*
X19972Y45743D01*
X19923Y45776D01*
Y45896D01*
X19970Y45928D01*
X20053Y46052D01*
X20082Y46198D01*
X20053Y46344D01*
X19970Y46468D01*
X19846Y46551D01*
X19700Y46580D01*
D02*
G37*
G36*
X12276Y45747D02*
X12130Y45718D01*
X12006Y45635D01*
X11923Y45511D01*
X11894Y45365D01*
X11923Y45218D01*
X12006Y45094D01*
X12130Y45011D01*
X12276Y44982D01*
X12422Y45011D01*
X12546Y45094D01*
X12629Y45218D01*
X12658Y45365D01*
X12629Y45511D01*
X12546Y45635D01*
X12422Y45718D01*
X12276Y45747D01*
D02*
G37*
G36*
Y44847D02*
X12130Y44818D01*
X12006Y44735D01*
X11923Y44611D01*
X11894Y44465D01*
X11923Y44318D01*
X12006Y44194D01*
X12130Y44111D01*
X12276Y44082D01*
X12422Y44111D01*
X12546Y44194D01*
X12629Y44318D01*
X12658Y44465D01*
X12629Y44611D01*
X12546Y44735D01*
X12422Y44818D01*
X12276Y44847D01*
D02*
G37*
G36*
Y43947D02*
X12130Y43918D01*
X12006Y43835D01*
X11923Y43711D01*
X11894Y43565D01*
X11923Y43418D01*
X12006Y43294D01*
X12130Y43211D01*
X12276Y43182D01*
X12422Y43211D01*
X12546Y43294D01*
X12629Y43418D01*
X12658Y43565D01*
X12629Y43711D01*
X12546Y43835D01*
X12422Y43918D01*
X12276Y43947D01*
D02*
G37*
G36*
X21400Y43882D02*
X21263Y43855D01*
X21148Y43777D01*
X21070Y43662D01*
X21043Y43525D01*
X21070Y43388D01*
X21146Y43275D01*
X21070Y43162D01*
X21043Y43025D01*
X21070Y42888D01*
X21148Y42773D01*
X21263Y42695D01*
X21400Y42668D01*
X21537Y42695D01*
X21652Y42773D01*
X21730Y42888D01*
X21757Y43025D01*
X21730Y43162D01*
X21654Y43275D01*
X21730Y43388D01*
X21757Y43525D01*
X21730Y43662D01*
X21652Y43777D01*
X21537Y43855D01*
X21400Y43882D01*
D02*
G37*
G36*
X12251Y42184D02*
X12105Y42155D01*
X11981Y42072D01*
X11898Y41948D01*
X11869Y41802D01*
X11898Y41656D01*
X11981Y41532D01*
X12105Y41449D01*
X12251Y41420D01*
X12397Y41449D01*
X12521Y41532D01*
X12604Y41656D01*
X12633Y41802D01*
X12604Y41948D01*
X12521Y42072D01*
X12397Y42155D01*
X12251Y42184D01*
D02*
G37*
G36*
Y41284D02*
X12105Y41255D01*
X11981Y41172D01*
X11898Y41048D01*
X11869Y40902D01*
X11898Y40756D01*
X11981Y40632D01*
X12105Y40549D01*
X12251Y40520D01*
X12397Y40549D01*
X12521Y40632D01*
X12604Y40756D01*
X12633Y40902D01*
X12604Y41048D01*
X12521Y41172D01*
X12397Y41255D01*
X12251Y41284D01*
D02*
G37*
G36*
X23410Y40334D02*
X23273Y40307D01*
X23158Y40229D01*
X23080Y40113D01*
X23053Y39977D01*
X23080Y39840D01*
X23158Y39725D01*
X23273Y39647D01*
X23410Y39620D01*
X23547Y39647D01*
X23662Y39725D01*
X23740Y39840D01*
X23767Y39977D01*
X23740Y40113D01*
X23662Y40229D01*
X23547Y40307D01*
X23410Y40334D01*
D02*
G37*
G36*
X12251Y40384D02*
X12105Y40355D01*
X11981Y40272D01*
X11898Y40148D01*
X11869Y40002D01*
X11898Y39856D01*
X11981Y39732D01*
X12105Y39649D01*
X12251Y39620D01*
X12397Y39649D01*
X12521Y39732D01*
X12604Y39856D01*
X12633Y40002D01*
X12604Y40148D01*
X12521Y40272D01*
X12397Y40355D01*
X12251Y40384D01*
D02*
G37*
G36*
X20325Y40257D02*
X20188Y40230D01*
X20073Y40152D01*
X19995Y40037D01*
X19968Y39900D01*
X19995Y39763D01*
X20071Y39650D01*
X19995Y39537D01*
X19968Y39400D01*
X19995Y39263D01*
X20073Y39148D01*
X20188Y39070D01*
X20325Y39043D01*
X20462Y39070D01*
X20577Y39148D01*
X20655Y39263D01*
X20682Y39400D01*
X20655Y39537D01*
X20579Y39650D01*
X20655Y39763D01*
X20682Y39900D01*
X20655Y40037D01*
X20577Y40152D01*
X20462Y40230D01*
X20325Y40257D01*
D02*
G37*
G36*
X14637Y37880D02*
X14491Y37851D01*
X14367Y37768D01*
X14335Y37720D01*
X14215D01*
X14183Y37768D01*
X14059Y37851D01*
X13912Y37880D01*
X13766Y37851D01*
X13642Y37768D01*
X13610Y37720D01*
X13490D01*
X13458Y37768D01*
X13334Y37851D01*
X13187Y37880D01*
X13041Y37851D01*
X12917Y37768D01*
X12834Y37644D01*
X12805Y37498D01*
X12834Y37352D01*
X12917Y37228D01*
X12943Y37210D01*
Y37110D01*
X12917Y37093D01*
X12834Y36969D01*
X12805Y36823D01*
X12834Y36677D01*
X12917Y36553D01*
X13041Y36470D01*
X13187Y36441D01*
X13334Y36470D01*
X13458Y36553D01*
X13490Y36601D01*
X13610D01*
X13642Y36553D01*
X13766Y36470D01*
X13912Y36441D01*
X14059Y36470D01*
X14183Y36553D01*
X14215Y36601D01*
X14335D01*
X14367Y36553D01*
X14491Y36470D01*
X14637Y36441D01*
X14784Y36470D01*
X14908Y36553D01*
X14991Y36677D01*
X15020Y36823D01*
X14991Y36969D01*
X14908Y37093D01*
X14882Y37110D01*
Y37210D01*
X14908Y37228D01*
X14991Y37352D01*
X15020Y37498D01*
X14991Y37644D01*
X14908Y37768D01*
X14784Y37851D01*
X14637Y37880D01*
D02*
G37*
G36*
X59989Y38040D02*
X59872Y38017D01*
X59773Y37951D01*
X59706Y37852D01*
X59683Y37735D01*
X59706Y37617D01*
X59764Y37531D01*
X59685Y37472D01*
X59586Y37539D01*
X59469Y37562D01*
X59352Y37539D01*
X59253Y37472D01*
X59187Y37373D01*
X59163Y37256D01*
X59187Y37139D01*
X59253Y37040D01*
X59352Y36973D01*
X59469Y36950D01*
X59586Y36973D01*
X59685Y37040D01*
X59752Y37139D01*
X59775Y37256D01*
X59752Y37373D01*
X59694Y37460D01*
X59773Y37518D01*
X59872Y37452D01*
X59989Y37429D01*
X60106Y37452D01*
X60205Y37518D01*
X60272Y37617D01*
X60295Y37735D01*
X60272Y37852D01*
X60205Y37951D01*
X60106Y38017D01*
X59989Y38040D01*
D02*
G37*
G36*
X58375Y37656D02*
X58258Y37633D01*
X58159Y37566D01*
X58092Y37467D01*
X58069Y37350D01*
X58092Y37233D01*
X58159Y37134D01*
X58258Y37067D01*
X58375Y37044D01*
X58492Y37067D01*
X58591Y37134D01*
X58658Y37233D01*
X58681Y37350D01*
X58658Y37467D01*
X58591Y37566D01*
X58492Y37633D01*
X58375Y37656D01*
D02*
G37*
G36*
X110750Y37263D02*
X110633Y37239D01*
X110534Y37173D01*
X110468Y37074D01*
X110444Y36957D01*
X110468Y36840D01*
X110534Y36740D01*
X110633Y36674D01*
X110750Y36651D01*
X110867Y36674D01*
X110967Y36740D01*
X111033Y36840D01*
X111056Y36957D01*
X111033Y37074D01*
X110967Y37173D01*
X110867Y37239D01*
X110750Y37263D01*
D02*
G37*
G36*
X57678Y35173D02*
X56968D01*
Y34720D01*
X56943Y34703D01*
X56869Y34630D01*
X55794D01*
X55792Y34632D01*
X55709Y34687D01*
X55612Y34707D01*
X55365D01*
X55363Y34710D01*
X55263Y34776D01*
X55146Y34799D01*
X55029Y34776D01*
X54930Y34710D01*
X54864Y34611D01*
X54840Y34494D01*
X54864Y34377D01*
X54930Y34277D01*
X55029Y34211D01*
X55146Y34188D01*
X55226Y34204D01*
X55259Y34197D01*
X55506D01*
X55508Y34195D01*
X55591Y34140D01*
X55689Y34120D01*
X56975D01*
X57073Y34140D01*
X57155Y34195D01*
X57231Y34271D01*
X57243Y34273D01*
X57678D01*
Y35173D01*
D02*
G37*
G36*
X58875Y37131D02*
X58758Y37108D01*
X58659Y37041D01*
X58592Y36942D01*
X58569Y36825D01*
X58592Y36708D01*
X58595Y36704D01*
X58600Y36606D01*
X58600Y36606D01*
X58600Y36606D01*
Y36056D01*
X58600Y36056D01*
X58575Y35975D01*
X58575D01*
X58575Y35966D01*
Y35275D01*
X58580D01*
X58581Y35272D01*
X58489Y35173D01*
X57868D01*
Y34273D01*
X58578D01*
Y34519D01*
X58734D01*
X58812Y34535D01*
X58878Y34579D01*
X59019Y34720D01*
X59063Y34786D01*
X59079Y34864D01*
Y35275D01*
X59175D01*
Y35966D01*
X59175Y35975D01*
X59175D01*
X59150Y36056D01*
X59150Y36056D01*
Y36606D01*
X59150Y36606D01*
X59150D01*
X59155Y36704D01*
X59158Y36708D01*
X59181Y36825D01*
X59158Y36942D01*
X59091Y37041D01*
X58992Y37108D01*
X58875Y37131D01*
D02*
G37*
G36*
X51631Y34257D02*
X51485Y34228D01*
X51361Y34145D01*
X51278Y34021D01*
X51249Y33875D01*
X51278Y33729D01*
X51361Y33605D01*
X51485Y33522D01*
X51631Y33493D01*
X51777Y33522D01*
X51901Y33605D01*
X51984Y33729D01*
X52013Y33875D01*
X51984Y34021D01*
X51901Y34145D01*
X51777Y34228D01*
X51631Y34257D01*
D02*
G37*
G36*
X60956Y33070D02*
X60839Y33047D01*
X60740Y32981D01*
X60674Y32882D01*
X60650Y32765D01*
X60674Y32647D01*
X60740Y32548D01*
X60715Y32452D01*
X60624Y32420D01*
X60525Y32486D01*
X60408Y32510D01*
X60291Y32486D01*
X60192Y32420D01*
X60125Y32321D01*
X60102Y32204D01*
X60125Y32087D01*
X60192Y31987D01*
X60291Y31921D01*
X60408Y31898D01*
X60525Y31921D01*
X60624Y31987D01*
X60636Y32005D01*
X60736D01*
X60744Y31993D01*
X60843Y31927D01*
X60960Y31904D01*
X61077Y31927D01*
X61176Y31993D01*
X61243Y32092D01*
X61266Y32210D01*
X61243Y32327D01*
X61176Y32426D01*
X61158Y32438D01*
Y32538D01*
X61173Y32548D01*
X61239Y32647D01*
X61262Y32765D01*
X61239Y32882D01*
X61173Y32981D01*
X61073Y33047D01*
X60956Y33070D01*
D02*
G37*
G36*
X56956Y32815D02*
X56839Y32792D01*
X56740Y32726D01*
X56674Y32627D01*
X56650Y32510D01*
X56674Y32392D01*
X56740Y32293D01*
X56839Y32227D01*
X56956Y32204D01*
X57073Y32227D01*
X57173Y32293D01*
X57239Y32392D01*
X57262Y32510D01*
X57239Y32627D01*
X57173Y32726D01*
X57073Y32792D01*
X56956Y32815D01*
D02*
G37*
G36*
X57275Y32106D02*
X57158Y32083D01*
X57059Y32016D01*
X56992Y31917D01*
X56969Y31800D01*
X56992Y31683D01*
X57059Y31584D01*
X57158Y31517D01*
X57275Y31494D01*
X57392Y31517D01*
X57491Y31584D01*
X57558Y31683D01*
X57581Y31800D01*
X57558Y31917D01*
X57491Y32016D01*
X57392Y32083D01*
X57275Y32106D01*
D02*
G37*
G36*
X60960Y31481D02*
X60843Y31458D01*
X60744Y31391D01*
X60677Y31292D01*
X60654Y31175D01*
X60677Y31058D01*
X60744Y30959D01*
X60843Y30892D01*
X60960Y30869D01*
X61077Y30892D01*
X61176Y30959D01*
X61243Y31058D01*
X61266Y31175D01*
X61243Y31292D01*
X61176Y31391D01*
X61077Y31458D01*
X60960Y31481D01*
D02*
G37*
G36*
X59781D02*
X59664Y31458D01*
X59565Y31391D01*
X59498Y31292D01*
X59475Y31175D01*
X59498Y31058D01*
X59565Y30959D01*
X59664Y30892D01*
X59781Y30869D01*
X59898Y30892D01*
X59997Y30959D01*
X60064Y31058D01*
X60087Y31175D01*
X60064Y31292D01*
X59997Y31391D01*
X59898Y31458D01*
X59781Y31481D01*
D02*
G37*
G36*
X57271Y31288D02*
X57154Y31265D01*
X57055Y31199D01*
X56989Y31100D01*
X56966Y30982D01*
X56989Y30865D01*
X57055Y30766D01*
X57154Y30700D01*
X57271Y30677D01*
X57389Y30700D01*
X57488Y30766D01*
X57554Y30865D01*
X57577Y30982D01*
X57554Y31100D01*
X57488Y31199D01*
X57389Y31265D01*
X57271Y31288D01*
D02*
G37*
G36*
X65500Y30581D02*
X65383Y30558D01*
X65284Y30491D01*
X65217Y30392D01*
X65194Y30275D01*
X65217Y30158D01*
X65284Y30059D01*
X65383Y29992D01*
X65500Y29969D01*
X65617Y29992D01*
X65716Y30059D01*
X65783Y30158D01*
X65806Y30275D01*
X65783Y30392D01*
X65716Y30491D01*
X65617Y30558D01*
X65500Y30581D01*
D02*
G37*
G36*
X57271Y30500D02*
X57154Y30477D01*
X57055Y30411D01*
X56989Y30312D01*
X56966Y30195D01*
X56989Y30077D01*
X57055Y29978D01*
X57154Y29912D01*
X57271Y29889D01*
X57389Y29912D01*
X57488Y29978D01*
X57554Y30077D01*
X57577Y30195D01*
X57554Y30312D01*
X57488Y30411D01*
X57389Y30477D01*
X57271Y30500D01*
D02*
G37*
G36*
X55049Y30471D02*
X54932Y30448D01*
X54833Y30381D01*
X54767Y30282D01*
X54743Y30165D01*
X54767Y30048D01*
X54833Y29949D01*
X54932Y29882D01*
X55049Y29859D01*
X55166Y29882D01*
X55265Y29949D01*
X55332Y30048D01*
X55355Y30165D01*
X55332Y30282D01*
X55265Y30381D01*
X55166Y30448D01*
X55049Y30471D01*
D02*
G37*
G36*
X60375Y31056D02*
X60258Y31033D01*
X60159Y30966D01*
X60092Y30867D01*
X60069Y30750D01*
X60092Y30633D01*
X60159Y30534D01*
X60236Y30482D01*
X60237Y30481D01*
X60243Y30399D01*
X60236Y30371D01*
X60172Y30328D01*
X60106Y30229D01*
X60083Y30112D01*
X60106Y29995D01*
X60172Y29895D01*
X60272Y29829D01*
X60389Y29806D01*
X60506Y29829D01*
X60605Y29895D01*
X60671Y29995D01*
X60695Y30112D01*
X60671Y30229D01*
X60605Y30328D01*
X60527Y30380D01*
X60527Y30381D01*
X60521Y30463D01*
X60527Y30491D01*
X60591Y30534D01*
X60658Y30633D01*
X60681Y30750D01*
X60658Y30867D01*
X60591Y30966D01*
X60492Y31033D01*
X60375Y31056D01*
D02*
G37*
G36*
X58962Y30418D02*
X58845Y30394D01*
X58745Y30328D01*
X58679Y30229D01*
X58656Y30112D01*
X58679Y29995D01*
X58745Y29895D01*
X58845Y29829D01*
X58962Y29806D01*
X59079Y29829D01*
X59178Y29895D01*
X59244Y29995D01*
X59268Y30112D01*
X59244Y30229D01*
X59178Y30328D01*
X59079Y30394D01*
X58962Y30418D01*
D02*
G37*
G36*
X67600Y30095D02*
X66400D01*
Y29843D01*
X66335Y29770D01*
X66335Y29770D01*
Y29770D01*
X66300Y29767D01*
X66299Y29770D01*
X66286Y29837D01*
X66220Y29937D01*
X66120Y30003D01*
X66003Y30026D01*
X65886Y30003D01*
X65787Y29937D01*
X65721Y29837D01*
X65698Y29720D01*
X65721Y29603D01*
X65787Y29504D01*
X65886Y29438D01*
X66003Y29414D01*
X66120Y29438D01*
X66220Y29504D01*
X66286Y29603D01*
X66299Y29671D01*
X66300Y29673D01*
X66335Y29670D01*
Y29670D01*
X66335Y29670D01*
X66400Y29597D01*
Y29255D01*
X66626D01*
Y29046D01*
X66374Y28793D01*
X66313Y28800D01*
X66296Y28816D01*
X66245Y28899D01*
X66262Y28986D01*
X66239Y29103D01*
X66173Y29202D01*
X66073Y29269D01*
X65956Y29292D01*
X65839Y29269D01*
X65740Y29202D01*
X65674Y29103D01*
X65650Y28986D01*
X65674Y28869D01*
X65740Y28770D01*
Y28707D01*
X65686Y28671D01*
X65603Y28547D01*
X65574Y28400D01*
X65603Y28254D01*
X65686Y28130D01*
X65810Y28047D01*
X65956Y28018D01*
X66084Y28043D01*
X66485D01*
X66622Y28071D01*
X66738Y28148D01*
X67235Y28646D01*
X67313Y28761D01*
X67340Y28898D01*
Y29255D01*
X67600D01*
Y30095D01*
D02*
G37*
%LPD*%
G36*
X45846Y68210D02*
X32985Y55349D01*
X32937Y55234D01*
Y54671D01*
X30704Y52438D01*
X30141D01*
X30026Y52390D01*
X29198Y51562D01*
X29100Y51582D01*
X28963Y51555D01*
X28848Y51477D01*
X28770Y51362D01*
X28743Y51225D01*
X28770Y51088D01*
X28806Y51035D01*
X28753Y50935D01*
X28355D01*
Y50225D01*
X29230D01*
X29255Y50225D01*
Y50225D01*
X29330D01*
Y50225D01*
X30230D01*
Y50935D01*
X30110D01*
X30056Y51035D01*
X30092Y51088D01*
X30119Y51225D01*
X30092Y51362D01*
X30083Y51376D01*
X30473Y51767D01*
X30917D01*
X31032Y51814D01*
X33608Y54391D01*
X33656Y54505D01*
Y54949D01*
X46554Y67848D01*
X65520D01*
X69570Y63798D01*
Y54479D01*
X68939Y53848D01*
X68847Y53897D01*
X68851Y53919D01*
Y54513D01*
X68980Y54642D01*
X69048Y54687D01*
X69131Y54811D01*
X69160Y54958D01*
X69131Y55104D01*
X69048Y55228D01*
X68924Y55311D01*
X68777Y55340D01*
X68631Y55311D01*
X68507Y55228D01*
X68424Y55104D01*
X68422Y55094D01*
X68242Y54914D01*
X68165Y54798D01*
X68138Y54661D01*
Y54067D01*
X62164Y48093D01*
X62100Y48108D01*
X62064Y48132D01*
Y48275D01*
X67453Y53664D01*
X67487Y53715D01*
X67499Y53775D01*
X67487Y53836D01*
X67453Y53887D01*
X67401Y53922D01*
X67341Y53934D01*
X67281Y53922D01*
X67229Y53887D01*
X61794Y48452D01*
X61760Y48401D01*
X61748Y48340D01*
Y46473D01*
X61708Y46459D01*
X61648Y46456D01*
X61591Y46541D01*
X61537Y46577D01*
Y48463D01*
X66477Y53403D01*
X66525Y53518D01*
X66477Y53632D01*
X66363Y53680D01*
X66248Y53632D01*
X61260Y48645D01*
X61213Y48530D01*
Y46577D01*
X61159Y46541D01*
X61106Y46462D01*
X60996Y46430D01*
X60986Y46440D01*
X60924Y46482D01*
X60850Y46496D01*
X60804D01*
X60727Y46554D01*
Y47104D01*
X60177D01*
Y46572D01*
X60159Y46560D01*
X60092Y46461D01*
X60069Y46344D01*
X60092Y46226D01*
X60159Y46127D01*
X60258Y46061D01*
X60375Y46038D01*
X60492Y46061D01*
X60572Y46114D01*
X60771D01*
X60776Y46109D01*
Y46042D01*
X60791Y45969D01*
X60800Y45955D01*
Y45575D01*
X60984D01*
Y45565D01*
X60998Y45492D01*
X61040Y45430D01*
X61057Y45413D01*
X61044Y45350D01*
X61067Y45233D01*
X61134Y45134D01*
X61233Y45067D01*
X61350Y45044D01*
X61461Y45066D01*
X61995Y44532D01*
Y44315D01*
X62009Y44242D01*
X62051Y44180D01*
X62082Y44149D01*
X62092Y44133D01*
Y43725D01*
X61625D01*
Y43725D01*
X61625Y43725D01*
X61525Y43725D01*
X61175D01*
X61075Y43725D01*
Y43725D01*
X61075D01*
Y43725D01*
X60525D01*
Y43694D01*
X60435Y43670D01*
Y43670D01*
X59885D01*
Y43384D01*
X59798Y43297D01*
X59754Y43231D01*
X59738Y43153D01*
Y42839D01*
X59754Y42761D01*
X59798Y42695D01*
X59906Y42587D01*
X59904Y42575D01*
X59927Y42458D01*
X59994Y42359D01*
X60093Y42292D01*
X60210Y42269D01*
X60264Y42280D01*
X60292Y42258D01*
X60338Y42193D01*
X60319Y42100D01*
X60333Y42030D01*
X60267Y41930D01*
X60076D01*
X60076Y41930D01*
Y41930D01*
X59976Y41927D01*
X59967Y41933D01*
X59850Y41956D01*
X59733Y41933D01*
X59634Y41866D01*
X59567Y41767D01*
X59454Y41707D01*
X59410Y41716D01*
X59293Y41693D01*
X59268Y41676D01*
X59178Y41736D01*
X59181Y41750D01*
X59158Y41867D01*
X59091Y41966D01*
X59052Y41992D01*
X59032Y42108D01*
X59064Y42147D01*
X59082Y42153D01*
X59173Y42092D01*
X59290Y42069D01*
X59407Y42092D01*
X59506Y42159D01*
X59573Y42258D01*
X59596Y42375D01*
X59573Y42492D01*
X59506Y42591D01*
X59407Y42658D01*
X59290Y42681D01*
X59270Y42677D01*
X59181Y42740D01*
X59158Y42857D01*
X59091Y42956D01*
X58992Y43023D01*
X58875Y43046D01*
X58758Y43023D01*
X58659Y42956D01*
X58623Y42902D01*
X58494D01*
X58398Y42913D01*
X58398Y42913D01*
X58398D01*
X58390Y43002D01*
X58403Y43005D01*
X58465Y43017D01*
X58564Y43084D01*
X58631Y43183D01*
X58654Y43300D01*
X58631Y43417D01*
X58598Y43465D01*
X58598Y43467D01*
X58645Y43574D01*
X58648Y43574D01*
X58733Y43517D01*
X58850Y43494D01*
X58967Y43517D01*
X59066Y43584D01*
X59133Y43683D01*
X59156Y43800D01*
X59133Y43917D01*
X59066Y44016D01*
X58967Y44083D01*
X58850Y44106D01*
X58733Y44083D01*
X58639Y44020D01*
X58631Y44017D01*
X58617Y44050D01*
X58603Y44126D01*
X58658Y44208D01*
X58681Y44325D01*
X58659Y44435D01*
X58795Y44570D01*
X59025D01*
X59050Y44575D01*
X59080D01*
X59120Y44535D01*
X59202Y44480D01*
X59288Y44463D01*
X59305Y44377D01*
X59334Y44333D01*
Y44131D01*
X59884D01*
Y44176D01*
X59911D01*
X60009Y44196D01*
X60091Y44251D01*
X60478Y44637D01*
X60621D01*
X60673Y44602D01*
X60790Y44579D01*
X60907Y44602D01*
X61006Y44669D01*
X61073Y44768D01*
X61096Y44885D01*
X61073Y45002D01*
X61006Y45101D01*
X60907Y45168D01*
X60790Y45191D01*
X60742Y45181D01*
X60723Y45193D01*
X60665Y45268D01*
X60681Y45350D01*
X60658Y45467D01*
X60591Y45566D01*
X60492Y45633D01*
X60375Y45656D01*
X60258Y45633D01*
X60159Y45566D01*
X60146Y45547D01*
X60021Y45536D01*
X59603Y45955D01*
X59602Y45956D01*
X59600Y46020D01*
X59605Y46068D01*
X59666Y46109D01*
X59733Y46208D01*
X59756Y46325D01*
X59733Y46442D01*
X59666Y46541D01*
X59690Y46635D01*
X59737Y46750D01*
X59690Y46865D01*
X59575Y46912D01*
X59530Y46894D01*
X59490Y46990D01*
X59375Y47037D01*
X59260Y46990D01*
X58974Y46704D01*
X58927Y46589D01*
Y46248D01*
X58875Y46206D01*
X58758Y46183D01*
X58748Y46176D01*
X58676Y46248D01*
X58679Y46252D01*
X58702Y46369D01*
X58679Y46486D01*
X58612Y46585D01*
X58513Y46652D01*
X58396Y46675D01*
X58279Y46652D01*
X58180Y46585D01*
X58113Y46486D01*
X58090Y46369D01*
X58113Y46252D01*
X58180Y46153D01*
X58279Y46086D01*
X58396Y46063D01*
X58513Y46086D01*
X58523Y46093D01*
X58595Y46021D01*
X58592Y46017D01*
X58569Y45900D01*
X58592Y45783D01*
X58625Y45700D01*
X58625Y45700D01*
X58625Y45700D01*
Y45150D01*
X58625Y45150D01*
X58625D01*
X58593Y45061D01*
X58591Y45060D01*
X58509Y45005D01*
X58214Y44710D01*
X58159Y44628D01*
X58149Y44580D01*
X57625D01*
Y44600D01*
X57075D01*
Y44580D01*
X56971D01*
Y44605D01*
X56421D01*
Y44055D01*
X56373Y43975D01*
X56233D01*
X56118Y43927D01*
X56071Y43812D01*
X56118Y43698D01*
X56174Y43675D01*
X56200Y43577D01*
X56152Y43463D01*
X56200Y43348D01*
X56314Y43300D01*
X57302D01*
X57357Y43217D01*
X57347Y43191D01*
X57394Y43076D01*
X57509Y43029D01*
X57742D01*
X57856Y43076D01*
X57888Y43108D01*
X58003D01*
X58076Y43138D01*
X58096D01*
X58132Y43084D01*
X58231Y43017D01*
X58294Y43005D01*
X58307Y43002D01*
X58298Y42913D01*
X58298D01*
X58298Y42913D01*
X58215Y42871D01*
X58175Y42855D01*
X58142Y42821D01*
X58126Y42815D01*
X58043Y42732D01*
X57647D01*
X57635Y42737D01*
X57520Y42690D01*
X57472Y42575D01*
X57520Y42460D01*
X57525Y42455D01*
X57572Y42436D01*
X57583Y42336D01*
X57554Y42306D01*
X57527Y42295D01*
X57479Y42180D01*
X57527Y42065D01*
X57519Y41960D01*
X57507Y41942D01*
X57484Y41825D01*
X57507Y41708D01*
X57574Y41609D01*
X57673Y41542D01*
X57790Y41519D01*
X57896Y41540D01*
X57941Y41513D01*
X57985Y41474D01*
X57974Y41421D01*
X57997Y41304D01*
X58064Y41205D01*
X58150Y41147D01*
X58158Y41110D01*
X58130Y41060D01*
X58014Y41055D01*
X58006Y41066D01*
X57907Y41133D01*
X57790Y41156D01*
X57673Y41133D01*
X57574Y41066D01*
X57538Y41012D01*
X57287D01*
X57284Y41011D01*
X56899D01*
X56784Y40964D01*
X56736Y40849D01*
X56784Y40734D01*
X56834Y40713D01*
X56815Y40613D01*
X56405D01*
X56050Y40968D01*
X55968Y41023D01*
X55870Y41042D01*
X53771D01*
X53689Y41142D01*
X53694Y41170D01*
X53671Y41287D01*
X53605Y41386D01*
X53506Y41453D01*
X53389Y41476D01*
X53272Y41453D01*
X53172Y41386D01*
X53106Y41287D01*
X53083Y41170D01*
X53106Y41053D01*
X53172Y40954D01*
X53253Y40900D01*
X53282Y40800D01*
X53219Y40726D01*
X51082D01*
X50673Y41134D01*
Y41899D01*
X50678Y41923D01*
Y42024D01*
X50721Y42088D01*
X50740Y42185D01*
Y42633D01*
X50865D01*
Y43343D01*
X50105D01*
Y42633D01*
X50230D01*
Y42284D01*
X50188Y42221D01*
X50178Y42173D01*
X49073D01*
Y40973D01*
X50113D01*
X50796Y40290D01*
X50878Y40235D01*
X50976Y40216D01*
X53326D01*
X53423Y40235D01*
X53506Y40290D01*
X53748Y40533D01*
X55764D01*
X56119Y40178D01*
X56202Y40123D01*
X56299Y40103D01*
X57092D01*
X57147Y40020D01*
X57139Y40000D01*
X57185Y39889D01*
X57296Y39843D01*
X57452D01*
X57471Y39823D01*
X57496Y39813D01*
X57507Y39758D01*
X57574Y39659D01*
X57673Y39592D01*
X57790Y39569D01*
X57907Y39592D01*
X58006Y39659D01*
X58073Y39758D01*
X58096Y39875D01*
X58073Y39992D01*
X58065Y40003D01*
X58119Y40103D01*
X58321D01*
X58583Y39842D01*
X58592Y39793D01*
X58659Y39694D01*
X58758Y39627D01*
X58875Y39604D01*
X58992Y39627D01*
X59091Y39694D01*
X59158Y39793D01*
X59181Y39910D01*
X59158Y40027D01*
X59091Y40126D01*
X58992Y40193D01*
X58943Y40202D01*
X58607Y40538D01*
X58524Y40594D01*
X58427Y40613D01*
X58132D01*
X58079Y40699D01*
X58105Y40765D01*
X58206Y40804D01*
X58287Y40771D01*
X58590D01*
X58642Y40694D01*
X58741Y40627D01*
X58858Y40604D01*
X58975Y40627D01*
X59075Y40600D01*
Y40600D01*
X59075Y40600D01*
X59775D01*
Y41200D01*
X59775D01*
X59762Y41300D01*
X59771Y41334D01*
X59806Y41353D01*
X59850Y41344D01*
X59967Y41367D01*
X59978Y41375D01*
X60076Y41380D01*
X60076Y41380D01*
X60626D01*
X60626Y41380D01*
X60640D01*
Y41380D01*
X60726Y41380D01*
X61190D01*
X61201Y41356D01*
X61751D01*
X61763Y41382D01*
X62313D01*
Y41932D01*
X61985D01*
X61917Y42032D01*
X61931Y42100D01*
X61926Y42122D01*
X62012Y42203D01*
X62072Y42191D01*
X62189Y42214D01*
X62288Y42281D01*
X62354Y42380D01*
X62378Y42497D01*
X62361Y42583D01*
X62419Y42641D01*
X62450Y42688D01*
X62461Y42703D01*
X62566Y42722D01*
X62603Y42697D01*
X62720Y42674D01*
X62772Y42684D01*
X62910Y42546D01*
X62927Y42458D01*
X62994Y42359D01*
X63093Y42292D01*
X63210Y42269D01*
X63327Y42292D01*
X63426Y42359D01*
X63493Y42458D01*
X63514Y42563D01*
X63561Y42610D01*
X63617Y42611D01*
X63711Y42572D01*
X63734Y42455D01*
X63801Y42356D01*
X63900Y42289D01*
X64017Y42266D01*
X64134Y42289D01*
X64233Y42356D01*
X64270Y42410D01*
X64330Y42422D01*
X64396Y42466D01*
X64560Y42630D01*
X64657D01*
X64734Y42572D01*
X64757Y42455D01*
X64824Y42356D01*
X64923Y42289D01*
X65040Y42266D01*
X65157Y42289D01*
X65256Y42356D01*
X65323Y42455D01*
X65346Y42572D01*
X65323Y42689D01*
X65290Y42739D01*
Y43092D01*
X65390Y43133D01*
X65457Y43066D01*
X65444Y43000D01*
X65467Y42883D01*
X65497Y42839D01*
Y42300D01*
X65484Y42291D01*
X65417Y42192D01*
X65394Y42075D01*
X65397Y42060D01*
X65326Y41988D01*
X65287Y41930D01*
X65276Y41875D01*
X65050D01*
Y41421D01*
X65050Y41415D01*
X65047Y41372D01*
X64987Y41311D01*
X64982Y41309D01*
X64953Y41305D01*
X64948Y41304D01*
X64904Y41304D01*
X64683D01*
X64622Y41365D01*
X64564Y41404D01*
X64547Y41407D01*
X64522Y41432D01*
X64464Y41471D01*
X64396Y41484D01*
X64358D01*
Y41581D01*
X63808D01*
Y41450D01*
X63708Y41389D01*
X63625Y41406D01*
X63508Y41383D01*
X63432Y41332D01*
X62887D01*
Y41235D01*
X62788D01*
X62720Y41222D01*
X62689Y41201D01*
X62683Y41200D01*
X62325D01*
Y40650D01*
X62623D01*
X62776Y40497D01*
X62815Y40471D01*
X62817Y40458D01*
X62884Y40359D01*
X62983Y40292D01*
X63100Y40269D01*
X63217Y40292D01*
X63316Y40359D01*
X63383Y40458D01*
X63402Y40557D01*
X63464Y40583D01*
X63503Y40589D01*
X63642Y40449D01*
X63700Y40410D01*
X63769Y40397D01*
X63883D01*
X63909Y40359D01*
X64008Y40292D01*
X64125Y40269D01*
X64242Y40292D01*
X64341Y40359D01*
X64350Y40372D01*
X64808D01*
X64834Y40334D01*
X64933Y40267D01*
X65050Y40244D01*
X65167Y40267D01*
X65266Y40334D01*
X65333Y40433D01*
X65356Y40550D01*
X65333Y40667D01*
X65266Y40766D01*
X65167Y40833D01*
X65143Y40837D01*
X65128Y40859D01*
X64981Y41006D01*
Y41208D01*
X64981Y41214D01*
X64984Y41257D01*
X65044Y41318D01*
X65049Y41320D01*
X65078Y41324D01*
X65083Y41325D01*
X65127Y41325D01*
X65600D01*
X65649Y41245D01*
Y39286D01*
X65633Y39283D01*
X65534Y39216D01*
X65467Y39117D01*
X65444Y39000D01*
X65375Y38927D01*
X65349D01*
X65349Y38927D01*
X65329Y38923D01*
X64999D01*
Y38717D01*
X64899Y38654D01*
X64882Y38662D01*
Y38972D01*
X64332D01*
Y38972D01*
X64250Y38918D01*
X64232Y38914D01*
X64144Y38932D01*
X64053Y38971D01*
X64030Y39088D01*
X64009Y39119D01*
X63989Y39211D01*
X63989Y39211D01*
X63989Y39211D01*
Y39761D01*
X63439D01*
Y39493D01*
X63429Y39397D01*
X62879D01*
X62867Y39328D01*
X62353Y39328D01*
X62305Y39408D01*
X62269Y39408D01*
X62269Y39408D01*
X61755D01*
X61742Y39349D01*
X61192D01*
X61180Y39423D01*
X60630D01*
X60630Y39350D01*
X60180D01*
X60080Y39350D01*
Y39350D01*
X60080D01*
Y39350D01*
X59655D01*
X59651Y39355D01*
X59628Y39472D01*
X59561Y39571D01*
X59462Y39638D01*
X59345Y39661D01*
X59228Y39638D01*
X59129Y39571D01*
X59062Y39472D01*
X59039Y39355D01*
X59062Y39238D01*
X59129Y39139D01*
X59228Y39072D01*
X59345Y39049D01*
X59430Y39066D01*
X59530Y39007D01*
Y38800D01*
X59665D01*
X59711Y38704D01*
X59693Y38648D01*
X59592Y38608D01*
X59475Y38631D01*
X59358Y38608D01*
X59259Y38541D01*
X59192Y38442D01*
X59169Y38325D01*
X59125Y38272D01*
X58690D01*
X58655Y38315D01*
X58632Y38432D01*
X58565Y38531D01*
X58466Y38598D01*
X58349Y38621D01*
X58232Y38598D01*
X58133Y38531D01*
X58083Y38457D01*
X57983Y38430D01*
X57926Y38469D01*
X57918Y38507D01*
X57922Y38577D01*
X58006Y38634D01*
X58073Y38733D01*
X58096Y38850D01*
X58073Y38967D01*
X58006Y39066D01*
X57907Y39133D01*
X57790Y39156D01*
X57673Y39133D01*
X57574Y39066D01*
X57507Y38967D01*
X57484Y38850D01*
X57507Y38733D01*
X57574Y38634D01*
X57651Y38582D01*
X57629Y38482D01*
X57204D01*
X56452Y39234D01*
X56341Y39280D01*
X48492D01*
X48439Y39380D01*
X48441Y39383D01*
X48464Y39500D01*
X48441Y39617D01*
X48374Y39716D01*
X48275Y39782D01*
X48158Y39806D01*
X48108Y39796D01*
X48085Y39819D01*
X48019Y39863D01*
X47941Y39879D01*
X46750D01*
Y40030D01*
X45850D01*
Y39320D01*
X45767Y39280D01*
X44898D01*
X44587Y39592D01*
Y40745D01*
X44646Y40784D01*
X44712Y40883D01*
X44736Y41000D01*
X44712Y41118D01*
X44646Y41217D01*
X44547Y41283D01*
X44430Y41306D01*
X44313Y41283D01*
X44214Y41217D01*
X44114Y41248D01*
Y43623D01*
X44087Y43760D01*
X44009Y43875D01*
X43669Y44216D01*
X43596Y44324D01*
X43571Y44341D01*
Y44442D01*
X43596Y44459D01*
X43679Y44583D01*
X43708Y44729D01*
X43679Y44875D01*
X43596Y44999D01*
X43571Y45016D01*
Y45117D01*
X43596Y45134D01*
X43679Y45258D01*
X43708Y45404D01*
X43679Y45550D01*
X43596Y45674D01*
X43472Y45757D01*
X43326Y45786D01*
X43180Y45757D01*
X43056Y45674D01*
X43031Y45637D01*
X42931D01*
X42926Y45644D01*
X42802Y45727D01*
X42656Y45756D01*
X42510Y45727D01*
X42386Y45644D01*
X42303Y45520D01*
X42274Y45374D01*
X42303Y45228D01*
X42386Y45104D01*
X42411Y45086D01*
Y44986D01*
X42386Y44969D01*
X42303Y44845D01*
X42274Y44699D01*
X42303Y44553D01*
X42386Y44429D01*
X42411Y44411D01*
Y44312D01*
X42386Y44294D01*
X42303Y44170D01*
X42274Y44024D01*
X42303Y43878D01*
X42386Y43754D01*
X42510Y43671D01*
X42656Y43642D01*
X42802Y43671D01*
X42926Y43754D01*
X42951Y43791D01*
X43051D01*
X43056Y43784D01*
X43164Y43711D01*
X43400Y43475D01*
Y41741D01*
X43300Y41687D01*
X43237Y41730D01*
X43100Y41757D01*
X42963Y41730D01*
X42848Y41652D01*
X42813Y41601D01*
X34935D01*
X34888Y41689D01*
X34905Y41713D01*
X34932Y41850D01*
X34905Y41987D01*
X34827Y42102D01*
X34712Y42180D01*
X34575Y42207D01*
X34438Y42180D01*
X34325Y42104D01*
X34212Y42180D01*
X34075Y42207D01*
X33938Y42180D01*
X33823Y42102D01*
X33745Y41987D01*
X33718Y41850D01*
X33745Y41713D01*
X33762Y41689D01*
X33715Y41601D01*
X33100D01*
X33068Y41649D01*
X32952Y41726D01*
X32815Y41754D01*
X32679Y41726D01*
X32563Y41649D01*
X32486Y41533D01*
X32459Y41397D01*
X32486Y41260D01*
X32563Y41144D01*
X32679Y41067D01*
X32815Y41040D01*
X32952Y41067D01*
X33068Y41144D01*
X33100Y41193D01*
X42818D01*
X42848Y41148D01*
X42963Y41070D01*
X43089Y41045D01*
X43113Y41006D01*
X43132Y40948D01*
X42407Y40223D01*
X39084D01*
X38947Y40195D01*
X38831Y40118D01*
X37557Y38844D01*
X37480Y38728D01*
X37478Y38718D01*
X37447Y38671D01*
X37418Y38525D01*
X37447Y38379D01*
X37530Y38255D01*
X37654Y38172D01*
X37800Y38143D01*
X37946Y38172D01*
X38070Y38255D01*
X38153Y38379D01*
X38166Y38444D01*
X39231Y39509D01*
X42555D01*
X42692Y39536D01*
X42807Y39613D01*
X44009Y40815D01*
X44047Y40872D01*
X44082Y40876D01*
X44161Y40862D01*
X44214Y40784D01*
X44273Y40745D01*
Y39527D01*
X44319Y39416D01*
X44722Y39012D01*
X44833Y38966D01*
X54600D01*
X54653Y38866D01*
X54650Y38861D01*
X54626Y38744D01*
X54650Y38627D01*
X54716Y38527D01*
X54815Y38461D01*
X54932Y38438D01*
X55049Y38461D01*
X55097Y38493D01*
X55789D01*
Y38473D01*
X55978D01*
X56018Y38433D01*
X56101Y38378D01*
X56199Y38358D01*
X56224D01*
Y38333D01*
X56243Y38235D01*
X56298Y38153D01*
X56651Y37800D01*
X55983Y37131D01*
X55662D01*
X55565Y37112D01*
X55482Y37057D01*
X55356Y36930D01*
X54891D01*
X54793Y36911D01*
X54711Y36856D01*
X54447Y36592D01*
X54392Y36509D01*
X54364Y36498D01*
X54289Y36508D01*
X54175Y36531D01*
X54058Y36508D01*
X53959Y36441D01*
X53892Y36342D01*
X53869Y36225D01*
X53877Y36183D01*
X53815Y36090D01*
X53808Y36088D01*
X53741Y36151D01*
X53756Y36225D01*
X53733Y36342D01*
X53666Y36441D01*
X53567Y36508D01*
X53450Y36531D01*
X53333Y36508D01*
X53234Y36441D01*
X53167Y36342D01*
X53144Y36225D01*
X53052Y36176D01*
X53025Y36181D01*
X52908Y36158D01*
X52809Y36091D01*
X52742Y35992D01*
X52719Y35875D01*
X52742Y35758D01*
X52809Y35659D01*
X52901Y35597D01*
X52902Y35590D01*
X52842Y35497D01*
X51228D01*
X51114Y35450D01*
X49835Y34171D01*
X49759Y34132D01*
X49693Y34160D01*
X49621Y34208D01*
X49475Y34237D01*
X49328Y34208D01*
X49204Y34125D01*
X49191Y34105D01*
X49091D01*
X49077Y34125D01*
X48953Y34208D01*
X48806Y34237D01*
X48660Y34208D01*
X48536Y34125D01*
X48453Y34001D01*
X48424Y33855D01*
X48453Y33709D01*
X48536Y33585D01*
X48660Y33502D01*
X48735Y33487D01*
X48768Y33378D01*
X48113Y32723D01*
X39264D01*
X38253Y33734D01*
X38291Y33827D01*
X41626D01*
X41740Y33874D01*
X43402Y35536D01*
X43450Y35651D01*
Y37190D01*
X43526Y37266D01*
X43612Y37211D01*
X43594Y37120D01*
X43617Y37003D01*
X43684Y36904D01*
X43783Y36837D01*
X43900Y36814D01*
X44017Y36837D01*
X44080Y36879D01*
X44150Y36896D01*
X44220Y36879D01*
X44283Y36837D01*
X44400Y36814D01*
X44517Y36837D01*
X44616Y36904D01*
X44683Y37003D01*
X44706Y37120D01*
X44683Y37237D01*
X44665Y37263D01*
X44719Y37363D01*
X48314D01*
X48429Y37411D01*
X48779Y37760D01*
X48805Y37755D01*
X48922Y37778D01*
X49021Y37845D01*
X49087Y37944D01*
X49111Y38061D01*
X49087Y38178D01*
X49021Y38277D01*
X48922Y38343D01*
X48805Y38367D01*
X48688Y38343D01*
X48588Y38277D01*
X48522Y38178D01*
X48499Y38061D01*
X48519Y37960D01*
X48247Y37688D01*
X43556D01*
X43441Y37640D01*
X43173Y37372D01*
X43125Y37258D01*
Y35718D01*
X41558Y34151D01*
X26346D01*
X25207Y35290D01*
X25092Y35338D01*
X22495D01*
X22457Y35430D01*
X25201Y38174D01*
X25501D01*
X25615Y38222D01*
X26546Y39152D01*
X26593Y39267D01*
Y45666D01*
X26733Y45805D01*
X26781Y45920D01*
Y48505D01*
X28163Y49888D01*
X28211Y50003D01*
Y53333D01*
X43181Y68303D01*
X45808D01*
X45846Y68210D01*
D02*
G37*
G36*
X64748Y49067D02*
Y47299D01*
X64796Y47184D01*
X64839Y47141D01*
X64798Y47041D01*
X64675D01*
Y47112D01*
X64125D01*
Y46562D01*
X64675D01*
Y46633D01*
X64775D01*
X65068Y46341D01*
X65066Y46254D01*
X64984Y46194D01*
X64875Y46216D01*
X64758Y46193D01*
X64659Y46126D01*
X64592Y46027D01*
X64569Y45910D01*
X64592Y45793D01*
X64594Y45790D01*
X64640Y45710D01*
X64640D01*
X64640Y45710D01*
Y45596D01*
X64574Y45527D01*
X64537Y45519D01*
X64501Y45512D01*
X64499Y45510D01*
X64496Y45510D01*
X64422Y45477D01*
X64030D01*
Y45210D01*
X63942Y45122D01*
X63900Y45131D01*
X63872Y45125D01*
X63853Y45138D01*
X63775Y45154D01*
X63675D01*
Y45225D01*
X63125D01*
Y44675D01*
X63639D01*
X63684Y44609D01*
X63783Y44542D01*
X63900Y44519D01*
X64017Y44542D01*
X64116Y44609D01*
X64183Y44708D01*
X64202Y44805D01*
X64324Y44927D01*
X64580D01*
Y45101D01*
X64622Y45120D01*
X64778D01*
X64856Y45135D01*
X64893Y45160D01*
X65190D01*
X65190Y45160D01*
X65268Y45130D01*
X65273Y45127D01*
X65273Y45127D01*
X65390Y45104D01*
X65507Y45127D01*
X65549Y45156D01*
X65649Y45102D01*
Y44715D01*
X65618Y44709D01*
X65518Y44642D01*
X65452Y44543D01*
X65429Y44426D01*
X65452Y44309D01*
X65518Y44210D01*
X65618Y44143D01*
X65649Y44137D01*
Y43725D01*
X64575D01*
X64575Y43700D01*
X64025D01*
X64025Y43750D01*
X63475D01*
X63475Y43650D01*
X62925D01*
X62925Y43730D01*
X62475D01*
Y44200D01*
X62460Y44273D01*
X62430Y44318D01*
X62429Y44322D01*
X62388Y44384D01*
X62377Y44394D01*
Y44612D01*
X62362Y44685D01*
X62321Y44747D01*
X61641Y45427D01*
X61633Y45467D01*
X61566Y45566D01*
X61467Y45633D01*
X61366Y45653D01*
Y45660D01*
X61354Y45723D01*
Y45763D01*
X61350Y45781D01*
Y45999D01*
X61375Y46019D01*
X61492Y46042D01*
X61591Y46109D01*
X61658Y46208D01*
X61663Y46235D01*
X61725Y46249D01*
X61767Y46246D01*
X61794Y46205D01*
X62217Y45782D01*
Y45555D01*
X62159Y45516D01*
X62092Y45417D01*
X62069Y45300D01*
X62092Y45183D01*
X62159Y45084D01*
X62258Y45017D01*
X62375Y44994D01*
X62492Y45017D01*
X62591Y45084D01*
X62658Y45183D01*
X62681Y45300D01*
X62658Y45417D01*
X62591Y45516D01*
X62533Y45555D01*
Y45848D01*
X62521Y45908D01*
X62502Y45937D01*
X62511Y45999D01*
X62515Y46016D01*
X62534Y46054D01*
X62616Y46109D01*
X62683Y46208D01*
X62706Y46325D01*
Y46615D01*
X62730Y46650D01*
X62757Y46787D01*
Y47677D01*
X63113Y48032D01*
X63213Y47991D01*
Y46502D01*
X63159Y46466D01*
X63092Y46367D01*
X63069Y46250D01*
X63092Y46133D01*
X63159Y46034D01*
X63258Y45967D01*
X63375Y45944D01*
X63492Y45967D01*
X63591Y46034D01*
X63658Y46133D01*
X63681Y46250D01*
X63658Y46367D01*
X63591Y46466D01*
X63537Y46502D01*
Y47987D01*
X64656Y49105D01*
X64748Y49067D01*
D02*
G37*
G36*
X109583Y51150D02*
X111658Y49075D01*
Y39225D01*
X109033Y36600D01*
X105908Y36600D01*
X105563Y36255D01*
X105453D01*
Y36145D01*
X104310Y35002D01*
X97229Y35000D01*
X97158Y35071D01*
X97158Y36702D01*
X103996D01*
Y38200D01*
X106960Y38200D01*
X107205Y38445D01*
X107758D01*
Y38998D01*
X109983Y41223D01*
X109983Y46471D01*
X110059Y46522D01*
X110137Y46638D01*
X110164Y46775D01*
X110137Y46911D01*
X110106Y46957D01*
Y47070D01*
X110213D01*
Y47830D01*
X109876D01*
X108079Y49627D01*
X98183D01*
X98183Y51150D01*
X109583Y51150D01*
D02*
G37*
G36*
X26008Y34030D02*
X25970Y33937D01*
X24467D01*
X23932Y34473D01*
X23957Y34600D01*
X23928Y34746D01*
X23845Y34870D01*
X23781Y34913D01*
X23811Y35013D01*
X25025D01*
X26008Y34030D01*
D02*
G37*
%LPC*%
G36*
X29780Y53332D02*
X29634Y53303D01*
X29510Y53220D01*
X29490Y53191D01*
X29390D01*
X29370Y53220D01*
X29246Y53303D01*
X29100Y53332D01*
X28954Y53303D01*
X28830Y53220D01*
X28747Y53096D01*
X28718Y52950D01*
X28747Y52804D01*
X28830Y52680D01*
X28954Y52597D01*
X29100Y52568D01*
X29246Y52597D01*
X29370Y52680D01*
X29390Y52709D01*
X29490D01*
X29510Y52680D01*
X29634Y52597D01*
X29780Y52568D01*
X29926Y52597D01*
X30050Y52680D01*
X30133Y52804D01*
X30162Y52950D01*
X30133Y53096D01*
X30050Y53220D01*
X29926Y53303D01*
X29780Y53332D01*
D02*
G37*
G36*
X31150Y51390D02*
X31013Y51363D01*
X30898Y51285D01*
X30820Y51169D01*
X30793Y51033D01*
X30820Y50896D01*
X30898Y50781D01*
X31013Y50703D01*
X31150Y50676D01*
X31287Y50703D01*
X31402Y50781D01*
X31480Y50896D01*
X31507Y51033D01*
X31480Y51169D01*
X31402Y51285D01*
X31287Y51363D01*
X31150Y51390D01*
D02*
G37*
G36*
X43543Y50941D02*
X31898D01*
X31783Y50893D01*
X30665Y49775D01*
X30618Y49661D01*
Y48890D01*
X30293Y48566D01*
X30110D01*
X30052Y48652D01*
X30027Y48669D01*
Y48752D01*
X30040Y48781D01*
X30114Y48891D01*
X30141Y49027D01*
X30114Y49164D01*
X30073Y49225D01*
X30126Y49325D01*
X30230D01*
Y50035D01*
X29330D01*
Y50035D01*
X29255D01*
Y50035D01*
X28355D01*
Y49325D01*
X29255D01*
Y49325D01*
X29330D01*
Y49325D01*
X29448D01*
X29495Y49225D01*
X29454Y49164D01*
X29427Y49027D01*
X29454Y48891D01*
X29532Y48775D01*
X29557Y48758D01*
Y48675D01*
X29544Y48647D01*
X29470Y48537D01*
X29443Y48400D01*
X29470Y48263D01*
X29548Y48148D01*
X29663Y48070D01*
X29800Y48043D01*
X29937Y48070D01*
X30052Y48148D01*
X30115Y48241D01*
X30361D01*
X30475Y48288D01*
X30895Y48708D01*
X30942Y48823D01*
Y49593D01*
X31965Y50616D01*
X43416D01*
X43445Y50580D01*
X43469Y50463D01*
X43535Y50364D01*
X43634Y50298D01*
X43751Y50275D01*
X43868Y50298D01*
X43967Y50364D01*
X44034Y50463D01*
X44057Y50580D01*
X44034Y50697D01*
X43967Y50797D01*
X43868Y50863D01*
X43751Y50886D01*
X43679Y50872D01*
X43657Y50893D01*
X43543Y50941D01*
D02*
G37*
G36*
X31575Y49130D02*
X31438Y49103D01*
X31323Y49025D01*
X31245Y48910D01*
X31218Y48773D01*
X31245Y48636D01*
X31323Y48521D01*
X31438Y48443D01*
X31575Y48416D01*
X31712Y48443D01*
X31827Y48521D01*
X31905Y48636D01*
X31932Y48773D01*
X31905Y48910D01*
X31827Y49025D01*
X31712Y49103D01*
X31575Y49130D01*
D02*
G37*
G36*
X34125Y47707D02*
X33988Y47680D01*
X33875Y47604D01*
X33762Y47680D01*
X33625Y47707D01*
X33488Y47680D01*
X33373Y47602D01*
X33295Y47487D01*
X33268Y47350D01*
X33295Y47213D01*
X33373Y47098D01*
X33488Y47020D01*
X33625Y46993D01*
X33762Y47020D01*
X33875Y47096D01*
X33988Y47020D01*
X34125Y46993D01*
X34262Y47020D01*
X34377Y47098D01*
X34455Y47213D01*
X34482Y47350D01*
X34455Y47487D01*
X34377Y47602D01*
X34262Y47680D01*
X34125Y47707D01*
D02*
G37*
G36*
X57075Y46375D02*
Y46375D01*
X57003Y46375D01*
X56525D01*
Y45825D01*
X57075D01*
Y45825D01*
X57100Y45825D01*
Y45825D01*
X57430D01*
X57450Y45821D01*
X57450Y45821D01*
X57496D01*
X57594Y45800D01*
X57617Y45683D01*
X57684Y45584D01*
X57783Y45517D01*
X57900Y45494D01*
X58017Y45517D01*
X58116Y45584D01*
X58183Y45683D01*
X58206Y45800D01*
X58183Y45917D01*
X58116Y46016D01*
X58017Y46083D01*
X57900Y46106D01*
X57885Y46103D01*
X57819Y46169D01*
X57753Y46213D01*
X57675Y46229D01*
X57650D01*
Y46375D01*
X57172D01*
X57100Y46375D01*
Y46375D01*
X57075Y46375D01*
D02*
G37*
G36*
X41473Y45095D02*
X41327Y45066D01*
X41203Y44983D01*
X41186Y44957D01*
X41085D01*
X41068Y44983D01*
X40944Y45066D01*
X40798Y45095D01*
X40652Y45066D01*
X40528Y44983D01*
X40511Y44957D01*
X40410D01*
X40393Y44983D01*
X40269Y45066D01*
X40123Y45095D01*
X39977Y45066D01*
X39853Y44983D01*
X39770Y44859D01*
X39741Y44713D01*
X39770Y44566D01*
X39853Y44442D01*
X39878Y44425D01*
Y44325D01*
X39853Y44308D01*
X39770Y44184D01*
X39741Y44038D01*
X39770Y43891D01*
X39853Y43767D01*
X39977Y43684D01*
X40123Y43655D01*
X40269Y43684D01*
X40393Y43767D01*
X40410Y43793D01*
X40511D01*
X40528Y43767D01*
X40652Y43684D01*
X40798Y43655D01*
X40944Y43684D01*
X41068Y43767D01*
X41085Y43793D01*
X41186D01*
X41203Y43767D01*
X41327Y43684D01*
X41473Y43655D01*
X41619Y43684D01*
X41743Y43767D01*
X41826Y43891D01*
X41855Y44038D01*
X41826Y44184D01*
X41743Y44308D01*
X41718Y44325D01*
Y44425D01*
X41743Y44442D01*
X41826Y44566D01*
X41855Y44713D01*
X41826Y44859D01*
X41743Y44983D01*
X41619Y45066D01*
X41473Y45095D01*
D02*
G37*
G36*
X42248Y50007D02*
X35902D01*
X35824Y49992D01*
X35758Y49948D01*
X35758Y49948D01*
X34527Y48716D01*
X34449Y48780D01*
X34460Y48796D01*
X34505Y48863D01*
X34532Y49000D01*
X34505Y49137D01*
X34427Y49252D01*
X34312Y49330D01*
X34175Y49357D01*
X34038Y49330D01*
X33925Y49254D01*
X33812Y49330D01*
X33675Y49357D01*
X33538Y49330D01*
X33423Y49252D01*
X33345Y49137D01*
X33318Y49000D01*
X33345Y48863D01*
X33423Y48748D01*
X33538Y48670D01*
X33675Y48643D01*
X33812Y48670D01*
X33925Y48746D01*
X34038Y48670D01*
X34175Y48643D01*
X34312Y48670D01*
X34379Y48715D01*
X34395Y48726D01*
X34459Y48648D01*
X34125Y48314D01*
X32250D01*
X32234Y48318D01*
X32156Y48302D01*
X32152Y48299D01*
X32151Y48299D01*
X32085Y48255D01*
X32085Y48255D01*
X31839Y48008D01*
X31807Y48030D01*
X31670Y48057D01*
X31533Y48030D01*
X31418Y47952D01*
X31340Y47837D01*
X31313Y47700D01*
X31340Y47563D01*
X31418Y47448D01*
X31533Y47370D01*
X31670Y47343D01*
X31807Y47370D01*
X31922Y47448D01*
X32000Y47563D01*
X32008Y47605D01*
X32025Y47616D01*
X32316Y47907D01*
X34209D01*
X34287Y47922D01*
X34353Y47966D01*
X35987Y49600D01*
X42164D01*
X43946Y47817D01*
Y46041D01*
X43962Y45963D01*
X44006Y45896D01*
X45162Y44741D01*
X45150Y44683D01*
X45180Y44537D01*
X45262Y44413D01*
X45386Y44330D01*
X45533Y44301D01*
X45679Y44330D01*
X45803Y44413D01*
X45886Y44537D01*
X45915Y44683D01*
X45886Y44829D01*
X45803Y44953D01*
X45679Y45036D01*
X45533Y45065D01*
X45434Y45046D01*
X44354Y46125D01*
Y47902D01*
X44354Y47902D01*
X44339Y47980D01*
X44294Y48046D01*
X44294Y48046D01*
X42393Y49948D01*
X42326Y49992D01*
X42248Y50007D01*
D02*
G37*
G36*
X48425Y47237D02*
X48191Y47190D01*
X47992Y47058D01*
X47860Y46859D01*
X47813Y46625D01*
Y46325D01*
X47860Y46091D01*
X47992Y45892D01*
X48191Y45760D01*
X48221Y45754D01*
Y45241D01*
X48237Y45163D01*
X48281Y45097D01*
X48879Y44499D01*
Y44367D01*
X48728D01*
Y43467D01*
X49438D01*
Y44367D01*
X49287D01*
Y44583D01*
X49287Y44583D01*
X49271Y44661D01*
X49227Y44727D01*
X49227Y44727D01*
X48629Y45325D01*
Y45754D01*
X48659Y45760D01*
X48858Y45892D01*
X48990Y46091D01*
X49037Y46325D01*
Y46625D01*
X48990Y46859D01*
X48858Y47058D01*
X48659Y47190D01*
X48425Y47237D01*
D02*
G37*
G36*
X48538Y44367D02*
X47828D01*
Y43467D01*
X47988D01*
Y43123D01*
X46873D01*
Y42727D01*
X46762D01*
Y42920D01*
X46002D01*
Y42210D01*
X46762D01*
Y42320D01*
X46873D01*
Y41923D01*
X48473D01*
Y43123D01*
X48396D01*
Y43467D01*
X48538D01*
Y44367D01*
D02*
G37*
G36*
X52031Y43106D02*
X51914Y43083D01*
X51815Y43016D01*
X51748Y42917D01*
X51725Y42800D01*
X51748Y42683D01*
X51815Y42584D01*
X51914Y42517D01*
X52031Y42494D01*
X52148Y42517D01*
X52247Y42584D01*
X52314Y42683D01*
X52337Y42800D01*
X52314Y42917D01*
X52247Y43016D01*
X52148Y43083D01*
X52031Y43106D01*
D02*
G37*
G36*
X52675Y41781D02*
X52558Y41758D01*
X52495Y41716D01*
X52425Y41699D01*
X52355Y41716D01*
X52292Y41758D01*
X52175Y41781D01*
X52058Y41758D01*
X51959Y41691D01*
X51892Y41592D01*
X51869Y41475D01*
X51892Y41358D01*
X51959Y41259D01*
X52058Y41192D01*
X52175Y41169D01*
X52292Y41192D01*
X52355Y41234D01*
X52425Y41251D01*
X52495Y41234D01*
X52558Y41192D01*
X52675Y41169D01*
X52792Y41192D01*
X52891Y41259D01*
X52958Y41358D01*
X52981Y41475D01*
X52958Y41592D01*
X52891Y41691D01*
X52792Y41758D01*
X52675Y41781D01*
D02*
G37*
G36*
X48473Y41223D02*
X46873D01*
Y40830D01*
X46750D01*
Y40930D01*
X45850D01*
Y40220D01*
X46750D01*
Y40320D01*
X46873D01*
Y40023D01*
X48473D01*
Y41223D01*
D02*
G37*
G36*
X49889Y40172D02*
X49772Y40149D01*
X49673Y40083D01*
X49574D01*
X49475Y40149D01*
X49358Y40172D01*
X49241Y40149D01*
X49141Y40083D01*
X49075Y39983D01*
X49052Y39866D01*
X49075Y39749D01*
X49141Y39650D01*
X49241Y39584D01*
X49358Y39560D01*
X49475Y39584D01*
X49574Y39650D01*
X49673D01*
X49772Y39584D01*
X49889Y39560D01*
X50006Y39584D01*
X50105Y39650D01*
X50172Y39749D01*
X50195Y39866D01*
X50172Y39983D01*
X50105Y40083D01*
X50006Y40149D01*
X49889Y40172D01*
D02*
G37*
G36*
X54436Y40383D02*
X54319Y40360D01*
X54220Y40293D01*
X54154Y40194D01*
X54130Y40077D01*
X54154Y39960D01*
X54220Y39861D01*
X54319Y39795D01*
X54436Y39771D01*
X54553Y39795D01*
X54653Y39861D01*
X54719Y39960D01*
X54742Y40077D01*
X54719Y40194D01*
X54653Y40293D01*
X54553Y40360D01*
X54436Y40383D01*
D02*
G37*
G36*
X55458Y40376D02*
X55341Y40353D01*
X55242Y40286D01*
X55176Y40187D01*
X55152Y40070D01*
X55176Y39953D01*
X55242Y39854D01*
X55341Y39787D01*
X55458Y39764D01*
X55575Y39787D01*
X55674Y39854D01*
X55741Y39953D01*
X55764Y40070D01*
X55741Y40187D01*
X55674Y40286D01*
X55575Y40353D01*
X55458Y40376D01*
D02*
G37*
G36*
X32235Y39887D02*
X32098Y39860D01*
X31983Y39782D01*
X31905Y39667D01*
X31878Y39530D01*
X31905Y39393D01*
X31983Y39278D01*
X32098Y39200D01*
X32235Y39173D01*
X32372Y39200D01*
X32487Y39278D01*
X32565Y39393D01*
X32592Y39530D01*
X32565Y39667D01*
X32487Y39782D01*
X32372Y39860D01*
X32235Y39887D01*
D02*
G37*
G36*
X58325Y39661D02*
X58208Y39638D01*
X58109Y39571D01*
X58042Y39472D01*
X58019Y39355D01*
X58042Y39238D01*
X58109Y39139D01*
X58208Y39072D01*
X58325Y39049D01*
X58442Y39072D01*
X58541Y39139D01*
X58608Y39238D01*
X58631Y39355D01*
X58608Y39472D01*
X58541Y39571D01*
X58442Y39638D01*
X58325Y39661D01*
D02*
G37*
G36*
X42252Y38667D02*
X42106Y38638D01*
X41982Y38555D01*
X41965Y38530D01*
X41865D01*
X41847Y38555D01*
X41723Y38638D01*
X41577Y38667D01*
X41431Y38638D01*
X41307Y38555D01*
X41224Y38431D01*
X41195Y38285D01*
X41224Y38139D01*
X41307Y38015D01*
X41355Y37983D01*
Y37862D01*
X41307Y37830D01*
X41224Y37706D01*
X41195Y37560D01*
X41224Y37414D01*
X41307Y37290D01*
X41431Y37207D01*
X41577Y37178D01*
X41723Y37207D01*
X41847Y37290D01*
X41865Y37315D01*
X41965D01*
X41982Y37290D01*
X42106Y37207D01*
X42252Y37178D01*
X42398Y37207D01*
X42522Y37290D01*
X42605Y37414D01*
X42634Y37560D01*
X42605Y37706D01*
X42522Y37830D01*
X42474Y37862D01*
Y37983D01*
X42522Y38015D01*
X42605Y38139D01*
X42634Y38285D01*
X42605Y38431D01*
X42522Y38555D01*
X42398Y38638D01*
X42252Y38667D01*
D02*
G37*
G36*
X45800Y38431D02*
X45683Y38408D01*
X45620Y38366D01*
X45550Y38349D01*
X45480Y38366D01*
X45417Y38408D01*
X45300Y38431D01*
X45183Y38408D01*
X45120Y38366D01*
X45050Y38349D01*
X44980Y38366D01*
X44917Y38408D01*
X44800Y38431D01*
X44683Y38408D01*
X44584Y38341D01*
X44517Y38242D01*
X44494Y38125D01*
X44517Y38008D01*
X44584Y37909D01*
X44683Y37842D01*
X44800Y37819D01*
X44917Y37842D01*
X44980Y37884D01*
X45050Y37901D01*
X45120Y37884D01*
X45183Y37842D01*
X45300Y37819D01*
X45417Y37842D01*
X45480Y37884D01*
X45550Y37901D01*
X45620Y37884D01*
X45683Y37842D01*
X45800Y37819D01*
X45917Y37842D01*
X46016Y37909D01*
X46083Y38008D01*
X46106Y38125D01*
X46083Y38242D01*
X46016Y38341D01*
X45917Y38408D01*
X45800Y38431D01*
D02*
G37*
G36*
X49475Y38860D02*
X49358Y38837D01*
X49258Y38770D01*
X49192Y38671D01*
X49169Y38554D01*
X49192Y38437D01*
X49258Y38338D01*
X49358Y38271D01*
X49475Y38248D01*
X49592Y38271D01*
X49691Y38338D01*
X49757Y38437D01*
X49781Y38554D01*
X49757Y38671D01*
X49691Y38770D01*
X49592Y38837D01*
X49475Y38860D01*
D02*
G37*
G36*
X27565Y38467D02*
X27428Y38440D01*
X27313Y38362D01*
X27235Y38247D01*
X27208Y38110D01*
X27235Y37973D01*
X27313Y37858D01*
X27428Y37780D01*
X27565Y37753D01*
X27702Y37780D01*
X27817Y37858D01*
X27895Y37973D01*
X27922Y38110D01*
X27895Y38247D01*
X27817Y38362D01*
X27702Y38440D01*
X27565Y38467D01*
D02*
G37*
G36*
X34635Y37907D02*
X34498Y37880D01*
X34383Y37802D01*
X34305Y37687D01*
X34278Y37550D01*
X34305Y37413D01*
X34358Y37335D01*
X34310Y37235D01*
X33117D01*
X32933Y37419D01*
X32947Y37490D01*
X32920Y37627D01*
X32842Y37742D01*
X32727Y37820D01*
X32590Y37847D01*
X32453Y37820D01*
X32338Y37742D01*
X32260Y37627D01*
X32233Y37490D01*
X32260Y37353D01*
X32338Y37238D01*
X32453Y37160D01*
X32590Y37133D01*
X32633Y37142D01*
X32888Y36887D01*
X32954Y36843D01*
X33032Y36827D01*
X36074D01*
X36912Y35989D01*
X36978Y35944D01*
X37056Y35929D01*
X42212D01*
X42298Y35871D01*
X42415Y35848D01*
X42532Y35871D01*
X42632Y35937D01*
X42698Y36037D01*
X42721Y36154D01*
X42698Y36271D01*
X42632Y36370D01*
X42532Y36436D01*
X42415Y36460D01*
X42298Y36436D01*
X42199Y36370D01*
X42177Y36337D01*
X37141D01*
X36302Y37175D01*
X36236Y37219D01*
X36158Y37235D01*
X34960D01*
X34912Y37335D01*
X34965Y37413D01*
X34992Y37550D01*
X34965Y37687D01*
X34887Y37802D01*
X34772Y37880D01*
X34635Y37907D01*
D02*
G37*
G36*
X46875Y37131D02*
X46758Y37108D01*
X46659Y37041D01*
X46650Y37028D01*
X46550D01*
X46541Y37041D01*
X46442Y37108D01*
X46325Y37131D01*
X46208Y37108D01*
X46145Y37066D01*
X46075Y37049D01*
X46005Y37066D01*
X45942Y37108D01*
X45825Y37131D01*
X45708Y37108D01*
X45609Y37041D01*
X45542Y36942D01*
X45519Y36825D01*
X45542Y36708D01*
X45609Y36609D01*
X45708Y36542D01*
X45825Y36519D01*
X45942Y36542D01*
X46041Y36609D01*
X46109D01*
X46208Y36542D01*
X46325Y36519D01*
X46442Y36542D01*
X46541Y36609D01*
X46550Y36622D01*
X46650D01*
X46659Y36609D01*
X46758Y36542D01*
X46875Y36519D01*
X46992Y36542D01*
X47091Y36609D01*
X47158Y36708D01*
X47181Y36825D01*
X47158Y36942D01*
X47091Y37041D01*
X46992Y37108D01*
X46875Y37131D01*
D02*
G37*
G36*
X30960Y37737D02*
X30823Y37710D01*
X30708Y37632D01*
X30630Y37517D01*
X30603Y37380D01*
X30630Y37243D01*
X30708Y37128D01*
X30823Y37050D01*
X30960Y37023D01*
X31097Y37050D01*
X31212Y37128D01*
X31290Y37243D01*
X31317Y37380D01*
X31290Y37517D01*
X31212Y37632D01*
X31097Y37710D01*
X30960Y37737D01*
D02*
G37*
G36*
X26110Y37532D02*
X25973Y37505D01*
X25858Y37427D01*
X25780Y37312D01*
X25753Y37175D01*
X25780Y37038D01*
X25858Y36923D01*
X25915Y36884D01*
Y36764D01*
X25913Y36762D01*
X25835Y36647D01*
X25808Y36510D01*
X25835Y36373D01*
X25913Y36258D01*
X26028Y36180D01*
X26165Y36153D01*
X26302Y36180D01*
X26417Y36258D01*
X26495Y36373D01*
X26522Y36510D01*
X26495Y36647D01*
X26417Y36762D01*
X26360Y36801D01*
Y36921D01*
X26362Y36923D01*
X26440Y37038D01*
X26467Y37175D01*
X26440Y37312D01*
X26362Y37427D01*
X26247Y37505D01*
X26110Y37532D01*
D02*
G37*
G36*
X28300Y36817D02*
X28163Y36790D01*
X28048Y36713D01*
X27970Y36597D01*
X27943Y36460D01*
X27970Y36324D01*
X28048Y36208D01*
X28163Y36131D01*
X28300Y36104D01*
X28437Y36131D01*
X28552Y36208D01*
X28630Y36324D01*
X28657Y36460D01*
X28630Y36597D01*
X28552Y36713D01*
X28437Y36790D01*
X28300Y36817D01*
D02*
G37*
G36*
X49325Y36131D02*
X49208Y36108D01*
X49109Y36041D01*
X49042Y35942D01*
X49019Y35825D01*
X49042Y35708D01*
X49109Y35609D01*
X49208Y35542D01*
X49325Y35519D01*
X49442Y35542D01*
X49541Y35609D01*
X49608Y35708D01*
X49631Y35825D01*
X49608Y35942D01*
X49541Y36041D01*
X49442Y36108D01*
X49325Y36131D01*
D02*
G37*
G36*
X28240Y35937D02*
X28103Y35910D01*
X27988Y35832D01*
X27910Y35717D01*
X27883Y35580D01*
X27910Y35443D01*
X27988Y35328D01*
X28103Y35250D01*
X28240Y35223D01*
X28377Y35250D01*
X28492Y35328D01*
X28570Y35443D01*
X28597Y35580D01*
X28570Y35717D01*
X28492Y35832D01*
X28377Y35910D01*
X28240Y35937D01*
D02*
G37*
G36*
X110677Y41232D02*
X110541Y41204D01*
X110425Y41127D01*
X110347Y41011D01*
X110320Y40875D01*
X110347Y40738D01*
X110425Y40622D01*
X110541Y40545D01*
X110677Y40518D01*
X110814Y40545D01*
X110929Y40622D01*
X111007Y40738D01*
X111034Y40875D01*
X111007Y41011D01*
X110929Y41127D01*
X110814Y41204D01*
X110677Y41232D01*
D02*
G37*
G36*
X109332Y39632D02*
X109196Y39604D01*
X109080Y39527D01*
X108984D01*
X108869Y39604D01*
X108732Y39632D01*
X108596Y39604D01*
X108480Y39527D01*
X108402Y39411D01*
X108375Y39275D01*
X108402Y39138D01*
X108480Y39022D01*
X108596Y38945D01*
X108732Y38918D01*
X108869Y38945D01*
X108984Y39022D01*
X109080D01*
X109196Y38945D01*
X109332Y38918D01*
X109469Y38945D01*
X109584Y39022D01*
X109662Y39138D01*
X109689Y39275D01*
X109662Y39411D01*
X109584Y39527D01*
X109469Y39604D01*
X109332Y39632D01*
D02*
G37*
%LPD*%
D11*
X61866Y43363D02*
X61941Y43438D01*
X61616Y42961D02*
X61866Y43211D01*
X60788Y43438D02*
X60814D01*
X61017Y42572D02*
X61135D01*
X61017D02*
Y42591D01*
X61060Y42405D02*
X61227Y42572D01*
X60923Y42405D02*
X61060D01*
X60913Y41657D02*
X61502D01*
X60507Y43028D02*
X60545Y42990D01*
X58900Y45425D02*
X58942Y45383D01*
X59325Y43408D02*
X59534Y43617D01*
Y43856D02*
Y43930D01*
Y43617D02*
Y43781D01*
X59325Y43400D02*
Y43408D01*
X59370Y43980D02*
X59484D01*
X59050Y44300D02*
X59370Y43980D01*
X59484D02*
X59534Y43930D01*
X58942Y45383D02*
X59342D01*
X109943Y41410D02*
X109970D01*
X109783Y41250D02*
X109943Y41410D01*
X109970D02*
X110433Y41873D01*
Y42200D01*
X65735Y44411D02*
X65958Y44635D01*
X37056Y36133D02*
X42394D01*
X42415Y36154D01*
X48425Y45241D02*
Y46801D01*
Y45241D02*
X49083Y44583D01*
Y43917D02*
Y44583D01*
X47792Y42523D02*
X48192Y42923D01*
Y43796D01*
X47673Y42523D02*
X47792D01*
X47941Y39675D02*
X48116Y39500D01*
X46300Y39675D02*
X47941D01*
X48116Y39500D02*
X48158D01*
X46424Y42523D02*
X47673D01*
X46382Y42565D02*
X46424Y42523D01*
X65920Y38260D02*
X65970D01*
X65607Y38573D02*
X65920Y38260D01*
X65349Y38573D02*
X65607D01*
X36158Y37031D02*
X37056Y36133D01*
X33032Y37031D02*
X36158D01*
X32570Y37493D02*
X33032Y37031D01*
X61502Y41657D02*
X62038D01*
X60840D02*
X60913D01*
X60915Y41655D01*
X60840Y41730D02*
X60913Y41657D01*
X61502D02*
X61551Y41706D01*
X61476Y41631D02*
X61502Y41657D01*
X60578Y42990D02*
X60599D01*
X60545D02*
X60578D01*
X32815Y41397D02*
X43097D01*
X35902Y49804D02*
X42248D01*
X44150Y47902D01*
X34209Y48111D02*
X35902Y49804D01*
X31645Y47700D02*
X31702Y47757D01*
X32229Y48111D02*
X34209D01*
X31876Y47757D02*
X32229Y48111D01*
X31702Y47757D02*
X31876D01*
X44150Y46041D02*
Y47902D01*
Y46041D02*
X45508Y44683D01*
X64840Y44796D02*
X65385D01*
X64548Y44408D02*
X64586Y44446D01*
X65375Y44000D02*
X65436Y43939D01*
X64239Y43997D02*
X64314Y44072D01*
X63156Y43924D02*
Y44240D01*
X62636Y44080D02*
Y44483D01*
X61302Y44062D02*
X61377Y43987D01*
X60726Y44075D02*
X60813Y43988D01*
X60173Y43895D02*
X60235Y43957D01*
X60340Y39635D02*
X60491Y39786D01*
X25123Y47875D02*
X25325Y47673D01*
X22394Y47875D02*
X25123D01*
X21979Y48290D02*
X22394Y47875D01*
X25325Y46975D02*
Y47673D01*
X31650Y47703D02*
X31707Y47761D01*
X31881D02*
X32234Y48114D01*
X31707Y47761D02*
X31881D01*
X18850Y48290D02*
X21979D01*
X65169Y39669D02*
Y39809D01*
X65150Y39650D02*
X65169Y39669D01*
Y39809D02*
X65530Y40170D01*
X65557D02*
X65677Y40050D01*
X66250D01*
X65530Y40170D02*
X65557D01*
X59850Y41650D02*
X60346D01*
X60351Y41655D01*
X60813Y43988D02*
X60814D01*
X60248Y44139D02*
X60551Y44442D01*
X60235Y44124D02*
X60248Y44137D01*
X60235Y43957D02*
Y44124D01*
X60624Y44485D02*
X60726Y44383D01*
Y44075D02*
Y44383D01*
X60551Y44442D02*
X60558D01*
X60248Y44137D02*
Y44139D01*
X59902Y45948D02*
Y46829D01*
X60599Y42990D02*
X60699Y42890D01*
X60285Y43270D02*
X60328D01*
X60507Y43091D01*
X60725Y43375D02*
X60788Y43438D01*
X60578Y42990D02*
X60725Y43137D01*
X60699Y42890D02*
X60719D01*
X60173Y43345D02*
X60198Y43320D01*
X60235D02*
X60285Y43270D01*
X60625Y42107D02*
X60923Y42405D01*
X60725Y43137D02*
Y43375D01*
X60719Y42890D02*
X61017Y42591D01*
X60198Y43320D02*
X60235D01*
X60507Y43028D02*
Y43091D01*
X61302Y44062D02*
Y44274D01*
X61132Y44444D02*
X61302Y44274D01*
X61132Y44444D02*
Y44466D01*
X65274Y38648D02*
X65349Y38573D01*
X65274Y38648D02*
X65349Y38723D01*
X65476Y38726D02*
X65750Y39000D01*
X65349Y38723D02*
X65463D01*
X65466Y38726D01*
X65476D01*
X60625Y42100D02*
Y42107D01*
X61227Y42572D02*
X61616Y42961D01*
X61625Y42983D01*
X61455Y42572D02*
X61616Y42961D01*
X61866Y43211D02*
Y43363D01*
X61227Y42572D02*
X61455D01*
X61060Y42405D02*
X61623D01*
X64850Y44000D02*
X65375D01*
X64804D02*
X64850D01*
X63156Y44240D02*
X63328Y44412D01*
X63784Y43441D02*
X64284D01*
X63750Y43475D02*
X63784Y43441D01*
X64284D02*
X64300Y43425D01*
X65030Y43196D02*
Y43270D01*
X65086Y42672D02*
Y43141D01*
X65040Y42572D02*
Y42626D01*
X64850Y43450D02*
X65030Y43270D01*
Y43196D02*
X65086Y43141D01*
X65040Y42626D02*
X65086Y42672D01*
X62758Y43018D02*
X62843D01*
X63200Y43375D01*
X62720Y42980D02*
X62758Y43018D01*
X63275Y43300D02*
X63308D01*
X63200Y43375D02*
X63275Y43300D01*
X63308D02*
X63625Y42983D01*
Y42975D02*
Y42983D01*
Y42963D02*
Y42975D01*
X63675Y43088D02*
Y43400D01*
X63625Y42983D02*
Y43038D01*
X63675Y43400D02*
X63750Y43475D01*
X63625Y43038D02*
X63675Y43088D01*
X64587Y43022D02*
Y43138D01*
X64300Y43425D02*
X64587Y43138D01*
Y43022D02*
X64625Y42983D01*
X64658Y43016D02*
Y43258D01*
X64850Y43450D01*
X64625Y42983D02*
X64658Y43016D01*
X65036Y42572D02*
X65040D01*
X64625Y42983D02*
X65036Y42572D01*
X64055Y42610D02*
X64252D01*
X64017Y42572D02*
X64055Y42610D01*
X64252D02*
X64625Y42983D01*
X63625Y42975D02*
X64017Y42583D01*
X63237Y42575D02*
X63625Y42963D01*
X63169Y42575D02*
X63237D01*
X62720Y42980D02*
X62764D01*
X63169Y42575D01*
X62650Y43455D02*
X62685Y43420D01*
Y43015D02*
Y43420D01*
X64910Y45423D02*
X64915Y45421D01*
X64886Y45432D02*
X64910Y45423D01*
X64300Y45197D02*
X64305D01*
X62625Y44494D02*
X62636Y44483D01*
X62581Y44080D02*
X62636D01*
X65865Y43925D02*
X65886Y43946D01*
X66146D01*
X66225Y44025D01*
X66275D01*
X65436Y43939D02*
X65851D01*
X65865Y43925D01*
X66275Y44025D02*
X66400Y44150D01*
X65958Y44635D02*
Y44819D01*
X66033Y44894D01*
X65385Y44796D02*
X65483Y44894D01*
X64800Y43996D02*
X64804Y44000D01*
X64400Y46837D02*
X64860D01*
X65378Y46319D01*
X59942Y43153D02*
X60059Y43270D01*
X59942Y42839D02*
X60206Y42575D01*
X60059Y43270D02*
X60098D01*
X59942Y42839D02*
Y43153D01*
X80207Y58980D02*
Y61550D01*
X80195Y61562D02*
X80207Y61550D01*
X57825Y44912D02*
Y45100D01*
Y44912D02*
X57862Y44875D01*
X57375Y45550D02*
X57825Y45100D01*
X57862Y44875D02*
Y44894D01*
X57350Y44875D02*
X57862D01*
X56696Y44880D02*
X57345D01*
X58163Y45103D02*
Y45282D01*
X57862Y44894D02*
X57881Y44914D01*
X57974D02*
X58163Y45103D01*
X57881Y44914D02*
X57974D01*
X64579Y45324D02*
X64778D01*
X64886Y45432D01*
X64305Y45202D02*
X64579Y45324D01*
X64579D02*
X64579D01*
X64230Y45122D02*
Y45127D01*
X63900Y44825D02*
X63933D01*
X64230Y45127D02*
X64300Y45197D01*
X63933Y44825D02*
X64230Y45122D01*
X61551Y41706D02*
Y41972D01*
X61625Y42046D01*
Y42100D01*
X60719Y42062D02*
X60840Y41940D01*
X60625Y42100D02*
X60663Y42062D01*
X60840Y41730D02*
Y41940D01*
X60663Y42062D02*
X60719D01*
X61623Y42102D02*
Y42405D01*
X61455Y42572D02*
X61623Y42405D01*
Y42102D02*
X61625Y42100D01*
X74375Y56775D02*
X74425D01*
X74580Y56930D02*
Y57200D01*
X75080Y57700D02*
Y57725D01*
X75235Y57880D02*
X75260D01*
X74425Y56775D02*
X74580Y56930D01*
Y57200D02*
X75080Y57700D01*
Y57725D02*
X75235Y57880D01*
X58163Y45282D02*
X58216Y45334D01*
X55550Y38085D02*
X55662Y38198D01*
X56064D01*
X63600Y44059D02*
Y44195D01*
X63366Y44374D02*
X63421D01*
X63600Y44059D02*
X63675Y43984D01*
X63421Y44374D02*
X63600Y44195D01*
X63328Y44412D02*
X63366Y44374D01*
X64725Y44071D02*
Y44307D01*
Y44071D02*
X64800Y43996D01*
X64586Y44446D02*
X64725Y44307D01*
X64840Y44663D02*
Y44796D01*
X64586Y44446D02*
X64623D01*
X64840Y44796D02*
X64915Y44871D01*
X64623Y44446D02*
X64840Y44663D01*
X64314Y44072D02*
Y44284D01*
X64437Y44408D02*
X64548D01*
X64314Y44284D02*
X64437Y44408D01*
X59534Y43781D02*
X59609Y43856D01*
X64607Y40125D02*
X64625Y40143D01*
X64607Y39247D02*
Y40125D01*
X64198Y39575D02*
Y39949D01*
X64111Y40036D02*
X64198Y39949D01*
X63714Y40036D02*
X64111D01*
X62038Y40737D02*
X62150Y40625D01*
X62038Y40737D02*
Y41107D01*
X60915Y40815D02*
X61092Y40638D01*
X60915Y40815D02*
Y41105D01*
X61092Y40638D02*
X61420D01*
X61476Y40694D01*
Y41081D01*
X60491Y39786D02*
Y40066D01*
X60525Y40100D01*
X60956Y39749D02*
Y40021D01*
X61092Y40157D02*
Y40638D01*
X60905Y39698D02*
X60956Y39749D01*
Y40021D02*
X61092Y40157D01*
X61542Y39699D02*
Y39952D01*
X61467Y39624D02*
X61542Y39699D01*
X61625Y40035D02*
Y40089D01*
X61542Y39952D02*
X61625Y40035D01*
X62150Y40075D02*
Y40625D01*
X62030Y39955D02*
X62150Y40075D01*
X62030Y39683D02*
Y39955D01*
X75425Y57145D02*
X75925D01*
X75260Y56980D02*
X75425Y57145D01*
X75925D02*
X76110Y56960D01*
Y56305D02*
Y56960D01*
X77027Y56407D02*
X77250Y56630D01*
X77027Y55505D02*
Y56407D01*
X81505Y55435D02*
X81858D01*
X82015Y55592D02*
Y56255D01*
X81858Y55435D02*
X82015Y55592D01*
X81475Y55405D02*
X81505Y55435D01*
X81615Y56655D02*
X82015Y56255D01*
X81325Y56655D02*
X81615D01*
X80885Y55998D02*
X81061Y56174D01*
X80885Y55550D02*
Y55998D01*
X80690Y55355D02*
X80885Y55550D01*
X80175Y55355D02*
X80690D01*
X80769Y57961D02*
X81075Y57655D01*
X80952Y58144D02*
Y58825D01*
X80769Y57961D02*
X80952Y58144D01*
Y58825D02*
X81107Y58980D01*
X81075Y57136D02*
Y57655D01*
X80171Y57961D02*
X80769D01*
X79682Y58455D02*
X80207Y58980D01*
X79125Y58455D02*
X79682D01*
X78375Y57705D02*
X79125Y58455D01*
X76615Y58074D02*
X76884Y57805D01*
X76615Y58074D02*
Y58580D01*
X76884Y57805D02*
X76975D01*
X76770Y59325D02*
X77008D01*
X77208Y59126D02*
X77529D01*
X76615Y59480D02*
X76770Y59325D01*
X77008D02*
X77208Y59126D01*
X77529D02*
X77575Y59080D01*
Y59864D01*
X78350Y59055D02*
Y59739D01*
X78475Y59864D01*
X57450Y46025D02*
X57675D01*
X57900Y45800D01*
X63775Y44950D02*
X63900Y44825D01*
X63400Y44950D02*
X63775D01*
X65844Y41010D02*
Y41178D01*
X66083Y41417D01*
X65806Y40972D02*
X65844Y41010D01*
X65433Y40972D02*
X65806D01*
X65352Y41053D02*
X65433Y40972D01*
X60098Y43270D02*
X60173Y43345D01*
X61452Y43201D02*
Y43362D01*
X61625Y42983D02*
Y43028D01*
X61452Y43201D02*
X61625Y43028D01*
X61377Y43437D02*
X61452Y43362D01*
X58223Y34723D02*
X58734D01*
X58875Y34864D01*
Y35625D01*
Y36331D01*
Y36825D01*
X65150Y39650D02*
X65274Y39526D01*
Y39198D02*
Y39526D01*
X59534Y43931D02*
X59609Y43856D01*
X57375Y46100D02*
X57450Y46025D01*
X56800Y46100D02*
X57375D01*
X56800Y46100D02*
X56800Y46100D01*
X56800Y45550D02*
X56800Y45550D01*
X57375D01*
D12*
X59089Y46192D02*
X59431Y45850D01*
X59089Y46589D02*
X59375Y46875D01*
X59089Y46192D02*
Y46589D01*
X59431Y45850D02*
X59478D01*
X59441Y46334D02*
X59450Y46325D01*
X59441Y46616D02*
X59550Y46725D01*
X59441Y46334D02*
Y46616D01*
X59550Y46725D02*
X59575Y46750D01*
X43287Y35651D02*
Y37258D01*
X41626Y33989D02*
X43287Y35651D01*
X26279Y33989D02*
X41626D01*
X31898Y50778D02*
X43543D01*
X43740Y50580D02*
X43751D01*
X43543Y50778D02*
X43740Y50580D01*
X48314Y37526D02*
X48805Y38016D01*
X43287Y37258D02*
X43556Y37526D01*
X48314D01*
X48805Y38016D02*
Y38061D01*
X26618Y45920D02*
Y48572D01*
X26431Y45733D02*
X26618Y45920D01*
X26431Y39267D02*
Y45733D01*
X64988Y36395D02*
X65380Y36787D01*
X65608Y36821D02*
X65704Y36725D01*
X65380Y36787D02*
X65414Y36821D01*
X65608D01*
X65704Y36725D02*
X65775D01*
X23575Y34600D02*
X24400Y33775D01*
X37982D01*
X21490Y34694D02*
X21972Y35176D01*
X21490Y34610D02*
Y34694D01*
Y34610D02*
X21505Y34595D01*
Y33882D02*
Y34595D01*
X22500Y34097D02*
Y34600D01*
X22471Y34068D02*
X22500Y34097D01*
X54815Y35335D02*
X55083Y35603D01*
Y36219D01*
X49900Y34006D02*
X51228Y35335D01*
X54815D01*
X69733Y54412D02*
Y63865D01*
X63375Y48054D02*
X69733Y54412D01*
X65588Y68010D02*
X69733Y63865D01*
X70009Y54304D02*
Y64140D01*
X65899Y68250D02*
X70009Y64140D01*
X64910Y49206D02*
X70009Y54304D01*
X77880Y61562D02*
Y63320D01*
X43114Y68465D02*
X72735D01*
X28049Y53400D02*
X43114Y68465D01*
X72735D02*
X77880Y63320D01*
X28049Y50003D02*
Y53400D01*
X26618Y48572D02*
X28049Y50003D01*
X21972Y35176D02*
X25133Y38337D01*
X25501D02*
X26431Y39267D01*
X25133Y38337D02*
X25501D01*
X46487Y68010D02*
X65588D01*
X33493Y55016D02*
X46487Y68010D01*
X46115Y68250D02*
X65899D01*
X33099Y55234D02*
X46115Y68250D01*
X65740Y45760D02*
Y46469D01*
X64910Y47299D02*
Y49206D01*
X65390Y45410D02*
X65740Y45760D01*
X64910Y47299D02*
X65740Y46469D01*
X63375Y46250D02*
Y48054D01*
X29780Y48403D02*
X30361D01*
X37330Y33553D02*
X38666Y32217D01*
X48438D02*
X49900Y33679D01*
X38666Y32217D02*
X48438D01*
X49900Y33679D02*
Y34006D01*
X25092Y35176D02*
X26279Y33989D01*
X48180Y32561D02*
X49475Y33855D01*
X39197Y32561D02*
X48180D01*
X29080Y50763D02*
Y51228D01*
X29743Y50626D02*
X29785Y50583D01*
X29743Y50626D02*
Y51265D01*
X30361Y48403D02*
X30780Y48823D01*
Y49661D01*
X31898Y50778D01*
X30771Y52275D02*
X33099Y54603D01*
X30917Y51929D02*
X33493Y54505D01*
X37982Y33775D02*
X39197Y32561D01*
X28810Y50583D02*
X28900D01*
X29080Y50763D01*
X21972Y35176D02*
X25092D01*
X22405Y33882D02*
X22936D01*
X23265Y33553D01*
X37330D01*
X29093Y51228D02*
X30141Y52275D01*
X29743Y51265D02*
X30406Y51929D01*
X30141Y52275D02*
X30771D01*
X30406Y51929D02*
X30917D01*
X33099Y54603D02*
Y55234D01*
X33493Y54505D02*
Y55016D01*
X49475Y38554D02*
Y38632D01*
X57923Y42180D02*
X58177Y41926D01*
X58553D02*
X58999Y42371D01*
X58177Y41926D02*
X58553D01*
X58209Y42357D02*
X58334D01*
X57991Y42384D02*
X58183D01*
X58334Y42357D02*
X58391Y42300D01*
X58183Y42384D02*
X58209Y42357D01*
X57794Y42384D02*
X57991D01*
X57642Y42180D02*
X57923D01*
X58999Y42371D02*
X59286D01*
X59290Y42375D01*
X57286Y40849D02*
X57287Y40850D01*
X56899Y40849D02*
X57286D01*
X57287Y40850D02*
X57790D01*
X59375Y40950D02*
X59425Y40900D01*
X57792Y42385D02*
X57794Y42384D01*
X57635Y42575D02*
X57640Y42570D01*
X58111D01*
X58241Y42700D01*
X58250D01*
X58290Y42740D01*
X58875D01*
X57509Y43191D02*
X57742D01*
X57821Y43270D01*
X58003D01*
X58033Y43300D01*
X58348D01*
X63529Y36598D02*
Y36999D01*
Y36598D02*
X63714Y36413D01*
Y35984D02*
Y36413D01*
X64375Y36744D02*
Y37350D01*
X63973Y36342D02*
X64375Y36744D01*
X63973Y35994D02*
Y36342D01*
X64338Y35959D02*
X64438Y35858D01*
Y34135D02*
Y35850D01*
X64338Y36213D02*
X64375Y36250D01*
X64338Y35959D02*
Y36213D01*
X64438Y35850D02*
Y35858D01*
X64858Y34075D02*
Y35780D01*
X63587Y32717D02*
X64858Y33989D01*
Y34075D01*
X63587Y23818D02*
Y32717D01*
X64579Y33995D02*
X64658Y34075D01*
X63387Y32800D02*
X64579Y33992D01*
X63387Y23901D02*
Y32800D01*
X64579Y33992D02*
Y33995D01*
X64096Y34075D02*
X64248Y34227D01*
X62987Y32966D02*
X64096Y34075D01*
X64248Y34227D02*
Y35719D01*
X62987Y32683D02*
Y32966D01*
X62987Y24066D02*
Y32683D01*
X63973Y35994D02*
X64248Y35719D01*
X64379Y34075D02*
X64438Y34135D01*
X63187Y32883D02*
X64379Y34075D01*
X63187Y23983D02*
Y32883D01*
X64058Y34320D02*
Y35640D01*
X62787Y33049D02*
X63813Y34075D01*
X64058Y34320D01*
X62787Y24149D02*
Y33049D01*
X56314Y43463D02*
X57927D01*
X56233Y43812D02*
X57782D01*
X63714Y35984D02*
X64058Y35640D01*
X64658Y34075D02*
Y35887D01*
X64858Y35780D02*
X64988Y35909D01*
X64658Y35887D02*
X64798Y36026D01*
X64988Y35909D02*
Y36395D01*
X64798Y36474D02*
X64866Y36543D01*
X64798Y36026D02*
Y36474D01*
X64866Y36820D02*
X64875Y36829D01*
X64866Y36543D02*
Y36820D01*
X63529Y36999D02*
X64280Y37750D01*
X64800D01*
X58264Y43800D02*
X58850D01*
X57927Y43463D02*
X58264Y43800D01*
X52028Y42803D02*
X52031Y42800D01*
X58287Y40933D02*
X58858D01*
X61375Y48530D02*
X66363Y53518D01*
X61375Y46325D02*
Y48530D01*
X59478Y45850D02*
X60003Y45325D01*
X60375D01*
D17*
X103182Y46700D02*
D03*
X28240Y35580D02*
D03*
X84459Y38795D02*
D03*
X93332Y40550D02*
D03*
X81213Y34700D02*
D03*
X102534Y45820D02*
D03*
X100932D02*
D03*
X15926Y40798D02*
D03*
X15425D02*
D03*
X17726D02*
D03*
X17225D02*
D03*
X16724D02*
D03*
X14924D02*
D03*
X29568Y38952D02*
D03*
X20325Y40750D02*
D03*
X19526Y40798D02*
D03*
X19025D02*
D03*
X18524D02*
D03*
X20325Y39400D02*
D03*
Y39900D02*
D03*
X24725Y36760D02*
D03*
X26110Y37175D02*
D03*
X23410Y39977D02*
D03*
X25335Y38737D02*
D03*
X28300Y36460D02*
D03*
X29870Y38377D02*
D03*
X27565Y38110D02*
D03*
X34025Y35990D02*
D03*
X33200Y35930D02*
D03*
X32235Y38570D02*
D03*
X30985Y36420D02*
D03*
X28785Y37270D02*
D03*
X41904Y41900D02*
D03*
X36420Y42875D02*
D03*
X41904Y42401D02*
D03*
X43100Y41400D02*
D03*
X38304Y41900D02*
D03*
X26850Y42150D02*
D03*
X34125Y47350D02*
D03*
X33625D02*
D03*
X32170Y46930D02*
D03*
X33675Y49000D02*
D03*
X34175D02*
D03*
X38450Y48575D02*
D03*
X38950D02*
D03*
X37150D02*
D03*
X37650D02*
D03*
X36050Y46825D02*
D03*
X36075Y47975D02*
D03*
Y48475D02*
D03*
X36050Y46325D02*
D03*
X13850Y45300D02*
D03*
Y44800D02*
D03*
Y44000D02*
D03*
X20385Y45750D02*
D03*
Y46575D02*
D03*
X21400Y43525D02*
D03*
X17395Y44790D02*
D03*
X13850Y43500D02*
D03*
X19951Y53623D02*
D03*
X19450D02*
D03*
X18850Y48290D02*
D03*
X27524Y55425D02*
D03*
X28025D02*
D03*
X28526D02*
D03*
X25674D02*
D03*
X26175D02*
D03*
X26676D02*
D03*
X24826D02*
D03*
X24325D02*
D03*
X21251Y53623D02*
D03*
X20750D02*
D03*
X22551D02*
D03*
X22050D02*
D03*
X24276Y51123D02*
D03*
X23775D02*
D03*
X23824Y55425D02*
D03*
X24675Y46975D02*
D03*
X25325D02*
D03*
X30150Y45450D02*
D03*
Y43800D02*
D03*
X28500D02*
D03*
X23008Y44625D02*
D03*
X21450Y47348D02*
D03*
X26850Y43800D02*
D03*
Y45450D02*
D03*
X39525Y54575D02*
D03*
X40025D02*
D03*
X41050Y48575D02*
D03*
X41550D02*
D03*
X39750D02*
D03*
X40250D02*
D03*
X23250Y48800D02*
D03*
Y49300D02*
D03*
X31670Y47700D02*
D03*
X29800Y48400D02*
D03*
X28225Y48775D02*
D03*
X31575Y48773D02*
D03*
X24850Y49323D02*
D03*
X26675Y49850D02*
D03*
X27175D02*
D03*
X24850Y48823D02*
D03*
X29100Y51225D02*
D03*
X29763D02*
D03*
X29784Y49027D02*
D03*
X31150Y51033D02*
D03*
X38250Y54575D02*
D03*
X38750D02*
D03*
X36975D02*
D03*
X37475D02*
D03*
X35700D02*
D03*
X36200D02*
D03*
X33280Y43875D02*
D03*
X30960Y37380D02*
D03*
X32235Y39530D02*
D03*
X26165Y36510D02*
D03*
X31850Y34840D02*
D03*
X28240Y34680D02*
D03*
X30285D02*
D03*
X26165Y35550D02*
D03*
X27600Y34640D02*
D03*
X25500Y35610D02*
D03*
X24722Y34610D02*
D03*
X28500Y42150D02*
D03*
X13850Y42200D02*
D03*
X21924Y41202D02*
D03*
X22425D02*
D03*
X21400Y43025D02*
D03*
X13850Y42700D02*
D03*
X20325Y41250D02*
D03*
X14126Y40798D02*
D03*
X13625D02*
D03*
X30150Y42150D02*
D03*
X24188Y42562D02*
D03*
X36420Y42375D02*
D03*
X40104Y42401D02*
D03*
Y41900D02*
D03*
X38304Y42401D02*
D03*
X34635Y37550D02*
D03*
X32590Y37490D02*
D03*
X34575Y41850D02*
D03*
X34075D02*
D03*
X32815Y41397D02*
D03*
X32772Y42100D02*
D03*
X35245Y36460D02*
D03*
X13124Y40798D02*
D03*
X26800Y33125D02*
D03*
X29325Y44625D02*
D03*
X27675D02*
D03*
X28500Y45450D02*
D03*
X29325Y42975D02*
D03*
X27675D02*
D03*
X83657Y38795D02*
D03*
X83849Y40500D02*
D03*
X91982Y32975D02*
D03*
X92532Y40550D02*
D03*
X91729D02*
D03*
X103992Y46992D02*
D03*
X97707Y45850D02*
D03*
X98882Y47094D02*
D03*
X100333Y46689D02*
D03*
X99332Y45800D02*
D03*
X98500Y46631D02*
D03*
X97982Y46962D02*
D03*
X101130Y46724D02*
D03*
X97382Y46962D02*
D03*
X94157Y34625D02*
D03*
X80907Y40894D02*
D03*
X84457Y35577D02*
D03*
X86857Y35575D02*
D03*
X85257Y35575D02*
D03*
X86457Y37827D02*
D03*
X85682D02*
D03*
X87182D02*
D03*
X81507Y40925D02*
D03*
X82332D02*
D03*
X88307Y40715D02*
D03*
X103332Y45020D02*
D03*
X108132Y45000D02*
D03*
X80508Y34420D02*
D03*
X104792Y47037D02*
D03*
X108910Y44200D02*
D03*
X106582Y46800D02*
D03*
X93032Y37850D02*
D03*
X81232Y39625D02*
D03*
X89333Y40650D02*
D03*
X105333Y41950D02*
D03*
X109807Y46775D02*
D03*
X107332Y39425D02*
D03*
X108732Y39275D02*
D03*
X92432Y37950D02*
D03*
X105704Y47005D02*
D03*
X84032Y32500D02*
D03*
X88732Y35725D02*
D03*
X82407Y32675D02*
D03*
X88057Y33025D02*
D03*
X108182Y46800D02*
D03*
X100507Y38725D02*
D03*
X101732Y41795D02*
D03*
X110677Y40875D02*
D03*
X104933Y40202D02*
D03*
X98882Y38900D02*
D03*
X87657Y39595D02*
D03*
X86857Y38795D02*
D03*
X77432Y32048D02*
D03*
X82858Y32275D02*
D03*
X85257Y38795D02*
D03*
X101733Y45000D02*
D03*
X84883Y40525D02*
D03*
X81566Y32386D02*
D03*
X85357Y32325D02*
D03*
X99382Y38550D02*
D03*
X100132Y45020D02*
D03*
X98082Y38600D02*
D03*
X83657Y34775D02*
D03*
X103332Y44220D02*
D03*
X90857Y37995D02*
D03*
X86857Y39595D02*
D03*
X85237Y33975D02*
D03*
X105732Y40200D02*
D03*
X106532D02*
D03*
X101732Y45800D02*
D03*
X88857Y33025D02*
D03*
X85257Y39595D02*
D03*
X101732Y38550D02*
D03*
X100132Y41000D02*
D03*
X86057Y39595D02*
D03*
X84657Y32575D02*
D03*
X82057Y40375D02*
D03*
X104132Y44220D02*
D03*
X101732Y40200D02*
D03*
X98432Y39324D02*
D03*
X90932Y40550D02*
D03*
X86057Y38795D02*
D03*
X84457Y39595D02*
D03*
X82857Y39575D02*
D03*
X108982Y46800D02*
D03*
X100132Y39275D02*
D03*
X89657Y33025D02*
D03*
X100932Y41000D02*
D03*
X86907Y40400D02*
D03*
X107332Y41000D02*
D03*
X100132Y45820D02*
D03*
X97682Y40925D02*
D03*
X86357Y32550D02*
D03*
X81957Y33099D02*
D03*
X81157Y32825D02*
D03*
X90857Y34775D02*
D03*
X101132Y38800D02*
D03*
X109332Y39275D02*
D03*
X103332Y41005D02*
D03*
X102532Y44220D02*
D03*
X100932Y45020D02*
D03*
X99332Y39400D02*
D03*
X83657Y39595D02*
D03*
X104132Y40200D02*
D03*
X102332Y38775D02*
D03*
X92582Y33075D02*
D03*
X84457Y34790D02*
D03*
X102532Y45020D02*
D03*
X96982Y40650D02*
D03*
X87457Y35750D02*
D03*
X86857Y34775D02*
D03*
X83657Y33050D02*
D03*
X82857Y33195D02*
D03*
X103332Y41795D02*
D03*
X97632Y39050D02*
D03*
X107382Y46800D02*
D03*
X100932Y41795D02*
D03*
X90133Y40575D02*
D03*
X78032Y32048D02*
D03*
D42*
X77112Y40384D02*
Y40646D01*
X74910Y42848D02*
X77112Y40646D01*
X74584Y42848D02*
X74910D01*
X104462Y41875D02*
X104557D01*
X103273Y41798D02*
X103421D01*
X91600Y39678D02*
X93049D01*
X87881Y35960D02*
X91600Y39678D01*
X100534Y45192D02*
X100857Y45515D01*
X100534Y44854D02*
Y45192D01*
X100302Y44623D02*
X100534Y44854D01*
X104045Y48688D02*
Y48837D01*
X101328Y45954D02*
Y45971D01*
X104045Y48837D02*
X104233Y49025D01*
X101328Y45971D02*
X104045Y48688D01*
X101669Y46664D02*
Y47053D01*
X100936Y45822D02*
Y45931D01*
X101669Y46664D01*
X100527Y45638D02*
Y46124D01*
X100373Y45385D02*
Y45484D01*
X100527Y45638D01*
X100252Y45264D02*
X100373Y45385D01*
X100128Y45044D02*
Y45127D01*
X100252Y45251D02*
Y45264D01*
X100128Y45127D02*
X100252Y45251D01*
X100526Y46124D02*
X100735Y46333D01*
X82281Y33725D02*
X82416Y33590D01*
X83067D02*
X83609Y33048D01*
X82416Y33590D02*
X83067D01*
X82551Y34303D02*
X82679Y34175D01*
X83097D02*
X83412Y33860D01*
X82679Y34175D02*
X83097D01*
X83709Y33575D02*
X84314Y32970D01*
X82562Y33883D02*
X83071D01*
X80896Y34700D02*
X81213D01*
X82654Y34625D02*
X82809Y34470D01*
X81288Y34625D02*
X82654D01*
X81213Y34700D02*
X81288Y34625D01*
X84576Y33975D02*
X85237D01*
X85682Y33530D02*
X87555D01*
X85237Y33975D02*
X85682Y33530D01*
X86057Y39507D02*
Y39595D01*
Y39908D01*
X85191Y39529D02*
X85257Y39595D01*
X100109Y38367D02*
Y39252D01*
X100132Y39275D01*
X97749Y40857D02*
X99401D01*
X97682Y40925D02*
X97749Y40857D01*
X100932Y40998D02*
X102013D01*
X102448Y40563D01*
X100508Y41423D02*
X100932Y41000D01*
X95347Y43235D02*
X101460D01*
X102445Y44220D01*
X102532D01*
X102935Y44623D02*
X103495D01*
X102532Y44220D02*
X102935Y44623D01*
X101733Y44937D02*
Y45000D01*
X100750Y43955D02*
X101733Y44937D01*
Y45100D02*
X102135Y45502D01*
X101733Y45000D02*
Y45100D01*
X96496Y43955D02*
X100750D01*
X101732Y45699D02*
Y45800D01*
X101331Y45298D02*
X101732Y45699D01*
Y45800D02*
Y45883D01*
X99721Y46199D02*
Y47659D01*
X99332Y45800D02*
Y45809D01*
X99721Y46199D01*
X100418Y48355D02*
Y49010D01*
X100433Y49025D01*
X99721Y47659D02*
X100418Y48355D01*
X98320Y45800D02*
X99332D01*
X100147Y45813D02*
Y46220D01*
X100131Y45798D02*
X100143Y45809D01*
X100147Y45813D01*
X99727Y45393D02*
X100131Y45798D01*
X66874Y44823D02*
X67441D01*
X99893Y44443D02*
X100462D01*
X100462Y44443D01*
X102532Y45800D02*
X102831D01*
X85887Y39337D02*
X86057Y39507D01*
X85657Y38954D02*
X85887Y39184D01*
Y39337D01*
X96278Y43750D02*
X101064D01*
X102338Y45413D02*
X102447D01*
X79975Y37520D02*
X84417D01*
X104705Y45669D02*
X105775Y44599D01*
X72243Y43104D02*
X72869Y43730D01*
X68303Y43292D02*
X68811Y42784D01*
X66844Y42494D02*
X67368Y43018D01*
X86202Y40053D02*
Y40930D01*
X102447Y45413D02*
X102522Y45488D01*
X102962Y45669D02*
X104705D01*
X109165Y44599D02*
X109311Y44745D01*
X69884Y42784D02*
X70821Y43721D01*
X67777Y43292D02*
X68303D01*
X67503Y43018D02*
X67777Y43292D01*
X101064Y43750D02*
X102136Y44822D01*
X71793Y43104D02*
X72243D01*
X66844Y42088D02*
Y42494D01*
X66890Y41832D02*
Y42042D01*
X89170Y43898D02*
X96130D01*
X85272Y38375D02*
X85458D01*
X102522Y45488D02*
Y45790D01*
X67368Y43018D02*
X67503D01*
X86202Y40930D02*
X89170Y43898D01*
X96130D02*
X96278Y43750D01*
X85657Y38574D02*
Y38954D01*
X102136Y45211D02*
X102338Y45413D01*
X84417Y37520D02*
X85272Y38375D01*
X71175Y43721D02*
X71793Y43104D01*
X102136Y44822D02*
Y45211D01*
X77112Y40384D02*
X79975Y37520D01*
X72869Y43730D02*
X73701D01*
X109311Y44745D02*
X109323D01*
X86057Y39908D02*
X86202Y40053D01*
X85458Y38375D02*
X85657Y38574D01*
X105775Y44599D02*
X109165D01*
X70821Y43721D02*
X71175D01*
X68811Y42784D02*
X69884D01*
X66844Y42088D02*
X66890Y42042D01*
X102522Y45790D02*
X102532Y45800D01*
X102831D02*
X102962Y45669D01*
X73701Y43730D02*
X74584Y42848D01*
X109323Y44745D02*
X109533Y44955D01*
Y45050D01*
X85191Y39296D02*
Y39529D01*
X84861Y38967D02*
X85191Y39296D01*
X84861Y38612D02*
Y38967D01*
X85257Y39595D02*
X85279Y39617D01*
X73951Y44310D02*
X74745Y43516D01*
X85279Y39617D02*
Y39927D01*
X84408Y38321D02*
X84570D01*
X67950Y43845D02*
X67957Y43838D01*
X72193Y43925D02*
X72578Y44310D01*
X70024Y43838D02*
X70487Y44301D01*
X72059Y43925D02*
X72193D01*
X101331Y44851D02*
Y45298D01*
X71683Y44301D02*
X72059Y43925D01*
X96644Y44230D02*
X100709D01*
X101331Y44851D01*
X96376Y44498D02*
X96644Y44230D01*
X72578Y44310D02*
X73951D01*
X85602Y40250D02*
Y41178D01*
X84107Y38020D02*
X84408Y38321D01*
X80296Y38020D02*
X84107D01*
X67957Y43838D02*
X70024D01*
X70487Y44301D02*
X71683D01*
X85602Y41178D02*
X88921Y44498D01*
X74745Y43516D02*
X75062D01*
X77692Y40887D01*
Y40624D02*
Y40887D01*
X85279Y39927D02*
X85602Y40250D01*
X77692Y40624D02*
X80296Y38020D01*
X88921Y44498D02*
X96376D01*
X84570Y38321D02*
X84861Y38612D01*
X84382Y39305D02*
Y39521D01*
X84457Y39595D01*
X84064Y38635D02*
Y38986D01*
X84382Y39305D01*
X84459Y40652D02*
X84532Y40725D01*
X84459Y39597D02*
Y40652D01*
X83443Y39831D02*
X83657Y39617D01*
X83060Y38988D02*
X83657Y39585D01*
Y39595D02*
Y39617D01*
Y39585D02*
Y39595D01*
X82815Y38988D02*
X83060D01*
X82570Y39237D02*
X82657Y39150D01*
X82655Y39148D02*
X82815Y38988D01*
X83443Y40716D02*
X88424Y45698D01*
X83443Y39831D02*
Y40716D01*
X94731Y47148D02*
X96548D01*
X80906Y43553D02*
X81135Y43781D01*
X83930Y38210D02*
X84457Y38736D01*
X83108Y38278D02*
X83176Y38210D01*
X83930D01*
X79028Y39698D02*
X80448Y38278D01*
X78595Y40131D02*
X79028Y39698D01*
X80448Y38278D02*
X83108D01*
X67558Y44480D02*
X68750D01*
X67807Y44190D02*
X68871D01*
X67467Y43850D02*
X67807Y44190D01*
X68750Y44480D02*
X69160Y44890D01*
X67388Y44310D02*
X67558Y44480D01*
X67350Y44310D02*
X67388D01*
X68871Y44190D02*
X69280Y44600D01*
X72370D01*
X67950Y44825D02*
X68417D01*
X78595Y40131D02*
Y40963D01*
X75944Y43613D02*
X78595Y40963D01*
X72477Y44707D02*
X72725Y44954D01*
X72370Y44600D02*
X72477Y44707D01*
X75388Y43881D02*
X75656Y43613D01*
X74790Y43881D02*
X75388D01*
X73717Y44954D02*
X74790Y43881D01*
X72725Y44954D02*
X73717D01*
X75656Y43613D02*
X75944D01*
X66435Y38581D02*
X67144Y37872D01*
X67328D01*
X66435Y38581D02*
Y38872D01*
X67471Y38421D02*
X67493Y38400D01*
X67744D02*
X67759Y38385D01*
X68880D01*
X68975Y38289D02*
X71967D01*
X68880Y38385D02*
X68975Y38289D01*
X67493Y38400D02*
X67744D01*
X71967Y38289D02*
X75331Y34925D01*
X80109D01*
X81043Y35068D02*
X81070Y35095D01*
X94876Y39397D02*
X96286Y40807D01*
Y40922D02*
X96684Y41320D01*
X99406Y41157D02*
X100038Y40525D01*
X81376Y35095D02*
X81547Y34925D01*
X83493Y34378D02*
X83969D01*
X92324Y36531D02*
X92715D01*
X94876Y38313D02*
Y39397D01*
X100038Y40525D02*
X100452D01*
X101732Y40200D02*
X101781Y40151D01*
X82778Y34925D02*
X82933Y34770D01*
X93405Y36843D02*
X94876Y38313D01*
X96286Y40807D02*
Y40922D01*
X100818Y40353D02*
X100869Y40302D01*
X101086D01*
X101781Y40151D02*
X102047D01*
X80109Y34925D02*
X80252Y35068D01*
X82933Y34770D02*
X83096D01*
X83480Y34390D02*
X83493Y34378D01*
X87768Y33743D02*
X88752D01*
X102252Y39946D02*
X102531D01*
X103677Y38800D02*
X104458D01*
X80252Y35068D02*
X81043D01*
X83096Y34770D02*
X83476Y34390D01*
X83969Y34378D02*
X84222Y34125D01*
X84426D01*
X92246Y36452D02*
X92324Y36531D01*
X81547Y34925D02*
X82778D01*
X83476Y34390D02*
X83480D01*
X98037Y41157D02*
X99406D01*
X101086Y40302D02*
X101197Y40191D01*
X102531Y39946D02*
X103677Y38800D01*
X81070Y35095D02*
X81376D01*
X87555Y33530D02*
X87768Y33743D01*
X92715Y36531D02*
X93027Y36843D01*
X96684Y41320D02*
X97875D01*
X100452Y40525D02*
X100624Y40353D01*
X101197Y40191D02*
X101723D01*
X102047Y40151D02*
X102252Y39946D01*
X84426Y34125D02*
X84576Y33975D01*
X88752Y33743D02*
X91462Y36452D01*
X92246D01*
X93027Y36843D02*
X93405D01*
X97875Y41320D02*
X98037Y41157D01*
X100624Y40353D02*
X100818D01*
X101723Y40191D02*
X101732Y40200D01*
X67753Y38195D02*
X68523D01*
X68999Y37719D02*
X71197D01*
X68523Y38195D02*
X68999Y37719D01*
X71197D02*
X72274Y36641D01*
X103283Y48668D02*
Y49025D01*
X101669Y47053D02*
X103283Y48668D01*
X101328Y45618D02*
Y45954D01*
X83829Y38400D02*
X84064Y38635D01*
X83822Y38400D02*
X83829D01*
X79028Y40939D02*
X79037Y40931D01*
X75641Y44326D02*
X79028Y40939D01*
X75638Y44329D02*
X75641Y44326D01*
X75637Y44329D02*
X75638Y44329D01*
X74753Y44329D02*
X75637Y44329D01*
X73841Y45241D02*
X74753Y44329D01*
X73837Y45244D02*
X73841Y45241D01*
X73837Y45244D02*
X73837Y45244D01*
X72605Y45244D02*
X73837Y45244D01*
X90800Y45098D02*
X96625Y45098D01*
X88831Y45098D02*
X90800Y45098D01*
X83822Y38400D02*
X83822Y38400D01*
X88677Y45095D02*
X88828D01*
X72250Y44890D02*
X72605Y45244D01*
X83494Y38400D02*
X83822Y38400D01*
X69160Y44890D02*
X72250D01*
X99899Y44691D02*
X99899Y44691D01*
X83394Y38499D02*
X83494Y38400D01*
X97032Y44691D02*
X99899Y44691D01*
X96629Y45095D02*
X97032Y44691D01*
X83385Y38508D02*
X83394Y38499D01*
X96625Y45097D02*
X96629Y45095D01*
X96625Y45098D02*
X96625Y45097D01*
X80629Y38508D02*
X83385Y38508D01*
X79037Y40100D02*
X80629Y38508D01*
X79037Y40100D02*
Y40931D01*
X88828Y45095D02*
X88831Y45098D01*
X84532Y40950D02*
X88677Y45095D01*
X84532Y40725D02*
Y40950D01*
X100857Y45737D02*
X100932Y45811D01*
X100857Y45515D02*
Y45737D01*
X100296Y44623D02*
X100302D01*
X99969Y44623D02*
X100296D01*
X99903Y44688D02*
X99969Y44623D01*
X100296D02*
X100296Y44623D01*
X99899Y44691D02*
X99903Y44688D01*
X101010Y45301D02*
X101328Y45618D01*
X84457Y38736D02*
Y38795D01*
X88906Y44918D02*
X96550D01*
X96957Y44511D01*
X66950Y43850D02*
X67467D01*
X99824Y44511D02*
X99893Y44443D01*
X96957Y44511D02*
X99824D01*
X85278Y41290D02*
X88906Y44918D01*
X100932Y44913D02*
Y45020D01*
X100462Y44443D02*
X100932Y44913D01*
X84857Y39375D02*
Y39906D01*
X85278Y40327D02*
Y41290D01*
X100932Y45020D02*
X101010Y45098D01*
X84681Y39040D02*
Y39199D01*
X84857Y39375D01*
Y39906D02*
X85278Y40327D01*
X84457Y38816D02*
X84681Y39040D01*
X84457Y38795D02*
Y38816D01*
X101010Y45098D02*
Y45301D01*
X84062Y39263D02*
Y39905D01*
X83656Y38823D02*
Y38858D01*
X84062Y39263D01*
X67823Y43078D02*
X68107D01*
X67512Y42768D02*
X67823Y43078D01*
X67393Y42768D02*
X67512D01*
X44833Y39123D02*
X56341D01*
X44430Y39527D02*
Y41000D01*
Y39527D02*
X44833Y39123D01*
X99331Y39388D02*
Y39458D01*
X99699Y37279D02*
X99706Y37273D01*
X82412Y33225D02*
X82857D01*
X83316Y32765D01*
X97807Y37275D02*
Y37836D01*
X104131Y44248D02*
X106681Y41698D01*
X102607Y42723D02*
X104131Y44248D01*
X107837Y41255D02*
X108883D01*
X87182Y37825D02*
X89062D01*
X87182D02*
Y37827D01*
Y37814D02*
Y37825D01*
X85682Y37827D02*
Y37837D01*
Y37823D02*
Y37827D01*
X103332Y44220D02*
X103375D01*
X95462Y43005D02*
X102117D01*
X103332Y44220D01*
X101077Y48478D02*
Y48815D01*
X100378Y47780D02*
X101077Y48478D01*
X100378Y47339D02*
Y47780D01*
X99928Y46439D02*
Y46888D01*
X100378Y47339D01*
X106703Y42208D02*
X109323D01*
X96906Y37472D02*
Y38426D01*
X94666Y35233D02*
X96906Y37472D01*
X94066Y35043D02*
X96616Y37593D01*
Y38593D01*
X93951Y35043D02*
X94066D01*
X92326Y33418D02*
X93951Y35043D01*
X93946Y35333D02*
X96326Y37713D01*
Y38725D01*
X93790Y35333D02*
X93946D01*
X93836Y35633D02*
X96036Y37833D01*
X93666Y35633D02*
X93836D01*
X96036Y37833D02*
Y38860D01*
X95746Y37953D02*
Y38994D01*
X97005Y40253D01*
X93746Y35953D02*
X95746Y37953D01*
X93562Y35953D02*
X93746D01*
X95456Y38073D02*
Y39128D01*
X93626Y36243D02*
X95456Y38073D01*
X93275Y36243D02*
X93626D01*
X95173Y39270D02*
X96587Y40683D01*
X95166Y38193D02*
Y39277D01*
X93526Y36553D02*
X95166Y38193D01*
X93161Y36553D02*
X93526D01*
X92839Y36231D02*
X93161Y36553D01*
X94586Y38433D02*
Y39531D01*
X93285Y37133D02*
X94586Y38433D01*
X92893Y37133D02*
X93285D01*
X94296Y38554D02*
Y39665D01*
X93175Y37433D02*
X94296Y38554D01*
X92291Y37433D02*
X93175D01*
X91334Y40393D02*
Y41267D01*
X92025Y41957D02*
X94415D01*
X91334Y41267D02*
X92025Y41957D01*
X90798Y40155D02*
X91096D01*
X88997Y38354D02*
X90798Y40155D01*
X86993Y38354D02*
X88997D01*
X68103Y45531D02*
X68341Y45770D01*
X67631Y45531D02*
X68103D01*
X67400Y45300D02*
X67631Y45531D01*
X67441Y44823D02*
X67788Y45170D01*
X68351D01*
X86056Y38793D02*
Y38957D01*
X68107Y43078D02*
X68691Y42494D01*
X74591D01*
X68671Y42024D02*
X74651D01*
X67970Y42725D02*
X68671Y42024D01*
X67916Y40184D02*
X68094Y40362D01*
X67517Y40349D02*
X67682Y40184D01*
X67474Y40349D02*
X67517D01*
X67682Y40184D02*
X67916D01*
X75725Y37595D02*
X76145Y38015D01*
Y38291D01*
X75963Y38473D02*
X76145Y38291D01*
X68394Y37834D02*
X68883Y37345D01*
X67959Y37834D02*
X68394D01*
X68883Y37345D02*
X71059D01*
X74054Y34350D01*
X68338Y37480D02*
X68763Y37055D01*
X67720Y37480D02*
X68338D01*
X68763Y37055D02*
X70833D01*
X73873Y34015D01*
X68118Y37290D02*
X68643Y36765D01*
X70633D01*
X73674Y33725D01*
X98757Y37275D02*
Y38397D01*
X67923Y37075D02*
X68631Y36367D01*
Y36183D02*
Y36367D01*
X67253Y37075D02*
X67923D01*
X67099Y37571D02*
X67212D01*
X67493Y37290D01*
X67001Y37669D02*
X67099Y37571D01*
X67493Y37290D02*
X68118D01*
X68864Y35950D02*
X70510D01*
X68762Y35642D02*
X70393D01*
X68631Y36183D02*
X68864Y35950D01*
X68341Y36063D02*
X68762Y35642D01*
X67780Y36730D02*
X68341Y36169D01*
Y36063D02*
Y36169D01*
X68976Y36326D02*
X69125Y36475D01*
X67628Y38766D02*
X67819Y38575D01*
X67252Y38766D02*
X67628D01*
X67819Y38575D02*
X72734D01*
X66817Y39202D02*
Y39406D01*
Y39202D02*
X67252Y38766D01*
X67573Y39030D02*
X67916Y39373D01*
X67257Y39030D02*
X67573D01*
X67007Y39280D02*
X67257Y39030D01*
X67007Y39280D02*
Y39701D01*
X67400Y39375D02*
Y39798D01*
X67127Y40071D02*
X67400Y39798D01*
X73309Y37360D02*
X75444Y35225D01*
X73309Y37360D02*
Y38000D01*
X72734Y38575D02*
X73309Y38000D01*
X67964Y38915D02*
X72803D01*
X76204Y35515D02*
X82945D01*
X72803Y38915D02*
X76204Y35515D01*
X73836Y35067D02*
X74326Y34576D01*
X73836Y35067D02*
Y35202D01*
X73933Y35299D01*
X74078D01*
X75052Y34325D01*
X67670Y47066D02*
X76293D01*
X66350Y45746D02*
X67670Y47066D01*
X68322Y46635D02*
X68607Y46350D01*
X67735Y46635D02*
X68322D01*
X66900Y45800D02*
X67735Y46635D01*
X68607Y46350D02*
X69668D01*
X70072Y46754D01*
X70771D01*
X71175Y46350D01*
X71618D01*
X72022Y46754D01*
X74378D01*
X74683Y46449D01*
X75315D01*
X67784Y45920D02*
X68001Y46137D01*
X74258Y46464D02*
X74562Y46159D01*
X72142Y46464D02*
X74258D01*
X71738Y46060D02*
X72142Y46464D01*
X68410Y46137D02*
X68487Y46060D01*
X68001Y46137D02*
X68410D01*
X68487Y46060D02*
X71738D01*
X68341Y45770D02*
X71858D01*
X74137Y46174D02*
X74614Y45698D01*
X72263Y46174D02*
X74137D01*
X71858Y45770D02*
X72263Y46174D01*
X72383Y45884D02*
X74017D01*
X71978Y45480D02*
X72383Y45884D01*
X68661Y45480D02*
X71978D01*
X68351Y45170D02*
X68661Y45480D01*
X74017Y45884D02*
X74655Y45246D01*
X73897Y45594D02*
X74745Y44746D01*
X72503Y45594D02*
X73897D01*
X72098Y45190D02*
X72503Y45594D01*
X75654Y44746D02*
X79323Y41078D01*
Y40223D02*
Y41078D01*
X74745Y44746D02*
X75654D01*
X68781Y45190D02*
X72098D01*
X68417Y44825D02*
X68781Y45190D01*
X71466Y44011D02*
X71976Y43501D01*
X70639Y44011D02*
X71466D01*
X70119Y43492D02*
X70639Y44011D01*
X72230Y43501D02*
X72749Y44020D01*
X71976Y43501D02*
X72230D01*
X72749Y44020D02*
X73831D01*
X74634Y43217D01*
X101608Y37275D02*
X101701Y37368D01*
Y37617D02*
X102331Y38248D01*
X101701Y37368D02*
Y37617D01*
X85592Y32729D02*
X85773Y32548D01*
X86809Y32502D02*
X87113Y32198D01*
X67328Y37872D02*
X67720Y37480D01*
X100224Y39745D02*
X100773Y39195D01*
X85137Y32729D02*
X85592D01*
X89389Y32198D02*
X92779Y35587D01*
X100773Y39195D02*
X101298D01*
X84897Y32970D02*
X85137Y32729D01*
X83071Y33883D02*
X83379Y33575D01*
X86356Y32548D02*
X86402Y32502D01*
X97005Y40253D02*
X99398D01*
X73873Y34015D02*
X82401D01*
Y34013D02*
X82431D01*
X66469Y38906D02*
Y39230D01*
X86402Y32502D02*
X86809D01*
X92779Y35587D02*
X93196D01*
X99906Y39745D02*
X100224D01*
X82431Y34013D02*
X82562Y33883D01*
X84314Y32970D02*
X84897D01*
X66435Y38872D02*
X66469Y38906D01*
X99398Y40253D02*
X99906Y39745D01*
X102331Y38248D02*
Y38773D01*
X102243D02*
X102331D01*
X83379Y33575D02*
X83709D01*
X85773Y32548D02*
X86356D01*
X87113Y32198D02*
X89389D01*
X93196Y35587D02*
X93562Y35953D01*
X101298Y39195D02*
X101486Y39007D01*
X102009D01*
X102243Y38773D01*
X79485Y36780D02*
X85409D01*
X74686Y41578D02*
X79485Y36780D01*
X75265Y38484D02*
Y38666D01*
X75438Y38311D02*
X75623D01*
X75265Y38484D02*
X75438Y38311D01*
X75623D02*
X75785Y38473D01*
X75963D01*
X75725Y36404D02*
Y37595D01*
Y36404D02*
X76274Y35854D01*
X77315D01*
X77771Y36311D01*
X94415Y41957D02*
X95462Y43005D01*
X98491Y46638D02*
X99106D01*
X98532Y49025D02*
X98723Y48833D01*
X82056Y40373D02*
X82461D01*
X103375Y44220D02*
X103808Y44653D01*
X104258D01*
X103495Y44623D02*
X103844Y44972D01*
X104443D02*
X106267Y43148D01*
X103844Y44972D02*
X104443D01*
X104258Y44653D02*
X106703Y42208D01*
X103453Y47604D02*
X103666D01*
X101732Y45883D02*
X103453Y47604D01*
X103666D02*
X105087Y49025D01*
X109533Y45905D02*
Y46000D01*
X109244Y45695D02*
X109323D01*
X105428Y45455D02*
X109004D01*
X109323Y45695D02*
X109533Y45905D01*
X109004Y45455D02*
X109244Y45695D01*
X107395Y41698D02*
X107837Y41255D01*
X106681Y41698D02*
X107395D01*
X107003Y39010D02*
Y39029D01*
X103968Y39803D02*
X106228D01*
X107003Y39029D01*
Y39010D02*
X107213Y38800D01*
X107304D01*
X103845Y39498D02*
X105827D01*
X105988Y39336D02*
X106185D01*
X105827Y39498D02*
X105988Y39336D01*
X106358Y38800D02*
Y39163D01*
X106185Y39336D02*
X106358Y39163D01*
X105313Y38800D02*
X105408D01*
X105103Y39010D02*
Y39053D01*
Y39010D02*
X105313Y38800D01*
X104958Y39198D02*
X105103Y39053D01*
X103707Y39198D02*
X104958D01*
X96494Y41540D02*
X99591D01*
X100131Y41000D01*
X100290Y41423D02*
X100508D01*
X99960Y41753D02*
X100290Y41423D01*
X96298Y41753D02*
X99960D01*
X101402Y41326D02*
X102109D01*
X100934Y41795D02*
X101402Y41326D01*
X100408Y41798D02*
X100929D01*
X100212Y41993D02*
X100408Y41798D01*
X96128Y41993D02*
X100212D01*
X100030Y39376D02*
X100132Y39275D01*
X91096Y40155D02*
X91334Y40393D01*
X85888Y36520D02*
X87182Y37814D01*
X79335Y36520D02*
X85888D01*
X86457Y37827D02*
X86466D01*
X86993Y38354D01*
X85409Y36780D02*
X86457Y37827D01*
X85682Y37837D02*
X86461Y38616D01*
Y38986D01*
X79655Y37020D02*
X84879D01*
X85682Y37823D01*
X81963Y39230D02*
X82308Y39575D01*
X82857D01*
X83206Y39924D02*
Y40904D01*
X82857Y39575D02*
X83206Y39924D01*
X80907Y40894D02*
Y43553D01*
X79903Y40506D02*
X80837Y39572D01*
X97543Y45453D02*
X97973D01*
X79903Y40506D02*
Y41714D01*
X74614Y45698D02*
X75919D01*
X97973Y45453D02*
X98320Y45800D01*
X96998Y45998D02*
X97543Y45453D01*
X80837Y39461D02*
Y39572D01*
Y39461D02*
X81068Y39230D01*
X83206Y40904D02*
X88300Y45998D01*
X81068Y39230D02*
X81963D01*
X75919Y45698D02*
X79903Y41714D01*
X88300Y45998D02*
X96998D01*
X68659Y41578D02*
X74686D01*
X67946Y42292D02*
X68659Y41578D01*
X67405Y42292D02*
X67946D01*
X109323Y42208D02*
X109533Y42200D01*
X67142Y40776D02*
Y41090D01*
X67378Y41326D01*
X66580Y40215D02*
X67142Y40776D01*
X67950Y37825D02*
X67959Y37834D01*
X66838Y37669D02*
X67001D01*
X66779Y37729D02*
X66838Y37669D01*
X84062Y39905D02*
X84256Y40100D01*
X96587Y40683D02*
Y40813D01*
X97825Y39445D02*
X97948Y39322D01*
X98431D01*
X96616Y38593D02*
X97468Y39445D01*
X97825D01*
X66460Y37325D02*
X67003D01*
X94666Y34574D02*
Y35233D01*
X91188Y31096D02*
X94666Y34574D01*
X96976Y40648D02*
X97398D01*
X102556Y37273D02*
X102600D01*
X80508Y34425D02*
X80921D01*
X92964Y35931D02*
X93275Y36243D01*
X71611Y37762D02*
X72514Y36859D01*
Y36757D02*
Y36859D01*
X72398Y36641D02*
X72514Y36757D01*
X72274Y36641D02*
X72398D01*
X97265Y40925D02*
X97682D01*
X66780Y38729D02*
X67073Y38436D01*
Y38279D02*
Y38436D01*
X90532Y40877D02*
X92792Y43137D01*
X95249D01*
X95347Y43235D01*
X102646Y40259D02*
X103707Y39198D01*
X102532Y45020D02*
X102955Y45443D01*
X102453Y44941D02*
X102532Y45020D01*
X103331Y40998D02*
X103358D01*
X103024Y41305D02*
X103331Y40998D01*
X104347Y41185D02*
X104557Y40975D01*
X67898Y39830D02*
X67916D01*
X74651Y42024D02*
X79655Y37020D01*
X68703Y41047D02*
X74807D01*
X79335Y36520D01*
X67727Y41092D02*
Y41484D01*
X67060Y42150D02*
X67727Y41484D01*
X67127Y40493D02*
X67727Y41092D01*
X67708Y43492D02*
X70119D01*
X74634Y43217D02*
X74951D01*
X74562Y46159D02*
X75468D01*
X74655Y45246D02*
X75686D01*
X75468Y46159D02*
X75669Y46360D01*
X75315Y46449D02*
X75626Y46760D01*
X67950Y41800D02*
X68703Y41047D01*
X79323Y40223D02*
X80798Y38748D01*
X79613Y40343D02*
Y41319D01*
Y40343D02*
X80968Y38988D01*
X75686Y45246D02*
X79613Y41319D01*
X80193Y40626D02*
X81194Y39625D01*
X80193Y40626D02*
Y42054D01*
X75887Y46360D02*
X80193Y42054D01*
X81232Y39623D02*
X81932D01*
X81194Y39625D02*
X81232D01*
X91548Y40134D02*
X91918D01*
X92131Y40347D01*
X91273Y39859D02*
X91548Y40134D01*
X92072Y40927D02*
Y41465D01*
X92234Y41628D01*
X92072Y40927D02*
X92131Y40867D01*
X92234Y41628D02*
X94574D01*
X96680Y47015D02*
X97328D01*
X97382Y46962D01*
X96548Y47148D02*
X96680Y47015D01*
X97262Y46554D02*
X98422D01*
X97228Y46588D02*
X97262Y46554D01*
X98422D02*
X98500Y46631D01*
X88056Y46588D02*
X97228D01*
X97489Y45957D02*
X97598Y45848D01*
X97108Y46298D02*
X97449Y45957D01*
X97598Y45848D02*
X97731D01*
X97449Y45957D02*
X97489D01*
X88176Y46298D02*
X97108D01*
X76293Y47066D02*
X79806Y43553D01*
X80906D01*
X74591Y42494D02*
X79815Y37270D01*
X77402Y40504D02*
X80136Y37770D01*
X74951Y43217D02*
X77402Y40766D01*
Y40504D02*
Y40766D01*
X80921Y34425D02*
X81041Y34305D01*
X82521D02*
X82523Y34303D01*
X82551D01*
X81041Y34305D02*
X82521D01*
X70393Y35642D02*
X73210Y32825D01*
X73336Y33125D02*
X80898D01*
X70510Y35950D02*
X73336Y33125D01*
X80136Y37770D02*
X84291D01*
X78707Y35765D02*
X83410D01*
X78161Y36311D02*
X78707Y35765D01*
X83410D02*
X83504Y35671D01*
X82945Y35515D02*
X83090Y35370D01*
X83837D01*
X77874Y37480D02*
X79084Y36270D01*
X77283Y37254D02*
X77509Y37480D01*
X77533Y37150D02*
X77612Y37230D01*
X77771D02*
X78981Y36020D01*
X77612Y37230D02*
X77771D01*
X77509Y37480D02*
X77874D01*
X79084Y36270D02*
X85636D01*
X77283Y36595D02*
Y37254D01*
X78981Y36020D02*
X85533D01*
X77533Y36492D02*
Y37150D01*
X77239Y36199D02*
X77533Y36492D01*
X85533Y36020D02*
X85718Y35835D01*
X85636Y36270D02*
X85968Y35938D01*
X85718Y35688D02*
Y35835D01*
X75444Y35225D02*
X79969D01*
X80030Y35285D01*
X81455D01*
X81515Y35225D01*
X82903D01*
X79815Y37270D02*
X84502D01*
X85425Y38193D01*
X84291Y37770D02*
X85257Y38735D01*
X83169Y38748D02*
X83208Y38787D01*
X83649D01*
X83657Y38795D01*
X81320Y33220D02*
X81465Y33075D01*
X80898Y33125D02*
X80993Y33220D01*
X81465Y33075D02*
X81956D01*
X80993Y33220D02*
X81320D01*
X80276Y34325D02*
X80293Y34342D01*
X80429D02*
X80508Y34420D01*
X80293Y34342D02*
X80429D01*
X102973Y46218D02*
X103291Y45900D01*
X102348Y46218D02*
X102973D01*
X102135Y46005D02*
X102348Y46218D01*
X58206Y37970D02*
X58492D01*
X57139Y38325D02*
X57851D01*
X56341Y39123D02*
X57139Y38325D01*
X57851D02*
X58206Y37970D01*
X58492D02*
X58637Y38115D01*
X59265D01*
X59475Y38325D01*
X57296Y40000D02*
X57517D01*
X57582Y39934D01*
X57731D01*
X57790Y39875D01*
X67073Y38279D02*
X67291Y38062D01*
X66350Y45375D02*
Y45746D01*
X66580Y39642D02*
Y40215D01*
X67003Y37325D02*
X67253Y37075D01*
X67291Y38062D02*
X67620D01*
X67753Y38195D01*
X70443Y36475D02*
X73493Y33425D01*
X69125Y36475D02*
X70443D01*
X67916Y39373D02*
X75030D01*
X68094Y40362D02*
X74853D01*
X68198Y40112D02*
X74749D01*
X75419Y38819D02*
Y38984D01*
X75265Y38666D02*
X75419Y38819D01*
X75030Y39373D02*
X75419Y38984D01*
X76440Y36545D02*
Y38421D01*
Y36545D02*
X76786Y36199D01*
X77239D01*
X77136Y36449D02*
X77283Y36595D01*
X76890Y36449D02*
X77136D01*
X76690Y36648D02*
X76890Y36449D01*
X76690Y36648D02*
Y38524D01*
X75626Y46760D02*
X76022D01*
X74326Y34435D02*
Y34576D01*
X74242Y34350D02*
X74326Y34435D01*
X74054Y34350D02*
X74242D01*
X71611Y37762D02*
Y37894D01*
X71711Y37994D02*
X71845D01*
X71611Y37894D02*
X71711Y37994D01*
X71845D02*
X75209Y34630D01*
X75227D01*
X75232Y34625D02*
X80148D01*
X75227Y34630D02*
X75232Y34625D01*
X73674Y33725D02*
X82281D01*
X73493Y33425D02*
X80531D01*
X75052Y34325D02*
X80276D01*
X82903Y35225D02*
X83058Y35070D01*
X80798Y38748D02*
X83169D01*
X82981Y40559D02*
Y41103D01*
X82438Y40016D02*
X82981Y40559D01*
X84256Y40100D02*
Y41104D01*
X77771Y36311D02*
X78161D01*
X67916Y39830D02*
X68198Y40112D01*
X74853Y40362D02*
X76690Y38524D01*
X74749Y40112D02*
X76440Y38421D01*
X76022Y46760D02*
X80483Y42300D01*
X83834Y31149D02*
X89168D01*
X93450Y34993D02*
X93790Y35333D01*
X93012Y34993D02*
X93450D01*
X89168Y31149D02*
X93012Y34993D01*
X89041Y31439D02*
X92885Y35283D01*
X93316D02*
X93666Y35633D01*
X92885Y35283D02*
X93316D01*
X91506Y32947D02*
Y33070D01*
X91853Y33418D02*
X92326D01*
X91506Y33070D02*
X91853Y33418D01*
X84003Y31439D02*
X89041D01*
X83316Y31667D02*
X83834Y31149D01*
X89315Y30756D02*
X91506Y32947D01*
X92131Y40347D02*
Y40867D01*
X96247Y44203D02*
X96496Y43955D01*
X99106Y46638D02*
X99278Y46809D01*
X98723Y48685D02*
X99278Y48131D01*
X99045Y46130D02*
X99482Y46567D01*
X99928Y46439D02*
X100147Y46220D01*
X99482Y46567D02*
Y49025D01*
X99278Y46809D02*
Y48131D01*
X100735Y46333D02*
Y47228D01*
X88549Y45398D02*
X96749D01*
X100735Y47228D02*
X102027Y48520D01*
X84255Y41104D02*
X88549Y45398D01*
X88025Y46571D02*
X88056Y46588D01*
X82756Y41302D02*
X88025Y46571D01*
X102783Y41305D02*
X103024D01*
X93153Y39428D02*
X95958Y42233D01*
X84081Y35573D02*
X84455D01*
X86597Y35315D02*
X86857Y35575D01*
X91703Y39428D02*
X93153D01*
X84455Y35573D02*
X84457Y35575D01*
X87710Y35075D02*
X88131Y35496D01*
Y35856D02*
X91703Y39428D01*
X101854Y42233D02*
X102783Y41305D01*
X87157Y35075D02*
X87710D01*
X95958Y42233D02*
X101854D01*
X88131Y35496D02*
Y35856D01*
X86857Y34775D02*
X87157Y35075D01*
X84457Y35575D02*
X84913Y35118D01*
X80483Y40746D02*
Y42300D01*
X80856Y40373D02*
X82056D01*
X80483Y40746D02*
X80856Y40373D01*
X75669Y46360D02*
X75887D01*
X81135Y43781D02*
X83309D01*
X86651Y47123D01*
X67361Y43382D02*
X67598D01*
X67343Y43364D02*
X67361Y43382D01*
X67598D02*
X67708Y43492D01*
X67264Y42638D02*
X67393Y42768D01*
X67262Y42638D02*
X67264D01*
X67060Y42436D02*
X67262Y42638D01*
X67060Y42150D02*
Y42436D01*
X106106Y43762D02*
X109195D01*
X102955Y45443D02*
X104425D01*
X106106Y43762D01*
X85940Y41078D02*
X89065Y44203D01*
X96247D01*
X85940Y40122D02*
Y41078D01*
X85968Y35791D02*
Y35938D01*
X83504Y35671D02*
X83983D01*
X80148Y34625D02*
X80325Y34801D01*
X83983Y35671D02*
X84081Y35573D01*
X80343Y34818D02*
X80778D01*
X83058Y35070D02*
X83362D01*
X80325Y34801D02*
X80326D01*
X80778Y34818D02*
X80896Y34700D01*
X80326Y34801D02*
X80343Y34818D01*
X98162Y46130D02*
X99045D01*
X82981Y41103D02*
X88176Y46298D01*
X82809Y34470D02*
X83099D01*
X80606Y33500D02*
X82137D01*
X82412Y33225D01*
X80531Y33425D02*
X80606Y33500D01*
X104986Y45897D02*
X105428Y45455D01*
X103291Y45900D02*
X104986D01*
X102135Y45502D02*
Y46005D01*
X109195Y43762D02*
X109533Y44100D01*
X90532Y40314D02*
Y40877D01*
X89415Y39198D02*
X90532Y40314D01*
X86673Y39198D02*
X89415D01*
X86461Y38986D02*
X86673Y39198D01*
X89062Y37825D02*
X91096Y39859D01*
X91273D01*
X93049Y39678D02*
X95854Y42483D01*
X91258Y38260D02*
X92057Y39059D01*
X93643D02*
X93996Y39413D01*
X92057Y39059D02*
X93643D01*
X86631Y40913D02*
X89194Y43476D01*
X88424Y45698D02*
X96873D01*
X83632Y31810D02*
X84003Y31439D01*
X83632Y31810D02*
Y33024D01*
X83316Y31667D02*
Y32765D01*
X83765Y30756D02*
X89315D01*
X81956Y32564D02*
X83765Y30756D01*
X83078Y30315D02*
X90407D01*
X91188Y31096D01*
X81156Y32236D02*
X83078Y30315D01*
X85654Y39835D02*
X85940Y40122D01*
X85654Y39381D02*
Y39835D01*
X85257Y38985D02*
X85654Y39381D01*
X86056Y38957D02*
X86461Y39362D01*
Y40545D01*
X85257Y38795D02*
Y38985D01*
Y38735D02*
Y38795D01*
X102810Y37483D02*
Y38863D01*
X102198Y39242D02*
X102431D01*
X102810Y38863D01*
X97145Y41045D02*
X97265Y40925D01*
X96587Y40813D02*
X96818Y41045D01*
X97145D01*
X103206Y37485D02*
Y38589D01*
X100352Y37485D02*
Y38125D01*
X99699Y37279D02*
Y38292D01*
X98723Y48685D02*
Y48833D01*
X102027Y48520D02*
Y48815D01*
X106267Y43148D02*
X109531D01*
X66580Y39642D02*
X66817Y39406D01*
X66925Y39783D02*
X67007Y39701D01*
X67127Y40071D02*
Y40493D01*
X85324Y32956D02*
X86494D01*
X85035Y33246D02*
X85324Y32956D01*
X86494D02*
X86552Y32898D01*
X105087Y49025D02*
X105182D01*
X102237D02*
X102332D01*
X101287D02*
X101382D01*
X102027Y48815D02*
X102237Y49025D01*
X101077Y48815D02*
X101287Y49025D01*
X82461Y40373D02*
X82756Y40668D01*
X82325Y40016D02*
X82438D01*
X82395Y39237D02*
X82570D01*
X80968Y38988D02*
X82145D01*
X82395Y39237D01*
X81932Y39623D02*
X82325Y40016D01*
X91911Y37052D02*
X92291Y37433D01*
X91337Y36752D02*
X92064D01*
X92142Y36831D01*
X91586Y36152D02*
X92370D01*
X88503Y34343D02*
X91213Y37052D01*
X88628Y34043D02*
X91337Y36752D01*
X88876Y33443D02*
X91586Y36152D01*
X100596Y40060D02*
X100687D01*
Y40053D02*
X100747Y39993D01*
X100960D02*
X101160Y39793D01*
X100747Y39993D02*
X100960D01*
X100836Y39693D02*
X101035Y39493D01*
X101419D01*
X101605Y39307D01*
X102134D01*
X93996Y39413D02*
Y39789D01*
X92142Y36831D02*
X92591D01*
X92893Y37133D01*
X92449Y36231D02*
X92839D01*
X92370Y36152D02*
X92449Y36231D01*
X91213Y37052D02*
X91911D01*
X92574Y35931D02*
X92964D01*
X97333Y39733D02*
X99057D01*
X97139Y39963D02*
X99380D01*
X98476Y38678D02*
X98757Y38397D01*
X97686Y37956D02*
X97807Y37836D01*
X97686Y37956D02*
Y38900D01*
X91188Y31096D02*
X91188D01*
X90278Y33635D02*
X92574Y35931D01*
X101160Y39793D02*
X101543D01*
X100623Y39693D02*
X100836D01*
X102134Y39307D02*
X102198Y39242D01*
X102477Y39607D02*
X103111Y38974D01*
X102600Y37273D02*
X102810Y37483D01*
X103416Y37275D02*
X103507D01*
X103111Y38684D02*
Y38974D01*
Y38684D02*
X103206Y38589D01*
Y37485D02*
X103416Y37275D01*
X87893Y33443D02*
X88876D01*
X88235Y34643D02*
X91258Y37666D01*
Y38260D01*
X87680Y33230D02*
X87893Y33443D01*
X86857Y35575D02*
X87107Y35325D01*
X87395Y34643D02*
X88235D01*
X87306Y34129D02*
X87520Y34343D01*
X88503D01*
X87644Y34043D02*
X88628D01*
X87431Y33830D02*
X87644Y34043D01*
X87125Y34373D02*
X87395Y34643D01*
X87881Y35599D02*
Y35960D01*
X100562Y37275D02*
X100657D01*
X100109Y38367D02*
X100352Y38125D01*
X99699Y38292D02*
X99802Y38395D01*
X100352Y37485D02*
X100562Y37275D01*
X99802Y38395D02*
Y38768D01*
X89195Y43475D02*
X101225D01*
X95670Y42723D02*
X102607D01*
X95854Y42483D02*
X101958D01*
X96873Y45698D02*
X97381Y45190D01*
X95386Y41252D02*
X96128Y41993D01*
X95386Y41180D02*
Y41252D01*
X93996Y39789D02*
X95386Y41180D01*
X95686Y41056D02*
Y41142D01*
X94296Y39665D02*
X95686Y41056D01*
X95986Y40931D02*
Y41032D01*
X94586Y39531D02*
X95986Y40931D01*
X95686Y41142D02*
X96298Y41753D01*
X96036Y38860D02*
X97139Y39963D01*
X96326Y38725D02*
X97333Y39733D01*
X96906Y38426D02*
X97528Y39048D01*
X94574Y41628D02*
X95670Y42723D01*
X98624Y45044D02*
X100128D01*
X98530Y44950D02*
X98624Y45044D01*
X97197Y44950D02*
X98530D01*
X96749Y45398D02*
X97197Y44950D01*
X98459Y45393D02*
X99727D01*
X98256Y45190D02*
X98459Y45393D01*
X100626Y40715D02*
X100738Y40602D01*
X95456Y39128D02*
X96976Y40648D01*
X95986Y41032D02*
X96494Y41540D01*
X85530Y38193D02*
X86056Y38719D01*
Y38793D01*
X85425Y38193D02*
X85530D01*
X86631Y40715D02*
Y40913D01*
X86461Y40545D02*
X86631Y40715D01*
X86651Y47123D02*
X94706D01*
X82756Y40668D02*
Y41302D01*
X97732Y45849D02*
X97807Y45775D01*
X98162Y46130D01*
X103648Y41289D02*
X104146D01*
X104250Y41185D02*
X104347D01*
X104146Y41289D02*
X104250Y41185D01*
X97381Y45190D02*
X98256D01*
X102453Y44702D02*
Y44941D01*
X101958Y42483D02*
X102887Y41555D01*
X104252Y41665D02*
X104462Y41875D01*
X104252Y41662D02*
Y41665D01*
X103421Y41798D02*
X103680Y41539D01*
X102887Y41555D02*
X103030D01*
X103273Y41798D01*
X103680Y41539D02*
X104129D01*
X104252Y41662D01*
X101225Y43475D02*
X102453Y44702D01*
X89020Y32628D02*
X89262Y32869D01*
X87531Y32898D02*
X87801Y32628D01*
X89020D01*
X81956Y32564D02*
Y33075D01*
X85457Y33230D02*
X87680D01*
X83632Y33024D02*
X83656Y33048D01*
X85679Y35118D02*
X86424Y34373D01*
X83837Y35370D02*
X84409Y34798D01*
X87607Y35325D02*
X87881Y35599D01*
X86340Y35065D02*
X86586D01*
X86444Y35315D02*
X86597D01*
X86586Y35065D02*
X86857Y34795D01*
Y34775D02*
Y34795D01*
X87107Y35325D02*
X87607D01*
X89635Y33635D02*
X90278D01*
X85993Y33830D02*
X87431D01*
X89262Y33262D02*
X89635Y33635D01*
X89262Y32869D02*
Y33262D01*
X86552Y32898D02*
X87531D01*
X83099Y34470D02*
X83462Y34107D01*
X85718Y35688D02*
X86340Y35065D01*
X84457Y34800D02*
X85509D01*
X86179Y34130D01*
X84913Y35118D02*
X85679D01*
X85968Y35791D02*
X86444Y35315D01*
X83657Y34775D02*
Y34775D01*
X83362Y35070D02*
X83657Y34775D01*
X86424Y34373D02*
X87125D01*
X86179Y34130D02*
X87306D01*
X85431Y34392D02*
X85993Y33830D01*
X84276Y34392D02*
X85431D01*
X83958Y34710D02*
X84276Y34392D01*
X83721Y34710D02*
X83958D01*
X81156Y32236D02*
Y32823D01*
X83412Y33860D02*
X83769D01*
X83462Y34107D02*
X83903D01*
X84457Y33553D02*
X85134D01*
X83903Y34107D02*
X84457Y33553D01*
X83769Y33860D02*
X84384Y33246D01*
X85035D01*
X85134Y33553D02*
X85457Y33230D01*
X97528Y39048D02*
X97631D01*
X98431Y39322D02*
X98476Y39277D01*
Y38678D02*
Y39277D01*
X99967Y39376D02*
X100030D01*
X99331Y39388D02*
X99529Y39190D01*
Y39040D02*
X99802Y38768D01*
X99529Y39040D02*
Y39190D01*
X97631Y38951D02*
Y39048D01*
X97635Y38951D02*
X97686Y38900D01*
X101729Y39607D02*
X102477D01*
X101543Y39793D02*
X101729Y39607D01*
X99057Y39733D02*
X99331Y39458D01*
X100381Y40275D02*
X100596Y40060D01*
X100281Y40035D02*
X100623Y39693D01*
X99921Y40035D02*
X100281D01*
X99380Y39963D02*
X99967Y39376D01*
X100738Y40602D02*
X101985D01*
X100395Y40715D02*
X100626D01*
X99984Y40275D02*
X100381D01*
X99401Y40857D02*
X99984Y40275D01*
X99399Y40557D02*
X99921Y40035D01*
X97398Y40648D02*
X97518Y40528D01*
X97870D01*
X100131Y40979D02*
Y40998D01*
Y40979D02*
X100395Y40715D01*
X97870Y40528D02*
X97899Y40557D01*
X99399D01*
X101985Y40602D02*
X102328Y40259D01*
X102907Y40863D02*
X103968Y39803D01*
X102572Y40863D02*
X102907D01*
X102328Y40259D02*
X102646D01*
X102774Y40563D02*
X103842Y39495D01*
X102448Y40563D02*
X102774D01*
X102109Y41326D02*
X102572Y40863D01*
X103358Y40998D02*
X103648Y41289D01*
X83657Y34775D02*
X83721Y34710D01*
X84409Y34798D02*
X84456D01*
X73210Y32825D02*
X81156D01*
D43*
X112475Y43715D02*
D03*
X111575D02*
D03*
X111583Y45525D02*
D03*
X112483D02*
D03*
X108233Y46170D02*
D03*
X107333D02*
D03*
X98758Y47800D02*
D03*
X97858D02*
D03*
X103883Y46360D02*
D03*
X104783D02*
D03*
X92433Y38600D02*
D03*
X93333D02*
D03*
X105683Y46170D02*
D03*
X106583D02*
D03*
X88408Y40002D02*
D03*
X89308D02*
D03*
X92533Y41200D02*
D03*
X93433D02*
D03*
X111583Y41875D02*
D03*
X112483D02*
D03*
X108958Y47450D02*
D03*
X109858D02*
D03*
X82382Y41782D02*
D03*
X81482D02*
D03*
X77575Y59864D02*
D03*
X78475D02*
D03*
D44*
X48183Y43917D02*
D03*
X49083D02*
D03*
X106082Y48685D02*
D03*
X106982D02*
D03*
X106008Y47735D02*
D03*
X105108D02*
D03*
X22400Y33879D02*
D03*
X21500D02*
D03*
X108883Y41250D02*
D03*
X109783D02*
D03*
X109533Y46000D02*
D03*
X110433D02*
D03*
X109533Y42200D02*
D03*
X110433D02*
D03*
X109533Y44100D02*
D03*
X110433D02*
D03*
X109533Y43150D02*
D03*
X110433D02*
D03*
X109533Y45050D02*
D03*
X110433D02*
D03*
X57323Y34723D02*
D03*
X58223D02*
D03*
X80207Y58980D02*
D03*
X81107D02*
D03*
D45*
X88975Y41350D02*
D03*
Y42250D02*
D03*
X46300Y39675D02*
D03*
Y40575D02*
D03*
X89933Y41400D02*
D03*
Y42300D02*
D03*
X104533Y41875D02*
D03*
Y40975D02*
D03*
X95033Y47025D02*
D03*
Y47925D02*
D03*
X28805Y49680D02*
D03*
Y50580D02*
D03*
X29780Y49680D02*
D03*
Y50580D02*
D03*
X100658Y37275D02*
D03*
Y36375D02*
D03*
X105183Y49025D02*
D03*
Y49925D02*
D03*
X107308Y38800D02*
D03*
Y37900D02*
D03*
X102558Y37275D02*
D03*
Y36375D02*
D03*
X99483Y49025D02*
D03*
Y49925D02*
D03*
X106358Y38800D02*
D03*
Y37900D02*
D03*
X103508Y37275D02*
D03*
Y36375D02*
D03*
X104458Y38800D02*
D03*
Y37900D02*
D03*
X100433Y49025D02*
D03*
Y49925D02*
D03*
X98533Y49025D02*
D03*
Y49925D02*
D03*
X98758Y37275D02*
D03*
Y36375D02*
D03*
X99708Y37275D02*
D03*
Y36375D02*
D03*
X103283Y49025D02*
D03*
Y49925D02*
D03*
X102333Y49025D02*
D03*
Y49925D02*
D03*
X105408Y38800D02*
D03*
Y37900D02*
D03*
X104233Y49025D02*
D03*
Y49925D02*
D03*
X101383Y49025D02*
D03*
Y49925D02*
D03*
X101608Y37275D02*
D03*
Y36375D02*
D03*
X97808Y37275D02*
D03*
Y36375D02*
D03*
X67890Y32815D02*
D03*
Y31915D02*
D03*
X74375Y55875D02*
D03*
Y56775D02*
D03*
X80171Y57061D02*
D03*
Y57961D02*
D03*
X80175Y56255D02*
D03*
Y55355D02*
D03*
D46*
X50485Y44466D02*
D03*
X112475Y44350D02*
D03*
Y46125D02*
D03*
X58875Y45900D02*
D03*
X59450Y46325D02*
D03*
X46475Y16550D02*
D03*
X67950Y44825D02*
D03*
X66950Y43850D02*
D03*
X53025Y35875D02*
D03*
X55049Y30165D02*
D03*
X55146Y34494D02*
D03*
X52841Y36352D02*
D03*
X60389Y30112D02*
D03*
X42415Y36154D02*
D03*
X58962Y30112D02*
D03*
X43751Y50580D02*
D03*
X48158Y39500D02*
D03*
X54932Y38744D02*
D03*
X61350Y45350D02*
D03*
X68976Y36326D02*
D03*
X67400Y39375D02*
D03*
X112800Y48676D02*
D03*
X112150Y48680D02*
D03*
X48805Y38061D02*
D03*
X44430Y41000D02*
D03*
X65750Y43000D02*
D03*
X48075Y31550D02*
D03*
X54694Y47600D02*
D03*
X43900Y33000D02*
D03*
X43902Y36305D02*
D03*
Y34655D02*
D03*
X42551Y31633D02*
D03*
X27875Y58675D02*
D03*
X21675Y60437D02*
D03*
X46875Y36825D02*
D03*
X46325D02*
D03*
X45825D02*
D03*
X51000Y31586D02*
D03*
X58325Y39355D02*
D03*
X58400Y42275D02*
D03*
X58875Y41750D02*
D03*
X58280Y41421D02*
D03*
X57872Y36740D02*
D03*
X57790Y40850D02*
D03*
X60025Y38600D02*
D03*
X59410Y41410D02*
D03*
X59850Y41650D02*
D03*
X57790Y41825D02*
D03*
X60198Y40638D02*
D03*
X57790Y39875D02*
D03*
X58925Y38775D02*
D03*
X59475Y38325D02*
D03*
X60558Y44442D02*
D03*
X62650Y41975D02*
D03*
X61725Y44505D02*
D03*
X60531Y42990D02*
D03*
X62072Y42497D02*
D03*
X45800Y38125D02*
D03*
X45300D02*
D03*
X44800D02*
D03*
X43900Y37120D02*
D03*
X44400D02*
D03*
X104758Y52425D02*
D03*
X102833D02*
D03*
X100900D02*
D03*
X99050Y52450D02*
D03*
X112483Y42470D02*
D03*
X60375Y45350D02*
D03*
X60790Y44885D02*
D03*
X61100Y44490D02*
D03*
X66780Y38729D02*
D03*
X60950Y37800D02*
D03*
X61300Y36240D02*
D03*
X66350Y45375D02*
D03*
X67350Y44310D02*
D03*
X67400Y45300D02*
D03*
X66900Y45800D02*
D03*
X67950Y43845D02*
D03*
X61875Y36740D02*
D03*
X60841Y36854D02*
D03*
X63385Y37265D02*
D03*
X63900Y36775D02*
D03*
X64375Y36240D02*
D03*
X62375Y37240D02*
D03*
X62875Y36740D02*
D03*
X63375Y36240D02*
D03*
X62875Y37760D02*
D03*
X62030Y38675D02*
D03*
X62606Y44480D02*
D03*
X62720Y42980D02*
D03*
X65870Y43910D02*
D03*
X64550Y44448D02*
D03*
X64875Y45910D02*
D03*
X63210Y42575D02*
D03*
X60375Y46344D02*
D03*
X65780Y36730D02*
D03*
X66900Y36925D02*
D03*
X65390Y45410D02*
D03*
X65735Y44426D02*
D03*
X65970Y38260D02*
D03*
X65375Y36240D02*
D03*
X66780Y40921D02*
D03*
X65040Y42572D02*
D03*
X65378Y46319D02*
D03*
X66780Y42920D02*
D03*
X67784Y45920D02*
D03*
X66450Y46425D02*
D03*
X60210Y42575D02*
D03*
X59290Y42375D02*
D03*
X66003Y31546D02*
D03*
X66460Y37325D02*
D03*
X65969Y37735D02*
D03*
X69768Y34197D02*
D03*
X67375Y36325D02*
D03*
X67950Y37825D02*
D03*
X67780Y36730D02*
D03*
X67343Y43364D02*
D03*
X67405Y42293D02*
D03*
X67970Y42725D02*
D03*
X67382Y41326D02*
D03*
X67950Y41800D02*
D03*
X66890Y41832D02*
D03*
X66450Y42400D02*
D03*
X110750Y36957D02*
D03*
X111650D02*
D03*
X66469Y39230D02*
D03*
X65530Y40170D02*
D03*
X67471Y38421D02*
D03*
X67964Y38920D02*
D03*
X66875Y44825D02*
D03*
X66779Y37729D02*
D03*
X66925Y39785D02*
D03*
X67899Y39831D02*
D03*
X67474Y40349D02*
D03*
X59989Y37735D02*
D03*
X64625Y42983D02*
D03*
X62375Y36240D02*
D03*
Y45300D02*
D03*
X57862Y44875D02*
D03*
X57275Y31800D02*
D03*
X49889Y39866D02*
D03*
X61625Y38160D02*
D03*
X64375Y37350D02*
D03*
X63900Y37925D02*
D03*
X64875Y36829D02*
D03*
X79425Y57375D02*
D03*
X79450Y56685D02*
D03*
X52175Y41475D02*
D03*
X52675D02*
D03*
X64198Y39575D02*
D03*
X64625Y40143D02*
D03*
X49358Y39866D02*
D03*
X53389Y41170D02*
D03*
X52031Y42800D02*
D03*
X54436Y40077D02*
D03*
X55458Y40070D02*
D03*
X49325Y35825D02*
D03*
X61125Y38675D02*
D03*
X60600Y38175D02*
D03*
X49475Y38554D02*
D03*
X65500Y30275D02*
D03*
X65956Y28986D02*
D03*
X60408Y32204D02*
D03*
X53450Y36225D02*
D03*
X54175D02*
D03*
X60375Y30750D02*
D03*
X66003Y29720D02*
D03*
X57271Y30195D02*
D03*
Y30982D02*
D03*
X60973Y33601D02*
D03*
X59781Y31175D02*
D03*
X60960D02*
D03*
Y32210D02*
D03*
X60956Y32765D02*
D03*
X56956Y32510D02*
D03*
X65999Y30944D02*
D03*
X58240Y49865D02*
D03*
X55875Y47825D02*
D03*
Y34825D02*
D03*
X50050Y35897D02*
D03*
Y38554D02*
D03*
X52850Y38475D02*
D03*
X55077Y36225D02*
D03*
X55550Y38085D02*
D03*
X67300Y33588D02*
D03*
X61625Y42100D02*
D03*
X61625Y42983D02*
D03*
X58396Y46369D02*
D03*
X59931Y45892D02*
D03*
X58348Y43300D02*
D03*
X64800Y37750D02*
D03*
X59469Y37256D02*
D03*
X58939Y37770D02*
D03*
X58349Y38315D02*
D03*
X58858Y40910D02*
D03*
X59345Y39355D02*
D03*
X58875Y39910D02*
D03*
X63747Y38971D02*
D03*
X61625Y40089D02*
D03*
X61040Y42575D02*
D03*
X64017Y42572D02*
D03*
X63625Y42983D02*
D03*
X57782Y43812D02*
D03*
X65806Y40972D02*
D03*
X64125Y38629D02*
D03*
X63075Y38650D02*
D03*
X65050Y40550D02*
D03*
X61125Y48775D02*
D03*
X58816Y34213D02*
D03*
X69762Y48237D02*
D03*
X57966Y42920D02*
D03*
X58375Y37350D02*
D03*
X58875Y36825D02*
D03*
X65750Y39000D02*
D03*
X64876Y38245D02*
D03*
X65150Y39650D02*
D03*
X60525Y40100D02*
D03*
X63625Y41100D02*
D03*
X61092Y40638D02*
D03*
X62700Y40075D02*
D03*
X59325Y43400D02*
D03*
X64125Y40575D02*
D03*
X65700Y42075D02*
D03*
X60625Y42100D02*
D03*
X62875Y45725D02*
D03*
X62400Y46325D02*
D03*
X61875Y45825D02*
D03*
X63100Y40575D02*
D03*
X64625Y42075D02*
D03*
X63625D02*
D03*
X63375Y46250D02*
D03*
X61375Y46325D02*
D03*
X57825Y37800D02*
D03*
X62150Y40625D02*
D03*
X63850Y45725D02*
D03*
X58850Y43800D02*
D03*
X58875Y42740D02*
D03*
X58375Y44325D02*
D03*
X57790Y38850D02*
D03*
X59342Y45383D02*
D03*
X57900Y45800D02*
D03*
X63328Y44412D02*
D03*
X63900Y44825D02*
D03*
X81325Y56655D02*
D03*
Y56155D02*
D03*
X77925Y56755D02*
D03*
D49*
X82833Y42975D02*
D03*
X81433D02*
D03*
X97508Y48825D02*
D03*
X96108D02*
D03*
D62*
X108132Y51758D02*
D03*
Y50358D02*
D03*
X109133Y37475D02*
D03*
Y36075D02*
D03*
D63*
X50485Y43888D02*
D03*
Y42988D02*
D03*
X46382Y42565D02*
D03*
Y43465D02*
D03*
X99058Y50850D02*
D03*
Y51750D02*
D03*
X100908Y50850D02*
D03*
Y51750D02*
D03*
X102833Y50850D02*
D03*
Y51750D02*
D03*
X107608Y36825D02*
D03*
Y35925D02*
D03*
X105833Y36800D02*
D03*
Y35900D02*
D03*
X87658Y40300D02*
D03*
Y41200D02*
D03*
X104008Y34375D02*
D03*
Y35275D02*
D03*
X102108Y34375D02*
D03*
Y35275D02*
D03*
X100208Y34375D02*
D03*
Y35275D02*
D03*
X98283Y34375D02*
D03*
Y35275D02*
D03*
X104758Y51750D02*
D03*
Y50850D02*
D03*
X76615Y59480D02*
D03*
Y58580D02*
D03*
X75260Y56980D02*
D03*
Y57880D02*
D03*
X82015Y56255D02*
D03*
Y57155D02*
D03*
X77027Y55505D02*
D03*
Y54605D02*
D03*
X76110Y56305D02*
D03*
Y55405D02*
D03*
D65*
X66171Y35716D02*
D03*
X66721D02*
D03*
X62950Y46787D02*
D03*
X62400D02*
D03*
X60525Y45850D02*
D03*
X61075D02*
D03*
X58900Y45425D02*
D03*
X58350D02*
D03*
X60452Y46829D02*
D03*
X59902D02*
D03*
X65483Y44894D02*
D03*
X66033D02*
D03*
X63850Y46837D02*
D03*
X64400D02*
D03*
X58325Y36331D02*
D03*
X58875D02*
D03*
X67941Y34986D02*
D03*
X67391D02*
D03*
X68440Y33588D02*
D03*
X67890D02*
D03*
X67941Y34367D02*
D03*
X67391D02*
D03*
X66198Y35094D02*
D03*
X66748D02*
D03*
D69*
X112475Y43758D02*
X112479Y43754D01*
X112483Y43750D01*
X112479Y45529D02*
X112483Y45525D01*
X112475Y45533D02*
X112479Y45529D01*
X65350Y43425D02*
X65627Y43148D01*
X65673Y42027D02*
X66023D01*
X66183Y41867D01*
X66218D01*
X65625Y42143D02*
X65675Y42193D01*
X65625Y42075D02*
Y42143D01*
X67375Y34827D02*
Y36325D01*
X65950Y37205D02*
Y37716D01*
X66167Y36950D02*
Y36988D01*
X65950Y37205D02*
X66167Y36988D01*
Y36950D02*
X66367Y36750D01*
X66466D02*
X66821Y36395D01*
X66367Y36750D02*
X66466D01*
X65950Y37716D02*
X65969Y37735D01*
X66205Y41900D02*
X66305Y41800D01*
X66340D02*
X66780Y41360D01*
X66305Y41800D02*
X66340D01*
X66780Y40925D02*
Y41360D01*
X43097Y41397D02*
X43100Y41400D01*
X63807Y45686D02*
X63859Y45738D01*
X65675Y42193D02*
Y42990D01*
X60025Y38550D02*
Y38643D01*
X59881Y38787D02*
X60025Y38643D01*
X59780Y39075D02*
X59781D01*
X59881Y38787D02*
Y38975D01*
X60025Y38550D02*
X60352Y38223D01*
X59781Y39075D02*
X59881Y38975D01*
X60352Y38223D02*
X60552D01*
X64463Y41239D02*
X64496D01*
X64083Y41306D02*
X64396D01*
X64463Y41239D01*
X64496D02*
X64706Y41029D01*
X63656Y41131D02*
X63908D01*
X64083Y41306D01*
X63625Y41100D02*
X63656Y41131D01*
X63052Y40623D02*
X63100Y40575D01*
X62902Y40623D02*
X63052D01*
X62600Y40925D02*
X62902Y40623D01*
X62700Y41025D02*
X62756D01*
X62788Y41057D02*
X63162D01*
X62600Y40925D02*
X62700Y41025D01*
X62756D02*
X62788Y41057D01*
X62040Y38685D02*
X62050Y38675D01*
Y38607D02*
Y38675D01*
X61610Y38175D02*
X62027D01*
X61235D02*
X61610D01*
Y38931D01*
Y38175D02*
Y38175D01*
X105833Y35900D02*
X105833Y35900D01*
X61610Y38175D02*
X61625Y38160D01*
X61467Y39074D02*
X61610Y38931D01*
X62175Y38323D02*
Y38482D01*
X62040Y38685D02*
Y39123D01*
X62050Y38607D02*
X62175Y38482D01*
X62030Y39133D02*
X62040Y39123D01*
X64875Y45910D02*
X64895Y45890D01*
Y45441D02*
Y45890D01*
X61125Y38675D02*
Y38743D01*
Y38285D02*
Y38675D01*
X66487Y43213D02*
Y43463D01*
X66400Y43550D02*
X66487Y43463D01*
Y43213D02*
X66780Y42920D01*
X68390Y33919D02*
X68669Y34197D01*
X69768D01*
X67375Y34827D02*
X67391Y34811D01*
X107333Y46170D02*
X107382Y46220D01*
X104783Y46360D02*
X104792Y46369D01*
X65002Y40598D02*
Y40733D01*
X64706Y41029D02*
X65002Y40733D01*
Y40598D02*
X65050Y40550D01*
X63769Y40575D02*
X64125D01*
X63625Y40719D02*
X63769Y40575D01*
X63625Y40719D02*
Y41100D01*
X64083Y40961D02*
Y41306D01*
X64125Y40575D02*
Y40919D01*
X64083Y40961D02*
X64125Y40919D01*
X65452Y41703D02*
Y41862D01*
X65352Y41603D02*
X65452Y41703D01*
Y41862D02*
X65625Y42035D01*
X60600Y38175D02*
X61037D01*
X61125Y38263D02*
Y38285D01*
X61037Y38175D02*
X61125Y38263D01*
Y38285D02*
X61235Y38175D01*
X62027D02*
X62175Y38323D01*
X64125Y40575D02*
X64150Y40550D01*
X65050D01*
X63100Y40575D02*
X63162Y40637D01*
Y41057D01*
X60552Y38223D02*
X60600Y38175D01*
X63426Y38650D02*
X63747Y38971D01*
X63075Y38650D02*
X63426D01*
X63747Y38971D02*
X63783D01*
X64125Y38629D01*
X64193Y38697D01*
X64607D01*
X64625Y42075D02*
X64706Y41994D01*
Y41579D02*
Y41994D01*
X63625Y42075D02*
X63844Y41856D01*
X64083D01*
X63293Y42075D02*
X63625D01*
X63162Y41944D02*
X63293Y42075D01*
X63162Y41607D02*
Y41944D01*
X62683Y39694D02*
Y40058D01*
X62592Y39603D02*
X62683Y39694D01*
Y40058D02*
X62700Y40075D01*
X63066D02*
X63154Y39987D01*
X62700Y40075D02*
X63066D01*
X63154Y39672D02*
Y39987D01*
X64278Y45725D02*
X64305Y45752D01*
X63850Y45725D02*
X64278D01*
X63586Y45686D02*
X63807D01*
X63400Y45500D02*
X63586Y45686D01*
X59931Y45892D02*
X59935Y45896D01*
X62950Y46293D02*
Y46787D01*
X62875Y46218D02*
X62950Y46293D01*
X62875Y45725D02*
Y46218D01*
X63850Y45775D02*
Y46787D01*
X60340Y39085D02*
X60600Y38825D01*
Y38175D02*
Y38825D01*
X61005Y38863D02*
Y39048D01*
Y38863D02*
X61125Y38743D01*
X60905Y39148D02*
X61005Y39048D01*
X64607Y38697D02*
X64707Y38597D01*
Y38458D02*
X64876Y38289D01*
X64707Y38458D02*
Y38597D01*
X64876Y38245D02*
Y38289D01*
X63714Y39486D02*
X63747Y39453D01*
Y38971D02*
Y39453D01*
X63092Y38667D02*
Y39060D01*
X63154Y39122D01*
X63075Y38650D02*
X63092Y38667D01*
X62592Y38738D02*
X62680Y38650D01*
X62592Y38738D02*
Y39053D01*
X62680Y38650D02*
X63075D01*
X63604Y41078D02*
X63625Y41100D01*
X63183Y41078D02*
X63604D01*
X63162Y41057D02*
X63183Y41078D01*
D70*
X49973Y41473D02*
X50976Y40471D01*
X49873Y41573D02*
X49973Y41473D01*
X50485Y43888D02*
Y44466D01*
X112475Y44350D02*
X112479Y44346D01*
Y43754D02*
Y44346D01*
Y45529D02*
Y46121D01*
X112475Y46125D02*
X112479Y46121D01*
X58394Y44530D02*
X58689Y44825D01*
X59025D01*
X58394Y44344D02*
Y44530D01*
X59025Y44825D02*
Y44850D01*
X58375Y44325D02*
X58394Y44344D01*
X58984Y44850D02*
X59125D01*
X57350Y44325D02*
X58386D01*
X81061Y56174D02*
X81306D01*
X81325Y56155D01*
X109851Y47318D02*
X109956Y47423D01*
X109781Y46748D02*
Y46802D01*
X108195Y46787D02*
X108219Y46811D01*
X98125Y48454D02*
X98844Y47735D01*
X97481Y48723D02*
Y48848D01*
X93331Y40548D02*
X93369Y40586D01*
X92444Y38035D02*
Y38660D01*
X82369Y41760D02*
X82407Y41798D01*
X82332Y40923D02*
X82369Y40960D01*
X89308Y40605D02*
X89933Y41230D01*
X56696Y44325D02*
X57350D01*
X53152Y35775D02*
X53829D01*
X53052Y35875D02*
X53152Y35775D01*
X53025Y35875D02*
X53052D01*
X55165Y34474D02*
X55236D01*
X55259Y34452D02*
X55612D01*
X55146Y34494D02*
X55165Y34474D01*
X55689Y34375D02*
X56975D01*
X55236Y34474D02*
X55259Y34452D01*
X55612D02*
X55689Y34375D01*
X53829Y35775D02*
X53836Y35769D01*
X54451D01*
X57323Y34628D02*
Y34723D01*
X57123Y34523D02*
X57218D01*
X57323Y34628D01*
X56975Y34375D02*
X57123Y34523D01*
X47189Y43814D02*
Y46897D01*
X50423Y42123D02*
X50485Y42185D01*
X50073Y41573D02*
X50423Y41923D01*
X50485Y42185D02*
Y42988D01*
X50423Y41923D02*
Y42123D01*
X49873Y41573D02*
X50073D01*
X46897Y43522D02*
X47189Y43814D01*
X58864Y39921D02*
X58875Y39933D01*
X58831Y39889D02*
X58864Y39921D01*
X46439Y43522D02*
X46897D01*
X46382Y43465D02*
X46439Y43522D01*
X47625Y40575D02*
X47673Y40623D01*
X46300Y40575D02*
X47625D01*
X54932Y38744D02*
X54936Y38748D01*
X56064D01*
X54627Y35944D02*
Y36412D01*
X54451Y35769D02*
X54627Y35944D01*
X56088Y36877D02*
X57012Y37800D01*
X54627Y36412D02*
X54891Y36675D01*
X55461D01*
X55662Y36877D01*
X56088D01*
X53326Y40471D02*
X53642Y40787D01*
X55870D01*
X50976Y40471D02*
X53326D01*
X55870Y40787D02*
X56299Y40358D01*
X104758Y51750D02*
Y52425D01*
X102833Y51750D02*
Y52425D01*
X100900D02*
X100908Y52417D01*
Y51750D02*
Y52417D01*
X95033Y47925D02*
X95138Y48030D01*
X95340D02*
X95840Y48530D01*
X95938D02*
X96046Y48638D01*
X95840Y48530D02*
X95938D01*
X95138Y48030D02*
X95340D01*
X96046Y48638D02*
Y48736D01*
X109019Y47385D02*
X109056Y47423D01*
X108981Y46773D02*
X109019Y46810D01*
X81469Y41835D02*
X81507Y41798D01*
X88307Y40725D02*
X88382D01*
X81507Y40923D02*
Y41798D01*
X92532Y40548D02*
Y40637D01*
X93227Y38568D02*
X93332Y38673D01*
X93032Y37848D02*
Y37902D01*
X87632Y40298D02*
X87682D01*
X108129Y51761D02*
Y52471D01*
Y51761D02*
X108132Y51758D01*
X108125Y52475D02*
X108129Y52471D01*
X28810Y49683D02*
X29785D01*
X29764Y49031D02*
X29774Y49041D01*
Y49673D02*
X29785Y49683D01*
X29774Y49041D02*
Y49673D01*
X56299Y40358D02*
X58427D01*
X58864Y39921D02*
X58875Y39910D01*
X58427Y40358D02*
X58864Y39921D01*
X57891Y36682D02*
X58133Y36440D01*
X57872Y36740D02*
X57891Y36721D01*
X58216Y36440D02*
X58325Y36331D01*
X57891Y36682D02*
Y36721D01*
X58133Y36440D02*
X58216D01*
X59375Y40950D02*
Y41410D01*
X60217Y40657D02*
Y40971D01*
X60351Y41105D01*
X60198Y40638D02*
X60217Y40657D01*
X60506Y40119D02*
Y40330D01*
Y40119D02*
X60525Y40100D01*
X60198Y40638D02*
X60506Y40330D01*
X59451Y40326D02*
X59886D01*
X59425Y40300D02*
X59451Y40326D01*
X59886D02*
X60198Y40638D01*
X59456Y40300D02*
X59506Y40250D01*
Y39894D02*
X59775Y39625D01*
X59425Y40300D02*
X59456D01*
X59506Y39894D02*
Y40250D01*
X56338Y38613D02*
X56479Y38472D01*
X56199Y38613D02*
X56338D01*
X57012Y37800D02*
X57825D01*
X56479Y38333D02*
X57012Y37800D01*
X56479Y38333D02*
Y38472D01*
X56064Y38748D02*
X56199Y38613D01*
X59634Y44431D02*
X59911D01*
X60372Y44892D02*
X60783D01*
X59911Y44431D02*
X60372Y44892D01*
X60783D02*
X60790Y44885D01*
X59609Y44406D02*
X59634Y44431D01*
X59150Y44825D02*
X59190D01*
X59300Y44715D02*
X59399D01*
X59540Y44475D02*
Y44574D01*
X59125Y44850D02*
X59150Y44825D01*
X59190D02*
X59300Y44715D01*
X59399D02*
X59540Y44574D01*
Y44475D02*
X59609Y44406D01*
X61875Y44025D02*
Y44159D01*
X61750Y44284D02*
Y44453D01*
X61725Y44478D02*
Y44505D01*
X61875Y44025D02*
X61900Y44000D01*
X61725Y44478D02*
X61750Y44453D01*
Y44284D02*
X61875Y44159D01*
X62600Y41475D02*
X62604Y41479D01*
Y41901D02*
X62650Y41948D01*
X62604Y41479D02*
Y41901D01*
X62650Y41948D02*
Y41975D01*
X59958Y45892D02*
X60000Y45850D01*
X60525D01*
X59931Y45892D02*
X59958D01*
X59902Y45948D02*
X59931Y45919D01*
Y45892D02*
Y45919D01*
X99050Y51758D02*
Y52450D01*
Y51758D02*
X99058Y51750D01*
X112483Y41875D02*
Y42470D01*
X105833Y35900D02*
X106525D01*
X107608Y35925D02*
X108275D01*
X109283D02*
X109950D01*
X109133Y36075D02*
X109283Y35925D01*
X104008Y34375D02*
X104675D01*
X102108D02*
X102775D01*
X100208D02*
X100900D01*
X98283D02*
X98950D01*
X58275Y35625D02*
X58325Y35675D01*
Y36331D01*
X88307Y40715D02*
Y40725D01*
Y40103D02*
Y40715D01*
X92526Y40642D02*
X92532Y40637D01*
X92526Y40642D02*
Y41031D01*
X92507Y41050D02*
X92526Y41031D01*
X105108Y47735D02*
X105132D01*
X103992Y46469D02*
Y46992D01*
X98843Y47734D02*
X98844Y47735D01*
X98843Y47132D02*
Y47734D01*
Y47132D02*
X98882Y47094D01*
X97943Y47711D02*
X97963Y47670D01*
X97982Y46962D01*
X97856Y47798D02*
X97943Y47711D01*
X82369Y40960D02*
Y41760D01*
X81507Y40923D02*
X81507Y40923D01*
X93369Y40586D02*
Y41161D01*
X93407Y41198D01*
X104792Y46369D02*
Y47037D01*
X106582Y46170D02*
X106583Y46170D01*
X106582Y46170D02*
Y46800D01*
X93032Y37902D02*
X93227Y38097D01*
X108182Y46220D02*
Y46800D01*
Y46220D02*
X108233Y46170D01*
X105683D02*
X105704Y46191D01*
Y47005D01*
X106008Y47309D01*
Y47735D01*
X89308Y40002D02*
Y40605D01*
X89933Y41230D02*
Y41400D01*
X109781Y46802D02*
X109851Y46872D01*
Y47318D01*
X97481Y48723D02*
X97750Y48454D01*
X98125D01*
X92444Y38035D02*
X92457Y38023D01*
X92432Y38673D02*
X92444Y38660D01*
X82582Y42678D02*
X82662D01*
X82832Y42848D01*
X82407Y41798D02*
Y42502D01*
X82582Y42678D01*
X82832Y42848D02*
Y42973D01*
X107382Y46220D02*
Y46800D01*
X106582D02*
X106982Y47200D01*
Y48685D01*
X105955D02*
X106082D01*
X105108Y47838D02*
X105955Y48685D01*
X105108Y47735D02*
Y47838D01*
X104735Y47735D02*
X105108D01*
X103992Y46992D02*
X104735Y47735D01*
X103883Y46360D02*
X103992Y46469D01*
X88307Y40103D02*
X88408Y40002D01*
X88382Y40725D02*
X89008Y41350D01*
X88758Y42300D02*
X89933D01*
X87658Y41200D02*
X88758Y42300D01*
X86907Y40373D02*
X87102Y40568D01*
X109019Y46810D02*
Y47385D01*
X97082Y47700D02*
X97758D01*
X96046Y48736D02*
X97082Y47700D01*
X97758D02*
X97856Y47798D01*
X93227Y38097D02*
Y38568D01*
X87102Y40668D02*
X87632Y41198D01*
X87682Y40298D02*
X88018Y40634D01*
X88268D01*
X88307Y40673D01*
X87457Y40123D02*
X87632Y40298D01*
X87449Y40123D02*
X87457D01*
X86988Y39661D02*
X87449Y40123D01*
X86895Y39661D02*
X86988D01*
X86857Y39623D02*
X86895Y39661D01*
X87102Y40568D02*
Y40668D01*
X81469Y41835D02*
Y42935D01*
X81432Y42973D02*
X81469Y42935D01*
X75500Y62900D02*
X75510Y62910D01*
X66200Y34914D02*
Y36324D01*
X66003Y31546D02*
X66023Y31565D01*
X65984Y31527D02*
X66003Y31546D01*
X80867Y56368D02*
Y56928D01*
X81325Y57155D02*
X82015D01*
X81075Y57136D02*
X81306D01*
X80867Y56368D02*
X81061Y56174D01*
X81306Y57136D02*
X81325Y57155D01*
X80867Y56928D02*
X81075Y57136D01*
X75260Y57880D02*
X75925D01*
X68514Y31908D02*
X69284Y31138D01*
Y30569D02*
Y31138D01*
X67890Y31915D02*
X67898Y31908D01*
X68514D01*
X66258Y32836D02*
Y34855D01*
X66200Y34914D02*
X66258Y34855D01*
X66449Y31771D02*
Y32645D01*
X66023Y31565D02*
X66243D01*
X66449Y31771D01*
X66258Y32836D02*
X66449Y32645D01*
X67890Y32815D02*
Y33588D01*
X67300D02*
X67890D01*
D71*
X66875Y36900D02*
X66900Y36925D01*
X66875Y36449D02*
Y36900D01*
X66750Y36324D02*
X66875Y36449D01*
X66750Y35714D02*
Y36324D01*
Y33083D02*
Y35714D01*
X68390Y33638D02*
Y33919D01*
X67941Y34367D02*
X68390Y33919D01*
Y33638D02*
X68440Y33588D01*
X67391Y34811D02*
Y34986D01*
Y34385D02*
Y34811D01*
X77925Y56256D02*
Y56755D01*
Y56256D02*
X78516Y55665D01*
X75675Y54605D02*
X77027D01*
X75675Y54970D02*
X76110Y55405D01*
X75675Y54605D02*
Y54970D01*
X66750Y33083D02*
X67000Y32833D01*
Y31075D02*
Y32833D01*
X67941Y34385D02*
Y34986D01*
D73*
X37810Y38535D02*
Y38592D01*
X37800Y38525D02*
X37810Y38535D01*
Y38592D02*
X39084Y39866D01*
X25315Y38740D02*
X25489Y38914D01*
X26061Y45936D02*
Y52095D01*
X25489Y45364D02*
X26061Y45936D01*
X25489Y38914D02*
Y45364D01*
X43757Y41068D02*
Y43623D01*
X43326Y44054D02*
X43757Y43623D01*
X42555Y39866D02*
X43757Y41068D01*
X39084Y39866D02*
X42555D01*
X68495Y54661D02*
X68777Y54944D01*
X62400Y47824D02*
X68495Y53919D01*
X68777Y54944D02*
Y54958D01*
X68495Y53919D02*
Y54661D01*
X62400Y46787D02*
Y47824D01*
X26061Y52095D02*
X32335Y58370D01*
Y58424D01*
X32345Y58433D01*
X66983Y28898D02*
Y29658D01*
X65956Y28400D02*
X66485D01*
X66983Y29658D02*
X67000Y29675D01*
X66485Y28400D02*
X66983Y28898D01*
D76*
X66537Y40682D02*
X66780Y40925D01*
X66175Y41900D02*
X66270Y41995D01*
X66332Y40682D02*
X66537D01*
X66250Y40600D02*
X66332Y40682D01*
X66270Y41995D02*
Y42018D01*
X66404Y42152D02*
Y42354D01*
X66270Y42018D02*
X66404Y42152D01*
Y42354D02*
X66450Y42400D01*
D77*
X58126Y33021D02*
X59180Y34075D01*
X60475Y34725D02*
Y35978D01*
X61249Y36751D02*
X61872D01*
X60475Y35978D02*
X61249Y36751D01*
X57977Y32227D02*
X60475Y34725D01*
X60865Y34538D02*
Y35768D01*
X61335Y36239D01*
X60654Y37274D02*
X61955D01*
X62374D01*
X62375Y37275D01*
X59653Y36273D02*
X60654Y37274D01*
X61525Y34655D02*
Y35349D01*
X62375Y36199D02*
Y36240D01*
X61525Y35349D02*
X62375Y36199D01*
X60402Y34075D02*
X60865Y34538D01*
X62875Y36248D02*
Y36750D01*
X61981Y33039D02*
X63375Y34433D01*
Y36250D01*
X62528Y35901D02*
X62875Y36248D01*
X62528Y34501D02*
Y35901D01*
X61525Y33498D02*
X62528Y34501D01*
X61981Y31469D02*
Y33039D01*
X61525Y31919D02*
Y33498D01*
X59180Y34075D02*
X59653Y34548D01*
Y36273D01*
X74080Y55675D02*
X74280Y55875D01*
X74056Y55556D02*
X74080Y55580D01*
X73884Y55340D02*
X74056Y55512D01*
Y55556D01*
X73884Y55227D02*
Y55340D01*
X74280Y55875D02*
X74375D01*
X74080Y55580D02*
Y55675D01*
X62375Y45300D02*
Y45848D01*
X62045Y46178D02*
X62375Y45848D01*
X60458Y33588D02*
X61525Y34655D01*
X60458Y33230D02*
Y33588D01*
X57777Y30550D02*
X60458Y33230D01*
X57752Y31425D02*
X60402Y34075D01*
X79425Y57375D02*
X79762D01*
X80076Y57061D01*
X80171D01*
X80019Y56411D02*
X80175Y56255D01*
X79724Y56411D02*
X80019D01*
X79450Y56685D02*
X79724Y56411D01*
X61906Y48340D02*
X67341Y53775D01*
X61906Y46317D02*
Y48340D01*
X62045Y46178D02*
Y46178D01*
X61906Y46317D02*
X62045Y46178D01*
D81*
X61162Y45672D02*
X61175Y45660D01*
X61350Y45366D02*
Y45390D01*
X61175Y45565D02*
X61350Y45390D01*
X61000Y45925D02*
X61162Y45763D01*
Y45672D02*
Y45763D01*
X61175Y45565D02*
Y45660D01*
X61362Y45435D02*
X62186Y44612D01*
Y44315D02*
Y44612D01*
X62252Y44231D02*
Y44249D01*
Y44231D02*
X62283Y44200D01*
X62186Y44315D02*
X62252Y44249D01*
X62072Y42564D02*
X62283Y42776D01*
Y44200D01*
X61000Y45925D02*
Y46010D01*
X60968Y46042D02*
Y46188D01*
Y46042D02*
X61000Y46010D01*
X60850Y46305D02*
X60968Y46188D01*
X60413Y46305D02*
X60850D01*
X60389Y46357D02*
X60411Y46380D01*
X60375Y46344D02*
X60389Y46357D01*
Y46765D01*
X60452Y46829D01*
X60375Y46344D02*
X60413Y46305D01*
X62072Y42497D02*
Y42564D01*
X60411Y46380D02*
X60485D01*
D84*
X62400Y46325D02*
Y46787D01*
D92*
X47175Y46475D02*
D03*
X48425D02*
D03*
D93*
X2175Y830D02*
D03*
X4600D02*
D03*
X7050D02*
D03*
X9875D02*
D03*
X12900D02*
D03*
X15825D02*
D03*
X825Y1625D02*
D03*
Y3225D02*
D03*
Y4775D02*
D03*
Y6500D02*
D03*
X3600Y78750D02*
D03*
X825Y77825D02*
D03*
Y75500D02*
D03*
Y70575D02*
D03*
X95000Y78775D02*
D03*
X92500D02*
D03*
X115411D02*
D03*
X112911D02*
D03*
X110086D02*
D03*
X97586D02*
D03*
X100086D02*
D03*
X102586D02*
D03*
X105086D02*
D03*
X107586D02*
D03*
X51925D02*
D03*
X49425D02*
D03*
X89486D02*
D03*
X86986D02*
D03*
X84486D02*
D03*
X79836D02*
D03*
X77336D02*
D03*
X74836D02*
D03*
X72336D02*
D03*
X69836D02*
D03*
X82336D02*
D03*
X67011D02*
D03*
X54511D02*
D03*
X57011D02*
D03*
X59511D02*
D03*
X62011D02*
D03*
X64511D02*
D03*
X21436D02*
D03*
X18936D02*
D03*
X16436D02*
D03*
X13936D02*
D03*
X11436D02*
D03*
X23936D02*
D03*
X39261D02*
D03*
X26761D02*
D03*
X29261D02*
D03*
X31761D02*
D03*
X34261D02*
D03*
X36761D02*
D03*
X41411D02*
D03*
X43911D02*
D03*
X46411D02*
D03*
X28386Y830D02*
D03*
X25886D02*
D03*
X23386D02*
D03*
X20886D02*
D03*
X18386D02*
D03*
X30886D02*
D03*
X46211D02*
D03*
X33711D02*
D03*
X36211D02*
D03*
X38711D02*
D03*
X41211D02*
D03*
X43711D02*
D03*
X48361D02*
D03*
X50861D02*
D03*
X53361D02*
D03*
X107300D02*
D03*
X104000Y805D02*
D03*
X101286D02*
D03*
X96311Y830D02*
D03*
X93811D02*
D03*
X91311D02*
D03*
X88811D02*
D03*
X86311D02*
D03*
X98811D02*
D03*
X81661D02*
D03*
X79161D02*
D03*
X76661D02*
D03*
X74161D02*
D03*
X71661D02*
D03*
X84161D02*
D03*
X118625Y2850D02*
D03*
Y5350D02*
D03*
Y7850D02*
D03*
Y10350D02*
D03*
Y12850D02*
D03*
X109425Y830D02*
D03*
X111725D02*
D03*
X113975D02*
D03*
X116325D02*
D03*
X118625D02*
D03*
Y15350D02*
D03*
Y32850D02*
D03*
Y35350D02*
D03*
Y37850D02*
D03*
Y40350D02*
D03*
Y42850D02*
D03*
Y17850D02*
D03*
Y20350D02*
D03*
Y22850D02*
D03*
Y25350D02*
D03*
Y27850D02*
D03*
Y30350D02*
D03*
Y45350D02*
D03*
Y62850D02*
D03*
Y65350D02*
D03*
Y67850D02*
D03*
Y70350D02*
D03*
Y72850D02*
D03*
Y47850D02*
D03*
Y50350D02*
D03*
Y52850D02*
D03*
Y55350D02*
D03*
Y57850D02*
D03*
Y60350D02*
D03*
Y77850D02*
D03*
Y75350D02*
D03*
X825Y23475D02*
D03*
Y25975D02*
D03*
Y28475D02*
D03*
Y30975D02*
D03*
Y33475D02*
D03*
Y8475D02*
D03*
Y10975D02*
D03*
Y13475D02*
D03*
Y15975D02*
D03*
Y18475D02*
D03*
Y20975D02*
D03*
Y35975D02*
D03*
Y73500D02*
D03*
Y66000D02*
D03*
Y68500D02*
D03*
X6350Y78775D02*
D03*
X8850D02*
D03*
X6800Y27975D02*
D03*
X23575Y34600D02*
D03*
X42656Y44024D02*
D03*
X37800Y38525D02*
D03*
X53329Y32955D02*
D03*
X47189Y44713D02*
D03*
X21490Y34600D02*
D03*
X22500D02*
D03*
X42575Y65995D02*
D03*
X50389Y33869D02*
D03*
X68777Y54958D02*
D03*
X109050Y50575D02*
D03*
X49725Y31600D02*
D03*
X47672Y29202D02*
D03*
X48200Y34420D02*
D03*
X47112Y33546D02*
D03*
X46975Y30500D02*
D03*
X47125Y34425D02*
D03*
X47625Y36300D02*
D03*
X50450Y60275D02*
D03*
Y63575D02*
D03*
X45995Y47305D02*
D03*
X53800Y23875D02*
D03*
X53467Y26550D02*
D03*
X51350Y21475D02*
D03*
X54175Y63500D02*
D03*
X54195Y60275D02*
D03*
X42252Y38285D02*
D03*
X41577D02*
D03*
X14637Y36823D02*
D03*
X13912D02*
D03*
X14637Y37498D02*
D03*
X13912D02*
D03*
X13187D02*
D03*
Y36823D02*
D03*
X19700Y46198D02*
D03*
X16298Y46890D02*
D03*
X15623D02*
D03*
X16298Y46165D02*
D03*
X15623D02*
D03*
X18850Y51523D02*
D03*
Y50848D02*
D03*
Y50173D02*
D03*
X18175D02*
D03*
Y50848D02*
D03*
Y51523D02*
D03*
X19702Y45473D02*
D03*
X42535Y51865D02*
D03*
X29100Y52950D02*
D03*
X29780D02*
D03*
X42656Y45374D02*
D03*
Y44699D02*
D03*
X43326Y44729D02*
D03*
Y45404D02*
D03*
X41473Y44713D02*
D03*
X40798D02*
D03*
X40123D02*
D03*
Y44038D02*
D03*
X40798D02*
D03*
X41473D02*
D03*
X43326Y44054D02*
D03*
X35350Y34945D02*
D03*
X42252Y37560D02*
D03*
X41577D02*
D03*
X32365Y58430D02*
D03*
X45533Y44683D02*
D03*
X12276Y44465D02*
D03*
X12251Y41802D02*
D03*
Y40902D02*
D03*
X12276Y45365D02*
D03*
X6348Y43576D02*
D03*
Y40914D02*
D03*
Y44476D02*
D03*
X12276Y43565D02*
D03*
X6348Y45376D02*
D03*
Y40014D02*
D03*
X11387Y33647D02*
D03*
X12251Y40002D02*
D03*
X6348Y41814D02*
D03*
X44087Y30462D02*
D03*
X43063Y27050D02*
D03*
X45909Y29117D02*
D03*
X29631Y62047D02*
D03*
X29642Y62800D02*
D03*
X108125Y52475D02*
D03*
X109950Y35925D02*
D03*
X108275D02*
D03*
X106525Y35900D02*
D03*
X98950Y34375D02*
D03*
X104675D02*
D03*
X102775D02*
D03*
X100900D02*
D03*
X84406Y54265D02*
D03*
X81406D02*
D03*
X82774D02*
D03*
X75500Y62900D02*
D03*
X73575Y57875D02*
D03*
X73884Y55227D02*
D03*
X56293Y30993D02*
D03*
X825Y51000D02*
D03*
Y48500D02*
D03*
Y46000D02*
D03*
Y43500D02*
D03*
Y41000D02*
D03*
Y38500D02*
D03*
Y63500D02*
D03*
Y61000D02*
D03*
Y58500D02*
D03*
Y56000D02*
D03*
Y53500D02*
D03*
X68836Y830D02*
D03*
X56336D02*
D03*
X58836D02*
D03*
X61336D02*
D03*
X63836D02*
D03*
X66336D02*
D03*
X51631Y33875D02*
D03*
X49475Y33855D02*
D03*
X48806D02*
D03*
X77675Y57800D02*
D03*
X81600Y57950D02*
D03*
X69284Y30569D02*
D03*
X65956Y28400D02*
D03*
X67730Y28759D02*
D03*
X68584Y30569D02*
D03*
X81475Y55405D02*
D03*
X78550Y56630D02*
D03*
X77250D02*
D03*
X76975Y57805D02*
D03*
X75925Y57145D02*
D03*
Y57880D02*
D03*
X78350Y59055D02*
D03*
X77575Y59080D02*
D03*
X79450Y58930D02*
D03*
X78375Y57705D02*
D03*
X75675Y54605D02*
D03*
D94*
X108833Y50358D02*
X109050Y50575D01*
X108132Y50358D02*
X108833D01*
D95*
X83709Y33575D02*
D03*
Y33575D02*
D03*
X83494Y38400D02*
D03*
D96*
X47673Y40623D02*
D03*
Y42523D02*
D03*
X49873Y41573D02*
D03*
D97*
X66255Y36850D02*
D03*
Y36300D02*
D03*
X60351Y41655D02*
D03*
Y41105D02*
D03*
X60160Y43395D02*
D03*
Y43945D02*
D03*
X60915Y41105D02*
D03*
Y41655D02*
D03*
X61476Y41081D02*
D03*
Y41631D02*
D03*
X62038Y41657D02*
D03*
Y41107D02*
D03*
X61350Y43450D02*
D03*
Y44000D02*
D03*
X61900Y43450D02*
D03*
Y44000D02*
D03*
X60800Y43450D02*
D03*
Y44000D02*
D03*
X63162Y41057D02*
D03*
Y41607D02*
D03*
X64083Y41306D02*
D03*
Y41856D02*
D03*
X64706Y41579D02*
D03*
Y41029D02*
D03*
X62600Y40925D02*
D03*
Y41475D02*
D03*
X62592Y39603D02*
D03*
Y39053D02*
D03*
X64607Y39247D02*
D03*
Y38697D02*
D03*
X63714Y39486D02*
D03*
Y40036D02*
D03*
X63154Y39672D02*
D03*
Y39122D02*
D03*
X63200Y43925D02*
D03*
Y43375D02*
D03*
X62650Y43455D02*
D03*
Y44005D02*
D03*
X64850Y44000D02*
D03*
Y43450D02*
D03*
X63750Y43475D02*
D03*
Y44025D02*
D03*
X64915Y44885D02*
D03*
Y45435D02*
D03*
X63400Y45500D02*
D03*
Y44950D02*
D03*
X64300Y43975D02*
D03*
Y43425D02*
D03*
X64305Y45202D02*
D03*
Y45752D02*
D03*
X59805Y39625D02*
D03*
Y39075D02*
D03*
X60355D02*
D03*
Y39625D02*
D03*
X60905Y39148D02*
D03*
Y39698D02*
D03*
X61467Y39074D02*
D03*
Y39624D02*
D03*
X62030Y39133D02*
D03*
Y39683D02*
D03*
X66205Y41350D02*
D03*
Y41900D02*
D03*
X65274Y39198D02*
D03*
Y38648D02*
D03*
X66250Y40600D02*
D03*
Y40050D02*
D03*
X65325Y41600D02*
D03*
Y41050D02*
D03*
X65395Y44000D02*
D03*
Y43450D02*
D03*
X56800Y45550D02*
D03*
Y46100D02*
D03*
X57375Y45550D02*
D03*
Y46100D02*
D03*
X59609Y44406D02*
D03*
Y43856D02*
D03*
X56064Y38198D02*
D03*
Y38748D02*
D03*
X57350Y44875D02*
D03*
Y44325D02*
D03*
X56696Y44880D02*
D03*
Y44330D02*
D03*
X59050Y44300D02*
D03*
Y44850D02*
D03*
D98*
X67000Y29675D02*
D03*
Y31075D02*
D03*
D99*
X78055Y61562D02*
D03*
X80195D02*
D03*
D100*
X58275Y35625D02*
D03*
X58875D02*
D03*
D101*
X59425Y40300D02*
D03*
Y40900D02*
D03*
X66417Y43550D02*
D03*
Y44150D02*
D03*
D102*
X78516Y55665D02*
D03*
M02*
