M48
;Layer_Color=9474304
;FILE_FORMAT=4:3
METRIC,LZ
;TYPE=PLATED
T01F00S00C0.200
T02F00S00C0.250
T03F00S00C0.350
T04F00S00C0.500
%
T01
X0046475Y001655
X011075Y0036957
X011165
X0112483Y004247
X0112475Y004435
Y0046125
X01128Y0048676
X011215Y004868
X0104758Y0052425
X0102833
X01009
X009905Y005245
X0081325Y0056155
Y0056655
X007945Y0056685
X0079425Y0057375
X0077925Y0056755
X0069762Y0048237
X0067784Y004592
X00674Y00453
X00669Y00458
X006635Y0045375
X006539Y004541
X0065378Y0046319
X0064875Y004591
X006385Y0045725
X00639Y0044825
X0063328Y0044412
X0062606Y004448
X0061725Y0044505
X00611Y004449
X0060558Y0044442
X006079Y0044885
X0060375Y004535
X006135
X0061875Y0045825
X0061375Y0046325
X0060375Y0046344
X0059931Y0045892
X005945Y0046325
X0058875Y00459
X0058396Y0046369
X00579Y00458
X0057862Y0044875
X0058375Y0044325
X005885Y00438
X0059325Y00434
X005929Y0042375
X0058875Y004274
X00584Y0042275
X005828Y0041421
X005779Y0041825
Y004085
Y0039875
Y003885
X0058325Y0039355
X0059345
X0058925Y0038775
X0059475Y0038325
X0060025Y00386
X0059989Y0037735
X0059469Y0037256
X0058875Y0036825
X0058939Y003777
X0058375Y003735
X0058349Y0038315
X0057825Y00378
X0057872Y003674
X0060841Y0036854
X006095Y00378
X00606Y0038175
X0061125Y0038675
X006203
X0061625Y003816
X0062875Y003776
X0063385Y0037265
X00639Y0036775
X0064375Y003624
X0063375
X0062875Y003674
X0062375Y003724
Y003624
X0061875Y003674
X00613Y003624
X0060973Y0033601
X0060956Y0032765
X006096Y003221
X0060408Y0032204
X0060375Y003075
X0060389Y0030112
X0058962
X0057271Y0030195
Y0030982
X0057275Y00318
X0056956Y003251
X0055875Y0034825
X0055146Y0034494
X0058816Y0034213
X0059781Y0031175
X006096
X0065999Y0030944
X0066003Y0031546
X00655Y0030275
X0066003Y002972
X0065956Y0028986
X00673Y0033588
X0067375Y0036325
X006778Y003673
X00669Y0036925
X006646Y0037325
X0066779Y0037729
X0065969Y0037735
X006597Y003826
X006575Y0039
X0066469Y003923
X006678Y0038729
X0067471Y0038421
X0067964Y003892
X0067899Y0039831
X0067474Y0040349
X00674Y0039375
X0066925Y0039785
X006678Y0040921
X0067382Y0041326
X0067405Y0042293
X006689Y0041832
X006645Y00424
X006678Y004292
X0067343Y0043364
X006695Y004385
X006735Y004431
X0066875Y0044825
X006795
Y0043845
X006797Y0042725
X006795Y00418
X00657Y0042075
X006575Y0043
X006587Y004391
X0065735Y0044426
X006455Y0044448
X0064625Y0042983
X006504Y0042572
X0064625Y0042075
X0063625
X0064017Y0042572
X0063625Y0042983
X006321Y0042575
X006272Y004298
X006265Y0041975
X0062072Y0042497
X0061625Y00421
X0061625Y0042983
X006104Y0042575
X006021Y0042575
X0060531Y004299
X0060625Y00421
X005985Y004165
X005941Y004141
X0058875Y004175
X0058858Y004091
X0058875Y003991
X0060525Y00401
X0060198Y0040638
X0061092
X006215Y0040625
X00631Y0040575
X00627Y0040075
X0061625Y0040089
X0063075Y003865
X0063747Y0038971
X0064125Y0038629
X00639Y0037925
X0064375Y003735
X00648Y003775
X0064876Y0038245
X0064875Y0036829
X006578Y003673
X0065375Y003624
X006515Y003965
X006553Y004017
X006505Y004055
X0064625Y0040143
X0064125Y0040575
X0063625Y00411
X0064198Y0039575
X0065806Y0040972
X006795Y0037825
X0068976Y0036326
X0069768Y0034197
X006645Y0046425
X0063375Y004625
X0062875Y0045725
X0062375Y00453
X00624Y0046325
X0061125Y0048775
X005824Y0049865
X0055875Y0047825
X0059342Y0045383
X0058348Y00433
X0057966Y004292
X0057782Y0043812
X0055458Y004007
X005555Y0038085
X0054932Y0038744
X0054436Y0040077
X0053389Y004117
X0052675Y0041475
X0052175
X0052031Y00428
X0050485Y0044466
X0049889Y0039866
X0049358
X0049475Y0038554
X005005
X0048805Y0038061
X0048158Y00395
X00458Y0038125
X00453
X00448
X00444Y003712
X00439
X0043902Y0036305
X0042415Y0036154
X0043902Y0034655
X00439Y0033
X0042551Y0031633
X0048075Y003155
X0051Y0031586
X005005Y0035897
X0049325Y0035825
X0046875Y0036825
X0046325
X0045825
X004443Y0041
X00431Y00414
X0041904Y00419
Y0042401
X0040104
Y00419
X0038304
Y0042401
X003642Y0042375
Y0042875
X0034575Y004185
X0034075
X0032772Y00421
X0032815Y0041397
X0032235Y003953
Y003857
X003259Y003749
X003096Y003738
X0030985Y003642
X0030285Y003468
X003185Y003484
X00332Y003593
X0034025Y003599
X0035245Y003646
X0034635Y003755
X002987Y0038377
X0029568Y0038952
X0028785Y003727
X00283Y003646
X002824Y003558
Y003468
X00276Y003464
X00268Y0033125
X0026165Y003555
X00255Y003561
X0026165Y003651
X002611Y0037175
X0024725Y003676
X0024722Y003461
X0025335Y0038737
X0027565Y003811
X002685Y004215
X0027675Y0042975
X002685Y00438
X00285
X003015
Y004545
X0029325Y0044625
X00285Y004545
X002685
X0027675Y0044625
X00285Y004215
X003015
X0029325Y0042975
X003328Y0043875
X0033625Y004735
X0034125
X0034175Y0049
X0033675
X0031575Y0048773
X003167Y00477
X003217Y004693
X00298Y00484
X0029784Y0049027
X0028225Y0048775
X0027175Y004985
X0026675
X002485Y0049323
Y0048823
X002325Y00488
Y00493
X0023775Y0051123
X0024276
X0022551Y0053623
X002205
X0021251
X002075
X0019951
X001945
X001885Y004829
X0020385Y0046575
Y004575
X002145Y0047348
X0024675Y0046975
X0025325
X0023008Y0044625
X00214Y0043525
Y0043025
X0021924Y0041202
X0022425
X0020325Y004125
Y004075
X0019526Y0040798
X0019025
X0018524
X0017726
X0017225
X0016724
X0015926
X0020325Y00399
Y00394
X002341Y0039977
X0024188Y0042562
X0017395Y004479
X0023824Y0055425
X0024325
X0024826
X0025674
X0026175
X0026676
X0027524
X0028025
X0028526
X0027875Y0058675
X0021675Y0060437
X00291Y0051225
X0029763
X003115Y0051033
X0036075Y0048475
Y0047975
X003605Y0046825
Y0046325
X003715Y0048575
X003765
X003845
X003895
X003975
X004025
X004105
X004155
X0043751Y005058
X0040025Y0054575
X0039525
X003875
X003825
X0037475
X0036975
X00362
X00357
X0054694Y00476
X005285Y0038475
X0052841Y0036352
X0053025Y0035875
X005345Y0036225
X0054175
X0055077Y0036225
X0055049Y0030165
X0015425Y0040798
X0014924
X0014126
X0013625
X0013124
X001385Y00422
Y00427
Y00435
Y0044
Y00448
Y00453
T02
X0097632Y003905
X0098082Y00386
X0098432Y0039324
X0098882Y00389
X0099382Y003855
X0099332Y00394
X0100132Y0039275
X0100507Y0038725
X0101132Y00388
X0101732Y003855
X0102332Y0038775
X0101732Y00402
X0101732Y0041795
X0100932Y0041795
Y0041
X0100132Y0041
X0097682Y0040925
X0096982Y004065
X0097707Y004585
X0097982Y0046962
X0097382
X00985Y0046631
X0098882Y0047094
X0099332Y00458
X0100132Y004582
X0100932
Y004502
X0100132
X0101733Y0045
X0101732Y00458
X0102534Y004582
X0102532Y004502
Y004422
X0103332
X0104132
X0103332Y004502
X0103182Y00467
X0103992Y0046992
X0104792Y0047037
X0105704Y0047005
X0106582Y00468
X0107382
X0108182
X0108982
X0109807Y0046775
X0108132Y0045
X010891Y00442
X0107332Y0041
X0107332Y0039425
X0108732Y0039275
X0109332
X0110677Y0040875
X0106532Y00402
X0105732
X0104933Y0040202
X0104132Y00402
X0103332Y0041005
Y0041795
X0105333Y004195
X010113Y0046724
X0100333Y0046689
X0093332Y004055
X0092532Y004055
X0091729
X0090932
X0090133Y0040575
X0089333Y004065
X0088307Y0040715
X0086907Y00404
X0086857Y0039595
X0087657
X0086857Y0038795
X0086057Y0038795
Y0039595
X0085257
X0084457
X0083657
Y0038795
X0084459
X0085257Y0038795
X0085682Y0037827
X0086457
X0087182
X0087457Y003575
X0086857Y0035575
Y0034775
X0085257Y0035575
X0084457Y0035577
X0084457Y003479
X0083657Y0034775
Y003305
X0084032Y00325
X0084657Y0032575
X0085357Y0032325
X0086357Y003255
X0088057Y0033025
X0088857
X0089657
X0091982Y0032975
X0092582Y0033075
X0094157Y0034625
X0090857Y0034775
X0088732Y0035725
X0090857Y0037995
X0092432Y003795
X0093032Y003785
X0084883Y0040525
X0083849Y00405
X0082057Y0040375
X0082332Y0040925
X0081507
X0080907Y0040894
X0081232Y0039625
X0082857Y0039575
Y0033195
X0082858Y0032275
X0082407Y0032675
X0081957Y0033099
X0081157Y0032825
X0081566Y0032386
X0081213Y00347
X0080508Y003442
X0078032Y0032048
X0077432
X0085237Y0033975
T03
X0000825Y0001625
Y0003225
Y0004775
Y00065
Y0008475
Y0010975
Y0013475
Y0015975
Y0018475
Y0020975
Y0023475
X0002175Y000083
X00046
X000705
X0009875
X00129
X0015825
X0018386
X0020886
X0023386
X0025886
X0028386
X0030886
X0033711
X0036211
X0038711
X0041211
X0043711
X0046211
X0048361
X0050861
X0053361
X005135Y0021475
X00538Y0023875
X0056336Y000083
X0058836
X0061336
X0063836
X0066336
X0068836
X0071661
X0074161
X0076661
X0079161
X0081661
X0084161
X0086311
X0088811
X0091311
X0093811
X0096311
X0098811
X0101286Y0000805
X0104
X01073Y000083
X0109425
X0111725
X0113975
X0116325
X0118625
Y000285
Y000535
Y000785
Y001035
Y001285
Y001535
Y001785
Y002035
Y002285
Y002535
Y002785
Y003035
Y003285
Y003535
Y003785
Y004035
Y004285
Y004535
Y004785
Y005035
Y005285
Y005535
Y005785
Y006035
Y006285
X0108125Y0052475
X010905Y0050575
X0108275Y0035925
X010995
X0106525Y00359
X0104675Y0034375
X0102775
X01009
X009895
X0069284Y0030569
X0068584
X006773Y0028759
X0065956Y00284
X0056293Y0030993
X0068777Y0054958
X0073884Y0055227
X0075675Y0054605
X0075925Y0057145
Y005788
X0076975Y0057805
X0077675Y00578
X0078375Y0057705
X007855Y005663
X007725
X0077575Y005908
X007835Y0059055
X007945Y005893
X00816Y005795
X0081475Y0055405
X0081406Y0054265
X0082774
X0084406
X0073575Y0057875
X00755Y00629
X0054175Y00635
X0054195Y0060275
X005045
Y0063575
X0042535Y0051865
X0042656Y0045374
Y0044699
Y0044024
X0043326Y0044054
Y0044729
Y0045404
X0041473Y0044713
X0040798
X0040123
Y0044038
X0040798
X0041473
X0045533Y0044683
X0047189Y0044713
X0045995Y0047305
X0047625Y00363
X0047125Y0034425
X0047112Y0033546
X00482Y003442
X0048806Y0033855
X0049475
X0050389Y0033869
X0051631Y0033875
X0053329Y0032955
X0049725Y00316
X0046975Y00305
X0047672Y0029202
X0045909Y0029117
X0044087Y0030462
X0043063Y002705
X0053467Y002655
X0042252Y003756
X0041577
Y0038285
X0042252
X00378Y0038525
X003535Y0034945
X0023575Y00346
X00225
X002149
X0019702Y0045473
X00197Y0046198
X0016298Y0046165
X0015623
Y004689
X0016298
X0018175Y0050173
X001885
Y0050848
Y0051523
X0018175
Y0050848
X00291Y005295
X002978
X0032365Y005843
X0029631Y0062047
X0029642Y00628
X0000825Y00635
Y0061
Y00585
Y0056
Y00535
Y0051
Y00485
Y0046
Y00435
Y0041
Y00385
Y0035975
Y0033475
Y0030975
Y0028475
Y0025975
X00068Y0027975
X0011387Y0033647
X0013187Y0036823
Y0037498
X0013912
Y0036823
X0014637
Y0037498
X0012251Y0040002
Y0040902
Y0041802
X0012276Y0043565
Y0044465
Y0045365
X0006348Y0045376
Y0044476
Y0043576
Y0041814
Y0040914
Y0040014
X0000825Y0066
Y00685
Y0070575
Y00735
Y00755
Y0077825
X00036Y007875
X000635Y0078775
X000885
X0011436
X0013936
X0016436
X0018936
X0021436
X0023936
X0026761
X0029261
X0031761
X0034261
X0036761
X0039261
X0041411
X0043911
X0046411
X0049425
X0051925
X0054511
X0042575Y0065995
X0057011Y0078775
X0059511
X0062011
X0064511
X0067011
X0069836
X0072336
X0074836
X0077336
X0079836
X0082336
X0084486
X0086986
X0089486
X00925
X0095
X0097586
X0100086
X0102586
X0105086
X0107586
X0110086
X0112911
X0115411
X0118625Y007785
Y007535
Y007285
Y007035
Y006785
Y006535
T04
X0047175Y0046475
X0048425
M30
