G04*
G04 #@! TF.GenerationSoftware,Altium Limited,Altium Designer,24.0.1 (36)*
G04*
G04 Layer_Physical_Order=2*
G04 Layer_Color=36540*
%FSLAX43Y43*%
%MOMM*%
G71*
G04*
G04 #@! TF.SameCoordinates,D2B2AA1F-A82D-4DD2-BA18-01BE398CF795*
G04*
G04*
G04 #@! TF.FilePolarity,Positive*
G04*
G01*
G75*
%ADD17C,0.500*%
%ADD46C,0.400*%
%ADD92O,1.000X1.300*%
%ADD93C,0.550*%
G36*
X119490Y510D02*
X1000D01*
X1000Y510D01*
X1000Y510D01*
X952Y510D01*
X857Y529D01*
X768Y566D01*
X688Y619D01*
X619Y687D01*
X566Y768D01*
X529Y857D01*
X510Y952D01*
Y1000D01*
X510Y78600D01*
Y78648D01*
X529Y78743D01*
X566Y78832D01*
X619Y78912D01*
X688Y78981D01*
X768Y79034D01*
X857Y79071D01*
X952Y79090D01*
X1000Y79090D01*
X119490D01*
Y510D01*
D02*
G37*
%LPC*%
G36*
X29642Y63182D02*
X29495Y63153D01*
X29371Y63070D01*
X29288Y62946D01*
X29259Y62800D01*
X29288Y62654D01*
X29371Y62530D01*
X29449Y62478D01*
X29444Y62373D01*
X29361Y62317D01*
X29278Y62193D01*
X29249Y62047D01*
X29278Y61901D01*
X29361Y61776D01*
X29485Y61694D01*
X29631Y61664D01*
X29778Y61694D01*
X29902Y61776D01*
X29985Y61901D01*
X30014Y62047D01*
X29985Y62193D01*
X29902Y62317D01*
X29824Y62369D01*
X29829Y62474D01*
X29912Y62530D01*
X29995Y62654D01*
X30024Y62800D01*
X29995Y62946D01*
X29912Y63070D01*
X29788Y63153D01*
X29642Y63182D01*
D02*
G37*
G36*
X78350Y59437D02*
X78204Y59408D01*
X78080Y59325D01*
X77997Y59201D01*
X77968Y59055D01*
X77997Y58909D01*
X78080Y58785D01*
X78204Y58702D01*
X78350Y58673D01*
X78496Y58702D01*
X78620Y58785D01*
X78703Y58909D01*
X78732Y59055D01*
X78703Y59201D01*
X78620Y59325D01*
X78496Y59408D01*
X78350Y59437D01*
D02*
G37*
G36*
X32365Y58812D02*
X32219Y58783D01*
X32095Y58700D01*
X32012Y58576D01*
X31983Y58430D01*
X32012Y58284D01*
X32095Y58160D01*
X32219Y58077D01*
X32365Y58048D01*
X32511Y58077D01*
X32635Y58160D01*
X32718Y58284D01*
X32747Y58430D01*
X32718Y58576D01*
X32635Y58700D01*
X32511Y58783D01*
X32365Y58812D01*
D02*
G37*
G36*
X75925Y58262D02*
X75779Y58233D01*
X75655Y58150D01*
X75572Y58026D01*
X75543Y57880D01*
X75572Y57734D01*
X75655Y57610D01*
X75779Y57527D01*
X75925Y57498D01*
X76071Y57527D01*
X76195Y57610D01*
X76278Y57734D01*
X76307Y57880D01*
X76278Y58026D01*
X76195Y58150D01*
X76071Y58233D01*
X75925Y58262D01*
D02*
G37*
G36*
X76975Y58187D02*
X76829Y58158D01*
X76705Y58075D01*
X76622Y57951D01*
X76593Y57805D01*
X76622Y57659D01*
X76705Y57535D01*
X76829Y57452D01*
X76975Y57423D01*
X77121Y57452D01*
X77245Y57535D01*
X77328Y57659D01*
X77357Y57805D01*
X77328Y57951D01*
X77245Y58075D01*
X77121Y58158D01*
X76975Y58187D01*
D02*
G37*
G36*
X78375Y58087D02*
X78229Y58058D01*
X78105Y57975D01*
X78022Y57851D01*
X77993Y57705D01*
X78022Y57559D01*
X78105Y57435D01*
X78229Y57352D01*
X78375Y57323D01*
X78521Y57352D01*
X78645Y57435D01*
X78728Y57559D01*
X78757Y57705D01*
X78728Y57851D01*
X78645Y57975D01*
X78521Y58058D01*
X78375Y58087D01*
D02*
G37*
G36*
X77925Y57061D02*
X77808Y57038D01*
X77709Y56971D01*
X77642Y56872D01*
X77619Y56755D01*
X77642Y56638D01*
X77709Y56539D01*
X77808Y56472D01*
X77925Y56449D01*
X78042Y56472D01*
X78141Y56539D01*
X78208Y56638D01*
X78231Y56755D01*
X78208Y56872D01*
X78141Y56971D01*
X78042Y57038D01*
X77925Y57061D01*
D02*
G37*
G36*
X79425Y57681D02*
X79308Y57658D01*
X79209Y57591D01*
X79142Y57492D01*
X79119Y57375D01*
X79142Y57258D01*
X79209Y57159D01*
X79308Y57092D01*
X79381Y57078D01*
X79404Y57073D01*
Y56982D01*
X79385Y56978D01*
X79333Y56968D01*
X79234Y56901D01*
X79167Y56802D01*
X79144Y56685D01*
X79167Y56568D01*
X79234Y56469D01*
X79333Y56402D01*
X79450Y56379D01*
X79567Y56402D01*
X79666Y56469D01*
X79733Y56568D01*
X79756Y56685D01*
X79733Y56802D01*
X79666Y56901D01*
X79567Y56968D01*
X79494Y56982D01*
X79471Y56987D01*
Y57078D01*
X79490Y57082D01*
X79542Y57092D01*
X79641Y57159D01*
X79708Y57258D01*
X79731Y57375D01*
X79708Y57492D01*
X79641Y57591D01*
X79542Y57658D01*
X79425Y57681D01*
D02*
G37*
G36*
X81325Y56461D02*
X81208Y56438D01*
X81109Y56371D01*
X81042Y56272D01*
X81019Y56155D01*
X81042Y56038D01*
X81109Y55939D01*
X81208Y55872D01*
X81325Y55849D01*
X81442Y55872D01*
X81541Y55939D01*
X81608Y56038D01*
X81631Y56155D01*
X81608Y56272D01*
X81541Y56371D01*
X81442Y56438D01*
X81325Y56461D01*
D02*
G37*
G36*
X73884Y55609D02*
X73738Y55580D01*
X73614Y55497D01*
X73531Y55373D01*
X73502Y55227D01*
X73531Y55081D01*
X73614Y54957D01*
X73738Y54874D01*
X73884Y54845D01*
X74031Y54874D01*
X74155Y54957D01*
X74238Y55081D01*
X74267Y55227D01*
X74238Y55373D01*
X74155Y55497D01*
X74031Y55580D01*
X73884Y55609D01*
D02*
G37*
G36*
X68777Y55340D02*
X68631Y55311D01*
X68507Y55228D01*
X68424Y55104D01*
X68395Y54958D01*
X68424Y54811D01*
X68507Y54687D01*
X68631Y54604D01*
X68777Y54575D01*
X68924Y54604D01*
X69048Y54687D01*
X69131Y54811D01*
X69160Y54958D01*
X69131Y55104D01*
X69048Y55228D01*
X68924Y55311D01*
X68777Y55340D01*
D02*
G37*
G36*
X75675Y54987D02*
X75529Y54958D01*
X75405Y54875D01*
X75322Y54751D01*
X75293Y54605D01*
X75322Y54459D01*
X75405Y54335D01*
X75529Y54252D01*
X75675Y54223D01*
X75821Y54252D01*
X75945Y54335D01*
X76028Y54459D01*
X76057Y54605D01*
X76028Y54751D01*
X75945Y54875D01*
X75821Y54958D01*
X75675Y54987D01*
D02*
G37*
G36*
X29780Y53332D02*
X29634Y53303D01*
X29510Y53220D01*
X29485Y53183D01*
X29395D01*
X29370Y53220D01*
X29246Y53303D01*
X29100Y53332D01*
X28954Y53303D01*
X28830Y53220D01*
X28747Y53096D01*
X28718Y52950D01*
X28747Y52804D01*
X28830Y52680D01*
X28954Y52597D01*
X29100Y52568D01*
X29246Y52597D01*
X29370Y52680D01*
X29395Y52717D01*
X29485D01*
X29510Y52680D01*
X29634Y52597D01*
X29780Y52568D01*
X29926Y52597D01*
X30050Y52680D01*
X30133Y52804D01*
X30162Y52950D01*
X30133Y53096D01*
X30050Y53220D01*
X29926Y53303D01*
X29780Y53332D01*
D02*
G37*
G36*
X18850Y51905D02*
X18704Y51876D01*
X18580Y51793D01*
X18558Y51760D01*
X18468D01*
X18445Y51793D01*
X18321Y51876D01*
X18175Y51905D01*
X18029Y51876D01*
X17905Y51793D01*
X17822Y51669D01*
X17793Y51523D01*
X17822Y51377D01*
X17905Y51253D01*
X17938Y51230D01*
Y51140D01*
X17905Y51118D01*
X17822Y50994D01*
X17793Y50848D01*
X17822Y50702D01*
X17905Y50578D01*
X17938Y50555D01*
Y50465D01*
X17905Y50443D01*
X17822Y50319D01*
X17793Y50173D01*
X17822Y50027D01*
X17905Y49903D01*
X18029Y49820D01*
X18175Y49791D01*
X18321Y49820D01*
X18445Y49903D01*
X18468Y49936D01*
X18558D01*
X18580Y49903D01*
X18704Y49820D01*
X18850Y49791D01*
X18996Y49820D01*
X19120Y49903D01*
X19203Y50027D01*
X19232Y50173D01*
X19203Y50319D01*
X19120Y50443D01*
X19087Y50465D01*
Y50555D01*
X19120Y50578D01*
X19203Y50702D01*
X19232Y50848D01*
X19203Y50994D01*
X19120Y51118D01*
X19087Y51140D01*
Y51230D01*
X19120Y51253D01*
X19203Y51377D01*
X19232Y51523D01*
X19203Y51669D01*
X19120Y51793D01*
X18996Y51876D01*
X18850Y51905D01*
D02*
G37*
G36*
X29763Y51582D02*
X29626Y51555D01*
X29510Y51477D01*
X29485Y51440D01*
X29377D01*
X29352Y51477D01*
X29237Y51555D01*
X29100Y51582D01*
X28963Y51555D01*
X28848Y51477D01*
X28770Y51362D01*
X28743Y51225D01*
X28770Y51088D01*
X28848Y50973D01*
X28963Y50895D01*
X29100Y50868D01*
X29237Y50895D01*
X29352Y50973D01*
X29377Y51010D01*
X29485D01*
X29510Y50973D01*
X29626Y50895D01*
X29763Y50868D01*
X29899Y50895D01*
X30015Y50973D01*
X30092Y51088D01*
X30119Y51225D01*
X30092Y51362D01*
X30015Y51477D01*
X29899Y51555D01*
X29763Y51582D01*
D02*
G37*
G36*
X31150Y51390D02*
X31013Y51363D01*
X30898Y51285D01*
X30820Y51169D01*
X30793Y51033D01*
X30820Y50896D01*
X30898Y50781D01*
X31013Y50703D01*
X31150Y50676D01*
X31287Y50703D01*
X31402Y50781D01*
X31480Y50896D01*
X31507Y51033D01*
X31480Y51169D01*
X31402Y51285D01*
X31287Y51363D01*
X31150Y51390D01*
D02*
G37*
G36*
X43751Y50886D02*
X43634Y50863D01*
X43535Y50797D01*
X43469Y50697D01*
X43445Y50580D01*
X43469Y50463D01*
X43535Y50364D01*
X43634Y50298D01*
X43751Y50275D01*
X43868Y50298D01*
X43967Y50364D01*
X44034Y50463D01*
X44057Y50580D01*
X44034Y50697D01*
X43967Y50797D01*
X43868Y50863D01*
X43751Y50886D01*
D02*
G37*
G36*
X109050Y50957D02*
X108904Y50928D01*
X108780Y50845D01*
X108697Y50721D01*
X108668Y50575D01*
X108697Y50429D01*
X108780Y50305D01*
X108904Y50222D01*
X109050Y50193D01*
X109196Y50222D01*
X109320Y50305D01*
X109403Y50429D01*
X109432Y50575D01*
X109403Y50721D01*
X109320Y50845D01*
X109196Y50928D01*
X109050Y50957D01*
D02*
G37*
G36*
X27175Y50207D02*
X27038Y50180D01*
X26925Y50104D01*
X26812Y50180D01*
X26675Y50207D01*
X26538Y50180D01*
X26423Y50102D01*
X26345Y49987D01*
X26318Y49850D01*
X26345Y49713D01*
X26423Y49598D01*
X26538Y49520D01*
X26675Y49493D01*
X26812Y49520D01*
X26925Y49596D01*
X27038Y49520D01*
X27175Y49493D01*
X27312Y49520D01*
X27427Y49598D01*
X27505Y49713D01*
X27532Y49850D01*
X27505Y49987D01*
X27427Y50102D01*
X27312Y50180D01*
X27175Y50207D01*
D02*
G37*
G36*
X34175Y49357D02*
X34038Y49330D01*
X33925Y49254D01*
X33812Y49330D01*
X33675Y49357D01*
X33538Y49330D01*
X33423Y49252D01*
X33345Y49137D01*
X33318Y49000D01*
X33345Y48863D01*
X33423Y48748D01*
X33538Y48670D01*
X33675Y48643D01*
X33812Y48670D01*
X33925Y48746D01*
X34038Y48670D01*
X34175Y48643D01*
X34312Y48670D01*
X34427Y48748D01*
X34505Y48863D01*
X34532Y49000D01*
X34505Y49137D01*
X34427Y49252D01*
X34312Y49330D01*
X34175Y49357D01*
D02*
G37*
G36*
X23250Y49657D02*
X23113Y49630D01*
X22998Y49552D01*
X22920Y49437D01*
X22893Y49300D01*
X22920Y49163D01*
X22996Y49050D01*
X22920Y48937D01*
X22893Y48800D01*
X22920Y48663D01*
X22998Y48548D01*
X23113Y48470D01*
X23250Y48443D01*
X23387Y48470D01*
X23502Y48548D01*
X23580Y48663D01*
X23607Y48800D01*
X23580Y48937D01*
X23504Y49050D01*
X23580Y49163D01*
X23607Y49300D01*
X23580Y49437D01*
X23502Y49552D01*
X23387Y49630D01*
X23250Y49657D01*
D02*
G37*
G36*
X31575Y49130D02*
X31438Y49103D01*
X31323Y49025D01*
X31245Y48910D01*
X31218Y48773D01*
X31245Y48636D01*
X31323Y48521D01*
X31438Y48443D01*
X31575Y48416D01*
X31712Y48443D01*
X31827Y48521D01*
X31905Y48636D01*
X31932Y48773D01*
X31905Y48910D01*
X31827Y49025D01*
X31712Y49103D01*
X31575Y49130D01*
D02*
G37*
G36*
X112150Y48986D02*
X112033Y48963D01*
X111934Y48896D01*
X111867Y48797D01*
X111844Y48680D01*
X111867Y48563D01*
X111934Y48464D01*
X112033Y48397D01*
X112150Y48374D01*
X112267Y48397D01*
X112366Y48464D01*
X112433Y48563D01*
X112456Y48680D01*
X112433Y48797D01*
X112366Y48896D01*
X112267Y48963D01*
X112150Y48986D01*
D02*
G37*
G36*
X29784Y49384D02*
X29647Y49357D01*
X29532Y49280D01*
X29454Y49164D01*
X29427Y49027D01*
X29454Y48891D01*
X29532Y48775D01*
X29564Y48753D01*
Y48663D01*
X29548Y48652D01*
X29470Y48537D01*
X29443Y48400D01*
X29470Y48263D01*
X29548Y48148D01*
X29663Y48070D01*
X29800Y48043D01*
X29937Y48070D01*
X30052Y48148D01*
X30130Y48263D01*
X30157Y48400D01*
X30130Y48537D01*
X30052Y48652D01*
X30020Y48674D01*
Y48764D01*
X30036Y48775D01*
X30114Y48891D01*
X30141Y49027D01*
X30114Y49164D01*
X30036Y49280D01*
X29920Y49357D01*
X29784Y49384D01*
D02*
G37*
G36*
X18850Y48647D02*
X18713Y48620D01*
X18598Y48542D01*
X18520Y48427D01*
X18493Y48290D01*
X18520Y48153D01*
X18598Y48038D01*
X18713Y47960D01*
X18850Y47933D01*
X18987Y47960D01*
X19102Y48038D01*
X19180Y48153D01*
X19207Y48290D01*
X19180Y48427D01*
X19102Y48542D01*
X18987Y48620D01*
X18850Y48647D01*
D02*
G37*
G36*
X34125Y47707D02*
X33988Y47680D01*
X33875Y47604D01*
X33762Y47680D01*
X33625Y47707D01*
X33488Y47680D01*
X33373Y47602D01*
X33295Y47487D01*
X33268Y47350D01*
X33295Y47213D01*
X33373Y47098D01*
X33488Y47020D01*
X33625Y46993D01*
X33762Y47020D01*
X33875Y47096D01*
X33988Y47020D01*
X34125Y46993D01*
X34262Y47020D01*
X34377Y47098D01*
X34455Y47213D01*
X34482Y47350D01*
X34455Y47487D01*
X34377Y47602D01*
X34262Y47680D01*
X34125Y47707D01*
D02*
G37*
G36*
X31670Y48057D02*
X31533Y48030D01*
X31418Y47952D01*
X31340Y47837D01*
X31313Y47700D01*
X31340Y47563D01*
X31418Y47448D01*
X31533Y47370D01*
X31670Y47343D01*
X31807Y47370D01*
X31922Y47448D01*
X32000Y47563D01*
X32027Y47700D01*
X32000Y47837D01*
X31922Y47952D01*
X31807Y48030D01*
X31670Y48057D01*
D02*
G37*
G36*
X16298Y47272D02*
X16152Y47243D01*
X16028Y47160D01*
X16006Y47127D01*
X15915D01*
X15893Y47160D01*
X15769Y47243D01*
X15623Y47272D01*
X15477Y47243D01*
X15353Y47160D01*
X15270Y47036D01*
X15241Y46890D01*
X15270Y46744D01*
X15353Y46620D01*
X15410Y46582D01*
Y46473D01*
X15353Y46435D01*
X15270Y46311D01*
X15241Y46165D01*
X15270Y46019D01*
X15353Y45895D01*
X15477Y45812D01*
X15623Y45783D01*
X15769Y45812D01*
X15893Y45895D01*
X15915Y45928D01*
X16006D01*
X16028Y45895D01*
X16152Y45812D01*
X16298Y45783D01*
X16444Y45812D01*
X16568Y45895D01*
X16651Y46019D01*
X16680Y46165D01*
X16651Y46311D01*
X16568Y46435D01*
X16511Y46473D01*
Y46582D01*
X16568Y46620D01*
X16651Y46744D01*
X16680Y46890D01*
X16651Y47036D01*
X16568Y47160D01*
X16444Y47243D01*
X16298Y47272D01*
D02*
G37*
G36*
X21450Y47705D02*
X21313Y47678D01*
X21198Y47600D01*
X21120Y47485D01*
X21093Y47348D01*
X21120Y47211D01*
X21198Y47096D01*
X21313Y47018D01*
X21450Y46991D01*
X21587Y47018D01*
X21702Y47096D01*
X21780Y47211D01*
X21807Y47348D01*
X21780Y47485D01*
X21702Y47600D01*
X21587Y47678D01*
X21450Y47705D01*
D02*
G37*
G36*
X105704Y47362D02*
X105567Y47334D01*
X105451Y47257D01*
X105374Y47141D01*
X105347Y47005D01*
X105374Y46868D01*
X105451Y46752D01*
X105567Y46675D01*
X105704Y46648D01*
X105840Y46675D01*
X105956Y46752D01*
X106034Y46868D01*
X106061Y47005D01*
X106034Y47141D01*
X105956Y47257D01*
X105840Y47334D01*
X105704Y47362D01*
D02*
G37*
G36*
X103992Y47349D02*
X103855Y47322D01*
X103739Y47244D01*
X103662Y47129D01*
X103635Y46992D01*
X103662Y46855D01*
X103739Y46740D01*
X103855Y46662D01*
X103992Y46635D01*
X104128Y46662D01*
X104244Y46740D01*
X104321Y46855D01*
X104349Y46992D01*
X104321Y47129D01*
X104244Y47244D01*
X104128Y47322D01*
X103992Y47349D01*
D02*
G37*
G36*
X25325Y47332D02*
X25188Y47305D01*
X25073Y47227D01*
X24995Y47112D01*
X24968Y46975D01*
X24995Y46838D01*
X25073Y46723D01*
X25188Y46645D01*
X25325Y46618D01*
X25462Y46645D01*
X25577Y46723D01*
X25655Y46838D01*
X25682Y46975D01*
X25655Y47112D01*
X25577Y47227D01*
X25462Y47305D01*
X25325Y47332D01*
D02*
G37*
G36*
X97382Y47319D02*
X97245Y47292D01*
X97129Y47214D01*
X97052Y47099D01*
X97025Y46962D01*
X97052Y46825D01*
X97129Y46710D01*
X97245Y46632D01*
X97382Y46605D01*
X97518Y46632D01*
X97634Y46710D01*
X97711Y46825D01*
X97739Y46962D01*
X97711Y47099D01*
X97634Y47214D01*
X97518Y47292D01*
X97382Y47319D01*
D02*
G37*
G36*
X108182Y47157D02*
X108046Y47129D01*
X107930Y47052D01*
X107852Y46936D01*
X107825Y46800D01*
X107852Y46663D01*
X107930Y46547D01*
X108046Y46470D01*
X108182Y46443D01*
X108319Y46470D01*
X108434Y46547D01*
X108512Y46663D01*
X108539Y46800D01*
X108512Y46936D01*
X108434Y47052D01*
X108319Y47129D01*
X108182Y47157D01*
D02*
G37*
G36*
X109807Y47132D02*
X109671Y47104D01*
X109555Y47027D01*
X109477Y46911D01*
X109450Y46775D01*
X109477Y46638D01*
X109555Y46522D01*
X109671Y46445D01*
X109807Y46418D01*
X109944Y46445D01*
X110059Y46522D01*
X110137Y46638D01*
X110164Y46775D01*
X110137Y46911D01*
X110059Y47027D01*
X109944Y47104D01*
X109807Y47132D01*
D02*
G37*
G36*
X100333Y47046D02*
X100196Y47019D01*
X100080Y46942D01*
X100003Y46826D01*
X99976Y46689D01*
X100003Y46553D01*
X100080Y46437D01*
X100196Y46360D01*
X100333Y46332D01*
X100469Y46360D01*
X100585Y46437D01*
X100662Y46553D01*
X100689Y46689D01*
X100662Y46826D01*
X100585Y46942D01*
X100469Y47019D01*
X100333Y47046D01*
D02*
G37*
G36*
X98882Y47451D02*
X98745Y47424D01*
X98629Y47346D01*
X98552Y47230D01*
X98525Y47094D01*
X98530Y47067D01*
X98456Y46980D01*
X98363Y46961D01*
X98247Y46884D01*
X98170Y46768D01*
X98143Y46631D01*
X98170Y46495D01*
X98247Y46379D01*
X98363Y46302D01*
X98500Y46275D01*
X98636Y46302D01*
X98752Y46379D01*
X98829Y46495D01*
X98856Y46631D01*
X98851Y46658D01*
X98925Y46746D01*
X99018Y46764D01*
X99134Y46842D01*
X99211Y46957D01*
X99239Y47094D01*
X99211Y47230D01*
X99134Y47346D01*
X99018Y47424D01*
X98882Y47451D01*
D02*
G37*
G36*
X65378Y46625D02*
X65261Y46602D01*
X65162Y46535D01*
X65095Y46436D01*
X65072Y46319D01*
X65088Y46236D01*
X65009Y46181D01*
X64992Y46193D01*
X64875Y46216D01*
X64758Y46193D01*
X64659Y46126D01*
X64592Y46027D01*
X64569Y45910D01*
X64592Y45793D01*
X64659Y45694D01*
X64758Y45627D01*
X64875Y45604D01*
X64992Y45627D01*
X65091Y45694D01*
X65158Y45793D01*
X65181Y45910D01*
X65164Y45993D01*
X65244Y46048D01*
X65261Y46036D01*
X65378Y46013D01*
X65495Y46036D01*
X65594Y46103D01*
X65660Y46202D01*
X65684Y46319D01*
X65660Y46436D01*
X65594Y46535D01*
X65495Y46602D01*
X65378Y46625D01*
D02*
G37*
G36*
X66450Y46731D02*
X66333Y46708D01*
X66234Y46641D01*
X66167Y46542D01*
X66144Y46425D01*
X66167Y46308D01*
X66234Y46209D01*
X66333Y46142D01*
X66450Y46119D01*
X66567Y46142D01*
X66666Y46209D01*
X66733Y46308D01*
X66756Y46425D01*
X66733Y46542D01*
X66666Y46641D01*
X66567Y46708D01*
X66450Y46731D01*
D02*
G37*
G36*
X60375Y46649D02*
X60258Y46626D01*
X60159Y46560D01*
X60092Y46461D01*
X60069Y46344D01*
X60092Y46226D01*
X60159Y46127D01*
X60258Y46061D01*
X60375Y46038D01*
X60492Y46061D01*
X60591Y46127D01*
X60658Y46226D01*
X60681Y46344D01*
X60658Y46461D01*
X60591Y46560D01*
X60492Y46626D01*
X60375Y46649D01*
D02*
G37*
G36*
X62400Y46631D02*
X62283Y46608D01*
X62184Y46541D01*
X62117Y46442D01*
X62094Y46325D01*
X62117Y46208D01*
X62184Y46109D01*
X62283Y46042D01*
X62400Y46019D01*
X62517Y46042D01*
X62616Y46109D01*
X62683Y46208D01*
X62706Y46325D01*
X62683Y46442D01*
X62616Y46541D01*
X62517Y46608D01*
X62400Y46631D01*
D02*
G37*
G36*
X61375D02*
X61258Y46608D01*
X61159Y46541D01*
X61092Y46442D01*
X61069Y46325D01*
X61092Y46208D01*
X61159Y46109D01*
X61258Y46042D01*
X61375Y46019D01*
X61492Y46042D01*
X61591Y46109D01*
X61658Y46208D01*
X61681Y46325D01*
X61658Y46442D01*
X61591Y46541D01*
X61492Y46608D01*
X61375Y46631D01*
D02*
G37*
G36*
X59450D02*
X59333Y46608D01*
X59234Y46541D01*
X59167Y46442D01*
X59144Y46325D01*
X59167Y46208D01*
X59234Y46109D01*
X59333Y46042D01*
X59450Y46019D01*
X59567Y46042D01*
X59666Y46109D01*
X59733Y46208D01*
X59756Y46325D01*
X59733Y46442D01*
X59666Y46541D01*
X59567Y46608D01*
X59450Y46631D01*
D02*
G37*
G36*
X63375Y46556D02*
X63258Y46533D01*
X63159Y46466D01*
X63092Y46367D01*
X63069Y46250D01*
X63092Y46133D01*
X63159Y46034D01*
X63258Y45967D01*
X63375Y45944D01*
X63492Y45967D01*
X63591Y46034D01*
X63658Y46133D01*
X63681Y46250D01*
X63658Y46367D01*
X63591Y46466D01*
X63492Y46533D01*
X63375Y46556D01*
D02*
G37*
G36*
X100132Y46177D02*
X99995Y46150D01*
X99879Y46072D01*
X99802Y45957D01*
X99775Y45820D01*
X99687Y45806D01*
X99661Y45936D01*
X99584Y46052D01*
X99468Y46129D01*
X99332Y46157D01*
X99195Y46129D01*
X99079Y46052D01*
X99002Y45936D01*
X98975Y45800D01*
X99002Y45663D01*
X99079Y45547D01*
X99195Y45470D01*
X99332Y45443D01*
X99468Y45470D01*
X99584Y45547D01*
X99661Y45663D01*
X99689Y45800D01*
X99776Y45814D01*
X99802Y45683D01*
X99879Y45568D01*
X99995Y45490D01*
X100132Y45463D01*
X100268Y45490D01*
X100384Y45568D01*
X100461Y45683D01*
X100489Y45820D01*
X100461Y45957D01*
X100384Y46072D01*
X100268Y46150D01*
X100132Y46177D01*
D02*
G37*
G36*
X48425Y47237D02*
X48191Y47190D01*
X47992Y47058D01*
X47860Y46859D01*
X47813Y46625D01*
Y46325D01*
X47860Y46091D01*
X47992Y45892D01*
X48191Y45760D01*
X48425Y45713D01*
X48659Y45760D01*
X48858Y45892D01*
X48990Y46091D01*
X49037Y46325D01*
Y46625D01*
X48990Y46859D01*
X48858Y47058D01*
X48659Y47190D01*
X48425Y47237D01*
D02*
G37*
G36*
X43326Y45786D02*
X43180Y45757D01*
X43056Y45674D01*
X43026Y45630D01*
X42936D01*
X42926Y45644D01*
X42802Y45727D01*
X42656Y45756D01*
X42510Y45727D01*
X42386Y45644D01*
X42303Y45520D01*
X42274Y45374D01*
X42303Y45228D01*
X42386Y45104D01*
X42419Y45082D01*
Y44992D01*
X42386Y44969D01*
X42303Y44845D01*
X42274Y44699D01*
X42303Y44553D01*
X42386Y44429D01*
X42419Y44407D01*
Y44317D01*
X42386Y44294D01*
X42303Y44170D01*
X42274Y44024D01*
X42303Y43878D01*
X42386Y43754D01*
X42510Y43671D01*
X42656Y43642D01*
X42802Y43671D01*
X42926Y43754D01*
X42956Y43798D01*
X43046D01*
X43056Y43784D01*
X43180Y43701D01*
X43326Y43672D01*
X43472Y43701D01*
X43596Y43784D01*
X43679Y43908D01*
X43708Y44054D01*
X43679Y44200D01*
X43596Y44324D01*
X43563Y44347D01*
Y44437D01*
X43596Y44459D01*
X43679Y44583D01*
X43708Y44729D01*
X43679Y44875D01*
X43596Y44999D01*
X43563Y45021D01*
Y45111D01*
X43596Y45134D01*
X43679Y45258D01*
X43708Y45404D01*
X43679Y45550D01*
X43596Y45674D01*
X43472Y45757D01*
X43326Y45786D01*
D02*
G37*
G36*
X67784Y46226D02*
X67667Y46203D01*
X67568Y46136D01*
X67502Y46037D01*
X67479Y45920D01*
X67502Y45803D01*
X67568Y45704D01*
X67667Y45637D01*
X67784Y45614D01*
X67901Y45637D01*
X68001Y45704D01*
X68067Y45803D01*
X68090Y45920D01*
X68067Y46037D01*
X68001Y46136D01*
X67901Y46203D01*
X67784Y46226D01*
D02*
G37*
G36*
X66900Y46106D02*
X66783Y46083D01*
X66684Y46016D01*
X66617Y45917D01*
X66594Y45800D01*
X66617Y45683D01*
X66684Y45584D01*
X66783Y45517D01*
X66900Y45494D01*
X67017Y45517D01*
X67116Y45584D01*
X67183Y45683D01*
X67206Y45800D01*
X67183Y45917D01*
X67116Y46016D01*
X67017Y46083D01*
X66900Y46106D01*
D02*
G37*
G36*
X57900D02*
X57783Y46083D01*
X57684Y46016D01*
X57617Y45917D01*
X57594Y45800D01*
X57617Y45683D01*
X57684Y45584D01*
X57783Y45517D01*
X57900Y45494D01*
X58017Y45517D01*
X58116Y45584D01*
X58183Y45683D01*
X58206Y45800D01*
X58183Y45917D01*
X58116Y46016D01*
X58017Y46083D01*
X57900Y46106D01*
D02*
G37*
G36*
X97707Y46207D02*
X97570Y46179D01*
X97454Y46102D01*
X97377Y45986D01*
X97350Y45850D01*
X97377Y45713D01*
X97454Y45597D01*
X97570Y45520D01*
X97707Y45493D01*
X97843Y45520D01*
X97959Y45597D01*
X98036Y45713D01*
X98064Y45850D01*
X98036Y45986D01*
X97959Y46102D01*
X97843Y46179D01*
X97707Y46207D01*
D02*
G37*
G36*
X102534Y46177D02*
X102397Y46150D01*
X102282Y46072D01*
X102204Y45957D01*
X102177Y45820D01*
X102204Y45683D01*
X102282Y45568D01*
X102397Y45490D01*
X102534Y45463D01*
X102671Y45490D01*
X102786Y45568D01*
X102864Y45683D01*
X102891Y45820D01*
X102864Y45957D01*
X102786Y46072D01*
X102671Y46150D01*
X102534Y46177D01*
D02*
G37*
G36*
X100932D02*
X100795Y46150D01*
X100679Y46072D01*
X100602Y45957D01*
X100575Y45820D01*
X100602Y45683D01*
X100679Y45568D01*
X100795Y45490D01*
X100932Y45463D01*
X101068Y45490D01*
X101184Y45568D01*
X101261Y45683D01*
X101287Y45814D01*
X101375Y45800D01*
X101402Y45663D01*
X101479Y45547D01*
X101595Y45470D01*
X101732Y45443D01*
X101868Y45470D01*
X101984Y45547D01*
X102061Y45663D01*
X102089Y45800D01*
X102061Y45936D01*
X101984Y46052D01*
X101868Y46129D01*
X101732Y46157D01*
X101595Y46129D01*
X101479Y46052D01*
X101402Y45936D01*
X101376Y45806D01*
X101289Y45820D01*
X101261Y45957D01*
X101184Y46072D01*
X101068Y46150D01*
X100932Y46177D01*
D02*
G37*
G36*
X65390Y45716D02*
X65273Y45693D01*
X65174Y45626D01*
X65107Y45527D01*
X65084Y45410D01*
X65107Y45293D01*
X65174Y45194D01*
X65273Y45127D01*
X65390Y45104D01*
X65507Y45127D01*
X65606Y45194D01*
X65673Y45293D01*
X65696Y45410D01*
X65673Y45527D01*
X65606Y45626D01*
X65507Y45693D01*
X65390Y45716D01*
D02*
G37*
G36*
X19700Y46580D02*
X19554Y46551D01*
X19430Y46468D01*
X19347Y46344D01*
X19318Y46198D01*
X19347Y46052D01*
X19430Y45928D01*
X19488Y45889D01*
Y45781D01*
X19432Y45743D01*
X19349Y45619D01*
X19320Y45473D01*
X19349Y45327D01*
X19432Y45203D01*
X19556Y45120D01*
X19702Y45091D01*
X19848Y45120D01*
X19972Y45203D01*
X20055Y45327D01*
X20084Y45473D01*
X20055Y45619D01*
X19972Y45743D01*
X19914Y45782D01*
Y45890D01*
X19970Y45928D01*
X20053Y46052D01*
X20082Y46198D01*
X20053Y46344D01*
X19970Y46468D01*
X19846Y46551D01*
X19700Y46580D01*
D02*
G37*
G36*
X58396Y46675D02*
X58279Y46652D01*
X58180Y46585D01*
X58113Y46486D01*
X58090Y46369D01*
X58113Y46252D01*
X58180Y46153D01*
X58279Y46086D01*
X58396Y46063D01*
X58513Y46086D01*
X58545Y46107D01*
X58609Y46043D01*
X58592Y46017D01*
X58569Y45900D01*
X58592Y45783D01*
X58659Y45684D01*
X58758Y45617D01*
X58875Y45594D01*
X58992Y45617D01*
X59074Y45672D01*
X59125Y45599D01*
X59059Y45500D01*
X59036Y45383D01*
X59059Y45266D01*
X59125Y45167D01*
X59225Y45100D01*
X59342Y45077D01*
X59459Y45100D01*
X59558Y45167D01*
X59624Y45266D01*
X59647Y45383D01*
X59624Y45500D01*
X59558Y45599D01*
X59459Y45666D01*
X59342Y45689D01*
X59225Y45666D01*
X59143Y45611D01*
X59091Y45684D01*
X59158Y45783D01*
X59181Y45900D01*
X59158Y46017D01*
X59091Y46116D01*
X58992Y46183D01*
X58875Y46206D01*
X58758Y46183D01*
X58726Y46162D01*
X58662Y46226D01*
X58679Y46252D01*
X58702Y46369D01*
X58679Y46486D01*
X58612Y46585D01*
X58513Y46652D01*
X58396Y46675D01*
D02*
G37*
G36*
X66350Y45681D02*
X66233Y45658D01*
X66134Y45591D01*
X66067Y45492D01*
X66044Y45375D01*
X66067Y45258D01*
X66134Y45159D01*
X66233Y45092D01*
X66350Y45069D01*
X66467Y45092D01*
X66566Y45159D01*
X66633Y45258D01*
X66656Y45375D01*
X66633Y45492D01*
X66566Y45591D01*
X66467Y45658D01*
X66350Y45681D01*
D02*
G37*
G36*
X61350Y45656D02*
X61233Y45633D01*
X61134Y45566D01*
X61067Y45467D01*
X61044Y45350D01*
X61067Y45233D01*
X61134Y45134D01*
X61233Y45067D01*
X61350Y45044D01*
X61467Y45067D01*
X61566Y45134D01*
X61633Y45233D01*
X61656Y45350D01*
X61633Y45467D01*
X61566Y45566D01*
X61467Y45633D01*
X61350Y45656D01*
D02*
G37*
G36*
X102532Y45377D02*
X102395Y45349D01*
X102279Y45272D01*
X102202Y45156D01*
X102175Y45020D01*
X102088Y45008D01*
X102062Y45137D01*
X101985Y45252D01*
X101869Y45330D01*
X101733Y45357D01*
X101596Y45330D01*
X101480Y45252D01*
X101403Y45137D01*
X101377Y45004D01*
X101289Y45020D01*
X101261Y45156D01*
X101184Y45272D01*
X101068Y45349D01*
X100932Y45377D01*
X100795Y45349D01*
X100679Y45272D01*
X100602Y45156D01*
X100575Y45020D01*
X100602Y44883D01*
X100679Y44767D01*
X100795Y44690D01*
X100932Y44663D01*
X101068Y44690D01*
X101184Y44767D01*
X101261Y44883D01*
X101288Y45016D01*
X101376Y45000D01*
X101403Y44863D01*
X101480Y44748D01*
X101596Y44670D01*
X101733Y44643D01*
X101869Y44670D01*
X101985Y44748D01*
X102062Y44863D01*
X102089Y45000D01*
X102177Y45012D01*
X102202Y44883D01*
X102279Y44767D01*
X102395Y44690D01*
X102532Y44663D01*
X102668Y44690D01*
X102784Y44767D01*
X102861Y44883D01*
X102889Y45020D01*
X102861Y45156D01*
X102784Y45272D01*
X102668Y45349D01*
X102532Y45377D01*
D02*
G37*
G36*
X67400Y45606D02*
X67283Y45583D01*
X67184Y45516D01*
X67117Y45417D01*
X67094Y45300D01*
X67117Y45183D01*
X67184Y45084D01*
X67283Y45017D01*
X67400Y44994D01*
X67517Y45017D01*
X67616Y45084D01*
X67683Y45183D01*
X67706Y45300D01*
X67683Y45417D01*
X67616Y45516D01*
X67517Y45583D01*
X67400Y45606D01*
D02*
G37*
G36*
X62375D02*
X62258Y45583D01*
X62159Y45516D01*
X62092Y45417D01*
X62069Y45300D01*
X62092Y45183D01*
X62159Y45084D01*
X62258Y45017D01*
X62375Y44994D01*
X62492Y45017D01*
X62591Y45084D01*
X62658Y45183D01*
X62681Y45300D01*
X62658Y45417D01*
X62591Y45516D01*
X62492Y45583D01*
X62375Y45606D01*
D02*
G37*
G36*
X12276Y45747D02*
X12130Y45718D01*
X12006Y45635D01*
X11923Y45511D01*
X11894Y45365D01*
X11923Y45218D01*
X12006Y45094D01*
X12130Y45011D01*
X12276Y44982D01*
X12422Y45011D01*
X12546Y45094D01*
X12629Y45218D01*
X12658Y45365D01*
X12629Y45511D01*
X12546Y45635D01*
X12422Y45718D01*
X12276Y45747D01*
D02*
G37*
G36*
X41473Y45095D02*
X41327Y45066D01*
X41203Y44983D01*
X41181Y44950D01*
X41090D01*
X41068Y44983D01*
X40944Y45066D01*
X40798Y45095D01*
X40652Y45066D01*
X40528Y44983D01*
X40506Y44950D01*
X40416D01*
X40393Y44983D01*
X40269Y45066D01*
X40123Y45095D01*
X39977Y45066D01*
X39853Y44983D01*
X39770Y44859D01*
X39741Y44713D01*
X39770Y44566D01*
X39853Y44442D01*
X39886Y44420D01*
Y44330D01*
X39853Y44308D01*
X39770Y44184D01*
X39741Y44038D01*
X39770Y43891D01*
X39853Y43767D01*
X39977Y43684D01*
X40123Y43655D01*
X40269Y43684D01*
X40393Y43767D01*
X40416Y43800D01*
X40506D01*
X40528Y43767D01*
X40652Y43684D01*
X40798Y43655D01*
X40944Y43684D01*
X41068Y43767D01*
X41090Y43800D01*
X41181D01*
X41203Y43767D01*
X41327Y43684D01*
X41473Y43655D01*
X41619Y43684D01*
X41743Y43767D01*
X41826Y43891D01*
X41855Y44038D01*
X41826Y44184D01*
X41743Y44308D01*
X41710Y44330D01*
Y44420D01*
X41743Y44442D01*
X41826Y44566D01*
X41855Y44713D01*
X41826Y44859D01*
X41743Y44983D01*
X41619Y45066D01*
X41473Y45095D01*
D02*
G37*
G36*
X103332Y45377D02*
X103196Y45349D01*
X103080Y45272D01*
X103002Y45156D01*
X102975Y45020D01*
X103002Y44883D01*
X103080Y44767D01*
X103196Y44690D01*
X103332Y44663D01*
X103469Y44690D01*
X103584Y44767D01*
X103662Y44883D01*
X103689Y45020D01*
X103662Y45156D01*
X103584Y45272D01*
X103469Y45349D01*
X103332Y45377D01*
D02*
G37*
G36*
X100132Y45377D02*
X99995Y45349D01*
X99879Y45272D01*
X99802Y45156D01*
X99775Y45020D01*
X99802Y44883D01*
X99879Y44767D01*
X99995Y44690D01*
X100132Y44663D01*
X100268Y44690D01*
X100384Y44767D01*
X100461Y44883D01*
X100489Y45020D01*
X100461Y45156D01*
X100384Y45272D01*
X100268Y45349D01*
X100132Y45377D01*
D02*
G37*
G36*
X108132Y45357D02*
X107996Y45329D01*
X107880Y45252D01*
X107802Y45136D01*
X107775Y45000D01*
X107802Y44863D01*
X107880Y44747D01*
X107996Y44670D01*
X108132Y44643D01*
X108269Y44670D01*
X108384Y44747D01*
X108462Y44863D01*
X108489Y45000D01*
X108462Y45136D01*
X108384Y45252D01*
X108269Y45329D01*
X108132Y45357D01*
D02*
G37*
G36*
X60375Y45656D02*
X60258Y45633D01*
X60159Y45566D01*
X60092Y45467D01*
X60069Y45350D01*
X60092Y45233D01*
X60159Y45134D01*
X60258Y45067D01*
X60375Y45044D01*
X60435Y45056D01*
X60459Y45038D01*
X60503Y44978D01*
X60484Y44885D01*
X60507Y44768D01*
X60574Y44669D01*
X60673Y44602D01*
X60790Y44579D01*
X60907Y44602D01*
X61006Y44669D01*
X61073Y44768D01*
X61096Y44885D01*
X61073Y45002D01*
X61006Y45101D01*
X60907Y45168D01*
X60790Y45191D01*
X60730Y45179D01*
X60706Y45197D01*
X60662Y45257D01*
X60681Y45350D01*
X60658Y45467D01*
X60591Y45566D01*
X60492Y45633D01*
X60375Y45656D01*
D02*
G37*
G36*
X67950Y45131D02*
X67833Y45108D01*
X67734Y45041D01*
X67667Y44942D01*
X67644Y44825D01*
X67667Y44708D01*
X67734Y44609D01*
X67833Y44542D01*
X67950Y44519D01*
X68067Y44542D01*
X68166Y44609D01*
X68233Y44708D01*
X68256Y44825D01*
X68233Y44942D01*
X68166Y45041D01*
X68067Y45108D01*
X67950Y45131D01*
D02*
G37*
G36*
X66875D02*
X66758Y45108D01*
X66659Y45041D01*
X66592Y44942D01*
X66569Y44825D01*
X66592Y44708D01*
X66659Y44609D01*
X66758Y44542D01*
X66875Y44519D01*
X66992Y44542D01*
X67091Y44609D01*
X67158Y44708D01*
X67181Y44825D01*
X67158Y44942D01*
X67091Y45041D01*
X66992Y45108D01*
X66875Y45131D01*
D02*
G37*
G36*
X63900Y45131D02*
X63783Y45108D01*
X63684Y45041D01*
X63617Y44942D01*
X63594Y44825D01*
X63617Y44708D01*
X63684Y44609D01*
X63783Y44542D01*
X63900Y44519D01*
X64017Y44542D01*
X64116Y44609D01*
X64183Y44708D01*
X64206Y44825D01*
X64183Y44942D01*
X64116Y45041D01*
X64017Y45108D01*
X63900Y45131D01*
D02*
G37*
G36*
X45533Y45065D02*
X45386Y45036D01*
X45262Y44953D01*
X45180Y44829D01*
X45150Y44683D01*
X45180Y44537D01*
X45262Y44413D01*
X45386Y44330D01*
X45533Y44301D01*
X45679Y44330D01*
X45803Y44413D01*
X45886Y44537D01*
X45915Y44683D01*
X45886Y44829D01*
X45803Y44953D01*
X45679Y45036D01*
X45533Y45065D01*
D02*
G37*
G36*
X67350Y44616D02*
X67233Y44593D01*
X67134Y44526D01*
X67067Y44427D01*
X67044Y44310D01*
X67061Y44226D01*
X67007Y44157D01*
X66992Y44148D01*
X66950Y44156D01*
X66833Y44133D01*
X66734Y44066D01*
X66667Y43967D01*
X66644Y43850D01*
X66667Y43733D01*
X66734Y43634D01*
X66833Y43567D01*
X66950Y43544D01*
X67001Y43554D01*
X67060Y43481D01*
X67037Y43364D01*
X67060Y43247D01*
X67127Y43148D01*
X67226Y43081D01*
X67343Y43058D01*
X67460Y43081D01*
X67559Y43148D01*
X67626Y43247D01*
X67649Y43364D01*
X67626Y43481D01*
X67559Y43580D01*
X67460Y43647D01*
X67343Y43670D01*
X67292Y43660D01*
X67233Y43733D01*
X67256Y43850D01*
X67239Y43934D01*
X67293Y44003D01*
X67308Y44012D01*
X67350Y44004D01*
X67467Y44027D01*
X67566Y44094D01*
X67633Y44193D01*
X67656Y44310D01*
X67633Y44427D01*
X67566Y44526D01*
X67467Y44593D01*
X67350Y44616D01*
D02*
G37*
G36*
X65735Y44732D02*
X65618Y44709D01*
X65518Y44642D01*
X65452Y44543D01*
X65429Y44426D01*
X65452Y44309D01*
X65518Y44210D01*
X65618Y44143D01*
X65735Y44120D01*
X65852Y44143D01*
X65951Y44210D01*
X66017Y44309D01*
X66040Y44426D01*
X66017Y44543D01*
X65951Y44642D01*
X65852Y44709D01*
X65735Y44732D01*
D02*
G37*
G36*
X12276Y44847D02*
X12130Y44818D01*
X12006Y44735D01*
X11923Y44611D01*
X11894Y44465D01*
X11923Y44318D01*
X12006Y44194D01*
X12130Y44111D01*
X12276Y44082D01*
X12422Y44111D01*
X12546Y44194D01*
X12629Y44318D01*
X12658Y44465D01*
X12629Y44611D01*
X12546Y44735D01*
X12422Y44818D01*
X12276Y44847D01*
D02*
G37*
G36*
X58375Y44631D02*
X58258Y44608D01*
X58159Y44541D01*
X58092Y44442D01*
X58069Y44325D01*
X58092Y44208D01*
X58159Y44109D01*
X58258Y44042D01*
X58375Y44019D01*
X58492Y44042D01*
X58591Y44109D01*
X58658Y44208D01*
X58681Y44325D01*
X58658Y44442D01*
X58591Y44541D01*
X58492Y44608D01*
X58375Y44631D01*
D02*
G37*
G36*
X104132Y44577D02*
X103995Y44549D01*
X103879Y44472D01*
X103802Y44356D01*
X103775Y44220D01*
X103802Y44083D01*
X103879Y43967D01*
X103995Y43890D01*
X104132Y43863D01*
X104268Y43890D01*
X104384Y43967D01*
X104461Y44083D01*
X104489Y44220D01*
X104461Y44356D01*
X104384Y44472D01*
X104268Y44549D01*
X104132Y44577D01*
D02*
G37*
G36*
X103332D02*
X103195Y44549D01*
X103079Y44472D01*
X103002Y44356D01*
X102975Y44220D01*
X103002Y44083D01*
X103079Y43967D01*
X103195Y43890D01*
X103332Y43863D01*
X103468Y43890D01*
X103584Y43967D01*
X103661Y44083D01*
X103689Y44220D01*
X103661Y44356D01*
X103584Y44472D01*
X103468Y44549D01*
X103332Y44577D01*
D02*
G37*
G36*
X102532D02*
X102395Y44549D01*
X102279Y44472D01*
X102202Y44356D01*
X102175Y44220D01*
X102202Y44083D01*
X102279Y43967D01*
X102395Y43890D01*
X102532Y43863D01*
X102668Y43890D01*
X102784Y43967D01*
X102861Y44083D01*
X102889Y44220D01*
X102861Y44356D01*
X102784Y44472D01*
X102668Y44549D01*
X102532Y44577D01*
D02*
G37*
G36*
X67950Y44151D02*
X67833Y44128D01*
X67734Y44061D01*
X67667Y43962D01*
X67644Y43845D01*
X67667Y43728D01*
X67734Y43629D01*
X67833Y43562D01*
X67950Y43539D01*
X68067Y43562D01*
X68166Y43629D01*
X68233Y43728D01*
X68256Y43845D01*
X68233Y43962D01*
X68166Y44061D01*
X68067Y44128D01*
X67950Y44151D01*
D02*
G37*
G36*
X57782Y44118D02*
X57665Y44095D01*
X57566Y44029D01*
X57499Y43930D01*
X57476Y43812D01*
X57499Y43695D01*
X57566Y43596D01*
X57665Y43530D01*
X57782Y43507D01*
X57899Y43530D01*
X57998Y43596D01*
X58065Y43695D01*
X58088Y43812D01*
X58065Y43930D01*
X57998Y44029D01*
X57899Y44095D01*
X57782Y44118D01*
D02*
G37*
G36*
X58850Y44106D02*
X58733Y44083D01*
X58634Y44016D01*
X58567Y43917D01*
X58544Y43800D01*
X58567Y43683D01*
X58634Y43584D01*
X58733Y43517D01*
X58850Y43494D01*
X58967Y43517D01*
X59066Y43584D01*
X59133Y43683D01*
X59156Y43800D01*
X59133Y43917D01*
X59066Y44016D01*
X58967Y44083D01*
X58850Y44106D01*
D02*
G37*
G36*
X12276Y43947D02*
X12130Y43918D01*
X12006Y43835D01*
X11923Y43711D01*
X11894Y43565D01*
X11923Y43418D01*
X12006Y43294D01*
X12130Y43211D01*
X12276Y43182D01*
X12422Y43211D01*
X12546Y43294D01*
X12629Y43418D01*
X12658Y43565D01*
X12629Y43711D01*
X12546Y43835D01*
X12422Y43918D01*
X12276Y43947D01*
D02*
G37*
G36*
X58348Y43606D02*
X58231Y43583D01*
X58132Y43516D01*
X58066Y43417D01*
X58042Y43300D01*
X58066Y43183D01*
X58132Y43084D01*
X58231Y43017D01*
X58348Y42994D01*
X58465Y43017D01*
X58564Y43084D01*
X58631Y43183D01*
X58654Y43300D01*
X58631Y43417D01*
X58564Y43516D01*
X58465Y43583D01*
X58348Y43606D01*
D02*
G37*
G36*
X63625Y43289D02*
X63508Y43266D01*
X63409Y43200D01*
X63342Y43100D01*
X63319Y42983D01*
X63326Y42950D01*
X63249Y42873D01*
X63210Y42881D01*
X63093Y42858D01*
X63012Y42912D01*
X63026Y42980D01*
X63003Y43097D01*
X62936Y43196D01*
X62837Y43263D01*
X62720Y43286D01*
X62603Y43263D01*
X62504Y43196D01*
X62437Y43097D01*
X62414Y42980D01*
X62437Y42863D01*
X62504Y42764D01*
X62603Y42697D01*
X62720Y42674D01*
X62837Y42697D01*
X62918Y42643D01*
X62904Y42575D01*
X62927Y42458D01*
X62994Y42359D01*
X63093Y42292D01*
X63210Y42269D01*
X63327Y42292D01*
X63426Y42359D01*
X63493Y42458D01*
X63516Y42575D01*
X63509Y42609D01*
X63586Y42685D01*
X63625Y42678D01*
X63641Y42681D01*
X63718Y42604D01*
X63711Y42572D01*
X63734Y42455D01*
X63801Y42356D01*
X63900Y42289D01*
X64017Y42266D01*
X64134Y42289D01*
X64233Y42356D01*
X64300Y42455D01*
X64323Y42572D01*
X64300Y42689D01*
X64233Y42788D01*
X64134Y42855D01*
X64017Y42878D01*
X64001Y42875D01*
X63924Y42951D01*
X63931Y42983D01*
X63908Y43100D01*
X63841Y43200D01*
X63742Y43266D01*
X63625Y43289D01*
D02*
G37*
G36*
X66780Y43226D02*
X66663Y43203D01*
X66564Y43136D01*
X66497Y43037D01*
X66474Y42920D01*
X66497Y42803D01*
X66509Y42786D01*
X66455Y42705D01*
X66450Y42706D01*
X66333Y42683D01*
X66234Y42616D01*
X66167Y42517D01*
X66144Y42400D01*
X66167Y42283D01*
X66234Y42184D01*
X66333Y42117D01*
X66450Y42094D01*
X66567Y42117D01*
X66666Y42184D01*
X66733Y42283D01*
X66756Y42400D01*
X66733Y42517D01*
X66721Y42534D01*
X66775Y42615D01*
X66780Y42614D01*
X66897Y42637D01*
X66996Y42704D01*
X67063Y42803D01*
X67086Y42920D01*
X67063Y43037D01*
X66996Y43136D01*
X66897Y43203D01*
X66780Y43226D01*
D02*
G37*
G36*
X65750Y43306D02*
X65633Y43283D01*
X65534Y43216D01*
X65467Y43117D01*
X65444Y43000D01*
X65467Y42883D01*
X65534Y42784D01*
X65633Y42717D01*
X65750Y42694D01*
X65867Y42717D01*
X65966Y42784D01*
X66033Y42883D01*
X66056Y43000D01*
X66033Y43117D01*
X65966Y43216D01*
X65867Y43283D01*
X65750Y43306D01*
D02*
G37*
G36*
X21400Y43882D02*
X21263Y43855D01*
X21148Y43777D01*
X21070Y43662D01*
X21043Y43525D01*
X21070Y43388D01*
X21146Y43275D01*
X21070Y43162D01*
X21043Y43025D01*
X21070Y42888D01*
X21148Y42773D01*
X21263Y42695D01*
X21400Y42668D01*
X21537Y42695D01*
X21652Y42773D01*
X21730Y42888D01*
X21757Y43025D01*
X21730Y43162D01*
X21654Y43275D01*
X21730Y43388D01*
X21757Y43525D01*
X21730Y43662D01*
X21652Y43777D01*
X21537Y43855D01*
X21400Y43882D01*
D02*
G37*
G36*
X58875Y43046D02*
X58758Y43023D01*
X58659Y42956D01*
X58592Y42857D01*
X58569Y42740D01*
X58592Y42623D01*
X58601Y42609D01*
X58537Y42545D01*
X58517Y42558D01*
X58400Y42581D01*
X58283Y42558D01*
X58184Y42491D01*
X58117Y42392D01*
X58094Y42275D01*
X58117Y42158D01*
X58184Y42059D01*
X58283Y41992D01*
X58400Y41969D01*
X58517Y41992D01*
X58616Y42059D01*
X58683Y42158D01*
X58706Y42275D01*
X58683Y42392D01*
X58674Y42406D01*
X58738Y42470D01*
X58758Y42457D01*
X58875Y42434D01*
X58905Y42440D01*
X58984Y42375D01*
X58985Y42371D01*
X59007Y42258D01*
X59074Y42159D01*
X59173Y42092D01*
X59290Y42069D01*
X59407Y42092D01*
X59506Y42159D01*
X59573Y42258D01*
X59596Y42375D01*
X59573Y42492D01*
X59506Y42591D01*
X59407Y42658D01*
X59290Y42681D01*
X59260Y42675D01*
X59181Y42740D01*
X59180Y42744D01*
X59158Y42857D01*
X59091Y42956D01*
X58992Y43023D01*
X58875Y43046D01*
D02*
G37*
G36*
X52031Y43106D02*
X51914Y43083D01*
X51815Y43016D01*
X51748Y42917D01*
X51725Y42800D01*
X51748Y42683D01*
X51815Y42584D01*
X51914Y42517D01*
X52031Y42494D01*
X52148Y42517D01*
X52247Y42584D01*
X52314Y42683D01*
X52337Y42800D01*
X52314Y42917D01*
X52247Y43016D01*
X52148Y43083D01*
X52031Y43106D01*
D02*
G37*
G36*
X67970Y43031D02*
X67853Y43008D01*
X67754Y42941D01*
X67687Y42842D01*
X67664Y42725D01*
X67687Y42608D01*
X67754Y42509D01*
X67853Y42442D01*
X67970Y42419D01*
X68087Y42442D01*
X68186Y42509D01*
X68253Y42608D01*
X68276Y42725D01*
X68253Y42842D01*
X68186Y42941D01*
X68087Y43008D01*
X67970Y43031D01*
D02*
G37*
G36*
X61625Y43289D02*
X61508Y43266D01*
X61409Y43200D01*
X61342Y43100D01*
X61319Y42983D01*
X61342Y42866D01*
X61409Y42767D01*
X61508Y42701D01*
X61625Y42678D01*
X61739Y42700D01*
X61750Y42692D01*
X61802Y42632D01*
X61789Y42614D01*
X61766Y42497D01*
X61773Y42462D01*
X61695Y42392D01*
X61625Y42406D01*
X61508Y42383D01*
X61409Y42316D01*
X61342Y42217D01*
X61319Y42100D01*
X61342Y41983D01*
X61409Y41884D01*
X61508Y41817D01*
X61625Y41794D01*
X61742Y41817D01*
X61841Y41884D01*
X61908Y41983D01*
X61931Y42100D01*
X61924Y42135D01*
X62002Y42205D01*
X62072Y42191D01*
X62189Y42214D01*
X62288Y42281D01*
X62354Y42380D01*
X62378Y42497D01*
X62354Y42614D01*
X62288Y42713D01*
X62189Y42779D01*
X62072Y42803D01*
X61958Y42780D01*
X61947Y42788D01*
X61895Y42848D01*
X61908Y42866D01*
X61931Y42983D01*
X61908Y43100D01*
X61841Y43200D01*
X61742Y43266D01*
X61625Y43289D01*
D02*
G37*
G36*
X60531Y43296D02*
X60414Y43273D01*
X60315Y43206D01*
X60248Y43107D01*
X60225Y42990D01*
X60241Y42912D01*
X60210Y42881D01*
X60093Y42858D01*
X59994Y42791D01*
X59927Y42692D01*
X59904Y42575D01*
X59927Y42458D01*
X59994Y42359D01*
X60093Y42292D01*
X60210Y42269D01*
X60278Y42283D01*
X60309Y42251D01*
X60340Y42203D01*
X60319Y42100D01*
X60342Y41983D01*
X60409Y41884D01*
X60508Y41817D01*
X60625Y41794D01*
X60742Y41817D01*
X60841Y41884D01*
X60908Y41983D01*
X60931Y42100D01*
X60910Y42203D01*
X60941Y42251D01*
X60972Y42283D01*
X61040Y42269D01*
X61157Y42292D01*
X61256Y42359D01*
X61323Y42458D01*
X61346Y42575D01*
X61323Y42692D01*
X61256Y42791D01*
X61157Y42858D01*
X61040Y42881D01*
X60923Y42858D01*
X60891Y42836D01*
X60878Y42843D01*
X60818Y42896D01*
X60837Y42990D01*
X60814Y43107D01*
X60747Y43206D01*
X60648Y43273D01*
X60531Y43296D01*
D02*
G37*
G36*
X64625Y43289D02*
X64508Y43266D01*
X64409Y43200D01*
X64342Y43100D01*
X64319Y42983D01*
X64342Y42866D01*
X64409Y42767D01*
X64508Y42701D01*
X64625Y42678D01*
X64665Y42686D01*
X64741Y42609D01*
X64734Y42572D01*
X64757Y42455D01*
X64824Y42356D01*
X64923Y42289D01*
X65040Y42266D01*
X65157Y42289D01*
X65256Y42356D01*
X65323Y42455D01*
X65346Y42572D01*
X65323Y42689D01*
X65256Y42788D01*
X65157Y42855D01*
X65040Y42878D01*
X65000Y42870D01*
X64924Y42947D01*
X64931Y42983D01*
X64908Y43100D01*
X64841Y43200D01*
X64742Y43266D01*
X64625Y43289D01*
D02*
G37*
G36*
X34575Y42207D02*
X34438Y42180D01*
X34325Y42104D01*
X34212Y42180D01*
X34075Y42207D01*
X33938Y42180D01*
X33823Y42102D01*
X33745Y41987D01*
X33718Y41850D01*
X33745Y41713D01*
X33823Y41598D01*
X33938Y41520D01*
X34075Y41493D01*
X34212Y41520D01*
X34325Y41596D01*
X34438Y41520D01*
X34575Y41493D01*
X34712Y41520D01*
X34827Y41598D01*
X34905Y41713D01*
X34932Y41850D01*
X34905Y41987D01*
X34827Y42102D01*
X34712Y42180D01*
X34575Y42207D01*
D02*
G37*
G36*
X67405Y42599D02*
X67288Y42576D01*
X67189Y42510D01*
X67123Y42410D01*
X67099Y42293D01*
X67123Y42176D01*
X67169Y42106D01*
X67107Y42048D01*
X67007Y42115D01*
X66890Y42138D01*
X66773Y42115D01*
X66674Y42048D01*
X66608Y41949D01*
X66584Y41832D01*
X66608Y41715D01*
X66674Y41616D01*
X66773Y41549D01*
X66890Y41526D01*
X67007Y41549D01*
X67107Y41616D01*
X67173Y41715D01*
X67196Y41832D01*
X67173Y41949D01*
X67126Y42019D01*
X67189Y42077D01*
X67288Y42011D01*
X67405Y41987D01*
X67522Y42011D01*
X67622Y42077D01*
X67688Y42176D01*
X67711Y42293D01*
X67688Y42410D01*
X67622Y42510D01*
X67522Y42576D01*
X67405Y42599D01*
D02*
G37*
G36*
X65700Y42381D02*
X65583Y42358D01*
X65484Y42291D01*
X65417Y42192D01*
X65394Y42075D01*
X65417Y41958D01*
X65484Y41859D01*
X65583Y41792D01*
X65700Y41769D01*
X65817Y41792D01*
X65916Y41859D01*
X65983Y41958D01*
X66006Y42075D01*
X65983Y42192D01*
X65916Y42291D01*
X65817Y42358D01*
X65700Y42381D01*
D02*
G37*
G36*
X52675Y41781D02*
X52558Y41758D01*
X52487Y41710D01*
X52425Y41698D01*
X52363Y41710D01*
X52292Y41758D01*
X52175Y41781D01*
X52058Y41758D01*
X51959Y41691D01*
X51892Y41592D01*
X51869Y41475D01*
X51892Y41358D01*
X51959Y41259D01*
X52058Y41192D01*
X52175Y41169D01*
X52292Y41192D01*
X52363Y41240D01*
X52425Y41252D01*
X52487Y41240D01*
X52558Y41192D01*
X52675Y41169D01*
X52792Y41192D01*
X52891Y41259D01*
X52958Y41358D01*
X52981Y41475D01*
X52958Y41592D01*
X52891Y41691D01*
X52792Y41758D01*
X52675Y41781D01*
D02*
G37*
G36*
X105333Y42307D02*
X105196Y42280D01*
X105080Y42202D01*
X105003Y42087D01*
X104976Y41950D01*
X105003Y41813D01*
X105080Y41698D01*
X105196Y41620D01*
X105333Y41593D01*
X105469Y41620D01*
X105585Y41698D01*
X105662Y41813D01*
X105689Y41950D01*
X105662Y42087D01*
X105585Y42202D01*
X105469Y42280D01*
X105333Y42307D01*
D02*
G37*
G36*
X67950Y42106D02*
X67833Y42083D01*
X67734Y42016D01*
X67667Y41917D01*
X67644Y41800D01*
X67667Y41683D01*
X67734Y41584D01*
X67833Y41517D01*
X67950Y41494D01*
X68067Y41517D01*
X68166Y41584D01*
X68233Y41683D01*
X68256Y41800D01*
X68233Y41917D01*
X68166Y42016D01*
X68067Y42083D01*
X67950Y42106D01*
D02*
G37*
G36*
X101732Y42152D02*
X101596Y42124D01*
X101480Y42047D01*
X101402Y41931D01*
X101375Y41795D01*
X101402Y41658D01*
X101480Y41542D01*
X101596Y41465D01*
X101732Y41438D01*
X101869Y41465D01*
X101984Y41542D01*
X102062Y41658D01*
X102089Y41795D01*
X102062Y41931D01*
X101984Y42047D01*
X101869Y42124D01*
X101732Y42152D01*
D02*
G37*
G36*
X12251Y42184D02*
X12105Y42155D01*
X11981Y42072D01*
X11898Y41948D01*
X11869Y41802D01*
X11898Y41656D01*
X11981Y41532D01*
X12105Y41449D01*
X12251Y41420D01*
X12397Y41449D01*
X12521Y41532D01*
X12604Y41656D01*
X12633Y41802D01*
X12604Y41948D01*
X12521Y42072D01*
X12397Y42155D01*
X12251Y42184D01*
D02*
G37*
G36*
X57790Y42131D02*
X57673Y42108D01*
X57574Y42041D01*
X57507Y41942D01*
X57484Y41825D01*
X57507Y41708D01*
X57574Y41609D01*
X57673Y41542D01*
X57790Y41519D01*
X57907Y41542D01*
X57987Y41488D01*
X57974Y41421D01*
X57997Y41304D01*
X58064Y41205D01*
X58163Y41138D01*
X58280Y41115D01*
X58397Y41138D01*
X58496Y41205D01*
X58563Y41304D01*
X58586Y41421D01*
X58569Y41506D01*
X58654Y41541D01*
X58659Y41534D01*
X58758Y41467D01*
X58875Y41444D01*
X58992Y41467D01*
X59029Y41492D01*
X59110Y41438D01*
X59104Y41410D01*
X59127Y41293D01*
X59194Y41194D01*
X59293Y41127D01*
X59410Y41104D01*
X59527Y41127D01*
X59626Y41194D01*
X59693Y41293D01*
X59693Y41294D01*
X59797Y41355D01*
X59850Y41344D01*
X59967Y41367D01*
X60066Y41434D01*
X60133Y41533D01*
X60156Y41650D01*
X60133Y41767D01*
X60066Y41866D01*
X59967Y41933D01*
X59850Y41956D01*
X59733Y41933D01*
X59634Y41866D01*
X59567Y41767D01*
X59567Y41766D01*
X59463Y41705D01*
X59410Y41716D01*
X59293Y41693D01*
X59256Y41668D01*
X59175Y41722D01*
X59181Y41750D01*
X59158Y41867D01*
X59091Y41966D01*
X58992Y42033D01*
X58875Y42056D01*
X58758Y42033D01*
X58659Y41966D01*
X58592Y41867D01*
X58569Y41750D01*
X58586Y41665D01*
X58501Y41630D01*
X58496Y41637D01*
X58397Y41704D01*
X58280Y41727D01*
X58163Y41704D01*
X58083Y41758D01*
X58096Y41825D01*
X58073Y41942D01*
X58006Y42041D01*
X57907Y42108D01*
X57790Y42131D01*
D02*
G37*
G36*
X43100Y41757D02*
X42963Y41730D01*
X42848Y41652D01*
X42770Y41537D01*
X42743Y41400D01*
X42770Y41263D01*
X42848Y41148D01*
X42963Y41070D01*
X43100Y41043D01*
X43237Y41070D01*
X43352Y41148D01*
X43430Y41263D01*
X43457Y41400D01*
X43430Y41537D01*
X43352Y41652D01*
X43237Y41730D01*
X43100Y41757D01*
D02*
G37*
G36*
X32815Y41754D02*
X32679Y41726D01*
X32563Y41649D01*
X32486Y41533D01*
X32459Y41397D01*
X32486Y41260D01*
X32563Y41144D01*
X32679Y41067D01*
X32815Y41040D01*
X32952Y41067D01*
X33068Y41144D01*
X33145Y41260D01*
X33172Y41397D01*
X33145Y41533D01*
X33068Y41649D01*
X32952Y41726D01*
X32815Y41754D01*
D02*
G37*
G36*
X67382Y41632D02*
X67264Y41609D01*
X67165Y41543D01*
X67099Y41444D01*
X67076Y41326D01*
X67099Y41209D01*
X67165Y41110D01*
X67264Y41044D01*
X67382Y41021D01*
X67499Y41044D01*
X67598Y41110D01*
X67664Y41209D01*
X67687Y41326D01*
X67664Y41444D01*
X67598Y41543D01*
X67499Y41609D01*
X67382Y41632D01*
D02*
G37*
G36*
X97682Y41282D02*
X97545Y41254D01*
X97429Y41177D01*
X97352Y41061D01*
X97325Y40927D01*
X97316Y40922D01*
X97239Y40895D01*
X97234Y40902D01*
X97118Y40979D01*
X96982Y41007D01*
X96845Y40979D01*
X96729Y40902D01*
X96652Y40786D01*
X96625Y40650D01*
X96652Y40513D01*
X96729Y40397D01*
X96845Y40320D01*
X96982Y40293D01*
X97118Y40320D01*
X97234Y40397D01*
X97311Y40513D01*
X97338Y40647D01*
X97347Y40653D01*
X97424Y40680D01*
X97429Y40672D01*
X97545Y40595D01*
X97682Y40568D01*
X97818Y40595D01*
X97934Y40672D01*
X98011Y40788D01*
X98039Y40925D01*
X98011Y41061D01*
X97934Y41177D01*
X97818Y41254D01*
X97682Y41282D01*
D02*
G37*
G36*
X53389Y41476D02*
X53272Y41453D01*
X53172Y41386D01*
X53106Y41287D01*
X53083Y41170D01*
X53106Y41053D01*
X53172Y40954D01*
X53272Y40887D01*
X53389Y40864D01*
X53506Y40887D01*
X53605Y40954D01*
X53671Y41053D01*
X53694Y41170D01*
X53671Y41287D01*
X53605Y41386D01*
X53506Y41453D01*
X53389Y41476D01*
D02*
G37*
G36*
X63625Y41406D02*
X63508Y41383D01*
X63409Y41316D01*
X63342Y41217D01*
X63319Y41100D01*
X63342Y40983D01*
X63409Y40884D01*
X63508Y40817D01*
X63625Y40794D01*
X63742Y40817D01*
X63841Y40884D01*
X63908Y40983D01*
X63931Y41100D01*
X63908Y41217D01*
X63841Y41316D01*
X63742Y41383D01*
X63625Y41406D01*
D02*
G37*
G36*
X44430Y41306D02*
X44313Y41283D01*
X44214Y41217D01*
X44147Y41118D01*
X44124Y41000D01*
X44147Y40883D01*
X44214Y40784D01*
X44313Y40718D01*
X44430Y40695D01*
X44547Y40718D01*
X44646Y40784D01*
X44712Y40883D01*
X44736Y41000D01*
X44712Y41118D01*
X44646Y41217D01*
X44547Y41283D01*
X44430Y41306D01*
D02*
G37*
G36*
X103332Y42152D02*
X103195Y42124D01*
X103079Y42047D01*
X103002Y41931D01*
X102975Y41795D01*
X103002Y41658D01*
X103079Y41542D01*
X103195Y41465D01*
X103281Y41448D01*
X103293Y41446D01*
Y41354D01*
X103281Y41352D01*
X103195Y41334D01*
X103079Y41257D01*
X103002Y41141D01*
X102975Y41005D01*
X103002Y40868D01*
X103079Y40752D01*
X103195Y40675D01*
X103332Y40648D01*
X103468Y40675D01*
X103584Y40752D01*
X103661Y40868D01*
X103688Y41005D01*
X103661Y41141D01*
X103584Y41257D01*
X103468Y41334D01*
X103382Y41352D01*
X103370Y41354D01*
Y41446D01*
X103382Y41448D01*
X103468Y41465D01*
X103584Y41542D01*
X103661Y41658D01*
X103688Y41795D01*
X103661Y41931D01*
X103584Y42047D01*
X103468Y42124D01*
X103332Y42152D01*
D02*
G37*
G36*
X100132Y41357D02*
X99995Y41329D01*
X99879Y41252D01*
X99802Y41136D01*
X99775Y41000D01*
X99802Y40863D01*
X99879Y40747D01*
X99995Y40670D01*
X100132Y40643D01*
X100268Y40670D01*
X100384Y40747D01*
X100461Y40863D01*
X100489Y41000D01*
X100461Y41136D01*
X100384Y41252D01*
X100268Y41329D01*
X100132Y41357D01*
D02*
G37*
G36*
X100932Y42152D02*
X100795Y42124D01*
X100679Y42047D01*
X100602Y41931D01*
X100575Y41795D01*
X100602Y41658D01*
X100679Y41542D01*
X100795Y41465D01*
X100871Y41450D01*
X100905Y41443D01*
Y41351D01*
X100871Y41345D01*
X100795Y41329D01*
X100679Y41252D01*
X100602Y41136D01*
X100575Y41000D01*
X100602Y40863D01*
X100679Y40747D01*
X100795Y40670D01*
X100932Y40643D01*
X101068Y40670D01*
X101184Y40747D01*
X101261Y40863D01*
X101289Y41000D01*
X101261Y41136D01*
X101184Y41252D01*
X101068Y41329D01*
X100993Y41345D01*
X100958Y41351D01*
Y41443D01*
X100993Y41450D01*
X101068Y41465D01*
X101184Y41542D01*
X101261Y41658D01*
X101289Y41795D01*
X101261Y41931D01*
X101184Y42047D01*
X101068Y42124D01*
X100932Y42152D01*
D02*
G37*
G36*
X66780Y41227D02*
X66663Y41204D01*
X66564Y41137D01*
X66497Y41038D01*
X66474Y40921D01*
X66497Y40804D01*
X66564Y40705D01*
X66663Y40638D01*
X66780Y40615D01*
X66897Y40638D01*
X66996Y40705D01*
X67063Y40804D01*
X67086Y40921D01*
X67063Y41038D01*
X66996Y41137D01*
X66897Y41204D01*
X66780Y41227D01*
D02*
G37*
G36*
X58858Y41216D02*
X58741Y41193D01*
X58642Y41126D01*
X58575Y41027D01*
X58552Y40910D01*
X58575Y40793D01*
X58642Y40694D01*
X58741Y40627D01*
X58858Y40604D01*
X58975Y40627D01*
X59074Y40694D01*
X59141Y40793D01*
X59164Y40910D01*
X59141Y41027D01*
X59074Y41126D01*
X58975Y41193D01*
X58858Y41216D01*
D02*
G37*
G36*
X57790Y41156D02*
X57673Y41133D01*
X57574Y41066D01*
X57507Y40967D01*
X57484Y40850D01*
X57507Y40733D01*
X57574Y40634D01*
X57673Y40567D01*
X57790Y40544D01*
X57907Y40567D01*
X58006Y40634D01*
X58073Y40733D01*
X58096Y40850D01*
X58073Y40967D01*
X58006Y41066D01*
X57907Y41133D01*
X57790Y41156D01*
D02*
G37*
G36*
X80907Y41251D02*
X80770Y41224D01*
X80654Y41147D01*
X80577Y41031D01*
X80550Y40894D01*
X80577Y40758D01*
X80654Y40642D01*
X80770Y40565D01*
X80907Y40538D01*
X81043Y40565D01*
X81159Y40642D01*
X81236Y40758D01*
X81264Y40894D01*
X81236Y41031D01*
X81159Y41147D01*
X81043Y41224D01*
X80907Y41251D01*
D02*
G37*
G36*
X12251Y41284D02*
X12105Y41255D01*
X11981Y41172D01*
X11898Y41048D01*
X11869Y40902D01*
X11898Y40756D01*
X11981Y40632D01*
X12105Y40549D01*
X12251Y40520D01*
X12397Y40549D01*
X12521Y40632D01*
X12604Y40756D01*
X12633Y40902D01*
X12604Y41048D01*
X12521Y41172D01*
X12397Y41255D01*
X12251Y41284D01*
D02*
G37*
G36*
X110677Y41232D02*
X110541Y41204D01*
X110425Y41127D01*
X110347Y41011D01*
X110320Y40875D01*
X110347Y40738D01*
X110425Y40622D01*
X110541Y40545D01*
X110677Y40518D01*
X110814Y40545D01*
X110929Y40622D01*
X111007Y40738D01*
X111034Y40875D01*
X111007Y41011D01*
X110929Y41127D01*
X110814Y41204D01*
X110677Y41232D01*
D02*
G37*
G36*
X89333Y41007D02*
X89196Y40980D01*
X89080Y40902D01*
X89003Y40787D01*
X88976Y40650D01*
X89003Y40513D01*
X89080Y40398D01*
X89196Y40320D01*
X89333Y40293D01*
X89469Y40320D01*
X89585Y40398D01*
X89662Y40513D01*
X89689Y40650D01*
X89662Y40787D01*
X89585Y40902D01*
X89469Y40980D01*
X89333Y41007D01*
D02*
G37*
G36*
X64125Y40881D02*
X64008Y40858D01*
X63909Y40791D01*
X63842Y40692D01*
X63819Y40575D01*
X63842Y40458D01*
X63909Y40359D01*
X64008Y40292D01*
X64125Y40269D01*
X64242Y40292D01*
X64341Y40359D01*
X64408Y40458D01*
X64431Y40575D01*
X64408Y40692D01*
X64341Y40791D01*
X64242Y40858D01*
X64125Y40881D01*
D02*
G37*
G36*
X63100Y40881D02*
X62983Y40858D01*
X62884Y40791D01*
X62817Y40692D01*
X62794Y40575D01*
X62817Y40458D01*
X62884Y40359D01*
X62983Y40292D01*
X63100Y40269D01*
X63217Y40292D01*
X63316Y40359D01*
X63383Y40458D01*
X63406Y40575D01*
X63383Y40692D01*
X63316Y40791D01*
X63217Y40858D01*
X63100Y40881D01*
D02*
G37*
G36*
X65050Y40856D02*
X64933Y40833D01*
X64834Y40766D01*
X64767Y40667D01*
X64744Y40550D01*
X64767Y40433D01*
X64834Y40334D01*
X64933Y40267D01*
X65050Y40244D01*
X65167Y40267D01*
X65266Y40334D01*
X65333Y40433D01*
X65356Y40550D01*
X65333Y40667D01*
X65266Y40766D01*
X65167Y40833D01*
X65050Y40856D01*
D02*
G37*
G36*
X91729Y40907D02*
X91593Y40879D01*
X91477Y40802D01*
X91400Y40686D01*
X91373Y40550D01*
X91400Y40413D01*
X91477Y40297D01*
X91593Y40220D01*
X91729Y40193D01*
X91866Y40220D01*
X91982Y40297D01*
X92059Y40413D01*
X92086Y40550D01*
X92059Y40686D01*
X91982Y40802D01*
X91866Y40879D01*
X91729Y40907D01*
D02*
G37*
G36*
X93332Y40907D02*
X93195Y40879D01*
X93079Y40802D01*
X93002Y40686D01*
X92975Y40550D01*
X93002Y40413D01*
X93079Y40297D01*
X93195Y40220D01*
X93332Y40193D01*
X93468Y40220D01*
X93584Y40297D01*
X93661Y40413D01*
X93689Y40550D01*
X93661Y40686D01*
X93584Y40802D01*
X93468Y40879D01*
X93332Y40907D01*
D02*
G37*
G36*
X83849Y40857D02*
X83712Y40830D01*
X83596Y40752D01*
X83519Y40636D01*
X83492Y40500D01*
X83519Y40363D01*
X83596Y40248D01*
X83712Y40170D01*
X83849Y40143D01*
X83985Y40170D01*
X84101Y40248D01*
X84178Y40363D01*
X84206Y40500D01*
X84178Y40636D01*
X84101Y40752D01*
X83985Y40830D01*
X83849Y40857D01*
D02*
G37*
G36*
X49889Y40172D02*
X49772Y40149D01*
X49673Y40083D01*
X49668Y40076D01*
X49578D01*
X49574Y40083D01*
X49475Y40149D01*
X49358Y40172D01*
X49241Y40149D01*
X49141Y40083D01*
X49075Y39983D01*
X49052Y39866D01*
X49075Y39749D01*
X49141Y39650D01*
X49241Y39584D01*
X49358Y39560D01*
X49475Y39584D01*
X49567Y39646D01*
X49595Y39657D01*
X49652D01*
X49679Y39646D01*
X49772Y39584D01*
X49889Y39560D01*
X50006Y39584D01*
X50105Y39650D01*
X50172Y39749D01*
X50195Y39866D01*
X50172Y39983D01*
X50105Y40083D01*
X50006Y40149D01*
X49889Y40172D01*
D02*
G37*
G36*
X86907Y40757D02*
X86771Y40729D01*
X86655Y40652D01*
X86577Y40536D01*
X86550Y40400D01*
X86577Y40263D01*
X86655Y40147D01*
X86771Y40070D01*
X86907Y40043D01*
X87044Y40070D01*
X87159Y40147D01*
X87237Y40263D01*
X87264Y40400D01*
X87237Y40536D01*
X87159Y40652D01*
X87044Y40729D01*
X86907Y40757D01*
D02*
G37*
G36*
X82332Y41282D02*
X82196Y41254D01*
X82080Y41177D01*
X82002Y41061D01*
X81975Y40925D01*
X82001Y40794D01*
X81959Y40712D01*
X81920Y40704D01*
X81804Y40627D01*
X81727Y40511D01*
X81700Y40375D01*
X81727Y40238D01*
X81804Y40122D01*
X81920Y40045D01*
X82057Y40018D01*
X82193Y40045D01*
X82309Y40122D01*
X82386Y40238D01*
X82414Y40375D01*
X82388Y40506D01*
X82430Y40587D01*
X82469Y40595D01*
X82584Y40672D01*
X82662Y40788D01*
X82689Y40925D01*
X82662Y41061D01*
X82584Y41177D01*
X82469Y41254D01*
X82332Y41282D01*
D02*
G37*
G36*
X104933Y40559D02*
X104796Y40531D01*
X104680Y40454D01*
X104603Y40338D01*
X104576Y40202D01*
X104603Y40065D01*
X104680Y39949D01*
X104796Y39872D01*
X104933Y39845D01*
X105069Y39872D01*
X105185Y39949D01*
X105262Y40065D01*
X105290Y40202D01*
X105262Y40338D01*
X105185Y40454D01*
X105069Y40531D01*
X104933Y40559D01*
D02*
G37*
G36*
X101732Y40557D02*
X101595Y40529D01*
X101479Y40452D01*
X101402Y40336D01*
X101375Y40200D01*
X101402Y40063D01*
X101479Y39947D01*
X101595Y39870D01*
X101732Y39843D01*
X101868Y39870D01*
X101984Y39947D01*
X102061Y40063D01*
X102089Y40200D01*
X102061Y40336D01*
X101984Y40452D01*
X101868Y40529D01*
X101732Y40557D01*
D02*
G37*
G36*
X54436Y40383D02*
X54319Y40360D01*
X54220Y40293D01*
X54154Y40194D01*
X54130Y40077D01*
X54154Y39960D01*
X54220Y39861D01*
X54319Y39795D01*
X54436Y39771D01*
X54553Y39795D01*
X54653Y39861D01*
X54719Y39960D01*
X54742Y40077D01*
X54719Y40194D01*
X54653Y40293D01*
X54553Y40360D01*
X54436Y40383D01*
D02*
G37*
G36*
X55458Y40376D02*
X55341Y40353D01*
X55242Y40286D01*
X55176Y40187D01*
X55152Y40070D01*
X55176Y39953D01*
X55242Y39854D01*
X55341Y39787D01*
X55458Y39764D01*
X55575Y39787D01*
X55674Y39854D01*
X55741Y39953D01*
X55764Y40070D01*
X55741Y40187D01*
X55674Y40286D01*
X55575Y40353D01*
X55458Y40376D01*
D02*
G37*
G36*
X67474Y40655D02*
X67357Y40632D01*
X67258Y40565D01*
X67191Y40466D01*
X67168Y40349D01*
X67191Y40232D01*
X67258Y40133D01*
X67357Y40066D01*
X67474Y40043D01*
X67587Y40066D01*
X67600Y40056D01*
X67649Y39997D01*
X67616Y39948D01*
X67593Y39831D01*
X67616Y39714D01*
X67634Y39688D01*
X67569Y39623D01*
X67517Y39658D01*
X67400Y39681D01*
X67298Y39661D01*
X67248Y39694D01*
X67219Y39723D01*
X67231Y39785D01*
X67208Y39902D01*
X67142Y40001D01*
X67042Y40067D01*
X66925Y40091D01*
X66808Y40067D01*
X66709Y40001D01*
X66643Y39902D01*
X66620Y39785D01*
X66643Y39668D01*
X66709Y39569D01*
X66808Y39502D01*
X66925Y39479D01*
X67027Y39499D01*
X67078Y39466D01*
X67106Y39437D01*
X67094Y39375D01*
X67117Y39258D01*
X67184Y39159D01*
X67283Y39092D01*
X67400Y39069D01*
X67517Y39092D01*
X67616Y39159D01*
X67683Y39258D01*
X67706Y39375D01*
X67683Y39492D01*
X67665Y39518D01*
X67730Y39583D01*
X67782Y39548D01*
X67899Y39525D01*
X68016Y39548D01*
X68115Y39615D01*
X68182Y39714D01*
X68205Y39831D01*
X68182Y39948D01*
X68115Y40047D01*
X68016Y40114D01*
X67899Y40137D01*
X67786Y40114D01*
X67773Y40124D01*
X67724Y40183D01*
X67757Y40232D01*
X67780Y40349D01*
X67757Y40466D01*
X67690Y40565D01*
X67591Y40632D01*
X67474Y40655D01*
D02*
G37*
G36*
X23410Y40334D02*
X23273Y40307D01*
X23158Y40229D01*
X23080Y40113D01*
X23053Y39977D01*
X23080Y39840D01*
X23158Y39725D01*
X23273Y39647D01*
X23410Y39620D01*
X23547Y39647D01*
X23662Y39725D01*
X23740Y39840D01*
X23767Y39977D01*
X23740Y40113D01*
X23662Y40229D01*
X23547Y40307D01*
X23410Y40334D01*
D02*
G37*
G36*
X12251Y40384D02*
X12105Y40355D01*
X11981Y40272D01*
X11898Y40148D01*
X11869Y40002D01*
X11898Y39856D01*
X11981Y39732D01*
X12105Y39649D01*
X12251Y39620D01*
X12397Y39649D01*
X12521Y39732D01*
X12604Y39856D01*
X12633Y40002D01*
X12604Y40148D01*
X12521Y40272D01*
X12397Y40355D01*
X12251Y40384D01*
D02*
G37*
G36*
X58875Y40216D02*
X58758Y40193D01*
X58659Y40126D01*
X58592Y40027D01*
X58569Y39910D01*
X58592Y39793D01*
X58659Y39694D01*
X58758Y39627D01*
X58875Y39604D01*
X58992Y39627D01*
X59091Y39694D01*
X59158Y39793D01*
X59181Y39910D01*
X59158Y40027D01*
X59091Y40126D01*
X58992Y40193D01*
X58875Y40216D01*
D02*
G37*
G36*
X83657Y39952D02*
X83520Y39925D01*
X83404Y39847D01*
X83327Y39732D01*
X83300Y39595D01*
X83212Y39581D01*
X83186Y39711D01*
X83109Y39827D01*
X82993Y39904D01*
X82857Y39932D01*
X82720Y39904D01*
X82604Y39827D01*
X82527Y39711D01*
X82500Y39575D01*
X82527Y39438D01*
X82604Y39322D01*
X82720Y39245D01*
X82857Y39218D01*
X82993Y39245D01*
X83109Y39322D01*
X83186Y39438D01*
X83214Y39575D01*
X83301Y39589D01*
X83327Y39458D01*
X83404Y39343D01*
X83520Y39265D01*
X83657Y39238D01*
X83793Y39265D01*
X83909Y39343D01*
X83986Y39458D01*
X84014Y39595D01*
X83986Y39732D01*
X83909Y39847D01*
X83793Y39925D01*
X83657Y39952D01*
D02*
G37*
G36*
X57790Y40181D02*
X57673Y40158D01*
X57574Y40091D01*
X57507Y39992D01*
X57484Y39875D01*
X57507Y39758D01*
X57574Y39659D01*
X57673Y39592D01*
X57790Y39569D01*
X57907Y39592D01*
X58006Y39659D01*
X58073Y39758D01*
X58096Y39875D01*
X58073Y39992D01*
X58006Y40091D01*
X57907Y40158D01*
X57790Y40181D01*
D02*
G37*
G36*
X81232Y39982D02*
X81095Y39954D01*
X80979Y39877D01*
X80902Y39761D01*
X80875Y39625D01*
X80902Y39488D01*
X80979Y39372D01*
X81095Y39295D01*
X81232Y39268D01*
X81368Y39295D01*
X81484Y39372D01*
X81561Y39488D01*
X81589Y39625D01*
X81561Y39761D01*
X81484Y39877D01*
X81368Y39954D01*
X81232Y39982D01*
D02*
G37*
G36*
X99332Y39757D02*
X99195Y39729D01*
X99079Y39652D01*
X99002Y39536D01*
X98975Y39400D01*
X98989Y39327D01*
X98913Y39250D01*
X98882Y39257D01*
X98850Y39250D01*
X98797Y39304D01*
X98788Y39330D01*
X98761Y39461D01*
X98684Y39577D01*
X98568Y39654D01*
X98432Y39681D01*
X98295Y39654D01*
X98179Y39577D01*
X98102Y39461D01*
X98075Y39324D01*
X98102Y39188D01*
X98179Y39072D01*
X98295Y38995D01*
X98432Y38967D01*
X98464Y38974D01*
X98517Y38920D01*
X98526Y38894D01*
X98552Y38763D01*
X98630Y38647D01*
X98746Y38570D01*
X98882Y38543D01*
X99019Y38570D01*
X99134Y38647D01*
X99212Y38763D01*
X99239Y38900D01*
X99225Y38972D01*
X99301Y39049D01*
X99332Y39043D01*
X99468Y39070D01*
X99584Y39147D01*
X99661Y39263D01*
X99689Y39400D01*
X99661Y39536D01*
X99584Y39652D01*
X99468Y39729D01*
X99332Y39757D01*
D02*
G37*
G36*
X86057Y39952D02*
X85920Y39925D01*
X85804Y39847D01*
X85727Y39732D01*
X85700Y39595D01*
X85727Y39458D01*
X85804Y39343D01*
X85920Y39265D01*
X86057Y39238D01*
X86193Y39265D01*
X86309Y39343D01*
X86386Y39458D01*
X86414Y39595D01*
X86386Y39732D01*
X86309Y39847D01*
X86193Y39925D01*
X86057Y39952D01*
D02*
G37*
G36*
X85257D02*
X85120Y39925D01*
X85004Y39847D01*
X84927Y39732D01*
X84900Y39595D01*
X84927Y39458D01*
X85004Y39343D01*
X85120Y39265D01*
X85257Y39238D01*
X85393Y39265D01*
X85509Y39343D01*
X85586Y39458D01*
X85614Y39595D01*
X85586Y39732D01*
X85509Y39847D01*
X85393Y39925D01*
X85257Y39952D01*
D02*
G37*
G36*
X84457D02*
X84320Y39925D01*
X84204Y39847D01*
X84127Y39732D01*
X84100Y39595D01*
X84127Y39458D01*
X84204Y39343D01*
X84320Y39265D01*
X84457Y39238D01*
X84593Y39265D01*
X84709Y39343D01*
X84786Y39458D01*
X84814Y39595D01*
X84786Y39732D01*
X84709Y39847D01*
X84593Y39925D01*
X84457Y39952D01*
D02*
G37*
G36*
X87657Y39952D02*
X87521Y39924D01*
X87405Y39847D01*
X87327Y39731D01*
X87300Y39595D01*
X87327Y39458D01*
X87405Y39342D01*
X87521Y39265D01*
X87657Y39238D01*
X87794Y39265D01*
X87909Y39342D01*
X87987Y39458D01*
X88014Y39595D01*
X87987Y39731D01*
X87909Y39847D01*
X87794Y39924D01*
X87657Y39952D01*
D02*
G37*
G36*
X48158Y39806D02*
X48041Y39782D01*
X47942Y39716D01*
X47875Y39617D01*
X47852Y39500D01*
X47875Y39383D01*
X47942Y39284D01*
X48041Y39217D01*
X48158Y39194D01*
X48275Y39217D01*
X48374Y39284D01*
X48441Y39383D01*
X48464Y39500D01*
X48441Y39617D01*
X48374Y39716D01*
X48275Y39782D01*
X48158Y39806D01*
D02*
G37*
G36*
X32235Y39887D02*
X32098Y39860D01*
X31983Y39782D01*
X31905Y39667D01*
X31878Y39530D01*
X31905Y39393D01*
X31983Y39278D01*
X32098Y39200D01*
X32235Y39173D01*
X32372Y39200D01*
X32487Y39278D01*
X32565Y39393D01*
X32592Y39530D01*
X32565Y39667D01*
X32487Y39782D01*
X32372Y39860D01*
X32235Y39887D01*
D02*
G37*
G36*
X107332Y39782D02*
X107196Y39754D01*
X107080Y39677D01*
X107002Y39561D01*
X106975Y39425D01*
X107002Y39288D01*
X107080Y39172D01*
X107196Y39095D01*
X107332Y39068D01*
X107469Y39095D01*
X107584Y39172D01*
X107662Y39288D01*
X107689Y39425D01*
X107662Y39561D01*
X107584Y39677D01*
X107469Y39754D01*
X107332Y39782D01*
D02*
G37*
G36*
X59345Y39661D02*
X59228Y39638D01*
X59129Y39571D01*
X59062Y39472D01*
X59039Y39355D01*
X59062Y39238D01*
X59129Y39139D01*
X59228Y39072D01*
X59345Y39049D01*
X59462Y39072D01*
X59561Y39139D01*
X59628Y39238D01*
X59651Y39355D01*
X59628Y39472D01*
X59561Y39571D01*
X59462Y39638D01*
X59345Y39661D01*
D02*
G37*
G36*
X58325D02*
X58208Y39638D01*
X58109Y39571D01*
X58042Y39472D01*
X58019Y39355D01*
X58042Y39238D01*
X58109Y39139D01*
X58208Y39072D01*
X58325Y39049D01*
X58442Y39072D01*
X58541Y39139D01*
X58608Y39238D01*
X58631Y39355D01*
X58608Y39472D01*
X58541Y39571D01*
X58442Y39638D01*
X58325Y39661D01*
D02*
G37*
G36*
X20325Y40257D02*
X20188Y40230D01*
X20073Y40152D01*
X19995Y40037D01*
X19968Y39900D01*
X19995Y39763D01*
X20071Y39650D01*
X19995Y39537D01*
X19968Y39400D01*
X19995Y39263D01*
X20073Y39148D01*
X20188Y39070D01*
X20325Y39043D01*
X20462Y39070D01*
X20577Y39148D01*
X20655Y39263D01*
X20682Y39400D01*
X20655Y39537D01*
X20579Y39650D01*
X20655Y39763D01*
X20682Y39900D01*
X20655Y40037D01*
X20577Y40152D01*
X20462Y40230D01*
X20325Y40257D01*
D02*
G37*
G36*
X108732Y39632D02*
X108596Y39604D01*
X108480Y39527D01*
X108402Y39411D01*
X108375Y39275D01*
X108402Y39138D01*
X108480Y39022D01*
X108596Y38945D01*
X108732Y38918D01*
X108869Y38945D01*
X108984Y39022D01*
X109062Y39138D01*
X109089Y39275D01*
X109062Y39411D01*
X108984Y39527D01*
X108869Y39604D01*
X108732Y39632D01*
D02*
G37*
G36*
X85257Y39152D02*
X85120Y39125D01*
X85004Y39047D01*
X84927Y38932D01*
X84904Y38815D01*
X84812D01*
X84803Y38861D01*
X84789Y38931D01*
X84711Y39047D01*
X84596Y39124D01*
X84459Y39152D01*
X84323Y39124D01*
X84207Y39047D01*
X84129Y38931D01*
X84102Y38795D01*
X84129Y38658D01*
X84207Y38542D01*
X84323Y38465D01*
X84459Y38438D01*
X84596Y38465D01*
X84711Y38542D01*
X84789Y38658D01*
X84812Y38775D01*
X84904D01*
X84913Y38729D01*
X84927Y38658D01*
X85004Y38543D01*
X85120Y38465D01*
X85257Y38438D01*
X85393Y38465D01*
X85509Y38543D01*
X85586Y38658D01*
X85613Y38795D01*
X85586Y38932D01*
X85509Y39047D01*
X85393Y39125D01*
X85257Y39152D01*
D02*
G37*
G36*
X65750Y39306D02*
X65633Y39283D01*
X65534Y39216D01*
X65467Y39117D01*
X65444Y39000D01*
X65467Y38883D01*
X65534Y38784D01*
X65633Y38717D01*
X65750Y38694D01*
X65867Y38717D01*
X65966Y38784D01*
X66033Y38883D01*
X66056Y39000D01*
X66033Y39117D01*
X65966Y39216D01*
X65867Y39283D01*
X65750Y39306D01*
D02*
G37*
G36*
X97632Y39407D02*
X97495Y39379D01*
X97379Y39302D01*
X97302Y39186D01*
X97275Y39050D01*
X97302Y38913D01*
X97379Y38797D01*
X97495Y38720D01*
X97632Y38693D01*
X97768Y38720D01*
X97884Y38797D01*
X97961Y38913D01*
X97989Y39050D01*
X97961Y39186D01*
X97884Y39302D01*
X97768Y39379D01*
X97632Y39407D01*
D02*
G37*
G36*
X67964Y39226D02*
X67847Y39202D01*
X67748Y39136D01*
X67681Y39037D01*
X67658Y38920D01*
X67681Y38803D01*
X67748Y38703D01*
X67847Y38637D01*
X67964Y38614D01*
X68081Y38637D01*
X68180Y38703D01*
X68247Y38803D01*
X68270Y38920D01*
X68247Y39037D01*
X68180Y39136D01*
X68081Y39202D01*
X67964Y39226D01*
D02*
G37*
G36*
X60025Y38906D02*
X59908Y38883D01*
X59809Y38816D01*
X59742Y38717D01*
X59725Y38627D01*
X59657Y38587D01*
X59631Y38582D01*
X59592Y38608D01*
X59475Y38631D01*
X59358Y38608D01*
X59259Y38541D01*
X59192Y38442D01*
X59169Y38325D01*
X59192Y38208D01*
X59259Y38109D01*
X59358Y38042D01*
X59475Y38019D01*
X59592Y38042D01*
X59691Y38109D01*
X59758Y38208D01*
X59775Y38298D01*
X59843Y38338D01*
X59869Y38343D01*
X59908Y38317D01*
X60025Y38294D01*
X60142Y38317D01*
X60241Y38384D01*
X60308Y38483D01*
X60331Y38600D01*
X60308Y38717D01*
X60241Y38816D01*
X60142Y38883D01*
X60025Y38906D01*
D02*
G37*
G36*
X57790Y39156D02*
X57673Y39133D01*
X57574Y39066D01*
X57507Y38967D01*
X57484Y38850D01*
X57507Y38733D01*
X57574Y38634D01*
X57673Y38567D01*
X57790Y38544D01*
X57907Y38567D01*
X58006Y38634D01*
X58073Y38733D01*
X58096Y38850D01*
X58073Y38967D01*
X58006Y39066D01*
X57907Y39133D01*
X57790Y39156D01*
D02*
G37*
G36*
X42252Y38667D02*
X42106Y38638D01*
X41982Y38555D01*
X41959Y38522D01*
X41870D01*
X41847Y38555D01*
X41723Y38638D01*
X41577Y38667D01*
X41431Y38638D01*
X41307Y38555D01*
X41224Y38431D01*
X41195Y38285D01*
X41224Y38139D01*
X41307Y38015D01*
X41364Y37977D01*
Y37868D01*
X41307Y37830D01*
X41224Y37706D01*
X41195Y37560D01*
X41224Y37414D01*
X41307Y37290D01*
X41431Y37207D01*
X41577Y37178D01*
X41723Y37207D01*
X41847Y37290D01*
X41870Y37323D01*
X41959D01*
X41982Y37290D01*
X42106Y37207D01*
X42252Y37178D01*
X42398Y37207D01*
X42522Y37290D01*
X42605Y37414D01*
X42634Y37560D01*
X42605Y37706D01*
X42522Y37830D01*
X42465Y37868D01*
Y37977D01*
X42522Y38015D01*
X42605Y38139D01*
X42634Y38285D01*
X42605Y38431D01*
X42522Y38555D01*
X42398Y38638D01*
X42252Y38667D01*
D02*
G37*
G36*
X62030Y38981D02*
X61913Y38958D01*
X61814Y38891D01*
X61747Y38792D01*
X61724Y38675D01*
X61747Y38558D01*
X61770Y38524D01*
X61712Y38449D01*
X61625Y38466D01*
X61508Y38443D01*
X61409Y38376D01*
X61342Y38277D01*
X61319Y38160D01*
X61342Y38043D01*
X61409Y37944D01*
X61508Y37877D01*
X61625Y37854D01*
X61742Y37877D01*
X61841Y37944D01*
X61908Y38043D01*
X61931Y38160D01*
X61908Y38277D01*
X61885Y38311D01*
X61943Y38386D01*
X62030Y38369D01*
X62147Y38392D01*
X62246Y38459D01*
X62313Y38558D01*
X62336Y38675D01*
X62313Y38792D01*
X62246Y38891D01*
X62147Y38958D01*
X62030Y38981D01*
D02*
G37*
G36*
X100132Y39632D02*
X99995Y39604D01*
X99879Y39527D01*
X99802Y39411D01*
X99775Y39275D01*
X99802Y39138D01*
X99879Y39022D01*
X99995Y38945D01*
X100110Y38922D01*
X100145Y38891D01*
X100172Y38834D01*
X100150Y38725D01*
X100177Y38588D01*
X100255Y38472D01*
X100371Y38395D01*
X100507Y38368D01*
X100644Y38395D01*
X100759Y38472D01*
X100791Y38519D01*
X100880Y38547D01*
X100996Y38470D01*
X101132Y38443D01*
X101269Y38470D01*
X101384Y38547D01*
X101462Y38663D01*
X101489Y38800D01*
X101462Y38936D01*
X101384Y39052D01*
X101269Y39129D01*
X101132Y39157D01*
X100996Y39129D01*
X100880Y39052D01*
X100849Y39006D01*
X100759Y38977D01*
X100644Y39054D01*
X100529Y39077D01*
X100494Y39109D01*
X100467Y39165D01*
X100489Y39275D01*
X100461Y39411D01*
X100384Y39527D01*
X100268Y39604D01*
X100132Y39632D01*
D02*
G37*
G36*
X86857Y39152D02*
X86721Y39124D01*
X86605Y39047D01*
X86527Y38931D01*
X86500Y38795D01*
X86527Y38658D01*
X86605Y38542D01*
X86721Y38465D01*
X86857Y38438D01*
X86994Y38465D01*
X87109Y38542D01*
X87187Y38658D01*
X87214Y38795D01*
X87187Y38931D01*
X87109Y39047D01*
X86994Y39124D01*
X86857Y39152D01*
D02*
G37*
G36*
X86057Y39152D02*
X85920Y39124D01*
X85804Y39047D01*
X85727Y38931D01*
X85700Y38795D01*
X85727Y38658D01*
X85804Y38542D01*
X85920Y38465D01*
X86057Y38438D01*
X86193Y38465D01*
X86309Y38542D01*
X86386Y38658D01*
X86414Y38795D01*
X86386Y38931D01*
X86309Y39047D01*
X86193Y39124D01*
X86057Y39152D01*
D02*
G37*
G36*
X83657D02*
X83520Y39124D01*
X83404Y39047D01*
X83327Y38931D01*
X83300Y38795D01*
X83327Y38658D01*
X83404Y38542D01*
X83520Y38465D01*
X83657Y38438D01*
X83793Y38465D01*
X83909Y38542D01*
X83986Y38658D01*
X84014Y38795D01*
X83986Y38931D01*
X83909Y39047D01*
X83793Y39124D01*
X83657Y39152D01*
D02*
G37*
G36*
X54932Y39050D02*
X54815Y39026D01*
X54716Y38960D01*
X54650Y38861D01*
X54626Y38744D01*
X54650Y38627D01*
X54716Y38527D01*
X54815Y38461D01*
X54932Y38438D01*
X55049Y38461D01*
X55148Y38527D01*
X55215Y38627D01*
X55238Y38744D01*
X55215Y38861D01*
X55148Y38960D01*
X55049Y39026D01*
X54932Y39050D01*
D02*
G37*
G36*
X66469Y39536D02*
X66352Y39513D01*
X66253Y39446D01*
X66186Y39347D01*
X66163Y39230D01*
X66186Y39113D01*
X66253Y39014D01*
X66352Y38947D01*
X66445Y38929D01*
X66489Y38859D01*
X66496Y38838D01*
X66474Y38729D01*
X66497Y38612D01*
X66564Y38513D01*
X66663Y38446D01*
X66780Y38423D01*
X66897Y38446D01*
X66996Y38513D01*
X67063Y38612D01*
X67086Y38729D01*
X67063Y38846D01*
X66996Y38945D01*
X66897Y39012D01*
X66804Y39030D01*
X66760Y39100D01*
X66753Y39121D01*
X66775Y39230D01*
X66752Y39347D01*
X66685Y39446D01*
X66586Y39513D01*
X66469Y39536D01*
D02*
G37*
G36*
X102332Y39132D02*
X102195Y39104D01*
X102079Y39027D01*
X102002Y38911D01*
X101975Y38775D01*
X102002Y38638D01*
X102079Y38522D01*
X102195Y38445D01*
X102332Y38418D01*
X102468Y38445D01*
X102584Y38522D01*
X102661Y38638D01*
X102689Y38775D01*
X102661Y38911D01*
X102584Y39027D01*
X102468Y39104D01*
X102332Y39132D01*
D02*
G37*
G36*
X25335Y39094D02*
X25198Y39067D01*
X25083Y38989D01*
X25005Y38873D01*
X24978Y38737D01*
X25005Y38600D01*
X25083Y38485D01*
X25198Y38407D01*
X25335Y38380D01*
X25472Y38407D01*
X25587Y38485D01*
X25665Y38600D01*
X25692Y38737D01*
X25665Y38873D01*
X25587Y38989D01*
X25472Y39067D01*
X25335Y39094D01*
D02*
G37*
G36*
X61125Y38981D02*
X61008Y38958D01*
X60909Y38891D01*
X60842Y38792D01*
X60819Y38675D01*
X60842Y38558D01*
X60909Y38459D01*
X61008Y38392D01*
X61125Y38369D01*
X61242Y38392D01*
X61341Y38459D01*
X61408Y38558D01*
X61431Y38675D01*
X61408Y38792D01*
X61341Y38891D01*
X61242Y38958D01*
X61125Y38981D01*
D02*
G37*
G36*
X45800Y38431D02*
X45683Y38408D01*
X45612Y38360D01*
X45550Y38348D01*
X45488Y38360D01*
X45417Y38408D01*
X45300Y38431D01*
X45183Y38408D01*
X45084Y38341D01*
X45016D01*
X44917Y38408D01*
X44800Y38431D01*
X44683Y38408D01*
X44584Y38341D01*
X44517Y38242D01*
X44494Y38125D01*
X44517Y38008D01*
X44584Y37909D01*
X44683Y37842D01*
X44800Y37819D01*
X44917Y37842D01*
X44988Y37890D01*
X45050Y37902D01*
X45112Y37890D01*
X45183Y37842D01*
X45300Y37819D01*
X45417Y37842D01*
X45488Y37890D01*
X45550Y37902D01*
X45612Y37890D01*
X45683Y37842D01*
X45800Y37819D01*
X45917Y37842D01*
X46016Y37909D01*
X46083Y38008D01*
X46106Y38125D01*
X46083Y38242D01*
X46016Y38341D01*
X45917Y38408D01*
X45800Y38431D01*
D02*
G37*
G36*
X63075Y38956D02*
X62958Y38933D01*
X62859Y38866D01*
X62792Y38767D01*
X62769Y38650D01*
X62792Y38533D01*
X62859Y38434D01*
X62958Y38367D01*
X63075Y38344D01*
X63192Y38367D01*
X63291Y38434D01*
X63357Y38533D01*
X63381Y38650D01*
X63357Y38767D01*
X63291Y38866D01*
X63192Y38933D01*
X63075Y38956D01*
D02*
G37*
G36*
X63747Y39277D02*
X63630Y39254D01*
X63531Y39187D01*
X63464Y39088D01*
X63441Y38971D01*
X63464Y38854D01*
X63531Y38755D01*
X63630Y38688D01*
X63735Y38668D01*
X63753Y38659D01*
X63827Y38589D01*
X63842Y38512D01*
X63909Y38413D01*
X64008Y38347D01*
X64125Y38324D01*
X64242Y38347D01*
X64341Y38413D01*
X64408Y38512D01*
X64431Y38629D01*
X64408Y38747D01*
X64341Y38846D01*
X64242Y38912D01*
X64125Y38935D01*
X64045Y39011D01*
X64030Y39088D01*
X63963Y39187D01*
X63864Y39254D01*
X63747Y39277D01*
D02*
G37*
G36*
X49475Y38860D02*
X49358Y38837D01*
X49258Y38770D01*
X49192Y38671D01*
X49169Y38554D01*
X49192Y38437D01*
X49258Y38338D01*
X49358Y38271D01*
X49475Y38248D01*
X49592Y38271D01*
X49691Y38338D01*
X49757Y38437D01*
X49781Y38554D01*
X49757Y38671D01*
X49691Y38770D01*
X49592Y38837D01*
X49475Y38860D01*
D02*
G37*
G36*
X37800Y38907D02*
X37654Y38878D01*
X37530Y38795D01*
X37447Y38671D01*
X37418Y38525D01*
X37447Y38379D01*
X37530Y38255D01*
X37654Y38172D01*
X37800Y38143D01*
X37946Y38172D01*
X38070Y38255D01*
X38153Y38379D01*
X38182Y38525D01*
X38153Y38671D01*
X38070Y38795D01*
X37946Y38878D01*
X37800Y38907D01*
D02*
G37*
G36*
X67471Y38727D02*
X67354Y38704D01*
X67255Y38638D01*
X67189Y38538D01*
X67165Y38421D01*
X67189Y38304D01*
X67255Y38205D01*
X67354Y38139D01*
X67471Y38115D01*
X67588Y38139D01*
X67688Y38205D01*
X67754Y38304D01*
X67777Y38421D01*
X67754Y38538D01*
X67688Y38638D01*
X67588Y38704D01*
X67471Y38727D01*
D02*
G37*
G36*
X58349Y38621D02*
X58232Y38598D01*
X58133Y38531D01*
X58066Y38432D01*
X58043Y38315D01*
X58066Y38198D01*
X58133Y38099D01*
X58232Y38032D01*
X58349Y38009D01*
X58466Y38032D01*
X58565Y38099D01*
X58632Y38198D01*
X58655Y38315D01*
X58632Y38432D01*
X58565Y38531D01*
X58466Y38598D01*
X58349Y38621D01*
D02*
G37*
G36*
X87182Y38184D02*
X87046Y38157D01*
X86930Y38079D01*
X86870Y37989D01*
X86857Y37985D01*
X86782D01*
X86770Y37989D01*
X86709Y38079D01*
X86593Y38157D01*
X86457Y38184D01*
X86320Y38157D01*
X86204Y38079D01*
X86127Y37964D01*
X86115Y37904D01*
X86023D01*
X86011Y37964D01*
X85934Y38079D01*
X85818Y38157D01*
X85682Y38184D01*
X85545Y38157D01*
X85429Y38079D01*
X85352Y37964D01*
X85325Y37827D01*
X85352Y37690D01*
X85429Y37575D01*
X85545Y37497D01*
X85682Y37470D01*
X85818Y37497D01*
X85934Y37575D01*
X86011Y37690D01*
X86023Y37750D01*
X86115D01*
X86127Y37690D01*
X86204Y37575D01*
X86320Y37497D01*
X86457Y37470D01*
X86593Y37497D01*
X86709Y37575D01*
X86770Y37665D01*
X86782Y37669D01*
X86857D01*
X86870Y37665D01*
X86930Y37575D01*
X87046Y37497D01*
X87182Y37470D01*
X87319Y37497D01*
X87435Y37575D01*
X87512Y37690D01*
X87539Y37827D01*
X87512Y37964D01*
X87435Y38079D01*
X87319Y38157D01*
X87182Y38184D01*
D02*
G37*
G36*
X48805Y38367D02*
X48688Y38343D01*
X48588Y38277D01*
X48522Y38178D01*
X48499Y38061D01*
X48522Y37944D01*
X48588Y37845D01*
X48688Y37778D01*
X48805Y37755D01*
X48922Y37778D01*
X49021Y37845D01*
X49087Y37944D01*
X49111Y38061D01*
X49087Y38178D01*
X49021Y38277D01*
X48922Y38343D01*
X48805Y38367D01*
D02*
G37*
G36*
X27565Y38467D02*
X27428Y38440D01*
X27313Y38362D01*
X27235Y38247D01*
X27208Y38110D01*
X27235Y37973D01*
X27313Y37858D01*
X27428Y37780D01*
X27565Y37753D01*
X27702Y37780D01*
X27817Y37858D01*
X27895Y37973D01*
X27922Y38110D01*
X27895Y38247D01*
X27817Y38362D01*
X27702Y38440D01*
X27565Y38467D01*
D02*
G37*
G36*
X14637Y37880D02*
X14491Y37851D01*
X14367Y37768D01*
X14329Y37711D01*
X14221D01*
X14183Y37768D01*
X14059Y37851D01*
X13912Y37880D01*
X13766Y37851D01*
X13642Y37768D01*
X13604Y37711D01*
X13496D01*
X13458Y37768D01*
X13334Y37851D01*
X13187Y37880D01*
X13041Y37851D01*
X12917Y37768D01*
X12834Y37644D01*
X12805Y37498D01*
X12834Y37352D01*
X12917Y37228D01*
X12950Y37205D01*
Y37115D01*
X12917Y37093D01*
X12834Y36969D01*
X12805Y36823D01*
X12834Y36677D01*
X12917Y36553D01*
X13041Y36470D01*
X13187Y36441D01*
X13334Y36470D01*
X13458Y36553D01*
X13496Y36610D01*
X13604D01*
X13642Y36553D01*
X13766Y36470D01*
X13912Y36441D01*
X14059Y36470D01*
X14183Y36553D01*
X14221Y36610D01*
X14329D01*
X14367Y36553D01*
X14491Y36470D01*
X14637Y36441D01*
X14784Y36470D01*
X14908Y36553D01*
X14991Y36677D01*
X15020Y36823D01*
X14991Y36969D01*
X14908Y37093D01*
X14875Y37115D01*
Y37205D01*
X14908Y37228D01*
X14991Y37352D01*
X15020Y37498D01*
X14991Y37644D01*
X14908Y37768D01*
X14784Y37851D01*
X14637Y37880D01*
D02*
G37*
G36*
X64876Y38551D02*
X64759Y38528D01*
X64660Y38461D01*
X64593Y38362D01*
X64570Y38245D01*
X64593Y38128D01*
X64615Y38096D01*
X64594Y37973D01*
X64584Y37966D01*
X64517Y37867D01*
X64494Y37750D01*
X64500Y37723D01*
X64423Y37646D01*
X64375Y37656D01*
X64258Y37633D01*
X64159Y37566D01*
X64092Y37467D01*
X64069Y37350D01*
X64092Y37233D01*
X64159Y37134D01*
X64258Y37067D01*
X64375Y37044D01*
X64492Y37067D01*
X64591Y37134D01*
X64658Y37233D01*
X64681Y37350D01*
X64675Y37377D01*
X64752Y37454D01*
X64800Y37444D01*
X64917Y37467D01*
X65016Y37534D01*
X65083Y37633D01*
X65106Y37750D01*
X65083Y37867D01*
X65061Y37900D01*
X65082Y38022D01*
X65092Y38029D01*
X65159Y38128D01*
X65182Y38245D01*
X65159Y38362D01*
X65092Y38461D01*
X64993Y38528D01*
X64876Y38551D01*
D02*
G37*
G36*
X63900Y38231D02*
X63783Y38208D01*
X63684Y38141D01*
X63617Y38042D01*
X63594Y37925D01*
X63617Y37808D01*
X63684Y37709D01*
X63783Y37642D01*
X63900Y37619D01*
X64017Y37642D01*
X64116Y37709D01*
X64183Y37808D01*
X64206Y37925D01*
X64183Y38042D01*
X64116Y38141D01*
X64017Y38208D01*
X63900Y38231D01*
D02*
G37*
G36*
X92432Y38307D02*
X92296Y38279D01*
X92180Y38202D01*
X92102Y38086D01*
X92075Y37950D01*
X92102Y37813D01*
X92180Y37697D01*
X92296Y37620D01*
X92432Y37593D01*
X92569Y37620D01*
X92684Y37697D01*
X92762Y37813D01*
X92789Y37950D01*
X92762Y38086D01*
X92684Y38202D01*
X92569Y38279D01*
X92432Y38307D01*
D02*
G37*
G36*
X67950Y38131D02*
X67833Y38108D01*
X67734Y38041D01*
X67667Y37942D01*
X67644Y37825D01*
X67667Y37708D01*
X67734Y37609D01*
X67833Y37542D01*
X67950Y37519D01*
X68067Y37542D01*
X68166Y37609D01*
X68233Y37708D01*
X68256Y37825D01*
X68233Y37942D01*
X68166Y38041D01*
X68067Y38108D01*
X67950Y38131D01*
D02*
G37*
G36*
X60600Y38481D02*
X60483Y38458D01*
X60384Y38391D01*
X60317Y38292D01*
X60294Y38175D01*
X60317Y38058D01*
X60384Y37959D01*
X60483Y37892D01*
X60583Y37873D01*
X60644Y37800D01*
X60667Y37683D01*
X60734Y37584D01*
X60833Y37517D01*
X60950Y37494D01*
X61067Y37517D01*
X61166Y37584D01*
X61233Y37683D01*
X61256Y37800D01*
X61233Y37917D01*
X61166Y38016D01*
X61067Y38083D01*
X60967Y38102D01*
X60906Y38175D01*
X60883Y38292D01*
X60816Y38391D01*
X60717Y38458D01*
X60600Y38481D01*
D02*
G37*
G36*
X57825Y38106D02*
X57708Y38083D01*
X57609Y38016D01*
X57542Y37917D01*
X57519Y37800D01*
X57542Y37683D01*
X57609Y37584D01*
X57708Y37517D01*
X57825Y37494D01*
X57942Y37517D01*
X58041Y37584D01*
X58108Y37683D01*
X58131Y37800D01*
X58108Y37917D01*
X58041Y38016D01*
X57942Y38083D01*
X57825Y38106D01*
D02*
G37*
G36*
X58939Y38076D02*
X58822Y38052D01*
X58723Y37986D01*
X58657Y37887D01*
X58634Y37770D01*
X58657Y37653D01*
X58723Y37554D01*
X58822Y37487D01*
X58939Y37464D01*
X59056Y37487D01*
X59156Y37554D01*
X59222Y37653D01*
X59245Y37770D01*
X59222Y37887D01*
X59156Y37986D01*
X59056Y38052D01*
X58939Y38076D01*
D02*
G37*
G36*
X62875Y38066D02*
X62758Y38043D01*
X62659Y37976D01*
X62592Y37877D01*
X62569Y37760D01*
X62592Y37643D01*
X62659Y37544D01*
X62758Y37477D01*
X62875Y37454D01*
X62992Y37477D01*
X63091Y37544D01*
X63158Y37643D01*
X63181Y37760D01*
X63158Y37877D01*
X63091Y37976D01*
X62992Y38043D01*
X62875Y38066D01*
D02*
G37*
G36*
X59989Y38040D02*
X59872Y38017D01*
X59773Y37951D01*
X59706Y37852D01*
X59683Y37735D01*
X59706Y37617D01*
X59773Y37518D01*
X59872Y37452D01*
X59989Y37429D01*
X60106Y37452D01*
X60205Y37518D01*
X60272Y37617D01*
X60295Y37735D01*
X60272Y37852D01*
X60205Y37951D01*
X60106Y38017D01*
X59989Y38040D01*
D02*
G37*
G36*
X44400Y37426D02*
X44283Y37403D01*
X44212Y37355D01*
X44150Y37343D01*
X44088Y37355D01*
X44017Y37403D01*
X43900Y37426D01*
X43783Y37403D01*
X43684Y37336D01*
X43617Y37237D01*
X43594Y37120D01*
X43617Y37003D01*
X43684Y36904D01*
X43783Y36837D01*
X43900Y36814D01*
X44017Y36837D01*
X44088Y36885D01*
X44150Y36897D01*
X44212Y36885D01*
X44283Y36837D01*
X44400Y36814D01*
X44517Y36837D01*
X44616Y36904D01*
X44683Y37003D01*
X44706Y37120D01*
X44683Y37237D01*
X44616Y37336D01*
X44517Y37403D01*
X44400Y37426D01*
D02*
G37*
G36*
X34635Y37907D02*
X34498Y37880D01*
X34383Y37802D01*
X34305Y37687D01*
X34278Y37550D01*
X34305Y37413D01*
X34383Y37298D01*
X34498Y37220D01*
X34635Y37193D01*
X34772Y37220D01*
X34887Y37298D01*
X34965Y37413D01*
X34992Y37550D01*
X34965Y37687D01*
X34887Y37802D01*
X34772Y37880D01*
X34635Y37907D01*
D02*
G37*
G36*
X32590Y37847D02*
X32453Y37820D01*
X32338Y37742D01*
X32260Y37627D01*
X32233Y37490D01*
X32260Y37353D01*
X32338Y37238D01*
X32453Y37160D01*
X32590Y37133D01*
X32727Y37160D01*
X32842Y37238D01*
X32920Y37353D01*
X32947Y37490D01*
X32920Y37627D01*
X32842Y37742D01*
X32727Y37820D01*
X32590Y37847D01*
D02*
G37*
G36*
X58375Y37656D02*
X58258Y37633D01*
X58159Y37566D01*
X58092Y37467D01*
X58069Y37350D01*
X58092Y37233D01*
X58159Y37134D01*
X58258Y37067D01*
X58375Y37044D01*
X58492Y37067D01*
X58591Y37134D01*
X58658Y37233D01*
X58681Y37350D01*
X58658Y37467D01*
X58591Y37566D01*
X58492Y37633D01*
X58375Y37656D01*
D02*
G37*
G36*
X30960Y37737D02*
X30823Y37710D01*
X30708Y37632D01*
X30630Y37517D01*
X30603Y37380D01*
X30630Y37243D01*
X30708Y37128D01*
X30823Y37050D01*
X30960Y37023D01*
X31097Y37050D01*
X31212Y37128D01*
X31290Y37243D01*
X31317Y37380D01*
X31290Y37517D01*
X31212Y37632D01*
X31097Y37710D01*
X30960Y37737D01*
D02*
G37*
G36*
X46875Y37131D02*
X46758Y37108D01*
X46659Y37041D01*
X46645Y37021D01*
X46555D01*
X46541Y37041D01*
X46442Y37108D01*
X46325Y37131D01*
X46208Y37108D01*
X46109Y37041D01*
X46041D01*
X45942Y37108D01*
X45825Y37131D01*
X45708Y37108D01*
X45609Y37041D01*
X45542Y36942D01*
X45519Y36825D01*
X45542Y36708D01*
X45609Y36609D01*
X45708Y36542D01*
X45825Y36519D01*
X45942Y36542D01*
X46041Y36609D01*
X46109D01*
X46208Y36542D01*
X46325Y36519D01*
X46442Y36542D01*
X46541Y36609D01*
X46555Y36629D01*
X46645D01*
X46659Y36609D01*
X46758Y36542D01*
X46875Y36519D01*
X46992Y36542D01*
X47091Y36609D01*
X47158Y36708D01*
X47181Y36825D01*
X47158Y36942D01*
X47091Y37041D01*
X46992Y37108D01*
X46875Y37131D01*
D02*
G37*
G36*
X63385Y37571D02*
X63268Y37548D01*
X63169Y37481D01*
X63102Y37382D01*
X63079Y37265D01*
X63102Y37148D01*
X63169Y37049D01*
X63268Y36982D01*
X63385Y36959D01*
X63502Y36982D01*
X63601Y37049D01*
X63668Y37148D01*
X63691Y37265D01*
X63668Y37382D01*
X63601Y37481D01*
X63502Y37548D01*
X63385Y37571D01*
D02*
G37*
G36*
X59469Y37562D02*
X59352Y37539D01*
X59253Y37472D01*
X59187Y37373D01*
X59163Y37256D01*
X59187Y37139D01*
X59253Y37040D01*
X59352Y36973D01*
X59469Y36950D01*
X59586Y36973D01*
X59685Y37040D01*
X59752Y37139D01*
X59775Y37256D01*
X59752Y37373D01*
X59685Y37472D01*
X59586Y37539D01*
X59469Y37562D01*
D02*
G37*
G36*
X62375Y37546D02*
X62258Y37523D01*
X62159Y37456D01*
X62092Y37357D01*
X62069Y37240D01*
X62092Y37123D01*
X62159Y37024D01*
X62258Y36957D01*
X62375Y36934D01*
X62492Y36957D01*
X62591Y37024D01*
X62658Y37123D01*
X62681Y37240D01*
X62658Y37357D01*
X62591Y37456D01*
X62492Y37523D01*
X62375Y37546D01*
D02*
G37*
G36*
X110750Y37263D02*
X110633Y37239D01*
X110534Y37173D01*
X110468Y37074D01*
X110444Y36957D01*
X110468Y36840D01*
X110534Y36740D01*
X110633Y36674D01*
X110750Y36651D01*
X110867Y36674D01*
X110967Y36740D01*
X111033Y36840D01*
X111056Y36957D01*
X111033Y37074D01*
X110967Y37173D01*
X110867Y37239D01*
X110750Y37263D01*
D02*
G37*
G36*
X67780Y37036D02*
X67663Y37013D01*
X67564Y36946D01*
X67497Y36847D01*
X67474Y36730D01*
X67480Y36702D01*
X67403Y36625D01*
X67375Y36631D01*
X67258Y36608D01*
X67159Y36541D01*
X67092Y36442D01*
X67069Y36325D01*
X67092Y36208D01*
X67159Y36109D01*
X67258Y36042D01*
X67375Y36019D01*
X67492Y36042D01*
X67591Y36109D01*
X67658Y36208D01*
X67681Y36325D01*
X67675Y36353D01*
X67752Y36430D01*
X67780Y36424D01*
X67897Y36447D01*
X67996Y36514D01*
X68063Y36613D01*
X68086Y36730D01*
X68063Y36847D01*
X67996Y36946D01*
X67897Y37013D01*
X67780Y37036D01*
D02*
G37*
G36*
X65970Y38566D02*
X65853Y38543D01*
X65754Y38476D01*
X65687Y38377D01*
X65664Y38260D01*
X65687Y38143D01*
X65754Y38044D01*
X65755Y38043D01*
Y37975D01*
X65746Y37941D01*
X65686Y37852D01*
X65663Y37735D01*
X65686Y37618D01*
X65753Y37519D01*
X65852Y37452D01*
X65969Y37429D01*
X66086Y37452D01*
X66088Y37454D01*
X66169Y37400D01*
X66154Y37325D01*
X66177Y37208D01*
X66244Y37109D01*
X66343Y37042D01*
X66460Y37019D01*
X66524Y37032D01*
X66601Y36958D01*
X66594Y36925D01*
X66617Y36808D01*
X66684Y36709D01*
X66783Y36642D01*
X66900Y36619D01*
X67017Y36642D01*
X67116Y36709D01*
X67183Y36808D01*
X67206Y36925D01*
X67183Y37042D01*
X67116Y37141D01*
X67017Y37208D01*
X66900Y37231D01*
X66836Y37218D01*
X66759Y37292D01*
X66766Y37325D01*
X66752Y37396D01*
X66779Y37423D01*
X66896Y37446D01*
X66995Y37512D01*
X67061Y37612D01*
X67085Y37729D01*
X67061Y37846D01*
X66995Y37945D01*
X66896Y38011D01*
X66779Y38035D01*
X66662Y38011D01*
X66562Y37945D01*
X66496Y37846D01*
X66473Y37729D01*
X66487Y37658D01*
X66460Y37631D01*
X66343Y37608D01*
X66341Y37606D01*
X66260Y37660D01*
X66275Y37735D01*
X66252Y37852D01*
X66193Y37940D01*
X66184Y37977D01*
Y38042D01*
X66186Y38044D01*
X66253Y38143D01*
X66276Y38260D01*
X66253Y38377D01*
X66186Y38476D01*
X66087Y38543D01*
X65970Y38566D01*
D02*
G37*
G36*
X65780Y37036D02*
X65663Y37013D01*
X65564Y36946D01*
X65497Y36847D01*
X65474Y36730D01*
X65497Y36613D01*
X65443Y36532D01*
X65375Y36546D01*
X65258Y36523D01*
X65159Y36456D01*
X65092Y36357D01*
X65069Y36240D01*
X65092Y36123D01*
X65159Y36024D01*
X65258Y35957D01*
X65375Y35934D01*
X65492Y35957D01*
X65591Y36024D01*
X65658Y36123D01*
X65681Y36240D01*
X65658Y36357D01*
X65712Y36438D01*
X65780Y36424D01*
X65897Y36447D01*
X65996Y36514D01*
X66063Y36613D01*
X66086Y36730D01*
X66063Y36847D01*
X65996Y36946D01*
X65897Y37013D01*
X65780Y37036D01*
D02*
G37*
G36*
X64875Y37135D02*
X64758Y37112D01*
X64659Y37045D01*
X64592Y36946D01*
X64569Y36829D01*
X64592Y36712D01*
X64659Y36613D01*
X64758Y36546D01*
X64875Y36523D01*
X64992Y36546D01*
X65091Y36613D01*
X65158Y36712D01*
X65181Y36829D01*
X65158Y36946D01*
X65091Y37045D01*
X64992Y37112D01*
X64875Y37135D01*
D02*
G37*
G36*
X58875Y37131D02*
X58758Y37108D01*
X58659Y37041D01*
X58592Y36942D01*
X58569Y36825D01*
X58592Y36708D01*
X58659Y36609D01*
X58758Y36542D01*
X58875Y36519D01*
X58992Y36542D01*
X59091Y36609D01*
X59158Y36708D01*
X59181Y36825D01*
X59158Y36942D01*
X59091Y37041D01*
X58992Y37108D01*
X58875Y37131D01*
D02*
G37*
G36*
X63900Y37081D02*
X63783Y37058D01*
X63684Y36991D01*
X63617Y36892D01*
X63594Y36775D01*
X63617Y36658D01*
X63684Y36559D01*
X63783Y36492D01*
X63900Y36469D01*
X64017Y36492D01*
X64116Y36559D01*
X64183Y36658D01*
X64206Y36775D01*
X64183Y36892D01*
X64116Y36991D01*
X64017Y37058D01*
X63900Y37081D01*
D02*
G37*
G36*
X62875Y37046D02*
X62758Y37023D01*
X62659Y36956D01*
X62592Y36857D01*
X62569Y36740D01*
X62592Y36623D01*
X62659Y36524D01*
X62758Y36457D01*
X62875Y36434D01*
X62992Y36457D01*
X63091Y36524D01*
X63158Y36623D01*
X63181Y36740D01*
X63158Y36857D01*
X63091Y36956D01*
X62992Y37023D01*
X62875Y37046D01*
D02*
G37*
G36*
X61875D02*
X61758Y37023D01*
X61659Y36956D01*
X61592Y36857D01*
X61569Y36740D01*
X61592Y36623D01*
X61659Y36524D01*
X61758Y36457D01*
X61875Y36434D01*
X61992Y36457D01*
X62091Y36524D01*
X62158Y36623D01*
X62181Y36740D01*
X62158Y36857D01*
X62091Y36956D01*
X61992Y37023D01*
X61875Y37046D01*
D02*
G37*
G36*
X53450Y36531D02*
X53333Y36508D01*
X53234Y36441D01*
X53167Y36342D01*
X53144Y36225D01*
X53063Y36173D01*
X53025Y36181D01*
X52908Y36158D01*
X52809Y36091D01*
X52742Y35992D01*
X52719Y35875D01*
X52742Y35758D01*
X52809Y35659D01*
X52908Y35592D01*
X53025Y35569D01*
X53142Y35592D01*
X53241Y35659D01*
X53308Y35758D01*
X53331Y35875D01*
X53412Y35927D01*
X53450Y35919D01*
X53567Y35942D01*
X53666Y36009D01*
X53733Y36108D01*
X53756Y36225D01*
X53733Y36342D01*
X53666Y36441D01*
X53567Y36508D01*
X53450Y36531D01*
D02*
G37*
G36*
X26110Y37532D02*
X25973Y37505D01*
X25858Y37427D01*
X25780Y37312D01*
X25753Y37175D01*
X25780Y37038D01*
X25858Y36923D01*
X25924Y36878D01*
X25925Y36770D01*
X25913Y36762D01*
X25835Y36647D01*
X25808Y36510D01*
X25835Y36373D01*
X25913Y36258D01*
X26028Y36180D01*
X26165Y36153D01*
X26302Y36180D01*
X26417Y36258D01*
X26495Y36373D01*
X26522Y36510D01*
X26495Y36647D01*
X26417Y36762D01*
X26351Y36807D01*
X26350Y36915D01*
X26362Y36923D01*
X26440Y37038D01*
X26467Y37175D01*
X26440Y37312D01*
X26362Y37427D01*
X26247Y37505D01*
X26110Y37532D01*
D02*
G37*
G36*
X28300Y36817D02*
X28163Y36790D01*
X28048Y36713D01*
X27970Y36597D01*
X27943Y36460D01*
X27970Y36324D01*
X28048Y36208D01*
X28163Y36131D01*
X28300Y36104D01*
X28437Y36131D01*
X28552Y36208D01*
X28630Y36324D01*
X28657Y36460D01*
X28630Y36597D01*
X28552Y36713D01*
X28437Y36790D01*
X28300Y36817D01*
D02*
G37*
G36*
X68976Y36632D02*
X68859Y36609D01*
X68760Y36542D01*
X68693Y36443D01*
X68670Y36326D01*
X68693Y36209D01*
X68760Y36110D01*
X68859Y36043D01*
X68976Y36020D01*
X69093Y36043D01*
X69192Y36110D01*
X69259Y36209D01*
X69282Y36326D01*
X69259Y36443D01*
X69192Y36542D01*
X69093Y36609D01*
X68976Y36632D01*
D02*
G37*
G36*
X64375Y36546D02*
X64258Y36523D01*
X64159Y36456D01*
X64092Y36357D01*
X64069Y36240D01*
X64092Y36123D01*
X64159Y36024D01*
X64258Y35957D01*
X64375Y35934D01*
X64492Y35957D01*
X64591Y36024D01*
X64658Y36123D01*
X64681Y36240D01*
X64658Y36357D01*
X64591Y36456D01*
X64492Y36523D01*
X64375Y36546D01*
D02*
G37*
G36*
X63375D02*
X63258Y36523D01*
X63159Y36456D01*
X63092Y36357D01*
X63069Y36240D01*
X63092Y36123D01*
X63159Y36024D01*
X63258Y35957D01*
X63375Y35934D01*
X63492Y35957D01*
X63591Y36024D01*
X63658Y36123D01*
X63681Y36240D01*
X63658Y36357D01*
X63591Y36456D01*
X63492Y36523D01*
X63375Y36546D01*
D02*
G37*
G36*
X62375D02*
X62258Y36523D01*
X62159Y36456D01*
X62092Y36357D01*
X62069Y36240D01*
X62092Y36123D01*
X62159Y36024D01*
X62258Y35957D01*
X62375Y35934D01*
X62492Y35957D01*
X62591Y36024D01*
X62658Y36123D01*
X62681Y36240D01*
X62658Y36357D01*
X62591Y36456D01*
X62492Y36523D01*
X62375Y36546D01*
D02*
G37*
G36*
X61300D02*
X61183Y36523D01*
X61084Y36456D01*
X61017Y36357D01*
X60994Y36240D01*
X61017Y36123D01*
X61084Y36024D01*
X61183Y35957D01*
X61300Y35934D01*
X61417Y35957D01*
X61516Y36024D01*
X61583Y36123D01*
X61606Y36240D01*
X61583Y36357D01*
X61516Y36456D01*
X61417Y36523D01*
X61300Y36546D01*
D02*
G37*
G36*
X55077Y36531D02*
X54960Y36508D01*
X54861Y36442D01*
X54795Y36343D01*
X54771Y36225D01*
X54795Y36108D01*
X54861Y36009D01*
X54960Y35943D01*
X55077Y35920D01*
X55194Y35943D01*
X55293Y36009D01*
X55360Y36108D01*
X55383Y36225D01*
X55360Y36343D01*
X55293Y36442D01*
X55194Y36508D01*
X55077Y36531D01*
D02*
G37*
G36*
X54175Y36531D02*
X54058Y36508D01*
X53959Y36441D01*
X53892Y36342D01*
X53869Y36225D01*
X53892Y36108D01*
X53959Y36009D01*
X54058Y35942D01*
X54175Y35919D01*
X54292Y35942D01*
X54391Y36009D01*
X54458Y36108D01*
X54481Y36225D01*
X54458Y36342D01*
X54391Y36441D01*
X54292Y36508D01*
X54175Y36531D01*
D02*
G37*
G36*
X42415Y36460D02*
X42298Y36436D01*
X42199Y36370D01*
X42133Y36271D01*
X42109Y36154D01*
X42133Y36037D01*
X42199Y35937D01*
X42298Y35871D01*
X42415Y35848D01*
X42532Y35871D01*
X42632Y35937D01*
X42698Y36037D01*
X42721Y36154D01*
X42698Y36271D01*
X42632Y36370D01*
X42532Y36436D01*
X42415Y36460D01*
D02*
G37*
G36*
X49325Y36131D02*
X49208Y36108D01*
X49109Y36041D01*
X49042Y35942D01*
X49019Y35825D01*
X49042Y35708D01*
X49109Y35609D01*
X49208Y35542D01*
X49325Y35519D01*
X49442Y35542D01*
X49541Y35609D01*
X49608Y35708D01*
X49631Y35825D01*
X49608Y35942D01*
X49541Y36041D01*
X49442Y36108D01*
X49325Y36131D01*
D02*
G37*
G36*
X88732Y36082D02*
X88596Y36054D01*
X88480Y35977D01*
X88402Y35861D01*
X88375Y35725D01*
X88402Y35588D01*
X88480Y35472D01*
X88596Y35395D01*
X88732Y35368D01*
X88869Y35395D01*
X88984Y35472D01*
X89062Y35588D01*
X89089Y35725D01*
X89062Y35861D01*
X88984Y35977D01*
X88869Y36054D01*
X88732Y36082D01*
D02*
G37*
G36*
X28240Y35937D02*
X28103Y35910D01*
X27988Y35832D01*
X27910Y35717D01*
X27883Y35580D01*
X27910Y35443D01*
X27988Y35328D01*
X28103Y35250D01*
X28240Y35223D01*
X28377Y35250D01*
X28492Y35328D01*
X28570Y35443D01*
X28597Y35580D01*
X28570Y35717D01*
X28492Y35832D01*
X28377Y35910D01*
X28240Y35937D01*
D02*
G37*
G36*
X85257Y35932D02*
X85121Y35904D01*
X85005Y35827D01*
X84927Y35711D01*
X84900Y35575D01*
X84927Y35438D01*
X85005Y35322D01*
X85121Y35245D01*
X85257Y35218D01*
X85394Y35245D01*
X85509Y35322D01*
X85587Y35438D01*
X85614Y35575D01*
X85587Y35711D01*
X85509Y35827D01*
X85394Y35904D01*
X85257Y35932D01*
D02*
G37*
G36*
X86857Y35932D02*
X86720Y35904D01*
X86604Y35827D01*
X86527Y35711D01*
X86500Y35575D01*
X86527Y35438D01*
X86604Y35322D01*
X86720Y35245D01*
X86857Y35218D01*
X86993Y35245D01*
X87109Y35322D01*
X87186Y35438D01*
X87214Y35575D01*
X87186Y35711D01*
X87109Y35827D01*
X86993Y35904D01*
X86857Y35932D01*
D02*
G37*
G36*
X84457Y35934D02*
X84321Y35906D01*
X84205Y35829D01*
X84128Y35713D01*
X84101Y35577D01*
X84128Y35440D01*
X84205Y35324D01*
X84321Y35247D01*
X84411Y35229D01*
Y35137D01*
X84320Y35119D01*
X84204Y35042D01*
X84127Y34926D01*
X84100Y34790D01*
X84013Y34778D01*
X83986Y34911D01*
X83909Y35027D01*
X83793Y35104D01*
X83657Y35132D01*
X83520Y35104D01*
X83404Y35027D01*
X83327Y34911D01*
X83300Y34775D01*
X83327Y34638D01*
X83404Y34522D01*
X83520Y34445D01*
X83657Y34418D01*
X83793Y34445D01*
X83909Y34522D01*
X83986Y34638D01*
X84014Y34775D01*
X84101Y34786D01*
X84127Y34653D01*
X84204Y34537D01*
X84320Y34460D01*
X84457Y34433D01*
X84593Y34460D01*
X84709Y34537D01*
X84786Y34653D01*
X84814Y34790D01*
X84786Y34926D01*
X84709Y35042D01*
X84593Y35119D01*
X84504Y35137D01*
Y35229D01*
X84594Y35247D01*
X84710Y35324D01*
X84787Y35440D01*
X84814Y35577D01*
X84787Y35713D01*
X84710Y35829D01*
X84594Y35906D01*
X84457Y35934D01*
D02*
G37*
G36*
X81213Y35057D02*
X81076Y35030D01*
X80960Y34952D01*
X80883Y34837D01*
X80856Y34700D01*
X80858Y34687D01*
X80774Y34652D01*
X80760Y34672D01*
X80644Y34750D01*
X80508Y34777D01*
X80371Y34750D01*
X80255Y34672D01*
X80178Y34557D01*
X80151Y34420D01*
X80178Y34283D01*
X80255Y34168D01*
X80371Y34090D01*
X80508Y34063D01*
X80644Y34090D01*
X80760Y34168D01*
X80837Y34283D01*
X80864Y34420D01*
X80862Y34433D01*
X80947Y34468D01*
X80960Y34448D01*
X81076Y34370D01*
X81213Y34343D01*
X81349Y34370D01*
X81465Y34448D01*
X81542Y34563D01*
X81569Y34700D01*
X81542Y34837D01*
X81465Y34952D01*
X81349Y35030D01*
X81213Y35057D01*
D02*
G37*
G36*
X86857Y35132D02*
X86720Y35104D01*
X86604Y35027D01*
X86527Y34911D01*
X86500Y34775D01*
X86527Y34638D01*
X86604Y34522D01*
X86720Y34445D01*
X86857Y34418D01*
X86993Y34445D01*
X87109Y34522D01*
X87186Y34638D01*
X87214Y34775D01*
X87186Y34911D01*
X87109Y35027D01*
X86993Y35104D01*
X86857Y35132D01*
D02*
G37*
G36*
X94157Y34982D02*
X94021Y34954D01*
X93905Y34877D01*
X93827Y34761D01*
X93800Y34625D01*
X93827Y34488D01*
X93905Y34372D01*
X94021Y34295D01*
X94157Y34268D01*
X94294Y34295D01*
X94409Y34372D01*
X94487Y34488D01*
X94514Y34625D01*
X94487Y34761D01*
X94409Y34877D01*
X94294Y34954D01*
X94157Y34982D01*
D02*
G37*
G36*
X23575Y34982D02*
X23429Y34953D01*
X23305Y34870D01*
X23222Y34746D01*
X23193Y34600D01*
X23222Y34454D01*
X23305Y34330D01*
X23429Y34247D01*
X23575Y34218D01*
X23721Y34247D01*
X23845Y34330D01*
X23928Y34454D01*
X23957Y34600D01*
X23928Y34746D01*
X23845Y34870D01*
X23721Y34953D01*
X23575Y34982D01*
D02*
G37*
G36*
X22500D02*
X22354Y34953D01*
X22230Y34870D01*
X22147Y34746D01*
X22118Y34600D01*
X22147Y34454D01*
X22230Y34330D01*
X22354Y34247D01*
X22500Y34218D01*
X22646Y34247D01*
X22770Y34330D01*
X22853Y34454D01*
X22882Y34600D01*
X22853Y34746D01*
X22770Y34870D01*
X22646Y34953D01*
X22500Y34982D01*
D02*
G37*
G36*
X21490D02*
X21344Y34953D01*
X21220Y34870D01*
X21137Y34746D01*
X21108Y34600D01*
X21137Y34454D01*
X21220Y34330D01*
X21344Y34247D01*
X21490Y34218D01*
X21636Y34247D01*
X21760Y34330D01*
X21843Y34454D01*
X21872Y34600D01*
X21843Y34746D01*
X21760Y34870D01*
X21636Y34953D01*
X21490Y34982D01*
D02*
G37*
G36*
X55146Y34799D02*
X55029Y34776D01*
X54930Y34710D01*
X54864Y34611D01*
X54840Y34494D01*
X54864Y34377D01*
X54930Y34277D01*
X55029Y34211D01*
X55146Y34188D01*
X55263Y34211D01*
X55363Y34277D01*
X55429Y34377D01*
X55452Y34494D01*
X55429Y34611D01*
X55363Y34710D01*
X55263Y34776D01*
X55146Y34799D01*
D02*
G37*
G36*
X49475Y34237D02*
X49328Y34208D01*
X49204Y34125D01*
X49186Y34097D01*
X49096D01*
X49077Y34125D01*
X48953Y34208D01*
X48806Y34237D01*
X48660Y34208D01*
X48536Y34125D01*
X48453Y34001D01*
X48424Y33855D01*
X48453Y33709D01*
X48536Y33585D01*
X48660Y33502D01*
X48806Y33473D01*
X48953Y33502D01*
X49077Y33585D01*
X49096Y33613D01*
X49186D01*
X49204Y33585D01*
X49328Y33502D01*
X49475Y33473D01*
X49621Y33502D01*
X49745Y33585D01*
X49828Y33709D01*
X49857Y33855D01*
X49828Y34001D01*
X49745Y34125D01*
X49621Y34208D01*
X49475Y34237D01*
D02*
G37*
G36*
X85237Y34332D02*
X85100Y34304D01*
X84984Y34227D01*
X84907Y34111D01*
X84880Y33975D01*
X84907Y33838D01*
X84984Y33722D01*
X85100Y33645D01*
X85237Y33618D01*
X85373Y33645D01*
X85489Y33722D01*
X85566Y33838D01*
X85594Y33975D01*
X85566Y34111D01*
X85489Y34227D01*
X85373Y34304D01*
X85237Y34332D01*
D02*
G37*
G36*
X51631Y34257D02*
X51485Y34228D01*
X51361Y34145D01*
X51278Y34021D01*
X51249Y33875D01*
X51278Y33729D01*
X51361Y33605D01*
X51485Y33522D01*
X51631Y33493D01*
X51777Y33522D01*
X51901Y33605D01*
X51984Y33729D01*
X52013Y33875D01*
X51984Y34021D01*
X51901Y34145D01*
X51777Y34228D01*
X51631Y34257D01*
D02*
G37*
G36*
X50389Y34251D02*
X50242Y34222D01*
X50118Y34139D01*
X50035Y34015D01*
X50006Y33869D01*
X50035Y33723D01*
X50118Y33599D01*
X50242Y33516D01*
X50389Y33487D01*
X50535Y33516D01*
X50659Y33599D01*
X50742Y33723D01*
X50771Y33869D01*
X50742Y34015D01*
X50659Y34139D01*
X50535Y34222D01*
X50389Y34251D01*
D02*
G37*
G36*
X60973Y33907D02*
X60856Y33884D01*
X60757Y33818D01*
X60691Y33718D01*
X60668Y33601D01*
X60691Y33484D01*
X60757Y33385D01*
X60856Y33319D01*
X60973Y33295D01*
X61091Y33319D01*
X61190Y33385D01*
X61256Y33484D01*
X61279Y33601D01*
X61256Y33718D01*
X61190Y33818D01*
X61091Y33884D01*
X60973Y33907D01*
D02*
G37*
G36*
X67300Y33894D02*
X67183Y33871D01*
X67084Y33804D01*
X67017Y33705D01*
X66994Y33588D01*
X67017Y33471D01*
X67084Y33372D01*
X67183Y33305D01*
X67300Y33282D01*
X67417Y33305D01*
X67516Y33372D01*
X67583Y33471D01*
X67606Y33588D01*
X67583Y33705D01*
X67516Y33804D01*
X67417Y33871D01*
X67300Y33894D01*
D02*
G37*
G36*
X82857Y33552D02*
X82720Y33524D01*
X82604Y33447D01*
X82527Y33331D01*
X82500Y33195D01*
X82519Y33101D01*
X82461Y33035D01*
X82367Y33033D01*
X82322Y33079D01*
X82313Y33105D01*
X82286Y33236D01*
X82209Y33352D01*
X82093Y33429D01*
X81957Y33456D01*
X81820Y33429D01*
X81704Y33352D01*
X81627Y33236D01*
X81600Y33099D01*
X81627Y32963D01*
X81704Y32847D01*
X81820Y32770D01*
X81957Y32742D01*
X81989Y32749D01*
X82042Y32695D01*
X82051Y32669D01*
X82077Y32538D01*
X82155Y32422D01*
X82271Y32345D01*
X82407Y32318D01*
X82544Y32345D01*
X82659Y32422D01*
X82737Y32538D01*
X82764Y32675D01*
X82745Y32768D01*
X82812Y32845D01*
X82815Y32846D01*
X82857Y32838D01*
X82993Y32865D01*
X83109Y32942D01*
X83186Y33058D01*
X83214Y33195D01*
X83186Y33331D01*
X83109Y33447D01*
X82993Y33524D01*
X82857Y33552D01*
D02*
G37*
G36*
X26800Y33482D02*
X26663Y33455D01*
X26548Y33377D01*
X26470Y33262D01*
X26443Y33125D01*
X26470Y32988D01*
X26548Y32873D01*
X26663Y32795D01*
X26800Y32768D01*
X26937Y32795D01*
X27052Y32873D01*
X27130Y32988D01*
X27157Y33125D01*
X27130Y33262D01*
X27052Y33377D01*
X26937Y33455D01*
X26800Y33482D01*
D02*
G37*
G36*
X88057Y33382D02*
X87921Y33354D01*
X87805Y33277D01*
X87727Y33161D01*
X87700Y33025D01*
X87727Y32888D01*
X87805Y32772D01*
X87921Y32695D01*
X88057Y32668D01*
X88194Y32695D01*
X88309Y32772D01*
X88387Y32888D01*
X88414Y33025D01*
X88387Y33161D01*
X88309Y33277D01*
X88194Y33354D01*
X88057Y33382D01*
D02*
G37*
G36*
X91982Y33332D02*
X91846Y33304D01*
X91730Y33227D01*
X91652Y33111D01*
X91625Y32975D01*
X91652Y32838D01*
X91730Y32722D01*
X91846Y32645D01*
X91982Y32618D01*
X92119Y32645D01*
X92234Y32722D01*
X92312Y32838D01*
X92339Y32975D01*
X92312Y33111D01*
X92234Y33227D01*
X92119Y33304D01*
X91982Y33332D01*
D02*
G37*
G36*
X81157Y33182D02*
X81020Y33154D01*
X80904Y33077D01*
X80827Y32961D01*
X80800Y32825D01*
X80827Y32688D01*
X80904Y32572D01*
X81020Y32495D01*
X81157Y32468D01*
X81293Y32495D01*
X81409Y32572D01*
X81486Y32688D01*
X81514Y32825D01*
X81486Y32961D01*
X81409Y33077D01*
X81293Y33154D01*
X81157Y33182D01*
D02*
G37*
G36*
X60956Y33070D02*
X60839Y33047D01*
X60740Y32981D01*
X60674Y32882D01*
X60650Y32765D01*
X60674Y32647D01*
X60740Y32548D01*
X60766Y32531D01*
Y32441D01*
X60744Y32426D01*
X60727Y32401D01*
X60637D01*
X60624Y32420D01*
X60525Y32486D01*
X60408Y32510D01*
X60291Y32486D01*
X60192Y32420D01*
X60125Y32321D01*
X60102Y32204D01*
X60125Y32087D01*
X60192Y31987D01*
X60291Y31921D01*
X60408Y31898D01*
X60525Y31921D01*
X60624Y31987D01*
X60641Y32012D01*
X60731D01*
X60744Y31993D01*
X60843Y31927D01*
X60960Y31904D01*
X61077Y31927D01*
X61176Y31993D01*
X61243Y32092D01*
X61266Y32210D01*
X61243Y32327D01*
X61176Y32426D01*
X61150Y32443D01*
Y32533D01*
X61173Y32548D01*
X61239Y32647D01*
X61262Y32765D01*
X61239Y32882D01*
X61173Y32981D01*
X61073Y33047D01*
X60956Y33070D01*
D02*
G37*
G36*
X83657Y33407D02*
X83520Y33379D01*
X83404Y33302D01*
X83327Y33186D01*
X83300Y33050D01*
X83327Y32913D01*
X83404Y32797D01*
X83520Y32720D01*
X83635Y32697D01*
X83670Y32666D01*
X83697Y32609D01*
X83675Y32500D01*
X83702Y32363D01*
X83780Y32247D01*
X83896Y32170D01*
X84032Y32143D01*
X84169Y32170D01*
X84284Y32247D01*
X84316Y32294D01*
X84405Y32322D01*
X84521Y32245D01*
X84657Y32218D01*
X84794Y32245D01*
X84909Y32322D01*
X84987Y32438D01*
X85014Y32575D01*
X84987Y32711D01*
X84909Y32827D01*
X84794Y32904D01*
X84657Y32932D01*
X84521Y32904D01*
X84405Y32827D01*
X84374Y32781D01*
X84284Y32752D01*
X84169Y32829D01*
X84054Y32852D01*
X84019Y32884D01*
X83992Y32940D01*
X84014Y33050D01*
X83986Y33186D01*
X83909Y33302D01*
X83793Y33379D01*
X83657Y33407D01*
D02*
G37*
G36*
X56956Y32815D02*
X56839Y32792D01*
X56740Y32726D01*
X56674Y32627D01*
X56650Y32510D01*
X56674Y32392D01*
X56740Y32293D01*
X56839Y32227D01*
X56956Y32204D01*
X57073Y32227D01*
X57173Y32293D01*
X57239Y32392D01*
X57262Y32510D01*
X57239Y32627D01*
X57173Y32726D01*
X57073Y32792D01*
X56956Y32815D01*
D02*
G37*
G36*
X86357Y32907D02*
X86220Y32879D01*
X86104Y32802D01*
X86027Y32686D01*
X86000Y32550D01*
X86027Y32413D01*
X86104Y32297D01*
X86220Y32220D01*
X86357Y32193D01*
X86493Y32220D01*
X86609Y32297D01*
X86686Y32413D01*
X86714Y32550D01*
X86686Y32686D01*
X86609Y32802D01*
X86493Y32879D01*
X86357Y32907D01*
D02*
G37*
G36*
X77432Y32405D02*
X77295Y32377D01*
X77179Y32300D01*
X77102Y32184D01*
X77075Y32048D01*
X77102Y31911D01*
X77179Y31795D01*
X77295Y31718D01*
X77432Y31691D01*
X77568Y31718D01*
X77684Y31795D01*
X77761Y31911D01*
X77788Y32048D01*
X77761Y32184D01*
X77684Y32300D01*
X77568Y32377D01*
X77432Y32405D01*
D02*
G37*
G36*
X57275Y32106D02*
X57158Y32083D01*
X57059Y32016D01*
X56992Y31917D01*
X56969Y31800D01*
X56992Y31683D01*
X57059Y31584D01*
X57158Y31517D01*
X57275Y31494D01*
X57392Y31517D01*
X57491Y31584D01*
X57558Y31683D01*
X57581Y31800D01*
X57558Y31917D01*
X57491Y32016D01*
X57392Y32083D01*
X57275Y32106D01*
D02*
G37*
G36*
X60960Y31481D02*
X60843Y31458D01*
X60744Y31391D01*
X60677Y31292D01*
X60654Y31175D01*
X60677Y31058D01*
X60744Y30959D01*
X60843Y30892D01*
X60960Y30869D01*
X61077Y30892D01*
X61176Y30959D01*
X61243Y31058D01*
X61266Y31175D01*
X61243Y31292D01*
X61176Y31391D01*
X61077Y31458D01*
X60960Y31481D01*
D02*
G37*
G36*
X59781D02*
X59664Y31458D01*
X59565Y31391D01*
X59498Y31292D01*
X59475Y31175D01*
X59498Y31058D01*
X59565Y30959D01*
X59664Y30892D01*
X59781Y30869D01*
X59898Y30892D01*
X59997Y30959D01*
X60064Y31058D01*
X60087Y31175D01*
X60064Y31292D01*
X59997Y31391D01*
X59898Y31458D01*
X59781Y31481D01*
D02*
G37*
G36*
X69284Y30952D02*
X69138Y30923D01*
X69014Y30840D01*
X68979Y30788D01*
X68889D01*
X68854Y30840D01*
X68730Y30923D01*
X68584Y30952D01*
X68438Y30923D01*
X68314Y30840D01*
X68231Y30716D01*
X68202Y30569D01*
X68231Y30423D01*
X68314Y30299D01*
X68438Y30216D01*
X68584Y30187D01*
X68730Y30216D01*
X68854Y30299D01*
X68889Y30351D01*
X68979D01*
X69014Y30299D01*
X69138Y30216D01*
X69284Y30187D01*
X69430Y30216D01*
X69554Y30299D01*
X69637Y30423D01*
X69666Y30569D01*
X69637Y30716D01*
X69554Y30840D01*
X69430Y30923D01*
X69284Y30952D01*
D02*
G37*
G36*
X57271Y31288D02*
X57154Y31265D01*
X57055Y31199D01*
X56989Y31100D01*
X56966Y30982D01*
X56989Y30865D01*
X57055Y30766D01*
X57154Y30700D01*
X57271Y30677D01*
X57389Y30700D01*
X57488Y30766D01*
X57554Y30865D01*
X57577Y30982D01*
X57554Y31100D01*
X57488Y31199D01*
X57389Y31265D01*
X57271Y31288D01*
D02*
G37*
G36*
X65999Y31250D02*
X65882Y31227D01*
X65783Y31161D01*
X65716Y31061D01*
X65693Y30944D01*
X65716Y30827D01*
X65783Y30728D01*
X65882Y30662D01*
X65999Y30638D01*
X66116Y30662D01*
X66215Y30728D01*
X66282Y30827D01*
X66305Y30944D01*
X66282Y31061D01*
X66215Y31161D01*
X66116Y31227D01*
X65999Y31250D01*
D02*
G37*
G36*
X65500Y30581D02*
X65383Y30558D01*
X65284Y30491D01*
X65217Y30392D01*
X65194Y30275D01*
X65217Y30158D01*
X65284Y30059D01*
X65383Y29992D01*
X65500Y29969D01*
X65617Y29992D01*
X65716Y30059D01*
X65783Y30158D01*
X65806Y30275D01*
X65783Y30392D01*
X65716Y30491D01*
X65617Y30558D01*
X65500Y30581D01*
D02*
G37*
G36*
X57271Y30500D02*
X57154Y30477D01*
X57055Y30411D01*
X56989Y30312D01*
X56966Y30195D01*
X56989Y30077D01*
X57055Y29978D01*
X57154Y29912D01*
X57271Y29889D01*
X57389Y29912D01*
X57488Y29978D01*
X57554Y30077D01*
X57577Y30195D01*
X57554Y30312D01*
X57488Y30411D01*
X57389Y30477D01*
X57271Y30500D01*
D02*
G37*
G36*
X55049Y30471D02*
X54932Y30448D01*
X54833Y30381D01*
X54767Y30282D01*
X54743Y30165D01*
X54767Y30048D01*
X54833Y29949D01*
X54932Y29882D01*
X55049Y29859D01*
X55166Y29882D01*
X55265Y29949D01*
X55332Y30048D01*
X55355Y30165D01*
X55332Y30282D01*
X55265Y30381D01*
X55166Y30448D01*
X55049Y30471D01*
D02*
G37*
G36*
X60375Y31056D02*
X60258Y31033D01*
X60159Y30966D01*
X60092Y30867D01*
X60069Y30750D01*
X60092Y30633D01*
X60159Y30534D01*
X60245Y30476D01*
X60248Y30465D01*
X60252Y30419D01*
X60247Y30378D01*
X60172Y30328D01*
X60106Y30229D01*
X60083Y30112D01*
X60106Y29995D01*
X60172Y29895D01*
X60272Y29829D01*
X60389Y29806D01*
X60506Y29829D01*
X60605Y29895D01*
X60671Y29995D01*
X60695Y30112D01*
X60671Y30229D01*
X60605Y30328D01*
X60519Y30385D01*
X60515Y30397D01*
X60512Y30442D01*
X60517Y30484D01*
X60591Y30534D01*
X60658Y30633D01*
X60681Y30750D01*
X60658Y30867D01*
X60591Y30966D01*
X60492Y31033D01*
X60375Y31056D01*
D02*
G37*
G36*
X58962Y30418D02*
X58845Y30394D01*
X58745Y30328D01*
X58679Y30229D01*
X58656Y30112D01*
X58679Y29995D01*
X58745Y29895D01*
X58845Y29829D01*
X58962Y29806D01*
X59079Y29829D01*
X59178Y29895D01*
X59244Y29995D01*
X59268Y30112D01*
X59244Y30229D01*
X59178Y30328D01*
X59079Y30394D01*
X58962Y30418D01*
D02*
G37*
G36*
X66003Y30026D02*
X65886Y30003D01*
X65787Y29937D01*
X65721Y29837D01*
X65698Y29720D01*
X65721Y29603D01*
X65787Y29504D01*
X65886Y29438D01*
X66003Y29414D01*
X66120Y29438D01*
X66220Y29504D01*
X66286Y29603D01*
X66309Y29720D01*
X66286Y29837D01*
X66220Y29937D01*
X66120Y30003D01*
X66003Y30026D01*
D02*
G37*
G36*
X65956Y29292D02*
X65839Y29269D01*
X65740Y29202D01*
X65674Y29103D01*
X65650Y28986D01*
X65674Y28869D01*
X65740Y28770D01*
Y28707D01*
X65686Y28671D01*
X65603Y28547D01*
X65574Y28400D01*
X65603Y28254D01*
X65686Y28130D01*
X65810Y28047D01*
X65956Y28018D01*
X66103Y28047D01*
X66227Y28130D01*
X66310Y28254D01*
X66339Y28400D01*
X66310Y28547D01*
X66227Y28671D01*
X66173Y28707D01*
Y28770D01*
X66239Y28869D01*
X66262Y28986D01*
X66239Y29103D01*
X66173Y29202D01*
X66073Y29269D01*
X65956Y29292D01*
D02*
G37*
%LPD*%
D17*
X103182Y46700D02*
D03*
X28240Y35580D02*
D03*
X84459Y38795D02*
D03*
X93332Y40550D02*
D03*
X81213Y34700D02*
D03*
X102534Y45820D02*
D03*
X100932D02*
D03*
X15926Y40798D02*
D03*
X15425D02*
D03*
X17726D02*
D03*
X17225D02*
D03*
X16724D02*
D03*
X14924D02*
D03*
X29568Y38952D02*
D03*
X20325Y40750D02*
D03*
X19526Y40798D02*
D03*
X19025D02*
D03*
X18524D02*
D03*
X20325Y39400D02*
D03*
Y39900D02*
D03*
X24725Y36760D02*
D03*
X26110Y37175D02*
D03*
X23410Y39977D02*
D03*
X25335Y38737D02*
D03*
X28300Y36460D02*
D03*
X29870Y38377D02*
D03*
X27565Y38110D02*
D03*
X34025Y35990D02*
D03*
X33200Y35930D02*
D03*
X32235Y38570D02*
D03*
X30985Y36420D02*
D03*
X28785Y37270D02*
D03*
X41904Y41900D02*
D03*
X36420Y42875D02*
D03*
X41904Y42401D02*
D03*
X43100Y41400D02*
D03*
X38304Y41900D02*
D03*
X26850Y42150D02*
D03*
X34125Y47350D02*
D03*
X33625D02*
D03*
X32170Y46930D02*
D03*
X33675Y49000D02*
D03*
X34175D02*
D03*
X38450Y48575D02*
D03*
X38950D02*
D03*
X37150D02*
D03*
X37650D02*
D03*
X36050Y46825D02*
D03*
X36075Y47975D02*
D03*
Y48475D02*
D03*
X36050Y46325D02*
D03*
X13850Y45300D02*
D03*
Y44800D02*
D03*
Y44000D02*
D03*
X20385Y45750D02*
D03*
Y46575D02*
D03*
X21400Y43525D02*
D03*
X17395Y44790D02*
D03*
X13850Y43500D02*
D03*
X19951Y53623D02*
D03*
X19450D02*
D03*
X18850Y48290D02*
D03*
X27524Y55425D02*
D03*
X28025D02*
D03*
X28526D02*
D03*
X25674D02*
D03*
X26175D02*
D03*
X26676D02*
D03*
X24826D02*
D03*
X24325D02*
D03*
X21251Y53623D02*
D03*
X20750D02*
D03*
X22551D02*
D03*
X22050D02*
D03*
X24276Y51123D02*
D03*
X23775D02*
D03*
X23824Y55425D02*
D03*
X24675Y46975D02*
D03*
X25325D02*
D03*
X30150Y45450D02*
D03*
Y43800D02*
D03*
X28500D02*
D03*
X23008Y44625D02*
D03*
X21450Y47348D02*
D03*
X26850Y43800D02*
D03*
Y45450D02*
D03*
X39525Y54575D02*
D03*
X40025D02*
D03*
X41050Y48575D02*
D03*
X41550D02*
D03*
X39750D02*
D03*
X40250D02*
D03*
X23250Y48800D02*
D03*
Y49300D02*
D03*
X31670Y47700D02*
D03*
X29800Y48400D02*
D03*
X28225Y48775D02*
D03*
X31575Y48773D02*
D03*
X24850Y49323D02*
D03*
X26675Y49850D02*
D03*
X27175D02*
D03*
X24850Y48823D02*
D03*
X29100Y51225D02*
D03*
X29763D02*
D03*
X29784Y49027D02*
D03*
X31150Y51033D02*
D03*
X38250Y54575D02*
D03*
X38750D02*
D03*
X36975D02*
D03*
X37475D02*
D03*
X35700D02*
D03*
X36200D02*
D03*
X33280Y43875D02*
D03*
X30960Y37380D02*
D03*
X32235Y39530D02*
D03*
X26165Y36510D02*
D03*
X31850Y34840D02*
D03*
X28240Y34680D02*
D03*
X30285D02*
D03*
X26165Y35550D02*
D03*
X27600Y34640D02*
D03*
X25500Y35610D02*
D03*
X24722Y34610D02*
D03*
X28500Y42150D02*
D03*
X13850Y42200D02*
D03*
X21924Y41202D02*
D03*
X22425D02*
D03*
X21400Y43025D02*
D03*
X13850Y42700D02*
D03*
X20325Y41250D02*
D03*
X14126Y40798D02*
D03*
X13625D02*
D03*
X30150Y42150D02*
D03*
X24188Y42562D02*
D03*
X36420Y42375D02*
D03*
X40104Y42401D02*
D03*
Y41900D02*
D03*
X38304Y42401D02*
D03*
X34635Y37550D02*
D03*
X32590Y37490D02*
D03*
X34575Y41850D02*
D03*
X34075D02*
D03*
X32815Y41397D02*
D03*
X32772Y42100D02*
D03*
X35245Y36460D02*
D03*
X13124Y40798D02*
D03*
X26800Y33125D02*
D03*
X29325Y44625D02*
D03*
X27675D02*
D03*
X28500Y45450D02*
D03*
X29325Y42975D02*
D03*
X27675D02*
D03*
X83657Y38795D02*
D03*
X83849Y40500D02*
D03*
X91982Y32975D02*
D03*
X92532Y40550D02*
D03*
X91729D02*
D03*
X103992Y46992D02*
D03*
X97707Y45850D02*
D03*
X98882Y47094D02*
D03*
X100333Y46689D02*
D03*
X99332Y45800D02*
D03*
X98500Y46631D02*
D03*
X97982Y46962D02*
D03*
X101130Y46724D02*
D03*
X97382Y46962D02*
D03*
X94157Y34625D02*
D03*
X80907Y40894D02*
D03*
X84457Y35577D02*
D03*
X86857Y35575D02*
D03*
X85257Y35575D02*
D03*
X86457Y37827D02*
D03*
X85682D02*
D03*
X87182D02*
D03*
X81507Y40925D02*
D03*
X82332D02*
D03*
X88307Y40715D02*
D03*
X103332Y45020D02*
D03*
X108132Y45000D02*
D03*
X80508Y34420D02*
D03*
X104792Y47037D02*
D03*
X108910Y44200D02*
D03*
X106582Y46800D02*
D03*
X93032Y37850D02*
D03*
X81232Y39625D02*
D03*
X89333Y40650D02*
D03*
X105333Y41950D02*
D03*
X109807Y46775D02*
D03*
X107332Y39425D02*
D03*
X108732Y39275D02*
D03*
X92432Y37950D02*
D03*
X105704Y47005D02*
D03*
X84032Y32500D02*
D03*
X88732Y35725D02*
D03*
X82407Y32675D02*
D03*
X88057Y33025D02*
D03*
X108182Y46800D02*
D03*
X100507Y38725D02*
D03*
X101732Y41795D02*
D03*
X110677Y40875D02*
D03*
X104933Y40202D02*
D03*
X98882Y38900D02*
D03*
X87657Y39595D02*
D03*
X86857Y38795D02*
D03*
X77432Y32048D02*
D03*
X82858Y32275D02*
D03*
X85257Y38795D02*
D03*
X101733Y45000D02*
D03*
X84883Y40525D02*
D03*
X81566Y32386D02*
D03*
X85357Y32325D02*
D03*
X99382Y38550D02*
D03*
X100132Y45020D02*
D03*
X98082Y38600D02*
D03*
X83657Y34775D02*
D03*
X103332Y44220D02*
D03*
X90857Y37995D02*
D03*
X86857Y39595D02*
D03*
X85237Y33975D02*
D03*
X105732Y40200D02*
D03*
X106532D02*
D03*
X101732Y45800D02*
D03*
X88857Y33025D02*
D03*
X85257Y39595D02*
D03*
X101732Y38550D02*
D03*
X100132Y41000D02*
D03*
X86057Y39595D02*
D03*
X84657Y32575D02*
D03*
X82057Y40375D02*
D03*
X104132Y44220D02*
D03*
X101732Y40200D02*
D03*
X98432Y39324D02*
D03*
X90932Y40550D02*
D03*
X86057Y38795D02*
D03*
X84457Y39595D02*
D03*
X82857Y39575D02*
D03*
X108982Y46800D02*
D03*
X100132Y39275D02*
D03*
X89657Y33025D02*
D03*
X100932Y41000D02*
D03*
X86907Y40400D02*
D03*
X107332Y41000D02*
D03*
X100132Y45820D02*
D03*
X97682Y40925D02*
D03*
X86357Y32550D02*
D03*
X81957Y33099D02*
D03*
X81157Y32825D02*
D03*
X90857Y34775D02*
D03*
X101132Y38800D02*
D03*
X109332Y39275D02*
D03*
X103332Y41005D02*
D03*
X102532Y44220D02*
D03*
X100932Y45020D02*
D03*
X99332Y39400D02*
D03*
X83657Y39595D02*
D03*
X104132Y40200D02*
D03*
X102332Y38775D02*
D03*
X92582Y33075D02*
D03*
X84457Y34790D02*
D03*
X102532Y45020D02*
D03*
X96982Y40650D02*
D03*
X87457Y35750D02*
D03*
X86857Y34775D02*
D03*
X83657Y33050D02*
D03*
X82857Y33195D02*
D03*
X103332Y41795D02*
D03*
X97632Y39050D02*
D03*
X107382Y46800D02*
D03*
X100932Y41795D02*
D03*
X90133Y40575D02*
D03*
X78032Y32048D02*
D03*
D46*
X50485Y44466D02*
D03*
X112475Y44350D02*
D03*
Y46125D02*
D03*
X58875Y45900D02*
D03*
X59450Y46325D02*
D03*
X46475Y16550D02*
D03*
X67950Y44825D02*
D03*
X66950Y43850D02*
D03*
X53025Y35875D02*
D03*
X55049Y30165D02*
D03*
X55146Y34494D02*
D03*
X52841Y36352D02*
D03*
X60389Y30112D02*
D03*
X42415Y36154D02*
D03*
X58962Y30112D02*
D03*
X43751Y50580D02*
D03*
X48158Y39500D02*
D03*
X54932Y38744D02*
D03*
X61350Y45350D02*
D03*
X68976Y36326D02*
D03*
X67400Y39375D02*
D03*
X112800Y48676D02*
D03*
X112150Y48680D02*
D03*
X48805Y38061D02*
D03*
X44430Y41000D02*
D03*
X65750Y43000D02*
D03*
X48075Y31550D02*
D03*
X54694Y47600D02*
D03*
X43900Y33000D02*
D03*
X43902Y36305D02*
D03*
Y34655D02*
D03*
X42551Y31633D02*
D03*
X27875Y58675D02*
D03*
X21675Y60437D02*
D03*
X46875Y36825D02*
D03*
X46325D02*
D03*
X45825D02*
D03*
X51000Y31586D02*
D03*
X58325Y39355D02*
D03*
X58400Y42275D02*
D03*
X58875Y41750D02*
D03*
X58280Y41421D02*
D03*
X57872Y36740D02*
D03*
X57790Y40850D02*
D03*
X60025Y38600D02*
D03*
X59410Y41410D02*
D03*
X59850Y41650D02*
D03*
X57790Y41825D02*
D03*
X60198Y40638D02*
D03*
X57790Y39875D02*
D03*
X58925Y38775D02*
D03*
X59475Y38325D02*
D03*
X60558Y44442D02*
D03*
X62650Y41975D02*
D03*
X61725Y44505D02*
D03*
X60531Y42990D02*
D03*
X62072Y42497D02*
D03*
X45800Y38125D02*
D03*
X45300D02*
D03*
X44800D02*
D03*
X43900Y37120D02*
D03*
X44400D02*
D03*
X104758Y52425D02*
D03*
X102833D02*
D03*
X100900D02*
D03*
X99050Y52450D02*
D03*
X112483Y42470D02*
D03*
X60375Y45350D02*
D03*
X60790Y44885D02*
D03*
X61100Y44490D02*
D03*
X66780Y38729D02*
D03*
X60950Y37800D02*
D03*
X61300Y36240D02*
D03*
X66350Y45375D02*
D03*
X67350Y44310D02*
D03*
X67400Y45300D02*
D03*
X66900Y45800D02*
D03*
X67950Y43845D02*
D03*
X61875Y36740D02*
D03*
X60841Y36854D02*
D03*
X63385Y37265D02*
D03*
X63900Y36775D02*
D03*
X64375Y36240D02*
D03*
X62375Y37240D02*
D03*
X62875Y36740D02*
D03*
X63375Y36240D02*
D03*
X62875Y37760D02*
D03*
X62030Y38675D02*
D03*
X62606Y44480D02*
D03*
X62720Y42980D02*
D03*
X65870Y43910D02*
D03*
X64550Y44448D02*
D03*
X64875Y45910D02*
D03*
X63210Y42575D02*
D03*
X60375Y46344D02*
D03*
X65780Y36730D02*
D03*
X66900Y36925D02*
D03*
X65390Y45410D02*
D03*
X65735Y44426D02*
D03*
X65970Y38260D02*
D03*
X65375Y36240D02*
D03*
X66780Y40921D02*
D03*
X65040Y42572D02*
D03*
X65378Y46319D02*
D03*
X66780Y42920D02*
D03*
X67784Y45920D02*
D03*
X66450Y46425D02*
D03*
X60210Y42575D02*
D03*
X59290Y42375D02*
D03*
X66003Y31546D02*
D03*
X66460Y37325D02*
D03*
X65969Y37735D02*
D03*
X69768Y34197D02*
D03*
X67375Y36325D02*
D03*
X67950Y37825D02*
D03*
X67780Y36730D02*
D03*
X67343Y43364D02*
D03*
X67405Y42293D02*
D03*
X67970Y42725D02*
D03*
X67382Y41326D02*
D03*
X67950Y41800D02*
D03*
X66890Y41832D02*
D03*
X66450Y42400D02*
D03*
X110750Y36957D02*
D03*
X111650D02*
D03*
X66469Y39230D02*
D03*
X65530Y40170D02*
D03*
X67471Y38421D02*
D03*
X67964Y38920D02*
D03*
X66875Y44825D02*
D03*
X66779Y37729D02*
D03*
X66925Y39785D02*
D03*
X67899Y39831D02*
D03*
X67474Y40349D02*
D03*
X59989Y37735D02*
D03*
X64625Y42983D02*
D03*
X62375Y36240D02*
D03*
Y45300D02*
D03*
X57862Y44875D02*
D03*
X57275Y31800D02*
D03*
X49889Y39866D02*
D03*
X61625Y38160D02*
D03*
X64375Y37350D02*
D03*
X63900Y37925D02*
D03*
X64875Y36829D02*
D03*
X79425Y57375D02*
D03*
X79450Y56685D02*
D03*
X52175Y41475D02*
D03*
X52675D02*
D03*
X64198Y39575D02*
D03*
X64625Y40143D02*
D03*
X49358Y39866D02*
D03*
X53389Y41170D02*
D03*
X52031Y42800D02*
D03*
X54436Y40077D02*
D03*
X55458Y40070D02*
D03*
X49325Y35825D02*
D03*
X61125Y38675D02*
D03*
X60600Y38175D02*
D03*
X49475Y38554D02*
D03*
X65500Y30275D02*
D03*
X65956Y28986D02*
D03*
X60408Y32204D02*
D03*
X53450Y36225D02*
D03*
X54175D02*
D03*
X60375Y30750D02*
D03*
X66003Y29720D02*
D03*
X57271Y30195D02*
D03*
Y30982D02*
D03*
X60973Y33601D02*
D03*
X59781Y31175D02*
D03*
X60960D02*
D03*
Y32210D02*
D03*
X60956Y32765D02*
D03*
X56956Y32510D02*
D03*
X65999Y30944D02*
D03*
X58240Y49865D02*
D03*
X55875Y47825D02*
D03*
Y34825D02*
D03*
X50050Y35897D02*
D03*
Y38554D02*
D03*
X52850Y38475D02*
D03*
X55077Y36225D02*
D03*
X55550Y38085D02*
D03*
X67300Y33588D02*
D03*
X61625Y42100D02*
D03*
X61625Y42983D02*
D03*
X58396Y46369D02*
D03*
X59931Y45892D02*
D03*
X58348Y43300D02*
D03*
X64800Y37750D02*
D03*
X59469Y37256D02*
D03*
X58939Y37770D02*
D03*
X58349Y38315D02*
D03*
X58858Y40910D02*
D03*
X59345Y39355D02*
D03*
X58875Y39910D02*
D03*
X63747Y38971D02*
D03*
X61625Y40089D02*
D03*
X61040Y42575D02*
D03*
X64017Y42572D02*
D03*
X63625Y42983D02*
D03*
X57782Y43812D02*
D03*
X65806Y40972D02*
D03*
X64125Y38629D02*
D03*
X63075Y38650D02*
D03*
X65050Y40550D02*
D03*
X61125Y48775D02*
D03*
X58816Y34213D02*
D03*
X69762Y48237D02*
D03*
X57966Y42920D02*
D03*
X58375Y37350D02*
D03*
X58875Y36825D02*
D03*
X65750Y39000D02*
D03*
X64876Y38245D02*
D03*
X65150Y39650D02*
D03*
X60525Y40100D02*
D03*
X63625Y41100D02*
D03*
X61092Y40638D02*
D03*
X62700Y40075D02*
D03*
X59325Y43400D02*
D03*
X64125Y40575D02*
D03*
X65700Y42075D02*
D03*
X60625Y42100D02*
D03*
X62875Y45725D02*
D03*
X62400Y46325D02*
D03*
X61875Y45825D02*
D03*
X63100Y40575D02*
D03*
X64625Y42075D02*
D03*
X63625D02*
D03*
X63375Y46250D02*
D03*
X61375Y46325D02*
D03*
X57825Y37800D02*
D03*
X62150Y40625D02*
D03*
X63850Y45725D02*
D03*
X58850Y43800D02*
D03*
X58875Y42740D02*
D03*
X58375Y44325D02*
D03*
X57790Y38850D02*
D03*
X59342Y45383D02*
D03*
X57900Y45800D02*
D03*
X63328Y44412D02*
D03*
X63900Y44825D02*
D03*
X81325Y56655D02*
D03*
Y56155D02*
D03*
X77925Y56755D02*
D03*
D92*
X47175Y46475D02*
D03*
X48425D02*
D03*
D93*
X2175Y830D02*
D03*
X4600D02*
D03*
X7050D02*
D03*
X9875D02*
D03*
X12900D02*
D03*
X15825D02*
D03*
X825Y1625D02*
D03*
Y3225D02*
D03*
Y4775D02*
D03*
Y6500D02*
D03*
X3600Y78750D02*
D03*
X825Y77825D02*
D03*
Y75500D02*
D03*
Y70575D02*
D03*
X95000Y78775D02*
D03*
X92500D02*
D03*
X115411D02*
D03*
X112911D02*
D03*
X110086D02*
D03*
X97586D02*
D03*
X100086D02*
D03*
X102586D02*
D03*
X105086D02*
D03*
X107586D02*
D03*
X51925D02*
D03*
X49425D02*
D03*
X89486D02*
D03*
X86986D02*
D03*
X84486D02*
D03*
X79836D02*
D03*
X77336D02*
D03*
X74836D02*
D03*
X72336D02*
D03*
X69836D02*
D03*
X82336D02*
D03*
X67011D02*
D03*
X54511D02*
D03*
X57011D02*
D03*
X59511D02*
D03*
X62011D02*
D03*
X64511D02*
D03*
X21436D02*
D03*
X18936D02*
D03*
X16436D02*
D03*
X13936D02*
D03*
X11436D02*
D03*
X23936D02*
D03*
X39261D02*
D03*
X26761D02*
D03*
X29261D02*
D03*
X31761D02*
D03*
X34261D02*
D03*
X36761D02*
D03*
X41411D02*
D03*
X43911D02*
D03*
X46411D02*
D03*
X28386Y830D02*
D03*
X25886D02*
D03*
X23386D02*
D03*
X20886D02*
D03*
X18386D02*
D03*
X30886D02*
D03*
X46211D02*
D03*
X33711D02*
D03*
X36211D02*
D03*
X38711D02*
D03*
X41211D02*
D03*
X43711D02*
D03*
X48361D02*
D03*
X50861D02*
D03*
X53361D02*
D03*
X107300D02*
D03*
X104000Y805D02*
D03*
X101286D02*
D03*
X96311Y830D02*
D03*
X93811D02*
D03*
X91311D02*
D03*
X88811D02*
D03*
X86311D02*
D03*
X98811D02*
D03*
X81661D02*
D03*
X79161D02*
D03*
X76661D02*
D03*
X74161D02*
D03*
X71661D02*
D03*
X84161D02*
D03*
X118625Y2850D02*
D03*
Y5350D02*
D03*
Y7850D02*
D03*
Y10350D02*
D03*
Y12850D02*
D03*
X109425Y830D02*
D03*
X111725D02*
D03*
X113975D02*
D03*
X116325D02*
D03*
X118625D02*
D03*
Y15350D02*
D03*
Y32850D02*
D03*
Y35350D02*
D03*
Y37850D02*
D03*
Y40350D02*
D03*
Y42850D02*
D03*
Y17850D02*
D03*
Y20350D02*
D03*
Y22850D02*
D03*
Y25350D02*
D03*
Y27850D02*
D03*
Y30350D02*
D03*
Y45350D02*
D03*
Y62850D02*
D03*
Y65350D02*
D03*
Y67850D02*
D03*
Y70350D02*
D03*
Y72850D02*
D03*
Y47850D02*
D03*
Y50350D02*
D03*
Y52850D02*
D03*
Y55350D02*
D03*
Y57850D02*
D03*
Y60350D02*
D03*
Y77850D02*
D03*
Y75350D02*
D03*
X825Y23475D02*
D03*
Y25975D02*
D03*
Y28475D02*
D03*
Y30975D02*
D03*
Y33475D02*
D03*
Y8475D02*
D03*
Y10975D02*
D03*
Y13475D02*
D03*
Y15975D02*
D03*
Y18475D02*
D03*
Y20975D02*
D03*
Y35975D02*
D03*
Y73500D02*
D03*
Y66000D02*
D03*
Y68500D02*
D03*
X6350Y78775D02*
D03*
X8850D02*
D03*
X6800Y27975D02*
D03*
X23575Y34600D02*
D03*
X42656Y44024D02*
D03*
X37800Y38525D02*
D03*
X53329Y32955D02*
D03*
X47189Y44713D02*
D03*
X21490Y34600D02*
D03*
X22500D02*
D03*
X42575Y65995D02*
D03*
X50389Y33869D02*
D03*
X68777Y54958D02*
D03*
X109050Y50575D02*
D03*
X49725Y31600D02*
D03*
X47672Y29202D02*
D03*
X48200Y34420D02*
D03*
X47112Y33546D02*
D03*
X46975Y30500D02*
D03*
X47125Y34425D02*
D03*
X47625Y36300D02*
D03*
X50450Y60275D02*
D03*
Y63575D02*
D03*
X45995Y47305D02*
D03*
X53800Y23875D02*
D03*
X53467Y26550D02*
D03*
X51350Y21475D02*
D03*
X54175Y63500D02*
D03*
X54195Y60275D02*
D03*
X42252Y38285D02*
D03*
X41577D02*
D03*
X14637Y36823D02*
D03*
X13912D02*
D03*
X14637Y37498D02*
D03*
X13912D02*
D03*
X13187D02*
D03*
Y36823D02*
D03*
X19700Y46198D02*
D03*
X16298Y46890D02*
D03*
X15623D02*
D03*
X16298Y46165D02*
D03*
X15623D02*
D03*
X18850Y51523D02*
D03*
Y50848D02*
D03*
Y50173D02*
D03*
X18175D02*
D03*
Y50848D02*
D03*
Y51523D02*
D03*
X19702Y45473D02*
D03*
X42535Y51865D02*
D03*
X29100Y52950D02*
D03*
X29780D02*
D03*
X42656Y45374D02*
D03*
Y44699D02*
D03*
X43326Y44729D02*
D03*
Y45404D02*
D03*
X41473Y44713D02*
D03*
X40798D02*
D03*
X40123D02*
D03*
Y44038D02*
D03*
X40798D02*
D03*
X41473D02*
D03*
X43326Y44054D02*
D03*
X35350Y34945D02*
D03*
X42252Y37560D02*
D03*
X41577D02*
D03*
X32365Y58430D02*
D03*
X45533Y44683D02*
D03*
X12276Y44465D02*
D03*
X12251Y41802D02*
D03*
Y40902D02*
D03*
X12276Y45365D02*
D03*
X6348Y43576D02*
D03*
Y40914D02*
D03*
Y44476D02*
D03*
X12276Y43565D02*
D03*
X6348Y45376D02*
D03*
Y40014D02*
D03*
X11387Y33647D02*
D03*
X12251Y40002D02*
D03*
X6348Y41814D02*
D03*
X44087Y30462D02*
D03*
X43063Y27050D02*
D03*
X45909Y29117D02*
D03*
X29631Y62047D02*
D03*
X29642Y62800D02*
D03*
X108125Y52475D02*
D03*
X109950Y35925D02*
D03*
X108275D02*
D03*
X106525Y35900D02*
D03*
X98950Y34375D02*
D03*
X104675D02*
D03*
X102775D02*
D03*
X100900D02*
D03*
X84406Y54265D02*
D03*
X81406D02*
D03*
X82774D02*
D03*
X75500Y62900D02*
D03*
X73575Y57875D02*
D03*
X73884Y55227D02*
D03*
X56293Y30993D02*
D03*
X825Y51000D02*
D03*
Y48500D02*
D03*
Y46000D02*
D03*
Y43500D02*
D03*
Y41000D02*
D03*
Y38500D02*
D03*
Y63500D02*
D03*
Y61000D02*
D03*
Y58500D02*
D03*
Y56000D02*
D03*
Y53500D02*
D03*
X68836Y830D02*
D03*
X56336D02*
D03*
X58836D02*
D03*
X61336D02*
D03*
X63836D02*
D03*
X66336D02*
D03*
X51631Y33875D02*
D03*
X49475Y33855D02*
D03*
X48806D02*
D03*
X77675Y57800D02*
D03*
X81600Y57950D02*
D03*
X69284Y30569D02*
D03*
X65956Y28400D02*
D03*
X67730Y28759D02*
D03*
X68584Y30569D02*
D03*
X81475Y55405D02*
D03*
X78550Y56630D02*
D03*
X77250D02*
D03*
X76975Y57805D02*
D03*
X75925Y57145D02*
D03*
Y57880D02*
D03*
X78350Y59055D02*
D03*
X77575Y59080D02*
D03*
X79450Y58930D02*
D03*
X78375Y57705D02*
D03*
X75675Y54605D02*
D03*
M02*
